<svg width="128" height="140" viewBox="0 0 128 140" fill="none" xmlns="http://www.w3.org/2000/svg">
<path d="M49.1845 132.957H46.7762L46.7724 132.763L46.7609 132.571L46.7421 132.381L46.7161 132.195L46.6832 132.011L46.6432 131.83L46.5967 131.653L46.5435 131.478L46.4838 131.306L46.4178 131.138L46.3455 130.974L46.2676 130.813L46.1837 130.657L46.0939 130.504L45.9986 130.355L45.8981 130.212L45.7922 130.072L45.6814 129.938L45.5655 129.809L45.4449 129.685L45.3198 129.566L45.1902 129.452L45.0566 129.345L44.9189 129.244L44.7775 129.148L44.632 129.059L44.4831 128.977L44.3312 128.901L44.1755 128.831L44.017 128.769L43.8558 128.714L43.691 128.666L44.266 126.119L44.5286 126.195L44.7872 126.284L45.0406 126.384L45.2891 126.494L45.5326 126.616L45.7698 126.748L46.0016 126.89L46.2272 127.042L46.4465 127.203L46.6592 127.374L46.865 127.554L47.0638 127.743L47.2553 127.94L47.4393 128.145L47.6157 128.359L47.7839 128.581L47.944 128.809L48.0955 129.046L48.2383 129.288L48.3724 129.539L48.497 129.795L48.6119 130.057L48.7175 130.326L48.8127 130.6L48.898 130.879L48.9725 131.164L49.0363 131.453L49.0891 131.747L49.1305 132.044L49.1604 132.345L49.1784 132.65L49.1845 132.957ZM42.718 140V137.377L42.9281 137.371L43.1344 137.354L43.3374 137.326L43.5374 137.287L43.7333 137.238L43.925 137.179L44.1135 137.109L44.2974 137.03L44.477 136.942L44.6516 136.844L44.8212 136.738L44.9861 136.623L45.1453 136.5L45.2988 136.368L45.4465 136.229L45.5876 136.083L45.7219 135.929L45.8498 135.768L45.9705 135.601L46.0837 135.428L46.1894 135.248L46.287 135.063L46.3764 134.873L46.4575 134.678L46.5301 134.477L46.5939 134.272L46.6485 134.063L46.6936 133.85L46.7293 133.632L46.7552 133.411L46.7709 133.186L46.7762 132.957H49.1845L49.1761 133.319L49.1512 133.676L49.11 134.028L49.0532 134.375L48.9809 134.716L48.8935 135.051L48.7918 135.379L48.6759 135.699L48.5463 136.011L48.4034 136.315L48.2475 136.61L48.0795 136.896L47.8992 137.172L47.7074 137.438L47.5045 137.693L47.2905 137.937L47.0659 138.17L46.8317 138.391L46.5876 138.6L46.3341 138.797L46.0721 138.98L45.801 139.149L45.5217 139.305L45.2351 139.446L44.9412 139.572L44.6405 139.683L44.333 139.778L44.0195 139.857L43.7012 139.919L43.3776 139.964L43.0495 139.991L42.718 140V140ZM36.2515 132.957H38.6598L38.6651 133.186L38.6807 133.411L38.7067 133.632L38.7424 133.85L38.7874 134.063L38.8422 134.272L38.9057 134.478L38.9781 134.677L39.0594 134.873L39.1489 135.063L39.2466 135.248L39.3523 135.428L39.4655 135.601L39.586 135.768L39.7138 135.929L39.8484 136.083L39.9894 136.229L40.1371 136.368L40.2908 136.5L40.4497 136.623L40.6146 136.738L40.7844 136.844L40.9589 136.942L41.1386 137.03L41.3226 137.109L41.5108 137.179L41.7027 137.238L41.8984 137.287L42.0985 137.326L42.3016 137.354L42.5078 137.371L42.718 137.377V140L42.3865 139.991L42.0584 139.964L41.7347 139.919L41.4163 139.857L41.103 139.778L40.7953 139.683L40.4946 139.572L40.2008 139.446L39.9142 139.305L39.6349 139.149L39.364 138.98L39.1018 138.797L38.8482 138.6L38.6043 138.391L38.37 138.17L38.1455 137.937L37.9317 137.693L37.7285 137.438L37.5366 137.172L37.3565 136.896L37.1884 136.61L37.0325 136.315L36.8897 136.011L36.7601 135.699L36.644 135.378L36.5423 135.051L36.4551 134.716L36.3828 134.375L36.3259 134.028L36.2848 133.676L36.2598 133.319L36.2515 132.957V132.957ZM41.4574 126.081V128.704L41.7449 128.666L41.5802 128.714L41.419 128.769L41.2604 128.831L41.1047 128.901L40.9529 128.977L40.8039 129.059L40.6585 129.148L40.5171 129.244L40.3793 129.345L40.2457 129.452L40.1162 129.566L39.991 129.685L39.8705 129.809L39.7545 129.938L39.6438 130.072L39.5378 130.212L39.4373 130.355L39.342 130.504L39.2522 130.657L39.1683 130.813L39.0904 130.974L39.0181 131.138L38.9521 131.306L38.8925 131.478L38.8392 131.653L38.7927 131.83L38.7527 132.011L38.7198 132.195L38.6938 132.381L38.675 132.571L38.6635 132.763L38.6598 132.957H36.2515L36.2575 132.65L36.2756 132.345L36.3055 132.044L36.3468 131.747L36.3997 131.453L36.4634 131.164L36.5379 130.879L36.6232 130.6L36.7184 130.326L36.824 130.057L36.9389 129.795L37.0636 129.539L37.1977 129.288L37.3404 129.046L37.4919 128.809L37.652 128.581L37.8203 128.359L37.9966 128.145L38.1807 127.94L38.3721 127.743L38.5709 127.554L38.7767 127.374L38.9895 127.203L39.2087 127.042L39.4344 126.89L39.6661 126.748L39.9034 126.616L40.1468 126.494L40.3953 126.384L40.6487 126.284L40.9073 126.195L41.17 126.119L41.4574 126.081ZM41.7449 128.666L41.17 126.119L41.2305 126.104L41.2909 126.093L41.3513 126.086L41.4114 126.081L41.4712 126.081L41.5306 126.083L41.5894 126.088L41.6476 126.097L41.7052 126.109L41.7621 126.123L41.8179 126.141L41.8728 126.161L41.9267 126.185L41.9794 126.21L42.0309 126.239L42.0809 126.27L42.1296 126.304L42.1769 126.341L42.2225 126.379L42.2664 126.421L42.3084 126.464L42.3486 126.51L42.3868 126.558L42.423 126.608L42.457 126.66L42.4888 126.715L42.5182 126.771L42.5451 126.829L42.5695 126.889L42.5913 126.951L42.6105 127.014L42.6268 127.079L42.64 127.145L42.6501 127.211L42.657 127.277L42.6609 127.342L42.6617 127.407L42.6597 127.472L42.6546 127.536L42.6467 127.599L42.6361 127.662L42.6226 127.724L42.6064 127.785L42.5878 127.845L42.5663 127.903L42.5425 127.961L42.5163 128.017L42.4875 128.071L42.4563 128.124L42.423 128.176L42.3873 128.225L42.3495 128.273L42.3095 128.319L42.2675 128.363L42.2235 128.404L42.1774 128.444L42.1295 128.481L42.0797 128.515L42.0281 128.547L41.9747 128.577L41.9196 128.603L41.863 128.627L41.8047 128.648L41.7449 128.666ZM43.9785 128.704H41.4574V126.081H43.9785L44.266 126.119L43.9785 128.704ZM43.9785 128.704V126.081L44.0404 126.082L44.1016 126.088L44.1619 126.096L44.2212 126.107L44.2795 126.122L44.3366 126.14L44.3925 126.16L44.4472 126.184L44.5006 126.21L44.5524 126.239L44.6029 126.271L44.6517 126.305L44.6989 126.341L44.7444 126.38L44.7881 126.421L44.8299 126.465L44.8698 126.511L44.9076 126.558L44.9435 126.608L44.977 126.659L45.0083 126.712L45.0373 126.767L45.0639 126.824L45.088 126.882L45.1096 126.941L45.1285 127.002L45.1447 127.064L45.1582 127.128L45.1688 127.192L45.1764 127.258L45.1811 127.325L45.1826 127.392L45.1811 127.46L45.1764 127.526L45.1688 127.592L45.1582 127.657L45.1447 127.72L45.1285 127.782L45.1096 127.843L45.088 127.903L45.0639 127.961L45.0373 128.017L45.0083 128.072L44.977 128.125L44.9435 128.177L44.9076 128.226L44.8698 128.274L44.8299 128.319L44.7881 128.363L44.7444 128.404L44.6989 128.443L44.6517 128.48L44.6029 128.514L44.5524 128.545L44.5006 128.574L44.4472 128.601L44.3925 128.624L44.3366 128.645L44.2795 128.662L44.2212 128.677L44.1619 128.688L44.1016 128.697L44.0404 128.702L43.9785 128.704V128.704Z" fill="#333333"/>
<path d="M92.8965 132.957H90.4882L90.4844 132.763L90.473 132.571L90.4542 132.381L90.4282 132.195L90.3953 132.011L90.3553 131.83L90.3087 131.653L90.2555 131.478L90.1958 131.306L90.1299 131.138L90.0577 130.974L89.9795 130.813L89.8956 130.657L89.8059 130.504L89.7108 130.356L89.61 130.212L89.5042 130.072L89.3933 129.938L89.2774 129.809L89.1569 129.685L89.0318 129.566L88.9023 129.452L88.7687 129.345L88.6311 129.244L88.4894 129.148L88.3441 129.059L88.1951 128.977L88.043 128.901L87.8874 128.831L87.7291 128.769L87.5677 128.714L87.4031 128.666L87.978 126.119L88.2405 126.195L88.4991 126.284L88.7528 126.384L89.0012 126.494L89.2443 126.616L89.4819 126.748L89.7135 126.89L89.9391 127.041L90.1585 127.203L90.3713 127.374L90.577 127.554L90.7758 127.743L90.9674 127.94L91.1512 128.145L91.3277 128.359L91.4958 128.581L91.6559 128.809L91.8075 129.046L91.9505 129.289L92.0843 129.539L92.2089 129.795L92.324 130.057L92.4295 130.326L92.5248 130.6L92.61 130.879L92.6846 131.164L92.7483 131.453L92.8011 131.747L92.8425 132.044L92.8724 132.345L92.8904 132.65L92.8965 132.957ZM86.4299 140V137.377L86.64 137.371L86.8463 137.354L87.0494 137.326L87.2494 137.287L87.4452 137.238L87.6371 137.179L87.8254 137.109L88.0096 137.03L88.1889 136.942L88.3634 136.845L88.5333 136.738L88.6983 136.623L88.8573 136.5L89.0109 136.368L89.1586 136.229L89.2996 136.083L89.4339 135.929L89.5619 135.768L89.6826 135.601L89.7957 135.428L89.9014 135.248L89.999 135.063L90.0885 134.873L90.1696 134.678L90.2421 134.477L90.306 134.272L90.3606 134.063L90.4056 133.85L90.4413 133.632L90.4673 133.411L90.4829 133.186L90.4882 132.957H92.8965L92.8882 133.319L92.8632 133.676L92.8221 134.028L92.7652 134.375L92.6929 134.716L92.6055 135.051L92.5038 135.379L92.3879 135.699L92.2584 136.011L92.1154 136.315L91.9595 136.61L91.7915 136.896L91.6113 137.172L91.4194 137.438L91.2166 137.693L91.0025 137.937L90.778 138.17L90.5437 138.391L90.2997 138.6L90.046 138.797L89.7839 138.98L89.513 139.149L89.2339 139.305L88.947 139.446L88.6531 139.572L88.3525 139.683L88.0449 139.778L87.7315 139.857L87.4132 139.919L87.0895 139.964L86.7614 139.991L86.4299 140V140ZM79.9634 132.957H82.3717L82.377 133.186L82.3926 133.411L82.4186 133.632L82.4543 133.85L82.4993 134.063L82.554 134.272L82.6178 134.477L82.6903 134.678L82.7714 134.873L82.8609 135.063L82.9585 135.248L83.0642 135.428L83.1774 135.601L83.298 135.768L83.426 135.929L83.5603 136.083L83.7013 136.229L83.849 136.368L84.0026 136.5L84.1617 136.623L84.3266 136.738L84.4963 136.844L84.6708 136.942L84.8505 137.03L85.0344 137.109L85.2228 137.179L85.4146 137.238L85.6105 137.287L85.8104 137.326L86.0135 137.354L86.2197 137.371L86.4299 137.377V140L86.0984 139.991L85.7703 139.964L85.4466 139.919L85.1284 139.857L84.8149 139.778L84.5074 139.683L84.2066 139.572L83.9127 139.446L83.6262 139.305L83.3469 139.149L83.0758 138.98L82.8138 138.797L82.5603 138.6L82.3162 138.391L82.0819 138.17L81.8574 137.937L81.6433 137.693L81.4405 137.438L81.2486 137.172L81.0684 136.896L80.9004 136.61L80.7445 136.315L80.6015 136.011L80.472 135.699L80.3561 135.379L80.2544 135.051L80.167 134.716L80.0947 134.375L80.0378 134.028L79.9967 133.676L79.9717 133.319L79.9634 132.957V132.957ZM85.1694 126.081V128.704L85.4568 128.666L85.2921 128.714L85.1309 128.769L84.9723 128.831L84.8167 128.901L84.6648 128.977L84.5158 129.059L84.3704 129.148L84.229 129.244L84.0912 129.345L83.9577 129.452L83.8281 129.566L83.703 129.685L83.5824 129.809L83.4664 129.938L83.3557 130.072L83.2497 130.212L83.1492 130.355L83.054 130.504L82.9642 130.657L82.8803 130.813L82.8023 130.974L82.73 131.138L82.6641 131.306L82.6044 131.478L82.5512 131.653L82.5046 131.83L82.4646 132.011L82.4317 132.195L82.4057 132.381L82.3869 132.571L82.3754 132.763L82.3717 132.957H79.9634L79.9694 132.65L79.9875 132.345L80.0174 132.044L80.0587 131.747L80.1116 131.453L80.1753 131.164L80.2498 130.879L80.3351 130.6L80.4304 130.326L80.5359 130.057L80.6509 129.795L80.7755 129.539L80.9096 129.288L81.0524 129.046L81.2039 128.809L81.3639 128.581L81.5322 128.359L81.7085 128.145L81.8926 127.94L82.0841 127.743L82.2829 127.554L82.4886 127.374L82.7014 127.203L82.9206 127.042L83.1463 126.89L83.378 126.748L83.6153 126.616L83.8587 126.494L84.1072 126.384L84.3607 126.284L84.6193 126.195L84.8819 126.119L85.1694 126.081ZM85.4568 128.666L84.8819 126.119L84.9424 126.104L85.0029 126.093L85.0633 126.086L85.1233 126.081L85.1831 126.081L85.2425 126.083L85.3013 126.088L85.3596 126.097L85.4171 126.109L85.474 126.123L85.5299 126.141L85.5847 126.161L85.6386 126.185L85.6913 126.21L85.7428 126.239L85.7929 126.27L85.8416 126.304L85.8889 126.341L85.9344 126.379L85.9783 126.421L86.0203 126.464L86.0605 126.51L86.0988 126.558L86.135 126.608L86.1689 126.66L86.2007 126.715L86.2301 126.771L86.2571 126.829L86.2814 126.889L86.3032 126.951L86.3224 127.014L86.3387 127.079L86.3519 127.145L86.362 127.211L86.369 127.277L86.3729 127.342L86.3736 127.407L86.3716 127.472L86.3666 127.536L86.3586 127.599L86.348 127.662L86.3345 127.724L86.3184 127.785L86.2997 127.845L86.2783 127.903L86.2544 127.961L86.2282 128.017L86.1994 128.071L86.1683 128.124L86.135 128.176L86.0993 128.225L86.0614 128.273L86.0214 128.319L85.9794 128.363L85.9354 128.404L85.8894 128.444L85.8414 128.481L85.7916 128.515L85.74 128.547L85.6867 128.577L85.6315 128.603L85.5749 128.627L85.5166 128.648L85.4568 128.666ZM87.6905 128.704H85.1694V126.081H87.6905L87.978 126.119L87.6905 128.704ZM87.6905 128.704V126.081L87.7525 126.082L87.8136 126.088L87.8739 126.096L87.9332 126.107L87.9915 126.122L88.0486 126.14L88.1045 126.16L88.1593 126.184L88.2126 126.21L88.2645 126.239L88.3149 126.271L88.3638 126.305L88.4109 126.341L88.4565 126.38L88.5001 126.421L88.542 126.465L88.5818 126.511L88.6197 126.558L88.6555 126.608L88.6891 126.659L88.7203 126.712L88.7493 126.767L88.776 126.824L88.8001 126.882L88.8216 126.941L88.8405 127.002L88.8567 127.064L88.8702 127.128L88.8808 127.192L88.8885 127.258L88.8932 127.325L88.8947 127.392L88.8932 127.46L88.8885 127.526L88.8808 127.592L88.8702 127.657L88.8567 127.72L88.8405 127.782L88.8216 127.843L88.8001 127.903L88.776 127.961L88.7493 128.017L88.7203 128.072L88.6891 128.125L88.6555 128.177L88.6197 128.226L88.5818 128.274L88.542 128.319L88.5001 128.363L88.4565 128.404L88.4109 128.443L88.3638 128.48L88.3149 128.514L88.2645 128.545L88.2126 128.574L88.1593 128.601L88.1045 128.624L88.0486 128.645L87.9915 128.662L87.9332 128.677L87.8739 128.688L87.8136 128.697L87.7525 128.702L87.6905 128.704V128.704Z" fill="#333333"/>
<path fill-rule="evenodd" clip-rule="evenodd" d="M25.8564 78.0651H102.639V103.433H25.8564V78.0651Z" fill="#88A6E3"/>
<path d="M102.638 79.3765H25.8562V76.7537H102.638L103.843 78.0651L102.638 79.3765V79.3765ZM102.638 79.3765V76.7537L102.7 76.7553L102.761 76.7604L102.822 76.7688L102.881 76.7803L102.939 76.795L102.997 76.8126L103.053 76.8332L103.107 76.8567L103.16 76.8829L103.212 76.9119L103.263 76.9435L103.312 76.9776L103.359 77.0141L103.405 77.0532L103.448 77.0944L103.49 77.1378L103.53 77.1834L103.568 77.2309L103.604 77.2805L103.637 77.3319L103.669 77.3851L103.698 77.44L103.724 77.4965L103.748 77.5546L103.77 77.6142L103.789 77.6751L103.805 77.7373L103.819 77.8008L103.829 77.8653L103.837 77.931L103.842 77.9976L103.843 78.0651L103.842 78.1325L103.837 78.1992L103.829 78.2648L103.819 78.3294L103.805 78.3929L103.789 78.4551L103.77 78.516L103.748 78.5756L103.724 78.6337L103.698 78.6901L103.669 78.7451L103.637 78.7983L103.604 78.8496L103.568 78.8992L103.53 78.9468L103.49 78.9924L103.448 79.0358L103.405 79.077L103.359 79.116L103.312 79.1526L103.263 79.1866L103.212 79.2182L103.16 79.2472L103.107 79.2734L103.053 79.2969L102.997 79.3175L102.939 79.3351L102.881 79.3498L102.822 79.3614L102.761 79.3697L102.7 79.3748L102.638 79.3765V79.3765ZM101.433 103.433V78.0651H103.843V103.433L102.638 104.745L101.433 103.433ZM101.433 103.433H103.843L103.842 103.501L103.837 103.567L103.829 103.633L103.819 103.698L103.805 103.761L103.789 103.823L103.77 103.884L103.748 103.944L103.724 104.002L103.698 104.058L103.669 104.113L103.637 104.166L103.604 104.218L103.568 104.267L103.53 104.315L103.49 104.36L103.448 104.404L103.405 104.445L103.359 104.484L103.312 104.521L103.263 104.555L103.212 104.586L103.16 104.615L103.107 104.642L103.053 104.665L102.996 104.686L102.939 104.703L102.881 104.718L102.822 104.729L102.761 104.738L102.7 104.743L102.638 104.745L102.576 104.743L102.515 104.738L102.455 104.729L102.395 104.718L102.337 104.703L102.28 104.686L102.224 104.665L102.169 104.642L102.116 104.615L102.064 104.586L102.014 104.555L101.965 104.521L101.918 104.484L101.872 104.445L101.828 104.404L101.786 104.36L101.746 104.315L101.709 104.267L101.673 104.218L101.639 104.166L101.608 104.113L101.579 104.058L101.552 104.002L101.528 103.944L101.507 103.884L101.488 103.823L101.471 103.761L101.458 103.698L101.447 103.633L101.44 103.567L101.435 103.501L101.433 103.433ZM25.8561 102.122H102.638V104.745H25.8561L24.6514 103.433L25.8561 102.122V102.122ZM25.8561 102.122V104.745L25.7942 104.743L25.733 104.738L25.6727 104.729L25.6133 104.718L25.555 104.703L25.4979 104.686L25.4419 104.665L25.3873 104.642L25.3339 104.615L25.2819 104.586L25.2315 104.555L25.1826 104.521L25.1354 104.484L25.0898 104.445L25.0461 104.404L25.0043 104.36L24.9643 104.315L24.9265 104.267L24.8908 104.218L24.8571 104.166L24.8258 104.113L24.7968 104.058L24.7702 104.002L24.7461 103.944L24.7245 103.884L24.7055 103.823L24.6893 103.761L24.6758 103.698L24.6652 103.633L24.6576 103.567L24.6529 103.501L24.6514 103.433L24.6529 103.366L24.6576 103.299L24.6652 103.233L24.6758 103.169L24.6893 103.105L24.7055 103.043L24.7245 102.982L24.7461 102.923L24.7702 102.865L24.7968 102.808L24.8258 102.753L24.8571 102.7L24.8908 102.649L24.9265 102.599L24.9643 102.552L25.0043 102.506L25.0461 102.463L25.0898 102.421L25.1354 102.382L25.1826 102.346L25.2315 102.312L25.2819 102.28L25.3339 102.251L25.3873 102.225L25.4419 102.201L25.4979 102.181L25.555 102.163L25.6133 102.148L25.6727 102.137L25.733 102.129L25.7942 102.123L25.8561 102.122V102.122ZM27.0609 78.0651V103.433H24.6514V78.0651L25.8562 76.7537L27.0609 78.0651H27.0609ZM27.0609 78.0651H24.6514L24.6529 77.9976L24.6576 77.931L24.6653 77.8653L24.6758 77.8008L24.6893 77.7373L24.7055 77.6751L24.7245 77.6142L24.7461 77.5546L24.7702 77.4965L24.7968 77.44L24.8258 77.3851L24.8571 77.3319L24.8908 77.2805L24.9265 77.2309L24.9643 77.1834L25.0043 77.1378L25.0461 77.0944L25.0898 77.0532L25.1354 77.0141L25.1826 76.9776L25.2315 76.9435L25.2819 76.9119L25.3339 76.8829L25.3873 76.8567L25.4419 76.8332L25.4979 76.8126L25.5551 76.795L25.6133 76.7803L25.6727 76.7688L25.733 76.7604L25.7942 76.7553L25.8562 76.7537L25.9181 76.7553L25.9793 76.7604L26.0396 76.7688L26.099 76.7803L26.1573 76.795L26.2144 76.8126L26.2704 76.8332L26.325 76.8567L26.3784 76.8829L26.4303 76.9119L26.4808 76.9435L26.5297 76.9776L26.5769 77.0141L26.6225 77.0532L26.6662 77.0944L26.708 77.1378L26.748 77.1834L26.7858 77.2309L26.8215 77.2805L26.8552 77.3319L26.8865 77.3851L26.9155 77.44L26.9421 77.4965L26.9662 77.5546L26.9878 77.6142L27.0068 77.6751L27.023 77.7373L27.0364 77.8008L27.047 77.8653L27.0547 77.931L27.0594 77.9976L27.0609 78.0651H27.0609Z" fill="#333333"/>
<path fill-rule="evenodd" clip-rule="evenodd" d="M25.8564 103.433H102.639V127.392H25.8564V103.433Z" fill="#88A6E3"/>
<path d="M102.638 104.745H25.8562V102.122H102.638L103.847 103.433L102.638 104.745ZM102.638 104.745V102.122L102.7 102.123L102.762 102.128L102.822 102.137L102.882 102.148L102.94 102.163L102.998 102.18L103.054 102.201L103.109 102.225L103.162 102.251L103.215 102.28L103.265 102.311L103.314 102.346L103.362 102.382L103.407 102.421L103.451 102.462L103.493 102.506L103.533 102.551L103.571 102.599L103.607 102.648L103.641 102.7L103.672 102.753L103.701 102.808L103.728 102.864L103.752 102.923L103.774 102.982L103.793 103.043L103.809 103.105L103.823 103.169L103.834 103.233L103.841 103.299L103.846 103.366L103.847 103.433L103.846 103.501L103.841 103.567L103.834 103.633L103.823 103.697L103.809 103.761L103.793 103.823L103.774 103.884L103.752 103.944L103.728 104.002L103.701 104.058L103.672 104.113L103.641 104.166L103.607 104.218L103.571 104.267L103.533 104.315L103.493 104.361L103.451 104.404L103.407 104.445L103.362 104.484L103.314 104.521L103.265 104.555L103.215 104.586L103.162 104.615L103.109 104.642L103.054 104.665L102.998 104.686L102.94 104.703L102.882 104.718L102.822 104.73L102.762 104.738L102.7 104.743L102.638 104.745V104.745ZM101.429 127.392V103.433H103.847V127.392L102.638 128.704L101.429 127.392ZM101.429 127.392H103.847L103.846 127.459L103.841 127.526L103.834 127.592L103.823 127.656L103.809 127.72L103.793 127.782L103.774 127.843L103.752 127.903L103.728 127.961L103.701 128.017L103.672 128.072L103.641 128.125L103.607 128.177L103.571 128.226L103.533 128.274L103.493 128.319L103.451 128.363L103.407 128.404L103.362 128.443L103.314 128.48L103.265 128.514L103.215 128.545L103.162 128.574L103.109 128.601L103.054 128.624L102.998 128.645L102.94 128.662L102.882 128.677L102.822 128.688L102.762 128.697L102.7 128.702L102.638 128.704L102.576 128.702L102.515 128.697L102.454 128.688L102.395 128.677L102.336 128.662L102.279 128.645L102.222 128.624L102.168 128.601L102.114 128.574L102.062 128.545L102.011 128.514L101.962 128.48L101.915 128.443L101.869 128.404L101.825 128.363L101.783 128.319L101.743 128.274L101.705 128.226L101.669 128.177L101.636 128.125L101.604 128.072L101.575 128.017L101.548 127.961L101.524 127.903L101.502 127.843L101.483 127.782L101.467 127.72L101.454 127.656L101.443 127.592L101.435 127.526L101.431 127.459L101.429 127.392ZM25.8562 126.08H102.638V128.704H25.8562L24.647 127.392L25.8562 126.08ZM25.8562 126.08V128.704L25.794 128.702L25.7326 128.697L25.672 128.688L25.6125 128.677L25.5539 128.662L25.4965 128.645L25.4404 128.624L25.3855 128.601L25.3319 128.574L25.2798 128.545L25.2291 128.514L25.1801 128.479L25.1328 128.443L25.087 128.404L25.0432 128.363L25.0012 128.319L24.9611 128.274L24.9231 128.226L24.8872 128.177L24.8535 128.125L24.8221 128.072L24.7929 128.017L24.7662 127.961L24.742 127.903L24.7204 127.843L24.7014 127.782L24.6851 127.72L24.6716 127.656L24.6609 127.592L24.6532 127.526L24.6485 127.459L24.647 127.392L24.6485 127.325L24.6532 127.258L24.6609 127.192L24.6716 127.128L24.6851 127.064L24.7014 127.002L24.7204 126.941L24.742 126.882L24.7662 126.823L24.7929 126.767L24.8221 126.712L24.8535 126.659L24.8872 126.607L24.9231 126.558L24.9611 126.51L25.0012 126.465L25.0432 126.421L25.087 126.38L25.1328 126.341L25.1801 126.305L25.2291 126.27L25.2798 126.239L25.3319 126.21L25.3855 126.184L25.4404 126.16L25.4965 126.139L25.5539 126.122L25.6125 126.107L25.672 126.096L25.7326 126.087L25.794 126.082L25.8562 126.08ZM27.0654 103.433V127.392H24.647V103.433L25.8562 102.122L27.0653 103.433H27.0654ZM27.0654 103.433H24.647L24.6485 103.366L24.6532 103.299L24.6608 103.233L24.6716 103.169L24.6851 103.105L24.7013 103.043L24.7204 102.982L24.742 102.923L24.7662 102.864L24.7929 102.808L24.8221 102.753L24.8535 102.7L24.8871 102.648L24.9231 102.599L24.9611 102.551L25.0012 102.506L25.0432 102.462L25.087 102.421L25.1327 102.382L25.18 102.346L25.2291 102.311L25.2798 102.28L25.3319 102.251L25.3855 102.225L25.4404 102.201L25.4965 102.18L25.5539 102.163L25.6125 102.148L25.672 102.137L25.7325 102.128L25.794 102.123L25.8562 102.122L25.9184 102.123L25.9798 102.128L26.0403 102.137L26.0999 102.148L26.1584 102.163L26.2158 102.18L26.2719 102.201L26.3268 102.225L26.3804 102.251L26.4325 102.28L26.4832 102.311L26.5323 102.346L26.5796 102.382L26.6254 102.421L26.6691 102.462L26.7111 102.506L26.7513 102.551L26.7892 102.599L26.8252 102.648L26.8589 102.7L26.8903 102.753L26.9194 102.808L26.9462 102.864L26.9704 102.923L26.9919 102.982L27.011 103.043L27.0273 103.105L27.0408 103.169L27.0515 103.233L27.0592 103.299L27.0638 103.366L27.0653 103.433H27.0654Z" fill="#333333"/>
<path fill-rule="evenodd" clip-rule="evenodd" d="M32.6818 14.3679C32.2584 13.4035 31.4755 12.631 30.46 12.3047C28.623 11.7143 26.6974 12.7997 26.0337 14.8443C27.0633 11.3119 28.9115 9.22997 31.5472 8.70106L94.6473 1.31565C98.2503 1.21509 100.457 2.88986 101.267 6.34036L32.6818 14.3679H32.6818Z" fill="#88A6E3"/>
<path d="M30.1199 13.5626L30.8016 11.0469H30.8015L30.927 11.0892L31.051 11.1351L31.1731 11.1843L31.2938 11.237L31.4126 11.2931L31.5289 11.352L31.6437 11.4141L31.7567 11.4796L31.868 11.5483L31.9762 11.6196L32.0831 11.6939L32.1878 11.7714L32.2891 11.8506L32.3888 11.9327L32.487 12.0182L32.5823 12.1059L32.6752 12.1958L32.766 12.2885L32.8543 12.3834L32.9398 12.4803L33.0235 12.58L33.1043 12.6817L33.1823 12.785L33.2583 12.8909L33.3314 12.9985L33.4016 13.1074L33.4699 13.2192L33.5351 13.3324L33.598 13.448L33.6576 13.5643L33.7145 13.6818L33.7689 13.8021L31.5963 14.9336L31.5693 14.8742L31.5404 14.8145L31.5104 14.7558L31.4795 14.6991L31.4468 14.6425L31.4131 14.5872L31.3774 14.5319L31.341 14.4782L31.3035 14.4258L31.2642 14.3739L31.2239 14.3233L31.1827 14.2742L31.1398 14.2257L31.0961 14.1786L31.0515 14.1331L31.0051 14.088L30.9579 14.0447L30.91 14.003L30.8604 13.962L30.8091 13.9219L30.7578 13.884L30.7055 13.8476L30.6512 13.812L30.597 13.7785L30.5413 13.7462L30.4842 13.7152L30.426 13.6856L30.3672 13.6579L30.3073 13.6318L30.246 13.6071L30.1835 13.584L30.1201 13.5626H30.1199V13.5626ZM24.8867 14.4475L27.1822 15.241L24.8992 14.4072L24.9849 14.1612L25.0805 13.9218L25.185 13.6899L25.2988 13.4647L25.4214 13.2471L25.5524 13.0375L25.6912 12.836L25.8377 12.643L25.9918 12.4582L26.1532 12.2822L26.3206 12.116L26.4946 11.9584L26.6751 11.8102L26.8612 11.6717L27.0523 11.5434L27.2486 11.4248L27.45 11.3164L27.6555 11.2185L27.8653 11.1311L28.0786 11.0546L28.2956 10.9891L28.5155 10.9347L28.7384 10.8918L28.9636 10.8603L29.1909 10.8408L29.4195 10.8333L29.6492 10.8377L29.8801 10.8544L30.111 10.8837L30.3419 10.9255L30.5723 10.9799L30.8016 11.0469L30.1199 13.5626L30.0044 13.5288L29.8894 13.5016L29.7747 13.481L29.6607 13.4665L29.5475 13.4583L29.4346 13.4561L29.3223 13.4598L29.2113 13.4694L29.1012 13.4847L28.9921 13.5058L28.8841 13.5325L28.7774 13.5648L28.6721 13.6025L28.5683 13.6457L28.4665 13.6942L28.3667 13.7479L28.2688 13.8071L28.1731 13.8714L28.0801 13.9406L27.9899 14.0147L27.9024 14.0939L27.8172 14.1786L27.7359 14.2672L27.6579 14.3607L27.5829 14.4595L27.5116 14.5627L27.4442 14.6706L27.3809 14.783L27.3216 14.9005L27.2662 15.023L27.2158 15.1495L27.1697 15.2814L24.8867 14.4475L24.8867 14.4475ZM24.8992 14.4072L27.1697 15.2814L27.1477 15.3445L27.1228 15.4056L27.0956 15.4647L27.0658 15.5217L27.0338 15.5766L26.9993 15.6294L26.9629 15.68L26.9243 15.7283L26.8838 15.7743L26.8414 15.818L26.7972 15.8592L26.7514 15.898L26.704 15.9342L26.6552 15.968L26.6049 15.9991L26.5534 16.0277L26.5007 16.0533L26.4468 16.0764L26.3921 16.0966L26.3363 16.1139L26.2798 16.1284L26.2227 16.1398L26.1648 16.1483L26.1065 16.1536L26.0477 16.156L25.9887 16.155L25.9294 16.151L25.87 16.1436L25.8106 16.133L25.7513 16.119L25.692 16.1016L25.6331 16.0807L25.5752 16.0566L25.5191 16.0296L25.4648 15.9999L25.4125 15.9675L25.362 15.9326L25.3136 15.8951L25.2671 15.8554L25.2228 15.8133L25.1805 15.7693L25.1404 15.7231L25.1025 15.675L25.067 15.6251L25.0337 15.5735L25.0026 15.5203L24.9741 15.4655L24.9479 15.4095L24.9243 15.352L24.9031 15.2934L24.8846 15.2338L24.8687 15.173L24.8554 15.1115L24.845 15.0493L24.8371 14.9862L24.8322 14.9227L24.8301 14.8587L24.831 14.7944L24.8346 14.7299L24.8414 14.6652L24.8511 14.6004L24.864 14.5359L24.88 14.4713L24.8992 14.4072L24.8992 14.4072ZM31.4193 7.39707L31.6766 10.005L31.7662 9.99076L31.5642 10.0354L31.3676 10.0872L31.176 10.146L30.9892 10.2118L30.8069 10.2846L30.6288 10.3644L30.4551 10.4511L30.2854 10.5449L30.1193 10.6459L29.957 10.754L29.7981 10.8694L29.6425 10.9922L29.4902 11.1226L29.3409 11.2611L29.1946 11.4074L29.0513 11.5617L28.9107 11.7245L28.7732 11.8958L28.6384 12.0757L28.507 12.2639L28.3784 12.4615L28.2525 12.6682L28.1302 12.8835L28.0108 13.1084L27.8948 13.3424L27.7823 13.5854L27.673 13.8381L27.5675 14.1L27.4654 14.371L27.3673 14.6517L27.2728 14.9417L27.1822 15.241L24.8867 14.4476L24.9939 14.093L25.1068 13.7464L25.2256 13.4072L25.3502 13.0757L25.4807 12.752L25.6172 12.4366L25.7597 12.1285L25.9086 11.8289L26.0632 11.5372L26.2247 11.2533L26.3919 10.9784L26.5659 10.7113L26.7465 10.4528L26.9334 10.2033L27.1266 9.96273L27.3267 9.73098L27.533 9.50856L27.746 9.29577L27.9652 9.09272L28.1909 8.89943L28.4225 8.71644L28.6602 8.54362L28.9041 8.38138L29.1532 8.22986L29.4081 8.08904L29.6686 7.95895L29.9337 7.84012L30.2038 7.73214L30.4789 7.63529L30.7583 7.54956L31.042 7.47497L31.3297 7.41136L31.4193 7.39707V7.39707ZM31.7662 9.99076L31.3297 7.41137L31.3909 7.40079L31.452 7.39379L31.5125 7.39008L31.5728 7.38967L31.6325 7.39255L31.6916 7.39873L31.7502 7.40794L31.8078 7.4203L31.8646 7.43555L31.9205 7.45382L31.9753 7.47484L32.0291 7.49874L32.0815 7.52539L32.1328 7.55479L32.1827 7.58666L32.231 7.62115L32.2778 7.6581L32.323 7.69739L32.3664 7.73902L32.4079 7.78298L32.4476 7.82914L32.4852 7.87736L32.5208 7.92777L32.5542 7.98011L32.5854 8.03438L32.6141 8.09056L32.6404 8.14867L32.6642 8.2083L32.6853 8.2697L32.7038 8.33276L32.7194 8.39733L32.7322 8.46341L32.7419 8.53003L32.7483 8.59653L32.7517 8.66247L32.7521 8.72813L32.7495 8.79311L32.7438 8.85754L32.7353 8.92128L32.724 8.98407L32.71 9.04589L32.6932 9.10674L32.6739 9.1665L32.652 9.22503L32.6275 9.28218L32.6005 9.33795L32.5712 9.39235L32.5396 9.44497L32.5056 9.49593L32.4696 9.54512L32.4313 9.59237L32.391 9.63757L32.3486 9.68084L32.3043 9.72178L32.258 9.76052L32.21 9.79693L32.1601 9.83086L32.1085 9.86218L32.0552 9.89076L32.0004 9.91672L31.9441 9.93966L31.8862 9.95986L31.8269 9.97689L31.7662 9.99077V9.99076ZM94.7769 2.61964L31.6767 10.005L31.4194 7.39707L94.5195 0.0116641L94.6173 0.00465788L94.7769 2.61964V2.61964ZM94.7769 2.61964L94.5195 0.0116641L94.5813 0.00616903L94.6427 0.00410838L94.7033 0.00534477L94.7635 0.00987823L94.8228 0.0177087L94.8813 0.0286989L94.9389 0.042574L94.9957 0.0596088L95.0513 0.0795285L95.1057 0.102333L95.1591 0.127748L95.2109 0.156048L95.2615 0.186957L95.3106 0.22034L95.358 0.256196L95.4039 0.294524L95.4479 0.335188L95.4903 0.378049L95.5307 0.423246L95.5692 0.470367L95.6055 0.519685L95.6397 0.570927L95.6717 0.624092L95.7013 0.679043L95.7286 0.735642L95.7534 0.794028L95.7757 0.854061L95.7953 0.915606L95.8121 0.978525L95.8262 1.04296L95.8373 1.10862L95.8455 1.17552L95.8506 1.24284L95.8525 1.3096L95.8513 1.37568L95.8472 1.44121L95.84 1.50578L95.8299 1.56952L95.8172 1.6323L95.8015 1.69412L95.7832 1.75471L95.7623 1.81392L95.7389 1.87203L95.7129 1.92849L95.6846 1.98358L95.6539 2.03702L95.621 2.08867L95.5858 2.13868L95.5485 2.18662L95.5091 2.23278L95.4676 2.27674L95.4243 2.31864L95.3791 2.35821L95.332 2.39543L95.2832 2.43033L95.2327 2.46261L95.1808 2.49229L95.1272 2.51935L95.072 2.54353L95.0155 2.56496L94.9577 2.58323L94.8986 2.59862L94.8383 2.6107L94.7769 2.61963V2.61964ZM101.397 7.64435L101.139 5.03638L100.101 6.66526L100.032 6.39037L99.957 6.12771L99.8756 5.87658L99.7884 5.63727L99.6957 5.40978L99.5975 5.19354L99.4936 4.98789L99.3848 4.79309L99.2706 4.60887L99.1513 4.4344L99.0266 4.26927L98.8964 4.11321L98.7606 3.96594L98.6191 3.82692L98.4715 3.69586L98.317 3.57249L98.1553 3.45613L97.9865 3.34706L97.8104 3.24553L97.6254 3.15102L97.432 3.06337L97.23 2.98342L97.0185 2.91075L96.798 2.84577L96.5674 2.78862L96.3273 2.73944L96.0775 2.69877L95.8179 2.66649L95.548 2.643L95.2682 2.6283L94.9786 2.6228L94.6791 2.62665L94.6173 0.00467083L94.9851 0L95.3466 0.00686887L95.7013 0.0254149L96.0498 0.0557752L96.3921 0.0982248L96.7279 0.153176L97.0569 0.220491L97.3793 0.300444L97.6951 0.393449L98.0038 0.499641L98.3057 0.61916L98.5994 0.752141L98.8857 0.898585L99.1642 1.05918L99.4336 1.2331L99.6937 1.42034L99.9449 1.62119L100.187 1.8355L100.418 2.06244L100.638 2.30203L100.848 2.55371L101.047 2.8172L101.235 3.09195L101.412 3.37783L101.578 3.67402L101.733 3.97996L101.876 4.2962L102.009 4.62206L102.131 4.95698L102.242 5.3007L102.344 5.65376L102.435 6.01548L101.397 7.64436V7.64435ZM100.101 6.66526L102.435 6.01547L102.449 6.08128L102.459 6.14708L102.467 6.21275L102.471 6.27814L102.472 6.34325L102.471 6.40796L102.466 6.47211L102.459 6.53558L102.449 6.59836L102.436 6.66032L102.42 6.72132L102.402 6.78135L102.381 6.84028L102.358 6.89785L102.332 6.95417L102.304 7.00912L102.273 7.06242L102.24 7.11421L102.205 7.16422L102.168 7.2123L102.128 7.2586L102.086 7.3027L102.043 7.34487L101.997 7.38471L101.949 7.42221L101.9 7.45725L101.848 7.4898L101.795 7.51975L101.74 7.54682L101.684 7.57113L101.626 7.59256L101.566 7.61097L101.506 7.62608L101.445 7.63762L101.385 7.64586L101.325 7.65067L101.265 7.65218L101.206 7.6504L101.147 7.64559L101.089 7.63762L101.031 7.62649L100.974 7.61248L100.918 7.59545L100.863 7.57566L100.809 7.55286L100.756 7.52745L100.704 7.49928L100.654 7.46851L100.605 7.43513L100.557 7.39927L100.511 7.36094L100.467 7.32014L100.425 7.27701L100.384 7.23167L100.346 7.18414L100.309 7.13427L100.275 7.08248L100.242 7.02849L100.213 6.97258L100.185 6.91474L100.16 6.85498L100.138 6.79344L100.118 6.73025L100.101 6.66527V6.66526ZM32.554 13.0639L101.139 5.03638L101.397 7.64435L32.8113 15.6719L31.5963 14.9336L32.554 13.0639V13.0639ZM32.554 13.0639L32.8113 15.6719L32.7495 15.6774L32.6882 15.6794L32.6275 15.6782L32.5673 15.6736L32.508 15.6658L32.4495 15.6548L32.3919 15.6409L32.3351 15.6239L32.2795 15.604L32.2251 15.5812L32.1717 15.5558L32.1199 15.5275L32.0693 15.4966L32.0203 15.4632L31.9728 15.4273L31.9269 15.389L31.8829 15.3483L31.8405 15.3055L31.8001 15.2603L31.7617 15.2132L31.7253 15.1638L31.6911 15.1126L31.6591 15.0594L31.6295 15.0045L31.6022 14.9479L31.5774 14.8895L31.5552 14.8295L31.5355 14.7679L31.5187 14.705L31.5046 14.6406L31.4935 14.5749L31.4853 14.508L31.4802 14.4407L31.4783 14.3739L31.4795 14.3078L31.4836 14.2423L31.4908 14.1777L31.5009 14.114L31.5137 14.0512L31.5293 13.9894L31.5476 13.9288L31.5685 13.8696L31.5919 13.8115L31.6179 13.755L31.6462 13.6999L31.6769 13.6465L31.7098 13.5949L31.745 13.5448L31.7823 13.4969L31.8217 13.4507L31.8632 13.4068L31.9065 13.3649L31.9518 13.3253L31.9988 13.2881L32.0476 13.2532L32.0981 13.2209L32.1501 13.1912L32.2037 13.1642L32.2588 13.14L32.3153 13.1186L32.3731 13.1003L32.4322 13.0849L32.4925 13.0728L32.554 13.0639V13.0639Z" fill="#333333"/>
<path fill-rule="evenodd" clip-rule="evenodd" d="M29.4447 12.145C31.4263 12.145 33.0327 13.8945 33.0327 16.0526C33.0327 18.2108 31.4263 19.9605 29.4447 19.9605C27.463 19.9605 25.8564 18.2108 25.8564 16.0526C25.8564 13.8945 27.463 12.145 29.4447 12.145Z" fill="#66798F"/>
<path d="M34.2364 16.0527H31.8282L31.825 15.9178L31.8157 15.7856L31.8005 15.6554L31.7796 15.5279L31.753 15.4028L31.7211 15.2798L31.6837 15.1597L31.6412 15.0424L31.5935 14.9277L31.5411 14.8157L31.4838 14.7075L31.4217 14.602L31.355 14.4998L31.2841 14.4015L31.2092 14.3073L31.13 14.2168L31.0468 14.1305L30.9603 14.0489L30.87 13.9717L30.7763 13.899L30.6794 13.8314L30.58 13.7691L30.4772 13.7119L30.3719 13.66L30.2641 13.6137L30.1539 13.573L30.041 13.5383L29.9261 13.5093L29.809 13.4865L29.6894 13.47L29.5681 13.4598L29.4442 13.4564V10.8336L29.6897 10.8403L29.9326 10.8604L30.1723 10.8936L30.4087 10.9395L30.6409 10.9979L30.8686 11.0684L31.0916 11.1505L31.3098 11.2441L31.5224 11.3487L31.7291 11.4641L31.9302 11.59L32.1245 11.7257L32.312 11.8709L32.4929 12.0256L32.6667 12.1896L32.8329 12.3622L32.9913 12.5431L33.1419 12.7324L33.2839 12.9295L33.4173 13.1337L33.5419 13.3452L33.6575 13.5642L33.7634 13.7894L33.8595 14.0209L33.9454 14.2585L34.0209 14.5014L34.0856 14.7494L34.1392 15.0023L34.1813 15.2597L34.2118 15.5208L34.2303 15.7853L34.2364 16.0527V16.0527ZM29.4442 21.2719V18.6491L29.5681 18.6457L29.6894 18.6355L29.809 18.619L29.9261 18.5962L30.041 18.5672L30.1539 18.5325L30.2641 18.4918L30.3719 18.4455L30.4772 18.3936L30.58 18.3364L30.6794 18.2741L30.7763 18.2065L30.8697 18.134L30.9601 18.0566L31.0468 17.9749L31.13 17.8886L31.2092 17.7981L31.2842 17.7037L31.355 17.6057L31.4216 17.5035L31.4838 17.3979L31.5411 17.2896L31.5935 17.1777L31.6413 17.0628L31.6837 16.9458L31.7209 16.8257L31.753 16.7026L31.7796 16.5775L31.8005 16.45L31.8157 16.3197L31.825 16.1876L31.8282 16.0527H34.2365L34.2303 16.32L34.2118 16.5846L34.1813 16.8456L34.1392 17.1031L34.0856 17.356L34.021 17.6038L33.9454 17.847L33.8594 18.0846L33.7634 18.316L33.6575 18.5411L33.5419 18.7601L33.4174 18.9715L33.284 19.176L33.1418 19.3731L32.9913 19.5623L32.8329 19.7432L32.6668 19.9157L32.4932 20.0796L32.3123 20.2345L32.1245 20.3798L31.9302 20.5155L31.7291 20.6414L31.5224 20.7568L31.3099 20.8614L31.0916 20.955L30.8686 21.0371L30.6409 21.1076L30.4087 21.166L30.1723 21.2119L29.9326 21.2451L29.6897 21.2652L29.4442 21.2719ZM24.6519 16.0527H27.0601L27.0633 16.1876L27.0726 16.3197L27.0878 16.45L27.1087 16.5775L27.1353 16.7026L27.1674 16.8257L27.2046 16.9458L27.247 17.0628L27.2948 17.1777L27.3473 17.2896L27.4045 17.3979L27.4667 17.5035L27.5332 17.6053L27.6039 17.7034L27.6793 17.7981L27.7585 17.8886L27.8416 17.9749L27.9285 18.0569L28.0186 18.1339L28.112 18.2063L28.209 18.2741L28.3084 18.3364L28.4112 18.3936L28.5167 18.4457L28.6242 18.4918L28.7344 18.5323L28.8474 18.5672L28.9624 18.5962L29.0794 18.619L29.199 18.6355L29.3203 18.6457L29.4442 18.6491V21.2719L29.1987 21.2652L28.9558 21.2451L28.7161 21.2119L28.4797 21.166L28.2475 21.1076L28.02 21.0373L27.7967 20.955L27.5785 20.8613L27.366 20.7568L27.1593 20.6414L26.9582 20.5155L26.7641 20.3799L26.576 20.2345L26.3951 20.0794L26.2217 19.9157L26.0556 19.7432L25.8971 19.5623L25.7469 19.3734L25.6045 19.1764L25.4709 18.9715L25.3464 18.7601L25.2308 18.5411L25.1249 18.316L25.0289 18.0846L24.9429 17.847L24.8673 17.6038L24.8027 17.356L24.7491 17.1031L24.707 16.8456L24.6765 16.5846L24.658 16.32L24.6519 16.0527L24.6519 16.0527ZM29.4442 10.8336V13.4564L29.3204 13.4598L29.199 13.47L29.0794 13.4865L28.9624 13.5093L28.8475 13.5383L28.7344 13.5732L28.6242 13.6137L28.5167 13.6599L28.4113 13.7119L28.3084 13.7691L28.209 13.8314L28.112 13.8992L28.0183 13.9717L27.9283 14.0488L27.8416 14.1305L27.7585 14.2168L27.6793 14.3073L27.6042 14.4018L27.5332 14.5002L27.4666 14.602L27.4045 14.7075L27.3473 14.8157L27.2948 14.9277L27.2471 15.0424L27.2046 15.1597L27.1672 15.2798L27.1353 15.4028L27.1087 15.5279L27.0878 15.6554L27.0726 15.7856L27.0633 15.9178L27.0602 16.0527H24.6519L24.658 15.7854L24.6765 15.5208L24.707 15.2597L24.7491 15.0023L24.8027 14.7494L24.8674 14.5014L24.9429 14.2585L25.0288 14.0209L25.1249 13.7894L25.2309 13.5642L25.3464 13.3453L25.471 13.1337L25.6045 12.9291L25.7466 12.7321L25.8971 12.5431L26.0556 12.3622L26.2217 12.1896L26.3954 12.0257L26.5763 11.8709L26.7641 11.7256L26.9582 11.59L27.1593 11.4642L27.366 11.3488L27.5785 11.2442L27.7967 11.1505L28.02 11.0682L28.2475 10.9979L28.4797 10.9395L28.7161 10.8936L28.9558 10.8604L29.1987 10.8403L29.4442 10.8336V10.8336Z" fill="#333333"/>
<path fill-rule="evenodd" clip-rule="evenodd" d="M26.209 17.744H25.8564V35.0325H102.639V22.9106C102.639 20.0568 100.515 17.7439 97.8947 17.7439H32.6802C32.6175 17.8857 32.5474 18.023 32.4701 18.1547C31.8327 19.2404 30.7157 19.9604 29.4447 19.9604C28.0193 19.9604 26.7882 19.0551 26.2091 17.744L26.209 17.744Z" fill="#4E7AB5"/>
<path d="M25.856 16.4326H26.2086V19.0554H25.856L24.6519 17.744L25.856 16.4326V16.4326ZM25.856 16.4326V19.0554L25.7941 19.0538L25.7329 19.0487L25.6726 19.0403L25.6133 19.0288L25.555 19.0141L25.4979 18.9965L25.442 18.9759L25.3873 18.9524L25.3339 18.9261L25.2821 18.8972L25.2316 18.8656L25.1828 18.8315L25.1356 18.795L25.0901 18.7559L25.0464 18.7147L25.0045 18.6713L24.9647 18.6257L24.9268 18.5782L24.891 18.5286L24.8575 18.4772L24.8262 18.424L24.7972 18.3691L24.7706 18.3126L24.7465 18.2545L24.7249 18.1949L24.706 18.134L24.6898 18.0718L24.6763 18.0083L24.6657 17.9438L24.658 17.8781L24.6534 17.8115L24.6519 17.744L24.6534 17.6766L24.658 17.6099L24.6657 17.5443L24.6763 17.4797L24.6898 17.4162L24.706 17.354L24.7249 17.2931L24.7465 17.2335L24.7706 17.1754L24.7972 17.119L24.8262 17.064L24.8575 17.0108L24.891 16.9595L24.9268 16.9099L24.9647 16.8623L25.0045 16.8167L25.0464 16.7733L25.0901 16.7321L25.1356 16.6931L25.1828 16.6565L25.2316 16.6225L25.2821 16.5909L25.3339 16.5619L25.3873 16.5356L25.442 16.5122L25.4979 16.4915L25.555 16.474L25.6133 16.4593L25.6726 16.4477L25.7329 16.4393L25.7941 16.4343L25.856 16.4326V16.4326ZM24.6519 35.0325V17.744H27.0601V35.0325L25.856 36.3439L24.6519 35.0325ZM24.6519 35.0325H27.0601L27.0586 35.0999L27.054 35.1665L27.0463 35.2322L27.0357 35.2968L27.0222 35.3602L27.006 35.4225L26.9871 35.4833L26.9655 35.543L26.9414 35.6011L26.9148 35.6575L26.8858 35.7125L26.8545 35.7656L26.821 35.817L26.7851 35.8666L26.7473 35.9141L26.7075 35.9598L26.6656 36.0032L26.6219 36.0444L26.5764 36.0834L26.5292 36.1199L26.4804 36.154L26.4299 36.1856L26.3781 36.2146L26.3247 36.2408L26.27 36.2643L26.2141 36.2849L26.157 36.3025L26.0987 36.3172L26.0394 36.3288L25.9791 36.3371L25.9179 36.3422L25.856 36.3439L25.7941 36.3422L25.7329 36.3371L25.6726 36.3288L25.6133 36.3172L25.555 36.3025L25.4979 36.2849L25.442 36.2643L25.3873 36.2408L25.3339 36.2146L25.2821 36.1856L25.2316 36.154L25.1828 36.1199L25.1356 36.0834L25.0901 36.0444L25.0464 36.0032L25.0045 35.9598L24.9647 35.9141L24.9268 35.8666L24.891 35.817L24.8575 35.7656L24.8262 35.7125L24.7972 35.6575L24.7706 35.6011L24.7465 35.543L24.7249 35.4833L24.706 35.4225L24.6898 35.3602L24.6763 35.2968L24.6657 35.2322L24.658 35.1665L24.6534 35.0999L24.6519 35.0325ZM102.638 36.3439H25.856V33.7211H102.638L103.842 35.0325L102.638 36.3439V36.3439ZM102.638 36.3439V33.7211L102.7 33.7227L102.761 33.7278L102.822 33.7362L102.881 33.7477L102.939 33.7624L102.996 33.78L103.052 33.8006L103.107 33.8241L103.16 33.8503L103.212 33.8793L103.263 33.9109L103.312 33.945L103.359 33.9815L103.404 34.0205L103.448 34.0617L103.49 34.1052L103.53 34.1508L103.567 34.1983L103.603 34.2479L103.637 34.2993L103.668 34.3524L103.697 34.4074L103.724 34.4639L103.748 34.522L103.769 34.5816L103.788 34.6424L103.804 34.7047L103.818 34.7681L103.829 34.8327L103.836 34.8984L103.841 34.965L103.842 35.0325L103.841 35.0999L103.836 35.1665L103.829 35.2322L103.818 35.2968L103.804 35.3602L103.788 35.4225L103.769 35.4833L103.748 35.5429L103.724 35.6011L103.697 35.6575L103.668 35.7125L103.637 35.7656L103.603 35.817L103.567 35.8666L103.53 35.9141L103.49 35.9598L103.448 36.0032L103.404 36.0444L103.359 36.0834L103.312 36.1199L103.263 36.154L103.212 36.1856L103.16 36.2146L103.107 36.2408L103.052 36.2643L102.996 36.2849L102.939 36.3025L102.881 36.3172L102.822 36.3288L102.761 36.3371L102.7 36.3422L102.638 36.3439V36.3439ZM103.842 22.9106V35.0325H101.434V22.9106H103.842ZM103.842 22.9106H101.434L101.436 22.8431L101.44 22.7765L101.448 22.7108L101.459 22.6463L101.472 22.5828L101.488 22.5206L101.507 22.4597L101.529 22.4001L101.553 22.342L101.579 22.2855L101.609 22.2305L101.64 22.1774L101.673 22.126L101.709 22.0764L101.747 22.0289L101.787 21.9833L101.829 21.9399L101.872 21.8986L101.918 21.8596L101.965 21.8231L102.014 21.789L102.064 21.7574L102.116 21.7284L102.17 21.7022L102.224 21.6787L102.28 21.6581L102.337 21.6405L102.396 21.6258L102.455 21.6143L102.515 21.6059L102.576 21.6008L102.638 21.5992L102.7 21.6008L102.761 21.6059L102.822 21.6143L102.881 21.6258L102.939 21.6405L102.996 21.6581L103.052 21.6787L103.107 21.7022L103.16 21.7284L103.212 21.7574L103.263 21.789L103.312 21.8231L103.359 21.8596L103.404 21.8986L103.448 21.9399L103.49 21.9833L103.53 22.0289L103.567 22.0764L103.603 22.126L103.637 22.1774L103.668 22.2305L103.697 22.2855L103.724 22.342L103.748 22.4001L103.769 22.4597L103.788 22.5206L103.804 22.5828L103.818 22.6463L103.829 22.7108L103.836 22.7765L103.841 22.8431L103.842 22.9106ZM97.8943 19.0553V16.4325L98.1992 16.4409L98.5007 16.4658L98.7986 16.507L99.0917 16.564L99.3798 16.6364L99.6626 16.7239L99.9393 16.8258L100.21 16.9419L100.474 17.0719L100.73 17.215L100.98 17.371L101.221 17.5395L101.454 17.7199L101.679 17.9121L101.894 18.1157L102.1 18.3299L102.297 18.5542L102.484 18.7892L102.66 19.0339L102.826 19.2875L102.981 19.5505L103.124 19.8219L103.255 20.1013L103.375 20.3889L103.481 20.6834L103.575 20.9847L103.655 21.2927L103.722 21.6064L103.774 21.9257L103.812 22.2501L103.835 22.5785L103.842 22.9106H101.434L101.429 22.7107L101.416 22.5144L101.393 22.3216L101.362 22.132L101.323 21.9458L101.275 21.7633L101.22 21.5846L101.156 21.4099L101.086 21.2396L101.008 21.0734L100.922 20.9121L100.83 20.7561L100.731 20.6044L100.626 20.4587L100.515 20.3189L100.397 20.1844L100.274 20.0563L100.146 19.9351L100.012 19.8207L99.8725 19.7128L99.7292 19.6127L99.5812 19.52L99.4285 19.4348L99.2722 19.3578L99.1118 19.289L98.9477 19.2286L98.7802 19.1768L98.6091 19.1338L98.435 19.0999L98.2581 19.0754L98.0778 19.0604L97.8943 19.0553V19.0553ZM97.8943 16.4325V19.0553L97.8323 19.0537L97.7712 19.0486L97.7109 19.0402L97.6516 19.0287L97.5933 19.014L97.5362 18.9964L97.4803 18.9758L97.4255 18.9523L97.3722 18.9261L97.3203 18.8971L97.2699 18.8655L97.221 18.8314L97.1739 18.7949L97.1283 18.7559L97.0847 18.7147L97.0428 18.6712L97.003 18.6256L96.9651 18.5781L96.9293 18.5285L96.8958 18.4771L96.8645 18.424L96.8355 18.369L96.8088 18.3125L96.7847 18.2544L96.7632 18.1948L96.7443 18.134L96.7281 18.0717L96.7146 18.0083L96.704 17.9437L96.6963 17.878L96.6916 17.8114L96.6901 17.7439L96.6916 17.6765L96.6963 17.6099L96.704 17.5442L96.7146 17.4796L96.7281 17.4162L96.7443 17.3539L96.7632 17.2931L96.7847 17.2334L96.8088 17.1753L96.8355 17.1189L96.8645 17.0639L96.8958 17.0108L96.9293 16.9594L96.9651 16.9098L97.003 16.8623L97.0428 16.8166L97.0847 16.7732L97.1283 16.732L97.1739 16.693L97.221 16.6565L97.2699 16.6224L97.3203 16.5908L97.3722 16.5618L97.4255 16.5356L97.4803 16.5121L97.5362 16.4915L97.5933 16.4739L97.6516 16.4592L97.7109 16.4476L97.7712 16.4393L97.8323 16.4342L97.8943 16.4325V16.4325ZM32.6798 16.4325H97.8943V19.0553H32.6798L31.5948 17.1749L32.6798 16.4325V16.4325ZM32.6798 16.4325V19.0553L32.6178 19.0537L32.5567 19.0486L32.4964 19.0402L32.4371 19.0287L32.3788 19.014L32.3217 18.9964L32.2658 18.9758L32.211 18.9523L32.1577 18.9261L32.1058 18.8971L32.0554 18.8655L32.0066 18.8314L31.9594 18.7949L31.9139 18.7559L31.8702 18.7147L31.8283 18.6712L31.7885 18.6256L31.7506 18.5781L31.7148 18.5285L31.6812 18.4771L31.65 18.424L31.6209 18.369L31.5943 18.3125L31.5702 18.2544L31.5487 18.1948L31.5297 18.134L31.5136 18.0717L31.5001 18.0083L31.4895 17.9437L31.4818 17.878L31.4771 17.8114L31.4756 17.7439L31.4771 17.6765L31.4818 17.6099L31.4895 17.5442L31.5001 17.4796L31.5136 17.4162L31.5297 17.3539L31.5487 17.2931L31.5702 17.2334L31.5943 17.1753L31.6209 17.1189L31.65 17.0639L31.6812 17.0108L31.7148 16.9594L31.7506 16.9098L31.7885 16.8623L31.8283 16.8166L31.8702 16.7732L31.9139 16.732L31.9594 16.693L32.0066 16.6565L32.0554 16.6224L32.1058 16.5908L32.1577 16.5618L32.211 16.5356L32.2658 16.5121L32.3217 16.4915L32.3788 16.4739L32.4371 16.4592L32.4964 16.4476L32.5567 16.4393L32.6178 16.4342L32.6798 16.4325V16.4325ZM33.4842 18.8611L31.4551 17.4483L31.4549 17.4484L31.4595 17.4406L31.465 17.431L31.4697 17.4229L31.4742 17.4151L31.4783 17.4081L31.4828 17.3998L31.4872 17.3918L31.4942 17.3792L31.4972 17.3739L31.5001 17.3684L31.5059 17.3576L31.5111 17.3476L31.5165 17.3376L31.5184 17.334L31.5236 17.3238L31.5279 17.3156L31.5319 17.3075L31.5372 17.2972L31.5412 17.289L31.5464 17.2786L31.5504 17.2704L31.5545 17.2622L31.5572 17.2565L31.5599 17.2508L31.5661 17.2376L31.5723 17.2245L31.575 17.2186L31.5788 17.2104L31.5827 17.202L31.5864 17.1937L31.5912 17.183L31.5948 17.1749L33.7647 18.313L33.7565 18.3315L33.7495 18.3472L33.7413 18.3653L33.7331 18.3833L33.7247 18.4014L33.7152 18.4219L33.709 18.435L33.7028 18.4481L33.6931 18.4685L33.6832 18.4889L33.6747 18.5065L33.6658 18.5244L33.6581 18.5399L33.6493 18.5575L33.6415 18.573L33.6326 18.5905L33.6236 18.608L33.6156 18.6234L33.6041 18.6454L33.5959 18.6609L33.5877 18.6762L33.5799 18.6907L33.5692 18.7108L33.5584 18.7304L33.5514 18.7431L33.542 18.7601L33.5324 18.7772L33.5223 18.7952L33.5127 18.8121L33.503 18.8289L33.4942 18.8441L33.4843 18.861L33.4842 18.8611V18.8611ZM31.4549 17.4484L33.4843 18.861L33.4496 18.9169L33.4128 18.9703L33.3738 19.0211L33.3331 19.0694L33.2903 19.1148L33.2459 19.1578L33.1997 19.1981L33.1522 19.2356L33.1031 19.2703L33.0528 19.3024L33.0012 19.3318L32.9485 19.3581L32.8947 19.3818L32.8401 19.4025L32.7847 19.4205L32.7286 19.4355L32.6718 19.4476L32.6147 19.4566L32.557 19.4628L32.4991 19.4658L32.4411 19.466L32.3831 19.4629L32.3249 19.4569L32.267 19.4478L32.2094 19.4355L32.152 19.4201L32.0951 19.4014L32.0387 19.3797L31.9831 19.3546L31.9282 19.3263L31.8742 19.2947L31.8211 19.2598L31.7698 19.222L31.7207 19.1819L31.674 19.1394L31.6298 19.0951L31.588 19.0485L31.5485 19.0001L31.5116 18.9498L31.4771 18.8981L31.4452 18.8446L31.4158 18.7898L31.3888 18.7336L31.3646 18.6762L31.3429 18.6177L31.3239 18.5582L31.3074 18.4979L31.2936 18.4367L31.2825 18.3749L31.2742 18.3127L31.2685 18.2499L31.2657 18.1868L31.2656 18.1237L31.2684 18.0605L31.2739 17.9971L31.2823 17.9341L31.2936 17.8713L31.3077 17.8088L31.3249 17.7468L31.3448 17.6854L31.3679 17.6248L31.3939 17.5651L31.4229 17.5063L31.4549 17.4484ZM29.4443 21.2718V18.649L29.5237 18.6476L29.6024 18.6434L29.6804 18.6365L29.7572 18.6269L29.8334 18.6146L29.9086 18.5999L29.983 18.5826L30.0558 18.5631L30.1278 18.541L30.1996 18.5163L30.2701 18.4892L30.3395 18.46L30.4075 18.4286L30.4751 18.3946L30.5421 18.3582L30.6061 18.3205L30.6698 18.2801L30.7329 18.2374L30.7944 18.1928L30.8544 18.1463L30.9125 18.0982L30.9701 18.0476L31.0262 17.9949L31.0801 17.9414L31.133 17.8852L31.1845 17.8272L31.2336 17.7684L31.2814 17.7075L31.3277 17.6446L31.3718 17.5809L31.4143 17.5154L31.4551 17.4483L33.4842 18.8611L33.4026 18.9955L33.3174 19.1269L33.2284 19.2555L33.1362 19.3805L33.0404 19.5027L32.9409 19.6219L32.8387 19.7367L32.7335 19.8484L32.6244 19.9572L32.513 20.0615L32.3985 20.1625L32.2805 20.26L32.16 20.3534L32.037 20.4426L31.9116 20.5276L31.783 20.609L31.6511 20.6864L31.5183 20.7586L31.383 20.8267L31.2444 20.8907L31.1041 20.9499L30.962 21.0042L30.8178 21.0539L30.6714 21.0988L30.5226 21.139L30.373 21.1736L30.2217 21.2034L30.0688 21.2277L29.9145 21.2469L29.7589 21.2607L29.6022 21.2691L29.4443 21.2718L29.4443 21.2718ZM26.2086 19.0554V16.4326L27.2938 17.1755L27.3309 17.256L27.3706 17.3348L27.4131 17.4129L27.458 17.489L27.5048 17.5629L27.5539 17.6347L27.6055 17.7051L27.6592 17.7735L27.7151 17.8398L27.773 17.904L27.8328 17.966L27.8944 18.0254L27.9581 18.0827L28.0237 18.1378L28.0905 18.1902L28.1596 18.2402L28.2296 18.2874L28.3014 18.3319L28.3753 18.3742L28.4501 18.4135L28.5258 18.4497L28.6033 18.483L28.6825 18.514L28.7623 18.5416L28.8436 18.5662L28.9257 18.5876L29.0093 18.606L29.0942 18.6212L29.1802 18.6333L29.2672 18.642L29.3547 18.6472L29.4443 18.649V21.2718L29.2677 21.2684L29.0916 21.2579L28.9174 21.2405L28.7453 21.2166L28.5749 21.1859L28.4062 21.1489L28.2394 21.1052L28.0751 21.0553L27.9133 20.9994L27.7543 20.9377L27.5977 20.87L27.4435 20.7962L27.2925 20.7171L27.1452 20.6327L27.0003 20.5429L26.8586 20.4475L26.7209 20.3475L26.5859 20.2422L26.455 20.1321L26.3277 20.0174L26.2038 19.8978L26.0842 19.774L25.9686 19.6458L25.8569 19.5132L25.7495 19.3767L25.6464 19.236L25.5474 19.0911L25.4529 18.9422L25.3636 18.7902L25.2789 18.635L25.1986 18.4754L25.1234 18.3124L26.2086 19.0554ZM27.2938 17.1755L25.1234 18.3124L25.0979 18.2509L25.0756 18.1887L25.0564 18.1259L25.0403 18.0627L25.0272 17.9992L25.017 17.9355L25.0098 17.8716L25.0056 17.8077L25.0042 17.744L25.0056 17.6805L25.0099 17.6173L25.017 17.5545L25.0268 17.4924L25.0393 17.4309L25.0544 17.3702L25.0722 17.3103L25.0926 17.2513L25.1156 17.1936L25.1411 17.137L25.1691 17.0818L25.1995 17.028L25.2324 16.9758L25.2676 16.9251L25.3053 16.8763L25.3452 16.8293L25.3874 16.7843L25.4318 16.7414L25.4785 16.7007L25.5274 16.6623L25.5784 16.6263L25.6315 16.5929L25.6866 16.5621L25.7431 16.5344L25.8003 16.51L25.8579 16.4892L25.916 16.4716L25.9742 16.4573L26.0328 16.4462L26.0914 16.4383L26.1501 16.4338L26.2086 16.4323L26.2669 16.4338L26.3249 16.4385L26.3826 16.4462L26.4396 16.4569L26.4961 16.4705L26.5518 16.487L26.6068 16.5063L26.6609 16.5286L26.7139 16.5536L26.7659 16.5813L26.8166 16.6118L26.8661 16.6449L26.914 16.6808L26.9605 16.7191L27.0053 16.7602L27.0484 16.8036L27.0898 16.8496L27.1292 16.898L27.1665 16.9488L27.2018 17.0021L27.2349 17.0576L27.2655 17.1155L27.2938 17.1755H27.2938Z" fill="#333333"/>
<path fill-rule="evenodd" clip-rule="evenodd" d="M25.8564 35.0328H102.639V78.0651H25.8564V35.0328Z" fill="#FEFEFF"/>
<path d="M102.638 36.3442H25.856V33.7214H102.638L103.842 35.0328L102.638 36.3442V36.3442ZM102.638 36.3442V33.7214L102.7 33.723L102.761 33.7281L102.821 33.7365L102.881 33.748L102.939 33.7627L102.996 33.7803L103.052 33.8009L103.107 33.8244L103.16 33.8506L103.212 33.8796L103.262 33.9112L103.311 33.9453L103.358 33.9818L103.404 34.0208L103.448 34.062L103.49 34.1055L103.529 34.1511L103.567 34.1986L103.603 34.2482L103.637 34.2996L103.668 34.3527L103.697 34.4077L103.724 34.4642L103.748 34.5223L103.769 34.5819L103.788 34.6427L103.804 34.705L103.818 34.7684L103.828 34.833L103.836 34.8987L103.841 34.9653L103.842 35.0328L103.841 35.1002L103.836 35.1668L103.828 35.2325L103.818 35.2971L103.804 35.3605L103.788 35.4228L103.769 35.4836L103.748 35.5432L103.724 35.6014L103.697 35.6578L103.668 35.7128L103.637 35.7659L103.603 35.8173L103.567 35.8669L103.529 35.9144L103.49 35.9601L103.448 36.0035L103.404 36.0447L103.358 36.0837L103.311 36.1202L103.262 36.1543L103.212 36.1859L103.16 36.2149L103.107 36.2411L103.052 36.2646L102.996 36.2852L102.939 36.3028L102.881 36.3175L102.821 36.329L102.761 36.3374L102.7 36.3425L102.638 36.3442V36.3442ZM101.434 78.0651V35.0328H103.842V78.0651L102.638 79.3765L101.434 78.0651ZM101.434 78.0651H103.842L103.841 78.1325L103.836 78.1992L103.828 78.2648L103.818 78.3294L103.804 78.3929L103.788 78.4551L103.769 78.516L103.748 78.5756L103.724 78.6337L103.697 78.6902L103.668 78.7451L103.637 78.7983L103.603 78.8497L103.567 78.8992L103.529 78.9468L103.49 78.9924L103.448 79.0358L103.404 79.077L103.358 79.116L103.311 79.1526L103.262 79.1866L103.212 79.2182L103.16 79.2472L103.107 79.2735L103.052 79.297L102.996 79.3176L102.939 79.3351L102.881 79.3498L102.821 79.3614L102.761 79.3698L102.7 79.3748L102.638 79.3765L102.576 79.3748L102.515 79.3698L102.455 79.3614L102.395 79.3498L102.337 79.3351L102.28 79.3176L102.224 79.297L102.169 79.2735L102.116 79.2472L102.064 79.2182L102.014 79.1866L101.965 79.1526L101.918 79.116L101.872 79.077L101.828 79.0358L101.787 78.9924L101.747 78.9468L101.709 78.8992L101.673 78.8497L101.64 78.7983L101.608 78.7451L101.579 78.6902L101.553 78.6337L101.529 78.5756L101.507 78.516L101.488 78.4551L101.472 78.3929L101.458 78.3294L101.448 78.2648L101.44 78.1992L101.435 78.1325L101.434 78.0651ZM25.856 76.7537H102.638V79.3765H25.856L24.6519 78.0651L25.856 76.7537ZM25.856 76.7537V79.3765L25.7941 79.3748L25.7329 79.3698L25.6726 79.3614L25.6133 79.3498L25.555 79.3351L25.4979 79.3176L25.442 79.297L25.3873 79.2735L25.3339 79.2472L25.2821 79.2182L25.2316 79.1866L25.1828 79.1526L25.1356 79.116L25.0901 79.077L25.0464 79.0358L25.0045 78.9924L24.9647 78.9468L24.9269 78.8993L24.891 78.8497L24.8575 78.7983L24.8262 78.7451L24.7972 78.6902L24.7706 78.6337L24.7465 78.5756L24.7249 78.516L24.706 78.4551L24.6898 78.3929L24.6763 78.3294L24.6657 78.2648L24.658 78.1992L24.6534 78.1325L24.6519 78.0651L24.6534 77.9976L24.658 77.931L24.6657 77.8654L24.6763 77.8008L24.6898 77.7373L24.706 77.6751L24.7249 77.6142L24.7465 77.5546L24.7706 77.4965L24.7972 77.44L24.8262 77.3851L24.8575 77.3319L24.891 77.2805L24.9269 77.2309L24.9647 77.1834L25.0045 77.1378L25.0464 77.0944L25.0901 77.0532L25.1356 77.0142L25.1828 76.9776L25.2316 76.9436L25.2821 76.912L25.3339 76.883L25.3873 76.8567L25.442 76.8332L25.4979 76.8126L25.555 76.795L25.6133 76.7803L25.6726 76.7688L25.7329 76.7604L25.7941 76.7553L25.856 76.7537V76.7537ZM27.0601 35.0328V78.0651H24.6519V35.0328L25.856 33.7214L27.0601 35.0328ZM27.0601 35.0328H24.6519L24.6534 34.9653L24.658 34.8987L24.6657 34.833L24.6763 34.7684L24.6898 34.705L24.706 34.6427L24.7249 34.5819L24.7465 34.5223L24.7706 34.4642L24.7972 34.4077L24.8262 34.3527L24.8575 34.2996L24.891 34.2482L24.9268 34.1986L24.9647 34.1511L25.0045 34.1055L25.0464 34.0621L25.0901 34.0208L25.1356 33.9818L25.1828 33.9453L25.2316 33.9112L25.2821 33.8796L25.3339 33.8506L25.3873 33.8244L25.442 33.8009L25.4979 33.7803L25.555 33.7627L25.6133 33.748L25.6726 33.7365L25.7329 33.7281L25.7941 33.723L25.856 33.7214L25.9179 33.723L25.9791 33.7281L26.0394 33.7365L26.0987 33.748L26.157 33.7627L26.2141 33.7803L26.27 33.8009L26.3247 33.8244L26.3781 33.8506L26.4299 33.8796L26.4804 33.9112L26.5292 33.9453L26.5764 33.9818L26.6219 34.0208L26.6656 34.0621L26.7075 34.1055L26.7473 34.1511L26.7852 34.1986L26.821 34.2482L26.8545 34.2996L26.8858 34.3527L26.9148 34.4077L26.9414 34.4642L26.9655 34.5223L26.9871 34.5819L27.006 34.6427L27.0222 34.705L27.0357 34.7684L27.0463 34.833L27.054 34.8987L27.0586 34.9653L27.0601 35.0328Z" fill="#333333"/>
<path fill-rule="evenodd" clip-rule="evenodd" d="M102.639 75.5292H126.796V66.6973H102.639V75.5292Z" fill="#66798F"/>
<path d="M126.796 76.8406H102.64V74.2178H126.796L128 75.5292L126.796 76.8406ZM126.796 76.8406V74.2178L126.858 74.2195L126.919 74.2245L126.979 74.2329L127.038 74.2445L127.097 74.2592L127.154 74.2767L127.21 74.2974L127.264 74.3208L127.318 74.3471L127.37 74.3761L127.42 74.4077L127.469 74.4417L127.516 74.4783L127.562 74.5173L127.605 74.5585L127.647 74.6019L127.687 74.6475L127.725 74.6951L127.761 74.7447L127.794 74.796L127.826 74.8492L127.855 74.9042L127.881 74.9606L127.905 75.0187L127.927 75.0783L127.946 75.1392L127.962 75.2014L127.975 75.2649L127.986 75.3295L127.994 75.3951L127.998 75.4618L128 75.5292L127.998 75.5967L127.994 75.6633L127.986 75.729L127.975 75.7935L127.962 75.857L127.946 75.9192L127.927 75.9801L127.905 76.0397L127.881 76.0978L127.855 76.1543L127.826 76.2092L127.794 76.2624L127.761 76.3138L127.725 76.3634L127.687 76.4109L127.647 76.4565L127.605 76.4999L127.562 76.5411L127.516 76.5802L127.469 76.6167L127.42 76.6508L127.37 76.6824L127.318 76.7114L127.264 76.7376L127.21 76.7611L127.154 76.7817L127.097 76.7993L127.038 76.814L126.979 76.8255L126.919 76.8339L126.858 76.839L126.796 76.8406ZM128 66.6972V75.5292H125.592V66.6972L126.796 65.3858L128 66.6972ZM128 66.6972H125.592L125.593 66.6298L125.598 66.5631L125.605 66.4975L125.616 66.4329L125.63 66.3694L125.646 66.3072L125.665 66.2464L125.686 66.1867L125.71 66.1286L125.737 66.0722L125.766 66.0172L125.797 65.9641L125.831 65.9127L125.867 65.8631L125.904 65.8155L125.944 65.7699L125.986 65.7265L126.03 65.6853L126.075 65.6463L126.123 65.6098L126.171 65.5757L126.222 65.5441L126.274 65.5151L126.327 65.4889L126.382 65.4654L126.438 65.4448L126.495 65.4272L126.553 65.4125L126.612 65.4009L126.673 65.3926L126.734 65.3875L126.796 65.3858L126.858 65.3875L126.919 65.3926L126.979 65.4009L127.038 65.4125L127.097 65.4272L127.154 65.4448L127.21 65.4654L127.264 65.4889L127.318 65.5151L127.37 65.5441L127.42 65.5757L127.469 65.6098L127.516 65.6463L127.562 65.6853L127.605 65.7265L127.647 65.7699L127.687 65.8155L127.725 65.8631L127.761 65.9127L127.794 65.9641L127.826 66.0172L127.855 66.0722L127.881 66.1286L127.905 66.1867L127.927 66.2464L127.946 66.3072L127.962 66.3694L127.975 66.4329L127.986 66.4975L127.994 66.5631L127.998 66.6298L128 66.6972ZM102.64 65.3858H126.796V68.0086H102.64L101.436 66.6972L102.64 65.3858V65.3858ZM102.64 65.3858V68.0086L102.578 68.007L102.517 68.0019L102.456 67.9935L102.397 67.982L102.339 67.9673L102.282 67.9497L102.226 67.9291L102.171 67.9056L102.118 67.8794L102.066 67.8504L102.015 67.8188L101.966 67.7847L101.919 67.7482L101.874 67.7092L101.83 67.6679L101.788 67.6245L101.748 67.5789L101.711 67.5314L101.675 67.4818L101.641 67.4304L101.61 67.3773L101.581 67.3223L101.554 67.2658L101.53 67.2077L101.509 67.1481L101.49 67.0873L101.474 67.025L101.46 66.9615L101.449 66.897L101.442 66.8313L101.437 66.7647L101.436 66.6972L101.437 66.6298L101.442 66.5632L101.449 66.4975L101.46 66.4329L101.474 66.3695L101.49 66.3072L101.509 66.2464L101.53 66.1867L101.554 66.1286L101.581 66.0722L101.61 66.0172L101.641 65.9641L101.675 65.9127L101.711 65.8631L101.748 65.8155L101.788 65.7699L101.83 65.7265L101.874 65.6853L101.919 65.6463L101.966 65.6098L102.015 65.5757L102.066 65.5441L102.118 65.5151L102.171 65.4889L102.226 65.4654L102.282 65.4448L102.339 65.4272L102.397 65.4125L102.456 65.4009L102.517 65.3926L102.578 65.3875L102.64 65.3858V65.3858ZM101.436 75.5292V66.6972H103.844V75.5292L102.64 76.8406L101.436 75.5292ZM101.436 75.5292H103.844L103.842 75.5967L103.838 75.6633L103.83 75.729L103.819 75.7935L103.806 75.857L103.79 75.9192L103.771 75.9801L103.749 76.0397L103.725 76.0978L103.699 76.1543L103.67 76.2092L103.638 76.2624L103.605 76.3138L103.569 76.3634L103.531 76.4109L103.491 76.4565L103.449 76.4999L103.406 76.5411L103.36 76.5802L103.313 76.6167L103.264 76.6508L103.214 76.6824L103.162 76.7114L103.108 76.7376L103.054 76.7611L102.998 76.7817L102.941 76.7993L102.882 76.814L102.823 76.8255L102.763 76.8339L102.702 76.839L102.64 76.8406L102.578 76.839L102.517 76.8339L102.456 76.8255L102.397 76.814L102.339 76.7993L102.282 76.7817L102.226 76.7611L102.171 76.7376L102.118 76.7114L102.066 76.6824L102.015 76.6508L101.966 76.6167L101.919 76.5802L101.874 76.5411L101.83 76.4999L101.788 76.4565L101.748 76.4109L101.711 76.3634L101.675 76.3138L101.641 76.2624L101.61 76.2092L101.581 76.1543L101.554 76.0978L101.53 76.0397L101.509 75.9801L101.49 75.9192L101.474 75.857L101.46 75.7935L101.449 75.729L101.442 75.6633L101.437 75.5967L101.436 75.5292Z" fill="#333333"/>
<path d="M125.591 66.6973H127.999L127.998 66.7647L127.993 66.8313L127.985 66.897L127.975 66.9616L127.961 67.025L127.945 67.0873L127.926 67.1481L127.905 67.2077L127.88 67.2659L127.854 67.3223L127.825 67.3773L127.794 67.4304L127.76 67.4818L127.724 67.5314L127.686 67.5789L127.646 67.6245L127.605 67.668L127.561 67.7092L127.515 67.7482L127.468 67.7847L127.419 67.8188L127.369 67.8504L127.317 67.8794L127.264 67.9056L127.209 67.9291L127.153 67.9497L127.096 67.9673L127.038 67.982L126.978 67.9935L126.918 68.0019L126.857 68.007L126.795 68.0087L126.733 68.007L126.672 68.0019L126.612 67.9935L126.552 67.982L126.494 67.9673L126.437 67.9497L126.381 67.9291L126.326 67.9056L126.273 67.8794L126.221 67.8504L126.171 67.8188L126.122 67.7847L126.075 67.7482L126.029 67.7092L125.985 67.668L125.944 67.6245L125.904 67.5789L125.866 67.5314L125.83 67.4818L125.796 67.4304L125.765 67.3773L125.736 67.3223L125.71 67.2659L125.685 67.2077L125.664 67.1481L125.645 67.0873L125.629 67.025L125.615 66.9616L125.605 66.897L125.597 66.8313L125.592 66.7647L125.591 66.6973ZM127.999 54.3888V66.6973H125.591V54.3888H127.999ZM127.999 54.3888H125.591L125.592 54.3213L125.597 54.2547L125.605 54.189L125.615 54.1245L125.629 54.061L125.645 53.9988L125.664 53.9379L125.685 53.8783L125.71 53.8202L125.736 53.7637L125.765 53.7088L125.796 53.6556L125.83 53.6042L125.866 53.5546L125.904 53.5071L125.944 53.4615L125.985 53.4181L126.029 53.3769L126.075 53.3379L126.122 53.3013L126.171 53.2672L126.221 53.2357L126.273 53.2067L126.326 53.1804L126.381 53.1569L126.437 53.1363L126.494 53.1187L126.552 53.104L126.612 53.0925L126.672 53.0841L126.733 53.079L126.795 53.0774L126.857 53.079L126.918 53.0841L126.978 53.0925L127.038 53.104L127.096 53.1187L127.153 53.1363L127.209 53.1569L127.264 53.1804L127.317 53.2067L127.369 53.2357L127.419 53.2672L127.468 53.3013L127.515 53.3379L127.561 53.3769L127.605 53.4181L127.646 53.4615L127.686 53.5071L127.724 53.5546L127.76 53.6042L127.793 53.6556L127.825 53.7088L127.854 53.7637L127.88 53.8202L127.905 53.8783L127.926 53.9379L127.945 53.9988L127.961 54.061L127.975 54.1245L127.985 54.189L127.993 54.2547L127.998 54.3213L127.999 54.3888Z" fill="#333333"/>
<path fill-rule="evenodd" clip-rule="evenodd" d="M25.8565 68.3881H1.87305V59.4621H25.8565V68.3881Z" fill="#66798F"/>
<path d="M1.8731 67.0768H25.8566V69.6996H1.8731L0.668956 68.3882L1.8731 67.0768V67.0768ZM1.8731 67.0768V69.6996L1.81116 69.6979L1.74998 69.6929L1.68969 69.6845L1.6304 69.6729L1.57213 69.6582L1.51498 69.6407L1.4591 69.62L1.40436 69.5966L1.351 69.5703L1.29915 69.5413L1.2487 69.5097L1.19988 69.4757L1.1527 69.4391L1.10717 69.4001L1.06352 69.3589L1.02165 69.3155L0.981783 69.2699L0.943941 69.2223L0.90812 69.1727L0.874567 69.1214L0.84328 69.0682L0.81427 69.0133L0.787655 68.9568L0.763562 68.8987L0.741991 68.8391L0.72307 68.7782L0.706926 68.716L0.693422 68.6525L0.682833 68.5879L0.675139 68.5223L0.670467 68.4556L0.668956 68.3882L0.670467 68.3207L0.675139 68.2541L0.682833 68.1884L0.693422 68.1239L0.706926 68.0604L0.72307 67.9982L0.741991 67.9373L0.763562 67.8777L0.787655 67.8196L0.81427 67.7631L0.84328 67.7082L0.874567 67.655L0.90812 67.6036L0.943941 67.554L0.981783 67.5065L1.02165 67.4609L1.06352 67.4175L1.10717 67.3763L1.1527 67.3372L1.19988 67.3007L1.2487 67.2666L1.29915 67.235L1.351 67.2061L1.40436 67.1798L1.4591 67.1563L1.51498 67.1357L1.57213 67.1181L1.6304 67.1034L1.68969 67.0919L1.74998 67.0835L1.81116 67.0784L1.8731 67.0768V67.0768ZM3.07723 59.4621V68.3882H0.668945V59.4621L1.87309 58.1507L3.07723 59.4621ZM3.07723 59.4621H0.668945L0.670467 59.3946L0.675128 59.328L0.682822 59.2624L0.693422 59.1978L0.706915 59.1343L0.72307 59.0721L0.741991 59.0112L0.763551 58.9516L0.787644 58.8935L0.81427 58.837L0.84328 58.7821L0.874556 58.7289L0.90811 58.6775L0.943941 58.6279L0.981783 58.5804L1.02164 58.5348L1.06352 58.4914L1.10717 58.4502L1.1527 58.4112L1.19988 58.3746L1.24869 58.3406L1.29915 58.309L1.35099 58.28L1.40435 58.2537L1.4591 58.2302L1.51498 58.2096L1.57212 58.192L1.6304 58.1773L1.68969 58.1658L1.74997 58.1574L1.81115 58.1523L1.87309 58.1507L1.93503 58.1523L1.9962 58.1574L2.0565 58.1658L2.11579 58.1773L2.17406 58.192L2.23121 58.2096L2.28709 58.2302L2.34183 58.2537L2.39519 58.28L2.44704 58.309L2.49749 58.3406L2.54631 58.3746L2.59349 58.4112L2.63902 58.4502L2.68267 58.4914L2.72454 58.5348L2.76441 58.5804L2.80225 58.6279L2.83807 58.6775L2.87162 58.7289L2.90291 58.7821L2.93192 58.837L2.95853 58.8935L2.98263 58.9516L3.0042 59.0112L3.02312 59.0721L3.03926 59.1343L3.05277 59.1978L3.06336 59.2624L3.07105 59.328L3.07572 59.3946L3.07723 59.4621ZM25.8565 60.7735H1.87309V58.1507H25.8565L27.0607 59.4621L25.8565 60.7735V60.7735ZM25.8565 60.7735V58.1507L25.9185 58.1523L25.9797 58.1574L26.04 58.1658L26.0992 58.1773L26.1575 58.192L26.2147 58.2096L26.2705 58.2302L26.3253 58.2537L26.3786 58.28L26.4305 58.309L26.4809 58.3405L26.5298 58.3746L26.5769 58.4112L26.6225 58.4502L26.6661 58.4914L26.708 58.5348L26.7479 58.5804L26.7857 58.6279L26.8215 58.6775L26.8551 58.7289L26.8864 58.7821L26.9154 58.837L26.942 58.8935L26.9661 58.9516L26.9876 59.0112L27.0066 59.0721L27.0227 59.1343L27.0362 59.1978L27.0468 59.2624L27.0545 59.328L27.0592 59.3946L27.0607 59.4621L27.0592 59.5295L27.0545 59.5962L27.0468 59.6618L27.0362 59.7264L27.0227 59.7899L27.0066 59.8521L26.9876 59.913L26.9661 59.9726L26.942 60.0307L26.9154 60.0872L26.8864 60.1421L26.8551 60.1953L26.8215 60.2467L26.7857 60.2963L26.7479 60.3438L26.708 60.3894L26.6661 60.4328L26.6225 60.474L26.5769 60.513L26.5298 60.5496L26.4809 60.5836L26.4305 60.6152L26.3786 60.6442L26.3253 60.6705L26.2705 60.694L26.2147 60.7146L26.1575 60.7321L26.0992 60.7468L26.04 60.7584L25.9797 60.7668L25.9185 60.7718L25.8565 60.7735V60.7735ZM24.6524 68.3882V59.4621H27.0607V68.3882L25.8566 69.6996L24.6524 68.3882ZM24.6524 68.3882H27.0607L27.0592 68.4556L27.0545 68.5223L27.0468 68.5879L27.0362 68.6525L27.0227 68.716L27.0066 68.7782L26.9877 68.8391L26.9661 68.8987L26.942 68.9568L26.9154 69.0133L26.8864 69.0682L26.8551 69.1214L26.8215 69.1727L26.7857 69.2223L26.7479 69.2699L26.708 69.3155L26.6661 69.3589L26.6225 69.4001L26.5769 69.4391L26.5298 69.4757L26.4809 69.5097L26.4305 69.5413L26.3786 69.5703L26.3253 69.5966L26.2705 69.62L26.2147 69.6407L26.1575 69.6582L26.0992 69.6729L26.04 69.6845L25.9797 69.6929L25.9185 69.6979L25.8566 69.6996L25.7946 69.6979L25.7334 69.6929L25.6731 69.6845L25.6139 69.6729L25.5556 69.6582L25.4984 69.6407L25.4426 69.62L25.3878 69.5966L25.3345 69.5703L25.2826 69.5413L25.2322 69.5097L25.1833 69.4757L25.1362 69.4391L25.0906 69.4001L25.047 69.3589L25.0051 69.3155L24.9652 69.2699L24.9274 69.2223L24.8916 69.1727L24.858 69.1214L24.8267 69.0682L24.7977 69.0133L24.7711 68.9568L24.747 68.8987L24.7254 68.8391L24.7065 68.7782L24.6904 68.716L24.6769 68.6525L24.6663 68.5879L24.6586 68.5223L24.6539 68.4556L24.6524 68.3882Z" fill="#333333"/>
<path d="M102.639 58.3365V60.9593L102.577 60.9576L102.516 60.9525L102.456 60.9442L102.397 60.9326L102.338 60.9179L102.281 60.9003L102.225 60.8797L102.17 60.8562L102.117 60.83L102.065 60.801L102.015 60.7694L101.966 60.7353L101.919 60.6988L101.873 60.6598L101.83 60.6186L101.788 60.5752L101.748 60.5295L101.71 60.482L101.674 60.4324L101.641 60.381L101.609 60.3279L101.58 60.2729L101.554 60.2165L101.53 60.1584L101.508 60.0987L101.489 60.0379L101.473 59.9756L101.46 59.9122L101.449 59.8476L101.441 59.7819L101.437 59.7153L101.435 59.6479L101.437 59.5804L101.441 59.5138L101.449 59.4481L101.46 59.3836L101.473 59.3201L101.489 59.2578L101.508 59.197L101.53 59.1374L101.554 59.0793L101.58 59.0228L101.609 58.9678L101.641 58.9147L101.674 58.8633L101.71 58.8137L101.748 58.7662L101.788 58.7206L101.83 58.6772L101.873 58.6359L101.919 58.5969L101.966 58.5604L102.015 58.5263L102.065 58.4947L102.117 58.4657L102.17 58.4395L102.225 58.416L102.281 58.3954L102.338 58.3778L102.397 58.3631L102.456 58.3516L102.516 58.3432L102.577 58.3381L102.639 58.3365ZM122.714 60.9593H102.639V58.3365H122.714V60.9593ZM122.714 60.9593V58.3365L122.776 58.3381L122.837 58.3432L122.897 58.3516L122.957 58.3631L123.015 58.3778L123.072 58.3954L123.128 58.416L123.183 58.4395L123.236 58.4657L123.288 58.4947L123.338 58.5263L123.387 58.5604L123.434 58.5969L123.48 58.6359L123.524 58.6771L123.565 58.7206L123.605 58.7662L123.643 58.8137L123.679 58.8633L123.712 58.9147L123.744 58.9678L123.773 59.0228L123.799 59.0793L123.823 59.1374L123.845 59.197L123.864 59.2578L123.88 59.3201L123.894 59.3835L123.904 59.4481L123.912 59.5138L123.917 59.5804L123.918 59.6479L123.917 59.7153L123.912 59.7819L123.904 59.8476L123.894 59.9122L123.88 59.9756L123.864 60.0379L123.845 60.0987L123.823 60.1584L123.799 60.2165L123.773 60.2729L123.744 60.3279L123.712 60.381L123.679 60.4324L123.643 60.482L123.605 60.5295L123.565 60.5752L123.524 60.6186L123.48 60.6598L123.434 60.6988L123.387 60.7353L123.338 60.7694L123.288 60.801L123.236 60.83L123.183 60.8562L123.128 60.8797L123.072 60.9003L123.015 60.9179L122.957 60.9326L122.897 60.9441L122.837 60.9525L122.776 60.9576L122.714 60.9593V60.9593Z" fill="#333333"/>
<path d="M102.639 51.9945V54.6173L102.577 54.6157L102.516 54.6106L102.456 54.6022L102.397 54.5907L102.338 54.576L102.281 54.5584L102.225 54.5378L102.17 54.5143L102.117 54.4881L102.065 54.4591L102.015 54.4275L101.966 54.3934L101.919 54.3569L101.873 54.3179L101.83 54.2766L101.788 54.2332L101.748 54.1876L101.71 54.1401L101.674 54.0905L101.641 54.0391L101.609 53.986L101.58 53.931L101.554 53.8745L101.53 53.8164L101.508 53.7568L101.489 53.696L101.473 53.6337L101.46 53.5703L101.449 53.5057L101.441 53.44L101.437 53.3734L101.435 53.3059L101.437 53.2385L101.441 53.1719L101.449 53.1062L101.46 53.0416L101.473 52.9782L101.489 52.9159L101.508 52.8551L101.53 52.7954L101.554 52.7373L101.58 52.6809L101.609 52.6259L101.641 52.5728L101.674 52.5214L101.71 52.4718L101.748 52.4243L101.788 52.3786L101.83 52.3352L101.873 52.294L101.919 52.255L101.966 52.2185L102.015 52.1844L102.065 52.1528L102.117 52.1238L102.17 52.0976L102.225 52.0741L102.281 52.0535L102.338 52.0359L102.397 52.0212L102.456 52.0096L102.516 52.0013L102.577 51.9962L102.639 51.9945ZM122.714 54.6173H102.639V51.9945H122.714V54.6173ZM122.714 54.6173V51.9945L122.776 51.9962L122.837 52.0013L122.897 52.0096L122.957 52.0212L123.015 52.0359L123.072 52.0535L123.128 52.0741L123.183 52.0976L123.236 52.1238L123.288 52.1528L123.338 52.1844L123.387 52.2185L123.434 52.255L123.48 52.294L123.524 52.3352L123.565 52.3786L123.605 52.4242L123.643 52.4718L123.679 52.5214L123.712 52.5728L123.744 52.6259L123.773 52.6809L123.799 52.7373L123.823 52.7954L123.845 52.8551L123.864 52.9159L123.88 52.9782L123.894 53.0416L123.904 53.1062L123.912 53.1719L123.917 53.2385L123.918 53.3059L123.917 53.3734L123.912 53.44L123.904 53.5057L123.894 53.5702L123.88 53.6337L123.864 53.696L123.845 53.7568L123.823 53.8164L123.799 53.8745L123.773 53.931L123.744 53.986L123.712 54.0391L123.679 54.0905L123.643 54.1401L123.605 54.1876L123.565 54.2332L123.524 54.2766L123.48 54.3179L123.434 54.3569L123.387 54.3934L123.338 54.4275L123.288 54.4591L123.236 54.4881L123.183 54.5143L123.128 54.5378L123.072 54.5584L123.015 54.576L122.957 54.5907L122.897 54.6022L122.837 54.6106L122.776 54.6157L122.714 54.6173V54.6173Z" fill="#333333"/>
<path d="M102.639 45.7464V48.3692L102.577 48.3675L102.516 48.3624L102.456 48.3541L102.397 48.3425L102.338 48.3278L102.281 48.3102L102.225 48.2896L102.17 48.2661L102.117 48.2399L102.065 48.2109L102.015 48.1793L101.966 48.1453L101.919 48.1087L101.873 48.0697L101.83 48.0285L101.788 47.9851L101.748 47.9395L101.71 47.8919L101.674 47.8423L101.641 47.791L101.609 47.7378L101.58 47.6828L101.554 47.6264L101.53 47.5683L101.508 47.5086L101.489 47.4478L101.473 47.3856L101.46 47.3221L101.449 47.2575L101.441 47.1919L101.437 47.1252L101.435 47.0578L101.437 46.9903L101.441 46.9237L101.449 46.858L101.46 46.7935L101.473 46.73L101.489 46.6678L101.508 46.6069L101.53 46.5473L101.554 46.4892L101.58 46.4327L101.609 46.3778L101.641 46.3246L101.674 46.2732L101.71 46.2236L101.748 46.1761L101.788 46.1305L101.83 46.0871L101.873 46.0459L101.919 46.0068L101.966 45.9703L102.015 45.9362L102.065 45.9046L102.117 45.8756L102.17 45.8494L102.225 45.8259L102.281 45.8053L102.338 45.7877L102.397 45.773L102.456 45.7615L102.516 45.7531L102.577 45.748L102.639 45.7464V45.7464ZM122.714 48.3692H102.639V45.7464H122.714V48.3692ZM122.714 48.3692V45.7464L122.776 45.748L122.837 45.7531L122.897 45.7615L122.957 45.773L123.015 45.7877L123.072 45.8053L123.128 45.8259L123.183 45.8494L123.236 45.8756L123.288 45.9046L123.338 45.9362L123.387 45.9703L123.434 46.0068L123.48 46.0459L123.524 46.0871L123.565 46.1305L123.605 46.1761L123.643 46.2236L123.679 46.2732L123.712 46.3246L123.744 46.3778L123.773 46.4327L123.799 46.4892L123.823 46.5473L123.845 46.6069L123.864 46.6678L123.88 46.73L123.894 46.7935L123.904 46.858L123.912 46.9237L123.917 46.9903L123.918 47.0578L123.917 47.1252L123.912 47.1919L123.904 47.2575L123.894 47.3221L123.88 47.3856L123.864 47.4478L123.845 47.5086L123.823 47.5683L123.799 47.6264L123.773 47.6828L123.744 47.7378L123.712 47.791L123.679 47.8423L123.643 47.8919L123.605 47.9395L123.565 47.9851L123.524 48.0285L123.48 48.0697L123.434 48.1087L123.387 48.1452L123.338 48.1793L123.288 48.2109L123.236 48.2399L123.183 48.2661L123.128 48.2896L123.072 48.3102L123.015 48.3278L122.957 48.3425L122.897 48.3541L122.837 48.3624L122.776 48.3675L122.714 48.3692V48.3692Z" fill="#333333"/>
<path d="M6.632 51.4743V54.085L6.57006 54.0834L6.50888 54.0783L6.44858 54.0699L6.3893 54.0585L6.33102 54.0439L6.27389 54.0263L6.21801 54.0057L6.16326 53.9824L6.1099 53.9563L6.05806 53.9274L6.0076 53.896L5.95866 53.862L5.91148 53.8256L5.86594 53.7869L5.8223 53.7458L5.78042 53.7027L5.74056 53.6573L5.70272 53.61L5.66702 53.5606L5.63346 53.5094L5.60206 53.4565L5.57305 53.4018L5.54655 53.3455L5.52233 53.2877L5.50077 53.2285L5.48185 53.1677L5.46569 53.1058L5.4522 53.0427L5.4416 52.9784L5.43391 52.913L5.42925 52.8468L5.42773 52.7796L5.42925 52.7125L5.43391 52.6462L5.4416 52.5809L5.4522 52.5166L5.46569 52.4535L5.48185 52.3915L5.50077 52.3308L5.52233 52.2716L5.54655 52.2138L5.57305 52.1575L5.60206 52.1028L5.63346 52.0499L5.66702 51.9986L5.70272 51.9493L5.74056 51.9019L5.78042 51.8566L5.8223 51.8135L5.86594 51.7724L5.91148 51.7336L5.95866 51.6972L6.0076 51.6633L6.05806 51.6318L6.1099 51.603L6.16326 51.5769L6.21801 51.5535L6.27389 51.5329L6.33102 51.5154L6.3893 51.5008L6.44858 51.4894L6.50888 51.481L6.57006 51.4759L6.632 51.4743ZM25.5918 54.085H6.632V51.4743H25.5918V54.085ZM25.5918 54.085V51.4743L25.6538 51.4759L25.7149 51.481L25.7752 51.4894L25.8345 51.5008L25.8928 51.5154L25.9499 51.5329L26.0058 51.5535L26.0606 51.5769L26.1139 51.603L26.1658 51.6318L26.2162 51.6633L26.2652 51.6972L26.3123 51.7336L26.3579 51.7724L26.4015 51.8135L26.4434 51.8566L26.4833 51.9019L26.5211 51.9493L26.5568 51.9986L26.5904 52.0499L26.6218 52.1028L26.6508 52.1575L26.6773 52.2138L26.7015 52.2716L26.7231 52.3308L26.742 52.3915L26.7581 52.4535L26.7716 52.5166L26.7822 52.5809L26.7899 52.6462L26.7946 52.7125L26.7961 52.7796L26.7946 52.8468L26.7899 52.913L26.7822 52.9784L26.7716 53.0427L26.7581 53.1058L26.742 53.1677L26.7231 53.2285L26.7015 53.2877L26.6773 53.3455L26.6508 53.4018L26.6218 53.4565L26.5904 53.5094L26.5568 53.5606L26.5211 53.6099L26.4833 53.6573L26.4434 53.7027L26.4015 53.7458L26.3579 53.7869L26.3123 53.8256L26.2652 53.862L26.2162 53.896L26.1658 53.9274L26.1139 53.9563L26.0606 53.9824L26.0058 54.0057L25.9499 54.0263L25.8928 54.0439L25.8345 54.0585L25.7752 54.0699L25.7149 54.0783L25.6538 54.0833L25.5918 54.085Z" fill="#333333"/>
<path d="M6.632 45.1324V47.7431L6.57006 47.7414L6.50888 47.7363L6.44858 47.728L6.3893 47.7166L6.33102 47.702L6.27389 47.6844L6.21801 47.6638L6.16326 47.6405L6.1099 47.6144L6.05806 47.5855L6.0076 47.554L5.95866 47.5201L5.91148 47.4837L5.86594 47.445L5.8223 47.4039L5.78042 47.3608L5.74056 47.3154L5.70272 47.268L5.66702 47.2187L5.63346 47.1675L5.60206 47.1146L5.57305 47.0599L5.54655 47.0036L5.52233 46.9457L5.50077 46.8865L5.48185 46.8258L5.46569 46.7638L5.4522 46.7008L5.4416 46.6365L5.43391 46.5711L5.42925 46.5049L5.42773 46.4377L5.42925 46.3705L5.43391 46.3043L5.4416 46.2389L5.4522 46.1746L5.46569 46.1116L5.48185 46.0496L5.50077 45.9889L5.52233 45.9297L5.54655 45.8719L5.57305 45.8155L5.60206 45.7609L5.63346 45.708L5.66702 45.6567L5.70272 45.6074L5.74056 45.56L5.78042 45.5147L5.8223 45.4715L5.86594 45.4305L5.91148 45.3917L5.95866 45.3553L6.0076 45.3214L6.05806 45.2899L6.1099 45.2611L6.16326 45.235L6.21801 45.2116L6.27389 45.191L6.33102 45.1734L6.3893 45.1589L6.44858 45.1475L6.50888 45.1391L6.57006 45.134L6.632 45.1324V45.1324ZM25.5918 47.7431H6.632V45.1324H25.5918V47.7431ZM25.5918 47.7431V45.1324L25.6538 45.134L25.7149 45.1391L25.7752 45.1475L25.8345 45.1589L25.8928 45.1734L25.9499 45.191L26.0058 45.2116L26.0606 45.235L26.1139 45.2611L26.1658 45.2899L26.2162 45.3214L26.2652 45.3553L26.3123 45.3917L26.3579 45.4305L26.4015 45.4715L26.4434 45.5147L26.4833 45.56L26.5211 45.6074L26.5568 45.6567L26.5904 45.708L26.6218 45.7609L26.6508 45.8155L26.6773 45.8719L26.7015 45.9297L26.7231 45.9889L26.742 46.0496L26.7581 46.1116L26.7716 46.1746L26.7822 46.2389L26.7899 46.3043L26.7946 46.3705L26.7961 46.4377L26.7946 46.5049L26.7899 46.5711L26.7822 46.6365L26.7716 46.7008L26.7581 46.7638L26.742 46.8258L26.7231 46.8865L26.7015 46.9457L26.6773 47.0036L26.6508 47.0599L26.6218 47.1146L26.5904 47.1675L26.5568 47.2187L26.5211 47.268L26.4833 47.3154L26.4434 47.3608L26.4015 47.4039L26.3579 47.445L26.3123 47.4837L26.2652 47.5201L26.2162 47.554L26.1658 47.5855L26.1139 47.6143L26.0606 47.6405L26.0058 47.6638L25.9499 47.6844L25.8928 47.702L25.8345 47.7166L25.7752 47.728L25.7149 47.7363L25.6538 47.7414L25.5918 47.7431Z" fill="#333333"/>
<path d="M6.632 38.8842V41.4949L6.57006 41.4933L6.50888 41.4882L6.44858 41.4798L6.3893 41.4684L6.33102 41.4538L6.27389 41.4363L6.21801 41.4156L6.16326 41.3923L6.1099 41.3662L6.05806 41.3373L6.0076 41.3059L5.95866 41.2719L5.91148 41.2355L5.86594 41.1968L5.8223 41.1557L5.78042 41.1126L5.74056 41.0673L5.70272 41.0199L5.66702 40.9705L5.63346 40.9193L5.60206 40.8664L5.57305 40.8117L5.54655 40.7554L5.52233 40.6976L5.50077 40.6384L5.48185 40.5776L5.46569 40.5157L5.4522 40.4526L5.4416 40.3883L5.43391 40.3229L5.42925 40.2567L5.42773 40.1896L5.42925 40.1224L5.43391 40.0562L5.4416 39.9908L5.4522 39.9265L5.46569 39.8634L5.48185 39.8015L5.50077 39.7407L5.52233 39.6815L5.54655 39.6237L5.57305 39.5674L5.60206 39.5127L5.63346 39.4598L5.66702 39.4086L5.70272 39.3592L5.74056 39.3119L5.78042 39.2665L5.8223 39.2234L5.86594 39.1823L5.91148 39.1436L5.95866 39.1072L6.0076 39.0732L6.05806 39.0418L6.1099 39.0129L6.16326 38.9868L6.21801 38.9635L6.27389 38.9429L6.33102 38.9253L6.3893 38.9107L6.44858 38.8993L6.50888 38.8909L6.57006 38.8858L6.632 38.8842ZM25.5918 41.4949H6.632V38.8842H25.5918V41.4949ZM25.5918 41.4949V38.8842L25.6538 38.8858L25.7149 38.8909L25.7752 38.8993L25.8345 38.9107L25.8928 38.9253L25.9499 38.9429L26.0058 38.9635L26.0606 38.9868L26.1139 39.0129L26.1658 39.0418L26.2162 39.0732L26.2652 39.1072L26.3123 39.1436L26.3579 39.1823L26.4015 39.2234L26.4434 39.2665L26.4833 39.3118L26.5211 39.3592L26.5568 39.4086L26.5904 39.4598L26.6218 39.5127L26.6508 39.5674L26.6773 39.6237L26.7015 39.6815L26.7231 39.7407L26.742 39.8015L26.7581 39.8634L26.7716 39.9265L26.7822 39.9908L26.7899 40.0562L26.7946 40.1224L26.7961 40.1896L26.7946 40.2567L26.7899 40.3229L26.7822 40.3883L26.7716 40.4526L26.7581 40.5157L26.742 40.5776L26.7231 40.6384L26.7015 40.6976L26.6773 40.7554L26.6508 40.8117L26.6218 40.8664L26.5904 40.9193L26.5568 40.9705L26.5211 41.0199L26.4833 41.0673L26.4434 41.1126L26.4015 41.1557L26.3579 41.1968L26.3123 41.2355L26.2652 41.2719L26.2162 41.3059L26.1658 41.3373L26.1139 41.3662L26.0606 41.3923L26.0058 41.4156L25.9499 41.4363L25.8928 41.4538L25.8345 41.4684L25.7752 41.4798L25.7149 41.4882L25.6538 41.4933L25.5918 41.4949V41.4949Z" fill="#333333"/>
<path fill-rule="evenodd" clip-rule="evenodd" d="M40.8062 23.1972H57.9243V30.0288H40.8062V23.1972Z" fill="#B0C1D4"/>
<path d="M57.9244 24.5086H40.8072V21.8858H57.9244L59.1286 23.1972L57.9244 24.5086V24.5086ZM57.9244 24.5086V21.8858L57.9863 21.8874L58.0475 21.8925L58.1078 21.9009L58.1671 21.9124L58.2254 21.9271L58.2825 21.9447L58.3384 21.9653L58.3931 21.9888L58.4465 22.015L58.4984 22.044L58.5488 22.0756L58.5976 22.1097L58.6448 22.1462L58.6903 22.1853L58.734 22.2265L58.7759 22.2699L58.8157 22.3155L58.8536 22.363L58.8894 22.4126L58.9229 22.464L58.9542 22.5172L58.9832 22.5721L59.0099 22.6286L59.0339 22.6867L59.0555 22.7463L59.0744 22.8072L59.0906 22.8694L59.1041 22.9329L59.1147 22.9974L59.1224 23.0631L59.127 23.1297L59.1286 23.1972L59.127 23.2646L59.1224 23.3313L59.1147 23.3969L59.1041 23.4615L59.0906 23.525L59.0744 23.5872L59.0555 23.648L59.0339 23.7077L59.0099 23.7658L58.9832 23.8222L58.9542 23.8772L58.9229 23.9304L58.8894 23.9817L58.8536 24.0313L58.8157 24.0789L58.7759 24.1245L58.734 24.1679L58.6903 24.2091L58.6448 24.2481L58.5976 24.2847L58.5488 24.3187L58.4984 24.3503L58.4465 24.3793L58.3931 24.4055L58.3384 24.429L58.2825 24.4496L58.2254 24.4672L58.1671 24.4819L58.1078 24.4935L58.0475 24.5018L57.9863 24.5069L57.9244 24.5086V24.5086ZM56.7203 30.0288V23.1972H59.1286V30.0288L57.9244 31.3402L56.7203 30.0288ZM56.7203 30.0288H59.1286L59.127 30.0963L59.1224 30.1629L59.1147 30.2286L59.1041 30.2931L59.0906 30.3566L59.0744 30.4188L59.0555 30.4797L59.0339 30.5393L59.0099 30.5974L58.9832 30.6539L58.9542 30.7088L58.9229 30.762L58.8894 30.8134L58.8536 30.863L58.8157 30.9105L58.7759 30.9561L58.734 30.9995L58.6903 31.0407L58.6448 31.0797L58.5976 31.1163L58.5488 31.1504L58.4984 31.182L58.4465 31.2109L58.3931 31.2372L58.3384 31.2607L58.2825 31.2813L58.2254 31.2989L58.1671 31.3136L58.1078 31.3251L58.0475 31.3335L57.9863 31.3386L57.9244 31.3402L57.8625 31.3386L57.8013 31.3335L57.741 31.3251L57.6817 31.3136L57.6234 31.2989L57.5663 31.2813L57.5104 31.2607L57.4557 31.2372L57.4023 31.2109L57.3505 31.182L57.3 31.1504L57.2512 31.1163L57.204 31.0797L57.1585 31.0407L57.1148 30.9995L57.073 30.9561L57.0331 30.9105L56.9953 30.863L56.9594 30.8134L56.9259 30.762L56.8946 30.7088L56.8656 30.6539L56.839 30.5974L56.8149 30.5393L56.7933 30.4797L56.7744 30.4188L56.7582 30.3566L56.7447 30.2931L56.7341 30.2286L56.7264 30.1629L56.7218 30.0963L56.7203 30.0288ZM40.8072 28.7174H57.9244V31.3402H40.8072L39.603 30.0288L40.8072 28.7174V28.7174ZM40.8072 28.7174V31.3402L40.7452 31.3386L40.6841 31.3335L40.6238 31.3251L40.5645 31.3136L40.5062 31.2989L40.4491 31.2813L40.3932 31.2607L40.3384 31.2372L40.2851 31.2109L40.2332 31.182L40.1828 31.1504L40.134 31.1163L40.0868 31.0798L40.0412 31.0407L39.9976 30.9995L39.9557 30.9561L39.9159 30.9105L39.878 30.863L39.8422 30.8134L39.8086 30.762L39.7774 30.7088L39.7483 30.6539L39.7217 30.5974L39.6976 30.5393L39.6761 30.4797L39.6571 30.4188L39.641 30.3566L39.6275 30.2931L39.6169 30.2286L39.6092 30.1629L39.6045 30.0963L39.603 30.0288L39.6045 29.9614L39.6092 29.8947L39.6169 29.8291L39.6275 29.7645L39.641 29.701L39.6571 29.6388L39.6761 29.5779L39.6976 29.5183L39.7217 29.4602L39.7483 29.4037L39.7774 29.3488L39.8086 29.2956L39.8422 29.2443L39.878 29.1947L39.9159 29.1471L39.9557 29.1015L39.9976 29.0581L40.0412 29.0169L40.0868 28.9779L40.134 28.9413L40.1828 28.9073L40.2332 28.8757L40.2851 28.8467L40.3384 28.8204L40.3932 28.797L40.4491 28.7763L40.5062 28.7588L40.5645 28.7441L40.6238 28.7325L40.6841 28.7241L40.7452 28.7191L40.8072 28.7174V28.7174ZM42.0113 23.1972V30.0288H39.603V23.1972L40.8072 21.8858L42.0113 23.1972H42.0113ZM42.0113 23.1972H39.603L39.6045 23.1297L39.6092 23.0631L39.6169 22.9974L39.6275 22.9329L39.641 22.8694L39.6571 22.8072L39.6761 22.7463L39.6976 22.6867L39.7217 22.6286L39.7483 22.5721L39.7774 22.5172L39.8086 22.464L39.8422 22.4126L39.878 22.363L39.9159 22.3155L39.9557 22.2699L39.9976 22.2265L40.0412 22.1853L40.0868 22.1462L40.1339 22.1097L40.1828 22.0756L40.2332 22.044L40.2851 22.015L40.3384 21.9888L40.3932 21.9653L40.4491 21.9447L40.5062 21.9271L40.5645 21.9124L40.6238 21.9009L40.6841 21.8925L40.7452 21.8874L40.8072 21.8858L40.8691 21.8874L40.9303 21.8925L40.9906 21.9009L41.0499 21.9124L41.1081 21.9271L41.1653 21.9447L41.2212 21.9653L41.2759 21.9888L41.3293 22.015L41.3811 22.044L41.4316 22.0756L41.4804 22.1097L41.5276 22.1462L41.5731 22.1853L41.6167 22.2265L41.6586 22.2699L41.6985 22.3155L41.7363 22.363L41.7721 22.4126L41.8057 22.464L41.837 22.5172L41.866 22.5721L41.8926 22.6286L41.9167 22.6867L41.9383 22.7463L41.9572 22.8072L41.9733 22.8694L41.9868 22.9329L41.9974 22.9974L42.0051 23.0631L42.0098 23.1297L42.0113 23.1972H42.0113Z" fill="#333333"/>
<path d="M65.976 28.1901C66.9082 28.1901 67.6639 27.3671 67.6639 26.3518C67.6639 25.3366 66.9082 24.5136 65.976 24.5136C65.0438 24.5136 64.2881 25.3366 64.2881 26.3518C64.2881 27.3671 65.0438 28.1901 65.976 28.1901Z" fill="#FFEEA3"/>
<path d="M72.4203 28.1901C73.3525 28.1901 74.1082 27.3671 74.1082 26.3518C74.1082 25.3366 73.3525 24.5136 72.4203 24.5136C71.4881 24.5136 70.7324 25.3366 70.7324 26.3518C70.7324 27.3671 71.4881 28.1901 72.4203 28.1901Z" fill="#FFEEA3"/>
<path d="M79.0131 28.1901C79.9453 28.1901 80.701 27.3671 80.701 26.3518C80.701 25.3366 79.9453 24.5136 79.0131 24.5136C78.0809 24.5136 77.3252 25.3366 77.3252 26.3518C77.3252 27.3671 78.0809 28.1901 79.0131 28.1901Z" fill="#FFEEA3"/>
<path d="M85.7372 28.1901C86.6694 28.1901 87.4251 27.3671 87.4251 26.3518C87.4251 25.3366 86.6694 24.5136 85.7372 24.5136C84.805 24.5136 84.0493 25.3366 84.0493 26.3518C84.0493 27.3671 84.805 28.1901 85.7372 28.1901Z" fill="#FFEEA3"/>
<path d="M44.5137 109.786V112.409L44.4518 112.407L44.3906 112.402L44.3303 112.394L44.271 112.382L44.2127 112.367L44.1556 112.35L44.0997 112.329L44.045 112.306L43.9916 112.28L43.9398 112.251L43.8893 112.219L43.8405 112.185L43.7933 112.148L43.7478 112.109L43.7041 112.068L43.6623 112.025L43.6224 111.979L43.5846 111.932L43.5487 111.882L43.5152 111.831L43.4839 111.777L43.4549 111.722L43.4283 111.666L43.4042 111.608L43.3826 111.548L43.3637 111.487L43.3475 111.425L43.334 111.362L43.3234 111.297L43.3158 111.231L43.3111 111.165L43.3096 111.097L43.3111 111.03L43.3158 110.963L43.3234 110.898L43.334 110.833L43.3475 110.77L43.3637 110.707L43.3826 110.647L43.4042 110.587L43.4283 110.529L43.4549 110.472L43.4839 110.417L43.5152 110.364L43.5487 110.313L43.5846 110.263L43.6224 110.216L43.6623 110.17L43.7041 110.127L43.7478 110.085L43.7933 110.046L43.8405 110.01L43.8893 109.976L43.9398 109.944L43.9916 109.915L44.045 109.889L44.0997 109.866L44.1556 109.845L44.2127 109.827L44.271 109.813L44.3303 109.801L44.3906 109.793L44.4518 109.788L44.5137 109.786ZM84.8028 112.409H44.5137V109.786H84.8028V112.409ZM84.8028 112.409V109.786L84.8648 109.788L84.9259 109.793L84.9862 109.801L85.0455 109.813L85.1038 109.827L85.161 109.845L85.2168 109.866L85.2716 109.889L85.3249 109.915L85.3768 109.944L85.4272 109.976L85.4761 110.01L85.5232 110.046L85.5688 110.085L85.6124 110.127L85.6543 110.17L85.6942 110.216L85.732 110.263L85.7678 110.313L85.8014 110.364L85.8326 110.417L85.8617 110.472L85.8883 110.529L85.9124 110.587L85.9339 110.647L85.9529 110.707L85.969 110.77L85.9825 110.833L85.9931 110.898L86.0008 110.963L86.0055 111.03L86.007 111.097L86.0055 111.165L86.0008 111.231L85.9931 111.297L85.9825 111.362L85.969 111.425L85.9529 111.487L85.9339 111.548L85.9124 111.608L85.8883 111.666L85.8617 111.722L85.8326 111.777L85.8014 111.831L85.7678 111.882L85.732 111.932L85.6942 111.979L85.6543 112.025L85.6124 112.068L85.5688 112.109L85.5232 112.148L85.4761 112.185L85.4272 112.219L85.3768 112.251L85.3249 112.279L85.2716 112.306L85.2168 112.329L85.161 112.35L85.1038 112.367L85.0455 112.382L84.9862 112.394L84.9259 112.402L84.8648 112.407L84.8028 112.409V112.409Z" fill="#333333"/>
<path d="M44.5137 84.6055V87.2283L44.4518 87.2267L44.3906 87.2216L44.3303 87.2132L44.271 87.2017L44.2127 87.187L44.1556 87.1694L44.0997 87.1488L44.045 87.1253L43.9916 87.099L43.9398 87.0701L43.8893 87.0385L43.8405 87.0044L43.7933 86.9679L43.7478 86.9288L43.7041 86.8876L43.6623 86.8442L43.6224 86.7986L43.5846 86.7511L43.5487 86.7015L43.5152 86.6501L43.4839 86.5969L43.4549 86.542L43.4283 86.4855L43.4042 86.4274L43.3826 86.3678L43.3637 86.3069L43.3475 86.2447L43.334 86.1812L43.3234 86.1167L43.3158 86.051L43.3111 85.9844L43.3096 85.9169L43.3111 85.8495L43.3158 85.7828L43.3234 85.7172L43.334 85.6526L43.3475 85.5891L43.3637 85.5269L43.3826 85.466L43.4042 85.4064L43.4283 85.3483L43.4549 85.2918L43.4839 85.2369L43.5152 85.1837L43.5487 85.1324L43.5846 85.0828L43.6224 85.0352L43.6623 84.9896L43.7041 84.9462L43.7478 84.905L43.7933 84.866L43.8405 84.8294L43.8893 84.7954L43.9398 84.7638L43.9916 84.7348L44.045 84.7085L44.0997 84.6851L44.1556 84.6644L44.2127 84.6469L44.271 84.6322L44.3303 84.6206L44.3906 84.6122L44.4518 84.6072L44.5137 84.6055V84.6055ZM84.8028 87.2283H44.5137V84.6055H84.8028V87.2283ZM84.8028 87.2283V84.6055L84.8648 84.6072L84.9259 84.6122L84.9862 84.6206L85.0455 84.6322L85.1038 84.6469L85.161 84.6644L85.2168 84.6851L85.2716 84.7085L85.3249 84.7348L85.3768 84.7638L85.4272 84.7954L85.4761 84.8294L85.5232 84.866L85.5688 84.905L85.6124 84.9462L85.6543 84.9896L85.6942 85.0352L85.732 85.0828L85.7678 85.1323L85.8014 85.1837L85.8326 85.2369L85.8617 85.2918L85.8883 85.3483L85.9124 85.4064L85.9339 85.466L85.9529 85.5269L85.969 85.5891L85.9825 85.6526L85.9931 85.7172L86.0008 85.7828L86.0055 85.8495L86.007 85.9169L86.0055 85.9844L86.0008 86.051L85.9931 86.1167L85.9825 86.1812L85.969 86.2447L85.9529 86.3069L85.9339 86.3678L85.9124 86.4274L85.8883 86.4855L85.8617 86.542L85.8326 86.5969L85.8014 86.6501L85.7678 86.7015L85.732 86.7511L85.6942 86.7986L85.6543 86.8442L85.6124 86.8876L85.5688 86.9288L85.5232 86.9678L85.4761 87.0044L85.4272 87.0385L85.3768 87.0701L85.3249 87.099L85.2716 87.1253L85.2168 87.1488L85.161 87.1694L85.1038 87.187L85.0455 87.2017L84.9862 87.2132L84.9259 87.2216L84.8648 87.2267L84.8028 87.2283Z" fill="#333333"/>
</svg>
