<svg width="132" height="102" viewBox="0 0 132 102" fill="none" xmlns="http://www.w3.org/2000/svg">
<path fill-rule="evenodd" clip-rule="evenodd" d="M42.3197 0.934601L22.8716 7.62191C30.6898 18.1197 32.8503 29.6281 29.354 40.5925V100.935H102.646V40.5925C99.1499 29.6281 101.31 18.1197 109.129 7.62191L89.6805 0.934601C86.6049 26.312 47.228 26.2342 42.3197 0.934601H42.3197Z" fill="white"/>
<path d="M22.4713 6.7537L41.9194 0.0663914L42.72 1.80279L23.2719 8.49011L21.9616 8.12741L22.4713 6.75371V6.7537ZM22.4713 6.7537L23.2719 8.49011L23.2197 8.50681L23.1671 8.52101L23.1142 8.53271L23.0612 8.54211L23.0081 8.54911L22.955 8.55391L22.902 8.55631L22.8492 8.55641L22.7966 8.55431L22.7445 8.55011L22.6927 8.54361L22.6415 8.53511L22.5909 8.52441L22.541 8.51171L22.4921 8.49701L22.4439 8.48021L22.3966 8.46151L22.3506 8.44091L22.3055 8.41831L22.2619 8.39391L22.2195 8.36771L22.1785 8.33971L22.139 8.30991L22.1011 8.27831L22.0649 8.24511L22.0305 8.21021L21.998 8.17371L21.9674 8.13551L21.9388 8.09581L21.9124 8.05461L21.8882 8.01181L21.8663 7.96761L21.847 7.92251L21.8305 7.87711L21.817 7.83141L21.8061 7.7856L21.798 7.73981L21.7924 7.6939L21.7897 7.64811L21.7896 7.6025L21.792 7.5571L21.7968 7.5121L21.8044 7.4674L21.8142 7.4232L21.8266 7.3795L21.8413 7.3364L21.8583 7.2941L21.8778 7.2525L21.8994 7.2117L21.9233 7.1719L21.9495 7.133L21.9777 7.0953L22.008 7.0587L22.0405 7.0233L22.075 6.9892L22.1116 6.9565L22.15 6.9252L22.1904 6.8955L22.2327 6.8674L22.2769 6.841L22.3229 6.8163L22.3706 6.7935L22.4201 6.7726L22.4713 6.7537V6.7537ZM30.436 40.5925H28.2721L28.3109 40.3444L28.6148 39.3391L28.8863 38.3313L29.1252 37.321L29.3319 36.3086L29.5063 35.2944L29.6482 34.2786L29.7578 33.2615L29.835 32.2432L29.88 31.2241L29.8926 30.2043L29.8728 29.1842L29.8207 28.1639L29.7362 27.1439L29.6193 26.1241L29.4702 25.105L29.2886 24.0868L29.0748 23.0698L28.8284 22.0542L28.5497 21.0401L28.2383 20.0281L27.8945 19.0181L27.5183 18.0105L27.1094 17.0057L26.6682 16.0038L26.1942 15.0052L25.6877 14.01L25.1484 13.0185L24.5766 12.0311L23.972 11.0481L23.3346 10.0696L22.6645 9.09585L21.9616 8.12735L23.7816 7.11635L24.5116 8.12205L25.2078 9.13375L25.8707 10.1515L26.4999 11.1747L27.0955 12.2031L27.6577 13.2366L28.1861 14.2746L28.6808 15.317L29.1418 16.3637L29.569 17.4139L29.9625 18.4677L30.3223 19.5245L30.6482 20.5843L30.9404 21.6466L31.1986 22.7112L31.4229 23.7776L31.6132 24.8456L31.7698 25.9149L31.8924 26.9851L31.9811 28.0561L32.0358 29.1274L32.0565 30.1985L32.0434 31.2695L31.9962 32.3398L31.915 33.4091L31.8 34.4772L31.651 35.5436L31.468 36.6082L31.2512 37.6704L31.0004 38.7301L30.7157 39.7869L30.3972 40.8406L30.436 40.5925H30.436ZM28.3109 40.3444L30.3972 40.8406L30.3811 40.8866L30.3625 40.9314L30.3414 40.9749L30.3181 41.0171L30.2925 41.0579L30.2649 41.0973L30.2351 41.1353L30.2034 41.1717L30.1698 41.2067L30.1344 41.2401L30.0972 41.2718L30.0584 41.3019L30.0181 41.3303L29.9763 41.357L29.933 41.3819L29.8885 41.4049L29.8428 41.4262L29.7959 41.4455L29.748 41.4628L29.6991 41.4782L29.6492 41.4916L29.5986 41.5029L29.5473 41.5121L29.4953 41.5192L29.4429 41.524L29.3898 41.5267L29.3365 41.527L29.2828 41.5251L29.2289 41.5208L29.1749 41.5141L29.1208 41.505L29.0668 41.4934L29.0135 41.4795L28.9616 41.4634L28.9113 41.4452L28.8624 41.4251L28.8152 41.403L28.7695 41.3791L28.7255 41.3534L28.6834 41.326L28.6429 41.297L28.6042 41.2664L28.5675 41.2343L28.5326 41.2008L28.4997 41.166L28.4688 41.1299L28.44 41.0925L28.4134 41.0541L28.3887 41.0146L28.3664 40.9741L28.3463 40.9327L28.3285 40.8905L28.313 40.8474L28.2999 40.8037L28.2892 40.7594L28.281 40.7145L28.2755 40.6692L28.2723 40.6234L28.272 40.5773L28.2742 40.531L28.2792 40.4844L28.2869 40.4378L28.2975 40.3911L28.3109 40.3444H28.3109ZM28.2721 100.935V40.5925H30.436V100.935L29.3541 101.869L28.2721 100.935H28.2721ZM28.2721 100.935H30.436L30.4346 100.983L30.4305 101.03L30.4235 101.077L30.414 101.123L30.402 101.168L30.3874 101.213L30.3704 101.256L30.351 101.298L30.3292 101.34L30.3054 101.38L30.2793 101.419L30.2512 101.457L30.2211 101.494L30.1889 101.529L30.1549 101.563L30.1191 101.595L30.0815 101.626L30.0422 101.656L30.0013 101.684L29.959 101.71L29.9151 101.734L29.8698 101.756L29.8231 101.777L29.7752 101.796L29.7261 101.812L29.6757 101.827L29.6244 101.84L29.5721 101.85L29.5188 101.858L29.4646 101.864L29.4098 101.868L29.3541 101.869L29.2984 101.868L29.2435 101.864L29.1893 101.858L29.136 101.85L29.0837 101.84L29.0324 101.827L28.982 101.812L28.9329 101.796L28.885 101.777L28.8383 101.756L28.7931 101.734L28.7492 101.71L28.7068 101.684L28.6659 101.656L28.6267 101.626L28.589 101.595L28.5532 101.563L28.5192 101.529L28.487 101.494L28.4569 101.457L28.4288 101.419L28.4027 101.38L28.3789 101.34L28.3571 101.298L28.3378 101.256L28.3207 101.213L28.3062 101.168L28.2941 101.123L28.2846 101.077L28.2777 101.03L28.2735 100.983L28.2721 100.935H28.2721ZM102.646 101.869H29.3541V100H102.646L103.728 100.935L102.646 101.869V101.869ZM102.646 101.869V100L102.702 100.001L102.757 100.005L102.811 100.011L102.864 100.019L102.917 100.03L102.968 100.042L103.018 100.057L103.067 100.074L103.115 100.092L103.162 100.113L103.207 100.136L103.251 100.16L103.294 100.186L103.334 100.214L103.374 100.243L103.411 100.274L103.447 100.306L103.481 100.34L103.513 100.376L103.543 100.412L103.572 100.45L103.598 100.489L103.621 100.53L103.643 100.571L103.663 100.613L103.68 100.657L103.694 100.701L103.706 100.746L103.716 100.792L103.723 100.839L103.727 100.887L103.728 100.935L103.727 100.983L103.723 101.03L103.716 101.077L103.706 101.123L103.694 101.168L103.68 101.213L103.663 101.256L103.643 101.298L103.621 101.34L103.598 101.38L103.572 101.419L103.543 101.457L103.513 101.494L103.481 101.529L103.447 101.563L103.411 101.595L103.374 101.626L103.334 101.656L103.294 101.684L103.251 101.709L103.207 101.734L103.162 101.756L103.115 101.777L103.067 101.796L103.018 101.812L102.968 101.827L102.917 101.84L102.864 101.85L102.811 101.858L102.757 101.864L102.702 101.868L102.646 101.869ZM103.728 40.5925V100.935H101.564V40.5925L103.689 40.3444L103.728 40.5925ZM103.728 40.5925H101.564L101.566 40.5444L101.57 40.497L101.577 40.4502L101.586 40.4042L101.598 40.359L101.613 40.3147L101.63 40.2712L101.649 40.2288L101.671 40.1874L101.695 40.1471L101.721 40.108L101.749 40.0701L101.779 40.0335L101.811 39.9982L101.845 39.9643L101.881 39.9318L101.919 39.9009L101.958 39.8715L101.999 39.8437L102.041 39.8177L102.085 39.7934L102.13 39.7709L102.177 39.7503L102.225 39.7315L102.274 39.7148L102.325 39.7001L102.376 39.6875L102.428 39.6771L102.481 39.6689L102.536 39.6629L102.591 39.6593L102.646 39.6581L102.702 39.6593L102.757 39.6629L102.811 39.6689L102.864 39.6771L102.917 39.6875L102.968 39.7001L103.018 39.7148L103.067 39.7315L103.115 39.7503L103.162 39.7709L103.207 39.7934L103.251 39.8177L103.294 39.8437L103.334 39.8715L103.374 39.9009L103.411 39.9318L103.447 39.9643L103.481 39.9982L103.513 40.0335L103.543 40.0701L103.572 40.108L103.598 40.1471L103.621 40.1874L103.643 40.2288L103.663 40.2712L103.68 40.3147L103.694 40.359L103.706 40.4042L103.716 40.4502L103.723 40.497L103.727 40.5444L103.728 40.5925ZM108.728 8.49001L109.529 6.75361L110.039 8.12731L109.336 9.09581L108.666 10.0695L108.028 11.048L107.424 12.031L106.852 13.0184L106.313 14.0099L105.806 15.0051L105.332 16.0037L104.891 17.0056L104.482 18.0104L104.106 19.018L103.762 20.028L103.451 21.04L103.172 22.0541L102.926 23.0697L102.712 24.0867L102.53 25.1049L102.381 26.124L102.264 27.1438L102.18 28.1638L102.127 29.1841L102.108 30.2042L102.12 31.224L102.165 32.2431L102.242 33.2614L102.352 34.2785L102.494 35.2943L102.668 36.3085L102.875 37.3209L103.114 38.3312L103.385 39.339L103.689 40.3443L101.603 40.8405L101.285 39.7868L101 38.73L100.749 37.6703L100.532 36.6081L100.349 35.5435L100.2 34.4771L100.085 33.409L100.004 32.3397L99.9569 31.2694L99.9438 30.1984L99.9645 29.1273L100.019 28.056L100.108 26.985L100.23 25.9148L100.387 24.8455L100.577 23.7775L100.802 22.7111L101.06 21.6465L101.352 20.5842L101.678 19.5244L102.038 18.4676L102.431 17.4138L102.858 16.3636L103.319 15.3169L103.814 14.2745L104.343 13.2365L104.905 12.203L105.5 11.1746L106.13 10.1514L106.792 9.13371L107.489 8.12201L108.219 7.11631L108.728 8.49001V8.49001ZM110.039 8.12731L108.219 7.11631L108.25 7.07651L108.283 7.03861L108.318 7.00251L108.355 6.96821L108.394 6.93581L108.434 6.90531L108.475 6.87681L108.518 6.85011L108.562 6.82551L108.607 6.80271L108.654 6.78201L108.701 6.76331L108.75 6.74651L108.799 6.73191L108.849 6.71921L108.899 6.70871L108.95 6.70021L109.002 6.69391L109.053 6.68961L109.105 6.68751L109.157 6.68761L109.21 6.68981L109.262 6.69431L109.314 6.70091L109.366 6.70981L109.417 6.72091L109.468 6.73431L109.519 6.75001L109.569 6.76801L109.618 6.78831L109.666 6.81091L109.714 6.83591L109.76 6.86291L109.804 6.89161L109.846 6.92191L109.885 6.95371L109.923 6.98701L109.958 7.02151L109.991 7.05741L110.022 7.09441L110.051 7.13251L110.077 7.17171L110.101 7.21181L110.123 7.25271L110.142 7.29451L110.159 7.33691L110.174 7.37991L110.186 7.42351L110.196 7.46751L110.203 7.51201L110.208 7.55671L110.211 7.60161L110.21 7.64661L110.208 7.69171L110.203 7.73671L110.195 7.78171L110.185 7.82641L110.172 7.87091L110.156 7.91501L110.138 7.95871L110.117 8.00181L110.094 8.04431L110.068 8.08621L110.039 8.12731ZM90.0809 0.0663013L109.529 6.75361L108.728 8.49002L89.2803 1.8027L88.6044 0.837202L90.0809 0.0663013ZM90.0809 0.0663013L89.2803 1.8027L89.2291 1.7838L89.1796 1.7629L89.1319 1.7401L89.0859 1.7154L89.0417 1.689L88.9994 1.6609L88.959 1.6312L88.9205 1.5999L88.884 1.5672L88.8494 1.5331L88.817 1.4977L88.7867 1.4611L88.7584 1.4234L88.7323 1.3845L88.7084 1.3447L88.6868 1.3039L88.6673 1.2623L88.6503 1.22L88.6356 1.1769L88.6232 1.1332L88.6133 1.089L88.6058 1.0443L88.601 0.999302L88.5985 0.953902L88.5986 0.908302L88.6014 0.862502L88.607 0.816602L88.6151 0.770801L88.626 0.725001L88.6395 0.679301L88.656 0.633901L88.6753 0.588801L88.6972 0.544601L88.7214 0.501801L88.7478 0.460601L88.7764 0.420901L88.8069 0.382701L88.8395 0.346201L88.8739 0.311301L88.9101 0.278101L88.948 0.246501L88.9875 0.216701L89.0285 0.188701L89.0708 0.162501L89.1145 0.138101L89.1595 0.115501L89.2056 0.0949007L89.2529 0.0762007L89.301 0.0594007L89.35 0.0447007L89.3999 0.0320007L89.4505 0.0213007L89.5017 0.0128007L89.5535 0.00630066L89.6056 0.00210065L89.6581 6.43547e-07L89.7109 0.000100644L89.764 0.00250064L89.8171 0.00730064L89.8701 0.0143007L89.9232 0.0237007L89.9761 0.0354007L90.0287 0.0496006L90.0809 0.0663007V0.0663013ZM42.7201 1.8027L41.9195 0.0663013L43.3869 0.780103L43.9274 3.0026L44.6487 5.0756L45.5373 7.0011L46.5804 8.78021L47.7653 10.4143L49.0798 11.9045L50.5116 13.252L52.0488 14.4571L53.6794 15.5207L55.3916 16.4427L57.1732 17.2235L59.0118 17.8628L60.8954 18.3606L62.8111 18.7168L64.7464 18.9313L66.6885 19.0039L68.6248 18.9347L70.5424 18.724L72.4287 18.3717L74.2714 17.8782L76.058 17.2437L77.7763 16.4682L79.4146 15.552L80.9611 14.4947L82.4042 13.2958L83.7324 11.9546L84.9337 10.4698L85.9962 8.84002L86.9077 7.06351L87.655 5.13871L88.2252 3.06411L88.6044 0.837212L90.7567 1.03181L90.3509 3.41411L89.7365 5.65032L88.9257 7.73832L87.9313 9.67662L86.7664 11.4634L85.4444 13.0976L83.9792 14.5774L82.3851 15.9019L80.6763 17.0704L78.8671 18.0824L76.9718 18.9377L75.0044 19.6367L72.9785 20.1794L70.908 20.5661L68.8061 20.7972L66.6862 20.8728L64.5616 20.7934L62.4451 20.5589L60.3503 20.1693L58.2902 19.6248L56.2781 18.9251L54.328 18.0703L52.453 17.0605L50.6674 15.8957L48.9848 14.5764L47.4193 13.1031L45.9849 11.4767L44.6953 9.69802L43.5642 7.76851L42.6047 5.68941L41.83 3.4622L41.2526 1.0889L42.7201 1.8027L42.7201 1.8027ZM43.3869 0.780101L41.2527 1.0889L41.2449 1.0413L41.2399 0.993901L41.2377 0.946801L41.2383 0.900101L41.2417 0.853701L41.2476 0.807901L41.256 0.762701L41.267 0.718101L41.2804 0.674101L41.2963 0.631001L41.3145 0.588701L41.335 0.547301L41.3578 0.506801L41.3827 0.467401L41.4098 0.429101L41.4388 0.392001L41.47 0.356101L41.5031 0.321601L41.5381 0.288401L41.575 0.256601L41.6136 0.2264L41.654 0.1977L41.696 0.1707L41.7398 0.1454L41.7849 0.1219L41.8317 0.1002L41.88 0.0805002L41.9296 0.0627002L41.9805 0.0470001L42.0329 0.0334L42.0863 0.022L42.141 0.0129L42.1961 0.00620001L42.251 0.0019L42.3055 0L42.3596 0.0005L42.4133 0.00340001L42.4664 0.00850002L42.5187 0.0158L42.5704 0.0253L42.6213 0.0369L42.6712 0.0506001L42.7202 0.0663002L42.7681 0.0840002L42.815 0.1037L42.8606 0.1252L42.905 0.1486L42.9479 0.173701L42.9895 0.200601L43.0295 0.229201L43.0679 0.259401L43.1047 0.291301L43.1397 0.324601L43.1729 0.359501L43.2042 0.395801L43.2335 0.433601L43.2607 0.472601L43.2858 0.513001L43.3086 0.554701L43.3292 0.597501L43.3474 0.641501L43.3632 0.686701L43.3764 0.732901L43.3869 0.780101V0.780101Z" fill="#333333"/>
<path fill-rule="evenodd" clip-rule="evenodd" d="M42.3198 0.934601C47.2281 26.2342 86.605 26.312 89.6806 0.934601C73.8286 9.22931 58.0416 9.22931 42.3198 0.934601Z" fill="#66798F"/>
<path d="M90.2408 1.7338L89.1194 0.135399L90.7563 1.0319L90.3504 3.4142L89.736 5.65041L88.9253 7.7384L87.9308 9.67671L86.766 11.4635L85.444 13.0977L83.9788 14.5775L82.3847 15.902L80.6759 17.0705L78.8666 18.0825L76.9713 18.9378L75.0039 19.6367L72.9781 20.1794L70.9076 20.5661L68.8057 20.7972L66.6858 20.8728L64.5611 20.7934L62.4447 20.5589L60.3498 20.1693L58.2898 19.6249L56.2777 18.9252L54.3275 18.0704L52.4525 17.0606L50.6669 15.8958L48.9844 14.5765L47.4189 13.1032L45.9844 11.4768L44.6949 9.6981L43.5637 7.7686L42.6043 5.6895L41.8295 3.46229L41.2522 1.08898L43.3865 0.780185L43.927 3.00268L44.6482 5.07568L45.5368 7.00118L46.58 8.78029L47.7649 10.4144L49.0793 11.9046L50.5112 13.2521L52.0483 14.4572L53.679 15.5208L55.3912 16.4428L57.1727 17.2236L59.0114 17.8629L60.8949 18.3607L62.8106 18.7169L64.7459 18.9314L66.6881 19.004L68.6243 18.9348L70.5419 18.7241L72.4283 18.3718L74.271 17.8783L76.0575 17.2438L77.7759 16.4683L79.4142 15.5521L80.9607 14.4948L82.4038 13.2959L83.7319 11.9547L84.9332 10.4699L85.9957 8.8401L86.9072 7.0636L87.6546 5.13879L88.2247 3.06419L88.6039 0.837294L90.2407 1.7338L90.2408 1.7338ZM90.7563 1.0319L88.6039 0.837297L88.6111 0.789597L88.621 0.742797L88.6335 0.696897L88.6485 0.651997L88.666 0.608097L88.6858 0.565297L88.7079 0.523697L88.7324 0.483197L88.7589 0.443997L88.7876 0.406097L88.8181 0.369497L88.8507 0.334297L88.8852 0.300597L88.9213 0.268397L88.9593 0.237696L88.9988 0.208696L89.0399 0.181296L89.0825 0.155596L89.1265 0.131696L89.1719 0.109596L89.2184 0.0892965L89.2663 0.0709965L89.3151 0.0546965L89.365 0.0403965L89.416 0.0281965L89.4677 0.0180965L89.5203 0.0101965L89.5736 0.00449649L89.6276 0.00109648L89.6822 9.64823e-05L89.7373 0.00139648L89.7928 0.00519649L89.848 0.0113965L89.9022 0.0198965L89.9553 0.0306965L90.0073 0.0436965L90.0582 0.0587965L90.1077 0.0758966L90.1559 0.0949966L90.2028 0.116097L90.2482 0.138997L90.2921 0.163797L90.3344 0.190197L90.3752 0.218297L90.4142 0.248097L90.4515 0.279297L90.487 0.312097L90.5206 0.346197L90.5523 0.381697L90.5821 0.418497L90.6098 0.456497L90.6354 0.495697L90.6589 0.535897L90.6801 0.577197L90.6989 0.619397L90.7155 0.662497L90.7296 0.706498L90.7413 0.751198L90.7505 0.796598L90.7571 0.842598L90.761 0.889298L90.7622 0.936398L90.7607 0.983998L90.7563 1.0319L90.7563 1.0319ZM43.3865 0.780198L41.2522 1.089L42.8834 0.137197L44.3311 0.876998L45.7779 1.5685L47.2236 2.2117L48.6684 2.8066L50.1122 3.3535L51.5552 3.8524L52.9971 4.3034L54.4384 4.7066L55.8787 5.062L57.3186 5.3698L58.7578 5.6301L60.1967 5.843L61.6352 6.0085L63.0737 6.1266L64.5122 6.1975L65.9509 6.2212L67.3899 6.1975L68.8297 6.1266L70.2701 6.0085L71.7115 5.843L73.1539 5.6301L74.5976 5.3697L76.0426 5.0618L77.489 4.7062L78.9368 4.303L80.3864 3.8518L81.8377 3.3528L83.2907 2.8057L84.7453 2.2106L86.2016 1.5672L87.6597 0.875398L89.1195 0.135396L90.2408 1.7338L88.7287 2.5004L87.2157 3.2182L85.7017 3.887L84.1867 4.5069L82.6707 5.0776L81.1539 5.5992L79.6362 6.0716L78.1175 6.4946L76.5982 6.868L75.0781 7.1919L73.5575 7.4661L72.0366 7.6906L70.5151 7.8653L68.9936 7.9902L67.4721 8.0651L65.9509 8.09L64.43 8.0651L62.9095 7.9902L61.3898 7.8653L59.8711 7.6906L58.3533 7.4661L56.8367 7.1918L55.3213 6.8678L53.8073 6.4942L52.295 6.0712L50.7843 5.5986L49.2753 5.0769L47.7678 4.506L46.262 3.8859L44.758 3.2169L43.2559 2.4988L41.7553 1.732L43.3865 0.780196L43.3865 0.780198ZM42.8834 0.137197L41.7554 1.73199L41.7086 1.70589L41.6639 1.67809L41.6213 1.64859L41.5807 1.61759L41.5424 1.58519L41.5062 1.55129L41.4721 1.51609L41.4403 1.47969L41.4108 1.44219L41.3833 1.40359L41.3583 1.36399L41.3355 1.32349L41.315 1.28209L41.2969 1.23999L41.2811 1.19729L41.2678 1.15399L41.2568 1.11019L41.2482 1.06589L41.2421 1.02129L41.2385 0.976492L41.2373 0.931492L41.2387 0.886292L41.2426 0.841192L41.2491 0.796092L41.2581 0.751192L41.2698 0.706492L41.2842 0.662092L41.3011 0.618092L41.3208 0.574492L41.3431 0.531492L41.3683 0.489192L41.3961 0.447492L41.4263 0.407092L41.4585 0.368492L41.4926 0.331692L41.5285 0.296692L41.566 0.263592L41.6053 0.232292L41.646 0.202892L41.6882 0.175392L41.7316 0.149892L41.7763 0.126192L41.8222 0.104592L41.8691 0.0848918L41.917 0.0671917L41.9657 0.0515916L42.0152 0.0378916L42.0653 0.0263916L42.116 0.0168916L42.1673 0.00949156L42.219 0.00419155L42.2709 0.00109155L42.323 9.15527e-05L42.3753 0.00129155L42.4275 0.00469156L42.4797 0.0102916L42.5317 0.0180916L42.5835 0.0281916L42.6349 0.0405916L42.6858 0.0551916L42.7363 0.0721916L42.7861 0.0914917L42.8351 0.113192L42.8834 0.137192V0.137197Z" fill="#333333"/>
<path fill-rule="evenodd" clip-rule="evenodd" d="M102.646 40.5925C99.1498 29.6281 101.31 18.1196 109.129 7.62186L130.918 28.3061L116.511 46.8135L102.646 40.5925L102.646 40.5925Z" fill="#66798F"/>
<path d="M109.929 6.99309L108.328 8.25069L110.038 8.12739L109.335 9.09589L108.665 10.0696L108.028 11.0481L107.423 12.0311L106.851 13.0185L106.312 14.01L105.806 15.0052L105.332 16.0038L104.89 17.0057L104.482 18.0105L104.105 19.0181L103.762 20.0281L103.45 21.0401L103.171 22.0542L102.925 23.0698L102.711 24.0868L102.53 25.105L102.381 26.1241L102.264 27.1439L102.179 28.1639L102.127 29.1842L102.107 30.2043L102.12 31.2241L102.165 32.2432L102.242 33.2615L102.352 34.2786L102.494 35.2944L102.668 36.3086L102.875 37.321L103.114 38.3313L103.385 39.3391L103.689 40.3444L101.603 40.8406L101.284 39.7869L100.999 38.7301L100.749 37.6704L100.532 36.6082L100.349 35.5436L100.2 34.4772L100.085 33.4091L100.004 32.3398L99.9564 31.2695L99.9434 30.1985L99.9641 29.1274L100.019 28.0561L100.107 26.9851L100.23 25.9149L100.387 24.8456L100.577 23.7776L100.801 22.7112L101.059 21.6466L101.352 20.5843L101.678 19.5245L102.037 18.4677L102.431 17.4139L102.858 16.3637L103.319 15.317L103.814 14.2746L104.342 13.2366L104.904 12.2031L105.5 11.1747L106.129 10.1515L106.792 9.13379L107.488 8.12209L108.218 7.11639L109.929 6.99309L109.929 6.99309ZM110.038 8.12739L108.218 7.11639L108.25 7.07659L108.283 7.03869L108.318 7.00259L108.355 6.96829L108.393 6.93589L108.433 6.90539L108.475 6.87689L108.518 6.85019L108.562 6.82559L108.607 6.80279L108.654 6.78209L108.701 6.76339L108.749 6.74659L108.798 6.73199L108.848 6.71929L108.899 6.70879L108.95 6.70029L109.001 6.69399L109.053 6.68969L109.105 6.68759L109.157 6.68769L109.209 6.68989L109.261 6.69439L109.313 6.70099L109.365 6.70989L109.417 6.72099L109.468 6.73439L109.518 6.75009L109.568 6.76809L109.617 6.78839L109.666 6.81099L109.714 6.83599L109.76 6.86299L109.804 6.89169L109.845 6.92199L109.885 6.95379L109.923 6.98709L109.958 7.02159L109.991 7.05749L110.022 7.09449L110.05 7.13259L110.077 7.17179L110.101 7.21189L110.122 7.25279L110.142 7.29459L110.159 7.33699L110.173 7.37999L110.186 7.42359L110.195 7.46759L110.203 7.51209L110.208 7.55679L110.21 7.60169L110.21 7.64669L110.207 7.69179L110.202 7.73679L110.195 7.78179L110.184 7.82649L110.171 7.87099L110.156 7.91509L110.138 7.95879L110.117 8.00189L110.093 8.04439L110.067 8.08629L110.038 8.12739H110.038ZM130.117 28.9349L108.328 8.2507L109.929 6.9931L131.718 27.6773L131.816 28.8274L130.117 28.9349ZM130.117 28.9349L131.718 27.6773L131.755 27.7137L131.788 27.7512L131.82 27.7898L131.849 27.8294L131.875 27.8698L131.899 27.9111L131.92 27.9531L131.939 27.9958L131.955 28.039L131.969 28.0827L131.98 28.1267L131.989 28.1711L131.995 28.2158L131.998 28.2606L132 28.3054L131.998 28.3502L131.995 28.395L131.989 28.4395L131.98 28.4838L131.969 28.5277L131.955 28.5712L131.939 28.6142L131.921 28.6566L131.9 28.6983L131.877 28.7392L131.851 28.7793L131.823 28.8184L131.792 28.8566L131.759 28.8936L131.724 28.9295L131.686 28.964L131.646 28.9973L131.604 29.0288L131.56 29.058L131.516 29.0851L131.47 29.11L131.423 29.1327L131.375 29.1532L131.327 29.1715L131.277 29.1877L131.227 29.2017L131.176 29.2136L131.126 29.2232L131.074 29.2308L131.022 29.2362L130.971 29.2394L130.919 29.2405L130.867 29.2394L130.815 29.2363L130.763 29.2309L130.712 29.2235L130.661 29.2139L130.611 29.2022L130.561 29.1884L130.512 29.1725L130.464 29.1545L130.416 29.1344L130.37 29.1122L130.325 29.0878L130.28 29.0614L130.238 29.0329L130.196 29.0023L130.156 28.9696L130.117 28.9349ZM115.613 46.2922L130.02 27.7847L131.816 28.8274L117.409 47.3348L116.012 47.6427L115.613 46.2922L115.613 46.2922ZM115.613 46.2922L117.409 47.3348L117.377 47.374L117.343 47.4114L117.307 47.4469L117.269 47.4805L117.23 47.5122L117.189 47.5419L117.147 47.5698L117.104 47.5957L117.059 47.6196L117.013 47.6415L116.966 47.6614L116.918 47.6793L116.87 47.6952L116.82 47.709L116.77 47.7208L116.719 47.7304L116.668 47.738L116.617 47.7435L116.565 47.7468L116.513 47.748L116.461 47.747L116.408 47.7439L116.356 47.7385L116.305 47.731L116.253 47.7212L116.202 47.7091L116.151 47.6949L116.101 47.6783L116.051 47.6594L116.003 47.6383L115.955 47.6148L115.908 47.589L115.862 47.5612L115.819 47.5317L115.778 47.5007L115.739 47.4682L115.702 47.4343L115.668 47.3991L115.636 47.3627L115.606 47.3251L115.578 47.2865L115.552 47.2469L115.529 47.2064L115.509 47.1651L115.49 47.123L115.474 47.0803L115.461 47.037L115.45 46.9932L115.441 46.949L115.434 46.9045L115.431 46.8597L115.429 46.8148L115.43 46.7698L115.434 46.7247L115.44 46.6798L115.449 46.635L115.46 46.5904L115.474 46.5462L115.491 46.5024L115.51 46.4591L115.532 46.4163L115.556 46.3742L115.583 46.3328L115.613 46.2922H115.613ZM103.145 39.7633L117.01 45.9843L116.012 47.6427L102.147 41.4217L101.603 40.8406L103.145 39.7633ZM103.145 39.7633L102.147 41.4217L102.098 41.3985L102.052 41.3734L102.007 41.3465L101.964 41.318L101.923 41.2879L101.884 41.2563L101.847 41.2233L101.813 41.1889L101.78 41.1532L101.75 41.1163L101.721 41.0783L101.695 41.0392L101.672 40.9992L101.65 40.9583L101.631 40.9166L101.614 40.8742L101.6 40.8311L101.588 40.7875L101.578 40.7434L101.571 40.6989L101.566 40.654L101.564 40.6089L101.564 40.5637L101.567 40.5183L101.572 40.4729L101.581 40.4276L101.591 40.3825L101.605 40.3376L101.621 40.2929L101.64 40.2487L101.661 40.2049L101.686 40.1617L101.713 40.1196L101.742 40.0792L101.773 40.0404L101.806 40.0034L101.841 39.9681L101.877 39.9345L101.915 39.9028L101.955 39.8728L101.997 39.8447L102.039 39.8185L102.083 39.7941L102.129 39.7717L102.175 39.7512L102.222 39.7327L102.271 39.7161L102.32 39.7016L102.37 39.6891L102.42 39.6786L102.471 39.6703L102.523 39.6641L102.575 39.66L102.627 39.6581L102.679 39.6583L102.732 39.6608L102.784 39.6655L102.837 39.6725L102.889 39.6818L102.941 39.6933L102.993 39.7073L103.044 39.7235L103.095 39.7422L103.145 39.7633Z" fill="#333333"/>
<path fill-rule="evenodd" clip-rule="evenodd" d="M29.3535 40.5925C32.8498 29.6281 30.6893 18.1196 22.8711 7.62186L1.08154 28.3061L15.4881 46.8135L29.3535 40.5925L29.3535 40.5925Z" fill="#66798F"/>
<path d="M23.6718 8.25069L22.0711 6.99309L23.7815 7.11639L24.5114 8.12209L25.2077 9.13379L25.8706 10.1515L26.4998 11.1747L27.0954 12.2031L27.6576 13.2366L28.1859 14.2746L28.6807 15.317L29.1417 16.3637L29.5688 17.4139L29.9624 18.4677L30.3221 19.5245L30.6481 20.5843L30.9402 21.6466L31.1984 22.7112L31.4227 23.7776L31.6131 24.8456L31.7696 25.9149L31.8923 26.9851L31.981 28.0561L32.0356 29.1274L32.0563 30.1985L32.0433 31.2695L31.996 32.3398L31.9148 33.4091L31.7999 34.4772L31.6508 35.5436L31.4679 36.6082L31.251 37.6704L31.0002 38.7301L30.7156 39.7869L30.3971 40.8406L28.3107 40.3444L28.6147 39.3391L28.8861 38.3313L29.1251 37.321L29.3318 36.3086L29.5062 35.2944L29.648 34.2786L29.7577 33.2615L29.8349 32.2432L29.8798 31.2241L29.8924 30.2043L29.8726 29.1842L29.8205 28.1639L29.736 27.1439L29.6192 26.1241L29.47 25.105L29.2885 24.0868L29.0746 23.0698L28.8282 22.0542L28.5495 21.0401L28.2381 20.0281L27.8944 19.0181L27.5182 18.0105L27.1093 17.0057L26.668 16.0038L26.1941 15.0052L25.6875 14.01L25.1483 13.0185L24.5765 12.0311L23.9718 11.0481L23.3344 10.0696L22.6643 9.09589L21.9615 8.12739L23.6718 8.25069L23.6718 8.25069ZM23.7815 7.11639L21.9615 8.12739L21.9325 8.08629L21.9063 8.04439L21.8828 8.00189L21.862 7.95879L21.8438 7.91509L21.8283 7.87099L21.8155 7.82649L21.8051 7.78179L21.7975 7.73679L21.7923 7.69179L21.7897 7.64669L21.7896 7.60169L21.7921 7.55679L21.797 7.51209L21.8043 7.46759L21.8142 7.42359L21.8263 7.37999L21.841 7.33699L21.8579 7.29459L21.8774 7.25279L21.8991 7.21189L21.923 7.17179L21.9494 7.13259L21.9779 7.09449L22.0088 7.05749L22.0418 7.02159L22.0771 6.98709L22.1147 6.95379L22.1544 6.92199L22.1962 6.89169L22.2401 6.86299L22.2861 6.83599L22.3337 6.81099L22.3822 6.78839L22.4315 6.76809L22.4814 6.75009L22.532 6.73439L22.583 6.72099L22.6346 6.70989L22.6863 6.70099L22.7384 6.69439L22.7905 6.68989L22.8428 6.68769L22.8949 6.68759L22.9468 6.68969L22.9986 6.69399L23.0501 6.70029L23.1011 6.70879L23.1516 6.71929L23.2014 6.73199L23.2505 6.74659L23.2989 6.76339L23.3462 6.78209L23.3926 6.80279L23.438 6.82559L23.4821 6.85019L23.525 6.87689L23.5666 6.90539L23.6065 6.93589L23.6451 6.96829L23.6819 7.00259L23.717 7.03869L23.7502 7.07659L23.7815 7.11639H23.7815ZM0.281605 27.6773L22.0712 6.99309L23.6718 8.25069L1.8823 28.9349L0.183988 28.8274L0.2816 27.6773H0.281605ZM0.281605 27.6773L1.8823 28.9349L1.84374 28.9696L1.80379 29.0023L1.76222 29.0329L1.71938 29.0614L1.67515 29.0878L1.62987 29.1122L1.58344 29.1344L1.53608 29.1545L1.4878 29.1725L1.4387 29.1884L1.38891 29.2022L1.33854 29.2139L1.28771 29.2235L1.23641 29.2309L1.18489 29.2363L1.13301 29.2394L1.08114 29.2405L1.02927 29.2394L0.977391 29.2362L0.925632 29.2308L0.874221 29.2232L0.823273 29.2136L0.772673 29.2017L0.722651 29.1877L0.673208 29.1715L0.624576 29.1532L0.576754 29.1327L0.529975 29.11L0.484122 29.0851L0.439427 29.058L0.396005 29.0288L0.353857 28.9973L0.313678 28.964L0.275814 28.9295L0.240382 28.8936L0.207381 28.8566L0.176813 28.8184L0.14856 28.7793L0.122854 28.7392L0.0995802 28.6983L0.0787379 28.6566L0.0603271 28.6142L0.0443479 28.5712L0.0308004 28.5277L0.0196844 28.4838L0.0111159 28.4395L0.00486321 28.395L0.0012737 28.3502L0 28.3054L0.0012737 28.2606L0.00497901 28.2158L0.0112317 28.1711L0.0200318 28.1267L0.0311477 28.0827L0.0449269 28.039L0.0611377 27.9958L0.0798957 27.9531L0.101085 27.9111L0.124823 27.8698L0.151107 27.8294L0.179939 27.7898L0.211318 27.7512L0.245129 27.7137L0.281603 27.6773H0.281605ZM14.5906 47.3348L0.184003 28.8273L1.97991 27.7847L16.3865 46.2922L15.9874 47.6427L14.5906 47.3348L14.5906 47.3348ZM14.5906 47.3348L16.3865 46.2922L16.4164 46.3328L16.4436 46.3742L16.468 46.4163L16.4899 46.4591L16.5091 46.5024L16.5256 46.5462L16.5396 46.5904L16.5509 46.635L16.5596 46.6798L16.5658 46.7247L16.5694 46.7698L16.5706 46.8148L16.5692 46.8597L16.5654 46.9045L16.559 46.949L16.5502 46.9932L16.5391 47.037L16.5254 47.0803L16.5095 47.123L16.491 47.1651L16.4703 47.2064L16.4473 47.2469L16.4219 47.2865L16.3942 47.3251L16.3643 47.3627L16.332 47.3991L16.2976 47.4343L16.2609 47.4682L16.222 47.5007L16.1808 47.5317L16.1375 47.5612L16.0921 47.589L16.0451 47.6148L15.9972 47.6383L15.9485 47.6594L15.8989 47.6783L15.8488 47.6949L15.798 47.7091L15.7469 47.7212L15.6952 47.731L15.6433 47.7385L15.5914 47.7439L15.5391 47.747L15.487 47.748L15.435 47.7468L15.3832 47.7435L15.3316 47.738L15.2805 47.7304L15.2297 47.7208L15.1796 47.709L15.1302 47.6952L15.0814 47.6793L15.0336 47.6614L14.9867 47.6415L14.9408 47.6196L14.8961 47.5957L14.8526 47.5698L14.8105 47.5419L14.7697 47.5122L14.7305 47.4805L14.6928 47.4469L14.6569 47.4114L14.6228 47.374L14.5906 47.3348H14.5906ZM29.8528 41.4217L15.9874 47.6427L14.9897 45.9843L28.8551 39.7633L30.3971 40.8406L29.8528 41.4217ZM29.8528 41.4217L28.8551 39.7633L28.9051 39.7422L28.9559 39.7235L29.007 39.7073L29.0588 39.6933L29.1108 39.6818L29.163 39.6725L29.2155 39.6655L29.268 39.6608L29.3206 39.6583L29.3729 39.6581L29.4252 39.66L29.4771 39.6641L29.5287 39.6703L29.5797 39.6786L29.6302 39.6891L29.6801 39.7016L29.7292 39.7161L29.7775 39.7327L29.8249 39.7512L29.8712 39.7717L29.9165 39.7941L29.9605 39.8185L30.0032 39.8447L30.0445 39.8728L30.0844 39.9028L30.1226 39.9345L30.1592 39.9681L30.194 40.0034L30.227 40.0404L30.2582 40.0792L30.2872 40.1196L30.3141 40.1617L30.3385 40.2049L30.3602 40.2487L30.3789 40.2929L30.3951 40.3376L30.4085 40.3825L30.4192 40.4276L30.4273 40.4729L30.4328 40.5183L30.4357 40.5637L30.4359 40.6089L30.4337 40.654L30.429 40.6989L30.4218 40.7434L30.4122 40.7875L30.4 40.8311L30.3855 40.8742L30.3687 40.9166L30.3495 40.9583L30.3281 40.9992L30.3044 41.0392L30.2784 41.0783L30.2502 41.1163L30.2198 41.1532L30.1873 41.1889L30.1526 41.2233L30.1159 41.2563L30.0769 41.2879L30.0361 41.318L29.9932 41.3465L29.9483 41.3734L29.9015 41.3985L29.8528 41.4217H29.8528Z" fill="#333333"/>
</svg>
