<?xml version="1.0" encoding="UTF-8"?>
<!DOCTYPE svg PUBLIC "-//W3C//DTD SVG 1.1//EN" "http://www.w3.org/Graphics/SVG/1.1/DTD/svg11.dtd">
<!-- Creator: CorelDRAW -->
<svg xmlns="http://www.w3.org/2000/svg" xml:space="preserve" width="40mm" height="40mm" style="shape-rendering:geometricPrecision; text-rendering:geometricPrecision; image-rendering:optimizeQuality; fill-rule:evenodd; clip-rule:evenodd"
viewBox="0 0 4.1963 4.1963"
 xmlns:xlink="http://www.w3.org/1999/xlink">
 <defs>
  <style type="text/css">
   <![CDATA[
    .fil1 {fill:none}
    .fil0 {fill:white}
   ]]>
  </style>
 </defs>
 <g id="Layer_x0020_1">
  <metadata id="CorelCorpID_0Corel-Layer"/>
  <g id="_441973328">
   <path id="_441972512" class="fil0" d="M0.791055 0.436982c0.0460334,0.0273704 0.0817439,0.0632802 0.107247,0.10752 0.0214641,0.0373051 0.0446172,0.0947735 0.0694593,0.172489 0.0294371,0.0923396 0.0553387,0.182927 0.119647,0.429659 0.0103439,0.036256 0.0435156,0.0819642 0.100229,0.0788905 0.924172,-3.14723e-005 1.70159,-6.29445e-005 2.62576,-9.44168e-005 0.0730366,0.0020457 0.134502,0.081125 0.117895,0.15391l-0.288139 1.07889c-0.037966,0.142213 -0.0688088,0.241759 -0.0926124,0.298661 -0.0202576,0.0485617 -0.0432219,0.0854052 -0.0688088,0.110709 -0.0299931,0.0297203 -0.0775267,0.0557793 -0.142485,0.078282 -0.049317,0.0148129 -0.0843771,0.0236252 -0.105275,0.0262479 -0.0153794,0.00196177 -0.0369379,0.00300036 -0.0647804,0.00309477 -0.287121,0.00070288 -1.51512,0.0254925 -1.6657,-0.0443444 -0.048184,-0.0223138 -0.0888672,-0.0576572 -0.121955,-0.106114 -0.0355322,-0.0520236 -0.0679591,-0.127956 -0.0972073,-0.227702l-0.414059 -1.41026c-0.0314932,-0.107425 -0.0555905,-0.189169 -0.0720924,-0.245221 -0.0150857,-0.0512788 -0.0268983,-0.0912171 -0.0355217,-0.11971 -0.00937873,-0.0311261 -0.0166908,-0.0549401 -0.0220306,-0.0714315 -0.00890665,-0.0273704 -0.0162187,-0.0464006 -0.022125,-0.0571851 -0.00824573,-0.0150962 -0.0288705,-0.0343992 -0.0616856,-0.0580244 -0.00890665,-0.00637838 -0.0165859,-0.0100292 -0.0229643,-0.0108789 -0.00459495,-0.000650427 -0.0128407,-0.000933677 -0.0248421,-0.00102809 -0.0169635,0 -0.0853842,-0.00223453 -0.196282,-0.000545519 -0.0979626,-0.00159459 -0.14494,-0.0341369 -0.149997,-0.103974 -0.00440612,-0.0624305 0.0225866,-0.101529 0.081083,-0.117276 0.0492121,-0.0131239 0.126739,-0.012484 0.232758,-0.00404943 0.105936,0.00835064 0.177462,0.0194289 0.214483,0.0394872zm2.34604 2.86876c0.137838,0 0.249585,0.111747 0.249585,0.249585 0,0.137848 -0.111747,0.249596 -0.249585,0.249596 -0.137848,0 -0.249596,-0.111747 -0.249596,-0.249596 0,-0.137838 0.111747,-0.249585 0.249596,-0.249585zm-1.38153 0c0.137838,0 0.249585,0.111747 0.249585,0.249585 0,0.137848 -0.111747,0.249596 -0.249585,0.249596 -0.137848,0 -0.249585,-0.111747 -0.249585,-0.249596 0,-0.137838 0.111737,-0.249585 0.249585,-0.249585z"/>
   <rect id="_333098728" class="fil1" width="4.1963" height="4.1963"/>
  </g>
 </g>
</svg>
