<?xml version="1.0" encoding="UTF-8"?>
<!DOCTYPE svg PUBLIC "-//W3C//DTD SVG 1.1//EN" "http://www.w3.org/Graphics/SVG/1.1/DTD/svg11.dtd">
<!-- Creator: CorelDRAW -->
<svg xmlns="http://www.w3.org/2000/svg" xml:space="preserve" width="35mm" height="35mm" style="shape-rendering:geometricPrecision; text-rendering:geometricPrecision; image-rendering:optimizeQuality; fill-rule:evenodd; clip-rule:evenodd"
viewBox="0 0 4.7496 4.7496"
 xmlns:xlink="http://www.w3.org/1999/xlink">
 <defs>
  <style type="text/css">
   <![CDATA[
    .fil0 {fill:none}
    .fil1 {fill:black}
    .fil2 {fill:white}
   ]]>
  </style>
 </defs>
 <g id="Layer_x0020_1">
  <metadata id="CorelCorpID_0Corel-Layer"/>
  <g id="_324214544">
   <rect id="_324215864" class="fil0" width="4.7496" height="4.74959"/>
   <g>
    <path id="_324216008" class="fil1" d="M3.25163 4.41032l-1.75368 0c-0.63893,0 -1.1587,-0.519729 -1.1587,-1.15866l0 -1.75372c0,-0.638876 0.51977,-1.15867 1.1587,-1.15867l1.75368 0c0.638917,0 1.1587,0.519797 1.1587,1.15867l1.35703e-005 1.75372c0,0.63893 -0.519797,1.15866 -1.15871,1.15866z"/>
    <path id="_324215720" class="fil2" d="M2.3748 3.3202c0.521249,0 0.945402,-0.424167 0.945402,-0.945416 0,-0.521235 -0.424167,-0.945416 -0.945416,-0.945416 -0.521235,0 -0.945402,0.42418 -0.945402,0.945416 -1.35703e-005,0.521262 0.424167,0.945416 0.945416,0.945416zm0 -1.73576c0.435878,0 0.790389,0.35447 0.790375,0.790348 0,0.435905 -0.35447,0.790402 -0.790389,0.790402 -0.435878,0 -0.790375,-0.354524 -0.790375,-0.790402 -1.35703e-005,-0.435878 0.354524,-0.790348 0.790389,-0.790348z"/>
    <path id="_333098224" class="fil2" d="M3.61547 1.27279c0,-0.0848415 -0.0687064,-0.153575 -0.153548,-0.153575 -0.0848687,0 -0.153575,0.0687064 -0.153575,0.153575 0,0.0848551 0.06872,0.153548 0.153575,0.153548 0.0848279,0 0.153548,-0.06872 0.153548,-0.153548z"/>
   </g>
  </g>
 </g>
</svg>
