<?xml version="1.0" encoding="UTF-8"?>
<!DOCTYPE svg PUBLIC "-//W3C//DTD SVG 1.1//EN" "http://www.w3.org/Graphics/SVG/1.1/DTD/svg11.dtd">
<!-- Creator: CorelDRAW -->
<svg xmlns="http://www.w3.org/2000/svg" xml:space="preserve" width="40mm" height="40mm" style="shape-rendering:geometricPrecision; text-rendering:geometricPrecision; image-rendering:optimizeQuality; fill-rule:evenodd; clip-rule:evenodd"
viewBox="0 0 45.9263 45.9263"
 xmlns:xlink="http://www.w3.org/1999/xlink">
 <defs>
  <style type="text/css">
   <![CDATA[
    .fil0 {fill:none}
    .fil1 {fill:black}
   ]]>
  </style>
 </defs>
 <g id="Layer_x0020_1">
  <metadata id="CorelCorpID_0Corel-Layer"/>
  <g id="_441971000">
   <rect id="_333099016" class="fil0" x="-1.05149e-005" y="-1.18004e-005" width="45.9263" height="45.9263"/>
   <path id="_441972080" class="fil1" d="M19.2078 21.8338c-0.506453,2.97178 0.112979,4.98783 1.86254,6.04965 1.64359,0.940342 3.07224,0.633439 4.28608,-0.922316 0.698999,-0.979379 1.05068,-2.2365 1.05068,-3.77262 0.00137779,-1.53325 -0.346055,-2.74295 -1.0423,-3.62474 -0.665473,-0.789589 -1.36723,-1.26539 -2.10538,-1.4259 -2.15693,-0.341807 -3.50751,0.890167 -4.05162,3.69592zm19.0556 -13.4176c2.35097,2.48197 3.84794,5.60451 4.49114,9.36874 0.643198,3.76424 0.256728,7.14338 -1.1593,10.1362 -1.62832,3.28568 -4.28895,4.9543 -7.98337,5.00459 -3.14481,0.041793 -5.34364,-1.10361 -6.59514,-3.43782 -0.445141,0.941719 -0.979494,1.67838 -1.60306,2.2086l-0.136746 0.115849c-0.934831,0.728277 -2.11663,1.1384 -3.54391,1.22773 -1.42728,0.0893267 -2.76798,-0.161776 -4.02372,-0.750551 -3.23264,-1.62683 -4.78552,-4.87347 -4.66003,-9.7427 0.100464,-3.89685 1.40362,-6.60076 3.90799,-8.11174 1.52498,-0.919445 3.11966,-1.29202 4.78277,-1.11612 1.66311,0.175783 2.93825,0.844011 3.82429,2.00618 0.711514,0.880408 1.22807,1.12049 1.37148,0.978116 0.0881786,-0.156494 0.15569,-0.590153 0.181409,-1.2864 0.00551116,-0.503697 0.0474189,-0.793837 0.122738,-0.867778 0.0544227,-0.0530449 0.167401,-0.0879489 0.340429,-0.104712 0.245591,-0.0222743 1.18593,-0.0362818 2.82252,-0.0431708 1.00866,-0.00424819 1.58917,0.0222743 1.7398,0.0794526 0.10609,0.0390374 0.175783,0.125609 0.207817,0.259484 0.0460411,0.189791 0.069808,0.922316 0.0725636,2.19608l0.0153853 10.0595c0.195302,1.01842 0.604161,1.70214 1.22784,2.05233 0.622187,0.350188 1.35046,0.305525 2.18207,-0.135368 1.44266,-0.842748 2.24488,-2.84479 2.40528,-6.00498 0.16189,-3.16008 -0.404611,-5.94356 -1.69939,-8.34746 -1.55001,-2.8797 -3.86883,-4.93203 -6.95922,-6.15424 -3.09038,-1.22359 -6.45977,-1.42039 -10.1069,-0.588776 -4.29434,0.978001 -7.52147,3.35124 -9.68127,7.12111 -2.1598,3.76986 -2.70529,7.98889 -1.63934,12.6601 1.56402,6.856 6.19328,10.697 13.8878,11.5244 0.863645,0.0934601 1.39949,0.145127 1.60593,0.153509 0.146505,0.00700377 0.323666,0.00700377 0.53022,0.00137779 0.29301,-0.00975935 1.28777,-0.0544227 2.98429,-0.135368 0.706003,-0.0335262 1.6615,-0.186231 2.34488,-0.328947 0.686369,-0.160398 0.702673,-0.155231 0.670524,0.571668 -0.0151557,0.522068 0.0253743,2.92597 -0.124575,3.12115 -0.0725636,0.0962157 -0.206439,0.174405 -0.401855,0.238587 -0.235717,0.076697 -0.703132,0.171535 -1.40213,0.286006 -4.70045,0.771562 -9.06873,0.390603 -13.1023,-1.14276 -4.0336,-1.53325 -7.0877,-3.98319 -9.16093,-7.34982 -2.76109,-4.48287 -3.69443,-9.41352 -2.80151,-14.7892 0.894301,-5.37568 3.33173,-9.50549 7.31503,-12.3881 4.10329,-2.97029 8.9321,-4.30835 14.4849,-4.01258 5.55433,0.295766 9.97577,2.11789 13.2656,5.46787z"/>
  </g>
 </g>
</svg>
