<?xml version="1.0" encoding="UTF-8"?>
<!DOCTYPE svg PUBLIC "-//W3C//DTD SVG 1.1//EN" "http://www.w3.org/Graphics/SVG/1.1/DTD/svg11.dtd">
<!-- Creator: CorelDRAW -->
<svg xmlns="http://www.w3.org/2000/svg" xml:space="preserve" width="40mm" height="40mm" style="shape-rendering:geometricPrecision; text-rendering:geometricPrecision; image-rendering:optimizeQuality; fill-rule:evenodd; clip-rule:evenodd"
viewBox="0 0 6.40921 6.40921"
 xmlns:xlink="http://www.w3.org/1999/xlink">
 <defs>
  <style type="text/css">
   <![CDATA[
    .fil0 {fill:none}
    .fil1 {fill:black}
   ]]>
  </style>
 </defs>
 <g id="Layer_x0020_1">
  <metadata id="CorelCorpID_0Corel-Layer"/>
  <g id="_333098872">
   <rect id="_333097504" class="fil0" width="6.40921" height="6.40921"/>
   <path id="_333099280" class="fil1" d="M2.93976 1.58884c-0.114308,0.077984 -0.188959,0.185611 -0.223938,0.323104 -0.0247395,0.125012 0.00200288,0.243999 0.0802112,0.356977 0.0782084,0.112978 0.184729,0.186508 0.319547,0.221054 0.125236,0.0249478 0.243774,-0.000897289 0.355871,-0.0773271 0.112081,-0.0764298 0.186059,-0.182054 0.222159,-0.31708 0.028521,-0.124579 0.00400576,-0.244015 -0.0735296,-0.358099 -0.0771028,-0.113427 -0.184056,-0.188527 -0.320893,-0.225059 -0.126117,-0.0262938 -0.245777,-0.000897289 -0.359428,0.0764298zm1.12086 -0.896696c0.243774,0.157554 0.427398,0.368129 0.550631,0.63174 0.0902417,0.192757 0.139929,0.390177 0.149511,0.592291 0.00913312,0.195433 -0.0178176,0.408235 -0.0806599,0.638646 -0.0650695,0.238423 -0.174042,0.512512 -0.326453,0.822253 -0.266511,0.541706 -0.638197,1.13445 -1.11463,1.77844l-0.027175 0.0367568c-1.16119,-1.55159 -1.67037,-2.70475 -1.52752,-3.45926 0.0748596,-0.395096 0.257362,-0.711743 0.547715,-0.949717 0.290129,-0.238214 0.63174,-0.352971 1.02459,-0.344511 0.295481,0.0135875 0.563546,0.0980449 0.803987,0.253356zm-1.98202 3.58618l-0.67082 -0.00166639c-0.0795543,-0.000224322 -0.129915,0.00490304 -0.150857,0.0156064 -0.0158307,0.00801151 -0.0300752,0.0240666 -0.0430058,0.0481332l-0.517415 1.419c1.67258,0 3.34495,0 5.01755,0l-0.522991 -1.42813c-0.0117128,-0.0270629 -0.0421245,-0.0458579 -0.0661911,-0.045249l-0.789999 -0.00512737 0.125733 -0.208796 0.840984 -0.000432622c0.0158147,0.00333279 0.027848,0.011136 0.0365325,0.0231693l0.670515 1.87604 -5.60806 0 0.630842 -1.79806c0.010463,-0.0387597 0.0231693,-0.0652778 0.0385514,-0.0795383 0.0133632,-0.0120333 0.0329754,-0.0202851 0.0590448,-0.0240666l0.82384 0.00032046 0.125749 0.208796z"/>
  </g>
 </g>
</svg>