<?xml version="1.0" encoding="UTF-8"?>
<!DOCTYPE svg PUBLIC "-//W3C//DTD SVG 1.1//EN" "http://www.w3.org/Graphics/SVG/1.1/DTD/svg11.dtd">
<!-- Creator: CorelDRAW -->
<svg xmlns="http://www.w3.org/2000/svg" xml:space="preserve" width="40mm" height="40mm" style="shape-rendering:geometricPrecision; text-rendering:geometricPrecision; image-rendering:optimizeQuality; fill-rule:evenodd; clip-rule:evenodd"
viewBox="0 0 11.4143 11.4143"
 xmlns:xlink="http://www.w3.org/1999/xlink">
 <defs>
  <style type="text/css">
   <![CDATA[
    .fil0 {fill:none}
    .fil1 {fill:white}
   ]]>
  </style>
 </defs>
 <g id="Layer_x0020_1">
  <metadata id="CorelCorpID_0Corel-Layer"/>
  <g id="_441973184">
   <rect id="_333097168" class="fil0" width="11.4143" height="11.4143"/>
   <path id="_333098800" class="fil1" d="M7.98155 1.16882c0.64759,0.310668 1.17601,0.712879 1.58467,1.20715 0.780566,0.943562 1.15627,2.00275 1.12713,3.17785 -0.00736222,0.115341 -0.0632637,0.198894 -0.167704,0.251542 -0.104726,0.0523916 -0.216244,0.0526769 -0.334524,0.00059925 -0.063549,-0.0276511 -0.10855,-0.0629783 -0.135345,-0.10621 -0.0232281,-0.0370679 -0.041177,-0.0917994 -0.0538184,-0.16448 -0.0150098,-0.0841233 -0.0300196,-0.228 -0.044744,-0.431317 -0.0717673,-0.975608 -0.476318,-1.81972 -1.21394,-2.53292 -0.737306,-0.713165 -1.59229,-1.08741 -2.56439,-1.12271 -0.401897,-0.0144391 -0.604016,-0.145646 -0.605785,-0.393393 -0.000884607,-0.10738 0.0129552,-0.183285 0.0417763,-0.22743 0.0249973,-0.0385232 0.0682574,-0.065889 0.130037,-0.0820687 0.0709113,-0.0191189 0.1939,-0.0294203 0.368967,-0.0317888 0.597253,-0.00736222 1.21982,0.144476 1.86766,0.455173zm0.100046 2.20427c0.549883,0.564294 0.822942,1.22746 0.818804,1.98891 0.011186,0.313322 -0.0979631,0.471011 -0.327162,0.473094 -0.22743,0.00176921 -0.340117,-0.135345 -0.337463,-0.411913 -0.0200035,-0.488988 -0.188906,-0.933831 -0.506937,-1.33427 -0.317774,-0.400413 -0.716132,-0.670504 -1.19482,-0.809986 -0.247719,-0.0720812 -0.45426,-0.106781 -0.619625,-0.103841 -0.227715,0.00382379 -0.341601,-0.107694 -0.341601,-0.334524 0,-0.099447 0.0138398,-0.171842 0.0412056,-0.217128 0.0249973,-0.0409202 0.0662029,-0.0700267 0.124444,-0.0874049 0.0644622,-0.0191189 0.167134,-0.0285357 0.308357,-0.0279365l0.0620652 -0.00148386 0.00502229 -0.00499375c0.761704,0.0161798 1.41783,0.306559 1.96771,0.871481zm-1.99419 0.876161l0.00587836 0.00148386c0.549284,0.158002 0.884693,0.443673 1.00623,0.857356 0.0761904,0.293319 0.0705974,0.498091 -0.0170644,0.614317 -0.0467986,0.0620652 -0.125643,0.0970785 -0.236561,0.10504 -0.110918,0.00764757 -0.200064,-0.0152951 -0.267151,-0.0694559 -0.023542,-0.018805 -0.0379525,-0.0338148 -0.0435455,-0.0447155 -0.00410914,-0.00764757 -0.00913143,-0.0208881 -0.0146959,-0.0394078 -0.00853218,-0.0270804 -0.0364972,-0.127412 -0.0847511,-0.300995 -0.0755911,-0.236247 -0.262443,-0.382493 -0.561069,-0.439279 -0.235363,-0.0511931 -0.3307,-0.194157 -0.285985,-0.428664 0.0191189,-0.100046 0.0750204,-0.173897 0.167704,-0.221551 0.0929694,-0.0476546 0.203317,-0.059126 0.331014,-0.0341287zm-3.63976 -2.61969c0.0482254,0.0270519 0.099447,0.0779596 0.153579,0.152695 0.063549,0.0876617 0.161826,0.252427 0.294517,0.493982 0.0841233,0.152695 0.179746,0.321598 0.28744,0.506338 0.21359,0.367483 0.426609,0.735251 0.638458,1.10273 0.0417763,0.114171 0.057956,0.205086 0.04911,0.272744 -0.00704832,0.0541323 -0.0323595,0.123274 -0.0753058,0.207112 -0.053533,0.104469 -0.178291,0.313065 -0.373675,0.625531 -0.12296,0.196525 -0.178577,0.357467 -0.167105,0.483081 0.00973068,0.104155 0.0656322,0.230083 0.167419,0.377784 0.122704,0.178291 0.388371,0.491043 0.796746,0.938568 0.245379,0.268607 0.54546,0.553108 0.900302,0.853503 0.354813,0.300709 0.585182,0.466045 0.690821,0.495751 0.0909148,0.0259104 0.171528,0.0311895 0.242126,0.015609 0.0597253,-0.0126413 0.13623,-0.0441448 0.230369,-0.0941393 0.112117,-0.0594399 0.309812,-0.178006 0.593143,-0.355726 0.179775,-0.112688 0.313065,-0.170644 0.399842,-0.173868 0.0673728,-0.00236846 0.153579,0.0202889 0.258905,0.0679435 0.135944,0.0614945 0.446042,0.234507 0.929437,0.519293l1.08715 0.639942c0.394249,0.231824 0.361291,0.629013 -0.098277,1.19157 -1.20569,1.40253 -3.1084,0.840291 -5.7084,-1.68675 -0.882068,-0.857356 -1.56641,-1.62996 -2.05303,-2.31724 -0.4796,-0.677581 -0.781451,-1.29161 -0.90561,-1.84209 -0.125928,-0.558415 -0.0723951,-1.06744 0.160628,-1.52729 0.143877,-0.263613 0.336008,-0.488703 0.576079,-0.675241 0.2401,-0.186823 0.469584,-0.28921 0.687882,-0.307158 0.101502,-0.00821829 0.180945,0.00353843 0.237446,0.0353272z"/>
  </g>
 </g>
</svg>