<?xml version="1.0" encoding="UTF-8"?>
<!DOCTYPE svg PUBLIC "-//W3C//DTD SVG 1.1//EN" "http://www.w3.org/Graphics/SVG/1.1/DTD/svg11.dtd">
<!-- Creator: CorelDRAW -->
<svg xmlns="http://www.w3.org/2000/svg" xml:space="preserve" width="40mm" height="40mm" style="shape-rendering:geometricPrecision; text-rendering:geometricPrecision; image-rendering:optimizeQuality; fill-rule:evenodd; clip-rule:evenodd"
viewBox="0 0 3.25019 3.25019"
 xmlns:xlink="http://www.w3.org/1999/xlink">
 <defs>
  <style type="text/css">
   <![CDATA[
    .fil0 {fill:none}
    .fil1 {fill:black}
   ]]>
  </style>
 </defs>
 <g id="Layer_x0020_1">
  <metadata id="CorelCorpID_0Corel-Layer"/>
  <g id="_441974240">
   <rect id="_441970808" class="fil0" width="3.25019" height="3.25019"/>
   <path id="_441974000" class="fil1" d="M1.85092 0.258544c0.0459576,0.0252214 0.0853418,0.0607216 0.118169,0.1065l0.0115707 0.0162428c0.0134801,0.00138133 0.0237507,0.00242139 0.0308361,0.00319331 0.00639474,0.000601285 0.0114894,0.00112131 0.0151134,0.00155196 0.00406273,0.000438775 0.00717479,0.000780045 0.0095068,0.00112944 0.00379459,0.00043065 0.00699603,0.00095068 0.00958805,0.00147071 0.00362396,0.000861299 0.0127814,0.00345332 0.0274641,0.00776795 0.078427,0.0234907 0.140709,0.078947 0.186829,0.166361 0.0461283,0.0874138 0.0704803,0.196068 0.0729911,0.325896 0.000260015,0.00949867 0.000260015,0.0188267 8.12547e-005,0.0281547l8.93801e-005 0.000780045c-0.000690665,0.0301455 -0.00319331,0.0583002 -0.00742668,0.0844724 -0.00406273,0.0248802 -0.0101975,0.0506135 -0.0183148,0.0771351 -0.00854799,0.0279841 -0.0203787,0.0600309 -0.0355002,0.0962218l0.0281629 0.0280735c0.0353214,0.0472496 0.0378322,0.113757 0.00759731,0.19961 -0.0179654,0.0510523 -0.0431869,0.0835298 -0.0754937,0.0974325 -0.00949867,0.00406273 -0.0196068,0.00682539 -0.0303974,0.0082961l-0.0213375 0.077647c-0.0171041,0.047079 -0.0431056,0.0954499 -0.0780857,0.145023 -0.0349801,0.0495816 -0.0713497,0.0896645 -0.109003,0.120241l-0.0177135 0.0143333c8.93801e-005,0.0668563 0.000349395,0.133713 0.00060941,0.20065 8.93801e-005,0.0179654 0.00242139,0.0341188 0.00708541,0.0483709 0.004404,0.013732 0.0112294,0.0270416 0.0203868,0.0399042 0.00966931,0.0135614 0.0229707,0.0279922 0.0399042,0.0433656 0.0226294,0.0204681 0.0469814,0.0377428 0.0729829,0.0519136 0.0235801,0.0128626 0.053555,0.0259934 0.0898352,0.0392948 0.0400748,0.0146827 0.0977737,0.0331682 0.173007,0.0554563 0.0855937,0.0253921 0.154002,0.0475015 0.205314,0.0661657 0.0474202,0.017356 0.0882751,0.0347201 0.122565,0.0520842 0.0371415,0.0188267 0.0731617,0.0412855 0.108142,0.0671976 0.143731,0.106761 0.220346,0.265605 0.229845,0.476705l0.00173072 0.0388722 -2.84391 0c0.00449338,-0.12835 0.0172504,-0.241424 0.0878444,-0.359414 0.0364508,-0.0608922 0.0860243,-0.114098 0.148737,-0.159535 0.206192,-0.149452 0.428911,-0.15839 0.651874,-0.25722 0.0398229,-0.0177054 0.072471,-0.0365402 0.0980419,-0.0564964 0.0268628,-0.0208987 0.0488016,-0.0455189 0.0657269,-0.073763 0.00708541,-0.01166 0.01166,-0.0214187 0.0139108,-0.0292761 0.00190136,-0.00648412 0.00319331,-0.0146015 0.00379459,-0.0242708 0.000780045,-0.0117494 0.00121069,-0.0329975 0.00121069,-0.063663l8.93801e-005 -0.156342 -0.0568376 -0.0498335c-0.0380922,-0.0389616 -0.071951,-0.0835298 -0.101487,-0.133802 -0.0294548,-0.0501829 -0.0495816,-0.0974243 -0.060291,-0.14157l-0.00786545 -0.0321281c-0.0114813,-0.00155196 -0.0215,-0.00423337 -0.0299667,-0.00811734l-0.00242139 -0.00104006c-0.0237507,-0.0114894 -0.0437881,-0.0329081 -0.0601203,-0.0641749 -0.0163241,-0.0313562 -0.0268628,-0.069099 -0.0317787,-0.113066 -0.00708541,-0.063143 0.0110506,-0.112026 0.0544163,-0.146665 -0.00587471,-0.0150321 -0.0103681,-0.0265215 -0.0134801,-0.0344601 -0.00276266,-0.00725604 -0.00500529,-0.0129601 -0.00664663,-0.0171041 -0.00173072,-0.00458276 -0.00311205,-0.00820672 -0.00415211,-0.0109694 -0.00163322,-0.00449338 -0.00302267,-0.00863737 -0.00414399,-0.0123507 -0.00164134,-0.00535468 -0.00569595,-0.0202974 -0.0121801,-0.0449176 -0.0292761,-0.110644 -0.0272934,-0.233217 0.00579346,-0.367531 0.0315187,-0.127749 0.0893964,-0.231226 0.173698,-0.310344 0.0843017,-0.0791177 0.192184,-0.13121 0.323564,-0.156253 0.169904,-0.0323881 0.30672,-0.0201268 0.41045,0.0367921z"/>
  </g>
 </g>
</svg>
