<?xml version="1.0" encoding="UTF-8"?>
<!DOCTYPE svg PUBLIC "-//W3C//DTD SVG 1.1//EN" "http://www.w3.org/Graphics/SVG/1.1/DTD/svg11.dtd">
<!-- Creator: CorelDRAW -->
<svg xmlns="http://www.w3.org/2000/svg" xml:space="preserve" width="35mm" height="35mm" style="shape-rendering:geometricPrecision; text-rendering:geometricPrecision; image-rendering:optimizeQuality; fill-rule:evenodd; clip-rule:evenodd"
viewBox="0 0 3.44695 3.44695"
 xmlns:xlink="http://www.w3.org/1999/xlink">
 <defs>
  <style type="text/css">
   <![CDATA[
    .fil0 {fill:none}
    .fil1 {fill:black}
    .fil2 {fill:white}
   ]]>
  </style>
 </defs>
 <g id="Layer_x0020_1">
  <metadata id="CorelCorpID_0Corel-Layer"/>
  <g id="_441973448">
   <rect id="_282810352" class="fil0" width="3.44695" height="3.44695"/>
   <g>
    <path id="_493158536" class="fil1" d="M1.26998 0.246211l0.907002 0c0.827771,0 1.02377,0.195994 1.02377,1.02377l0 0.907002c0,0.827771 -0.195994,1.02377 -1.02377,1.02377l-0.907002 0c-0.827771,0 -1.02377,-0.195994 -1.02377,-1.02377l0 -0.907002c0,-0.827771 0.195994,-1.02377 1.02377,-1.02377z"/>
    <path id="_493158704" class="fil2" d="M2.66488 1.26372c0.0145954,-0.045874 0,-0.0792307 -0.0646353,-0.0792307l-0.214765 0c-0.0542058,0 -0.0792307,0.0291908 -0.0938261,0.0604596 0,0 -0.1105,0.266893 -0.264795,0.43995 -0.0500498,0.0500399 -0.0729769,0.0667232 -0.10009,0.0667232 -0.0145954,0 -0.0333567,-0.0166833 -0.0333567,-0.0625474l0 -0.427442c0,-0.0542058 -0.0166833,-0.0792307 -0.0625573,-0.0792307l-0.337782 0c-0.0333567,0 -0.0542058,0.0250249 -0.0542058,0.0500399 0,0.0521278 0.0771428,0.0646353 0.0854845,0.210599l0 0.316923c0,0.0688111 -0.0125075,0.0813186 -0.0396104,0.0813186 -0.0729769,0 -0.250209,-0.268971 -0.356553,-0.575474 -0.0208491,-0.0604694 -0.0416983,-0.0834064 -0.095914,-0.0834064l-0.216843 0c-0.0625474,0 -0.0729769,0.0291908 -0.0729769,0.0604694 0,0.0562937 0.0729769,0.33986 0.33987,0.715174 0.177223,0.256463 0.42952,0.394076 0.656793,0.394076 0.137612,0 0.154296,-0.0312786 0.154296,-0.0834064l0 -0.193906c0,-0.0625573 0.0125075,-0.0729769 0.0562937,-0.0729769 0.0312786,0 0.0875723,0.0166734 0.214755,0.1397 0.145964,0.145954 0.170979,0.212677 0.252297,0.212677l0.214765 0c0.0625474,0 0.0917382,-0.0312786 0.0750648,-0.0917481 -0.0187711,-0.0604596 -0.0896602,-0.148042 -0.181398,-0.252288 -0.0500498,-0.0583914 -0.125105,-0.123027 -0.148042,-0.154296 -0.0312786,-0.0417081 -0.022937,-0.0583816 0,-0.095914 -0.00208787,0 0.260629,-0.371138 0.287732,-0.496243z"/>
   </g>
  </g>
 </g>
</svg>
