<svg width="100" height="86" viewBox="0 0 100 86" fill="none" xmlns="http://www.w3.org/2000/svg">
<path d="M47.0913 81.6739H45.4981L45.4956 81.5543L45.4881 81.4365L45.4756 81.3201L45.4584 81.2054L45.4366 81.0927L45.4102 80.9813L45.3794 80.8723L45.3442 80.765L45.3047 80.6596L45.2611 80.5565L45.2133 80.4553L45.1617 80.3567L45.1062 80.2607L45.0468 80.1667L44.9838 80.0755L44.9173 79.9872L44.8472 79.9017L44.7739 79.8192L44.6972 79.7397L44.6174 79.6634L44.5347 79.5904L44.449 79.5208L44.3606 79.4549L44.2695 79.3926L44.1759 79.3341L44.0797 79.2794L43.9812 79.2285L43.8807 79.1818L43.7777 79.1393L43.6728 79.101L43.5662 79.0671L43.4572 79.0375L43.8376 77.473L44.0113 77.52L44.1824 77.5744L44.35 77.6357L44.5144 77.7037L44.6754 77.7784L44.8324 77.8593L44.9857 77.9465L45.135 78.0399L45.28 78.1391L45.4208 78.2442L45.5569 78.3547L45.6884 78.4705L45.8151 78.5917L45.9368 78.7179L46.0535 78.8492L46.1648 78.9852L46.2707 79.1258L46.3709 79.2709L46.4654 79.42L46.5541 79.5737L46.6365 79.7313L46.7126 79.8922L46.7824 80.0574L46.8454 80.2257L46.9018 80.3972L46.9511 80.5722L46.9933 80.7497L47.0282 80.9301L47.0556 81.113L47.0754 81.2979L47.0873 81.4852L47.0913 81.6739ZM42.8135 86V84.3889L42.9525 84.3853L43.0889 84.3749L43.2233 84.3575L43.3556 84.3336L43.4852 84.3035L43.612 84.2669L43.7367 84.2242L43.8583 84.1757L43.9772 84.1215L44.0926 84.0616L44.2049 83.9963L44.314 83.9256L44.4193 83.8499L44.5208 83.7691L44.6185 83.6836L44.7118 83.5937L44.8007 83.4993L44.8853 83.4005L44.9652 83.2978L45.04 83.1913L45.11 83.081L45.1745 82.9675L45.2337 82.8507L45.2874 82.7306L45.3353 82.6075L45.3776 82.4814L45.4137 82.3532L45.4435 82.2221L45.4671 82.0884L45.4843 81.9525L45.4946 81.8145L45.4981 81.6739H47.0913L47.0858 81.8957L47.0693 82.1152L47.0421 82.3317L47.0045 82.5446L46.9566 82.7544L46.8988 82.9601L46.8316 83.1613L46.7549 83.3579L46.6692 83.5496L46.5746 83.7365L46.4715 83.9178L46.3603 84.0931L46.2411 84.2627L46.1142 84.426L45.98 84.5827L45.8384 84.7329L45.6898 84.8761L45.5349 85.0118L45.3734 85.1402L45.2057 85.2608L45.0323 85.3732L44.853 85.4775L44.6683 85.5731L44.4787 85.6598L44.2842 85.7373L44.0853 85.8054L43.8819 85.8638L43.6745 85.9122L43.464 85.9502L43.2498 85.9778L43.0328 85.9945L42.8135 86V86ZM38.5356 81.6739H40.1288L40.1323 81.8145L40.1427 81.9525L40.1599 82.0884L40.1835 82.2221L40.2133 82.3532L40.2495 82.4816L40.2915 82.6077L40.3394 82.7304L40.3932 82.8506L40.4524 82.9675L40.517 83.081L40.5869 83.1913L40.6619 83.2979L40.7416 83.4005L40.8261 83.4992L40.9151 83.5937L41.0084 83.6836L41.1062 83.7691L41.2078 83.85L41.3129 83.9256L41.422 83.9963L41.5343 84.0616L41.6498 84.1215L41.7686 84.1757L41.8904 84.2243L42.0149 84.2669L42.1418 84.3035L42.2713 84.3336L42.4037 84.3575L42.538 84.3749L42.6745 84.3853L42.8135 84.3889V86L42.5942 85.9945L42.3771 85.9778L42.163 85.9502L41.9524 85.9122L41.7451 85.8638L41.5416 85.8054L41.3426 85.7372L41.1483 85.6598L40.9587 85.5731L40.7739 85.4775L40.5947 85.3732L40.4212 85.2608L40.2535 85.1401L40.0921 85.0118L39.9371 84.8761L39.7886 84.7329L39.6472 84.5829L39.5127 84.426L39.3858 84.2626L39.2666 84.0931L39.1555 83.9178L39.0524 83.7365L38.9579 83.5498L38.8721 83.3581L38.7953 83.1611L38.7281 82.9599L38.6703 82.7544L38.6225 82.5446L38.5849 82.3317L38.5577 82.1152L38.5412 81.8957L38.5356 81.6739V81.6739ZM41.9796 77.4497V79.0608L42.1698 79.0375L42.0608 79.0671L41.9541 79.101L41.8493 79.1393L41.7463 79.1818L41.6458 79.2285L41.5473 79.2794L41.451 79.3341L41.3575 79.3926L41.2664 79.4549L41.178 79.5208L41.0923 79.5904L41.0095 79.6634L40.9297 79.7397L40.8531 79.8192L40.7798 79.9017L40.7097 79.9872L40.6432 80.0755L40.5802 80.1667L40.5208 80.2607L40.4653 80.3567L40.4137 80.4554L40.3659 80.5565L40.3223 80.6596L40.2828 80.765L40.2476 80.8723L40.2168 80.9813L40.1903 81.0927L40.1685 81.2054L40.1513 81.3201L40.1389 81.4365L40.1313 81.5543L40.1288 81.6739H38.5356L38.5397 81.4852L38.5516 81.2979L38.5714 81.113L38.5987 80.9301L38.6337 80.7497L38.6758 80.5722L38.7252 80.3972L38.7816 80.2257L38.8446 80.0574L38.9144 79.8922L38.9904 79.7313L39.0729 79.5737L39.1616 79.42L39.256 79.2709L39.3563 79.1258L39.4622 78.9852L39.5735 78.8492L39.6901 78.718L39.8119 78.5917L39.9386 78.4705L40.0701 78.3547L40.2062 78.2442L40.3469 78.1391L40.492 78.0399L40.6413 77.9466L40.7946 77.8593L40.9515 77.7784L41.1126 77.7037L41.277 77.6357L41.4446 77.5744L41.6157 77.5201L41.7894 77.473L41.9796 77.4497ZM42.1698 79.0375L41.7894 77.473L41.8295 77.4641L41.8694 77.4574L41.9094 77.4527L41.9491 77.4501L41.9887 77.4496L42.028 77.4509L42.0669 77.4543L42.1054 77.4596L42.1435 77.4667L42.1811 77.4757L42.2181 77.4865L42.2544 77.499L42.29 77.5134L42.3249 77.5293L42.3589 77.5469L42.3921 77.5661L42.4243 77.587L42.4556 77.6093L42.4857 77.6331L42.5147 77.6584L42.5425 77.6852L42.5691 77.7133L42.5944 77.7428L42.6184 77.7736L42.6408 77.8056L42.6619 77.839L42.6813 77.8735L42.6992 77.9092L42.7153 77.946L42.7297 77.9839L42.7424 78.0229L42.7531 78.0629L42.7619 78.1034L42.7686 78.1439L42.7732 78.1843L42.7758 78.2244L42.7763 78.2644L42.7749 78.3042L42.7716 78.3435L42.7663 78.3825L42.7593 78.421L42.7504 78.459L42.7397 78.4964L42.7274 78.5331L42.7132 78.5692L42.6974 78.6044L42.68 78.6389L42.661 78.6724L42.6404 78.705L42.6184 78.7366L42.5948 78.7671L42.5697 78.7964L42.5433 78.8245L42.5155 78.8515L42.4864 78.877L42.4559 78.9012L42.4242 78.9239L42.3912 78.9452L42.3571 78.9649L42.3218 78.9829L42.2853 78.9992L42.2479 79.0138L42.2093 79.0266L42.1698 79.0375ZM43.6474 79.0608H41.9796V77.4497H43.6474L43.8375 77.473L43.6474 79.0608ZM43.6474 79.0608V77.4497L43.6883 77.4507L43.7288 77.4538L43.7687 77.459L43.8079 77.466L43.8465 77.4751L43.8843 77.4859L43.9212 77.4985L43.9575 77.513L43.9928 77.5291L44.0271 77.5469L44.0604 77.5663L44.0927 77.5872L44.1239 77.6097L44.1541 77.6336L44.1829 77.659L44.2106 77.6856L44.237 77.7136L44.262 77.7428L44.2857 77.7733L44.3079 77.8049L44.3286 77.8375L44.3478 77.8713L44.3654 77.906L44.3814 77.9417L44.3956 77.9783L44.4082 78.0157L44.4188 78.0539L44.4278 78.0929L44.4348 78.1325L44.4399 78.1729L44.443 78.2138L44.444 78.2552L44.443 78.2967L44.4399 78.3376L44.4348 78.3779L44.4278 78.4176L44.4188 78.4566L44.4082 78.4948L44.3956 78.5322L44.3814 78.5688L44.3654 78.6045L44.3478 78.6392L44.3286 78.673L44.3079 78.7056L44.2857 78.7372L44.262 78.7677L44.237 78.7969L44.2106 78.8249L44.1829 78.8515L44.1541 78.8769L44.1239 78.9008L44.0927 78.9233L44.0604 78.9442L44.0271 78.9636L43.9928 78.9814L43.9575 78.9975L43.9212 79.012L43.8843 79.0246L43.8465 79.0354L43.8079 79.0445L43.7687 79.0515L43.7288 79.0567L43.6883 79.0598L43.6474 79.0608V79.0608Z" fill="#333333"/>
<path d="M76.0089 81.6739H74.4157L74.4132 81.5543L74.4056 81.4365L74.3932 81.3201L74.376 81.2054L74.3542 81.0927L74.3278 80.9813L74.297 80.8723L74.2618 80.765L74.2223 80.6596L74.1786 80.5565L74.1309 80.4555L74.0792 80.3567L74.0237 80.2605L73.9644 80.1667L73.9014 80.0757L73.8348 79.9872L73.7647 79.9017L73.6914 79.8192L73.6147 79.7396L73.535 79.6634L73.4522 79.5904L73.3665 79.5208L73.2782 79.4549L73.1871 79.3927L73.0934 79.3341L72.9973 79.2794L72.8987 79.2286L72.7981 79.1818L72.6952 79.1393L72.5905 79.101L72.4837 79.0671L72.3748 79.0375L72.7551 77.473L72.9288 77.52L73.0998 77.5744L73.2676 77.6357L73.432 77.7037L73.5928 77.7783L73.75 77.8593L73.9032 77.9465L74.0525 78.0398L74.1976 78.1391L74.3384 78.2442L74.4745 78.3547L74.606 78.4705L74.7327 78.5919L74.8543 78.7179L74.9711 78.8492L75.0823 78.9852L75.1882 79.1256L75.2885 79.2709L75.383 79.4202L75.4716 79.5737L75.554 79.7311L75.6301 79.8922L75.7 80.0574L75.763 80.2257L75.8194 80.3972L75.8687 80.5722L75.9108 80.7497L75.9458 80.9301L75.9732 81.113L75.993 81.2979L76.0049 81.4852L76.0089 81.6739ZM71.731 86V84.3889L71.87 84.3853L72.0064 84.3749L72.1408 84.3575L72.2731 84.3336L72.4026 84.3035L72.5296 84.2669L72.6541 84.2242L72.776 84.1757L72.8946 84.1215L73.0101 84.0617L73.1225 83.9963L73.2316 83.9256L73.3368 83.8499L73.4384 83.7691L73.5361 83.6836L73.6294 83.5937L73.7183 83.4993L73.8029 83.4005L73.8827 83.2978L73.9576 83.1913L74.0275 83.081L74.0921 82.9675L74.1513 82.8507L74.2049 82.7306L74.2529 82.6075L74.2951 82.4814L74.3313 82.3532L74.3611 82.2221L74.3847 82.0884L74.4019 81.9525L74.4122 81.8145L74.4157 81.6739H76.0089L76.0034 81.8957L75.9869 82.1152L75.9597 82.3317L75.922 82.5446L75.8742 82.7544L75.8164 82.9601L75.7491 83.1613L75.6724 83.3579L75.5867 83.5496L75.4922 83.7365L75.389 83.9178L75.2779 84.0931L75.1586 84.2627L75.0317 84.426L74.8975 84.5827L74.7559 84.7329L74.6074 84.8761L74.4524 85.0118L74.291 85.1402L74.1231 85.2608L73.9498 85.3732L73.7706 85.4774L73.5859 85.5731L73.3962 85.6598L73.2017 85.7373L73.0029 85.8054L72.7993 85.8638L72.5921 85.9122L72.3814 85.9502L72.1673 85.9778L71.9503 85.9945L71.731 86V86ZM67.4531 81.6739H69.0463L69.0498 81.8145L69.0602 81.9525L69.0774 82.0884L69.101 82.2221L69.1308 82.3532L69.1669 82.4814L69.2091 82.6075L69.2571 82.7306L69.3108 82.8507L69.3699 82.9675L69.4345 83.081L69.5044 83.1913L69.5793 83.2978L69.6591 83.4005L69.7438 83.4993L69.8326 83.5937L69.9259 83.6836L70.0236 83.7691L70.1252 83.8499L70.2305 83.9256L70.3396 83.9963L70.4518 84.0616L70.5673 84.1215L70.6861 84.1757L70.8078 84.2242L70.9325 84.2669L71.0593 84.3035L71.1889 84.3336L71.3212 84.3575L71.4555 84.3749L71.592 84.3853L71.731 84.3889V86L71.5117 85.9945L71.2946 85.9778L71.0805 85.9502L70.87 85.9122L70.6626 85.8638L70.4591 85.8054L70.2602 85.7373L70.0658 85.6598L69.8762 85.5731L69.6914 85.4775L69.5121 85.3732L69.3388 85.2608L69.1711 85.1402L69.0096 85.0118L68.8546 84.8761L68.7061 84.7329L68.5645 84.5827L68.4303 84.426L68.3034 84.2627L68.1841 84.0931L68.073 83.9178L67.9698 83.7365L67.8753 83.5496L67.7896 83.3579L67.7129 83.1613L67.6456 82.9601L67.5878 82.7544L67.54 82.5446L67.5024 82.3317L67.4752 82.1152L67.4586 81.8957L67.4531 81.6739V81.6739ZM70.8971 77.4497V79.0608L71.0873 79.0375L70.9783 79.0671L70.8716 79.101L70.7667 79.1393L70.6638 79.1818L70.5633 79.2285L70.4647 79.2794L70.3685 79.3341L70.275 79.3926L70.1839 79.4549L70.0955 79.5208L70.0098 79.5904L69.927 79.6634L69.8472 79.7397L69.7705 79.8192L69.6973 79.9017L69.6272 79.9872L69.5607 80.0755L69.4977 80.1667L69.4383 80.2607L69.3828 80.3567L69.3312 80.4554L69.2834 80.5565L69.2397 80.6596L69.2003 80.765L69.165 80.8723L69.1343 80.9813L69.1078 81.0927L69.086 81.2054L69.0688 81.3201L69.0564 81.4365L69.0488 81.5543L69.0463 81.6739H67.4531L67.4571 81.4852L67.4691 81.2979L67.4888 81.113L67.5162 80.9301L67.5512 80.7497L67.5933 80.5722L67.6426 80.3972L67.699 80.2257L67.762 80.0574L67.8319 79.8922L67.9079 79.7313L67.9904 79.5737L68.0791 79.42L68.1735 79.2709L68.2737 79.1258L68.3796 78.9852L68.491 78.8492L68.6076 78.718L68.7294 78.5917L68.856 78.4705L68.9876 78.3547L69.1237 78.2442L69.2644 78.1391L69.4095 78.0399L69.5587 77.9466L69.712 77.8593L69.869 77.7784L70.0301 77.7037L70.1944 77.6357L70.3621 77.5744L70.5332 77.5201L70.7069 77.473L70.8971 77.4497ZM71.0873 79.0375L70.7069 77.473L70.747 77.4641L70.7869 77.4574L70.8269 77.4527L70.8666 77.4501L70.9062 77.4496L70.9455 77.4509L70.9844 77.4543L71.0229 77.4596L71.061 77.4667L71.0986 77.4757L71.1356 77.4865L71.1719 77.499L71.2075 77.5134L71.2424 77.5293L71.2764 77.5469L71.3095 77.5661L71.3418 77.587L71.3731 77.6093L71.4032 77.6331L71.4322 77.6584L71.46 77.6852L71.4866 77.7133L71.5119 77.7428L71.5359 77.7736L71.5583 77.8056L71.5793 77.839L71.5988 77.8735L71.6166 77.9092L71.6327 77.946L71.6472 77.9839L71.6599 78.0229L71.6706 78.0629L71.6794 78.1034L71.6861 78.1439L71.6907 78.1843L71.6932 78.2244L71.6937 78.2644L71.6924 78.3042L71.6891 78.3435L71.6838 78.3825L71.6768 78.421L71.6679 78.459L71.6572 78.4964L71.6448 78.5331L71.6307 78.5692L71.6149 78.6044L71.5975 78.6389L71.5785 78.6724L71.5579 78.705L71.5359 78.7366L71.5122 78.7671L71.4872 78.7964L71.4608 78.8245L71.433 78.8515L71.4039 78.877L71.3734 78.9012L71.3417 78.9239L71.3087 78.9452L71.2746 78.9649L71.2393 78.9829L71.2028 78.9992L71.1654 79.0138L71.1268 79.0266L71.0873 79.0375ZM72.5649 79.0608H70.8971V77.4497H72.5649L72.7551 77.473L72.5649 79.0608ZM72.5649 79.0608V77.4497L72.6059 77.4507L72.6464 77.4538L72.6863 77.459L72.7255 77.466L72.764 77.4751L72.8018 77.4859L72.8388 77.4985L72.875 77.513L72.9103 77.5291L72.9446 77.5469L72.978 77.5663L73.0103 77.5872L73.0415 77.6097L73.0716 77.6336L73.1005 77.659L73.1282 77.6856L73.1546 77.7136L73.1796 77.7428L73.2033 77.7733L73.2255 77.8049L73.2462 77.8375L73.2654 77.8713L73.283 77.906L73.2989 77.9417L73.3132 77.9783L73.3257 78.0157L73.3364 78.0539L73.3453 78.0929L73.3523 78.1325L73.3574 78.1729L73.3605 78.2138L73.3615 78.2552L73.3605 78.2967L73.3574 78.3376L73.3523 78.3779L73.3453 78.4176L73.3364 78.4566L73.3257 78.4948L73.3132 78.5322L73.2989 78.5688L73.283 78.6045L73.2654 78.6392L73.2462 78.673L73.2255 78.7056L73.2033 78.7372L73.1796 78.7677L73.1546 78.7969L73.1282 78.8249L73.1005 78.8515L73.0716 78.8769L73.0415 78.9008L73.0103 78.9233L72.978 78.9442L72.9446 78.9636L72.9103 78.9814L72.875 78.9975L72.8388 79.012L72.8018 79.0246L72.764 79.0354L72.7255 79.0445L72.6863 79.0515L72.6464 79.0567L72.6059 79.0598L72.5649 79.0608V79.0608Z" fill="#333333"/>
<path fill-rule="evenodd" clip-rule="evenodd" d="M31.6592 47.9542H82.4536V63.5374H31.6592V47.9542Z" fill="#88A6E3"/>
<path d="M82.4536 48.7598H31.6594V47.1487H82.4536L83.2507 47.9543L82.4536 48.7598V48.7598ZM82.4536 48.7598V47.1487L82.4946 47.1497L82.5351 47.1528L82.575 47.158L82.6143 47.1651L82.6528 47.1741L82.6906 47.1849L82.7277 47.1975L82.7638 47.212L82.7991 47.2281L82.8335 47.2459L82.8669 47.2653L82.8992 47.2862L82.9305 47.3087L82.9606 47.3326L82.9895 47.358L83.0172 47.3846L83.0436 47.4126L83.0687 47.4418L83.0923 47.4723L83.1145 47.5039L83.1352 47.5365L83.1544 47.5703L83.172 47.605L83.188 47.6407L83.2022 47.6773L83.2148 47.7147L83.2255 47.7529L83.2345 47.7919L83.2415 47.8316L83.2466 47.8719L83.2496 47.9128L83.2507 47.9543L83.2496 47.9957L83.2466 48.0366L83.2415 48.077L83.2345 48.1166L83.2255 48.1556L83.2148 48.1938L83.2022 48.2312L83.188 48.2678L83.172 48.3035L83.1544 48.3382L83.1352 48.372L83.1145 48.4046L83.0923 48.4362L83.0687 48.4667L83.0436 48.4959L83.0172 48.5239L82.9895 48.5505L82.9606 48.5759L82.9305 48.5998L82.8992 48.6223L82.8669 48.6432L82.8335 48.6626L82.7991 48.6804L82.7638 48.6965L82.7277 48.711L82.6906 48.7236L82.6528 48.7344L82.6143 48.7435L82.575 48.7505L82.5351 48.7557L82.4946 48.7588L82.4536 48.7598V48.7598ZM81.6566 63.5375V47.9543H83.2506V63.5375L82.4536 64.3431L81.6566 63.5375ZM81.6566 63.5375H83.2506L83.2496 63.579L83.2466 63.6199L83.2415 63.6602L83.2345 63.6999L83.2255 63.7389L83.2148 63.7771L83.2022 63.8145L83.188 63.8511L83.172 63.8868L83.1544 63.9215L83.1352 63.9553L83.1145 63.9879L83.0923 64.0195L83.0686 64.0499L83.0436 64.0791L83.0172 64.1072L82.9895 64.1338L82.9606 64.1591L82.9305 64.1831L82.8992 64.2056L82.8669 64.2265L82.8335 64.2459L82.7991 64.2637L82.7638 64.2798L82.7277 64.2943L82.6906 64.3069L82.6528 64.3177L82.6143 64.3267L82.575 64.3338L82.5351 64.339L82.4946 64.3421L82.4536 64.3431L82.4127 64.3421L82.3722 64.339L82.3323 64.3338L82.293 64.3267L82.2545 64.3177L82.2166 64.3069L82.1796 64.2943L82.1435 64.2798L82.1082 64.2637L82.0738 64.2459L82.0404 64.2265L82.008 64.2056L81.9768 64.1831L81.9467 64.1591L81.9177 64.1338L81.8901 64.1072L81.8637 64.0791L81.8386 64.0499L81.815 64.0195L81.7927 63.9879L81.772 63.9553L81.7529 63.9215L81.7352 63.8868L81.7193 63.8511L81.705 63.8145L81.6924 63.7771L81.6818 63.7389L81.6728 63.6999L81.6658 63.6602L81.6607 63.6199L81.6576 63.579L81.6566 63.5375ZM31.6593 62.732H82.4536V64.3431H31.6593L30.8623 63.5375L31.6593 62.732V62.732ZM31.6593 62.732V64.3431L31.6183 64.3421L31.5779 64.339L31.538 64.3338L31.4987 64.3267L31.4601 64.3177L31.4223 64.3069L31.3853 64.2943L31.3491 64.2798L31.3138 64.2637L31.2795 64.2459L31.2461 64.2265L31.2137 64.2056L31.1825 64.1831L31.1524 64.1591L31.1234 64.1338L31.0958 64.1072L31.0693 64.0791L31.0443 64.0499L31.0207 64.0195L30.9984 63.9879L30.9777 63.9553L30.9585 63.9215L30.9409 63.8868L30.925 63.8511L30.9107 63.8145L30.8981 63.7771L30.8874 63.7389L30.8785 63.6999L30.8715 63.6602L30.8664 63.6199L30.8633 63.579L30.8623 63.5375L30.8633 63.4961L30.8664 63.4552L30.8715 63.4148L30.8785 63.3752L30.8874 63.3362L30.8981 63.298L30.9107 63.2606L30.925 63.224L30.9409 63.1883L30.9585 63.1536L30.9777 63.1198L30.9984 63.0872L31.0207 63.0556L31.0443 63.0251L31.0693 62.9959L31.0958 62.9679L31.1234 62.9412L31.1524 62.9159L31.1825 62.892L31.2137 62.8695L31.2461 62.8486L31.2795 62.8292L31.3138 62.8114L31.3491 62.7953L31.3853 62.7808L31.4223 62.7682L31.4601 62.7574L31.4987 62.7483L31.538 62.7412L31.5779 62.7361L31.6183 62.733L31.6593 62.732V62.732ZM32.4563 47.9543V63.5375H30.8623V47.9543L31.6593 47.1487L32.4563 47.9543H32.4563ZM32.4563 47.9543H30.8623L30.8633 47.9128L30.8664 47.8719L30.8715 47.8316L30.8785 47.7919L30.8874 47.7529L30.8981 47.7147L30.9107 47.6773L30.925 47.6407L30.9409 47.605L30.9585 47.5703L30.9777 47.5365L30.9984 47.5039L31.0207 47.4723L31.0443 47.4418L31.0693 47.4127L31.0958 47.3846L31.1234 47.358L31.1524 47.3327L31.1825 47.3087L31.2137 47.2862L31.2461 47.2653L31.2795 47.2459L31.3138 47.2281L31.3491 47.212L31.3853 47.1975L31.4223 47.1849L31.4601 47.1741L31.4987 47.1651L31.538 47.158L31.5779 47.1528L31.6183 47.1497L31.6593 47.1487L31.7003 47.1497L31.7408 47.1528L31.7806 47.158L31.8199 47.1651L31.8585 47.1741L31.8963 47.1849L31.9334 47.1975L31.9695 47.212L32.0048 47.2281L32.0392 47.2459L32.0725 47.2653L32.1049 47.2862L32.1361 47.3087L32.1663 47.3327L32.1952 47.358L32.2228 47.3846L32.2493 47.4127L32.2743 47.4418L32.2979 47.4723L32.3202 47.5039L32.3409 47.5365L32.3601 47.5703L32.3777 47.605L32.3936 47.6407L32.4079 47.6773L32.4205 47.7147L32.4312 47.7529L32.4401 47.7919L32.4471 47.8316L32.4522 47.8719L32.4553 47.9128L32.4563 47.9543H32.4563Z" fill="#333333"/>
<path fill-rule="evenodd" clip-rule="evenodd" d="M31.6592 63.5375H82.4536V78.2552H31.6592V63.5375Z" fill="#88A6E3"/>
<path d="M82.4536 64.3431H31.6593V62.7318H82.4536L83.2535 63.5375L82.4536 64.3431ZM82.4536 64.3431V62.7318L82.4947 62.7328L82.5354 62.7359L82.5754 62.7411L82.6148 62.7482L82.6535 62.7572L82.6915 62.768L82.7286 62.7807L82.7649 62.7951L82.8004 62.8113L82.8349 62.829L82.8684 62.8484L82.9009 62.8695L82.9322 62.8919L82.9625 62.9158L82.9914 62.9411L83.0192 62.9678L83.0457 62.9958L83.0709 63.025L83.0946 63.0554L83.1169 63.087L83.1377 63.1197L83.157 63.1535L83.1746 63.1882L83.1907 63.2239L83.2049 63.2605L83.2176 63.2979L83.2283 63.3361L83.2372 63.3751L83.2443 63.4148L83.2494 63.4551L83.2525 63.496L83.2535 63.5375L83.2525 63.5789L83.2494 63.6198L83.2443 63.6602L83.2372 63.6998L83.2283 63.7388L83.2176 63.7771L83.2049 63.8144L83.1907 63.8511L83.1746 63.8868L83.157 63.9214L83.1377 63.9552L83.1169 63.9879L83.0946 64.0195L83.0709 64.05L83.0457 64.0792L83.0192 64.1072L82.9914 64.1338L82.9625 64.1592L82.9322 64.183L82.9009 64.2055L82.8684 64.2265L82.8349 64.2459L82.8004 64.2636L82.7649 64.2798L82.7286 64.2943L82.6915 64.3069L82.6535 64.3177L82.6148 64.3268L82.5754 64.3339L82.5354 64.339L82.4947 64.3421L82.4536 64.3431V64.3431ZM81.6537 78.2551V63.5375H83.2535V78.2551L82.4536 79.0608L81.6537 78.2551ZM81.6537 78.2551H83.2535L83.2525 78.2965L83.2494 78.3375L83.2443 78.3778L83.2373 78.4175L83.2283 78.4565L83.2176 78.4947L83.2049 78.5321L83.1907 78.5687L83.1747 78.6044L83.157 78.6391L83.1377 78.6728L83.1169 78.7056L83.0946 78.7371L83.0709 78.7676L83.0457 78.7968L83.0192 78.8248L82.9914 78.8515L82.9625 78.8768L82.9322 78.9007L82.9009 78.9231L82.8684 78.9441L82.8349 78.9636L82.8004 78.9813L82.7649 78.9975L82.7286 79.0119L82.6915 79.0246L82.6535 79.0354L82.6148 79.0444L82.5754 79.0515L82.5354 79.0566L82.4947 79.0598L82.4536 79.0608L82.4124 79.0598L82.3718 79.0566L82.3318 79.0515L82.2924 79.0444L82.2537 79.0354L82.2157 79.0246L82.1786 79.0119L82.1423 78.9975L82.1068 78.9813L82.0723 78.9636L82.0388 78.9441L82.0063 78.9231L81.975 78.9007L81.9447 78.8768L81.9158 78.8515L81.888 78.8248L81.8615 78.7968L81.8363 78.7676L81.8126 78.7371L81.7903 78.7056L81.7695 78.6728L81.7502 78.6391L81.7325 78.6044L81.7165 78.5687L81.7022 78.5321L81.6896 78.4947L81.6789 78.4565L81.6699 78.4175L81.6628 78.3778L81.6578 78.3375L81.6547 78.2965L81.6537 78.2551ZM31.6593 77.4494H82.4536V79.0608H31.6593L30.8594 78.2551L31.6593 77.4494ZM31.6593 77.4494V79.0608L31.6182 79.0598L31.5775 79.0566L31.5375 79.0515L31.4981 79.0444L31.4594 79.0354L31.4214 79.0246L31.3843 79.0119L31.348 78.9975L31.3125 78.9813L31.278 78.9636L31.2445 78.9441L31.212 78.9231L31.1807 78.9007L31.1504 78.8768L31.1215 78.8515L31.0937 78.8248L31.0672 78.7968L31.042 78.7676L31.0183 78.7371L30.996 78.7056L30.9752 78.6728L30.9559 78.6391L30.9382 78.6044L30.9222 78.5687L30.9079 78.5321L30.8953 78.4947L30.8846 78.4565L30.8757 78.4175L30.8686 78.3778L30.8635 78.3375L30.8604 78.2965L30.8594 78.2551L30.8604 78.2137L30.8635 78.1727L30.8686 78.1324L30.8757 78.0927L30.8846 78.0538L30.8953 78.0155L30.9079 77.9781L30.9222 77.9415L30.9382 77.9058L30.9559 77.8711L30.9752 77.8374L30.996 77.8046L31.0183 77.7731L31.042 77.7426L31.0672 77.7134L31.0937 77.6855L31.1215 77.6587L31.1504 77.6334L31.1807 77.6095L31.212 77.5871L31.2445 77.5661L31.278 77.5467L31.3125 77.5289L31.348 77.5127L31.3843 77.4983L31.4214 77.4857L31.4594 77.4748L31.4981 77.4658L31.5375 77.4587L31.5775 77.4536L31.6182 77.4505L31.6593 77.4494ZM32.4592 63.5375V78.2551H30.8594V63.5375L31.6593 62.7318L32.4592 63.5375H32.4592ZM32.4592 63.5375H30.8594L30.8604 63.496L30.8635 63.4551L30.8686 63.4148L30.8757 63.3751L30.8846 63.3361L30.8953 63.2979L30.9079 63.2605L30.9222 63.2239L30.9382 63.1882L30.9559 63.1535L30.9752 63.1197L30.996 63.087L31.0183 63.0554L31.042 63.025L31.0672 62.9958L31.0937 62.9678L31.1215 62.9411L31.1504 62.9158L31.1807 62.8919L31.212 62.8695L31.2445 62.8484L31.278 62.829L31.3125 62.8113L31.348 62.7951L31.3843 62.7807L31.4214 62.768L31.4594 62.7572L31.4981 62.7482L31.5375 62.7411L31.5775 62.7359L31.6182 62.7328L31.6593 62.7318L31.7004 62.7328L31.7411 62.7359L31.7811 62.7411L31.8205 62.7482L31.8592 62.7572L31.8972 62.768L31.9343 62.7807L31.9706 62.7951L32.0061 62.8113L32.0406 62.829L32.0741 62.8484L32.1066 62.8695L32.1379 62.8919L32.1682 62.9158L32.1971 62.9411L32.2249 62.9678L32.2514 62.9958L32.2766 63.025L32.3003 63.0554L32.3226 63.087L32.3434 63.1197L32.3627 63.1535L32.3804 63.1882L32.3964 63.2239L32.4107 63.2605L32.4233 63.2979L32.434 63.3361L32.443 63.3751L32.45 63.4148L32.4551 63.4551L32.4582 63.496L32.4592 63.5375H32.4592Z" fill="#333333"/>
<path fill-rule="evenodd" clip-rule="evenodd" d="M36.1749 8.82596C35.8947 8.23355 35.3768 7.75903 34.705 7.55861C33.4898 7.1959 32.216 7.86266 31.7769 9.11862C32.458 6.94873 33.6806 5.66982 35.4242 5.34492L77.1674 0.808166C79.5509 0.746394 81.0108 1.77518 81.5467 3.89478L36.1749 8.82596H36.1749Z" fill="#88A6E3"/>
<path d="M34.4794 8.33129L34.9304 6.78595H34.9303L35.0133 6.81194L35.0953 6.84013L35.1761 6.87034L35.256 6.90275L35.3346 6.93718L35.4115 6.97338L35.4875 7.01152L35.5622 7.05178L35.6358 7.09397L35.7074 7.13777L35.7781 7.18342L35.8474 7.23102L35.9144 7.27963L35.9804 7.33009L36.0453 7.38258L36.1084 7.43651L36.1698 7.4917L36.2299 7.54866L36.2883 7.60697L36.3449 7.66647L36.4002 7.72773L36.4537 7.79018L36.5053 7.85364L36.5556 7.91871L36.6039 7.98478L36.6504 8.0517L36.6955 8.12039L36.7387 8.18993L36.7803 8.2609L36.8197 8.33238L36.8573 8.40453L36.8934 8.47846L35.4561 9.17348L35.4382 9.13703L35.4191 9.10032L35.3993 9.06428L35.3788 9.02943L35.3572 8.99466L35.3349 8.96074L35.3113 8.92673L35.2872 8.89373L35.2624 8.86158L35.2364 8.82968L35.2098 8.79863L35.1825 8.76842L35.1541 8.73863L35.1252 8.70968L35.0957 8.68175L35.065 8.65407L35.0338 8.62749L35.0021 8.60183L34.9693 8.57668L34.9353 8.55204L34.9014 8.52875L34.8668 8.50639L34.8309 8.48453L34.795 8.46394L34.7581 8.44411L34.7204 8.42504L34.6819 8.40689L34.643 8.38985L34.6033 8.37381L34.5628 8.35862L34.5215 8.34445L34.4795 8.33128H34.4794V8.33129ZM31.0174 8.87492L32.536 9.36235L31.0257 8.85011L31.0824 8.69905L31.1456 8.55196L31.2148 8.40951L31.2901 8.2712L31.3712 8.13753L31.4578 8.00875L31.5497 7.88495L31.6466 7.76639L31.7485 7.65288L31.8553 7.54478L31.966 7.44267L32.0812 7.34588L32.2006 7.25482L32.3237 7.16976L32.4501 7.09094L32.5799 7.01811L32.7132 6.95153L32.8491 6.89136L32.9879 6.83769L33.129 6.79068L33.2725 6.75043L33.4181 6.71701L33.5655 6.69068L33.7145 6.67136L33.8648 6.65937L34.016 6.65473L34.168 6.65743L34.3208 6.66773L34.4735 6.6857L34.6263 6.71136L34.7787 6.74477L34.9304 6.78596L34.4794 8.33129L34.403 8.31053L34.3269 8.29382L34.251 8.28116L34.1756 8.2723L34.1007 8.26724L34.0261 8.26589L33.9518 8.26817L33.8784 8.27407L33.8055 8.28344L33.7333 8.29644L33.6619 8.31281L33.5913 8.33264L33.5216 8.35585L33.4529 8.38234L33.3856 8.41213L33.3196 8.44513L33.2548 8.4815L33.1915 8.521L33.13 8.56353L33.0703 8.60901L33.0124 8.65771L32.9561 8.70969L32.9023 8.76412L32.8507 8.82159L32.8011 8.88226L32.7539 8.94564L32.7093 9.01197L32.6674 9.081L32.6282 9.15315L32.5916 9.22843L32.5582 9.30615L32.5278 9.38716L31.0175 8.87492L31.0174 8.87492ZM31.0257 8.85011L32.5278 9.38716L32.5132 9.42589L32.4967 9.46345L32.4787 9.49973L32.459 9.53476L32.4378 9.56851L32.415 9.60092L32.3909 9.63197L32.3654 9.66168L32.3386 9.68995L32.3105 9.71678L32.2813 9.7421L32.251 9.7659L32.2197 9.78818L32.1874 9.80894L32.1541 9.82801L32.12 9.84556L32.0852 9.86134L32.0495 9.87552L32.0133 9.88792L31.9764 9.89856L31.939 9.90742L31.9012 9.91442L31.8629 9.91965L31.8244 9.92295L31.7855 9.92438L31.7464 9.92379L31.7072 9.92134L31.6679 9.91678L31.6286 9.91029L31.5894 9.90168L31.5502 9.89096L31.5112 9.87813L31.4729 9.86337L31.4358 9.84674L31.3999 9.82851L31.3653 9.8086L31.3319 9.78716L31.2998 9.76412L31.2691 9.73974L31.2397 9.71391L31.2118 9.68682L31.1853 9.65847L31.1602 9.62893L31.1367 9.5983L31.1147 9.56657L31.0941 9.53391L31.0753 9.50024L31.0579 9.46581L31.0423 9.43054L31.0283 9.3945L31.016 9.35788L31.0055 9.32058L30.9967 9.28277L30.9898 9.24454L30.9846 9.20581L30.9814 9.16682L30.98 9.1275L30.9806 9.088L30.983 9.04834L30.9875 9.00859L30.9939 8.96884L31.0024 8.92918L31.013 8.88952L31.0257 8.85011L31.0257 8.85011ZM35.339 4.54391L35.5092 6.14596L35.5685 6.13718L35.4349 6.16461L35.3048 6.19642L35.178 6.23254L35.0545 6.27296L34.9339 6.31769L34.816 6.36672L34.7011 6.41997L34.5889 6.4776L34.479 6.53963L34.3716 6.60604L34.2665 6.67693L34.1636 6.75238L34.0629 6.83246L33.964 6.91752L33.8673 7.0074L33.7725 7.10217L33.6795 7.20217L33.5885 7.3074L33.4993 7.41795L33.4124 7.53356L33.3273 7.65491L33.2441 7.78192L33.1631 7.91416L33.0842 8.0523L33.0074 8.19602L32.933 8.3453L32.8607 8.50058L32.7909 8.66142L32.7234 8.82792L32.6584 9.00033L32.5959 9.17847L32.536 9.36235L31.0174 8.87492L31.0884 8.65712L31.1631 8.4442L31.2417 8.23585L31.324 8.03222L31.4104 7.8334L31.5007 7.63964L31.595 7.45036L31.6935 7.2663L31.7958 7.08715L31.9026 6.91271L32.0132 6.74385L32.1283 6.5798L32.2478 6.42098L32.3714 6.26773L32.4992 6.11996L32.6316 5.9776L32.7681 5.84097L32.9089 5.71026L33.054 5.58553L33.2033 5.46679L33.3565 5.35439L33.5138 5.24823L33.6751 5.14856L33.8399 5.05548L34.0085 4.96898L34.1808 4.88907L34.3562 4.81607L34.5349 4.74974L34.7169 4.69025L34.9017 4.63759L35.0894 4.59177L35.2798 4.55269L35.339 4.54392V4.54391ZM35.5685 6.13718L35.2798 4.5527L35.3202 4.5462L35.3606 4.5419L35.4007 4.53962L35.4406 4.53937L35.48 4.54114L35.5192 4.54494L35.5579 4.55059L35.596 4.55818L35.6336 4.56755L35.6705 4.57878L35.7068 4.59169L35.7424 4.60637L35.7771 4.62274L35.811 4.6408L35.844 4.66038L35.876 4.68156L35.907 4.70426L35.9368 4.7284L35.9655 4.75397L35.993 4.78097L36.0193 4.80933L36.0441 4.83895L36.0677 4.86992L36.0898 4.90207L36.1104 4.9354L36.1294 4.96992L36.1468 5.00561L36.1625 5.04224L36.1765 5.07996L36.1887 5.1187L36.1991 5.15836L36.2075 5.19895L36.214 5.23988L36.2182 5.28072L36.2205 5.32123L36.2207 5.36157L36.219 5.40148L36.2152 5.44106L36.2096 5.48022L36.2021 5.51878L36.1928 5.55676L36.1817 5.59414L36.169 5.63085L36.1545 5.6668L36.1383 5.70191L36.1204 5.73617L36.101 5.76959L36.0801 5.80191L36.0577 5.83322L36.0338 5.86343L36.0085 5.89246L35.9818 5.92022L35.9538 5.9468L35.9245 5.97195L35.8939 5.99575L35.8621 6.01811L35.8291 6.03896L35.795 6.0582L35.7597 6.07575L35.7234 6.0917L35.6862 6.10579L35.6478 6.1182L35.6086 6.12866L35.5685 6.13719V6.13718ZM77.2525 1.60921L35.5093 6.14596L35.3391 4.54391L77.0822 0.0071651L77.1469 0.00286127L77.2525 1.6092V1.60921ZM77.2525 1.60921L77.0822 0.0071651L77.1231 0.00378955L77.1637 0.00252372L77.2038 0.00328322L77.2436 0.00606805L77.2828 0.0108782L77.3216 0.0176293L77.3597 0.0261526L77.3972 0.0366168L77.434 0.0488532L77.47 0.0628618L77.5053 0.0784738L77.5396 0.0958578L77.5731 0.114845L77.6055 0.135352L77.6369 0.157377L77.6673 0.180922L77.6964 0.205901L77.7244 0.23223L77.7511 0.259994L77.7766 0.28894L77.8006 0.319235L77.8232 0.350712L77.8444 0.383371L77.8641 0.417126L77.8821 0.451895L77.8985 0.48776L77.9132 0.524638L77.9262 0.562444L77.9373 0.601094L77.9467 0.640672L77.954 0.68101L77.9594 0.722108L77.9628 0.763458L77.964 0.804471L77.9633 0.845062L77.9605 0.885316L77.9558 0.924979L77.9491 0.964135L77.9407 1.0027L77.9303 1.04068L77.9182 1.07789L77.9044 1.11426L77.8889 1.14996L77.8717 1.18464L77.853 1.21848L77.8327 1.25131L77.8109 1.28304L77.7876 1.31376L77.7629 1.34321L77.7369 1.37156L77.7094 1.39857L77.6808 1.42431L77.6509 1.44861L77.6197 1.47148L77.5874 1.49292L77.5541 1.51275L77.5197 1.53098L77.4842 1.5476L77.4477 1.56245L77.4104 1.57562L77.3721 1.58684L77.333 1.59629L77.2931 1.60372L77.2525 1.6092V1.60921ZM81.6317 4.69582L81.4615 3.09378L80.7748 4.09438L80.7291 3.92551L80.6793 3.76416L80.6255 3.6099L80.5678 3.4629L80.5065 3.32315L80.4415 3.19032L80.3728 3.06399L80.3008 2.94433L80.2253 2.83116L80.1463 2.72399L80.0638 2.62255L79.9777 2.52669L79.8879 2.43622L79.7943 2.35082L79.6966 2.27031L79.5944 2.19453L79.4874 2.12305L79.3758 2.05605L79.2593 1.99369L79.1369 1.93563L79.0089 1.88179L78.8753 1.83267L78.7354 1.78803L78.5896 1.74811L78.437 1.71301L78.2781 1.6828L78.1129 1.65782L77.9412 1.63799L77.7626 1.62356L77.5775 1.61453L77.3859 1.61115L77.1878 1.61351L77.1469 0.00286922L77.3902 0L77.6294 0.00421945L77.8641 0.015612L78.0945 0.0342619L78.321 0.0603381L78.5431 0.0940936L78.7608 0.135444L78.9741 0.184559L79.183 0.24169L79.3872 0.306922L79.5869 0.380341L79.7812 0.462029L79.9706 0.551988L80.1548 0.650638L80.3331 0.757475L80.5052 0.872497L80.6713 0.995873L80.8312 1.12752L80.9841 1.26693L81.1301 1.4141L81.269 1.5687L81.4007 1.73056L81.5251 1.89934L81.6421 2.07495L81.7517 2.2569L81.8539 2.44483L81.949 2.63909L82.0368 2.83926L82.1175 3.045L82.1912 3.25614L82.2582 3.47302L82.3184 3.69522L81.6317 4.69582V4.69582ZM80.7748 4.09438L82.3184 3.69522L82.3276 3.73564L82.3346 3.77606L82.3396 3.8164L82.3425 3.85657L82.3434 3.89657L82.3423 3.93632L82.3394 3.97573L82.3346 4.01471L82.3278 4.05328L82.3193 4.09134L82.309 4.12881L82.2969 4.16569L82.2831 4.20189L82.2676 4.23725L82.2505 4.27185L82.2318 4.3056L82.2116 4.33835L82.1898 4.37016L82.1665 4.40088L82.1417 4.43041L82.1155 4.45885L82.088 4.48594L82.0591 4.51185L82.0288 4.53632L81.9973 4.55936L81.9646 4.58088L81.9306 4.60088L81.8955 4.61928L81.8592 4.6359L81.8218 4.65084L81.7834 4.664L81.7439 4.67531L81.704 4.68459L81.664 4.69168L81.6241 4.69675L81.5844 4.6997L81.5448 4.70063L81.5055 4.69953L81.4665 4.69658L81.428 4.69168L81.3899 4.68485L81.3522 4.67624L81.3152 4.66577L81.2787 4.65362L81.2429 4.63961L81.2079 4.624L81.1737 4.6067L81.1404 4.5878L81.108 4.56729L81.0765 4.54527L81.0461 4.52172L81.0169 4.49666L80.9888 4.47016L80.962 4.44231L80.9364 4.41311L80.9122 4.38248L80.8894 4.35067L80.8682 4.3175L80.8484 4.28316L80.8302 4.24763L80.8137 4.21092L80.799 4.17311L80.786 4.13429L80.7748 4.09438V4.09438ZM36.0896 8.02496L81.4614 3.09378L81.6317 4.69582L36.2599 9.627L35.4561 9.17349L36.0896 8.02496V8.02496ZM36.0896 8.02496L36.2599 9.627L36.219 9.63037L36.1784 9.63164L36.1383 9.63088L36.0985 9.6281L36.0592 9.62329L36.0205 9.61653L35.9824 9.60801L35.9448 9.59755L35.908 9.58531L35.8721 9.5713L35.8368 9.55569L35.8025 9.53831L35.769 9.51932L35.7366 9.49881L35.7052 9.47679L35.6748 9.45324L35.6457 9.42826L35.6176 9.40193L35.5909 9.37417L35.5655 9.34522L35.5415 9.31493L35.5188 9.28345L35.4976 9.25079L35.478 9.21704L35.46 9.18227L35.4436 9.1464L35.4289 9.10953L35.4159 9.07172L35.4048 9.03307L35.3954 8.99349L35.3881 8.95315L35.3827 8.91206L35.3793 8.87071L35.3781 8.82969L35.3788 8.7891L35.3816 8.74885L35.3863 8.70919L35.393 8.67003L35.4014 8.63146L35.4118 8.59349L35.4239 8.55627L35.4377 8.5199L35.4532 8.4842L35.4704 8.44952L35.4891 8.41568L35.5094 8.38285L35.5312 8.35112L35.5545 8.32041L35.5792 8.29095L35.6052 8.2626L35.6327 8.23559L35.6613 8.20986L35.6912 8.18555L35.7224 8.16268L35.7547 8.14125L35.788 8.12142L35.8224 8.10319L35.8579 8.08656L35.8944 8.07171L35.9317 8.05855L35.97 8.04732L36.0091 8.03787L36.049 8.03045L36.0896 8.02496V8.02496Z" fill="#333333"/>
<path fill-rule="evenodd" clip-rule="evenodd" d="M34.0324 7.46045C35.3434 7.46045 36.4061 8.53514 36.4061 9.86089C36.4061 11.1866 35.3434 12.2614 34.0324 12.2614C32.7215 12.2614 31.6587 11.1866 31.6587 9.86089C31.6587 8.53514 32.7215 7.46045 34.0324 7.46045Z" fill="#66798F"/>
<path d="M37.2029 9.86093H35.6097L35.6076 9.77806L35.6014 9.69688L35.5914 9.61688L35.5776 9.53856L35.56 9.46168L35.5389 9.38616L35.5142 9.3124L35.486 9.24033L35.4545 9.16987L35.4198 9.10109L35.3819 9.03459L35.3408 8.96978L35.2967 8.907L35.2498 8.84666L35.2002 8.78877L35.1478 8.73316L35.0928 8.68016L35.0356 8.63003L34.9758 8.58261L34.9138 8.53796L34.8498 8.49644L34.784 8.45813L34.716 8.42303L34.6463 8.39113L34.575 8.36269L34.5021 8.33771L34.4274 8.31636L34.3514 8.29855L34.274 8.28454L34.1949 8.27442L34.1146 8.26817L34.0326 8.26606V6.65491L34.195 6.65904L34.3557 6.67136L34.5143 6.69178L34.6707 6.71997L34.8243 6.75584L34.9749 6.79913L35.1225 6.84959L35.2668 6.90706L35.4074 6.97137L35.5442 7.04225L35.6772 7.11955L35.8057 7.20293L35.9298 7.29213L36.0495 7.38715L36.1645 7.48791L36.2744 7.5939L36.3792 7.70504L36.4788 7.82133L36.5728 7.94243L36.661 8.06783L36.7434 8.19779L36.8199 8.33231L36.89 8.47062L36.9535 8.61281L37.0104 8.75881L37.0603 8.90801L37.1031 9.06033L37.1385 9.21569L37.1664 9.37383L37.1866 9.53417L37.1988 9.6967L37.2029 9.86093V9.86093ZM34.0326 13.067V11.4559L34.1146 11.4538L34.1949 11.4475L34.274 11.4374L34.3514 11.4234L34.4274 11.4056L34.5021 11.3842L34.575 11.3593L34.6463 11.3308L34.716 11.2989L34.784 11.2638L34.8498 11.2255L34.9138 11.184L34.9757 11.1394L35.0354 11.0919L35.0928 11.0417L35.1478 10.9887L35.2002 10.9331L35.2499 10.8751L35.2967 10.8149L35.3408 10.7522L35.3819 10.6873L35.4198 10.6208L35.4545 10.552L35.4861 10.4814L35.5142 10.4095L35.5388 10.3358L35.56 10.2602L35.5776 10.1833L35.5914 10.105L35.6014 10.025L35.6076 9.9438L35.6097 9.86093H37.2029L37.1988 10.0252L37.1866 10.1877L37.1664 10.348L37.1385 10.5062L37.1031 10.6615L37.0604 10.8138L37.0104 10.9631L36.9535 11.1091L36.89 11.2512L36.8199 11.3896L36.7434 11.5241L36.6611 11.6539L36.5728 11.7795L36.4787 11.9006L36.3792 12.0168L36.2744 12.128L36.1645 12.2339L36.0496 12.3346L35.93 12.4297L35.8057 12.519L35.6772 12.6024L35.5442 12.6797L35.4074 12.7506L35.2668 12.8149L35.1225 12.8724L34.9749 12.9228L34.8243 12.9661L34.6707 13.002L34.5143 13.0302L34.3557 13.0506L34.195 13.0629L34.0326 13.067ZM30.8623 9.86093H32.4555L32.4576 9.9438L32.4637 10.025L32.4738 10.105L32.4876 10.1833L32.5052 10.2602L32.5264 10.3358L32.551 10.4095L32.5791 10.4814L32.6107 10.552L32.6454 10.6208L32.6833 10.6873L32.7244 10.7522L32.7684 10.8147L32.8152 10.8749L32.865 10.9331L32.9175 10.9887L32.9724 11.0417L33.0299 11.0921L33.0895 11.1394L33.1513 11.1839L33.2155 11.2255L33.2813 11.2638L33.3493 11.2989L33.419 11.3309L33.4901 11.3593L33.5631 11.3841L33.6378 11.4056L33.7139 11.4234L33.7913 11.4374L33.8704 11.4475L33.9507 11.4538L34.0326 11.4559V13.067L33.8702 13.0629L33.7095 13.0506L33.551 13.0302L33.3946 13.002L33.241 12.9661L33.0904 12.9229L32.9427 12.8723L32.7984 12.8148L32.6578 12.7506L32.5211 12.6797L32.3881 12.6024L32.2596 12.5191L32.1352 12.4297L32.0156 12.3345L31.9008 12.2339L31.7909 12.128L31.6861 12.0168L31.5867 11.9008L31.4925 11.7798L31.4041 11.6539L31.3218 11.5241L31.2453 11.3895L31.1752 11.2512L31.1117 11.1091L31.0548 10.9631L31.0048 10.8138L30.9621 10.6615L30.9267 10.5062L30.8988 10.348L30.8786 10.1877L30.8664 10.0252L30.8623 9.86093L30.8623 9.86093ZM34.0326 6.65491V8.26607L33.9507 8.26818L33.8704 8.27442L33.7913 8.28455L33.7139 8.29856L33.6379 8.31636L33.5631 8.3378L33.4901 8.36269L33.419 8.39105L33.3493 8.42303L33.2813 8.45814L33.2155 8.49645L33.1514 8.53805L33.0894 8.58261L33.0298 8.62995L32.9724 8.68016L32.9175 8.73316L32.865 8.78877L32.8154 8.84683L32.7684 8.90725L32.7244 8.96979L32.6833 9.0346L32.6454 9.1011L32.6107 9.16987L32.5792 9.24034L32.551 9.31241L32.5263 9.38616L32.5052 9.46169L32.4876 9.53857L32.4738 9.61688L32.4637 9.69688L32.4576 9.77806L32.4555 9.86093H30.8623L30.8664 9.69671L30.8786 9.53418L30.8988 9.37384L30.9267 9.21569L30.9621 9.06033L31.0049 8.90801L31.0548 8.75881L31.1117 8.61282L31.1752 8.47063L31.2453 8.33231L31.3218 8.1978L31.4042 8.06784L31.4925 7.94218L31.5865 7.82117L31.6861 7.70505L31.7909 7.59391L31.9008 7.48792L32.0157 7.38724L32.1354 7.29213L32.2596 7.20285L32.3881 7.11956L32.5211 7.04226L32.6578 6.97137L32.7984 6.90715L32.9427 6.8496L33.0904 6.79905L33.241 6.75584L33.3946 6.71998L33.551 6.69179L33.7095 6.67137L33.8702 6.65905L34.0326 6.65491V6.65491Z" fill="#333333"/>
<path fill-rule="evenodd" clip-rule="evenodd" d="M31.8919 10.8999H31.6587V21.52H82.4532V14.0737C82.4532 12.3207 81.0482 10.8999 79.3148 10.8999H36.1729C36.1314 10.987 36.085 11.0713 36.0339 11.1522C35.6122 11.8191 34.8733 12.2614 34.0325 12.2614C33.0895 12.2614 32.2751 11.7053 31.892 10.8999L31.8919 10.8999Z" fill="#4E7AB5"/>
<path d="M31.6589 10.0943H31.8921V11.7055H31.6589L30.8623 10.8999L31.6589 10.0943V10.0943ZM31.6589 10.0943V11.7055L31.6179 11.7045L31.5774 11.7013L31.5376 11.6962L31.4983 11.6891L31.4598 11.6801L31.422 11.6693L31.385 11.6566L31.3488 11.6422L31.3135 11.6261L31.2792 11.6083L31.2458 11.5888L31.2135 11.5679L31.1823 11.5455L31.1522 11.5215L31.1233 11.4962L31.0956 11.4695L31.0693 11.4415L31.0442 11.4123L31.0205 11.3818L30.9983 11.3503L30.9776 11.3176L30.9584 11.2839L30.9408 11.2492L30.9249 11.2135L30.9106 11.1769L30.8981 11.1395L30.8874 11.1012L30.8785 11.0623L30.8715 11.0226L30.8664 10.9823L30.8633 10.9413L30.8623 10.8999L30.8633 10.8585L30.8664 10.8175L30.8715 10.7772L30.8785 10.7375L30.8874 10.6985L30.8981 10.6603L30.9106 10.6229L30.9249 10.5863L30.9408 10.5506L30.9584 10.5159L30.9776 10.4822L30.9983 10.4495L31.0205 10.4179L31.0442 10.3875L31.0693 10.3583L31.0956 10.3303L31.1233 10.3036L31.1522 10.2783L31.1823 10.2543L31.2135 10.2319L31.2458 10.2109L31.2792 10.1915L31.3135 10.1737L31.3488 10.1576L31.385 10.1432L31.422 10.1305L31.4598 10.1197L31.4983 10.1107L31.5376 10.1036L31.5774 10.0985L31.6179 10.0953L31.6589 10.0943V10.0943ZM30.8623 21.5199V10.8999H32.4555V21.5199L31.6589 22.3255L30.8623 21.5199ZM30.8623 21.5199H32.4555L32.4545 21.5614L32.4514 21.6023L32.4463 21.6426L32.4393 21.6823L32.4304 21.7213L32.4197 21.7595L32.4072 21.7969L32.3929 21.8335L32.377 21.8692L32.3593 21.9039L32.3402 21.9377L32.3195 21.9703L32.2973 22.0019L32.2736 22.0323L32.2485 22.0615L32.2222 22.0896L32.1945 22.1162L32.1656 22.1415L32.1355 22.1655L32.1042 22.188L32.072 22.2089L32.0386 22.2283L32.0043 22.2461L31.969 22.2622L31.9328 22.2767L31.8958 22.2893L31.858 22.3001L31.8194 22.3091L31.7802 22.3162L31.7403 22.3214L31.6999 22.3245L31.6589 22.3255L31.6179 22.3245L31.5774 22.3214L31.5376 22.3162L31.4983 22.3091L31.4598 22.3001L31.422 22.2893L31.385 22.2767L31.3488 22.2622L31.3135 22.2461L31.2792 22.2283L31.2458 22.2089L31.2135 22.188L31.1823 22.1655L31.1522 22.1415L31.1233 22.1162L31.0956 22.0896L31.0693 22.0615L31.0442 22.0323L31.0205 22.0019L30.9983 21.9703L30.9776 21.9377L30.9584 21.9039L30.9408 21.8692L30.9249 21.8335L30.9106 21.7969L30.8981 21.7595L30.8874 21.7213L30.8785 21.6823L30.8715 21.6426L30.8664 21.6023L30.8633 21.5614L30.8623 21.5199ZM82.4534 22.3255H31.6589V20.7144H82.4534L83.2499 21.5199L82.4534 22.3255V22.3255ZM82.4534 22.3255V20.7144L82.4943 20.7154L82.5348 20.7185L82.5747 20.7236L82.6139 20.7307L82.6525 20.7398L82.6903 20.7506L82.7272 20.7632L82.7635 20.7776L82.7987 20.7938L82.833 20.8116L82.8664 20.831L82.8987 20.8519L82.9299 20.8744L82.96 20.8983L82.9889 20.9236L83.0166 20.9503L83.043 20.9783L83.068 21.0075L83.0917 21.038L83.1139 21.0696L83.1346 21.1022L83.1538 21.136L83.1714 21.1706L83.1874 21.2063L83.2016 21.243L83.2141 21.2804L83.2248 21.3186L83.2337 21.3576L83.2408 21.3972L83.2459 21.4376L83.2489 21.4785L83.2499 21.5199L83.2489 21.5614L83.2459 21.6023L83.2408 21.6426L83.2337 21.6823L83.2248 21.7213L83.2141 21.7595L83.2016 21.7969L83.1874 21.8335L83.1714 21.8692L83.1538 21.9039L83.1346 21.9377L83.1139 21.9703L83.0917 22.0019L83.068 22.0323L83.043 22.0615L83.0166 22.0896L82.9889 22.1162L82.96 22.1415L82.9299 22.1655L82.8987 22.188L82.8664 22.2089L82.833 22.2283L82.7987 22.2461L82.7635 22.2622L82.7272 22.2766L82.6903 22.2893L82.6525 22.3001L82.6139 22.3091L82.5747 22.3162L82.5348 22.3214L82.4943 22.3245L82.4534 22.3255V22.3255ZM83.2499 14.0736V21.5199H81.6568V14.0736H83.2499ZM83.2499 14.0736H81.6568L81.6578 14.0322L81.6608 13.9913L81.6659 13.9509L81.673 13.9113L81.6819 13.8723L81.6926 13.834L81.7051 13.7967L81.7193 13.76L81.7353 13.7243L81.7529 13.6897L81.7721 13.6559L81.7928 13.6232L81.815 13.5917L81.8387 13.5612L81.8637 13.532L81.8901 13.504L81.9178 13.4773L81.9467 13.452L81.9768 13.4281L82.008 13.4056L82.0403 13.3847L82.0737 13.3653L82.108 13.3475L82.1433 13.3313L82.1795 13.3169L82.2164 13.3043L82.2542 13.2935L82.2928 13.2844L82.332 13.2773L82.3719 13.2722L82.4124 13.2691L82.4534 13.2681L82.4943 13.2691L82.5348 13.2722L82.5747 13.2773L82.6139 13.2844L82.6525 13.2935L82.6903 13.3043L82.7272 13.3169L82.7634 13.3313L82.7987 13.3475L82.833 13.3653L82.8664 13.3847L82.8987 13.4056L82.9299 13.4281L82.96 13.452L82.9889 13.4773L83.0166 13.504L83.043 13.532L83.068 13.5612L83.0917 13.5917L83.1139 13.6232L83.1346 13.6559L83.1538 13.6897L83.1714 13.7243L83.1874 13.76L83.2016 13.7967L83.2141 13.834L83.2248 13.8723L83.2337 13.9113L83.2408 13.9509L83.2458 13.9913L83.2489 14.0322L83.2499 14.0736ZM79.315 11.7054V10.0943L79.5167 10.0994L79.7162 10.1147L79.9132 10.14L80.1072 10.175L80.2977 10.2195L80.4848 10.2733L80.6678 10.3359L80.8467 10.4072L81.0214 10.487L81.1911 10.5749L81.356 10.6707L81.5157 10.7743L81.6698 10.8851L81.8184 11.0031L81.9612 11.1282L82.0975 11.2598L82.2275 11.3976L82.3512 11.542L82.468 11.6923L82.5775 11.848L82.6799 12.0096L82.7746 12.1763L82.8616 12.348L82.9405 12.5246L83.011 12.7055L83.0729 12.8906L83.1261 13.0798L83.1701 13.2725L83.2047 13.4686L83.2297 13.6679L83.2448 13.8697L83.2499 14.0736H81.6568L81.6537 13.9508L81.6446 13.8302L81.6297 13.7118L81.6091 13.5954L81.583 13.481L81.5515 13.3689L81.5148 13.2591L81.473 13.1518L81.4263 13.0472L81.3745 12.9451L81.3182 12.846L81.2574 12.7502L81.1919 12.657L81.1224 12.5675L81.0488 12.4816L80.9709 12.399L80.8892 12.3203L80.8043 12.2458L80.7158 12.1756L80.6237 12.1093L80.5289 12.0478L80.4309 11.9908L80.33 11.9385L80.2266 11.8912L80.1204 11.849L80.0118 11.8118L79.901 11.78L79.7879 11.7536L79.6727 11.7328L79.5556 11.7177L79.4364 11.7085L79.315 11.7054V11.7054ZM79.315 10.0943V11.7054L79.274 11.7044L79.2335 11.7013L79.1937 11.6961L79.1544 11.6891L79.1159 11.68L79.0781 11.6692L79.0411 11.6566L79.0049 11.6421L78.9696 11.626L78.9353 11.6082L78.9019 11.5888L78.8696 11.5679L78.8384 11.5454L78.8083 11.5215L78.7794 11.4961L78.7517 11.4695L78.7253 11.4415L78.7003 11.4123L78.6766 11.3818L78.6544 11.3502L78.6337 11.3176L78.6145 11.2838L78.5969 11.2491L78.581 11.2134L78.5667 11.1768L78.5542 11.1394L78.5435 11.1012L78.5346 11.0622L78.5276 11.0225L78.5225 10.9822L78.5194 10.9413L78.5184 10.8998L78.5194 10.8584L78.5225 10.8175L78.5276 10.7771L78.5346 10.7375L78.5435 10.6985L78.5542 10.6603L78.5667 10.6229L78.581 10.5863L78.5969 10.5506L78.6145 10.5159L78.6337 10.4821L78.6544 10.4495L78.6766 10.4179L78.7003 10.3874L78.7253 10.3582L78.7517 10.3302L78.7794 10.3036L78.8083 10.2782L78.8384 10.2543L78.8696 10.2318L78.9019 10.2109L78.9353 10.1915L78.9696 10.1737L79.0049 10.1576L79.0411 10.1431L79.0781 10.1305L79.1159 10.1197L79.1544 10.1106L79.1937 10.1036L79.2335 10.0984L79.274 10.0953L79.315 10.0943V10.0943ZM36.1731 10.0943H79.315V11.7054H36.1731L35.4554 10.5503L36.1731 10.0943V10.0943ZM36.1731 10.0943V11.7054L36.1321 11.7044L36.0916 11.7013L36.0517 11.6961L36.0125 11.6891L35.974 11.68L35.9362 11.6692L35.8992 11.6566L35.863 11.6421L35.8277 11.626L35.7934 11.6082L35.76 11.5888L35.7277 11.5679L35.6965 11.5454L35.6664 11.5215L35.6375 11.4961L35.6098 11.4695L35.5834 11.4415L35.5584 11.4123L35.5347 11.3818L35.5125 11.3502L35.4918 11.3176L35.4726 11.2838L35.455 11.2491L35.4391 11.2134L35.4248 11.1768L35.4123 11.1394L35.4016 11.1012L35.3927 11.0622L35.3857 11.0225L35.3806 10.9822L35.3775 10.9413L35.3765 10.8998L35.3775 10.8584L35.3806 10.8175L35.3857 10.7771L35.3927 10.7375L35.4016 10.6985L35.4123 10.6603L35.4248 10.6229L35.4391 10.5863L35.455 10.5506L35.4726 10.5159L35.4918 10.4821L35.5125 10.4495L35.5347 10.4179L35.5584 10.3874L35.5834 10.3582L35.6098 10.3302L35.6375 10.3036L35.6664 10.2782L35.6965 10.2543L35.7277 10.2318L35.76 10.2109L35.7934 10.1915L35.8277 10.1737L35.863 10.1576L35.8992 10.1431L35.9362 10.1305L35.974 10.1197L36.0125 10.1106L36.0517 10.1036L36.0916 10.0984L36.1321 10.0953L36.1731 10.0943V10.0943ZM36.7052 11.5861L35.3629 10.7182L35.3628 10.7183L35.3658 10.7135L35.3695 10.7076L35.3726 10.7026L35.3756 10.6978L35.3782 10.6935L35.3813 10.6885L35.3842 10.6836L35.3888 10.6758L35.3908 10.6725L35.3927 10.6691L35.3965 10.6625L35.3999 10.6564L35.4035 10.6502L35.4048 10.648L35.4082 10.6418L35.411 10.6367L35.4137 10.6317L35.4172 10.6254L35.4199 10.6204L35.4233 10.614L35.426 10.609L35.4286 10.6039L35.4305 10.6004L35.4322 10.5969L35.4363 10.5888L35.4404 10.5808L35.4422 10.5771L35.4448 10.5721L35.4473 10.5669L35.4498 10.5619L35.4529 10.5553L35.4553 10.5503L36.8908 11.2494L36.8854 11.2608L36.8807 11.2704L36.8753 11.2815L36.8699 11.2926L36.8644 11.3037L36.858 11.3163L36.8539 11.3243L36.8498 11.3324L36.8434 11.3449L36.8369 11.3575L36.8312 11.3683L36.8254 11.3793L36.8203 11.3888L36.8145 11.3996L36.8093 11.4091L36.8034 11.4199L36.7974 11.4307L36.7922 11.4401L36.7846 11.4536L36.7792 11.4631L36.7737 11.4725L36.7686 11.4815L36.7615 11.4938L36.7543 11.5058L36.7497 11.5136L36.7434 11.5241L36.7371 11.5345L36.7304 11.5456L36.7241 11.556L36.7177 11.5664L36.7118 11.5756L36.7053 11.586L36.7052 11.5861V11.5861ZM35.3628 10.7183L36.7053 11.586L36.6824 11.6204L36.658 11.6532L36.6322 11.6844L36.6053 11.714L36.577 11.742L36.5476 11.7684L36.517 11.7931L36.4856 11.8161L36.4531 11.8375L36.4198 11.8572L36.3857 11.8752L36.3508 11.8914L36.3153 11.9059L36.2791 11.9187L36.2425 11.9297L36.2054 11.9389L36.1678 11.9464L36.13 11.9519L36.0919 11.9557L36.0536 11.9576L36.0152 11.9577L35.9768 11.9558L35.9383 11.9521L35.9 11.9465L35.8619 11.9389L35.8239 11.9295L35.7863 11.918L35.749 11.9047L35.7122 11.8892L35.6759 11.8718L35.6402 11.8524L35.6051 11.831L35.5711 11.8078L35.5386 11.7831L35.5078 11.7571L35.4785 11.7298L35.4508 11.7012L35.4247 11.6715L35.4003 11.6406L35.3775 11.6088L35.3564 11.576L35.3369 11.5423L35.3191 11.5078L35.3031 11.4725L35.2887 11.4366L35.2761 11.4L35.2652 11.363L35.2561 11.3254L35.2487 11.2874L35.2432 11.2492L35.2395 11.2107L35.2376 11.1719L35.2376 11.1331L35.2394 11.0943L35.2431 11.0554L35.2486 11.0166L35.2561 10.9781L35.2654 10.9397L35.2768 10.9016L35.29 10.8639L35.3052 10.8267L35.3224 10.79L35.3416 10.7539L35.3628 10.7183ZM34.0327 13.067V11.4558L34.0852 11.455L34.1373 11.4523L34.1889 11.4481L34.2397 11.4422L34.2901 11.4347L34.3398 11.4257L34.3891 11.415L34.4372 11.4031L34.4849 11.3895L34.5323 11.3743L34.579 11.3577L34.6249 11.3397L34.6699 11.3204L34.7146 11.2995L34.7589 11.2772L34.8013 11.254L34.8434 11.2292L34.8852 11.203L34.9258 11.1755L34.9655 11.147L35.004 11.1175L35.042 11.0863L35.0792 11.054L35.1148 11.0211L35.1499 10.9866L35.1839 10.951L35.2164 10.9149L35.248 10.8775L35.2786 10.8388L35.3078 10.7997L35.3359 10.7594L35.3629 10.7182L36.7052 11.5861L36.6512 11.6686L36.5949 11.7494L36.536 11.8284L36.475 11.9052L36.4117 11.9802L36.3458 12.0534L36.2782 12.124L36.2086 12.1926L36.1365 12.2594L36.0628 12.3235L35.987 12.3855L35.909 12.4454L35.8292 12.5028L35.7478 12.5576L35.6649 12.6098L35.5799 12.6598L35.4926 12.7074L35.4047 12.7517L35.3152 12.7935L35.2235 12.8329L35.1307 12.8692L35.0367 12.9026L34.9413 12.9331L34.8444 12.9607L34.7461 12.9854L34.6471 13.0066L34.547 13.0249L34.4458 13.0399L34.3438 13.0517L34.2408 13.0601L34.1371 13.0653L34.0327 13.067L34.0327 13.067ZM31.8922 11.7054V10.0943L32.6101 10.5507L32.6346 10.6001L32.6609 10.6485L32.689 10.6965L32.7187 10.7432L32.7497 10.7886L32.7821 10.8328L32.8163 10.876L32.8518 10.918L32.8888 10.9588L32.9271 10.9982L32.9666 11.0362L33.0073 11.0728L33.0495 11.108L33.0929 11.1418L33.1371 11.174L33.1828 11.2047L33.2291 11.2337L33.2766 11.261L33.3255 11.287L33.375 11.3112L33.4251 11.3334L33.4763 11.3539L33.5287 11.3729L33.5815 11.3898L33.6353 11.4049L33.6896 11.4181L33.7449 11.4294L33.8011 11.4388L33.858 11.4462L33.9155 11.4515L33.9734 11.4547L34.0327 11.4558V13.067L33.9158 13.0649L33.7993 13.0584L33.6841 13.0477L33.5703 13.033L33.4575 13.0142L33.346 12.9914L33.2356 12.9646L33.1269 12.934L33.0199 12.8996L32.9147 12.8617L32.8111 12.8201L32.7091 12.7748L32.6092 12.7262L32.5118 12.6744L32.4159 12.6192L32.3222 12.5606L32.231 12.4992L32.1418 12.4345L32.0551 12.3669L31.9709 12.2964L31.889 12.2229L31.8099 12.1469L31.7334 12.0681L31.6595 11.9867L31.5884 11.9028L31.5202 11.8164L31.4547 11.7274L31.3922 11.6359L31.3331 11.5426L31.2771 11.4472L31.224 11.3491L31.1743 11.2491L31.8922 11.7054ZM32.6101 10.5507L31.1743 11.2491L31.1574 11.2113L31.1426 11.173L31.13 11.1345L31.1193 11.0956L31.1106 11.0567L31.1038 11.0175L31.0991 10.9783L31.0963 10.939L31.0954 10.8999L31.0963 10.8609L31.0992 10.8221L31.1038 10.7835L31.1103 10.7453L31.1186 10.7075L31.1286 10.6702L31.1404 10.6334L31.1539 10.5972L31.1691 10.5618L31.1859 10.527L31.2045 10.4931L31.2246 10.46L31.2464 10.428L31.2696 10.3968L31.2946 10.3669L31.321 10.338L31.3489 10.3103L31.3783 10.284L31.4092 10.259L31.4415 10.2354L31.4753 10.2133L31.5104 10.1928L31.5469 10.1739L31.5842 10.1568L31.622 10.1419L31.6602 10.1291L31.6986 10.1183L31.7371 10.1095L31.7758 10.1026L31.8146 10.0978L31.8534 10.095L31.8922 10.0941L31.9307 10.095L31.9691 10.0979L32.0072 10.1026L32.0449 10.1092L32.0823 10.1176L32.1192 10.1277L32.1556 10.1396L32.1914 10.1533L32.2264 10.1686L32.2608 10.1857L32.2944 10.2044L32.3271 10.2247L32.3588 10.2468L32.3896 10.2703L32.4192 10.2956L32.4477 10.3222L32.4751 10.3505L32.5012 10.3802L32.5259 10.4114L32.5492 10.4442L32.5711 10.4783L32.5914 10.5138L32.6101 10.5507H32.6101Z" fill="#333333"/>
<path fill-rule="evenodd" clip-rule="evenodd" d="M31.6587 21.52H82.4532V47.9542H31.6587V21.52Z" fill="#FEFEFF"/>
<path d="M82.4532 22.3256H31.6589V20.7145H82.4532L83.2498 21.5201L82.4532 22.3256V22.3256ZM82.4532 22.3256V20.7145L82.4942 20.7155L82.5346 20.7186L82.5745 20.7238L82.6137 20.7308L82.6523 20.7399L82.6901 20.7507L82.7271 20.7633L82.7633 20.7778L82.7986 20.7939L82.8329 20.8117L82.8662 20.8311L82.8985 20.852L82.9297 20.8745L82.9599 20.8984L82.9887 20.9238L83.0165 20.9504L83.0428 20.9784L83.0679 21.0076L83.0916 21.0381L83.1137 21.0697L83.1344 21.1023L83.1536 21.1361L83.1712 21.1708L83.1872 21.2065L83.2014 21.2431L83.214 21.2805L83.2247 21.3187L83.2336 21.3577L83.2406 21.3974L83.2457 21.4377L83.2488 21.4786L83.2498 21.5201L83.2488 21.5615L83.2457 21.6024L83.2406 21.6428L83.2336 21.6824L83.2247 21.7214L83.214 21.7596L83.2014 21.797L83.1872 21.8336L83.1712 21.8693L83.1536 21.904L83.1344 21.9378L83.1137 21.9704L83.0916 22.002L83.0679 22.0325L83.0428 22.0617L83.0165 22.0897L82.9887 22.1163L82.9599 22.1417L82.9297 22.1656L82.8985 22.1881L82.8662 22.209L82.8329 22.2284L82.7986 22.2462L82.7633 22.2623L82.7271 22.2768L82.6901 22.2894L82.6523 22.3002L82.6137 22.3093L82.5745 22.3163L82.5346 22.3215L82.4942 22.3246L82.4532 22.3256V22.3256ZM81.6566 47.9542V21.5201H83.2498V47.9542L82.4532 48.7598L81.6566 47.9542ZM81.6566 47.9542H83.2498L83.2488 47.9956L83.2457 48.0366L83.2406 48.0769L83.2336 48.1166L83.2247 48.1556L83.214 48.1938L83.2015 48.2312L83.1872 48.2678L83.1712 48.3035L83.1536 48.3382L83.1344 48.3719L83.1138 48.4046L83.0916 48.4361L83.0679 48.4666L83.0428 48.4958L83.0165 48.5238L82.9887 48.5505L82.9599 48.5758L82.9297 48.5998L82.8985 48.6222L82.8662 48.6432L82.8329 48.6626L82.7986 48.6804L82.7633 48.6965L82.7271 48.7109L82.6901 48.7236L82.6523 48.7344L82.6137 48.7434L82.5745 48.7505L82.5346 48.7556L82.4942 48.7588L82.4532 48.7598L82.4122 48.7588L82.3717 48.7556L82.3319 48.7505L82.2926 48.7434L82.2541 48.7344L82.2163 48.7236L82.1793 48.7109L82.1431 48.6965L82.1078 48.6804L82.0735 48.6626L82.0401 48.6432L82.0078 48.6222L81.9766 48.5998L81.9465 48.5758L81.9176 48.5505L81.8899 48.5238L81.8635 48.4958L81.8385 48.4666L81.8148 48.4361L81.7926 48.4046L81.7719 48.3719L81.7527 48.3382L81.7351 48.3035L81.7192 48.2678L81.7049 48.2312L81.6924 48.1938L81.6817 48.1556L81.6728 48.1166L81.6658 48.0769L81.6607 48.0366L81.6576 47.9956L81.6566 47.9542ZM31.6589 47.1486H82.4532V48.7598H31.6589L30.8623 47.9542L31.6589 47.1486ZM31.6589 47.1486V48.7598L31.6179 48.7588L31.5774 48.7556L31.5376 48.7505L31.4983 48.7434L31.4598 48.7344L31.422 48.7236L31.385 48.7109L31.3488 48.6965L31.3135 48.6804L31.2792 48.6626L31.2458 48.6432L31.2135 48.6222L31.1823 48.5998L31.1522 48.5758L31.1233 48.5505L31.0956 48.5238L31.0693 48.4958L31.0442 48.4666L31.0205 48.4362L30.9983 48.4046L30.9776 48.3719L30.9584 48.3382L30.9408 48.3035L30.9249 48.2678L30.9106 48.2312L30.8981 48.1938L30.8874 48.1556L30.8785 48.1166L30.8715 48.0769L30.8664 48.0366L30.8633 47.9956L30.8623 47.9542L30.8633 47.9128L30.8664 47.8718L30.8715 47.8315L30.8785 47.7918L30.8874 47.7529L30.8981 47.7146L30.9106 47.6772L30.9249 47.6406L30.9408 47.6049L30.9584 47.5702L30.9776 47.5365L30.9983 47.5038L31.0205 47.4723L31.0442 47.4418L31.0693 47.4126L31.0956 47.3846L31.1233 47.3579L31.1522 47.3326L31.1823 47.3086L31.2135 47.2862L31.2458 47.2653L31.2792 47.2458L31.3135 47.228L31.3488 47.2119L31.385 47.1975L31.422 47.1848L31.4598 47.174L31.4983 47.165L31.5376 47.1579L31.5774 47.1528L31.6179 47.1496L31.6589 47.1486V47.1486ZM32.4555 21.5201V47.9542H30.8623V21.5201L31.6589 20.7145L32.4555 21.5201ZM32.4555 21.5201H30.8623L30.8633 21.4786L30.8664 21.4377L30.8715 21.3974L30.8785 21.3577L30.8874 21.3187L30.8981 21.2805L30.9106 21.2431L30.9249 21.2065L30.9408 21.1708L30.9584 21.1361L30.9776 21.1023L30.9983 21.0697L31.0205 21.0381L31.0442 21.0076L31.0693 20.9784L31.0956 20.9504L31.1233 20.9238L31.1522 20.8984L31.1823 20.8745L31.2135 20.852L31.2458 20.8311L31.2792 20.8117L31.3135 20.7939L31.3488 20.7778L31.385 20.7633L31.422 20.7507L31.4598 20.7399L31.4983 20.7309L31.5376 20.7238L31.5774 20.7186L31.6179 20.7155L31.6589 20.7145L31.6999 20.7155L31.7403 20.7186L31.7802 20.7238L31.8194 20.7309L31.858 20.7399L31.8958 20.7507L31.9328 20.7633L31.969 20.7778L32.0043 20.7939L32.0386 20.8117L32.072 20.8311L32.1042 20.852L32.1355 20.8745L32.1656 20.8984L32.1945 20.9238L32.2222 20.9504L32.2485 20.9784L32.2736 21.0076L32.2973 21.0381L32.3195 21.0697L32.3402 21.1023L32.3593 21.1361L32.377 21.1708L32.3929 21.2065L32.4072 21.2431L32.4197 21.2805L32.4304 21.3187L32.4393 21.3577L32.4463 21.3974L32.4514 21.4377L32.4545 21.4786L32.4555 21.5201Z" fill="#333333"/>
<path fill-rule="evenodd" clip-rule="evenodd" d="M82.4541 46.3964H98.4345V40.9711H82.4541V46.3964Z" fill="#66798F"/>
<path d="M98.4345 47.202H82.4543V45.5909H98.4345L99.231 46.3965L98.4345 47.202ZM98.4345 47.202V45.5909L98.4754 45.5919L98.5159 45.595L98.5558 45.6002L98.595 45.6073L98.6336 45.6163L98.6714 45.6271L98.7083 45.6398L98.7445 45.6542L98.7798 45.6703L98.8141 45.6881L98.8475 45.7075L98.8798 45.7284L98.911 45.7509L98.9411 45.7749L98.97 45.8002L98.9977 45.8268L99.0241 45.8549L99.0491 45.8841L99.0728 45.9145L99.095 45.9461L99.1157 45.9787L99.1349 46.0125L99.1525 46.0472L99.1685 46.0829L99.1827 46.1195L99.1952 46.1569L99.2059 46.1951L99.2148 46.2341L99.2219 46.2738L99.227 46.3141L99.23 46.355L99.231 46.3965L99.23 46.4379L99.227 46.4788L99.2219 46.5192L99.2148 46.5588L99.2059 46.5978L99.1952 46.636L99.1827 46.6734L99.1685 46.7101L99.1525 46.7458L99.1349 46.7804L99.1157 46.8142L99.095 46.8468L99.0728 46.8784L99.0491 46.9089L99.0241 46.9381L98.9977 46.9661L98.97 46.9928L98.9411 47.0181L98.911 47.042L98.8798 47.0645L98.8475 47.0854L98.8141 47.1048L98.7798 47.1226L98.7445 47.1388L98.7083 47.1532L98.6714 47.1658L98.6336 47.1766L98.595 47.1857L98.5558 47.1928L98.5159 47.1979L98.4754 47.201L98.4345 47.202ZM99.231 40.9711V46.3965H97.6379V40.9711L98.4345 40.1655L99.231 40.9711ZM99.231 40.9711H97.6379L97.6389 40.9297L97.6419 40.8887L97.647 40.8484L97.6541 40.8087L97.663 40.7698L97.6737 40.7315L97.6862 40.6941L97.7005 40.6575L97.7164 40.6218L97.734 40.5871L97.7532 40.5534L97.7739 40.5207L97.7961 40.4892L97.8198 40.4587L97.8448 40.4295L97.8712 40.4015L97.8989 40.3748L97.9278 40.3495L97.9579 40.3255L97.9891 40.3031L98.0214 40.2822L98.0548 40.2627L98.0891 40.2449L98.1244 40.2288L98.1606 40.2144L98.1975 40.2017L98.2353 40.1909L98.2739 40.1819L98.3131 40.1748L98.353 40.1697L98.3935 40.1665L98.4345 40.1655L98.4754 40.1665L98.5159 40.1697L98.5558 40.1748L98.595 40.1819L98.6336 40.1909L98.6714 40.2017L98.7083 40.2144L98.7445 40.2288L98.7798 40.2449L98.8141 40.2627L98.8475 40.2822L98.8798 40.3031L98.911 40.3255L98.9411 40.3495L98.97 40.3748L98.9977 40.4015L99.0241 40.4295L99.0491 40.4587L99.0728 40.4892L99.095 40.5207L99.1157 40.5534L99.1349 40.5871L99.1525 40.6218L99.1685 40.6575L99.1827 40.6941L99.1952 40.7315L99.2059 40.7698L99.2148 40.8087L99.2219 40.8484L99.2269 40.8887L99.23 40.9297L99.231 40.9711ZM82.4543 40.1655H98.4345V41.7767H82.4543L81.6577 40.9711L82.4543 40.1655V40.1655ZM82.4543 40.1655V41.7767L82.4133 41.7757L82.3729 41.7725L82.333 41.7674L82.2937 41.7603L82.2552 41.7513L82.2174 41.7405L82.1804 41.7278L82.1442 41.7134L82.1089 41.6973L82.0746 41.6795L82.0412 41.6601L82.009 41.6391L81.9777 41.6167L81.9476 41.5927L81.9187 41.5674L81.891 41.5407L81.8647 41.5127L81.8396 41.4835L81.8159 41.4531L81.7937 41.4215L81.773 41.3888L81.7539 41.3551L81.7362 41.3204L81.7203 41.2847L81.706 41.2481L81.6935 41.2107L81.6828 41.1725L81.6739 41.1335L81.6669 41.0938L81.6618 41.0535L81.6587 41.0125L81.6577 40.9711L81.6587 40.9297L81.6618 40.8887L81.6669 40.8484L81.6739 40.8087L81.6828 40.7698L81.6935 40.7315L81.706 40.6941L81.7203 40.6575L81.7362 40.6218L81.7539 40.5871L81.773 40.5534L81.7937 40.5207L81.8159 40.4892L81.8396 40.4587L81.8647 40.4295L81.891 40.4015L81.9187 40.3748L81.9476 40.3495L81.9777 40.3255L82.009 40.3031L82.0412 40.2822L82.0746 40.2627L82.1089 40.2449L82.1442 40.2288L82.1804 40.2144L82.2174 40.2017L82.2552 40.1909L82.2937 40.1819L82.333 40.1748L82.3729 40.1697L82.4133 40.1665L82.4543 40.1655V40.1655ZM81.6577 46.3965V40.9711H83.2509V46.3965L82.4543 47.202L81.6577 46.3965ZM81.6577 46.3965H83.2509L83.2499 46.4379L83.2468 46.4788L83.2417 46.5192L83.2347 46.5588L83.2258 46.5978L83.2151 46.6361L83.2026 46.6734L83.1883 46.7101L83.1724 46.7458L83.1548 46.7804L83.1356 46.8142L83.1149 46.8469L83.0927 46.8784L83.069 46.9089L83.0439 46.9381L83.0176 46.9661L82.9899 46.9928L82.961 47.0181L82.9309 47.042L82.8997 47.0645L82.8674 47.0854L82.834 47.1048L82.7997 47.1226L82.7644 47.1388L82.7282 47.1532L82.6912 47.1658L82.6534 47.1766L82.6149 47.1857L82.5756 47.1928L82.5358 47.1979L82.4953 47.201L82.4543 47.202L82.4133 47.201L82.3729 47.1979L82.333 47.1928L82.2937 47.1857L82.2552 47.1766L82.2174 47.1658L82.1804 47.1532L82.1442 47.1388L82.1089 47.1226L82.0746 47.1048L82.0412 47.0854L82.009 47.0645L81.9777 47.042L81.9476 47.0181L81.9187 46.9928L81.891 46.9661L81.8647 46.9381L81.8396 46.9089L81.8159 46.8784L81.7937 46.8469L81.773 46.8142L81.7539 46.7804L81.7362 46.7458L81.7203 46.7101L81.706 46.6734L81.6935 46.6361L81.6828 46.5978L81.6739 46.5588L81.6669 46.5192L81.6618 46.4788L81.6587 46.4379L81.6577 46.3965Z" fill="#333333"/>
<path d="M97.6372 40.9712H99.2304L99.2294 41.0127L99.2263 41.0536L99.2212 41.0939L99.2142 41.1336L99.2053 41.1726L99.1946 41.2108L99.1821 41.2482L99.1678 41.2848L99.1519 41.3205L99.1342 41.3552L99.1151 41.3889L99.0944 41.4216L99.0722 41.4532L99.0485 41.4836L99.0234 41.5128L98.9971 41.5408L98.9694 41.5675L98.9405 41.5928L98.9104 41.6168L98.8792 41.6392L98.8469 41.6602L98.8135 41.6796L98.7792 41.6974L98.7439 41.7135L98.7077 41.7279L98.6707 41.7406L98.6329 41.7514L98.5943 41.7604L98.5551 41.7675L98.5152 41.7727L98.4748 41.7758L98.4338 41.7768L98.3928 41.7758L98.3524 41.7727L98.3125 41.7675L98.2732 41.7604L98.2347 41.7514L98.1969 41.7406L98.1599 41.7279L98.1237 41.7135L98.0884 41.6974L98.0541 41.6796L98.0207 41.6602L97.9884 41.6392L97.9572 41.6168L97.9271 41.5928L97.8982 41.5675L97.8705 41.5408L97.8442 41.5128L97.8191 41.4836L97.7954 41.4532L97.7732 41.4216L97.7525 41.3889L97.7333 41.3552L97.7157 41.3205L97.6998 41.2848L97.6855 41.2482L97.673 41.2108L97.6623 41.1726L97.6534 41.1336L97.6464 41.0939L97.6413 41.0536L97.6382 41.0127L97.6372 40.9712ZM99.2304 33.4103V40.9712H97.6372V33.4103H99.2304ZM99.2304 33.4103H97.6372L97.6382 33.3689L97.6413 33.3279L97.6464 33.2876L97.6534 33.2479L97.6623 33.209L97.673 33.1707L97.6855 33.1333L97.6998 33.0967L97.7157 33.061L97.7333 33.0263L97.7525 32.9926L97.7732 32.9599L97.7954 32.9284L97.8191 32.8979L97.8442 32.8687L97.8705 32.8407L97.8982 32.814L97.9271 32.7887L97.9572 32.7647L97.9884 32.7423L98.0207 32.7214L98.0541 32.702L98.0884 32.6841L98.1237 32.668L98.1599 32.6536L98.1969 32.6409L98.2347 32.6301L98.2732 32.6211L98.3125 32.614L98.3523 32.6089L98.3928 32.6057L98.4338 32.6047L98.4748 32.6057L98.5152 32.6089L98.5551 32.614L98.5943 32.6211L98.6329 32.6301L98.6707 32.6409L98.7077 32.6536L98.7439 32.668L98.7792 32.6841L98.8135 32.702L98.8469 32.7214L98.8792 32.7423L98.9104 32.7647L98.9405 32.7887L98.9694 32.814L98.9971 32.8407L99.0234 32.8687L99.0485 32.8979L99.0722 32.9284L99.0944 32.9599L99.1151 32.9926L99.1342 33.0263L99.1519 33.061L99.1678 33.0967L99.1821 33.1333L99.1946 33.1707L99.2053 33.209L99.2142 33.2479L99.2212 33.2876L99.2263 33.3279L99.2294 33.3689L99.2304 33.4103Z" fill="#333333"/>
<path fill-rule="evenodd" clip-rule="evenodd" d="M31.6594 42.0099H15.7935V36.5267H31.6594V42.0099Z" fill="#66798F"/>
<path d="M15.7932 41.2042H31.6592V42.8154H15.7932L14.9966 42.0098L15.7932 41.2042V41.2042ZM15.7932 41.2042V42.8154L15.7522 42.8144L15.7117 42.8113L15.6718 42.8061L15.6326 42.799L15.5941 42.79L15.5563 42.7792L15.5193 42.7665L15.4831 42.7521L15.4478 42.736L15.4135 42.7182L15.3801 42.6988L15.3478 42.6778L15.3166 42.6554L15.2865 42.6314L15.2576 42.6061L15.2299 42.5794L15.2035 42.5514L15.1785 42.5222L15.1548 42.4918L15.1326 42.4602L15.1119 42.4275L15.0927 42.3938L15.0751 42.3591L15.0592 42.3234L15.0449 42.2868L15.0324 42.2494L15.0217 42.2112L15.0128 42.1722L15.0058 42.1325L15.0007 42.0922L14.9976 42.0512L14.9966 42.0098L14.9976 41.9684L15.0007 41.9275L15.0058 41.8871L15.0128 41.8475L15.0217 41.8085L15.0324 41.7702L15.0449 41.7328L15.0592 41.6962L15.0751 41.6605L15.0927 41.6258L15.1119 41.5921L15.1326 41.5594L15.1548 41.5279L15.1785 41.4974L15.2035 41.4682L15.2299 41.4402L15.2576 41.4135L15.2865 41.3882L15.3166 41.3642L15.3478 41.3418L15.3801 41.3209L15.4135 41.3015L15.4478 41.2836L15.4831 41.2675L15.5193 41.2531L15.5563 41.2404L15.5941 41.2296L15.6326 41.2206L15.6718 41.2135L15.7117 41.2084L15.7522 41.2052L15.7932 41.2042V41.2042ZM16.5898 36.5266V42.0098H14.9966V36.5266L15.7932 35.7211L16.5898 36.5266ZM16.5898 36.5266H14.9966L14.9976 36.4852L15.0007 36.4443L15.0058 36.4039L15.0128 36.3643L15.0217 36.3253L15.0324 36.2871L15.0449 36.2497L15.0592 36.2131L15.0751 36.1774L15.0927 36.1427L15.1119 36.1089L15.1326 36.0763L15.1548 36.0447L15.1785 36.0142L15.2035 35.985L15.2299 35.957L15.2576 35.9304L15.2865 35.905L15.3166 35.8811L15.3478 35.8586L15.3801 35.8377L15.4135 35.8183L15.4478 35.8005L15.4831 35.7844L15.5193 35.7699L15.5563 35.7573L15.5941 35.7465L15.6326 35.7374L15.6718 35.7304L15.7117 35.7252L15.7522 35.7221L15.7932 35.7211L15.8341 35.7221L15.8746 35.7252L15.9145 35.7304L15.9537 35.7374L15.9923 35.7465L16.0301 35.7573L16.067 35.7699L16.1033 35.7844L16.1386 35.8005L16.1729 35.8183L16.2062 35.8377L16.2385 35.8586L16.2697 35.8811L16.2999 35.905L16.3287 35.9304L16.3564 35.957L16.3828 35.985L16.4078 36.0142L16.4315 36.0447L16.4537 36.0763L16.4744 36.1089L16.4936 36.1427L16.5112 36.1774L16.5272 36.2131L16.5414 36.2497L16.554 36.2871L16.5646 36.3253L16.5736 36.3643L16.5806 36.4039L16.5857 36.4443L16.5888 36.4852L16.5898 36.5266ZM31.6591 37.3322H15.7932V35.7211H31.6591L32.4557 36.5266L31.6591 37.3322V37.3322ZM31.6591 37.3322V35.7211L31.7001 35.7221L31.7406 35.7252L31.7805 35.7303L31.8197 35.7374L31.8583 35.7465L31.8961 35.7573L31.933 35.7699L31.9692 35.7844L32.0045 35.8005L32.0388 35.8183L32.0722 35.8377L32.1045 35.8586L32.1357 35.8811L32.1658 35.905L32.1947 35.9304L32.2224 35.957L32.2488 35.985L32.2738 36.0142L32.2975 36.0447L32.3197 36.0763L32.3404 36.1089L32.3596 36.1427L32.3772 36.1774L32.3931 36.2131L32.4074 36.2497L32.4199 36.2871L32.4306 36.3253L32.4395 36.3643L32.4466 36.4039L32.4516 36.4443L32.4547 36.4852L32.4557 36.5266L32.4547 36.5681L32.4516 36.609L32.4466 36.6493L32.4395 36.689L32.4306 36.728L32.4199 36.7662L32.4074 36.8036L32.3931 36.8402L32.3772 36.8759L32.3596 36.9106L32.3404 36.9444L32.3197 36.977L32.2975 37.0086L32.2738 37.0391L32.2488 37.0683L32.2224 37.0963L32.1947 37.1229L32.1658 37.1483L32.1357 37.1722L32.1045 37.1947L32.0722 37.2156L32.0388 37.235L32.0045 37.2528L31.9692 37.2689L31.933 37.2834L31.8961 37.296L31.8583 37.3068L31.8197 37.3158L31.7805 37.3229L31.7406 37.3281L31.7001 37.3312L31.6591 37.3322V37.3322ZM30.8626 42.0098V36.5266H32.4557V42.0098L31.6592 42.8154L30.8626 42.0098ZM30.8626 42.0098H32.4557L32.4547 42.0512L32.4516 42.0922L32.4466 42.1325L32.4395 42.1722L32.4306 42.2112L32.4199 42.2494L32.4074 42.2868L32.3932 42.3234L32.3772 42.3591L32.3596 42.3938L32.3404 42.4275L32.3197 42.4602L32.2975 42.4918L32.2738 42.5222L32.2488 42.5514L32.2224 42.5794L32.1947 42.6061L32.1658 42.6314L32.1357 42.6554L32.1045 42.6778L32.0722 42.6988L32.0388 42.7182L32.0045 42.736L31.9692 42.7521L31.933 42.7665L31.8961 42.7792L31.8583 42.79L31.8197 42.799L31.7805 42.8061L31.7406 42.8113L31.7001 42.8144L31.6592 42.8154L31.6182 42.8144L31.5777 42.8113L31.5378 42.8061L31.4986 42.799L31.46 42.79L31.4222 42.7792L31.3853 42.7665L31.3491 42.7521L31.3138 42.736L31.2795 42.7182L31.2461 42.6988L31.2138 42.6778L31.1826 42.6554L31.1525 42.6314L31.1236 42.6061L31.0959 42.5794L31.0695 42.5514L31.0445 42.5222L31.0208 42.4918L30.9986 42.4602L30.9779 42.4275L30.9587 42.3938L30.9411 42.3591L30.9251 42.3234L30.9109 42.2868L30.8984 42.2494L30.8877 42.2112L30.8787 42.1722L30.8717 42.1325L30.8667 42.0922L30.8636 42.0512L30.8626 42.0098Z" fill="#333333"/>
<path d="M82.4538 35.8352V37.4464L82.4128 37.4453L82.3724 37.4422L82.3325 37.4371L82.2933 37.43L82.2547 37.421L82.2169 37.4102L82.1799 37.3975L82.1437 37.3831L82.1084 37.3669L82.0741 37.3491L82.0408 37.3297L82.0085 37.3088L81.9773 37.2864L81.9471 37.2624L81.9183 37.2371L81.8905 37.2104L81.8642 37.1824L81.8391 37.1532L81.8154 37.1227L81.7933 37.0912L81.7726 37.0585L81.7534 37.0248L81.7358 36.9901L81.7198 36.9544L81.7055 36.9177L81.693 36.8804L81.6823 36.8421L81.6734 36.8031L81.6664 36.7635L81.6613 36.7231L81.6582 36.6822L81.6572 36.6408L81.6582 36.5993L81.6613 36.5584L81.6664 36.5181L81.6734 36.4784L81.6823 36.4394L81.693 36.4012L81.7055 36.3638L81.7198 36.3272L81.7358 36.2915L81.7534 36.2568L81.7726 36.2231L81.7933 36.1904L81.8154 36.1588L81.8391 36.1284L81.8642 36.0992L81.8905 36.0712L81.9183 36.0445L81.9471 36.0192L81.9773 35.9952L82.0085 35.9728L82.0408 35.9518L82.0741 35.9324L82.1084 35.9146L82.1437 35.8985L82.1799 35.8841L82.2169 35.8714L82.2547 35.8606L82.2933 35.8516L82.3325 35.8445L82.3724 35.8393L82.4128 35.8362L82.4538 35.8352ZM95.734 37.4464H82.4538V35.8352H95.734V37.4464ZM95.734 37.4464V35.8352L95.775 35.8362L95.8155 35.8393L95.8554 35.8445L95.8946 35.8516L95.9331 35.8606L95.9709 35.8714L96.0079 35.8841L96.0441 35.8985L96.0794 35.9146L96.1137 35.9324L96.1471 35.9518L96.1794 35.9728L96.2106 35.9952L96.2407 36.0192L96.2696 36.0445L96.2973 36.0712L96.3237 36.0992L96.3487 36.1284L96.3724 36.1588L96.3946 36.1904L96.4153 36.2231L96.4345 36.2568L96.4521 36.2915L96.468 36.3272L96.4823 36.3638L96.4948 36.4012L96.5055 36.4394L96.5144 36.4784L96.5214 36.5181L96.5265 36.5584L96.5296 36.5993L96.5306 36.6408L96.5296 36.6822L96.5265 36.7231L96.5214 36.7635L96.5144 36.8031L96.5055 36.8421L96.4948 36.8804L96.4823 36.9177L96.468 36.9544L96.4521 36.9901L96.4345 37.0248L96.4153 37.0585L96.3946 37.0912L96.3724 37.1227L96.3487 37.1532L96.3237 37.1824L96.2973 37.2104L96.2696 37.2371L96.2407 37.2624L96.2106 37.2864L96.1794 37.3088L96.1471 37.3297L96.1137 37.3491L96.0794 37.3669L96.0441 37.3831L96.0079 37.3975L95.9709 37.4102L95.9331 37.421L95.8946 37.43L95.8554 37.4371L95.8155 37.4422L95.775 37.4453L95.734 37.4464V37.4464Z" fill="#333333"/>
<path d="M82.4538 31.9395V33.5506L82.4128 33.5496L82.3724 33.5465L82.3325 33.5413L82.2933 33.5342L82.2547 33.5252L82.2169 33.5144L82.1799 33.5017L82.1437 33.4873L82.1084 33.4712L82.0741 33.4534L82.0408 33.434L82.0085 33.4131L81.9773 33.3906L81.9471 33.3666L81.9183 33.3413L81.8905 33.3147L81.8642 33.2866L81.8391 33.2574L81.8154 33.227L81.7933 33.1954L81.7726 33.1628L81.7534 33.129L81.7358 33.0943L81.7198 33.0586L81.7055 33.022L81.693 32.9846L81.6823 32.9464L81.6734 32.9074L81.6664 32.8677L81.6613 32.8274L81.6582 32.7865L81.6572 32.745L81.6582 32.7036L81.6613 32.6627L81.6664 32.6223L81.6734 32.5827L81.6823 32.5437L81.693 32.5055L81.7055 32.4681L81.7198 32.4314L81.7358 32.3957L81.7534 32.3611L81.7726 32.3273L81.7933 32.2946L81.8154 32.2631L81.8391 32.2326L81.8642 32.2034L81.8905 32.1754L81.9183 32.1487L81.9471 32.1234L81.9773 32.0995L82.0085 32.077L82.0408 32.0561L82.0741 32.0367L82.1084 32.0189L82.1437 32.0027L82.1799 31.9883L82.2169 31.9757L82.2547 31.9649L82.2933 31.9558L82.3325 31.9487L82.3724 31.9436L82.4128 31.9405L82.4538 31.9395ZM95.734 33.5506H82.4538V31.9395H95.734V33.5506ZM95.734 33.5506V31.9395L95.775 31.9405L95.8155 31.9436L95.8554 31.9487L95.8946 31.9558L95.9331 31.9649L95.9709 31.9757L96.0079 31.9883L96.0441 32.0027L96.0794 32.0189L96.1137 32.0367L96.1471 32.0561L96.1794 32.077L96.2106 32.0995L96.2407 32.1234L96.2696 32.1487L96.2973 32.1754L96.3237 32.2034L96.3487 32.2326L96.3724 32.2631L96.3946 32.2946L96.4153 32.3273L96.4345 32.3611L96.4521 32.3957L96.468 32.4314L96.4823 32.4681L96.4948 32.5054L96.5055 32.5437L96.5144 32.5827L96.5214 32.6223L96.5265 32.6627L96.5296 32.7036L96.5306 32.745L96.5296 32.7865L96.5265 32.8274L96.5214 32.8677L96.5144 32.9074L96.5055 32.9464L96.4948 32.9846L96.4823 33.022L96.468 33.0586L96.4521 33.0943L96.4345 33.129L96.4153 33.1628L96.3946 33.1954L96.3724 33.227L96.3487 33.2574L96.3237 33.2866L96.2973 33.3147L96.2696 33.3413L96.2407 33.3666L96.2106 33.3906L96.1794 33.4131L96.1471 33.434L96.1137 33.4534L96.0794 33.4712L96.0441 33.4873L96.0079 33.5017L95.9709 33.5144L95.9331 33.5252L95.8946 33.5342L95.8554 33.5413L95.8155 33.5465L95.775 33.5496L95.734 33.5506V33.5506Z" fill="#333333"/>
<path d="M82.4538 28.1013V29.7125L82.4128 29.7115L82.3724 29.7083L82.3325 29.7032L82.2933 29.6961L82.2547 29.6871L82.2169 29.6763L82.1799 29.6636L82.1437 29.6492L82.1084 29.6331L82.0741 29.6153L82.0408 29.5958L82.0085 29.5749L81.9773 29.5525L81.9471 29.5285L81.9183 29.5032L81.8905 29.4765L81.8642 29.4485L81.8391 29.4193L81.8154 29.3888L81.7933 29.3573L81.7726 29.3246L81.7534 29.2909L81.7358 29.2562L81.7198 29.2205L81.7055 29.1839L81.693 29.1465L81.6823 29.1082L81.6734 29.0693L81.6664 29.0296L81.6613 28.9893L81.6582 28.9483L81.6572 28.9069L81.6582 28.8655L81.6613 28.8245L81.6664 28.7842L81.6734 28.7445L81.6823 28.7055L81.693 28.6673L81.7055 28.6299L81.7198 28.5933L81.7358 28.5576L81.7534 28.5229L81.7726 28.4892L81.7933 28.4565L81.8154 28.425L81.8391 28.3945L81.8642 28.3653L81.8905 28.3373L81.9183 28.3106L81.9471 28.2853L81.9773 28.2613L82.0085 28.2389L82.0408 28.2179L82.0741 28.1985L82.1084 28.1807L82.1437 28.1646L82.1799 28.1502L82.2169 28.1375L82.2547 28.1267L82.2933 28.1177L82.3325 28.1106L82.3724 28.1055L82.4128 28.1023L82.4538 28.1013V28.1013ZM95.734 29.7125H82.4538V28.1013H95.734V29.7125ZM95.734 29.7125V28.1013L95.775 28.1023L95.8155 28.1055L95.8554 28.1106L95.8946 28.1177L95.9331 28.1267L95.9709 28.1375L96.0079 28.1502L96.0441 28.1646L96.0794 28.1807L96.1137 28.1985L96.1471 28.2179L96.1794 28.2389L96.2106 28.2613L96.2407 28.2853L96.2696 28.3106L96.2973 28.3373L96.3237 28.3653L96.3487 28.3945L96.3724 28.4249L96.3946 28.4565L96.4153 28.4892L96.4345 28.5229L96.4521 28.5576L96.468 28.5933L96.4823 28.6299L96.4948 28.6673L96.5055 28.7055L96.5144 28.7445L96.5214 28.7842L96.5265 28.8245L96.5296 28.8655L96.5306 28.9069L96.5296 28.9483L96.5265 28.9893L96.5214 29.0296L96.5144 29.0693L96.5055 29.1082L96.4948 29.1465L96.4823 29.1839L96.468 29.2205L96.4521 29.2562L96.4345 29.2909L96.4153 29.3246L96.3946 29.3573L96.3724 29.3888L96.3487 29.4193L96.3237 29.4485L96.2973 29.4765L96.2696 29.5032L96.2407 29.5285L96.2106 29.5525L96.1794 29.5749L96.1471 29.5958L96.1137 29.6153L96.0794 29.6331L96.0441 29.6492L96.0079 29.6636L95.9709 29.6763L95.9331 29.6871L95.8946 29.6961L95.8554 29.7032L95.8155 29.7083L95.775 29.7115L95.734 29.7125V29.7125Z" fill="#333333"/>
<path d="M18.9417 31.6199V33.2236L18.9007 33.2226L18.8602 33.2195L18.8204 33.2143L18.7811 33.2073L18.7426 33.1984L18.7048 33.1876L18.6678 33.1749L18.6316 33.1606L18.5963 33.1445L18.562 33.1268L18.5286 33.1075L18.4962 33.0866L18.465 33.0643L18.4349 33.0405L18.406 33.0152L18.3783 32.9887L18.352 32.9609L18.3269 32.9318L18.3033 32.9015L18.2811 32.87L18.2603 32.8375L18.2412 32.8039L18.2236 32.7693L18.2076 32.7338L18.1933 32.6974L18.1808 32.6601L18.1701 32.6221L18.1612 32.5833L18.1542 32.5438L18.1491 32.5037L18.146 32.463L18.145 32.4217L18.146 32.3805L18.1491 32.3398L18.1542 32.2996L18.1612 32.2601L18.1701 32.2214L18.1808 32.1833L18.1933 32.146L18.2076 32.1097L18.2236 32.0741L18.2412 32.0395L18.2603 32.006L18.2811 31.9735L18.3033 31.942L18.3269 31.9117L18.352 31.8826L18.3783 31.8547L18.406 31.8282L18.4349 31.803L18.465 31.7792L18.4962 31.7568L18.5286 31.736L18.562 31.7167L18.5963 31.6989L18.6316 31.6829L18.6678 31.6686L18.7048 31.6559L18.7426 31.6451L18.7811 31.6362L18.8204 31.6292L18.8602 31.624L18.9007 31.6209L18.9417 31.6199ZM31.4843 33.2236H18.9417V31.6199H31.4843V33.2236ZM31.4843 33.2236V31.6199L31.5253 31.6209L31.5658 31.624L31.6057 31.6292L31.6449 31.6362L31.6834 31.6451L31.7212 31.6559L31.7582 31.6686L31.7944 31.6829L31.8297 31.6989L31.864 31.7167L31.8974 31.736L31.9298 31.7568L31.961 31.7792L31.9911 31.803L32.02 31.8282L32.0477 31.8547L32.0741 31.8826L32.0991 31.9117L32.1227 31.942L32.1449 31.9735L32.1657 32.006L32.1849 32.0395L32.2024 32.0741L32.2184 32.1097L32.2327 32.146L32.2452 32.1833L32.2559 32.2214L32.2648 32.2601L32.2718 32.2996L32.2769 32.3398L32.28 32.3805L32.281 32.4217L32.28 32.463L32.2769 32.5037L32.2718 32.5438L32.2648 32.5833L32.2559 32.6221L32.2452 32.6601L32.2327 32.6974L32.2184 32.7338L32.2024 32.7693L32.1849 32.8039L32.1657 32.8375L32.1449 32.87L32.1227 32.9015L32.0991 32.9318L32.0741 32.9609L32.0477 32.9887L32.02 33.0152L31.9911 33.0405L31.961 33.0643L31.9298 33.0866L31.8974 33.1075L31.864 33.1268L31.8297 33.1445L31.7944 33.1606L31.7582 33.1749L31.7212 33.1876L31.6834 33.1984L31.6449 33.2073L31.6057 33.2143L31.5658 33.2195L31.5253 33.2226L31.4843 33.2236Z" fill="#333333"/>
<path d="M18.9417 27.7241V29.3278L18.9007 29.3268L18.8602 29.3237L18.8204 29.3186L18.7811 29.3116L18.7426 29.3026L18.7048 29.2918L18.6678 29.2792L18.6316 29.2648L18.5963 29.2488L18.562 29.2311L18.5286 29.2117L18.4962 29.1909L18.465 29.1685L18.4349 29.1447L18.406 29.1195L18.3783 29.093L18.352 29.0651L18.3269 29.036L18.3033 29.0057L18.2811 28.9743L18.2603 28.9418L18.2412 28.9082L18.2236 28.8736L18.2076 28.8381L18.1933 28.8017L18.1808 28.7644L18.1701 28.7263L18.1612 28.6876L18.1542 28.6481L18.1491 28.6079L18.146 28.5673L18.145 28.526L18.146 28.4847L18.1491 28.444L18.1542 28.4039L18.1612 28.3644L18.1701 28.3256L18.1808 28.2876L18.1933 28.2503L18.2076 28.2139L18.2236 28.1784L18.2412 28.1438L18.2603 28.1102L18.2811 28.0777L18.3033 28.0462L18.3269 28.0159L18.352 27.9868L18.3783 27.959L18.406 27.9325L18.4349 27.9072L18.465 27.8834L18.4962 27.8611L18.5286 27.8402L18.562 27.8209L18.5963 27.8032L18.6316 27.7872L18.6678 27.7728L18.7048 27.7602L18.7426 27.7494L18.7811 27.7404L18.8204 27.7334L18.8602 27.7283L18.9007 27.7251L18.9417 27.7241V27.7241ZM31.4843 29.3278H18.9417V27.7241H31.4843V29.3278ZM31.4843 29.3278V27.7241L31.5253 27.7251L31.5658 27.7283L31.6057 27.7334L31.6449 27.7404L31.6834 27.7494L31.7212 27.7602L31.7582 27.7728L31.7944 27.7872L31.8297 27.8032L31.864 27.8209L31.8974 27.8402L31.9298 27.8611L31.961 27.8834L31.9911 27.9072L32.02 27.9325L32.0477 27.959L32.0741 27.9868L32.0991 28.0159L32.1227 28.0462L32.1449 28.0777L32.1657 28.1102L32.1849 28.1438L32.2024 28.1784L32.2184 28.2139L32.2327 28.2503L32.2452 28.2876L32.2559 28.3256L32.2648 28.3644L32.2718 28.4039L32.2769 28.444L32.28 28.4847L32.281 28.526L32.28 28.5673L32.2769 28.6079L32.2718 28.6481L32.2648 28.6876L32.2559 28.7263L32.2452 28.7644L32.2327 28.8017L32.2184 28.8381L32.2024 28.8736L32.1849 28.9082L32.1657 28.9418L32.1449 28.9743L32.1227 29.0057L32.0991 29.036L32.0741 29.0651L32.0477 29.093L32.02 29.1195L31.9911 29.1447L31.961 29.1685L31.9298 29.1909L31.8974 29.2117L31.864 29.2311L31.8297 29.2488L31.7944 29.2648L31.7582 29.2792L31.7212 29.2918L31.6834 29.3026L31.6449 29.3116L31.6057 29.3186L31.5658 29.3237L31.5253 29.3268L31.4843 29.3278Z" fill="#333333"/>
<path d="M18.9417 23.886V25.4897L18.9007 25.4887L18.8602 25.4856L18.8204 25.4804L18.7811 25.4734L18.7426 25.4645L18.7048 25.4537L18.6678 25.441L18.6316 25.4267L18.5963 25.4106L18.562 25.3929L18.5286 25.3736L18.4962 25.3528L18.465 25.3304L18.4349 25.3066L18.406 25.2814L18.3783 25.2549L18.352 25.227L18.3269 25.1979L18.3033 25.1676L18.2811 25.1361L18.2603 25.1036L18.2412 25.07L18.2236 25.0354L18.2076 24.9999L18.1933 24.9635L18.1808 24.9262L18.1701 24.8882L18.1612 24.8495L18.1542 24.81L18.1491 24.7698L18.146 24.7291L18.145 24.6879L18.146 24.6466L18.1491 24.6059L18.1542 24.5657L18.1612 24.5262L18.1701 24.4875L18.1808 24.4495L18.1933 24.4122L18.2076 24.3758L18.2236 24.3403L18.2412 24.3057L18.2603 24.2721L18.2811 24.2396L18.3033 24.2081L18.3269 24.1778L18.352 24.1487L18.3783 24.1208L18.406 24.0943L18.4349 24.0691L18.465 24.0453L18.4962 24.0229L18.5286 24.0021L18.562 23.9828L18.5963 23.9651L18.6316 23.949L18.6678 23.9347L18.7048 23.922L18.7426 23.9112L18.7811 23.9023L18.8204 23.8953L18.8602 23.8901L18.9007 23.887L18.9417 23.886ZM31.4843 25.4897H18.9417V23.886H31.4843V25.4897ZM31.4843 25.4897V23.886L31.5253 23.887L31.5658 23.8901L31.6057 23.8953L31.6449 23.9023L31.6834 23.9112L31.7212 23.922L31.7582 23.9347L31.7944 23.949L31.8297 23.9651L31.864 23.9828L31.8974 24.0021L31.9298 24.0229L31.961 24.0453L31.9911 24.0691L32.02 24.0943L32.0477 24.1208L32.0741 24.1487L32.0991 24.1778L32.1227 24.2081L32.1449 24.2396L32.1657 24.2721L32.1849 24.3057L32.2024 24.3403L32.2184 24.3758L32.2327 24.4122L32.2452 24.4494L32.2559 24.4875L32.2648 24.5262L32.2718 24.5657L32.2769 24.6059L32.28 24.6466L32.281 24.6878L32.28 24.7291L32.2769 24.7698L32.2718 24.81L32.2648 24.8495L32.2559 24.8882L32.2452 24.9262L32.2327 24.9635L32.2184 24.9999L32.2024 25.0354L32.1849 25.07L32.1657 25.1036L32.1449 25.1361L32.1227 25.1676L32.0991 25.1979L32.0741 25.227L32.0477 25.2549L32.02 25.2814L31.9911 25.3066L31.961 25.3304L31.9298 25.3527L31.8974 25.3736L31.864 25.3929L31.8297 25.4106L31.7944 25.4267L31.7582 25.441L31.7212 25.4537L31.6834 25.4645L31.6449 25.4734L31.6057 25.4804L31.5658 25.4856L31.5253 25.4887L31.4843 25.4897V25.4897Z" fill="#333333"/>
<path fill-rule="evenodd" clip-rule="evenodd" d="M41.5493 14.2496H52.8737V18.4462H41.5493V14.2496Z" fill="#B0C1D4"/>
<path d="M52.8732 15.0552H41.5495V13.4441H52.8732L53.6698 14.2497L52.8732 15.0552V15.0552ZM52.8732 15.0552V13.4441L52.9142 13.4451L52.9547 13.4482L52.9946 13.4534L53.0338 13.4605L53.0723 13.4695L53.1101 13.4803L53.1471 13.493L53.1833 13.5074L53.2186 13.5235L53.2529 13.5413L53.2863 13.5607L53.3186 13.5816L53.3498 13.6041L53.3799 13.6281L53.4088 13.6534L53.4365 13.68L53.4629 13.7081L53.4879 13.7373L53.5116 13.7677L53.5338 13.7993L53.5545 13.8319L53.5737 13.8657L53.5913 13.9004L53.6072 13.9361L53.6215 13.9727L53.634 14.0101L53.6447 14.0483L53.6536 14.0873L53.6606 14.127L53.6657 14.1673L53.6688 14.2082L53.6698 14.2497L53.6688 14.2911L53.6657 14.332L53.6606 14.3724L53.6536 14.412L53.6447 14.451L53.634 14.4892L53.6215 14.5266L53.6072 14.5633L53.5913 14.599L53.5737 14.6336L53.5545 14.6674L53.5338 14.7001L53.5116 14.7316L53.4879 14.7621L53.4629 14.7913L53.4365 14.8193L53.4088 14.846L53.3799 14.8713L53.3498 14.8952L53.3186 14.9177L53.2863 14.9386L53.2529 14.958L53.2186 14.9758L53.1833 14.992L53.1471 15.0064L53.1101 15.019L53.0723 15.0298L53.0338 15.0389L52.9946 15.046L52.9547 15.0511L52.9142 15.0542L52.8732 15.0552V15.0552ZM52.0766 18.4462V14.2497H53.6698V18.4462L52.8732 19.2518L52.0766 18.4462ZM52.0766 18.4462H53.6698L53.6688 18.4877L53.6657 18.5286L53.6606 18.5689L53.6536 18.6086L53.6447 18.6476L53.634 18.6858L53.6215 18.7232L53.6072 18.7598L53.5913 18.7955L53.5737 18.8302L53.5545 18.864L53.5338 18.8966L53.5116 18.9282L53.4879 18.9587L53.4629 18.9879L53.4365 19.0159L53.4088 19.0425L53.3799 19.0679L53.3498 19.0918L53.3186 19.1143L53.2863 19.1352L53.2529 19.1546L53.2186 19.1724L53.1833 19.1885L53.1471 19.203L53.1101 19.2156L53.0723 19.2264L53.0338 19.2354L52.9946 19.2425L52.9547 19.2477L52.9142 19.2508L52.8732 19.2518L52.8323 19.2508L52.7918 19.2477L52.7519 19.2425L52.7127 19.2354L52.6741 19.2264L52.6363 19.2156L52.5994 19.203L52.5631 19.1885L52.5278 19.1724L52.4935 19.1546L52.4602 19.1352L52.4279 19.1143L52.3967 19.0918L52.3665 19.0679L52.3377 19.0425L52.31 19.0159L52.2836 18.9879L52.2586 18.9587L52.2349 18.9282L52.2127 18.8966L52.192 18.864L52.1728 18.8302L52.1552 18.7955L52.1392 18.7598L52.125 18.7232L52.1124 18.6858L52.1018 18.6476L52.0928 18.6086L52.0858 18.5689L52.0807 18.5286L52.0776 18.4877L52.0766 18.4462ZM41.5495 17.6407H52.8732V19.2518H41.5495L40.7529 18.4462L41.5495 17.6407V17.6407ZM41.5495 17.6407V19.2518L41.5085 19.2508L41.4681 19.2477L41.4282 19.2425L41.389 19.2355L41.3504 19.2264L41.3126 19.2156L41.2756 19.203L41.2394 19.1885L41.2041 19.1724L41.1698 19.1546L41.1365 19.1352L41.1042 19.1143L41.0729 19.0918L41.0428 19.0679L41.014 19.0425L40.9862 19.0159L40.9599 18.9879L40.9348 18.9587L40.9111 18.9282L40.8889 18.8966L40.8683 18.864L40.8491 18.8302L40.8315 18.7955L40.8155 18.7598L40.8012 18.7232L40.7887 18.6858L40.778 18.6476L40.7691 18.6086L40.7621 18.5689L40.757 18.5286L40.7539 18.4877L40.7529 18.4462L40.7539 18.4048L40.757 18.3639L40.7621 18.3235L40.7691 18.2839L40.778 18.2449L40.7887 18.2067L40.8012 18.1693L40.8155 18.1327L40.8315 18.097L40.8491 18.0623L40.8683 18.0285L40.8889 17.9959L40.9111 17.9643L40.9348 17.9338L40.9599 17.9046L40.9862 17.8766L41.014 17.85L41.0428 17.8246L41.0729 17.8007L41.1042 17.7782L41.1365 17.7573L41.1698 17.7379L41.2041 17.7201L41.2394 17.704L41.2756 17.6895L41.3126 17.6769L41.3504 17.6661L41.389 17.657L41.4282 17.65L41.4681 17.6448L41.5085 17.6417L41.5495 17.6407V17.6407ZM42.3461 14.2497V18.4462H40.7529V14.2497L41.5495 13.4441L42.3461 14.2497H42.3461ZM42.3461 14.2497H40.7529L40.7539 14.2082L40.757 14.1673L40.7621 14.127L40.7691 14.0873L40.778 14.0483L40.7887 14.0101L40.8012 13.9727L40.8155 13.9361L40.8315 13.9004L40.8491 13.8657L40.8683 13.8319L40.8889 13.7993L40.9111 13.7677L40.9348 13.7373L40.9599 13.7081L40.9862 13.68L41.014 13.6534L41.0428 13.6281L41.0729 13.6041L41.1042 13.5816L41.1364 13.5607L41.1698 13.5413L41.2041 13.5235L41.2394 13.5074L41.2756 13.493L41.3126 13.4803L41.3504 13.4695L41.389 13.4605L41.4282 13.4534L41.4681 13.4482L41.5085 13.4451L41.5495 13.4441L41.5905 13.4451L41.631 13.4482L41.6708 13.4534L41.7101 13.4605L41.7486 13.4695L41.7864 13.4803L41.8234 13.493L41.8596 13.5074L41.8949 13.5235L41.9292 13.5413L41.9626 13.5607L41.9949 13.5816L42.0261 13.6041L42.0562 13.6281L42.0851 13.6534L42.1128 13.68L42.1392 13.7081L42.1642 13.7373L42.1879 13.7677L42.2101 13.7993L42.2308 13.8319L42.25 13.8657L42.2676 13.9004L42.2835 13.9361L42.2978 13.9727L42.3103 14.0101L42.321 14.0483L42.3299 14.0873L42.3369 14.127L42.342 14.1673L42.3451 14.2082L42.3461 14.2497H42.3461Z" fill="#333333"/>
<path d="M58.2001 17.3168C58.8168 17.3168 59.3167 16.8112 59.3167 16.1876C59.3167 15.5639 58.8168 15.0583 58.2001 15.0583C57.5834 15.0583 57.0835 15.5639 57.0835 16.1876C57.0835 16.8112 57.5834 17.3168 58.2001 17.3168Z" fill="#FFEEA3"/>
<path d="M62.4628 17.3168C63.0795 17.3168 63.5794 16.8112 63.5794 16.1876C63.5794 15.5639 63.0795 15.0583 62.4628 15.0583C61.8461 15.0583 61.3462 15.5639 61.3462 16.1876C61.3462 16.8112 61.8461 17.3168 62.4628 17.3168Z" fill="#FFEEA3"/>
<path d="M66.8241 17.3168C67.4408 17.3168 67.9407 16.8112 67.9407 16.1876C67.9407 15.5639 67.4408 15.0583 66.8241 15.0583C66.2074 15.0583 65.7075 15.5639 65.7075 16.1876C65.7075 16.8112 66.2074 17.3168 66.8241 17.3168Z" fill="#FFEEA3"/>
<path d="M71.2724 17.3168C71.8891 17.3168 72.389 16.8112 72.389 16.1876C72.389 15.5639 71.8891 15.0583 71.2724 15.0583C70.6557 15.0583 70.1558 15.5639 70.1558 16.1876C70.1558 16.8112 70.6557 17.3168 71.2724 17.3168Z" fill="#FFEEA3"/>
<path d="M44.0017 67.4399V69.0511L43.9607 69.0501L43.9202 69.047L43.8803 69.0418L43.8411 69.0347L43.8026 69.0257L43.7648 69.0149L43.7278 69.0022L43.6916 68.9878L43.6563 68.9717L43.622 68.9539L43.5886 68.9345L43.5563 68.9135L43.5251 68.8911L43.495 68.8671L43.4661 68.8418L43.4384 68.8151L43.412 68.7871L43.387 68.7579L43.3633 68.7275L43.3411 68.6959L43.3204 68.6632L43.3012 68.6295L43.2836 68.5948L43.2677 68.5591L43.2534 68.5225L43.2409 68.4851L43.2302 68.4469L43.2213 68.4079L43.2143 68.3682L43.2092 68.3279L43.2061 68.287L43.2051 68.2455L43.2061 68.2041L43.2092 68.1632L43.2143 68.1228L43.2213 68.0832L43.2302 68.0442L43.2409 68.0059L43.2534 67.9686L43.2677 67.9319L43.2836 67.8962L43.3012 67.8615L43.3204 67.8278L43.3411 67.7951L43.3633 67.7636L43.387 67.7331L43.412 67.7039L43.4384 67.6759L43.4661 67.6492L43.495 67.6239L43.5251 67.5999L43.5563 67.5775L43.5886 67.5566L43.622 67.5372L43.6563 67.5194L43.6916 67.5032L43.7278 67.4888L43.7648 67.4761L43.8026 67.4653L43.8411 67.4563L43.8803 67.4492L43.9202 67.4441L43.9607 67.441L44.0017 67.4399ZM70.6545 69.0511H44.0017V67.4399H70.6545V69.0511ZM70.6545 69.0511V67.4399L70.6954 67.441L70.7359 67.4441L70.7758 67.4492L70.815 67.4563L70.8536 67.4653L70.8914 67.4761L70.9283 67.4888L70.9646 67.5032L70.9999 67.5194L71.0341 67.5372L71.0675 67.5566L71.0998 67.5775L71.131 67.5999L71.1612 67.6239L71.19 67.6492L71.2177 67.6759L71.2441 67.7039L71.2691 67.7331L71.2928 67.7636L71.315 67.7951L71.3357 67.8278L71.3549 67.8615L71.3725 67.8962L71.3885 67.9319L71.4027 67.9686L71.4153 68.0059L71.4259 68.0442L71.4349 68.0832L71.4419 68.1228L71.447 68.1632L71.4501 68.2041L71.4511 68.2455L71.4501 68.2869L71.447 68.3279L71.4419 68.3682L71.4349 68.4079L71.4259 68.4469L71.4153 68.4851L71.4027 68.5225L71.3885 68.5591L71.3725 68.5948L71.3549 68.6295L71.3357 68.6632L71.315 68.6959L71.2928 68.7275L71.2691 68.7579L71.2441 68.7871L71.2177 68.8151L71.19 68.8418L71.1612 68.8671L71.131 68.8911L71.0998 68.9135L71.0675 68.9345L71.0341 68.9539L70.9999 68.9717L70.9646 68.9878L70.9283 69.0022L70.8914 69.0149L70.8536 69.0257L70.815 69.0347L70.7758 69.0418L70.7359 69.047L70.6954 69.0501L70.6545 69.0511V69.0511Z" fill="#333333"/>
<path d="M44.0017 51.9719V53.5831L43.9607 53.5821L43.9202 53.5789L43.8803 53.5738L43.8411 53.5667L43.8026 53.5577L43.7648 53.5469L43.7278 53.5342L43.6916 53.5198L43.6563 53.5037L43.622 53.4859L43.5886 53.4665L43.5563 53.4455L43.5251 53.4231L43.495 53.3991L43.4661 53.3738L43.4384 53.3471L43.412 53.3191L43.387 53.2899L43.3633 53.2594L43.3411 53.2279L43.3204 53.1952L43.3012 53.1615L43.2836 53.1268L43.2677 53.0911L43.2534 53.0545L43.2409 53.0171L43.2302 52.9789L43.2213 52.9399L43.2143 52.9002L43.2092 52.8599L43.2061 52.8189L43.2051 52.7775L43.2061 52.7361L43.2092 52.6951L43.2143 52.6548L43.2213 52.6151L43.2302 52.5762L43.2409 52.5379L43.2534 52.5005L43.2677 52.4639L43.2836 52.4282L43.3012 52.3935L43.3204 52.3598L43.3411 52.3271L43.3633 52.2956L43.387 52.2651L43.412 52.2359L43.4384 52.2079L43.4661 52.1812L43.495 52.1559L43.5251 52.1319L43.5563 52.1095L43.5886 52.0886L43.622 52.0691L43.6563 52.0513L43.6916 52.0352L43.7278 52.0208L43.7648 52.0081L43.8026 51.9973L43.8411 51.9883L43.8803 51.9812L43.9202 51.9761L43.9607 51.9729L44.0017 51.9719V51.9719ZM70.6545 53.5831H44.0017V51.9719H70.6545V53.5831ZM70.6545 53.5831V51.9719L70.6954 51.9729L70.7359 51.9761L70.7758 51.9812L70.815 51.9883L70.8536 51.9973L70.8914 52.0081L70.9283 52.0208L70.9646 52.0352L70.9999 52.0513L71.0341 52.0691L71.0675 52.0886L71.0998 52.1095L71.131 52.1319L71.1612 52.1559L71.19 52.1812L71.2177 52.2079L71.2441 52.2359L71.2691 52.2651L71.2928 52.2956L71.315 52.3271L71.3357 52.3598L71.3549 52.3935L71.3725 52.4282L71.3885 52.4639L71.4027 52.5005L71.4153 52.5379L71.4259 52.5761L71.4349 52.6151L71.4419 52.6548L71.447 52.6951L71.4501 52.7361L71.4511 52.7775L71.4501 52.8189L71.447 52.8599L71.4419 52.9002L71.4349 52.9399L71.4259 52.9789L71.4153 53.0171L71.4027 53.0545L71.3885 53.0911L71.3725 53.1268L71.3549 53.1615L71.3357 53.1952L71.315 53.2279L71.2928 53.2594L71.2691 53.2899L71.2441 53.3191L71.2177 53.3471L71.19 53.3738L71.1612 53.3991L71.131 53.4231L71.0998 53.4455L71.0675 53.4665L71.0341 53.4859L70.9999 53.5037L70.9646 53.5198L70.9283 53.5342L70.8914 53.5469L70.8536 53.5577L70.815 53.5667L70.7758 53.5738L70.7359 53.5789L70.6954 53.5821L70.6545 53.5831Z" fill="#333333"/>
<path d="M49.1925 43.7064V42.3975H49.7375C49.9148 42.3975 50.0901 42.3761 50.2632 42.3333C50.4363 42.2895 50.6041 42.2211 50.7675 42.1282C50.9289 42.0416 51.071 41.9294 51.196 41.7927C51.321 41.6548 51.4193 41.4945 51.492 41.3086C51.5636 41.1237 51.601 40.9165 51.6031 40.6846C51.6031 40.1482 51.4279 39.7464 51.0774 39.4782C50.7269 39.21 50.2012 39.0764 49.4991 39.0764C49.2791 39.0764 49.0439 39.0872 48.7939 39.1085C48.5449 39.1299 48.2799 39.1619 48 39.2047V43.7064H49.1925ZM49.1925 40.0531C49.2619 40.0477 49.3207 40.0446 49.3688 40.0424C49.4179 40.0414 49.4575 40.0403 49.4874 40.0403C49.7545 40.0403 49.9554 40.0937 50.0879 40.2016C50.2215 40.3096 50.2888 40.4709 50.2888 40.6846C50.2888 40.9464 50.2215 41.1419 50.0869 41.2723C49.9522 41.4027 49.7503 41.4678 49.481 41.4678H49.1925V40.0531ZM53.549 43.7064V42.3355H54.0373L54.7297 43.7064H56.1979L55.1465 42.0598C55.3142 41.9636 55.4585 41.8482 55.5813 41.7125C55.7031 41.5779 55.7983 41.4251 55.8645 41.2552C55.9318 41.0853 55.9649 40.8994 55.966 40.6974C55.966 40.4399 55.9233 40.2112 55.8378 40.0114C55.7513 39.8116 55.623 39.6406 55.4531 39.4985C55.1112 39.2175 54.5791 39.0764 53.8557 39.0764C53.6152 39.0764 53.3705 39.0872 53.1215 39.1085C52.8726 39.1299 52.6193 39.1619 52.3629 39.2047H52.3565V43.7064H53.549ZM53.549 40.0531C53.6184 40.0477 53.6783 40.0446 53.7274 40.0424C53.7777 40.0414 53.8183 40.0403 53.8503 40.0403C54.1121 40.0403 54.3109 40.0958 54.4465 40.2059C54.5823 40.3159 54.6507 40.4794 54.6517 40.6974C54.6517 40.9432 54.5833 41.1334 54.4465 41.2659C54.3098 41.3995 54.1046 41.4667 53.8311 41.4678H53.549V40.0531ZM58.2485 43.7064V39.2047H56.9651V43.7064H58.2485ZM60.4486 43.7064V41.3524L60.4176 40.8673H60.4421L62.3335 43.7064H63.6884V39.2047H62.5771V41.7061L62.6113 42.0844H62.5835L60.6805 39.2047H59.3469V43.7064H60.4486ZM65.5327 40.2187V43.7064H66.8139V40.2187H68V39.2047H64.3338V40.2187H65.5327Z" fill="#2B2A29"/>
<path fill-rule="evenodd" clip-rule="evenodd" d="M55.2984 25.9021H63.2104C63.9473 25.9021 64.6503 25.9585 65.3232 26.0675C65.6578 26.1276 65.9473 26.184 66.1917 26.2404C66.4323 26.2968 66.6278 26.3532 66.7782 26.4096L67.2292 26.575L67.0438 28.4467C66.5795 28.3651 65.2563 28.3574 64.3591 28.3108C62.9296 28.2364 61.0488 28.0815 59.7686 28.1201C59.8435 28.0292 59.8886 27.9128 59.8886 27.7865V27.7864C59.8886 27.5407 59.718 27.333 59.4896 27.2756L59.504 27.2598H59.3619H55.2984C54.9251 27.2598 54.6196 26.9544 54.6196 26.581V26.5808C54.6196 26.2075 54.925 25.9021 55.2984 25.9021Z" fill="#5CA7F2"/>
<path fill-rule="evenodd" clip-rule="evenodd" d="M56.2528 30.7753H56.608C56.9852 30.7753 57.2938 31.0839 57.2938 31.4611C57.2938 31.8383 56.9852 32.147 56.608 32.147H56.2528C55.8756 32.147 55.5669 31.8383 55.5669 31.4611C55.5669 31.0839 55.8756 30.7753 56.2528 30.7753Z" fill="#FFED00"/>
<path fill-rule="evenodd" clip-rule="evenodd" d="M52.4068 34.6415H62.8592C63.1339 34.625 63.2454 34.5853 63.3617 34.535C63.6446 34.4127 63.7369 34.2217 63.7369 34.0187C63.7332 33.8797 63.6354 33.763 63.4512 33.6729C63.4357 33.6653 63.4224 33.6589 63.4059 33.6513C63.5322 33.7131 64.4344 33.6043 65.7354 33.4309C65.7774 33.4254 67.6935 33.1236 67.7164 32.6909C67.9014 33.0478 67.9965 33.4751 68.0002 33.9737C68.0026 34.5485 67.9249 35.0684 67.7682 35.5305C67.274 36.2658 62.0779 36.1961 59.0005 36.0432C58.9481 36.0152 58.8883 35.9992 58.825 35.9992H58.7887H54.888H52.4068C52.0334 35.9992 51.728 35.6939 51.728 35.3205V35.3203C51.728 34.9469 52.0334 34.6415 52.4068 34.6415Z" fill="#92C02C"/>
<path fill-rule="evenodd" clip-rule="evenodd" d="M50.3961 34.6416H50.7575C51.1309 34.6416 51.4364 34.9471 51.4364 35.3204V35.3205C51.4364 35.6938 51.1309 35.9993 50.7575 35.9993H50.3961C50.0228 35.9993 49.7173 35.6938 49.7173 35.3205V35.3204C49.7173 34.9471 50.0228 34.6416 50.3961 34.6416Z" fill="#92C02C"/>
<path d="M67.7681 35.5305C67.6799 35.7904 67.5667 36.0323 67.4287 36.2557C67.0452 36.8722 66.4512 37.3421 65.6392 37.6655C64.8309 37.985 63.7895 38.1467 62.5151 38.1467H56.2226C55.8378 38.1467 55.5229 37.8319 55.5229 37.4471V37.4469C55.5229 37.062 55.8378 36.7471 56.2226 36.7471H58.7127H58.825C59.0307 36.7471 59.1989 36.5789 59.1989 36.3733V36.3732C59.1989 36.2307 59.1183 36.1064 59.0005 36.0433C62.0779 36.1962 67.2739 36.2659 67.7681 35.5305Z" fill="#5CA7F2"/>
<path fill-rule="evenodd" clip-rule="evenodd" d="M58.2966 30.7753H58.7048H59.6992L59.7166 30.7752L59.734 30.7751L59.7512 30.7749L59.7685 30.7748L59.7858 30.7746L59.7993 30.7745H59.8031L59.8203 30.7744L59.8375 30.7743L59.8547 30.7742L59.872 30.7741L59.8891 30.774L59.8987 30.7739H59.9062L59.9234 30.7738L59.9404 30.7737L59.9576 30.7737L59.9746 30.7736L59.9917 30.7735L59.9975 30.7735H60.0087L60.0257 30.7734L60.0427 30.7733L60.0596 30.7732H60.0766L60.0936 30.7731H60.0956H60.1104L60.1274 30.7731H60.1442L60.1611 30.773H60.178H60.1932H60.1948L60.2116 30.7729H60.2284H60.2452H60.262H60.2788H60.2902H60.2955L60.3122 30.773H60.3289H60.3456L60.3622 30.7731H60.3789H60.3866L60.3956 30.7731H60.4122L60.4288 30.7732L60.4454 30.7733L60.462 30.7734H60.4785L60.4826 30.7735H60.4951L60.5116 30.7735L60.5281 30.7736L60.5446 30.7737L60.5611 30.7738L60.5776 30.7739H60.578L60.594 30.774L60.6105 30.7741L60.6269 30.7741L60.6433 30.7743L60.6598 30.7744L60.6729 30.7745H60.6761L60.6925 30.7746L60.7089 30.7748L60.7252 30.7749L60.7416 30.7751L60.7579 30.7752L60.7674 30.7753L60.7742 30.7753C61.2379 30.7799 61.6863 30.7901 62.1322 30.8073L62.1476 30.8079L62.2382 30.8115L62.2402 30.8116L62.2943 30.8138L62.3288 30.8153L62.3483 30.8161L62.4023 30.8186L62.4193 30.8193L62.4563 30.821L62.5098 30.8235H62.5103L62.5643 30.8262L62.6004 30.8279L62.6183 30.8289L62.6724 30.8317L62.6911 30.8326L62.7265 30.8345L62.7806 30.8373L62.7818 30.8374L62.8348 30.8403L62.8726 30.8425L62.889 30.8433L62.9432 30.8465L62.9636 30.8477L63.0518 30.8529L63.0546 30.8531L63.1062 30.8563L63.146 30.8587L63.1607 30.8597L63.2153 30.8632L63.2374 30.8646L63.2699 30.8667L63.3246 30.8705L63.3291 30.8707L63.3794 30.8741L63.4211 30.877L63.4343 30.8779L63.4892 30.8818L63.5133 30.8835L63.5444 30.8857L63.5996 30.8897L63.6058 30.8903L63.6549 30.8939L63.6986 30.8972L63.7103 30.8981L63.7659 30.9023L63.7918 30.9043L63.8216 30.9066L63.8774 30.9111L63.8854 30.9117L63.9334 30.9156L63.9794 30.9193L63.9894 30.9201L64.0457 30.9248L64.0737 30.9271L64.1021 30.9296L64.1586 30.9344L64.1684 30.9353L64.2154 30.9393L64.2637 30.9435L64.2723 30.9443L64.3294 30.9494L64.3595 30.9521L64.3866 30.9545L64.444 30.9597L64.4557 30.9608L64.5016 30.9651L64.5525 30.9698L64.5595 30.9705L64.6175 30.976L64.6498 30.9791L64.6758 30.9815L64.7342 30.9872L64.7478 30.9885L64.7928 30.9929L64.8464 30.9982L64.8517 30.9988L64.9108 31.0047L64.9456 31.0083L64.9701 31.0107L65.0296 31.0168L65.0454 31.0184L65.0894 31.023L65.1459 31.0289L65.1495 31.0292L65.2098 31.0356L65.2471 31.0396L65.2703 31.0421L65.3312 31.0485L65.349 31.0505L65.3922 31.0552L65.4517 31.0617L65.4536 31.0619L65.5152 31.0687L65.5552 31.0732L65.5771 31.0756L65.6393 31.0825L65.6594 31.0849L65.7018 31.0897L65.7646 31.0969C65.8152 31.1177 65.8669 31.1397 65.9173 31.1617C66.2933 31.3233 66.6392 31.5225 66.9512 31.7669C67.2596 32.0055 67.541 32.3423 67.7164 32.691C67.6934 33.1237 65.7773 33.4255 65.7353 33.431C64.4343 33.6044 63.5322 33.7132 63.4058 33.6514C63.2273 33.5692 62.9936 33.49 62.7143 33.4211C62.406 33.3421 62.0714 33.2519 61.703 33.1503C61.3384 33.0489 60.9699 32.9173 60.6053 32.7557C60.2424 32.6001 59.9125 32.3973 59.6117 32.147H58.2966C57.9194 32.147 57.6108 31.8385 57.6108 31.4613V31.4611C57.6108 31.0839 57.9194 30.7753 58.2966 30.7753Z" fill="#FFED00"/>
<path fill-rule="evenodd" clip-rule="evenodd" d="M48.6997 28.3133H54.3659H58.8355H59.3619C59.5252 28.3133 59.6719 28.2379 59.7686 28.1202C61.0487 28.0817 62.9296 28.2365 64.3591 28.3109C65.2562 28.3575 66.5795 28.3652 67.0438 28.4461L66.9097 29.8007C66.2856 29.6391 65.7292 29.5225 65.233 29.4435C64.7367 29.3646 64.3044 29.327 63.936 29.327C63.6277 29.327 63.3871 29.3421 63.2067 29.3721C63.0299 29.4023 62.9021 29.4511 62.8232 29.5188C62.7479 29.5865 62.7104 29.6729 62.7141 29.7781C62.7179 29.9285 62.8157 30.0564 63.0074 30.1579C63.1954 30.2631 63.4473 30.3609 63.7593 30.4511C64.0751 30.5451 64.4172 30.6429 64.7931 30.7556C65.1177 30.8497 65.4422 30.9636 65.7643 31.0969C63.5134 30.8388 61.8411 30.7574 59.699 30.7753H58.7438C59.036 30.7753 59.2749 30.5363 59.2749 30.2441C59.2749 29.952 59.036 29.7129 58.7438 29.7129H58.5717H53.653H48.6997C48.3149 29.7129 48 29.3981 48 29.0132V29.013C48 28.6281 48.3149 28.3133 48.6997 28.3133Z" fill="#E61A77"/>
</svg>
