<svg width="119" height="86" viewBox="0 0 119 86" fill="none" xmlns="http://www.w3.org/2000/svg">
<path fill-rule="evenodd" clip-rule="evenodd" d="M2.57031 77.5093H113.659V85.0336H2.57031V77.5093Z" fill="#66798F"/>
<path d="M113.659 78.4756H2.57033V76.5432H113.659L114.626 77.5094L113.659 78.4756V78.4756ZM113.659 78.4756V76.5432L113.709 76.5445L113.758 76.5482L113.806 76.5543L113.854 76.5629L113.901 76.5736L113.947 76.5867L113.991 76.6018L114.035 76.6191L114.078 76.6385L114.12 76.6598L114.16 76.6831L114.2 76.7082L114.238 76.7351L114.274 76.7639L114.309 76.7942L114.343 76.8262L114.375 76.8598L114.405 76.8949L114.434 76.9314L114.461 76.9692L114.486 77.0084L114.509 77.0489L114.531 77.0905L114.55 77.1334L114.568 77.1772L114.583 77.2221L114.596 77.268L114.607 77.3147L114.615 77.3623L114.621 77.4106L114.625 77.4597L114.626 77.5094L114.625 77.5591L114.621 77.6082L114.615 77.6565L114.607 77.7041L114.596 77.7508L114.583 77.7967L114.568 77.8416L114.55 77.8854L114.531 77.9283L114.509 77.9699L114.486 78.0104L114.461 78.0496L114.434 78.0874L114.405 78.1239L114.375 78.159L114.343 78.1926L114.309 78.2246L114.274 78.2549L114.238 78.2837L114.2 78.3106L114.16 78.3357L114.12 78.359L114.078 78.3803L114.035 78.3997L113.991 78.417L113.947 78.4321L113.901 78.4452L113.854 78.4559L113.806 78.4645L113.758 78.4706L113.709 78.4743L113.659 78.4756ZM112.691 85.0339V77.5094H114.626V85.0339L113.659 86L112.691 85.0339H112.691ZM112.691 85.0339H114.626L114.625 85.0835L114.621 85.1326L114.615 85.181L114.607 85.2286L114.596 85.2753L114.583 85.3212L114.568 85.3661L114.55 85.4099L114.531 85.4528L114.509 85.4944L114.486 85.5348L114.461 85.5741L114.434 85.6119L114.405 85.6484L114.375 85.6834L114.343 85.7171L114.309 85.749L114.274 85.7794L114.238 85.8081L114.2 85.835L114.16 85.8602L114.12 85.8834L114.078 85.9048L114.035 85.9241L113.991 85.9414L113.947 85.9566L113.901 85.9696L113.854 85.9804L113.806 85.9889L113.758 85.9951L113.709 85.9988L113.659 86L113.609 85.9988L113.56 85.9951L113.511 85.9889L113.464 85.9804L113.417 85.9696L113.371 85.9566L113.326 85.9414L113.282 85.9241L113.239 85.9048L113.198 85.8834L113.157 85.8602L113.118 85.835L113.08 85.8081L113.043 85.7794L113.008 85.749L112.975 85.7171L112.943 85.6834L112.912 85.6484L112.884 85.6119L112.857 85.5741L112.831 85.5348L112.808 85.4944L112.787 85.4528L112.767 85.4099L112.75 85.3661L112.735 85.3212L112.722 85.2753L112.711 85.2286L112.702 85.181L112.696 85.1326L112.693 85.0835L112.691 85.0339ZM2.57046 84.0677H113.659V86H2.57046L1.60304 85.0339L2.57046 84.0677V84.0677ZM2.57046 84.0677V86L2.52071 85.9988L2.47156 85.9951L2.42315 85.989L2.37551 85.9804L2.32871 85.9696L2.28275 85.9566L2.2378 85.9415L2.19394 85.9241L2.15101 85.9048L2.10935 85.8834L2.06886 85.8602L2.02955 85.835L1.99167 85.8081L1.95514 85.7794L1.92004 85.749L1.88637 85.7171L1.85438 85.6834L1.82399 85.6484L1.7952 85.6119L1.76827 85.5741L1.7431 85.5348L1.71978 85.4944L1.6984 85.4528L1.67904 85.4099L1.6617 85.3661L1.64655 85.3212L1.6335 85.2753L1.62273 85.2286L1.61414 85.181L1.608 85.1326L1.60429 85.0835L1.60303 85.0339L1.60429 84.9842L1.608 84.9351L1.61414 84.8867L1.62273 84.8392L1.6335 84.7924L1.64655 84.7465L1.6617 84.7016L1.67904 84.6578L1.6984 84.615L1.71978 84.5733L1.7431 84.5329L1.76827 84.4936L1.7952 84.4558L1.82399 84.4193L1.85438 84.3843L1.88637 84.3506L1.92004 84.3187L1.95514 84.2883L1.99167 84.2596L2.02955 84.2327L2.06886 84.2076L2.10935 84.1843L2.15101 84.1629L2.19394 84.1436L2.2378 84.1263L2.28275 84.1111L2.32871 84.0981L2.37551 84.0873L2.42315 84.0788L2.47156 84.0726L2.52071 84.0689L2.57046 84.0677ZM3.53789 77.5094V85.0339H1.60303V77.5094L2.57045 76.5432L3.53788 77.5094H3.53789ZM3.53789 77.5094H1.60303L1.60429 77.4597L1.60799 77.4106L1.61414 77.3623L1.62272 77.3147L1.6335 77.268L1.64655 77.2221L1.6617 77.1772L1.67904 77.1334L1.6984 77.0905L1.71978 77.0489L1.7431 77.0085L1.76826 76.9692L1.7952 76.9314L1.82399 76.8949L1.85438 76.8598L1.88636 76.8262L1.92003 76.7942L1.95513 76.7639L1.99167 76.7351L2.02954 76.7082L2.06885 76.6831L2.10934 76.6598L2.15101 76.6385L2.19394 76.6191L2.2378 76.6018L2.28275 76.5867L2.3287 76.5737L2.37551 76.5629L2.42315 76.5543L2.47155 76.5482L2.52071 76.5445L2.57046 76.5432L2.6202 76.5445L2.66936 76.5482L2.71776 76.5543L2.76541 76.5629L2.81221 76.5737L2.85817 76.5867L2.90312 76.6018L2.94697 76.6191L2.9899 76.6385L3.03157 76.6598L3.07206 76.6831L3.11137 76.7082L3.14925 76.7351L3.18578 76.7639L3.22088 76.7942L3.25455 76.8262L3.28654 76.8598L3.31693 76.8949L3.34571 76.9314L3.37265 76.9692L3.39782 77.0085L3.42114 77.0489L3.44252 77.0905L3.46188 77.1334L3.47922 77.1772L3.49437 77.2221L3.50742 77.268L3.51819 77.3147L3.52678 77.3623L3.53292 77.4106L3.53662 77.4597L3.53789 77.5094H3.53789Z" fill="#333333"/>
<path fill-rule="evenodd" clip-rule="evenodd" d="M14.5933 47.7314H44.7299V57.1772H14.5933V47.7314Z" fill="#66798F"/>
<path d="M44.7297 48.6978H14.593V46.7654H44.7297L45.6971 47.7316L44.7297 48.6978V48.6978ZM44.7297 48.6978V46.7654L44.7794 46.7666L44.8286 46.7703L44.877 46.7765L44.9246 46.7851L44.9714 46.7958L45.0174 46.8088L45.0623 46.824L45.1062 46.8413L45.1491 46.8606L45.1908 46.882L45.2313 46.9053L45.2706 46.9304L45.3085 46.9573L45.345 46.9861L45.3801 47.0164L45.4138 47.0484L45.4458 47.082L45.4761 47.117L45.5049 47.1535L45.5319 47.1914L45.557 47.2306L45.5803 47.271L45.6017 47.3127L45.6211 47.3555L45.6384 47.3993L45.6536 47.4442L45.6666 47.4901L45.6774 47.5369L45.686 47.5845L45.6921 47.6328L45.6958 47.6819L45.6971 47.7316L45.6958 47.7813L45.6921 47.8304L45.686 47.8787L45.6774 47.9263L45.6666 47.973L45.6536 48.0189L45.6384 48.0638L45.6211 48.1076L45.6017 48.1505L45.5803 48.1921L45.557 48.2325L45.5319 48.2718L45.5049 48.3096L45.4761 48.3461L45.4458 48.3812L45.4138 48.4148L45.3801 48.4467L45.345 48.4771L45.3085 48.5058L45.2706 48.5327L45.2313 48.5579L45.1908 48.5812L45.1491 48.6025L45.1062 48.6218L45.0623 48.6392L45.0174 48.6543L44.9714 48.6673L44.9246 48.6781L44.877 48.6867L44.8286 48.6928L44.7794 48.6965L44.7297 48.6978ZM43.7622 57.1772V47.7315H45.6971V57.1772L44.7297 58.1434L43.7622 57.1772H43.7622ZM43.7622 57.1772H45.6971L45.6958 57.2269L45.6921 57.276L45.686 57.3244L45.6774 57.3719L45.6666 57.4187L45.6536 57.4646L45.6384 57.5095L45.6211 57.5533L45.6017 57.5962L45.5804 57.6378L45.557 57.6782L45.5319 57.7175L45.5049 57.7553L45.4761 57.7918L45.4458 57.8268L45.4138 57.8605L45.3801 57.8924L45.345 57.9228L45.3085 57.9515L45.2706 57.9784L45.2313 58.0035L45.1908 58.0268L45.1491 58.0482L45.1062 58.0675L45.0623 58.0848L45.0174 58.1L44.9714 58.113L44.9246 58.1238L44.877 58.1323L44.8286 58.1385L44.7794 58.1422L44.7297 58.1434L44.6799 58.1422L44.6308 58.1385L44.5824 58.1323L44.5347 58.1238L44.4879 58.113L44.442 58.1L44.397 58.0848L44.3532 58.0675L44.3102 58.0482L44.2686 58.0268L44.2281 58.0035L44.1888 57.9784L44.1509 57.9515L44.1143 57.9228L44.0792 57.8924L44.0456 57.8605L44.0136 57.8268L43.9832 57.7918L43.9544 57.7553L43.9275 57.7175L43.9023 57.6782L43.879 57.6378L43.8576 57.5962L43.8383 57.5533L43.8209 57.5095L43.8058 57.4646L43.7927 57.4187L43.7819 57.3719L43.7734 57.3244L43.7672 57.276L43.7635 57.2269L43.7622 57.1772ZM14.5929 56.2111H44.7296V58.1434H14.5929L13.6255 57.1772L14.5929 56.2111V56.2111ZM14.5929 56.2111V58.1434L14.5432 58.1422L14.494 58.1385L14.4456 58.1323L14.398 58.1238L14.3512 58.113L14.3052 58.1L14.2603 58.0848L14.2164 58.0675L14.1735 58.0482L14.1318 58.0268L14.0913 58.0036L14.052 57.9784L14.0141 57.9515L13.9776 57.9228L13.9425 57.8924L13.9088 57.8605L13.8768 57.8268L13.8465 57.7918L13.8177 57.7553L13.7907 57.7175L13.7656 57.6782L13.7422 57.6378L13.7209 57.5962L13.7015 57.5533L13.6842 57.5095L13.669 57.4646L13.656 57.4187L13.6452 57.3719L13.6366 57.3244L13.6305 57.276L13.6268 57.2269L13.6255 57.1772L13.6268 57.1276L13.6305 57.0785L13.6366 57.0301L13.6452 56.9825L13.656 56.9358L13.669 56.8899L13.6842 56.845L13.7015 56.8012L13.7209 56.7583L13.7422 56.7167L13.7656 56.6763L13.7907 56.637L13.8177 56.5992L13.8465 56.5627L13.8768 56.5277L13.9088 56.494L13.9425 56.4621L13.9776 56.4317L14.0141 56.403L14.052 56.3761L14.0913 56.3509L14.1318 56.3277L14.1735 56.3063L14.2164 56.287L14.2603 56.2697L14.3052 56.2545L14.3512 56.2415L14.398 56.2307L14.4456 56.2222L14.494 56.216L14.5432 56.2123L14.5929 56.2111V56.2111ZM15.5604 47.7316V57.1773H13.6255V47.7316L14.5929 46.7654L15.5603 47.7316H15.5604ZM15.5604 47.7316H13.6255L13.6268 47.6819L13.6305 47.6328L13.6366 47.5845L13.6452 47.5369L13.656 47.4901L13.669 47.4442L13.6842 47.3993L13.7015 47.3555L13.7209 47.3127L13.7422 47.2711L13.7656 47.2306L13.7907 47.1914L13.8177 47.1535L13.8464 47.117L13.8768 47.082L13.9088 47.0484L13.9425 47.0164L13.9776 46.9861L14.0141 46.9573L14.052 46.9304L14.0913 46.9053L14.1318 46.882L14.1735 46.8606L14.2164 46.8413L14.2603 46.824L14.3052 46.8088L14.3512 46.7958L14.398 46.7851L14.4456 46.7765L14.494 46.7703L14.5432 46.7666L14.5929 46.7654L14.6427 46.7666L14.6918 46.7703L14.7402 46.7765L14.7879 46.7851L14.8347 46.7958L14.8806 46.8088L14.9256 46.824L14.9694 46.8413L15.0124 46.8606L15.054 46.882L15.0945 46.9053L15.1338 46.9304L15.1717 46.9573L15.2082 46.9861L15.2433 47.0164L15.277 47.0484L15.309 47.082L15.3394 47.117L15.3682 47.1535L15.3951 47.1914L15.4203 47.2306L15.4436 47.2711L15.465 47.3127L15.4843 47.3555L15.5017 47.3993L15.5168 47.4442L15.5299 47.4901L15.5407 47.5369L15.5492 47.5845L15.5554 47.6328L15.5591 47.6819L15.5603 47.7316H15.5604Z" fill="#333333"/>
<path fill-rule="evenodd" clip-rule="evenodd" d="M113.339 10.7493H28.6992V30.1212H44.9677V28.9194C44.9677 24.145 41.092 20.2743 36.3114 20.2743C55.868 20.2743 75.4252 20.2743 94.9817 20.2743C99.231 20.2743 102.676 23.7148 102.676 27.9589V30.1212H113.338V10.7493H113.339Z" fill="#B0C1D4"/>
<path d="M28.6989 9.7832H113.338V11.7156H28.6989L27.7314 10.7494L28.6989 9.78321V9.7832ZM28.6989 9.7832V11.7156L28.6491 11.7143L28.6 11.7106L28.5516 11.7045L28.5039 11.6959L28.4571 11.6851L28.4112 11.6721L28.3662 11.657L28.3224 11.6397L28.2794 11.6203L28.2378 11.599L28.1973 11.5757L28.158 11.5506L28.1201 11.5237L28.0836 11.4949L28.0485 11.4646L28.0148 11.4326L27.9828 11.399L27.9524 11.3639L27.9236 11.3274L27.8967 11.2896L27.8715 11.2503L27.8482 11.2099L27.8268 11.1683L27.8075 11.1254L27.7901 11.0816L27.775 11.0367L27.7619 10.9908L27.7511 10.9441L27.7426 10.8965L27.7364 10.8482L27.7327 10.7991L27.7314 10.7494L27.7327 10.6997L27.7364 10.6506L27.7426 10.6023L27.7511 10.5547L27.7619 10.5079L27.775 10.462L27.7901 10.4172L27.8075 10.3734L27.8268 10.3305L27.8482 10.2889L27.8715 10.2484L27.8967 10.2092L27.9236 10.1713L27.9524 10.1349L27.9828 10.0998L28.0148 10.0662L28.0485 10.0342L28.0836 10.0039L28.1201 9.97513L28.158 9.94823L28.1973 9.92309L28.2378 9.89981L28.2794 9.87845L28.3224 9.85912L28.3662 9.8418L28.4112 9.82667L28.4571 9.81364L28.5039 9.80288L28.5516 9.7943L28.6 9.78816L28.6491 9.78446L28.6989 9.7832ZM27.7314 30.1211V10.7494H29.6663V30.1211L28.6989 31.0873L27.7315 30.1211H27.7314ZM27.7314 30.1211H29.6663L29.665 30.1708L29.6613 30.2199L29.6552 30.2683L29.6466 30.3158L29.6358 30.3626L29.6228 30.4085L29.6076 30.4534L29.5903 30.4972L29.5709 30.54L29.5496 30.5817L29.5262 30.6221L29.5011 30.6614L29.4741 30.6992L29.4453 30.7357L29.415 30.7707L29.383 30.8044L29.3493 30.8363L29.3142 30.8666L29.2777 30.8954L29.2398 30.9223L29.2005 30.9474L29.16 30.9707L29.1183 30.9921L29.0754 31.0114L29.0315 31.0287L28.9866 31.0439L28.9406 31.0569L28.8938 31.0677L28.8462 31.0762L28.7978 31.0824L28.7486 31.0861L28.6989 31.0873L28.6491 31.0861L28.6 31.0824L28.5516 31.0762L28.5039 31.0677L28.4571 31.0569L28.4112 31.0439L28.3662 31.0287L28.3224 31.0114L28.2794 30.9921L28.2378 30.9707L28.1973 30.9474L28.158 30.9223L28.1201 30.8954L28.0836 30.8666L28.0485 30.8363L28.0148 30.8044L27.9828 30.7707L27.9524 30.7357L27.9236 30.6992L27.8967 30.6614L27.8715 30.6221L27.8482 30.5817L27.8268 30.54L27.8075 30.4972L27.7901 30.4534L27.775 30.4085L27.7619 30.3626L27.7511 30.3158L27.7426 30.2683L27.7364 30.2199L27.7327 30.1708L27.7314 30.1211ZM44.9674 31.0873H28.6989V29.1549H44.9674L45.9349 30.1211L44.9674 31.0873V31.0873ZM44.9674 31.0873V29.1549L45.0172 29.1562L45.0663 29.1599L45.1147 29.166L45.1624 29.1746L45.2092 29.1854L45.2551 29.1984L45.3001 29.2135L45.344 29.2309L45.3869 29.2502L45.4285 29.2715L45.469 29.2948L45.5083 29.32L45.5462 29.3469L45.5828 29.3756L45.6179 29.406L45.6515 29.4379L45.6835 29.4715L45.7139 29.5066L45.7427 29.5431L45.7696 29.5809L45.7948 29.6202L45.8181 29.6606L45.8395 29.7022L45.8589 29.7451L45.8762 29.7889L45.8913 29.8338L45.9044 29.8797L45.9152 29.9264L45.9238 29.974L45.9299 30.0224L45.9336 30.0714L45.9349 30.1211L45.9336 30.1708L45.9299 30.2199L45.9238 30.2682L45.9152 30.3158L45.9044 30.3626L45.8913 30.4085L45.8762 30.4534L45.8589 30.4972L45.8395 30.54L45.8181 30.5817L45.7948 30.6221L45.7696 30.6613L45.7427 30.6992L45.7139 30.7357L45.6835 30.7707L45.6515 30.8043L45.6179 30.8363L45.5828 30.8666L45.5462 30.8954L45.5083 30.9223L45.469 30.9474L45.4285 30.9707L45.3869 30.9921L45.344 31.0114L45.3001 31.0287L45.2551 31.0439L45.2092 31.0569L45.1624 31.0676L45.1147 31.0762L45.0663 31.0824L45.0172 31.0861L44.9674 31.0873ZM45.9349 28.9194V30.1211H44V28.9194H45.9349ZM45.9349 28.9194H44L44.0013 28.8697L44.005 28.8206L44.0111 28.7723L44.0197 28.7247L44.0305 28.6779L44.0435 28.632L44.0587 28.5872L44.076 28.5434L44.0954 28.5005L44.1167 28.4589L44.1401 28.4184L44.1652 28.3792L44.1922 28.3413L44.221 28.3049L44.2513 28.2698L44.2833 28.2362L44.317 28.2042L44.3521 28.1739L44.3886 28.1451L44.4265 28.1182L44.4658 28.0931L44.5063 28.0698L44.548 28.0485L44.5909 28.0291L44.6348 28.0118L44.6797 27.9967L44.7257 27.9836L44.7725 27.9729L44.8201 27.9643L44.8685 27.9582L44.9177 27.9545L44.9674 27.9532L45.0172 27.9545L45.0663 27.9582L45.1147 27.9643L45.1624 27.9729L45.2092 27.9836L45.2551 27.9967L45.3001 28.0118L45.3439 28.0291L45.3869 28.0485L45.4285 28.0698L45.469 28.0931L45.5083 28.1182L45.5462 28.1451L45.5828 28.1739L45.6179 28.2042L45.6515 28.2362L45.6835 28.2698L45.7139 28.3049L45.7427 28.3413L45.7696 28.3792L45.7948 28.4184L45.8181 28.4589L45.8395 28.5005L45.8588 28.5434L45.8762 28.5872L45.8913 28.632L45.9044 28.6779L45.9152 28.7247L45.9237 28.7723L45.9299 28.8206L45.9336 28.8697L45.9349 28.9194ZM36.3112 19.3082V21.2405V19.3082L36.8055 19.3207L37.2938 19.3578L37.7754 19.4189L38.2496 19.5034L38.7154 19.6108L39.1724 19.7403L39.62 19.8917L40.0573 20.0639L40.4839 20.2564L40.8989 20.4688L41.302 20.7002L41.6924 20.9502L42.0696 21.2181L42.4331 21.5033L42.7821 21.8052L43.1161 22.1233L43.4345 22.4569L43.7369 22.8054L44.0225 23.1685L44.2907 23.5452L44.541 23.9351L44.7729 24.3377L44.9854 24.7522L45.1782 25.1782L45.3506 25.6149L45.5021 26.062L45.6319 26.5184L45.7394 26.9836L45.824 27.4572L45.8852 27.9381L45.9224 28.4258L45.9349 28.9194H44L43.99 28.5233L43.9603 28.133L43.9114 27.7487L43.8438 27.3708L43.7579 26.9996L43.6545 26.6355L43.5338 26.2792L43.3962 25.9307L43.2423 25.5909L43.0725 25.2599L42.8875 24.9383L42.6875 24.6268L42.473 24.3256L42.2446 24.0354L42.0027 23.7566L41.7479 23.4896L41.4807 23.2352L41.2016 22.9937L40.911 22.7656L40.6094 22.5515L40.2974 22.3517L39.9755 22.1668L39.6441 21.9973L39.3038 21.8436L38.9549 21.7062L38.5981 21.5856L38.2336 21.4823L37.8619 21.3966L37.4835 21.3291L37.0986 21.2802L36.7078 21.2505L36.3112 21.2405V19.3082L36.3112 19.3082ZM36.3112 19.3082V21.2405L36.2614 21.2393L36.2123 21.2356L36.1639 21.2294L36.1162 21.2209L36.0694 21.2101L36.0235 21.1971L35.9785 21.1819L35.9347 21.1646L35.8917 21.1453L35.8501 21.1239L35.8096 21.1006L35.7703 21.0755L35.7324 21.0486L35.6959 21.0199L35.6608 20.9895L35.6271 20.9576L35.5951 20.9239L35.5647 20.8889L35.5359 20.8524L35.509 20.8146L35.4838 20.7753L35.4605 20.7349L35.4391 20.6933L35.4198 20.6504L35.4024 20.6066L35.3873 20.5617L35.3742 20.5158L35.3634 20.469L35.3549 20.4215L35.3487 20.3731L35.345 20.324L35.3438 20.2743L35.345 20.2247L35.3487 20.1756L35.3549 20.1272L35.3634 20.0796L35.3742 20.0329L35.3873 19.987L35.4024 19.9421L35.4198 19.8983L35.4391 19.8554L35.4605 19.8138L35.4838 19.7734L35.509 19.7341L35.5359 19.6963L35.5647 19.6598L35.5951 19.6248L35.6271 19.5911L35.6608 19.5592L35.6959 19.5288L35.7324 19.5001L35.7703 19.4732L35.8096 19.448L35.8501 19.4248L35.8917 19.4034L35.9347 19.3841L35.9785 19.3668L36.0235 19.3516L36.0694 19.3386L36.1162 19.3278L36.1639 19.3193L36.2123 19.3131L36.2614 19.3094L36.3112 19.3082ZM94.9816 19.3082V21.2405H93.1481H91.3147H89.4813H87.6478H85.8143H83.9809H82.1475H80.314H78.4805H76.6471H74.8137H72.9802H71.1467H69.3133H67.4798H65.6464H63.8129H61.9794H60.146H58.3125H56.479H54.6456H52.8122H50.9787H49.1452H47.3118H45.4784H43.6448H41.8114H39.978H38.1446H36.3111V19.3082H38.1446H39.978H41.8114H43.6448H45.4784H47.3118H49.1452H50.9787H52.8122H54.6456H56.479H58.3125H60.146H61.9794H63.8129H65.6464H67.4798H69.3133H71.1467H72.9802H74.8137H76.6471H78.4805H80.314H82.1475H83.9809H85.8143H87.6478H89.4813H91.3147H93.1481H94.9816ZM94.9816 21.2405V19.3082L95.0313 19.3094L95.0805 19.3131L95.1289 19.3193L95.1765 19.3278L95.2233 19.3386L95.2693 19.3516L95.3142 19.3668L95.3581 19.3841L95.401 19.4034L95.4427 19.4248L95.4832 19.448L95.5225 19.4732L95.5604 19.5001L95.5969 19.5288L95.632 19.5592L95.6657 19.5911L95.6976 19.6248L95.728 19.6598L95.7568 19.6963L95.7838 19.7341L95.8089 19.7734L95.8322 19.8138L95.8536 19.8554L95.873 19.8983L95.8903 19.9421L95.9055 19.987L95.9185 20.0329L95.9293 20.0796L95.9379 20.1272L95.944 20.1756L95.9477 20.2247L95.949 20.2743L95.9477 20.324L95.944 20.3731L95.9379 20.4215L95.9293 20.469L95.9185 20.5158L95.9055 20.5617L95.8903 20.6066L95.873 20.6504L95.8536 20.6933L95.8322 20.7349L95.8089 20.7753L95.7838 20.8146L95.7568 20.8524L95.728 20.8889L95.6976 20.9239L95.6657 20.9576L95.632 20.9895L95.5969 21.0199L95.5604 21.0486L95.5225 21.0755L95.4832 21.1006L95.4427 21.1239L95.401 21.1453L95.3581 21.1646L95.3142 21.1819L95.2693 21.1971L95.2233 21.2101L95.1765 21.2209L95.1289 21.2294L95.0805 21.2356L95.0313 21.2393L94.9816 21.2405ZM103.643 27.959H101.708L101.7 27.6123L101.674 27.2707L101.631 26.9344L101.572 26.6039L101.497 26.2791L101.406 25.9607L101.3 25.6487L101.18 25.344L101.045 25.0467L100.897 24.7572L100.735 24.4759L100.56 24.2032L100.372 23.9397L100.173 23.6858L99.961 23.4418L99.738 23.2083L99.5044 22.9857L99.26 22.7743L99.0057 22.5747L98.7419 22.3873L98.469 22.2126L98.1873 22.0509L97.8974 21.9025L97.5997 21.7681L97.2947 21.648L96.9824 21.5425L96.6634 21.452L96.3383 21.3771L96.0074 21.318L95.6707 21.2753L95.3287 21.2493L94.9816 21.2405V19.3082L95.4264 19.3194L95.8659 19.3528L96.2993 19.4078L96.726 19.4839L97.1454 19.5805L97.5568 19.6972L97.9595 19.8333L98.3533 19.9883L98.7373 20.1618L99.1108 20.3529L99.4735 20.5612L99.8249 20.7861L100.164 21.0273L100.491 21.284L100.806 21.5557L101.106 21.8419L101.393 22.1422L101.665 22.4559L101.922 22.7826L102.163 23.1216L102.389 23.4726L102.597 23.8349L102.789 24.208L102.962 24.5915L103.117 24.9847L103.254 25.387L103.37 25.7978L103.467 26.2167L103.543 26.6429L103.598 27.0758L103.632 27.5147L103.643 27.959ZM101.708 27.959H103.643L103.642 28.0086L103.638 28.0577L103.632 28.1061L103.623 28.1537L103.613 28.2004L103.6 28.2463L103.585 28.2912L103.567 28.335L103.548 28.3779L103.526 28.4195L103.503 28.4599L103.478 28.4992L103.451 28.537L103.422 28.5735L103.392 28.6085L103.36 28.6422L103.326 28.6741L103.291 28.7045L103.255 28.7332L103.217 28.7601L103.177 28.7853L103.137 28.8085L103.095 28.8299L103.052 28.8492L103.008 28.8666L102.963 28.8817L102.918 28.8947L102.871 28.9055L102.823 28.914L102.775 28.9202L102.726 28.9239L102.676 28.9251L102.626 28.9239L102.577 28.9202L102.528 28.914L102.481 28.9055L102.434 28.8947L102.388 28.8817L102.343 28.8666L102.299 28.8492L102.256 28.8299L102.215 28.8085L102.174 28.7853L102.135 28.7601L102.097 28.7332L102.06 28.7045L102.025 28.6741L101.992 28.6422L101.96 28.6085L101.929 28.5735L101.9 28.537L101.874 28.4992L101.848 28.4599L101.825 28.4195L101.804 28.3779L101.784 28.335L101.767 28.2912L101.752 28.2463L101.739 28.2004L101.728 28.1537L101.719 28.1061L101.713 28.0577L101.71 28.0086L101.708 27.959ZM101.708 30.1212V27.959H103.643V30.1212L102.676 31.0874L101.708 30.1212H101.708ZM101.708 30.1212H103.643L103.642 30.1709L103.638 30.22L103.632 30.2683L103.623 30.3159L103.613 30.3626L103.6 30.4085L103.585 30.4534L103.567 30.4972L103.548 30.5401L103.526 30.5817L103.503 30.6221L103.478 30.6614L103.451 30.6992L103.422 30.7357L103.392 30.7708L103.36 30.8044L103.326 30.8363L103.291 30.8667L103.255 30.8954L103.217 30.9223L103.177 30.9475L103.137 30.9708L103.095 30.9921L103.052 31.0115L103.008 31.0288L102.963 31.0439L102.918 31.0569L102.871 31.0677L102.823 31.0763L102.775 31.0824L102.726 31.0861L102.676 31.0874L102.626 31.0861L102.577 31.0824L102.528 31.0763L102.481 31.0677L102.434 31.0569L102.388 31.0439L102.343 31.0288L102.299 31.0115L102.256 30.9921L102.215 30.9708L102.174 30.9475L102.135 30.9223L102.097 30.8954L102.06 30.8667L102.025 30.8363L101.992 30.8044L101.96 30.7708L101.929 30.7357L101.9 30.6992L101.874 30.6614L101.848 30.6221L101.825 30.5817L101.804 30.5401L101.784 30.4972L101.767 30.4534L101.752 30.4085L101.739 30.3626L101.728 30.3159L101.719 30.2683L101.713 30.22L101.71 30.1709L101.708 30.1212ZM113.338 31.0874H102.676V29.155H113.338L114.305 30.1212L113.338 31.0874V31.0874ZM113.338 31.0874V29.155L113.388 29.1562L113.437 29.1599L113.485 29.1661L113.533 29.1747L113.58 29.1854L113.626 29.1985L113.671 29.2136L113.715 29.2309L113.757 29.2502L113.799 29.2716L113.84 29.2949L113.879 29.32L113.917 29.3469L113.953 29.3757L113.988 29.406L114.022 29.438L114.054 29.4716L114.085 29.5066L114.113 29.5431L114.14 29.581L114.165 29.6202L114.189 29.6607L114.21 29.7023L114.229 29.7451L114.247 29.7889L114.262 29.8338L114.275 29.8797L114.286 29.9265L114.294 29.9741L114.301 30.0224L114.304 30.0715L114.305 30.1212L114.304 30.1709L114.301 30.22L114.294 30.2683L114.286 30.3159L114.275 30.3626L114.262 30.4085L114.247 30.4534L114.229 30.4972L114.21 30.5401L114.189 30.5817L114.165 30.6221L114.14 30.6614L114.113 30.6992L114.085 30.7357L114.054 30.7708L114.022 30.8044L113.988 30.8363L113.953 30.8667L113.917 30.8954L113.879 30.9223L113.84 30.9475L113.799 30.9708L113.757 30.9921L113.715 31.0114L113.671 31.0288L113.626 31.0439L113.58 31.0569L113.533 31.0677L113.485 31.0763L113.437 31.0824L113.388 31.0861L113.338 31.0874ZM114.305 10.7494V30.1212H112.371V10.7494L113.338 9.78324L114.305 10.7494ZM114.305 10.7494H112.371L112.372 10.6997L112.376 10.6506L112.382 10.6023L112.39 10.5547L112.401 10.508L112.414 10.4621L112.429 10.4172L112.447 10.3734L112.466 10.3305L112.487 10.2889L112.511 10.2485L112.536 10.2092L112.563 10.1714L112.592 10.1349L112.622 10.0998L112.654 10.0662L112.688 10.0343L112.723 10.0039L112.759 9.97517L112.797 9.94826L112.836 9.92313L112.877 9.89984L112.919 9.87849L112.962 9.85915L113.005 9.84184L113.05 9.8267L113.096 9.81367L113.143 9.80291L113.191 9.79434L113.239 9.7882L113.288 9.7845L113.338 9.78324L113.388 9.7845L113.437 9.7882L113.485 9.79434L113.533 9.80291L113.58 9.81367L113.626 9.8267L113.671 9.84184L113.715 9.85915L113.757 9.87849L113.799 9.89984L113.84 9.92313L113.879 9.94826L113.917 9.97517L113.953 10.0039L113.988 10.0343L114.022 10.0662L114.054 10.0998L114.085 10.1349L114.113 10.1714L114.14 10.2092L114.165 10.2485L114.189 10.2889L114.21 10.3305L114.229 10.3734L114.247 10.4172L114.262 10.4621L114.275 10.508L114.286 10.5547L114.294 10.6023L114.301 10.6506L114.304 10.6997L114.305 10.7494Z" fill="#333333"/>
<path fill-rule="evenodd" clip-rule="evenodd" d="M0.967285 30.1212H28.6993V7.92456C28.6993 4.0977 25.5639 0.966187 21.7319 0.966187H7.93467C4.10258 0.966187 0.967285 4.09746 0.967285 7.92456V30.1212Z" fill="#8BB7F0"/>
<path d="M28.6995 31.0874H0.967426V29.155H28.6995L29.6669 30.1212L28.6995 31.0874V31.0874ZM28.6995 31.0874V29.155L28.7492 29.1563L28.7984 29.16L28.8468 29.1661L28.8944 29.1747L28.9412 29.1854L28.9872 29.1985L29.0321 29.2136L29.076 29.2309L29.1189 29.2503L29.1606 29.2716L29.2011 29.2949L29.2404 29.32L29.2782 29.3469L29.3148 29.3757L29.3499 29.406L29.3835 29.438L29.4155 29.4716L29.4459 29.5067L29.4747 29.5432L29.5016 29.581L29.5268 29.6202L29.5501 29.6607L29.5715 29.7023L29.5909 29.7452L29.6082 29.789L29.6234 29.8339L29.6364 29.8798L29.6472 29.9265L29.6558 29.9741L29.6619 30.0224L29.6656 30.0715L29.6669 30.1212L29.6656 30.1709L29.6619 30.22L29.6558 30.2683L29.6472 30.3159L29.6364 30.3626L29.6234 30.4085L29.6082 30.4534L29.5909 30.4972L29.5715 30.5401L29.5501 30.5817L29.5268 30.6222L29.5016 30.6614L29.4747 30.6993L29.4459 30.7357L29.4155 30.7708L29.3835 30.8044L29.3499 30.8364L29.3148 30.8667L29.2782 30.8955L29.2404 30.9224L29.2011 30.9475L29.1606 30.9708L29.1189 30.9921L29.076 31.0115L29.0321 31.0288L28.9872 31.0439L28.9412 31.057L28.8944 31.0677L28.8468 31.0763L28.7984 31.0824L28.7492 31.0861L28.6995 31.0874ZM29.6669 7.92455V30.1212H27.732V7.92455H29.6669ZM21.732 1.93238V6.65852e-07L22.1383 0.010341L22.5401 0.0411098L22.9365 0.0918026L23.3267 0.161831L23.7104 0.250943L24.0866 0.358297L24.4552 0.483474L24.8155 0.626053L25.1669 0.785278L25.5089 0.960895L25.8411 1.15223L26.1629 1.35879L26.4738 1.57997L26.7735 1.81553L27.0613 2.0647L27.3368 2.32708L27.5995 2.60223L27.8491 2.88974L28.0848 3.18894L28.3064 3.49948L28.5133 3.82096L28.7048 4.15269L28.8805 4.49417L29.0401 4.84515L29.1829 5.20505L29.3081 5.5731L29.4156 5.94879L29.5048 6.33197L29.575 6.72171L29.6257 7.11759L29.6565 7.51884L29.6669 7.92455H27.732L27.7242 7.61703L27.701 7.31397L27.6627 7.01545L27.6097 6.72171L27.5425 6.43302L27.4615 6.14963L27.3669 5.87204L27.2593 5.60059L27.1388 5.33552L27.0058 5.07726L26.8609 4.82624L26.7042 4.58278L26.5363 4.34739L26.3575 4.12049L26.1682 3.90242L25.9686 3.69351L25.7596 3.49436L25.5412 3.3052L25.314 3.12664L25.0782 2.95893L24.8345 2.80248L24.5832 2.65771L24.3246 2.52497L24.0591 2.40459L23.7872 2.29698L23.5094 2.20257L23.2255 2.12162L22.9365 2.05453L22.6423 2.00165L22.3434 1.9634L22.04 1.9402L21.732 1.93238V1.93238ZM7.93481 6.65852e-07H21.732V1.93238H7.93481V6.65852e-07ZM1.93486 7.92455H0L0.0103536 7.51876L0.0411619 7.1175L0.0919198 6.72163L0.162038 6.33189L0.251264 5.94879L0.358673 5.57301L0.484094 5.20479L0.626772 4.84515L0.786201 4.49417L0.962044 4.15252L1.15363 3.82079L1.36045 3.4994L1.582 3.18885L1.81777 2.88966L2.06727 2.60223L2.32998 2.32699L2.60557 2.06462L2.89337 1.81544L3.19295 1.57997L3.50398 1.35862L3.82578 1.15215L4.15785 0.960894L4.49986 0.785277L4.85138 0.625884L5.21156 0.483474L5.58017 0.358213L5.9566 0.250942L6.3401 0.16183L6.73034 0.0918019L7.12673 0.0411091L7.5285 0.0103404L7.93481 0V1.93238L7.62681 1.9402L7.32336 1.9634L7.02445 2.00165L6.73034 2.05453L6.44111 2.12161L6.15744 2.20249L5.87958 2.29698L5.60761 2.40459L5.34229 2.5248L5.08378 2.65755L4.83235 2.80239L4.5885 2.95893L4.35289 3.12647L4.1257 3.30512L3.90726 3.49427L3.69817 3.69343L3.49876 3.90225L3.30936 4.12041L3.13049 4.34731L2.96264 4.5827L2.80599 4.82607L2.66104 5.0771L2.52813 5.33535L2.40759 5.60042L2.29993 5.87196L2.20532 6.14955L2.12434 6.43285L2.05717 6.72163L2.00422 7.01536L1.96592 7.31388L1.94269 7.61695L1.93486 7.92455H1.93486ZM0 30.1212V7.92455H1.93486V30.1212L0.967434 31.0873L8.33384e-06 30.1212H0ZM0 30.1212H1.93486L1.9336 30.1708L1.92989 30.2199L1.92375 30.2683L1.91516 30.3159L1.90439 30.3626L1.89134 30.4085L1.87619 30.4534L1.85885 30.4972L1.83949 30.5401L1.81811 30.5817L1.79479 30.6221L1.76962 30.6614L1.74269 30.6992L1.7139 30.7357L1.68351 30.7708L1.65153 30.8044L1.61785 30.8363L1.58275 30.8667L1.54622 30.8954L1.50834 30.9223L1.46903 30.9475L1.42854 30.9707L1.38688 30.9921L1.34395 31.0114L1.30009 31.0288L1.25514 31.0439L1.20918 31.0569L1.16238 31.0677L1.11474 31.0763L1.06634 31.0824L1.01718 31.0861L0.96743 31.0873L0.917682 31.0861L0.868524 31.0824L0.820123 31.0763L0.772479 31.0677L0.725678 31.0569L0.679718 31.0439L0.634768 31.0288L0.590913 31.0114L0.547983 30.9921L0.506316 30.9707L0.465828 30.9475L0.426518 30.9223L0.388639 30.8954L0.352107 30.8667L0.317005 30.8363L0.283335 30.8044L0.251348 30.7708L0.220961 30.7357L0.192173 30.6992L0.165237 30.6614L0.140068 30.6221L0.116752 30.5817L0.0953712 30.5401L0.0760109 30.4972L0.0586708 30.4534L0.0435192 30.4085L0.0304719 30.3626L0.0196975 30.3159L0.0111115 30.2683L0.00496669 30.2199L0.00126297 30.1708L3.33356e-07 30.1212H0Z" fill="#333333"/>
<path fill-rule="evenodd" clip-rule="evenodd" d="M100.433 77.5093H109.57V68.4257H100.433V77.5093ZM109.57 61.1387V30.1212H102.677V61.1387H109.57Z" fill="#66798F"/>
<path d="M109.57 78.4755H100.433V76.5431H109.57L110.537 77.5093L109.57 78.4754V78.4755ZM109.57 78.4755V76.5431L109.619 76.5443L109.669 76.548L109.717 76.5542L109.765 76.5627L109.811 76.5735L109.857 76.5865L109.902 76.6017L109.946 76.619L109.989 76.6383L110.031 76.6597L110.071 76.683L110.111 76.7081L110.148 76.735L110.185 76.7638L110.22 76.7941L110.254 76.826L110.286 76.8597L110.316 76.8947L110.345 76.9312L110.372 76.969L110.397 77.0083L110.42 77.0487L110.442 77.0904L110.461 77.1332L110.478 77.177L110.494 77.2219L110.507 77.2678L110.517 77.3146L110.526 77.3621L110.532 77.4105L110.536 77.4596L110.537 77.5093L110.536 77.5589L110.532 77.608L110.526 77.6564L110.517 77.704L110.507 77.7507L110.494 77.7966L110.478 77.8415L110.461 77.8853L110.442 77.9282L110.42 77.9698L110.397 78.0102L110.372 78.0495L110.345 78.0873L110.316 78.1238L110.286 78.1589L110.254 78.1925L110.22 78.2244L110.185 78.2548L110.148 78.2835L110.111 78.3104L110.071 78.3356L110.031 78.3589L109.989 78.3802L109.946 78.3995L109.902 78.4169L109.857 78.432L109.811 78.445L109.765 78.4558L109.717 78.4644L109.669 78.4705L109.619 78.4742L109.57 78.4755ZM110.537 68.4257V77.5092H108.602V68.4257L109.57 67.4595L110.537 68.4257H110.537ZM110.537 68.4257H108.602L108.603 68.376L108.607 68.3269L108.613 68.2785L108.622 68.231L108.633 68.1842L108.646 68.1383L108.661 68.0934L108.678 68.0496L108.698 68.0067L108.719 67.9651L108.742 67.9247L108.767 67.8854L108.794 67.8476L108.823 67.8111L108.854 67.7761L108.886 67.7424L108.919 67.7105L108.954 67.6801L108.991 67.6514L109.029 67.6245L109.068 67.5994L109.109 67.5761L109.15 67.5547L109.193 67.5354L109.237 67.5181L109.282 67.5029L109.328 67.4899L109.375 67.4791L109.422 67.4706L109.471 67.4644L109.52 67.4607L109.57 67.4595L109.619 67.4607L109.669 67.4644L109.717 67.4706L109.765 67.4791L109.811 67.4899L109.857 67.5029L109.902 67.5181L109.946 67.5354L109.989 67.5547L110.031 67.5761L110.071 67.5994L110.111 67.6245L110.148 67.6514L110.185 67.6801L110.22 67.7105L110.254 67.7424L110.286 67.7761L110.316 67.8111L110.345 67.8476L110.372 67.8854L110.397 67.9247L110.42 67.9651L110.442 68.0067L110.461 68.0496L110.478 68.0934L110.494 68.1383L110.507 68.1842L110.517 68.231L110.526 68.2785L110.532 68.3269L110.536 68.376L110.537 68.4257ZM100.433 67.4595H109.57V69.3918H100.433L99.4653 68.4257L100.433 67.4595V67.4595ZM100.433 67.4595V69.3918L100.383 69.3906L100.334 69.3869L100.285 69.3808L100.238 69.3722L100.191 69.3614L100.145 69.3484L100.1 69.3333L100.056 69.3159L100.013 69.2966L99.9716 69.2752L99.9312 69.252L99.8918 69.2268L99.854 69.1999L99.8174 69.1712L99.7823 69.1408L99.7487 69.1089L99.7167 69.0752L99.6863 69.0402L99.6575 69.0037L99.6306 68.9659L99.6054 68.9266L99.5821 68.8862L99.5607 68.8446L99.5413 68.8017L99.524 68.7579L99.5089 68.713L99.4958 68.6671L99.485 68.6204L99.4764 68.5728L99.4703 68.5244L99.4666 68.4753L99.4653 68.4257L99.4666 68.376L99.4703 68.3269L99.4764 68.2785L99.485 68.231L99.4958 68.1842L99.5089 68.1383L99.524 68.0934L99.5413 68.0496L99.5607 68.0068L99.5821 67.9651L99.6054 67.9247L99.6306 67.8854L99.6575 67.8476L99.6863 67.8111L99.7167 67.7761L99.7487 67.7424L99.7823 67.7105L99.8174 67.6802L99.854 67.6514L99.8918 67.6245L99.9312 67.5994L99.9716 67.5761L100.013 67.5547L100.056 67.5354L100.1 67.5181L100.145 67.5029L100.191 67.4899L100.238 67.4791L100.285 67.4706L100.334 67.4644L100.383 67.4607L100.433 67.4595ZM99.4653 77.5093V68.4257H101.4V77.5093L100.433 78.4755L99.4653 77.5093H99.4653ZM99.4653 77.5093H101.4L101.399 77.5589L101.395 77.608L101.389 77.6564L101.38 77.704L101.37 77.7507L101.357 77.7966L101.342 77.8415L101.324 77.8853L101.305 77.9282L101.283 77.9698L101.26 78.0102L101.235 78.0495L101.208 78.0873L101.179 78.1238L101.149 78.1589L101.117 78.1925L101.083 78.2244L101.048 78.2548L101.012 78.2835L100.974 78.3104L100.934 78.3356L100.894 78.3589L100.852 78.3802L100.809 78.3995L100.765 78.4169L100.72 78.432L100.675 78.445L100.628 78.4558L100.58 78.4644L100.532 78.4705L100.483 78.4742L100.433 78.4755L100.383 78.4742L100.334 78.4705L100.285 78.4644L100.238 78.4558L100.191 78.445L100.145 78.432L100.1 78.4169L100.056 78.3995L100.013 78.3802L99.9716 78.3589L99.9312 78.3356L99.8919 78.3104L99.854 78.2835L99.8174 78.2548L99.7823 78.2244L99.7487 78.1925L99.7167 78.1589L99.6863 78.1238L99.6575 78.0873L99.6306 78.0495L99.6054 78.0102L99.5821 77.9698L99.5607 77.9282L99.5414 77.8853L99.524 77.8415L99.5089 77.7966L99.4958 77.7507L99.485 77.704L99.4765 77.6564L99.4703 77.608L99.4666 77.5589L99.4653 77.5093ZM110.537 30.1212V61.1387H108.602V30.1212L109.57 29.155L110.537 30.1212ZM110.537 30.1212H108.602L108.603 30.0715L108.607 30.0224L108.613 29.9741L108.622 29.9265L108.633 29.8798L108.646 29.8339L108.661 29.789L108.678 29.7452L108.698 29.7023L108.719 29.6607L108.742 29.6203L108.767 29.581L108.794 29.5432L108.823 29.5067L108.854 29.4716L108.886 29.438L108.919 29.4061L108.954 29.3757L108.991 29.347L109.029 29.3201L109.068 29.2949L109.109 29.2716L109.15 29.2503L109.193 29.2309L109.237 29.2136L109.282 29.1985L109.328 29.1855L109.375 29.1747L109.422 29.1661L109.471 29.16L109.52 29.1563L109.57 29.155L109.619 29.1563L109.669 29.16L109.717 29.1661L109.765 29.1747L109.811 29.1855L109.857 29.1985L109.902 29.2136L109.946 29.2309L109.989 29.2503L110.031 29.2716L110.071 29.2949L110.111 29.3201L110.148 29.347L110.185 29.3757L110.22 29.4061L110.254 29.438L110.286 29.4716L110.316 29.5067L110.345 29.5432L110.372 29.581L110.397 29.6203L110.42 29.6607L110.442 29.7023L110.461 29.7452L110.478 29.789L110.494 29.8339L110.507 29.8798L110.517 29.9265L110.526 29.9741L110.532 30.0224L110.536 30.0715L110.537 30.1212ZM102.677 29.155H109.57V31.0874H102.677L101.709 30.1212L102.677 29.155V29.155ZM102.677 29.155V31.0874L102.627 31.0862L102.578 31.0825L102.529 31.0763L102.482 31.0677L102.435 31.057L102.389 31.0439L102.344 31.0288L102.3 31.0115L102.257 30.9922L102.215 30.9708L102.175 30.9475L102.136 30.9224L102.098 30.8955L102.061 30.8667L102.026 30.8364L101.992 30.8044L101.96 30.7708L101.93 30.7358L101.901 30.6993L101.874 30.6614L101.849 30.6222L101.826 30.5817L101.804 30.5401L101.785 30.4973L101.768 30.4535L101.753 30.4086L101.74 30.3627L101.729 30.3159L101.72 30.2683L101.714 30.22L101.71 30.1709L101.709 30.1212L101.71 30.0715L101.714 30.0224L101.72 29.9741L101.729 29.9265L101.74 29.8798L101.753 29.8339L101.768 29.789L101.785 29.7452L101.804 29.7023L101.826 29.6607L101.849 29.6203L101.874 29.581L101.901 29.5432L101.93 29.5067L101.96 29.4716L101.992 29.438L102.026 29.4061L102.061 29.3757L102.098 29.347L102.136 29.3201L102.175 29.2949L102.215 29.2716L102.257 29.2503L102.3 29.2309L102.344 29.2136L102.389 29.1985L102.435 29.1855L102.482 29.1747L102.529 29.1661L102.578 29.16L102.627 29.1563L102.677 29.155ZM101.709 61.1388V30.1213H103.644V61.1388L102.677 62.1049L101.709 61.1388H101.709ZM101.709 61.1388H103.644L103.643 61.1884L103.639 61.2375L103.633 61.2859L103.624 61.3335L103.613 61.3802L103.6 61.4261L103.585 61.471L103.568 61.5148L103.549 61.5577L103.527 61.5993L103.504 61.6397L103.479 61.679L103.452 61.7168L103.423 61.7533L103.393 61.7883L103.361 61.822L103.327 61.8539L103.292 61.8843L103.255 61.913L103.217 61.9399L103.178 61.9651L103.138 61.9883L103.096 62.0097L103.053 62.029L103.009 62.0463L102.964 62.0615L102.918 62.0745L102.871 62.0853L102.824 62.0938L102.775 62.1L102.726 62.1037L102.677 62.1049L102.627 62.1037L102.578 62.1L102.529 62.0938L102.482 62.0853L102.435 62.0745L102.389 62.0615L102.344 62.0463L102.3 62.029L102.257 62.0097L102.215 61.9883L102.175 61.9651L102.136 61.9399L102.098 61.913L102.061 61.8843L102.026 61.8539L101.992 61.822L101.96 61.7883L101.93 61.7533L101.901 61.7168L101.874 61.679L101.849 61.6397L101.826 61.5993L101.804 61.5577L101.785 61.5148L101.768 61.471L101.753 61.4261L101.74 61.3802L101.729 61.3335L101.72 61.2859L101.714 61.2375L101.71 61.1884L101.709 61.1388ZM109.57 62.1049H102.677V60.1726H109.57L110.537 61.1387L109.57 62.1049V62.1049ZM109.57 62.1049V60.1726L109.619 60.1738L109.669 60.1775L109.717 60.1837L109.765 60.1922L109.811 60.203L109.857 60.216L109.902 60.2312L109.946 60.2485L109.989 60.2678L110.031 60.2892L110.071 60.3125L110.111 60.3376L110.148 60.3645L110.185 60.3932L110.22 60.4236L110.254 60.4555L110.286 60.4892L110.316 60.5242L110.345 60.5607L110.372 60.5985L110.397 60.6378L110.42 60.6782L110.442 60.7198L110.461 60.7627L110.478 60.8065L110.494 60.8514L110.507 60.8973L110.517 60.944L110.526 60.9916L110.532 61.04L110.536 61.0891L110.537 61.1387L110.536 61.1884L110.532 61.2375L110.526 61.2859L110.517 61.3334L110.507 61.3802L110.494 61.4261L110.478 61.471L110.461 61.5148L110.442 61.5577L110.42 61.5993L110.397 61.6397L110.372 61.679L110.345 61.7168L110.316 61.7533L110.286 61.7883L110.254 61.822L110.22 61.8539L110.185 61.8843L110.148 61.913L110.111 61.9399L110.071 61.965L110.031 61.9883L109.989 62.0097L109.946 62.029L109.902 62.0463L109.857 62.0615L109.811 62.0745L109.765 62.0853L109.717 62.0938L109.669 62.1L109.619 62.1037L109.57 62.1049Z" fill="#333333"/>
<path d="M109.679 69.3929H52.2642V67.4585H109.679V69.3929Z" fill="#333333"/>
<path d="M116.975 62.1046H102.676V60.173H116.975V62.1046Z" fill="#333333"/>
<path d="M116.008 61.1387H117.943L117.932 61.5624L117.901 61.9813L117.848 62.3943L117.776 62.801L117.683 63.2006L117.571 63.5926L117.441 63.9764L117.294 64.3515L117.128 64.7174L116.945 65.0734L116.746 65.419L116.531 65.7537L116.301 66.0775L116.056 66.3891L115.796 66.6883L115.523 66.9747L115.236 67.2477L114.937 67.5069L114.624 67.752L114.3 67.982L113.965 68.1966L113.619 68.3952L113.263 68.5775L112.896 68.7429L112.521 68.8909L112.136 69.0207L111.744 69.132L111.343 69.2242L110.937 69.2967L110.523 69.3492L110.103 69.381L109.679 69.3919V67.4595L110.006 67.4512L110.328 67.4269L110.645 67.3866L110.956 67.331L111.263 67.2605L111.562 67.1755L111.856 67.0762L112.143 66.9632L112.423 66.8367L112.696 66.6973L112.961 66.5449L113.218 66.3806L113.466 66.2044L113.705 66.0166L113.934 65.8177L114.154 65.6083L114.364 65.3886L114.564 65.1591L114.752 64.9202L114.928 64.6725L115.093 64.4159L115.245 64.1511L115.385 63.8788L115.511 63.599L115.625 63.3123L115.724 63.019L115.809 62.7195L115.88 62.4139L115.935 62.1028L115.975 61.7865L116 61.465L116.008 61.1387Z" fill="#333333"/>
<path d="M105.813 21.2406H33.8379V19.3082H105.813V21.2406Z" fill="#333333"/>
<path d="M52.3419 67.4595H109.757V69.3919H52.3419V67.4595ZM52.3419 67.4595V69.3919L52.2922 69.3906L52.243 69.3869L52.1946 69.3808L52.147 69.3722L52.1002 69.3614L52.0542 69.3484L52.0093 69.3333L51.9654 69.3159L51.9225 69.2966L51.8808 69.2753L51.8403 69.252L51.801 69.2268L51.7632 69.1999L51.7266 69.1712L51.6915 69.1408L51.6578 69.1089L51.6259 69.0753L51.5955 69.0402L51.5667 69.0037L51.5397 68.9659L51.5146 68.9266L51.4913 68.8862L51.4699 68.8446L51.4505 68.8017L51.4332 68.7579L51.418 68.713L51.405 68.6671L51.3942 68.6204L51.3856 68.5728L51.3795 68.5244L51.3758 68.4753L51.3745 68.4257L51.3758 68.376L51.3795 68.3269L51.3856 68.2785L51.3942 68.231L51.405 68.1842L51.418 68.1383L51.4332 68.0934L51.4505 68.0496L51.4699 68.0068L51.4913 67.9651L51.5146 67.9247L51.5397 67.8854L51.5667 67.8476L51.5955 67.8111L51.6259 67.7761L51.6578 67.7424L51.6915 67.7105L51.7266 67.6802L51.7632 67.6514L51.801 67.6245L51.8403 67.5994L51.8808 67.5761L51.9225 67.5547L51.9654 67.5354L52.0093 67.5181L52.0542 67.5029L52.1002 67.4899L52.147 67.4791L52.1946 67.4706L52.243 67.4644L52.2922 67.4607L52.3419 67.4595ZM59.7156 60.1725V62.1049L60.6829 61.1572L60.6643 61.58L60.6251 61.9977L60.5657 62.4096L60.4867 62.8151L60.3886 63.2135L60.272 63.6042L60.1371 63.987L59.9847 64.3609L59.8152 64.7256L59.6292 65.0805L59.427 65.4253L59.2093 65.7591L58.9766 66.0819L58.7292 66.3928L58.4677 66.6914L58.1927 66.9773L57.9045 67.2498L57.6038 67.5085L57.2906 67.7531L56.9658 67.9829L56.6299 68.1972L56.2833 68.3957L55.9264 68.5779L55.5598 68.7432L55.184 68.891L54.7993 69.0209L54.4066 69.132L54.0064 69.2242L53.5993 69.2968L53.1856 69.3493L52.7662 69.3811L52.3419 69.3919V67.4595L52.6687 67.4512L52.9905 67.4269L53.3073 67.3866L53.6191 67.331L53.9253 67.2605L54.2255 67.1754L54.5195 67.0761L54.8071 66.963L55.088 66.8364L55.3616 66.6967L55.6276 66.5444L55.8857 66.3797L56.1352 66.2033L56.376 66.0151L56.6075 65.8158L56.8297 65.6058L57.0416 65.3855L57.2432 65.1554L57.4338 64.9158L57.6132 64.6671L57.781 64.4096L57.9368 64.144L58.08 63.8706L58.2106 63.5897L58.328 63.3018L58.4317 63.0073L58.5216 62.7065L58.5971 62.3998L58.658 62.0875L58.7037 61.77L58.734 61.4475L58.7484 61.1202L59.7156 60.1725V60.1725ZM60.6829 61.1572L58.7484 61.1202L58.7506 61.0705L58.7553 61.0215L58.7623 60.9733L58.7718 60.9259L58.7835 60.8793L58.7974 60.8338L58.8134 60.7892L58.8315 60.7457L58.8517 60.7032L58.874 60.6619L58.898 60.622L58.9239 60.5832L58.9516 60.5459L58.981 60.5099L59.0121 60.4755L59.0448 60.4425L59.079 60.4112L59.1146 60.3815L59.1517 60.3536L59.1902 60.3273L59.2299 60.303L59.2709 60.2804L59.313 60.2599L59.3562 60.2414L59.4005 60.2249L59.4457 60.2106L59.4918 60.1985L59.5389 60.1885L59.5867 60.181L59.6352 60.1758L59.6843 60.173L59.7342 60.1727L59.7839 60.1748L59.833 60.1796L59.8812 60.1866L59.9287 60.196L59.9753 60.2077L60.0209 60.2216L60.0656 60.2376L60.1092 60.2557L60.1517 60.2759L60.193 60.2981L60.233 60.3221L60.2718 60.3479L60.3092 60.3756L60.3452 60.405L60.3797 60.436L60.4127 60.4687L60.444 60.5029L60.4738 60.5384L60.5018 60.5755L60.528 60.6139L60.5524 60.6536L60.575 60.6945L60.5955 60.7366L60.614 60.7797L60.6305 60.8239L60.6449 60.8691L60.6571 60.9151L60.667 60.9621L60.6746 61.0099L60.6798 61.0583L60.6826 61.1074L60.6829 61.1572ZM118.021 61.1387H116.086L117.053 62.1049H115.67H114.208H112.672H111.069H109.402H107.678H105.902H104.078H102.212H100.309H98.3751H96.4146H94.4329H92.4354H90.4272H88.4135H86.3997H84.3908H82.3921H80.4089H78.4464H76.5096H74.6041H72.7349H70.9072H69.1263H67.3974H65.7257H64.1165H62.5749H61.1062H59.7156V60.1725H61.1062H62.5749H64.1165H65.7257H67.3974H69.1263H70.9072H72.7349H74.6041H76.5096H78.4464H80.4089H82.3921H84.3908H86.3997H88.4135H90.4272H92.4354H94.4329H96.4146H98.3751H100.309H102.212H104.078H105.902H107.678H109.402H111.069H112.672H114.208H115.67H117.053L118.021 61.1387V61.1387ZM117.053 62.1049V60.1725L117.103 60.1737L117.152 60.1774L117.201 60.1836L117.248 60.1922L117.295 60.2029L117.341 60.2159L117.386 60.2311L117.43 60.2484L117.473 60.2677L117.514 60.2891L117.555 60.3124L117.594 60.3375L117.632 60.3644L117.669 60.3932L117.704 60.4235L117.737 60.4555L117.769 60.4891L117.8 60.5241L117.829 60.5606L117.856 60.5985L117.881 60.6377L117.904 60.6781L117.925 60.7198L117.945 60.7626L117.962 60.8064L117.977 60.8513L117.99 60.8972L118.001 60.944L118.01 60.9916L118.016 61.0399L118.02 61.089L118.021 61.1387L118.02 61.1884L118.016 61.2375L118.01 61.2858L118.001 61.3334L117.99 61.3801L117.977 61.426L117.962 61.4709L117.945 61.5147L117.925 61.5576L117.904 61.5992L117.881 61.6396L117.856 61.6789L117.829 61.7167L117.8 61.7532L117.769 61.7883L117.737 61.8219L117.704 61.8538L117.669 61.8842L117.632 61.9129L117.594 61.9398L117.555 61.965L117.514 61.9883L117.473 62.0096L117.43 62.029L117.386 62.0463L117.341 62.0614L117.295 62.0744L117.248 62.0852L117.201 62.0938L117.152 62.0999L117.103 62.1036L117.053 62.1049ZM109.757 69.3918V67.4595L110.084 67.4512L110.406 67.4269L110.722 67.3866L111.034 67.331L111.34 67.2605L111.64 67.1755L111.933 67.0762L112.221 66.9632L112.501 66.8367L112.773 66.6972L113.038 66.545L113.295 66.3805L113.543 66.2044L113.783 66.0166L114.012 65.8178L114.232 65.6083L114.442 65.3886L114.641 65.159L114.829 64.9202L115.006 64.6725L115.17 64.4159L115.323 64.1512L115.462 63.8788L115.589 63.599L115.702 63.3123L115.802 63.019L115.887 62.7195L115.957 62.4139L116.013 62.1028L116.053 61.7864L116.078 61.465L116.086 61.1387H118.021L118.01 61.5624L117.978 61.9813L117.926 62.3943L117.853 62.8009L117.761 63.2005L117.649 63.5925L117.519 63.9765L117.371 64.3516L117.205 64.7174L117.023 65.0734L116.824 65.419L116.609 65.7537L116.379 66.0775L116.133 66.3891L115.874 66.6883L115.601 66.9747L115.314 67.2478L115.014 67.507L114.702 67.7519L114.378 67.982L114.043 68.1966L113.697 68.3952L113.34 68.5776L112.974 68.7429L112.598 68.8909L112.214 69.0208L111.822 69.132L111.421 69.2242L111.014 69.2968L110.601 69.3493L110.181 69.3811L109.757 69.3919V69.3918ZM109.757 67.4595V69.3918L109.707 69.3906L109.658 69.3869L109.61 69.3808L109.562 69.3722L109.515 69.3614L109.469 69.3484L109.424 69.3333L109.381 69.3159L109.338 69.2966L109.296 69.2752L109.255 69.252L109.216 69.2268L109.178 69.1999L109.142 69.1712L109.107 69.1408L109.073 69.1089L109.041 69.0752L109.011 69.0402L108.982 69.0037L108.955 68.9659L108.93 68.9266L108.906 68.8862L108.885 68.8446L108.866 68.8017L108.848 68.7579L108.833 68.713L108.82 68.6671L108.809 68.6204L108.801 68.5728L108.795 68.5244L108.791 68.4753L108.79 68.4257L108.791 68.376L108.795 68.3269L108.801 68.2785L108.809 68.231L108.82 68.1842L108.833 68.1383L108.848 68.0934L108.866 68.0496L108.885 68.0068L108.906 67.9651L108.93 67.9247L108.955 67.8854L108.982 67.8476L109.011 67.8111L109.041 67.7761L109.073 67.7424L109.107 67.7105L109.142 67.6802L109.178 67.6514L109.216 67.6245L109.255 67.5994L109.296 67.5761L109.338 67.5547L109.381 67.5354L109.424 67.5181L109.469 67.5029L109.515 67.4899L109.562 67.4791L109.61 67.4706L109.658 67.4644L109.707 67.4607L109.757 67.4595Z" fill="#333333"/>
<path d="M52.3418 69.3919V67.4595L52.6686 67.4513L52.9904 67.4269L53.3072 67.3866L53.6189 67.3311L53.9252 67.2605L54.2254 67.1755L54.5194 67.0762L54.807 66.963L55.0879 66.8364L55.3615 66.6968L55.6275 66.5444L55.8855 66.3798L56.1351 66.2033L56.3759 66.0152L56.6074 65.8158L56.8296 65.6058L57.0415 65.3856L57.243 65.1554L57.4337 64.9159L57.6131 64.6671L57.7809 64.4096L57.9366 64.1441L58.0799 63.8707L58.2105 63.5897L58.3279 63.3019L58.4316 63.0074L58.5215 62.7066L58.597 62.3998L58.6579 62.0875L58.7036 61.7701L58.7339 61.4475L58.7483 61.1202L60.6828 61.1572L60.6642 61.58L60.625 61.9977L60.5656 62.4097L60.4866 62.8151L60.3885 63.2135L60.2719 63.6043L60.137 63.987L59.9846 64.361L59.8151 64.7256L59.6291 65.0806L59.4269 65.4253L59.2092 65.7592L58.9765 66.0819L58.7291 66.3929L58.4676 66.6915L58.1925 66.9773L57.9044 67.2499L57.6037 67.5085L57.2905 67.7532L56.9657 67.9829L56.6298 68.1972L56.2832 68.3958L55.9263 68.578L55.5597 68.7432L55.1839 68.891L54.7992 69.0209L54.4065 69.132L54.0063 69.2243L53.5992 69.2968L53.1855 69.3494L52.7661 69.3811L52.3418 69.3919H52.3418ZM44.078 61.1387H46.0129L46.0212 61.4651L46.0456 61.7865L46.0859 62.1028L46.1415 62.414L46.2121 62.7194L46.2973 63.0191L46.3967 63.3125L46.5098 63.5991L46.6365 63.8788L46.7761 64.1512L46.9286 64.4159L47.0931 64.6724L47.2696 64.9203L47.4576 65.1592L47.6567 65.3887L47.8665 65.6084L48.0864 65.8178L48.3162 66.0167L48.5555 66.2045L48.8036 66.3807L49.0604 66.545L49.3255 66.6973L49.5982 66.8367L49.8783 66.9632L50.1655 67.0763L50.4591 67.1755L50.759 67.2605L51.065 67.3311L51.3765 67.3866L51.6933 67.4269L52.0151 67.4513L52.3418 67.4595V69.3919L51.9176 69.3811L51.4982 69.3494L51.0846 69.2968L50.6775 69.2243L50.2775 69.132L49.8848 69.0208L49.5005 68.8909L49.1249 68.7431L48.7585 68.5776L48.4021 68.3953L48.056 68.1966L47.7207 67.982L47.3968 67.752L47.0847 67.507L46.785 67.2478L46.4983 66.9748L46.2249 66.6884L45.9653 66.3891L45.7201 66.0775L45.4898 65.7539L45.2749 65.419L45.0759 65.0734L44.8934 64.7175L44.7278 64.3516L44.5796 63.9764L44.4497 63.5926L44.3382 63.2007L44.2459 62.801L44.1732 62.3944L44.1206 61.9813L44.0888 61.5624L44.078 61.1387ZM46.0129 61.1387H44.078L44.0793 61.089L44.083 61.0399L44.0892 60.9916L44.0977 60.944L44.1085 60.8973L44.1216 60.8514L44.1367 60.8065L44.1541 60.7627L44.1734 60.7198L44.1948 60.6782L44.2181 60.6378L44.2433 60.5985L44.2702 60.5607L44.299 60.5242L44.3294 60.4891L44.3614 60.4555L44.395 60.4236L44.4301 60.3932L44.4667 60.3645L44.5046 60.3376L44.5439 60.3124L44.5844 60.2891L44.626 60.2678L44.669 60.2484L44.7128 60.2311L44.7578 60.216L44.8037 60.203L44.8505 60.1922L44.8982 60.1836L44.9466 60.1775L44.9957 60.1738L45.0455 60.1725L45.0952 60.1738L45.1444 60.1775L45.1928 60.1836L45.2404 60.1922L45.2872 60.203L45.3332 60.216L45.3781 60.2311L45.422 60.2484L45.4649 60.2678L45.5066 60.2891L45.5471 60.3124L45.5864 60.3376L45.6243 60.3645L45.6608 60.3932L45.6959 60.4236L45.7296 60.4555L45.7616 60.4891L45.7919 60.5242L45.8207 60.5607L45.8477 60.5985L45.8728 60.6378L45.8962 60.6782L45.9175 60.7198L45.9369 60.7627L45.9542 60.8065L45.9694 60.8514L45.9824 60.8973L45.9932 60.944L46.0018 60.9916L46.0079 61.0399L46.0116 61.089L46.0129 61.1387H46.0129ZM44.078 28.9195H46.0129V29.9264V30.9331V31.94V32.9468V33.9537V34.9606V35.9674V36.9742V37.9811V38.988V39.9948V41.0017V42.0085V43.0154V44.0222V45.0291V46.036V47.0428V48.0496V49.0565V50.0634V51.0702V52.0771V53.0839V54.0908V55.0976V56.1045V57.1114V58.1181V59.125V60.1318V61.1387H44.078V60.1318V59.125V58.1181V57.1114V56.1045V55.0976V54.0908V53.0839V52.0771V51.0702V50.0634V49.0565V48.0496V47.0428V46.036V45.0291V44.0222V43.0154V42.0085V41.0017V39.9948V38.988V37.9811V36.9742V35.9674V34.9606V33.9537V32.9468V31.94V30.9331V29.9264V28.9195ZM46.0129 28.9195H44.078L44.0793 28.8698L44.083 28.8207L44.0892 28.7724L44.0977 28.7248L44.1085 28.678L44.1216 28.6321L44.1367 28.5872L44.1541 28.5434L44.1734 28.5006L44.1948 28.459L44.2181 28.4185L44.2433 28.3793L44.2702 28.3414L44.299 28.3049L44.3294 28.2699L44.3614 28.2363L44.395 28.2043L44.4301 28.174L44.4667 28.1452L44.5046 28.1183L44.5439 28.0932L44.5844 28.0699L44.626 28.0485L44.669 28.0292L44.7128 28.0119L44.7578 27.9967L44.8037 27.9837L44.8505 27.973L44.8982 27.9644L44.9466 27.9582L44.9957 27.9545L45.0455 27.9533L45.0952 27.9545L45.1444 27.9582L45.1928 27.9644L45.2404 27.973L45.2872 27.9837L45.3332 27.9967L45.3781 28.0119L45.422 28.0292L45.4649 28.0485L45.5066 28.0699L45.5471 28.0932L45.5864 28.1183L45.6243 28.1452L45.6608 28.174L45.6959 28.2043L45.7296 28.2363L45.7616 28.2699L45.7919 28.3049L45.8207 28.3414L45.8477 28.3793L45.8728 28.4185L45.8962 28.459L45.9175 28.5006L45.9369 28.5434L45.9542 28.5872L45.9694 28.6321L45.9824 28.678L45.9932 28.7248L46.0018 28.7724L46.0079 28.8207L46.0116 28.8698L46.0129 28.9195H46.0129ZM36.3893 19.3082V21.2406V19.3082L36.8836 19.3208L37.3719 19.3578L37.8535 19.4189L38.3276 19.5034L38.7934 19.6109L39.2504 19.7404L39.6981 19.8917L40.1354 20.064L40.5619 20.2565L40.977 20.4688L41.3801 20.7003L41.7705 20.9503L42.1477 21.2182L42.5111 21.5034L42.8601 21.8053L43.1942 22.1233L43.5127 22.457L43.8149 22.8055L44.1006 23.1685L44.3687 23.5452L44.6191 23.9351L44.8509 24.3377L45.0634 24.7523L45.2562 25.1782L45.4287 25.615L45.5802 26.0621L45.7099 26.5185L45.8175 26.9837L45.9021 27.4572L45.9633 27.9382L46.0004 28.4259L46.0129 28.9195H44.0781L44.0681 28.5234L44.0383 28.1331L43.9894 27.7488L43.9218 27.3709L43.836 26.9997L43.7325 26.6356L43.6118 26.2793L43.4742 25.9308L43.3203 25.5909L43.1505 25.26L42.9655 24.9384L42.7655 24.6268L42.551 24.3256L42.3227 24.0354L42.0808 23.7567L41.826 23.4898L41.5588 23.2353L41.2797 22.9938L40.9891 22.7657L40.6875 22.5515L40.3755 22.3517L40.0536 22.1669L39.7222 21.9974L39.3818 21.8437L39.0329 21.7063L38.6762 21.5857L38.3116 21.4824L37.9399 21.3966L37.5615 21.3291L37.1768 21.2803L36.7859 21.2506L36.3893 21.2406V19.3082L36.3893 19.3082ZM36.3893 19.3082V21.2406L36.3396 21.2393L36.2904 21.2356L36.242 21.2295L36.1944 21.2209L36.1476 21.2102L36.1016 21.1971L36.0566 21.182L36.0128 21.1647L35.9699 21.1454L35.9282 21.124L35.8877 21.1007L35.8484 21.0756L35.8105 21.0487L35.774 21.0199L35.7389 20.9896L35.7052 20.9576L35.6732 20.924L35.6428 20.889L35.614 20.8525L35.5871 20.8146L35.5619 20.7754L35.5386 20.7349L35.5172 20.6933L35.4979 20.6505L35.4805 20.6067L35.4654 20.5618L35.4523 20.5159L35.4416 20.4691L35.433 20.4215L35.4268 20.3732L35.4231 20.3241L35.4219 20.2744L35.4231 20.2247L35.4268 20.1756L35.433 20.1273L35.4416 20.0797L35.4523 20.033L35.4654 19.9871L35.4805 19.9422L35.4979 19.8984L35.5172 19.8555L35.5386 19.8139L35.5619 19.7735L35.5871 19.7342L35.614 19.6964L35.6428 19.6599L35.6732 19.6248L35.7052 19.5912L35.7389 19.5593L35.774 19.5289L35.8105 19.5002L35.8484 19.4733L35.8877 19.4481L35.9282 19.4248L35.9699 19.4035L36.0128 19.3841L36.0566 19.3668L36.1016 19.3517L36.1476 19.3387L36.1944 19.3279L36.242 19.3193L36.2904 19.3132L36.3396 19.3095L36.3893 19.3082ZM95.0597 19.3082V21.2406H93.2263H91.3929H89.5594H87.7259H85.8925H84.059H82.2256H80.3921H78.5587H76.7252H74.8917H73.0583H71.2249H69.3913H67.5579H65.7245H63.891H62.0575H60.2241H58.3906H56.5572H54.7237H52.8902H51.0568H49.2234H47.3899H45.5565H43.723H41.8895H40.0561H38.2227H36.3893V19.3082H38.2227H40.0561H41.8895H43.723H45.5565H47.3899H49.2234H51.0568H52.8902H54.7237H56.5572H58.3906H60.2241H62.0575H63.891H65.7245H67.5579H69.3913H71.2249H73.0583H74.8917H76.7252H78.5587H80.3921H82.2256H84.059H85.8925H87.7259H89.5594H91.3929H93.2263H95.0597ZM95.0597 21.2406V19.3082L95.1095 19.3095L95.1586 19.3132L95.207 19.3193L95.2547 19.3279L95.3015 19.3387L95.3474 19.3517L95.3924 19.3668L95.4362 19.3841L95.4792 19.4035L95.5208 19.4248L95.5613 19.4481L95.6006 19.4733L95.6385 19.5002L95.675 19.5289L95.7101 19.5593L95.7438 19.5912L95.7758 19.6248L95.8062 19.6599L95.835 19.6964L95.8619 19.7342L95.8871 19.7735L95.9104 19.8139L95.9318 19.8555L95.9511 19.8984L95.9685 19.9422L95.9836 19.9871L95.9967 20.033L96.0075 20.0797L96.016 20.1273L96.0222 20.1756L96.0259 20.2247L96.0272 20.2744L96.0259 20.3241L96.0222 20.3732L96.016 20.4215L96.0075 20.4691L95.9967 20.5159L95.9836 20.5618L95.9685 20.6067L95.9511 20.6505L95.9318 20.6933L95.9104 20.7349L95.8871 20.7754L95.8619 20.8146L95.835 20.8525L95.8062 20.889L95.7758 20.924L95.7438 20.9576L95.7101 20.9896L95.675 21.0199L95.6385 21.0487L95.6006 21.0756L95.5613 21.1007L95.5208 21.124L95.4792 21.1454L95.4362 21.1647L95.3924 21.182L95.3474 21.1971L95.3015 21.2102L95.2547 21.2209L95.207 21.2295L95.1586 21.2356L95.1095 21.2393L95.0597 21.2406ZM103.721 27.959H101.786L101.778 27.6123L101.752 27.2708L101.709 26.9345L101.65 26.604L101.575 26.2792L101.484 25.9608L101.378 25.6488L101.258 25.3441L101.124 25.0468L100.975 24.7572L100.813 24.476L100.638 24.2033L100.451 23.9398L100.251 23.6859L100.039 23.4418L99.8162 23.2084L99.5824 22.9859L99.3381 22.7744L99.0837 22.5748L98.82 22.3874L98.5471 22.2128L98.2653 22.0509L97.9754 21.9026L97.6778 21.7681L97.3727 21.6481L97.0604 21.5425L96.7416 21.452L96.4165 21.3771L96.0855 21.318L95.7488 21.2753L95.4069 21.2494L95.0597 21.2406V19.3082L95.5045 19.3195L95.9439 19.3529L96.3774 19.4079L96.8042 19.4839L97.2236 19.5807L97.6348 19.6974L98.0376 19.8334L98.4313 19.9884L98.8153 20.1619L99.1889 20.3529L99.5515 20.5612L99.9031 20.7862L100.243 21.0274L100.57 21.2841L100.884 21.5557L101.184 21.8419L101.471 22.1423L101.743 22.456L102 22.7827L102.241 23.1217L102.467 23.4727L102.675 23.835L102.867 24.2081L103.04 24.5915L103.195 24.9848L103.332 25.3871L103.449 25.7978L103.545 26.2167L103.622 26.643L103.677 27.0759L103.71 27.5148L103.721 27.959V27.959ZM101.786 27.959H103.721L103.72 28.0087L103.716 28.0578L103.71 28.1062L103.702 28.1537L103.691 28.2005L103.678 28.2464L103.663 28.2913L103.645 28.3351L103.626 28.3779L103.605 28.4196L103.581 28.46L103.556 28.4993L103.529 28.5371L103.5 28.5736L103.47 28.6086L103.438 28.6423L103.404 28.6742L103.369 28.7046L103.333 28.7333L103.295 28.7602L103.255 28.7853L103.215 28.8086L103.173 28.83L103.13 28.8493L103.086 28.8666L103.042 28.8818L102.996 28.8948L102.949 28.9056L102.901 28.9141L102.853 28.9203L102.804 28.924L102.754 28.9252L102.704 28.924L102.655 28.9203L102.607 28.9141L102.559 28.9056L102.512 28.8948L102.466 28.8818L102.421 28.8666L102.377 28.8493L102.334 28.83L102.293 28.8086L102.252 28.7853L102.213 28.7602L102.175 28.7333L102.139 28.7046L102.103 28.6742L102.07 28.6423L102.038 28.6086L102.007 28.5736L101.979 28.5371L101.952 28.4993L101.926 28.46L101.903 28.4196L101.882 28.3779L101.862 28.3351L101.845 28.2913L101.83 28.2464L101.817 28.2005L101.806 28.1537L101.798 28.1062L101.791 28.0578L101.788 28.0087L101.786 27.959ZM102.754 62.1049V60.1726L101.786 61.1387V60.1019V59.065V58.0282V56.9914V55.9545V54.9176V53.8808V52.8439V51.807V50.7701V49.7333V48.6964V47.6595V46.6226V45.5857V44.5488V43.512V42.4751V41.4383V40.4014V39.3645V38.3277V37.2908V36.2539V35.217V34.1802V33.1433V32.1064V31.0696V30.0327V28.9958V27.959H103.721V28.9958V30.0327V31.0696V32.1064V33.1433V34.1802V35.217V36.2539V37.2908V38.3277V39.3645V40.4014V41.4383V42.4751V43.512V44.5488V45.5857V46.6226V47.6595V48.6964V49.7333V50.7701V51.807V52.8439V53.8808V54.9176V55.9545V56.9914V58.0282V59.065V60.1019V61.1387L102.754 62.1049L102.754 62.1049ZM101.786 61.1388H103.721L103.72 61.1884L103.716 61.2375L103.71 61.2859L103.702 61.3335L103.691 61.3802L103.678 61.4261L103.663 61.471L103.645 61.5148L103.626 61.5577L103.605 61.5993L103.581 61.6397L103.556 61.679L103.529 61.7168L103.5 61.7533L103.47 61.7883L103.438 61.822L103.404 61.8539L103.369 61.8843L103.333 61.913L103.295 61.9399L103.255 61.9651L103.215 61.9883L103.173 62.0097L103.13 62.029L103.086 62.0463L103.042 62.0615L102.996 62.0745L102.949 62.0853L102.901 62.0938L102.853 62.1L102.804 62.1037L102.754 62.1049L102.704 62.1037L102.655 62.1L102.607 62.0938L102.559 62.0853L102.512 62.0745L102.466 62.0615L102.421 62.0463L102.377 62.029L102.334 62.0097L102.293 61.9883L102.252 61.9651L102.213 61.9399L102.175 61.913L102.139 61.8843L102.103 61.8539L102.07 61.822L102.038 61.7883L102.007 61.7533L101.979 61.7168L101.952 61.679L101.926 61.6397L101.903 61.5993L101.882 61.5577L101.862 61.5148L101.845 61.471L101.83 61.4261L101.817 61.3802L101.806 61.3335L101.798 61.2859L101.791 61.2375L101.788 61.1884L101.786 61.1388ZM60.6828 61.1572L58.7483 61.1203L59.7156 60.1726H61.0652H62.4142H63.7629H65.1112H66.4591H67.8066H69.1538H70.5006H71.847H73.1931H74.5389H75.8845H77.2297H78.5746H79.9193H81.2638H82.608H83.952H85.2959H86.6395H87.9829H89.3263H90.6694H92.0124H93.3554H94.6982H96.041H97.3836H98.7262H100.069H101.411H102.754V62.1049H101.411H100.069H98.7262H97.3836H96.041H94.6982H93.3554H92.0124H90.6694H89.3263H87.9829H86.6395H85.2959H83.952H82.608H81.2638H79.9193H78.5746H77.2297H75.8845H74.5389H73.1931H71.847H70.5006H69.1538H67.8066H66.4591H65.1112H63.7629H62.4142H61.0652H59.7156L60.6828 61.1573L60.6828 61.1572ZM59.7156 60.1726V62.1049L59.6658 62.1037L59.6167 62.1L59.5683 62.0938L59.5206 62.0853L59.4738 62.0745L59.4279 62.0615L59.3829 62.0463L59.3391 62.029L59.2961 62.0097L59.2545 61.9883L59.214 61.965L59.1747 61.9399L59.1368 61.913L59.1002 61.8843L59.0651 61.8539L59.0315 61.822L58.9995 61.7883L58.9691 61.7533L58.9403 61.7168L58.9134 61.679L58.8882 61.6397L58.8649 61.5993L58.8435 61.5577L58.8242 61.5148L58.8068 61.471L58.7917 61.4261L58.7786 61.3802L58.7678 61.3335L58.7593 61.2859L58.7531 61.2375L58.7494 61.1884L58.7481 61.1387L58.7494 61.0891L58.7531 61.04L58.7593 60.9916L58.7678 60.944L58.7786 60.8973L58.7917 60.8514L58.8068 60.8065L58.8242 60.7627L58.8435 60.7198L58.8649 60.6782L58.8882 60.6378L58.9134 60.5985L58.9403 60.5607L58.9691 60.5242L58.9995 60.4892L59.0315 60.4555L59.0651 60.4236L59.1002 60.3932L59.1368 60.3645L59.1747 60.3376L59.214 60.3124L59.2545 60.2892L59.2961 60.2678L59.3391 60.2485L59.3829 60.2312L59.4279 60.216L59.4738 60.203L59.5206 60.1922L59.5683 60.1837L59.6167 60.1775L59.6658 60.1738L59.7156 60.1726Z" fill="#333333"/>
<path fill-rule="evenodd" clip-rule="evenodd" d="M5.45557 77.5093H14.5926V30.1212H5.45557V77.5093Z" fill="#66798F"/>
<path d="M14.5928 78.4755H5.45577V76.5431H14.5928L15.5602 77.5093L14.5928 78.4755V78.4755ZM14.5928 78.4755V76.5431L14.6426 76.5444L14.6917 76.5481L14.7401 76.5542L14.7878 76.5628L14.8346 76.5736L14.8805 76.5866L14.9255 76.6017L14.9693 76.619L15.0123 76.6384L15.0539 76.6597L15.0944 76.683L15.1337 76.7081L15.1716 76.735L15.2081 76.7638L15.2432 76.7941L15.2769 76.8261L15.3089 76.8597L15.3393 76.8948L15.3681 76.9313L15.395 76.9691L15.4202 77.0084L15.4435 77.0488L15.4649 77.0904L15.4842 77.1333L15.5016 77.1771L15.5167 77.222L15.5298 77.2679L15.5405 77.3146L15.5491 77.3622L15.5553 77.4105L15.559 77.4596L15.5602 77.5093L15.559 77.559L15.5553 77.6081L15.5491 77.6564L15.5405 77.704L15.5298 77.7508L15.5167 77.7966L15.5016 77.8415L15.4842 77.8853L15.4649 77.9282L15.4435 77.9698L15.4202 78.0103L15.395 78.0495L15.3681 78.0874L15.3393 78.1238L15.3089 78.1589L15.2769 78.1925L15.2432 78.2245L15.2081 78.2548L15.1716 78.2836L15.1337 78.3105L15.0944 78.3356L15.0539 78.3589L15.0123 78.3802L14.9693 78.3996L14.9255 78.4169L14.8805 78.432L14.8346 78.4451L14.7878 78.4558L14.7401 78.4644L14.6917 78.4705L14.6426 78.4742L14.5928 78.4755ZM15.5602 30.1212V77.5093H13.6254V30.1212L14.5928 29.155L15.5602 30.1212H15.5602ZM15.5602 30.1212H13.6254L13.6266 30.0715L13.6303 30.0224L13.6365 29.9741L13.6451 29.9265L13.6558 29.8798L13.6689 29.8339L13.684 29.789L13.7014 29.7452L13.7207 29.7023L13.7421 29.6607L13.7654 29.6203L13.7906 29.581L13.8175 29.5432L13.8463 29.5067L13.8767 29.4716L13.9087 29.438L13.9424 29.4061L13.9775 29.3757L14.014 29.347L14.0519 29.3201L14.0912 29.2949L14.1317 29.2716L14.1733 29.2503L14.2163 29.2309L14.2601 29.2136L14.3051 29.1985L14.351 29.1855L14.3978 29.1747L14.4455 29.1661L14.4939 29.16L14.5431 29.1563L14.5928 29.155L14.6425 29.1563L14.6917 29.16L14.7401 29.1661L14.7878 29.1747L14.8346 29.1855L14.8805 29.1985L14.9255 29.2136L14.9693 29.2309L15.0122 29.2503L15.0539 29.2716L15.0944 29.2949L15.1337 29.3201L15.1716 29.347L15.2081 29.3757L15.2432 29.4061L15.2769 29.438L15.3089 29.4716L15.3393 29.5067L15.3681 29.5432L15.395 29.581L15.4202 29.6203L15.4435 29.6607L15.4649 29.7023L15.4842 29.7452L15.5016 29.789L15.5167 29.8339L15.5298 29.8798L15.5405 29.9265L15.5491 29.9741L15.5553 30.0224L15.559 30.0715L15.5602 30.1212ZM5.45572 29.155H14.5928V31.0874H5.45572L4.48828 30.1212L5.45572 29.155V29.155ZM5.45572 29.155V31.0874L5.40597 31.0862L5.35681 31.0825L5.30841 31.0763L5.26077 31.0677L5.21396 31.057L5.168 31.0439L5.12305 31.0288L5.0792 31.0115L5.03627 30.9922L4.9946 30.9708L4.95411 30.9475L4.9148 30.9224L4.87692 30.8955L4.84039 30.8667L4.80529 30.8364L4.77162 30.8044L4.73963 30.7708L4.70924 30.7358L4.68045 30.6993L4.65352 30.6614L4.62835 30.6222L4.60503 30.5817L4.58365 30.5401L4.56429 30.4973L4.54695 30.4535L4.5318 30.4086L4.51875 30.3627L4.50798 30.3159L4.49939 30.2683L4.49325 30.22L4.48954 30.1709L4.48828 30.1212L4.48954 30.0715L4.49325 30.0224L4.49939 29.9741L4.50798 29.9265L4.51875 29.8798L4.5318 29.8339L4.54695 29.789L4.56429 29.7452L4.58365 29.7023L4.60503 29.6607L4.62835 29.6203L4.65352 29.581L4.68045 29.5432L4.70924 29.5067L4.73963 29.4716L4.77162 29.438L4.80529 29.4061L4.84039 29.3757L4.87692 29.347L4.9148 29.3201L4.95411 29.2949L4.9946 29.2716L5.03627 29.2503L5.0792 29.2309L5.12305 29.2136L5.168 29.1985L5.21396 29.1855L5.26077 29.1747L5.30841 29.1661L5.35681 29.16L5.40597 29.1563L5.45572 29.155ZM4.48828 77.5093V30.1213H6.42316V77.5093L5.45573 78.4755L4.48829 77.5093H4.48828ZM4.48828 77.5093H6.42316L6.4219 77.559L6.41819 77.6081L6.41205 77.6564L6.40346 77.704L6.39269 77.7508L6.37964 77.7967L6.36449 77.8415L6.34715 77.8853L6.32779 77.9282L6.30641 77.9698L6.28309 78.0103L6.25792 78.0495L6.23098 78.0874L6.2022 78.1238L6.17181 78.1589L6.13982 78.1925L6.10615 78.2245L6.07105 78.2548L6.03452 78.2836L5.99664 78.3105L5.95733 78.3356L5.91684 78.3589L5.87517 78.3803L5.83224 78.3996L5.78839 78.4169L5.74344 78.432L5.69748 78.4451L5.65067 78.4558L5.60303 78.4644L5.55463 78.4705L5.50547 78.4742L5.45572 78.4755L5.40597 78.4742L5.35681 78.4705L5.30841 78.4644L5.26077 78.4558L5.21397 78.4451L5.16801 78.432L5.12306 78.4169L5.0792 78.3996L5.03627 78.3803L4.9946 78.3589L4.95412 78.3356L4.91481 78.3105L4.87693 78.2836L4.84039 78.2548L4.80529 78.2245L4.77162 78.1925L4.73964 78.1589L4.70925 78.1238L4.68046 78.0874L4.65352 78.0495L4.62835 78.0103L4.60504 77.9698L4.58366 77.9282L4.5643 77.8853L4.54696 77.8415L4.5318 77.7967L4.51876 77.7508L4.50798 77.704L4.4994 77.6564L4.49325 77.6081L4.48955 77.559L4.48829 77.5093H4.48828Z" fill="#333333"/>
<path d="M5.50049 19.423V8.05615H7.43533V19.423H5.50049Z" fill="#4E7AB5"/>
<path d="M11.4312 19.423V8.05615H13.366V19.423H11.4312Z" fill="#4E7AB5"/>
<path d="M17.3623 19.423V8.05615H19.2972V19.423H17.3623Z" fill="#4E7AB5"/>
<path d="M23.293 19.423V8.05615H25.2278V19.423H23.293Z" fill="#4E7AB5"/>
<path d="M6.46798 25.6657C7.1091 25.6657 7.62884 25.1466 7.62884 24.5063C7.62884 23.866 7.1091 23.3469 6.46798 23.3469C5.82686 23.3469 5.30713 23.866 5.30713 24.5063C5.30713 25.1466 5.82686 25.6657 6.46798 25.6657Z" fill="#FFEEA3"/>
<path d="M12.3986 25.6657C13.0398 25.6657 13.5595 25.1466 13.5595 24.5063C13.5595 23.866 13.0398 23.3469 12.3986 23.3469C11.7575 23.3469 11.2378 23.866 11.2378 24.5063C11.2378 25.1466 11.7575 25.6657 12.3986 25.6657Z" fill="#FFEEA3"/>
<path d="M18.3298 25.6657C18.9709 25.6657 19.4907 25.1466 19.4907 24.5063C19.4907 23.866 18.9709 23.3469 18.3298 23.3469C17.6887 23.3469 17.1689 23.866 17.1689 24.5063C17.1689 25.1466 17.6887 25.6657 18.3298 25.6657Z" fill="#FFEEA3"/>
<path d="M24.2605 25.6658C24.9016 25.6658 25.4213 25.1467 25.4213 24.5063C25.4213 23.866 24.9016 23.3469 24.2605 23.3469C23.6193 23.3469 23.0996 23.866 23.0996 24.5063C23.0996 25.1467 23.6193 25.6658 24.2605 25.6658Z" fill="#FFEEA3"/>
<path d="M59.7887 53.7065V51.7431H60.6062C60.8722 51.7431 61.1351 51.711 61.3948 51.6469C61.6544 51.5812 61.9061 51.4786 62.1513 51.3392C62.3933 51.2093 62.6065 51.041 62.794 50.8359C62.9815 50.6291 63.129 50.3887 63.238 50.1098C63.3454 49.8325 63.4015 49.5216 63.4047 49.1738C63.4047 48.3692 63.1418 47.7665 62.6161 47.3642C62.0904 46.9619 61.3018 46.7615 60.2487 46.7615C59.9186 46.7615 59.5659 46.7776 59.1909 46.8096C58.8174 46.8417 58.4199 46.8898 58 46.9539V53.7065H59.7887ZM59.7887 48.2265C59.8929 48.2185 59.9811 48.2137 60.0532 48.2105C60.1269 48.2089 60.1862 48.2073 60.2311 48.2073C60.6318 48.2073 60.9331 48.2874 61.1319 48.4493C61.3322 48.6112 61.4332 48.8532 61.4332 49.1738C61.4332 49.5665 61.3322 49.8598 61.1303 50.0553C60.9283 50.2509 60.6254 50.3486 60.2215 50.3486H59.7887V48.2265ZM66.3235 53.7065V51.6501H67.0559L68.0946 53.7065H70.2968L68.7197 51.2366C68.9713 51.0923 69.1877 50.9192 69.372 50.7157C69.5547 50.5137 69.6974 50.2845 69.7968 50.0297C69.8977 49.7748 69.9474 49.4959 69.949 49.193C69.949 48.8067 69.8849 48.4637 69.7567 48.164C69.6269 47.8643 69.4345 47.6078 69.1797 47.3946C68.6668 46.9731 67.8686 46.7615 66.7835 46.7615C66.4228 46.7615 66.0558 46.7776 65.6823 46.8096C65.3089 46.8417 64.929 46.8898 64.5443 46.9539H64.5347V53.7065H66.3235ZM66.3235 48.2265C66.4276 48.2185 66.5174 48.2137 66.5911 48.2105C66.6665 48.2089 66.7274 48.2073 66.7755 48.2073C67.1681 48.2073 67.4663 48.2906 67.6698 48.4557C67.8734 48.6208 67.976 48.866 67.9776 49.193C67.9776 49.5616 67.875 49.847 67.6698 50.0457C67.4647 50.2461 67.1569 50.347 66.7466 50.3486H66.3235V48.2265ZM73.3727 53.7065V46.9539H71.4477V53.7065H73.3727ZM76.6729 53.7065V50.1755L76.6264 49.4478H76.6632L79.5002 53.7065H81.5326V46.9539H79.8657V50.7061L79.917 51.2735H79.8753L77.0207 46.9539H75.0204V53.7065H76.6729ZM84.299 48.4749V53.7065H86.2209V48.4749H88V46.9539H82.5007V48.4749H84.299Z" fill="#2B2A29"/>
<path fill-rule="evenodd" clip-rule="evenodd" d="M68.9473 27H80.8154C81.9207 27 82.9752 27.0846 83.9846 27.2481C84.4865 27.3383 84.9207 27.4229 85.2873 27.5075C85.6482 27.5921 85.9414 27.6767 86.167 27.7612L86.8436 28.0094L86.5654 30.8169C85.869 30.6945 83.8842 30.683 82.5384 30.613C80.3942 30.5014 77.5729 30.2691 75.6527 30.327C75.765 30.1906 75.8326 30.0161 75.8326 29.8266V29.8264C75.8326 29.4579 75.5768 29.1464 75.2341 29.0602L75.2557 29.0365H75.0426H68.9473C68.3874 29.0365 67.9292 28.5785 67.9292 28.0184V28.0181C67.9292 27.4581 68.3873 27 68.9473 27Z" fill="#5CA7F2"/>
<path fill-rule="evenodd" clip-rule="evenodd" d="M70.3789 34.3097H70.9117C71.4776 34.3097 71.9405 34.7727 71.9405 35.3385C71.9405 35.9043 71.4776 36.3673 70.9117 36.3673H70.3789C69.8131 36.3673 69.3501 35.9043 69.3501 35.3385C69.3501 34.7727 69.8131 34.3097 70.3789 34.3097Z" fill="#FFED00"/>
<path fill-rule="evenodd" clip-rule="evenodd" d="M64.61 40.1091H80.2885C80.7006 40.0843 80.8678 40.0247 81.0423 39.9493C81.4666 39.7659 81.6051 39.4794 81.6051 39.1749C81.5996 38.9663 81.4528 38.7913 81.1766 38.6561C81.1533 38.6448 81.1334 38.6351 81.1086 38.6238C81.2981 38.7165 82.6513 38.5533 84.6028 38.2932C84.6658 38.2849 87.54 37.8322 87.5744 37.1832C87.8518 37.7185 87.9945 38.3595 88 39.1073C88.0036 39.9696 87.8871 40.7494 87.652 41.4425C86.9107 42.5455 79.1166 42.441 74.5005 42.2116C74.4219 42.1696 74.3322 42.1456 74.2373 42.1456H74.1828H68.3317H64.61C64.0499 42.1456 63.5918 41.6876 63.5918 41.1275V41.1272C63.5918 40.5672 64.0499 40.1091 64.61 40.1091Z" fill="#92C02C"/>
<path fill-rule="evenodd" clip-rule="evenodd" d="M61.5939 40.1091H62.136C62.6961 40.1091 63.1543 40.5673 63.1543 41.1273V41.1274C63.1543 41.6874 62.6961 42.1456 62.136 42.1456H61.5939C61.0339 42.1456 60.5757 41.6874 60.5757 41.1274V41.1273C60.5757 40.5673 61.0339 40.1091 61.5939 40.1091Z" fill="#92C02C"/>
<path d="M87.6519 41.4425C87.5197 41.8323 87.3499 42.1952 87.1428 42.5302C86.5676 43.455 85.6766 44.1599 84.4586 44.6449C83.2462 45.1242 81.6841 45.3667 79.7725 45.3667H70.3337C69.7565 45.3667 69.2842 44.8945 69.2842 44.3173V44.317C69.2842 43.7397 69.7565 43.2674 70.3337 43.2674H74.0688H74.2373C74.5459 43.2674 74.7982 43.0151 74.7982 42.7066V42.7065C74.7982 42.4928 74.6773 42.3063 74.5005 42.2116C79.1166 42.441 86.9107 42.5455 87.6519 41.4425Z" fill="#5CA7F2"/>
<path fill-rule="evenodd" clip-rule="evenodd" d="M73.4447 34.3098H74.057H75.5486L75.5746 34.3096L75.6007 34.3094L75.6266 34.3092L75.6525 34.309L75.6784 34.3087L75.6987 34.3086H75.7044L75.7302 34.3084L75.756 34.3082L75.7818 34.3081L75.8077 34.3079L75.8334 34.3078L75.8478 34.3077H75.8591L75.8848 34.3075L75.9104 34.3074L75.9361 34.3073L75.9617 34.3072L75.9873 34.3071L75.996 34.307H76.0128L76.0383 34.3069L76.0638 34.3068L76.0892 34.3066H76.1147L76.1401 34.3065H76.1432H76.1654L76.1908 34.3064H76.2161L76.2414 34.3063H76.2667H76.2895H76.292L76.3172 34.3062H76.3424H76.3676H76.3927H76.4179H76.435H76.443L76.4681 34.3063H76.4931H76.5181L76.5431 34.3064H76.5681H76.5797L76.5931 34.3065H76.618L76.643 34.3066L76.6678 34.3068L76.6927 34.3069H76.7175L76.7236 34.307H76.7424L76.7671 34.3071L76.7919 34.3072L76.8167 34.3074L76.8414 34.3075L76.8661 34.3076H76.8668L76.8908 34.3078L76.9155 34.3079L76.9401 34.308L76.9647 34.3082L76.9894 34.3084L77.0091 34.3085H77.0139L77.0385 34.3087L77.0631 34.309L77.0875 34.3092L77.1121 34.3094L77.1366 34.3096L77.1509 34.3097L77.161 34.3098C77.8566 34.3167 78.5292 34.332 79.1981 34.3577L79.2212 34.3586L79.3571 34.3641L79.3601 34.3642L79.4412 34.3675L79.4929 34.3697L79.5222 34.371L79.6032 34.3747L79.6287 34.3758L79.6842 34.3783L79.7645 34.3821H79.7652L79.8462 34.3861L79.9004 34.3887L79.9272 34.3901L80.0084 34.3943L80.0364 34.3957L80.0895 34.3985L80.1707 34.4028L80.1724 34.4029L80.2519 34.4073L80.3087 34.4105L80.3332 34.4118L80.4145 34.4166L80.4452 34.4183L80.5774 34.4262L80.5817 34.4265L80.6591 34.4313L80.7187 34.4349L80.7408 34.4364L80.8227 34.4416L80.8559 34.4437L80.9046 34.4469L80.9866 34.4525L80.9934 34.4529L81.0688 34.458L81.1314 34.4623L81.1512 34.4637L81.2336 34.4695L81.2697 34.4721L81.3164 34.4754L81.3992 34.4814L81.4085 34.4822L81.4821 34.4876L81.5477 34.4926L81.5652 34.4939L81.6486 34.5002L81.6875 34.5033L81.7322 34.5067L81.8158 34.5134L81.8278 34.5144L81.8998 34.5202L81.9688 34.5257L81.9839 34.527L82.0683 34.534L82.1103 34.5375L82.1529 34.5412L82.2377 34.5484L82.2524 34.5497L82.3229 34.5558L82.3953 34.5621L82.4082 34.5632L82.4938 34.5709L82.539 34.5749L82.5796 34.5785L82.6658 34.5864L82.6833 34.588L82.7522 34.5944L82.8285 34.6015L82.839 34.6025L82.926 34.6108L82.9745 34.6154L83.0134 34.6191L83.101 34.6276L83.1215 34.6295L83.189 34.6362L83.2693 34.6441L83.2773 34.645L83.3659 34.6538L83.4181 34.6592L83.4549 34.6628L83.5442 34.672L83.5678 34.6744L83.6339 34.6813L83.7186 34.6901L83.724 34.6906L83.8144 34.7002L83.8704 34.7062L83.9052 34.7099L83.9965 34.7196L84.0232 34.7226L84.0881 34.7296L84.1773 34.7394L84.1801 34.7397L84.2726 34.7499L84.3325 34.7566L84.3654 34.7602L84.4587 34.7706L84.4889 34.7741L84.5524 34.7813L84.6466 34.7921C84.7225 34.8234 84.8001 34.8564 84.8757 34.8893C85.4397 35.1318 85.9585 35.4306 86.4265 35.7972C86.8891 36.1551 87.3113 36.6602 87.5743 37.1833C87.5399 37.8323 84.6657 38.285 84.6027 38.2933C82.6512 38.5534 81.298 38.7166 81.1085 38.6239C80.8407 38.5006 80.4901 38.3818 80.0712 38.2784C79.6088 38.16 79.1069 38.0247 78.5543 37.8723C78.0073 37.7201 77.4546 37.5228 76.9077 37.2803C76.3634 37.047 75.8685 36.7427 75.4173 36.3673H73.4447C72.8789 36.3673 72.416 35.9046 72.416 35.3388V35.3384C72.416 34.7726 72.8789 34.3098 73.4447 34.3098Z" fill="#FFED00"/>
<path fill-rule="evenodd" clip-rule="evenodd" d="M59.0496 30.6167H67.5489H74.2533H75.0428C75.2878 30.6167 75.5078 30.5037 75.6529 30.3271C77.5731 30.2693 80.3944 30.5016 82.5386 30.6131C83.8843 30.6831 85.8692 30.6946 86.5657 30.8159L86.3645 32.8479C85.4284 32.6054 84.5938 32.4306 83.8495 32.3121C83.1051 32.1937 82.4566 32.1373 81.904 32.1373C81.4416 32.1373 81.0807 32.1599 80.81 32.205C80.5449 32.2502 80.3532 32.3235 80.2348 32.425C80.1219 32.5265 80.0656 32.6561 80.0712 32.814C80.0769 33.0396 80.2235 33.2314 80.5111 33.3836C80.7931 33.5415 81.1709 33.6881 81.6389 33.8234C82.1126 33.9644 82.6258 34.1111 83.1896 34.2802C83.6765 34.4214 84.1633 34.5922 84.6465 34.7921C81.2701 34.405 78.7617 34.2829 75.5485 34.3098H74.1157C74.554 34.3098 74.9124 33.9513 74.9124 33.513C74.9124 33.0748 74.554 32.7162 74.1157 32.7162H73.8576H66.4795H59.0496C58.4723 32.7162 58 32.2439 58 31.6666V31.6663C58 31.089 58.4723 30.6167 59.0496 30.6167Z" fill="#E61A77"/>
</svg>
