<svg width="99" height="86" viewBox="0 0 99 86" fill="none" xmlns="http://www.w3.org/2000/svg">
<path fill-rule="evenodd" clip-rule="evenodd" d="M76.0964 78.6246C76.0964 82.2506 79.0402 85.1906 82.6709 85.1906C67.0946 85.1906 51.5178 85.1906 35.9418 85.1906C33.223 85.1906 31.0193 82.9897 31.0193 80.2744C31.0193 72.041 31.0193 63.8079 31.0193 55.5745C31.0193 51.9484 28.0755 49.0084 24.4448 49.0084C40.0212 49.0084 55.5978 49.0084 71.174 49.0084C73.8928 49.0084 76.0964 51.2093 76.0964 53.9246V78.6246Z" fill="white"/>
<path d="M82.6707 86V84.3814V86L82.2915 85.9903L81.9168 85.9619L81.5473 85.915L81.1835 85.8501L80.8259 85.7677L80.4752 85.6682L80.1318 85.5522L79.7961 85.42L79.4688 85.2722L79.1503 85.1093L78.841 84.9316L78.5414 84.7398L78.2519 84.5342L77.9732 84.3154L77.7053 84.0838L77.449 83.8397L77.2046 83.5836L76.9726 83.3161L76.7535 83.0378L76.5476 82.7487L76.3556 82.4495L76.1777 82.1405L76.0145 81.8223L75.8667 81.4955L75.7343 81.1604L75.6181 80.8173L75.5185 80.4671L75.4359 80.1099L75.371 79.7466L75.324 79.3776L75.2955 79.0033L75.2859 78.6246H76.9066L76.914 78.9216L76.9364 79.2142L76.973 79.5024L77.0237 79.7857L77.088 80.0639L77.1656 80.3368L77.2561 80.604L77.3593 80.865L77.4747 81.1199L77.6018 81.368L77.7406 81.609L77.8905 81.8426L78.0513 82.0684L78.2226 82.286L78.4039 82.4951L78.595 82.6952L78.7952 82.8859L79.0046 83.067L79.2225 83.2381L79.4486 83.3987L79.6825 83.5484L79.9238 83.687L80.1723 83.8141L80.4274 83.9293L80.6887 84.0322L80.9563 84.1227L81.2296 84.2002L81.5081 84.2644L81.7918 84.315L82.0804 84.3516L82.3733 84.3739L82.6707 84.3814V86ZM82.6707 86V84.3814L82.7124 84.3824L82.7535 84.3856L82.7941 84.3907L82.834 84.3978L82.8732 84.4068L82.9117 84.4177L82.9493 84.4305L82.9861 84.445L83.022 84.4612L83.0569 84.4791L83.0909 84.4986L83.1237 84.5196L83.1555 84.5422L83.1861 84.5662L83.2155 84.5916L83.2437 84.6185L83.2705 84.6466L83.296 84.6759L83.32 84.7065L83.3426 84.7382L83.3637 84.771L83.3832 84.805L83.4011 84.8398L83.4173 84.8757L83.4319 84.9125L83.4446 84.95L83.4555 84.9884L83.4646 85.0275L83.4717 85.0675L83.4768 85.108L83.48 85.1491L83.481 85.1907L83.48 85.2323L83.4768 85.2734L83.4717 85.3139L83.4646 85.3538L83.4555 85.3929L83.4446 85.4313L83.4319 85.4689L83.4173 85.5057L83.4011 85.5415L83.3832 85.5764L83.3637 85.6103L83.3426 85.6431L83.32 85.6748L83.296 85.7054L83.2705 85.7348L83.2437 85.7629L83.2155 85.7897L83.1861 85.8152L83.1555 85.8391L83.1237 85.8618L83.0909 85.8828L83.0569 85.9022L83.022 85.9201L82.9861 85.9363L82.9493 85.9509L82.9117 85.9636L82.8732 85.9745L82.834 85.9835L82.7941 85.9906L82.7535 85.9957L82.7124 85.9989L82.6707 86V86ZM35.9416 86V84.3814H37.4018H38.8621H40.3223H41.7826H43.2429H44.7031H46.1635H47.6237H49.084H50.5443H52.0046H53.4649H54.9251H56.3854H57.8458H59.306H60.7663H62.2266H63.6869H65.1472H66.6075H68.0678H69.5281H70.9884H72.4487H73.9089H75.3693H76.8296H78.2898H79.7501H81.2104H82.6707V86H81.2104H79.7501H78.2898H76.8296H75.3693H73.9089H72.4487H70.9884H69.5281H68.0678H66.6075H65.1472H63.6869H62.2266H60.7663H59.306H57.8458H56.3854H54.9251H53.4649H52.0046H50.5443H49.084H47.6237H46.1635H44.7031H43.2429H41.7826H40.3223H38.8621H37.4018H35.9416ZM35.9416 84.3814V86L35.8999 85.999L35.8588 85.9957L35.8182 85.9906L35.7782 85.9835L35.739 85.9745L35.7006 85.9636L35.663 85.9509L35.6262 85.9363L35.5902 85.9201L35.5553 85.9022L35.5214 85.8828L35.4885 85.8618L35.4567 85.8391L35.4262 85.8152L35.3968 85.7897L35.3685 85.7629L35.3418 85.7348L35.3162 85.7054L35.2922 85.6749L35.2696 85.6431L35.2486 85.6103L35.229 85.5764L35.2111 85.5415L35.1949 85.5057L35.1804 85.4689L35.1676 85.4313L35.1567 85.3929L35.1477 85.3538L35.1406 85.3139L35.1354 85.2734L35.1322 85.2323L35.1312 85.1907L35.1322 85.1491L35.1354 85.108L35.1406 85.0675L35.1477 85.0276L35.1567 84.9884L35.1676 84.95L35.1804 84.9125L35.1949 84.8757L35.2111 84.8398L35.229 84.805L35.2486 84.771L35.2696 84.7382L35.2922 84.7065L35.3162 84.6759L35.3418 84.6466L35.3685 84.6185L35.3968 84.5916L35.4262 84.5662L35.4567 84.5422L35.4885 84.5196L35.5214 84.4986L35.5553 84.4791L35.5902 84.4612L35.6262 84.445L35.663 84.4305L35.7006 84.4177L35.739 84.4068L35.7782 84.3978L35.8182 84.3907L35.8588 84.3856L35.8999 84.3824L35.9416 84.3814ZM30.2088 80.2744H31.8294L31.8348 80.4866L31.8507 80.6956L31.8768 80.9011L31.913 81.1032L31.9589 81.3017L32.0141 81.4962L32.0787 81.6867L32.1522 81.873L32.2346 82.0547L32.3252 82.2317L32.4242 82.4036L32.5311 82.5702L32.6459 82.7313L32.7681 82.8867L32.8974 83.0358L33.0337 83.1785L33.1767 83.3146L33.3261 83.4439L33.4816 83.566L33.6429 83.6805L33.8098 83.7874L33.9818 83.8861L34.1591 83.9768L34.341 84.059L34.5274 84.1324L34.7182 84.1969L34.913 84.2521L35.1118 84.2979L35.3141 84.334L35.5199 84.3601L35.7291 84.376L35.9416 84.3814V86L35.6474 85.9925L35.3566 85.9704L35.0696 85.9341L34.7872 85.8836L34.5096 85.8197L34.2371 85.7424L33.9705 85.6523L33.7098 85.5497L33.4556 85.435L33.2084 85.3085L32.9683 85.1706L32.7357 85.0217L32.511 84.8621L32.2946 84.6922L32.0868 84.5125L31.8878 84.3231L31.6981 84.1243L31.518 83.9167L31.3481 83.7007L31.1882 83.4763L31.0391 83.2439L30.9011 83.0041L30.7744 82.7571L30.6596 82.5033L30.5569 82.243L30.4666 81.9767L30.3892 81.7045L30.3253 81.4273L30.2747 81.1453L30.2383 80.8586L30.2163 80.5683L30.2088 80.2745V80.2744ZM31.8294 80.2744H30.2088L30.2098 80.2328L30.213 80.1918L30.2181 80.1513L30.2252 80.1113L30.2343 80.0722L30.2452 80.0338L30.2579 79.9962L30.2725 79.9595L30.2887 79.9236L30.3066 79.8887L30.3261 79.8548L30.3471 79.822L30.3698 79.7903L30.3938 79.7597L30.4193 79.7304L30.4461 79.7023L30.4743 79.6754L30.5037 79.6499L30.5343 79.626L30.5661 79.6034L30.5989 79.5824L30.6329 79.5629L30.6678 79.545L30.7037 79.5288L30.7405 79.5143L30.7781 79.5015L30.8166 79.4906L30.8558 79.4816L30.8957 79.4745L30.9363 79.4694L30.9774 79.4662L31.0191 79.4651L31.0608 79.4662L31.1019 79.4694L31.1425 79.4745L31.1824 79.4816L31.2216 79.4906L31.2601 79.5015L31.2977 79.5143L31.3345 79.5288L31.3704 79.545L31.4053 79.5629L31.4393 79.5824L31.4721 79.6034L31.5039 79.626L31.5345 79.6499L31.5639 79.6754L31.592 79.7023L31.6189 79.7304L31.6444 79.7597L31.6684 79.7903L31.691 79.822L31.7121 79.8548L31.7316 79.8887L31.7495 79.9236L31.7657 79.9595L31.7803 79.9962L31.793 80.0338L31.8039 80.0722L31.813 80.1113L31.8201 80.1513L31.8252 80.1918L31.8284 80.2328L31.8294 80.2744ZM30.2088 55.5746H31.8294V56.3465V57.1183V57.8902V58.6621V59.434V60.2058V60.9777V61.7496V62.5214V63.2933V64.0652V64.8371V65.6089V66.3808V67.1527V67.9245V68.6964V69.4683V70.2402V71.012V71.7839V72.5558V73.3276V74.0995V74.8714V75.6432V76.4151V77.187V77.9589V78.7307V79.5026V80.2745H30.2088V79.5026V78.7307V77.9589V77.187V76.4151V75.6432V74.8714V74.0995V73.3276V72.5558V71.7839V71.012V70.2402V69.4683V68.6964V67.9245V67.1527V66.3808V65.6089V64.8371V64.0652V63.2933V62.5214V61.7496V60.9777V60.2058V59.434V58.6621V57.8902V57.1183V56.3465V55.5746ZM31.8294 55.5746H30.2088L30.2098 55.533L30.213 55.4919L30.2181 55.4514L30.2252 55.4115L30.2343 55.3723L30.2452 55.3339L30.2579 55.2964L30.2725 55.2596L30.2887 55.2237L30.3066 55.1889L30.3261 55.1549L30.3471 55.1221L30.3698 55.0904L30.3938 55.0598L30.4193 55.0305L30.4461 55.0024L30.4743 54.9755L30.5037 54.9501L30.5343 54.9261L30.5661 54.9035L30.5989 54.8825L30.6329 54.863L30.6678 54.8451L30.7037 54.8289L30.7405 54.8144L30.7781 54.8016L30.8166 54.7907L30.8558 54.7817L30.8957 54.7746L30.9363 54.7695L30.9774 54.7663L31.0191 54.7653L31.0608 54.7663L31.1019 54.7695L31.1425 54.7746L31.1824 54.7817L31.2216 54.7907L31.2601 54.8016L31.2977 54.8144L31.3345 54.8289L31.3704 54.8451L31.4053 54.863L31.4393 54.8825L31.4721 54.9035L31.5039 54.9261L31.5345 54.9501L31.5639 54.9755L31.592 55.0024L31.6189 55.0305L31.6444 55.0598L31.6684 55.0904L31.691 55.1221L31.7121 55.1549L31.7316 55.1889L31.7495 55.2237L31.7657 55.2596L31.7803 55.2964L31.793 55.3339L31.8039 55.3723L31.813 55.4115L31.8201 55.4514L31.8252 55.4919L31.8284 55.533L31.8294 55.5746ZM24.4446 48.1992V49.8178V48.1992L24.8238 48.2088L25.1985 48.2373L25.568 48.2842L25.9318 48.3491L26.2894 48.4315L26.6401 48.531L26.9836 48.647L27.3192 48.7793L27.6464 48.9269L27.965 49.0899L28.2744 49.2676L28.574 49.4594L28.8634 49.665L29.1422 49.8838L29.4101 50.1155L29.6663 50.3595L29.9107 50.6155L30.1427 50.8831L30.3618 51.1614L30.5677 51.4505L30.7597 51.7497L30.9377 52.0587L31.1008 52.3769L31.2487 52.7037L31.3811 53.0388L31.4972 53.3819L31.5968 53.7321L31.6794 54.0893L31.7444 54.4526L31.7913 54.8216L31.8198 55.1959L31.8294 55.5746H30.2088L30.2013 55.2775L30.1789 54.985L30.1423 54.6968L30.0917 54.4135L30.0274 54.1353L29.9497 53.8624L29.8592 53.5952L29.7561 53.3342L29.6407 53.0792L29.5135 52.8312L29.3748 52.5902L29.2248 52.3566L29.064 52.1308L28.8927 51.9132L28.7114 51.7042L28.5203 51.5041L28.32 51.3132L28.1107 51.1321L27.8928 50.9611L27.6667 50.8005L27.4329 50.6508L27.1915 50.5122L26.9431 50.3852L26.6879 50.2699L26.4265 50.1669L26.159 50.0765L25.8858 49.999L25.6072 49.9348L25.3235 49.8842L25.0349 49.8476L24.742 49.8253L24.4446 49.8178V48.1992H24.4446ZM24.4446 48.1992V49.8178L24.403 49.8168L24.3618 49.8136L24.3213 49.8085L24.2813 49.8014L24.2421 49.7923L24.2037 49.7815L24.1661 49.7687L24.1292 49.7542L24.0933 49.738L24.0584 49.7201L24.0244 49.7006L23.9916 49.6796L23.9598 49.657L23.9292 49.633L23.8998 49.6075L23.8716 49.5808L23.8448 49.5526L23.8193 49.5233L23.7953 49.4927L23.7727 49.461L23.7516 49.4282L23.7321 49.3942L23.7142 49.3594L23.698 49.3235L23.6834 49.2867L23.6707 49.2492L23.6598 49.2108L23.6508 49.1716L23.6437 49.1317L23.6385 49.0912L23.6353 49.0501L23.6343 49.0085L23.6353 48.9669L23.6385 48.9258L23.6437 48.8853L23.6508 48.8454L23.6598 48.8063L23.6707 48.7679L23.6834 48.7303L23.698 48.6935L23.7142 48.6577L23.7321 48.6228L23.7516 48.5889L23.7727 48.5561L23.7953 48.5243L23.8193 48.4938L23.8448 48.4644L23.8716 48.4363L23.8998 48.4095L23.9292 48.384L23.9598 48.3601L23.9916 48.3374L24.0244 48.3164L24.0584 48.2969L24.0933 48.279L24.1292 48.2628L24.1661 48.2483L24.2037 48.2356L24.2421 48.2247L24.2813 48.2157L24.3213 48.2086L24.3618 48.2034L24.403 48.2002L24.4446 48.1992ZM71.1738 48.1992V49.8178H69.7135H68.2532H66.793H65.3327H63.8724H62.4121H60.9519H59.4915H58.0313H56.571H55.1108H53.6504H52.1901H50.7299H49.2696H47.8093H46.349H44.8887H43.4284H41.9681H40.5078H39.0476H37.5873H36.1269H34.6667H33.2064H31.7461H30.2858H28.8255H27.3652H25.9049H24.4446V48.1992H25.9049H27.3652H28.8255H30.2858H31.7461H33.2064H34.6667H36.1269H37.5873H39.0476H40.5078H41.9681H43.4284H44.8887H46.349H47.8093H49.2696H50.7299H52.1901H53.6504H55.1108H56.571H58.0313H59.4915H60.9519H62.4121H63.8724H65.3327H66.793H68.2532H69.7135H71.1738ZM71.1738 49.8178V48.1992L71.2154 48.2002L71.2566 48.2034L71.2971 48.2086L71.3371 48.2157L71.3763 48.2247L71.4147 48.2356L71.4523 48.2483L71.4892 48.2628L71.5251 48.279L71.56 48.2969L71.5939 48.3164L71.6268 48.3374L71.6586 48.3601L71.6892 48.384L71.7186 48.4095L71.7468 48.4363L71.7736 48.4644L71.7991 48.4938L71.8231 48.5243L71.8457 48.5561L71.8668 48.5889L71.8863 48.6228L71.9042 48.6577L71.9204 48.6935L71.9349 48.7303L71.9477 48.7679L71.9586 48.8063L71.9676 48.8454L71.9747 48.8853L71.9799 48.9258L71.9831 48.9669L71.9841 49.0085L71.9831 49.0501L71.9799 49.0912L71.9747 49.1317L71.9676 49.1716L71.9586 49.2108L71.9477 49.2492L71.9349 49.2867L71.9204 49.3235L71.9042 49.3594L71.8863 49.3942L71.8668 49.4282L71.8457 49.461L71.8231 49.4927L71.7991 49.5232L71.7736 49.5526L71.7468 49.5808L71.7186 49.6075L71.6892 49.633L71.6586 49.657L71.6268 49.6796L71.5939 49.7006L71.56 49.7201L71.5251 49.738L71.4892 49.7542L71.4523 49.7687L71.4147 49.7815L71.3763 49.7923L71.3371 49.8014L71.2971 49.8085L71.2566 49.8136L71.2154 49.8168L71.1738 49.8178ZM76.9066 53.9247H75.2859L75.2806 53.7126L75.2646 53.5036L75.2385 53.2981L75.2023 53.096L75.1564 52.8975L75.1012 52.703L75.0366 52.5125L74.9631 52.3262L74.8808 52.1445L74.7901 51.9675L74.6911 51.7955L74.5842 51.629L74.4695 51.4679L74.3472 51.3125L74.2179 51.1634L74.0816 51.0207L73.9386 50.8846L73.7892 50.7553L73.6337 50.6332L73.4724 50.5187L73.3055 50.4118L73.1335 50.3131L72.9562 50.2223L72.7743 50.1402L72.5879 50.0667L72.3971 50.0023L72.2023 49.9471L72.0035 49.9013L71.8012 49.8652L71.5955 49.8391L71.3862 49.8231L71.1738 49.8178V48.1992L71.468 48.2067L71.7587 48.2288L72.0457 48.2651L72.3281 48.3156L72.6057 48.3795L72.8782 48.4568L73.1448 48.5469L73.4055 48.6495L73.6597 48.7642L73.9069 48.8907L74.147 49.0286L74.3796 49.1775L74.6043 49.3371L74.8207 49.507L75.0285 49.6867L75.2275 49.8761L75.4172 50.0748L75.5973 50.2825L75.7672 50.4985L75.9271 50.7229L76.0762 50.9553L76.2142 51.1951L76.3409 51.4421L76.4557 51.6959L76.5585 51.9562L76.6487 52.2225L76.7261 52.4946L76.79 52.7718L76.8406 53.0539L76.877 53.3406L76.899 53.6309L76.9066 53.9247L76.9066 53.9247ZM75.2859 53.9247H76.9066L76.9055 53.9663L76.9023 54.0074L76.8972 54.0479L76.8901 54.0879L76.881 54.127L76.8701 54.1654L76.8574 54.2029L76.8429 54.2397L76.8266 54.2756L76.8087 54.3104L76.7892 54.3444L76.7682 54.3772L76.7455 54.4089L76.7215 54.4395L76.696 54.4688L76.6692 54.497L76.641 54.5238L76.6116 54.5492L76.581 54.5732L76.5493 54.5958L76.5164 54.6168L76.4824 54.6363L76.4475 54.6542L76.4116 54.6704L76.3748 54.6849L76.3372 54.6977L76.2987 54.7086L76.2595 54.7176L76.2196 54.7247L76.179 54.7298L76.1379 54.733L76.0962 54.734L76.0546 54.733L76.0134 54.7298L75.9729 54.7247L75.9329 54.7176L75.8937 54.7086L75.8553 54.6977L75.8177 54.6849L75.7808 54.6704L75.7449 54.6542L75.71 54.6363L75.6761 54.6168L75.6432 54.5958L75.6114 54.5732L75.5808 54.5492L75.5514 54.5238L75.5233 54.497L75.4964 54.4688L75.4709 54.4395L75.4469 54.4089L75.4243 54.3772L75.4032 54.3444L75.3837 54.3104L75.3658 54.2756L75.3496 54.2397L75.3351 54.2029L75.3223 54.1654L75.3114 54.127L75.3024 54.0879L75.2953 54.0479L75.2901 54.0074L75.2869 53.9663L75.2859 53.9247ZM75.2859 78.6246V53.9247H76.9066V78.6246H75.2859ZM75.2859 78.6246H76.9066L76.9055 78.6662L76.9023 78.7073L76.8972 78.7478L76.8901 78.7877L76.881 78.8269L76.8701 78.8653L76.8574 78.9028L76.8429 78.9396L76.8266 78.9755L76.8087 79.0103L76.7892 79.0443L76.7682 79.0771L76.7455 79.1088L76.7215 79.1393L76.696 79.1687L76.6692 79.1969L76.641 79.2236L76.6116 79.2491L76.581 79.2731L76.5493 79.2957L76.5164 79.3167L76.4824 79.3362L76.4475 79.3541L76.4116 79.3703L76.3748 79.3848L76.3372 79.3976L76.2987 79.4084L76.2595 79.4175L76.2196 79.4246L76.179 79.4297L76.1379 79.4329L76.0962 79.4339L76.0546 79.4329L76.0134 79.4297L75.9729 79.4246L75.9329 79.4175L75.8937 79.4084L75.8553 79.3976L75.8177 79.3848L75.7808 79.3703L75.7449 79.3541L75.71 79.3362L75.6761 79.3167L75.6432 79.2957L75.6114 79.2731L75.5808 79.2491L75.5514 79.2236L75.5233 79.1969L75.4964 79.1687L75.4709 79.1393L75.4469 79.1088L75.4243 79.0771L75.4032 79.0443L75.3837 79.0103L75.3658 78.9755L75.3496 78.9396L75.3351 78.9028L75.3223 78.8653L75.3114 78.8269L75.3024 78.7877L75.2953 78.7478L75.2901 78.7073L75.2869 78.6662L75.2859 78.6246Z" fill="#333333"/>
<path fill-rule="evenodd" clip-rule="evenodd" d="M82.1313 27.0061C82.1313 22.3595 82.1313 17.7126 82.1313 13.066C82.1313 10.946 80.4105 9.22754 78.2878 9.22754H73.3654H25.49C23.8493 9.22754 22.2083 9.22754 20.5676 9.22754C18.4449 9.22754 16.7241 10.946 16.7241 13.066C16.7241 17.7127 16.7241 22.3595 16.7241 27.0061H82.1312H82.1313Z" fill="#88A6E3"/>
<path d="M81.3207 13.066H82.9414V13.5017V13.9373V14.3729V14.8085V15.2442V15.6797V16.1154V16.5511V16.9866V17.4223V17.858V18.2935V18.7292V19.1649V19.6004V20.0361V20.4718V20.9073V21.343V21.7787V22.2142V22.6499V23.0856V23.5211V23.9568V24.3925V24.828V25.2637V25.6993V26.1349V26.5705V27.0062H81.3207V26.5705V26.1349V25.6993V25.2637V24.828V24.3925V23.9568V23.5211V23.0856V22.6499V22.2142V21.7787V21.343V20.9073V20.4718V20.0361V19.6004V19.1649V18.7292V18.2935V17.858V17.4223V16.9866V16.5511V16.1154V15.6797V15.2442V14.8085V14.3729V13.9373V13.5017V13.066ZM82.9414 13.066H81.3207L81.3217 13.0244L81.3249 12.9833L81.3301 12.9428L81.3372 12.9029L81.3462 12.8638L81.3571 12.8254L81.3699 12.7878L81.3844 12.751L81.4006 12.7152L81.4185 12.6803L81.438 12.6464L81.4591 12.6136L81.4817 12.5818L81.5057 12.5513L81.5312 12.5219L81.5581 12.4938L81.5862 12.467L81.6156 12.4415L81.6462 12.4176L81.678 12.3949L81.7109 12.3739L81.7448 12.3544L81.7797 12.3366L81.8156 12.3204L81.8525 12.3058L81.8901 12.2931L81.9285 12.2822L81.9677 12.2732L82.0077 12.2661L82.0482 12.2609L82.0894 12.2577L82.131 12.2567L82.1727 12.2577L82.2138 12.2609L82.2544 12.2661L82.2943 12.2732L82.3335 12.2822L82.372 12.2931L82.4096 12.3058L82.4464 12.3204L82.4823 12.3366L82.5172 12.3544L82.5512 12.3739L82.5841 12.3949L82.6158 12.4176L82.6464 12.4415L82.6758 12.467L82.704 12.4938L82.7308 12.5219L82.7563 12.5513L82.7803 12.5818L82.803 12.6136L82.824 12.6464L82.8435 12.6803L82.8614 12.7152L82.8777 12.751L82.8922 12.7878L82.9049 12.8254L82.9158 12.8638L82.9249 12.9029L82.932 12.9428L82.9371 12.9833L82.9403 13.0244L82.9414 13.066ZM78.2876 10.0368V8.41821L78.5263 8.42429L78.7622 8.44218L78.9951 8.47171L79.2245 8.51264L79.45 8.56462L79.671 8.62731L79.8877 8.70047L80.0993 8.78384L80.3055 8.87691L80.5064 8.9796L80.7013 9.09166L80.89 9.21241L81.0724 9.34202L81.2481 9.4799L81.4167 9.62571L81.5783 9.77946L81.7322 9.94079L81.8782 10.1092L82.0164 10.2846L82.1461 10.467L82.2671 10.6554L82.3793 10.8501L82.4821 11.0507L82.5753 11.2566L82.6587 11.468L82.732 11.6843L82.7948 11.9052L82.8468 12.1303L82.8878 12.3594L82.9174 12.592L82.9353 12.8277L82.9414 13.066H81.3207L81.3168 12.9093L81.305 12.7552L81.2857 12.6035L81.2591 12.4545L81.2253 12.3082L81.1845 12.1648L81.1369 12.0244L81.0827 11.8871L81.0219 11.7531L80.9551 11.6227L80.8821 11.4959L80.8031 11.3727L80.7186 11.254L80.6285 11.1395L80.5328 11.0293L80.4323 10.924L80.3268 10.8236L80.2167 10.7282L80.1018 10.6381L79.9829 10.5537L79.8598 10.4748L79.7328 10.4019L79.6022 10.3352L79.468 10.2745L79.3305 10.2204L79.1899 10.1728L79.0463 10.1321L78.8999 10.0983L78.7508 10.0718L78.5988 10.0525L78.4445 10.0407L78.2876 10.0368V10.0368ZM78.2876 8.41821V10.0368L78.2459 10.0358L78.2048 10.0326L78.1642 10.0275L78.1243 10.0204L78.0851 10.0113L78.0466 10.0005L78.009 9.98771L77.9722 9.9732L77.9363 9.957L77.9014 9.93911L77.8674 9.91962L77.8345 9.8986L77.8028 9.87599L77.7722 9.85203L77.7428 9.82654L77.7147 9.79971L77.6878 9.77161L77.6623 9.74225L77.6383 9.7117L77.6156 9.67997L77.5946 9.64715L77.5751 9.61323L77.5572 9.57838L77.5409 9.54252L77.5264 9.50572L77.5137 9.46817L77.5028 9.42978L77.4937 9.39063L77.4866 9.35072L77.4815 9.31021L77.4783 9.26912L77.4772 9.22752L77.4783 9.18592L77.4815 9.14483L77.4866 9.10432L77.4937 9.06441L77.5028 9.02526L77.5137 8.98686L77.5264 8.94931L77.5409 8.91252L77.5572 8.87666L77.5751 8.84181L77.5946 8.80789L77.6156 8.77507L77.6383 8.74334L77.6623 8.71279L77.6878 8.68343L77.7147 8.65524L77.7428 8.62849L77.7722 8.60301L77.8028 8.57905L77.8345 8.55643L77.8674 8.53542L77.9014 8.51593L77.9363 8.49804L77.9722 8.48184L78.009 8.46733L78.0466 8.45458L78.0851 8.4437L78.1243 8.43467L78.1642 8.42758L78.2048 8.42244L78.2459 8.41923L78.2876 8.41822V8.41821ZM73.3651 8.41821H78.2876V10.0368H73.3651V8.41821ZM73.3651 8.41821V10.0368L73.3235 10.0358L73.2823 10.0326L73.2418 10.0275L73.2018 10.0204L73.1626 10.0113L73.1242 10.0005L73.0866 9.98771L73.0497 9.9732L73.0138 9.957L72.9789 9.93911L72.945 9.91962L72.9121 9.8986L72.8803 9.87599L72.8497 9.85203L72.8203 9.82654L72.7922 9.79971L72.7653 9.77161L72.7398 9.74225L72.7158 9.7117L72.6932 9.67997L72.6721 9.64715L72.6526 9.61323L72.6347 9.57838L72.6185 9.54252L72.604 9.50572L72.5912 9.46817L72.5803 9.42978L72.5713 9.39063L72.5642 9.35072L72.559 9.31021L72.5558 9.26912L72.5548 9.22752L72.5558 9.18592L72.559 9.14483L72.5642 9.10432L72.5713 9.06441L72.5803 9.02526L72.5912 8.98686L72.604 8.94931L72.6185 8.91252L72.6347 8.87666L72.6526 8.84181L72.6721 8.80789L72.6932 8.77507L72.7158 8.74334L72.7398 8.71279L72.7653 8.68343L72.7922 8.65524L72.8203 8.62849L72.8497 8.60301L72.8803 8.57905L72.9121 8.55643L72.945 8.53542L72.9789 8.51593L73.0138 8.49804L73.0497 8.48184L73.0866 8.46733L73.1242 8.45458L73.1626 8.4437L73.2018 8.43467L73.2418 8.42758L73.2823 8.42244L73.3235 8.41923L73.3651 8.41822V8.41821ZM25.4898 8.41821H73.3651V10.0368H25.4898V8.41821ZM25.4898 8.41821V10.0368L25.4482 10.0358L25.407 10.0326L25.3665 10.0275L25.3265 10.0204L25.2873 10.0113L25.2488 10.0005L25.2113 9.98771L25.1744 9.9732L25.1385 9.957L25.1036 9.93911L25.0696 9.91962L25.0368 9.8986L25.005 9.87599L24.9744 9.85203L24.945 9.82654L24.9168 9.79971L24.89 9.77161L24.8645 9.74225L24.8405 9.7117L24.8179 9.67997L24.7968 9.64715L24.7773 9.61323L24.7594 9.57838L24.7432 9.54252L24.7286 9.50572L24.7159 9.46817L24.705 9.42978L24.6959 9.39063L24.6889 9.35072L24.6837 9.31021L24.6805 9.26912L24.6795 9.22752L24.6805 9.18592L24.6837 9.14483L24.6889 9.10432L24.6959 9.06441L24.705 9.02526L24.7159 8.98686L24.7286 8.94931L24.7432 8.91252L24.7594 8.87666L24.7773 8.84181L24.7968 8.80789L24.8179 8.77507L24.8405 8.74334L24.8645 8.71279L24.89 8.68343L24.9168 8.65524L24.945 8.62849L24.9744 8.60301L25.005 8.57905L25.0368 8.55643L25.0696 8.53542L25.1036 8.51593L25.1385 8.49804L25.1744 8.48184L25.2113 8.46733L25.2488 8.45458L25.2873 8.4437L25.3265 8.43467L25.3665 8.42758L25.407 8.42244L25.4482 8.41923L25.4898 8.41822V8.41821ZM20.5674 10.0368V8.41821H20.7212H20.875H21.0288H21.1826H21.3365H21.4903H21.6441H21.7979H21.9518H22.1056H22.2594H22.4133H22.5671H22.7209H22.8748H23.0285H23.1824H23.3362H23.4901H23.6439H23.7977H23.9516H24.1054H24.2592H24.4131H24.5668H24.7207H24.8746H25.0283H25.1822H25.336H25.4898V10.0368H25.336H25.1822H25.0283H24.8746H24.7207H24.5668H24.4131H24.2592H24.1054H23.9516H23.7977H23.6439H23.4901H23.3362H23.1824H23.0285H22.8748H22.7209H22.5671H22.4133H22.2594H22.1056H21.9518H21.7979H21.6441H21.4903H21.3365H21.1826H21.0288H20.875H20.7212H20.5674ZM20.5674 8.41821V10.0368L20.5257 10.0358L20.4846 10.0326L20.444 10.0275L20.404 10.0204L20.3648 10.0113L20.3264 10.0005L20.2888 9.98771L20.252 9.9732L20.216 9.957L20.1812 9.93911L20.1472 9.91962L20.1143 9.8986L20.0826 9.87599L20.052 9.85203L20.0226 9.82654L19.9943 9.79971L19.9676 9.77161L19.942 9.74225L19.9181 9.7117L19.8954 9.67997L19.8744 9.64715L19.8549 9.61323L19.8369 9.57838L19.8207 9.54252L19.8062 9.50572L19.7934 9.46817L19.7825 9.42978L19.7735 9.39063L19.7664 9.35072L19.7612 9.31021L19.758 9.26912L19.757 9.22752L19.758 9.18592L19.7612 9.14483L19.7664 9.10432L19.7735 9.06441L19.7825 9.02526L19.7934 8.98686L19.8062 8.94931L19.8207 8.91252L19.8369 8.87666L19.8549 8.84181L19.8744 8.80789L19.8954 8.77507L19.9181 8.74334L19.942 8.71279L19.9676 8.68343L19.9943 8.65524L20.0226 8.62849L20.052 8.60301L20.0826 8.57905L20.1143 8.55643L20.1472 8.53542L20.1812 8.51593L20.216 8.49804L20.252 8.48184L20.2888 8.46733L20.3264 8.45458L20.3648 8.4437L20.404 8.43467L20.444 8.42758L20.4846 8.42244L20.5257 8.41923L20.5674 8.41822V8.41821ZM17.5343 13.066H15.9136L15.9197 12.8277L15.9376 12.592L15.9671 12.3594L16.0081 12.1303L16.0602 11.9052L16.1229 11.6843L16.1962 11.468L16.2797 11.2566L16.3729 11.0507L16.4757 10.8501L16.5879 10.6554L16.7088 10.467L16.8386 10.2846L16.9767 10.1092L17.1227 9.94079L17.2766 9.77945L17.4382 9.62571L17.6068 9.4799L17.7825 9.34202L17.9649 9.21241L18.1537 9.09166L18.3486 8.9796L18.5494 8.87691L18.7556 8.78384L18.9673 8.70047L19.1839 8.62731L19.4049 8.56461L19.6304 8.51264L19.8598 8.47171L20.0927 8.44218L20.3287 8.42429L20.5674 8.41821V10.0368L20.4105 10.0407L20.2561 10.0525L20.1042 10.0718L19.9551 10.0983L19.8086 10.1321L19.665 10.1728L19.5244 10.2203L19.3869 10.2745L19.2527 10.3352L19.1222 10.4019L18.9952 10.4748L18.872 10.5537L18.7531 10.6381L18.6383 10.7282L18.5281 10.8236L18.4227 10.924L18.3221 11.0293L18.2265 11.1395L18.1363 11.254L18.0518 11.3727L17.9728 11.4959L17.8998 11.6227L17.833 11.7531L17.7723 11.8871L17.718 12.0244L17.6705 12.1648L17.6296 12.3082L17.5958 12.4545L17.5692 12.6035L17.55 12.7552L17.5381 12.9093L17.5343 13.066V13.066ZM15.9136 13.066H17.5343L17.5332 13.1076L17.53 13.1487L17.5249 13.1892L17.5178 13.2291L17.5087 13.2683L17.4978 13.3067L17.4851 13.3442L17.4706 13.381L17.4543 13.4169L17.4364 13.4517L17.4169 13.4857L17.3959 13.5185L17.3732 13.5502L17.3492 13.5808L17.3237 13.6101L17.2968 13.6382L17.2687 13.6651L17.2393 13.6905L17.2087 13.7145L17.177 13.7371L17.1441 13.7581L17.1101 13.7776L17.0752 13.7955L17.0393 13.8117L17.0025 13.8262L16.9649 13.839L16.9264 13.8499L16.8872 13.8589L16.8473 13.866L16.8067 13.8711L16.7656 13.8743L16.7239 13.8753L16.6823 13.8743L16.6411 13.8711L16.6006 13.866L16.5606 13.8589L16.5214 13.8499L16.483 13.839L16.4454 13.8262L16.4085 13.8117L16.3726 13.7955L16.3377 13.7776L16.3037 13.7581L16.2709 13.7371L16.2391 13.7145L16.2085 13.6905L16.1791 13.6651L16.1509 13.6382L16.1241 13.6101L16.0986 13.5808L16.0746 13.5502L16.052 13.5185L16.0309 13.4857L16.0114 13.4517L15.9935 13.4169L15.9773 13.381L15.9627 13.3442L15.95 13.3067L15.9391 13.2683L15.9301 13.2291L15.923 13.1892L15.9178 13.1487L15.9146 13.1076L15.9136 13.066H15.9136ZM16.7239 26.1969V27.8155L15.9136 27.0062V26.5706V26.135V25.6993V25.2638V24.8281V24.3925V23.9569V23.5212V23.0856V22.65V22.2143V21.7787V21.3431V20.9074V20.4718V20.0362V19.6005V19.1649V18.7293V18.2936V17.858V17.4224V16.9867V16.5511V16.1155V15.6798V15.2442V14.8086V14.373V13.9373V13.5017V13.0661H17.5343V13.5017V13.9373V14.373V14.8086V15.2442V15.6798V16.1155V16.5511V16.9867V17.4224V17.858V18.2936V18.7293V19.1649V19.6005V20.0362V20.4718V20.9074V21.3431V21.7787V22.2143V22.65V23.0856V23.5212V23.9569V24.3925V24.8281V25.2638V25.6993V26.135V26.5706V27.0062L16.7239 26.1969L16.7239 26.1969ZM15.9136 27.0062H17.5343L17.5332 27.0478L17.53 27.0889L17.5249 27.1294L17.5178 27.1693L17.5087 27.2085L17.4978 27.2469L17.4851 27.2844L17.4706 27.3212L17.4543 27.3571L17.4364 27.3919L17.4169 27.4259L17.3959 27.4587L17.3732 27.4904L17.3492 27.521L17.3237 27.5503L17.2968 27.5784L17.2687 27.6052L17.2393 27.6307L17.2087 27.6547L17.177 27.6773L17.1441 27.6983L17.1101 27.7178L17.0752 27.7357L17.0393 27.7519L17.0025 27.7664L16.9649 27.7792L16.9264 27.79L16.8872 27.7991L16.8473 27.8062L16.8067 27.8113L16.7656 27.8145L16.7239 27.8155L16.6823 27.8145L16.6411 27.8113L16.6006 27.8062L16.5606 27.7991L16.5214 27.79L16.483 27.7792L16.4454 27.7664L16.4085 27.7519L16.3726 27.7357L16.3377 27.7178L16.3037 27.6983L16.2709 27.6773L16.2391 27.6547L16.2085 27.6307L16.1791 27.6052L16.1509 27.5784L16.1241 27.5503L16.0986 27.521L16.0746 27.4904L16.052 27.4587L16.0309 27.4259L16.0114 27.3919L15.9935 27.3571L15.9773 27.3212L15.9627 27.2844L15.95 27.2469L15.9391 27.2085L15.9301 27.1693L15.923 27.1294L15.9178 27.0889L15.9146 27.0478L15.9136 27.0062H15.9136ZM82.131 27.8155H16.7239V26.1969H82.131L82.9413 27.0062L82.131 27.8155V27.8155ZM82.131 27.8155V26.1969L82.1726 26.1979L82.2138 26.2011L82.2543 26.2063L82.2943 26.2134L82.3335 26.2224L82.372 26.2333L82.4096 26.246L82.4464 26.2605L82.4823 26.2767L82.5172 26.2946L82.5512 26.3141L82.584 26.3351L82.6158 26.3578L82.6464 26.3817L82.6758 26.4072L82.704 26.4339L82.7308 26.4621L82.7563 26.4915L82.7803 26.522L82.8029 26.5538L82.824 26.5866L82.8435 26.6205L82.8614 26.6554L82.8776 26.6912L82.8922 26.728L82.9049 26.7656L82.9158 26.804L82.9249 26.8431L82.932 26.883L82.9371 26.9235L82.9403 26.9646L82.9413 27.0062L82.9403 27.0478L82.9371 27.0889L82.932 27.1294L82.9249 27.1693L82.9158 27.2085L82.9049 27.2469L82.8922 27.2844L82.8776 27.3212L82.8614 27.3571L82.8435 27.3919L82.824 27.4259L82.8029 27.4587L82.7803 27.4904L82.7563 27.521L82.7308 27.5503L82.704 27.5784L82.6758 27.6052L82.6464 27.6307L82.6158 27.6547L82.584 27.6773L82.5512 27.6983L82.5172 27.7178L82.4823 27.7357L82.4464 27.7519L82.4096 27.7664L82.372 27.7792L82.3335 27.79L82.2943 27.7991L82.2543 27.8062L82.2138 27.8113L82.1726 27.8145L82.131 27.8155V27.8155Z" fill="#333333"/>
<path fill-rule="evenodd" clip-rule="evenodd" d="M25.4897 0.809326H73.3649V27.0061H25.4897V0.809326Z" fill="white"/>
<path d="M73.3651 1.6186H25.4897V0H73.3651L74.1732 0.809301L73.3651 1.6186V1.6186ZM73.3651 1.6186V0L73.4066 0.00101258L73.4477 0.00421906L73.4882 0.00936632L73.5279 0.0164544L73.567 0.0254832L73.6053 0.0363684L73.6429 0.04911L73.6796 0.0636235L73.7154 0.0798247L73.7502 0.0977135L73.7841 0.117206L73.8169 0.138217L73.8486 0.160831L73.8791 0.184795L73.9084 0.210278L73.9365 0.237027L73.9632 0.265211L73.9887 0.294575L74.0127 0.325121L74.0351 0.356849L74.0562 0.389673L74.0756 0.423594L74.0935 0.458444L74.1097 0.494306L74.1242 0.531096L74.1369 0.568646L74.1478 0.607039L74.1568 0.646192L74.1639 0.686105L74.1691 0.726608L74.1722 0.767701L74.1732 0.809301L74.1722 0.850902L74.1691 0.891995L74.1639 0.932498L74.1568 0.972411L74.1478 1.01156L74.1369 1.04996L74.1242 1.08751L74.1097 1.1243L74.0935 1.16016L74.0756 1.19501L74.0562 1.22893L74.0351 1.26175L74.0127 1.29348L73.9887 1.32403L73.9632 1.35339L73.9365 1.38149L73.9084 1.40832L73.8791 1.43381L73.8486 1.45777L73.8169 1.48039L73.7841 1.5014L73.7502 1.52089L73.7154 1.53878L73.6796 1.55498L73.6429 1.56949L73.6053 1.58223L73.567 1.59312L73.5279 1.60215L73.4882 1.60924L73.4477 1.61438L73.4066 1.61759L73.3651 1.6186V1.6186ZM72.5569 27.0062V0.809272H74.1732V27.0062L73.3651 27.8155L72.5569 27.0062ZM72.5569 27.0062H74.1732L74.1722 27.0478L74.1691 27.0889L74.1639 27.1294L74.1568 27.1693L74.1478 27.2084L74.1369 27.2468L74.1242 27.2844L74.1097 27.3212L74.0935 27.357L74.0756 27.3919L74.0562 27.4258L74.0351 27.4586L74.0127 27.4904L73.9887 27.5209L73.9632 27.5503L73.9365 27.5784L73.9084 27.6052L73.8791 27.6307L73.8486 27.6546L73.8169 27.6773L73.7841 27.6983L73.7502 27.7178L73.7154 27.7356L73.6796 27.7519L73.6429 27.7664L73.6053 27.7791L73.567 27.79L73.528 27.799L73.4882 27.8061L73.4477 27.8113L73.4066 27.8145L73.3651 27.8155L73.3235 27.8145L73.2824 27.8113L73.2419 27.8061L73.2022 27.799L73.1631 27.79L73.1248 27.7791L73.0872 27.7664L73.0505 27.7519L73.0147 27.7356L72.9799 27.7178L72.946 27.6983L72.9132 27.6773L72.8815 27.6546L72.851 27.6307L72.8217 27.6052L72.7936 27.5784L72.7669 27.5503L72.7414 27.5209L72.7174 27.4904L72.695 27.4586L72.6739 27.4258L72.6545 27.3919L72.6366 27.357L72.6204 27.3212L72.6059 27.2844L72.5932 27.2468L72.5823 27.2084L72.5733 27.1693L72.5662 27.1294L72.5611 27.0889L72.5579 27.0478L72.5569 27.0062ZM25.4898 26.1969H73.3651V27.8155H25.4898L24.6816 27.0062L25.4898 26.1969V26.1969ZM25.4898 26.1969V27.8155L25.4482 27.8145L25.4072 27.8113L25.3667 27.8061L25.3269 27.799L25.2879 27.79L25.2495 27.7791L25.2119 27.7664L25.1752 27.7519L25.1394 27.7357L25.1046 27.7178L25.0707 27.6983L25.0379 27.6773L25.0063 27.6546L24.9758 27.6307L24.9464 27.6052L24.9184 27.5784L24.8916 27.5503L24.8662 27.5209L24.8422 27.4904L24.8197 27.4586L24.7987 27.4258L24.7792 27.3919L24.7613 27.357L24.7452 27.3212L24.7306 27.2844L24.718 27.2468L24.7071 27.2084L24.698 27.1693L24.6909 27.1294L24.6858 27.0889L24.6827 27.0478L24.6816 27.0062L24.6827 26.9646L24.6858 26.9235L24.6909 26.883L24.698 26.8431L24.7071 26.8039L24.718 26.7655L24.7306 26.728L24.7452 26.6912L24.7613 26.6553L24.7792 26.6205L24.7987 26.5865L24.8197 26.5537L24.8422 26.522L24.8662 26.4914L24.8916 26.4621L24.9184 26.4339L24.9464 26.4072L24.9758 26.3817L25.0063 26.3577L25.0379 26.3351L25.0707 26.3141L25.1046 26.2946L25.1394 26.2767L25.1752 26.2605L25.2119 26.246L25.2495 26.2332L25.2879 26.2224L25.3269 26.2133L25.3667 26.2062L25.4072 26.2011L25.4482 26.1979L25.4898 26.1969V26.1969ZM26.2979 0.809303V27.0062H24.6816V0.809303L25.4898 2.42388e-06L26.2979 0.809303H26.2979ZM26.2979 0.809303H24.6816L24.6827 0.767703L24.6858 0.72661L24.6909 0.686107L24.698 0.646194L24.7071 0.607041L24.718 0.568648L24.7306 0.531098L24.7452 0.494308L24.7613 0.458446L24.7792 0.423596L24.7987 0.389675L24.8197 0.356851L24.8422 0.325123L24.8662 0.294577L24.8916 0.265213L24.9184 0.237029L24.9464 0.21028L24.9757 0.184797L25.0063 0.160833L25.0379 0.138219L25.0707 0.117208L25.1046 0.0977156L25.1394 0.0798267L25.1752 0.0636256L25.2119 0.049112L25.2495 0.0363704L25.2879 0.0254852L25.3269 0.0164564L25.3667 0.00936836L25.4072 0.0042211L25.4482 0.00101461L25.4898 2.03484e-06L25.5314 0.00101461L25.5724 0.0042211L25.6129 0.00936836L25.6527 0.0164564L25.6917 0.0254852L25.7301 0.0363704L25.7677 0.049112L25.8043 0.0636256L25.8402 0.0798267L25.875 0.0977156L25.9089 0.117208L25.9416 0.138219L25.9733 0.160833L26.0038 0.184797L26.0331 0.21028L26.0612 0.237029L26.088 0.265213L26.1134 0.294577L26.1374 0.325123L26.1599 0.356851L26.1809 0.389675L26.2003 0.423596L26.2183 0.458446L26.2344 0.494308L26.2489 0.531098L26.2616 0.568648L26.2725 0.607041L26.2815 0.646194L26.2886 0.686107L26.2938 0.72661L26.2969 0.767703L26.2979 0.809303Z" fill="#333333"/>
<path fill-rule="evenodd" clip-rule="evenodd" d="M16.5621 68.1533H0.810059C0.810059 55.9866 0.810059 43.8197 0.810059 31.6529C0.810059 29.0865 2.89299 27.0062 5.46266 27.0062H11.9094C14.4791 27.0062 16.5621 29.0865 16.5621 31.6529V68.1533Z" fill="#66798F"/>
<path d="M0.810341 67.3437H16.5624V68.9623H0.810341L8.25176e-07 68.153L0.810341 67.3437V67.3437ZM0.810341 67.3437V68.9623L0.768688 68.9613L0.727541 68.9581L0.686986 68.9529L0.647022 68.9458L0.607819 68.9368L0.569377 68.9259L0.531779 68.9132L0.494941 68.8987L0.459033 68.8825L0.424139 68.8646L0.390174 68.8451L0.357307 68.8241L0.325539 68.8015L0.294954 68.7775L0.265552 68.752L0.237332 68.7253L0.210549 68.6971L0.185033 68.6677L0.161038 68.6372L0.138395 68.6054L0.117357 68.5726L0.0978394 68.5387L0.0799276 68.5038L0.0637057 68.468L0.0491734 68.4312L0.0364155 68.3936L0.0255163 68.3552L0.0164759 68.3161L0.00937878 68.2762L0.00422492 68.2357L0.00101431 68.1946L4.35645e-07 68.153L0.00101431 68.1114L0.00422492 68.0703L0.00937878 68.0298L0.0164759 67.9899L0.0255163 67.9507L0.0364155 67.9123L0.0491734 67.8748L0.0637057 67.838L0.0799276 67.8021L0.0978394 67.7673L0.117357 67.7334L0.138395 67.7005L0.161038 67.6688L0.185033 67.6383L0.210549 67.6089L0.237332 67.5808L0.265552 67.554L0.294954 67.5285L0.325539 67.5045L0.357307 67.4819L0.390174 67.4609L0.424139 67.4414L0.459033 67.4235L0.494941 67.4073L0.531779 67.3928L0.569377 67.3801L0.607819 67.3692L0.647022 67.3601L0.686986 67.3531L0.727541 67.3479L0.768688 67.3447L0.810341 67.3437V67.3437ZM8.25176e-07 31.6528H1.62068V32.7935V33.9341V35.0747V36.2153V37.356V38.4966V39.6372V40.7778V41.9185V43.0592V44.1997V45.3404V46.481V47.6217V48.7622V49.9029V51.0436V52.1842V53.3248V54.4654V55.6061V56.7467V57.8873V59.028V60.1686V61.3092V62.4498V63.5905V64.7311V65.8717V67.0123V68.153H8.25176e-07V67.0123V65.8717V64.7311V63.5905V62.4498V61.3092V60.1686V59.028V57.8873V56.7467V55.6061V54.4654V53.3248V52.1842V51.0436V49.9029V48.7622V47.6217V46.481V45.3404V44.1997V43.0592V41.9185V40.7778V39.6372V38.4966V37.356V36.2153V35.0747V33.9341V32.7935V31.6528ZM1.62068 31.6528H8.25176e-07L0.0010147 31.6112L0.0042253 31.5701L0.00937917 31.5296L0.0164763 31.4897L0.0255167 31.4506L0.0364159 31.4122L0.0491738 31.3746L0.063706 31.3378L0.079928 31.302L0.0978398 31.2671L0.117357 31.2332L0.138395 31.2004L0.161038 31.1686L0.185033 31.1381L0.210549 31.1087L0.237332 31.0806L0.265552 31.0538L0.294954 31.0283L0.32554 31.0044L0.357308 30.9817L0.390174 30.9607L0.424139 30.9412L0.459033 30.9234L0.494942 30.9071L0.531779 30.8926L0.569377 30.8799L0.60782 30.869L0.647023 30.86L0.686987 30.8529L0.727542 30.8477L0.768688 30.8445L0.810341 30.8435L0.851995 30.8445L0.893141 30.8477L0.933696 30.8529L0.97366 30.86L1.01286 30.869L1.05131 30.8799L1.0889 30.8926L1.12574 30.9071L1.16165 30.9234L1.19654 30.9412L1.23051 30.9607L1.26338 30.9817L1.29514 31.0044L1.32573 31.0283L1.35513 31.0538L1.38327 31.0806L1.41013 31.1087L1.43565 31.1381L1.45964 31.1686L1.48229 31.2004L1.50333 31.2332L1.52284 31.2671L1.54075 31.302L1.55698 31.3378L1.57151 31.3746L1.58427 31.4122L1.59517 31.4506L1.60421 31.4897L1.6113 31.5296L1.61646 31.5701L1.61967 31.6112L1.62068 31.6528H1.62068ZM5.46293 26.1969V27.8155L5.2643 27.8205L5.06879 27.8353L4.87675 27.8597L4.68766 27.8935L4.50186 27.9363L4.31979 27.988L4.1416 28.0481L3.96747 28.1167L3.79747 28.1934L3.63188 28.2782L3.47101 28.3706L3.31512 28.4704L3.16448 28.5774L3.01924 28.6913L2.87958 28.8122L2.746 28.9394L2.61867 29.0728L2.4976 29.2123L2.38354 29.3573L2.27641 29.5078L2.17646 29.6635L2.08394 29.8241L1.99911 29.9895L1.92223 30.1593L1.85362 30.3332L1.79338 30.5111L1.74159 30.693L1.69875 30.8785L1.66496 31.0674L1.64054 31.2592L1.62567 31.4544L1.62068 31.6528H0L0.00718162 31.3729L0.028135 31.0962L0.0628603 30.823L0.111019 30.5542L0.172105 30.29L0.245696 30.0309L0.331622 29.7771L0.42963 29.529L0.539129 29.2871L0.65978 29.0517L0.79133 28.8232L0.933357 28.6019L1.08561 28.3879L1.24783 28.182L1.41926 27.9843L1.59998 27.7948L1.78966 27.6143L1.98762 27.4431L2.19386 27.2811L2.40804 27.1291L2.62966 26.9872L2.85846 26.8558L3.09418 26.7353L3.33633 26.626L3.58481 26.5281L3.83887 26.4423L4.09834 26.3687L4.36288 26.3078L4.63206 26.2597L4.90556 26.225L5.18268 26.2041L5.46293 26.1969L5.46293 26.1969ZM5.46293 27.8155V26.1969L5.50459 26.1979L5.54574 26.2011L5.58629 26.2063L5.62625 26.2134L5.66546 26.2224L5.7039 26.2333L5.7415 26.246L5.77834 26.2605L5.81424 26.2767L5.84914 26.2946L5.8831 26.3141L5.91597 26.3351L5.94774 26.3577L5.97832 26.3817L6.00772 26.4072L6.03586 26.4339L6.06273 26.4621L6.08824 26.4915L6.11224 26.522L6.13488 26.5537L6.15592 26.5866L6.17544 26.6205L6.19335 26.6553L6.20957 26.6912L6.2241 26.728L6.23686 26.7655L6.24776 26.8039L6.2568 26.8431L6.2639 26.883L6.26905 26.9235L6.27226 26.9646L6.27328 27.0062L6.27226 27.0478L6.26905 27.0889L6.2639 27.1294L6.2568 27.1693L6.24776 27.2085L6.23686 27.2469L6.2241 27.2844L6.20957 27.3212L6.19335 27.3571L6.17544 27.3919L6.15592 27.4258L6.13488 27.4587L6.11224 27.4904L6.08824 27.5209L6.06273 27.5503L6.03586 27.5784L6.00772 27.6052L5.97832 27.6307L5.94774 27.6547L5.91597 27.6773L5.8831 27.6983L5.84914 27.7178L5.81424 27.7357L5.77834 27.7519L5.7415 27.7664L5.7039 27.7791L5.66546 27.79L5.62625 27.799L5.58629 27.8061L5.54574 27.8113L5.50459 27.8145L5.46293 27.8155V27.8155ZM11.9097 27.8155H5.46293V26.1969H11.9097V27.8155ZM11.9097 27.8155V26.1969L11.9513 26.1979L11.9925 26.2011L12.033 26.2063L12.073 26.2134L12.1122 26.2224L12.1506 26.2333L12.1882 26.246L12.2251 26.2605L12.261 26.2767L12.2959 26.2946L12.3298 26.3141L12.3627 26.3351L12.3945 26.3577L12.4251 26.3817L12.4545 26.4072L12.4826 26.4339L12.5095 26.4621L12.535 26.4915L12.559 26.522L12.5816 26.5537L12.6026 26.5866L12.6222 26.6205L12.6401 26.6553L12.6563 26.6912L12.6708 26.728L12.6836 26.7655L12.6945 26.8039L12.7035 26.8431L12.7106 26.883L12.7158 26.9235L12.719 26.9646L12.72 27.0062L12.719 27.0478L12.7158 27.0889L12.7106 27.1294L12.7035 27.1693L12.6945 27.2085L12.6836 27.2469L12.6708 27.2844L12.6563 27.3212L12.6401 27.3571L12.6222 27.3919L12.6026 27.4258L12.5816 27.4587L12.559 27.4904L12.535 27.5209L12.5095 27.5503L12.4826 27.5784L12.4545 27.6052L12.4251 27.6307L12.3945 27.6547L12.3627 27.6773L12.3298 27.6983L12.2959 27.7178L12.261 27.7357L12.2251 27.7519L12.1882 27.7664L12.1506 27.7791L12.1122 27.79L12.073 27.799L12.033 27.8061L11.9925 27.8113L11.9513 27.8145L11.9097 27.8155V27.8155ZM17.3727 31.6528H15.752L15.747 31.4544L15.7321 31.2592L15.7077 31.0674L15.6739 30.8785L15.6311 30.693L15.5793 30.5111L15.5191 30.3332L15.4505 30.1593L15.3736 29.9895L15.2887 29.8241L15.1962 29.6635L15.0964 29.5079L14.9891 29.3573L14.875 29.2122L14.754 29.0728L14.6267 28.9394L14.4931 28.8122L14.3534 28.6913L14.2082 28.5774L14.0576 28.4704L13.9017 28.3706L13.7407 28.2782L13.5751 28.1934L13.4052 28.1167L13.2311 28.0481L13.0528 27.988L12.8706 27.9363L12.6849 27.8935L12.4959 27.8597L12.3038 27.8353L12.1083 27.8205L11.9097 27.8155V26.1969L12.1899 26.2041L12.467 26.225L12.7406 26.2597L13.0099 26.3078L13.2743 26.3688L13.5337 26.4423L13.7879 26.5281L14.0364 26.626L14.2786 26.7353L14.5141 26.8558L14.743 26.9872L14.9646 27.1291L15.1788 27.2811L15.3851 27.4431L15.583 27.6143L15.7727 27.7948L15.9534 27.9843L16.1249 28.1821L16.287 28.3879L16.4392 28.6018L16.5813 28.8232L16.7129 29.0517L16.8336 29.2871L16.9431 29.5289L17.0411 29.7771L17.127 30.0308L17.2006 30.29L17.2617 30.5542L17.3098 30.823L17.3445 31.0962L17.3655 31.3729L17.3727 31.6528L17.3727 31.6528ZM15.752 31.6528H17.3727L17.3717 31.6944L17.3685 31.7355L17.3633 31.776L17.3562 31.8159L17.3472 31.8551L17.3363 31.8935L17.3235 31.931L17.309 31.9678L17.2928 32.0037L17.2748 32.0385L17.2553 32.0725L17.2343 32.1053L17.2116 32.137L17.1876 32.1676L17.1621 32.1969L17.1353 32.225L17.1071 32.2519L17.0777 32.2773L17.0471 32.3013L17.0154 32.3239L16.9825 32.3449L16.9485 32.3644L16.9137 32.3823L16.8777 32.3985L16.8409 32.413L16.8033 32.4258L16.7649 32.4366L16.7257 32.4457L16.6857 32.4528L16.6451 32.4579L16.604 32.4611L16.5623 32.4621L16.5207 32.4611L16.4795 32.4579L16.439 32.4528L16.399 32.4457L16.3598 32.4366L16.3214 32.4258L16.2838 32.413L16.2469 32.3985L16.211 32.3823L16.1761 32.3644L16.1422 32.3449L16.1093 32.3239L16.0775 32.3013L16.047 32.2773L16.0176 32.2519L15.9893 32.225L15.9626 32.1969L15.937 32.1676L15.913 32.137L15.8904 32.1053L15.8694 32.0725L15.8498 32.0385L15.8319 32.0037L15.8157 31.9678L15.8012 31.931L15.7884 31.8935L15.7775 31.8551L15.7685 31.8159L15.7614 31.776L15.7562 31.7355L15.753 31.6944L15.752 31.6528H15.752ZM15.752 68.153V31.6528H17.3727V68.153L16.5623 68.9623L15.752 68.153H15.752ZM15.752 68.153H17.3727L17.3717 68.1946L17.3685 68.2357L17.3633 68.2762L17.3562 68.3161L17.3472 68.3553L17.3363 68.3937L17.3235 68.4312L17.309 68.468L17.2928 68.5039L17.2748 68.5387L17.2553 68.5726L17.2343 68.6055L17.2116 68.6372L17.1876 68.6677L17.1621 68.6971L17.1353 68.7253L17.1071 68.752L17.0777 68.7775L17.0471 68.8015L17.0154 68.8241L16.9825 68.8451L16.9485 68.8646L16.9137 68.8825L16.8777 68.8987L16.8409 68.9132L16.8033 68.9259L16.7649 68.9368L16.7257 68.9459L16.6857 68.953L16.6451 68.9581L16.604 68.9613L16.5623 68.9623L16.5207 68.9613L16.4795 68.9581L16.439 68.953L16.399 68.9459L16.3598 68.9368L16.3214 68.9259L16.2838 68.9132L16.2469 68.8987L16.211 68.8825L16.1761 68.8646L16.1422 68.8451L16.1093 68.8241L16.0775 68.8015L16.047 68.7775L16.0176 68.752L15.9893 68.7253L15.9626 68.6971L15.937 68.6677L15.913 68.6372L15.8904 68.6055L15.8694 68.5726L15.8498 68.5387L15.8319 68.5039L15.8157 68.468L15.8012 68.4312L15.7884 68.3937L15.7775 68.3553L15.7685 68.3161L15.7614 68.2762L15.7562 68.2357L15.753 68.1946L15.752 68.153H15.752Z" fill="#333333"/>
<path fill-rule="evenodd" clip-rule="evenodd" d="M98.0445 68.1533H82.2925C82.2925 55.9866 82.2925 43.8197 82.2925 31.6529C82.2925 29.0865 84.3754 27.0062 86.9452 27.0062H93.3919C95.9616 27.0062 98.0445 29.0865 98.0445 31.6529V68.1533Z" fill="#66798F"/>
<path d="M82.2923 67.3437H98.0443V68.9623H82.2923L81.4819 68.153L82.2923 67.3437V67.3437ZM82.2923 67.3437V68.9623L82.2506 68.9613L82.2095 68.9581L82.1689 68.9529L82.129 68.9458L82.0898 68.9368L82.0513 68.9259L82.0137 68.9132L81.9769 68.8987L81.941 68.8825L81.9061 68.8646L81.8721 68.8451L81.8392 68.8241L81.8075 68.8015L81.7769 68.7775L81.7475 68.752L81.7194 68.7253L81.6925 68.6971L81.667 68.6677L81.643 68.6372L81.6203 68.6054L81.5993 68.5726L81.5798 68.5387L81.5619 68.5038L81.5456 68.468L81.5311 68.4312L81.5183 68.3936L81.5075 68.3552L81.4984 68.3161L81.4913 68.2762L81.4862 68.2357L81.4829 68.1946L81.4819 68.153L81.4829 68.1114L81.4862 68.0703L81.4913 68.0298L81.4984 67.9899L81.5075 67.9507L81.5183 67.9123L81.5311 67.8748L81.5456 67.838L81.5619 67.8021L81.5798 67.7673L81.5993 67.7334L81.6203 67.7005L81.643 67.6688L81.667 67.6383L81.6925 67.6089L81.7194 67.5808L81.7475 67.554L81.7769 67.5285L81.8075 67.5045L81.8392 67.4819L81.8721 67.4609L81.9061 67.4414L81.941 67.4235L81.9769 67.4073L82.0137 67.3928L82.0513 67.3801L82.0898 67.3692L82.129 67.3601L82.1689 67.3531L82.2095 67.3479L82.2506 67.3447L82.2923 67.3437V67.3437ZM81.4819 31.6528H83.1026V32.7935V33.9341V35.0747V36.2153V37.356V38.4966V39.6372V40.7778V41.9185V43.0592V44.1997V45.3404V46.481V47.6217V48.7622V49.9029V51.0436V52.1842V53.3248V54.4654V55.6061V56.7467V57.8873V59.028V60.1686V61.3092V62.4498V63.5905V64.7311V65.8717V67.0123V68.153H81.4819V67.0123V65.8717V64.7311V63.5905V62.4498V61.3092V60.1686V59.028V57.8873V56.7467V55.6061V54.4654V53.3248V52.1842V51.0436V49.9029V48.7622V47.6217V46.481V45.3404V44.1997V43.0592V41.9185V40.7778V39.6372V38.4966V37.356V36.2153V35.0747V33.9341V32.7935V31.6528ZM83.1026 31.6528H81.4819L81.4829 31.6112L81.4862 31.5701L81.4913 31.5296L81.4984 31.4897L81.5075 31.4506L81.5183 31.4122L81.5311 31.3746L81.5456 31.3378L81.5619 31.302L81.5798 31.2671L81.5993 31.2332L81.6203 31.2004L81.643 31.1686L81.667 31.1381L81.6925 31.1087L81.7194 31.0806L81.7475 31.0538L81.7769 31.0283L81.8075 31.0044L81.8392 30.9817L81.8721 30.9607L81.9061 30.9412L81.941 30.9234L81.9769 30.9071L82.0137 30.8926L82.0513 30.8799L82.0898 30.869L82.129 30.86L82.1689 30.8529L82.2095 30.8477L82.2506 30.8445L82.2923 30.8435L82.3339 30.8445L82.3751 30.8477L82.4156 30.8529L82.4556 30.86L82.4948 30.869L82.5332 30.8799L82.5708 30.8926L82.6077 30.9071L82.6436 30.9234L82.6785 30.9412L82.7124 30.9607L82.7453 30.9817L82.7771 31.0044L82.8077 31.0283L82.8371 31.0538L82.8653 31.0806L82.8921 31.1087L82.9176 31.1381L82.9416 31.1686L82.9642 31.2004L82.9853 31.2332L83.0048 31.2671L83.0227 31.302L83.0389 31.3378L83.0534 31.3746L83.0662 31.4122L83.0771 31.4506L83.0861 31.4897L83.0932 31.5296L83.0984 31.5701L83.1016 31.6112L83.1026 31.6528H83.1026ZM86.945 26.1969V27.8155L86.7463 27.8205L86.5508 27.8353L86.3587 27.8597L86.1697 27.8935L85.984 27.9363L85.8018 27.988L85.6235 28.0481L85.4494 28.1167L85.2795 28.1934L85.1139 28.2782L84.9529 28.3706L84.7971 28.4704L84.6464 28.5774L84.5012 28.6913L84.3615 28.8122L84.2279 28.9394L84.1006 29.0728L83.9796 29.2122L83.8656 29.3573L83.7583 29.5079L83.6584 29.6635L83.5659 29.8241L83.481 29.9895L83.4042 30.1593L83.3356 30.3332L83.2753 30.5111L83.2235 30.693L83.1807 30.8785L83.1469 31.0674L83.1225 31.2592L83.1076 31.4544L83.1026 31.6528H81.4819L81.4891 31.3729L81.5101 31.0962L81.5448 30.823L81.593 30.5542L81.654 30.29L81.7276 30.0309L81.8136 29.7771L81.9116 29.529L82.0211 29.2871L82.1417 29.0517L82.2733 28.8232L82.4154 28.6018L82.5676 28.3879L82.7297 28.1821L82.9012 27.9843L83.0819 27.7948L83.2716 27.6143L83.4696 27.4431L83.6758 27.2811L83.89 27.1291L84.1116 26.9872L84.3405 26.8558L84.576 26.7353L84.8183 26.626L85.0667 26.5281L85.3209 26.4423L85.5803 26.3688L85.8447 26.3078L86.114 26.2597L86.3876 26.225L86.6647 26.2041L86.945 26.1969V26.1969ZM86.945 27.8155V26.1969L86.9866 26.1979L87.0278 26.2011L87.0683 26.2063L87.1083 26.2134L87.1475 26.2224L87.1859 26.2333L87.2235 26.246L87.2604 26.2605L87.2963 26.2767L87.3312 26.2946L87.3651 26.3141L87.398 26.3351L87.4298 26.3577L87.4603 26.3817L87.4897 26.4072L87.518 26.4339L87.5447 26.4621L87.5703 26.4915L87.5943 26.522L87.6169 26.5537L87.6379 26.5866L87.6575 26.6205L87.6754 26.6553L87.6916 26.6912L87.7061 26.728L87.7189 26.7655L87.7298 26.8039L87.7388 26.8431L87.7459 26.883L87.7511 26.9235L87.7543 26.9646L87.7553 27.0062L87.7543 27.0478L87.7511 27.0889L87.7459 27.1294L87.7388 27.1693L87.7298 27.2085L87.7189 27.2469L87.7061 27.2844L87.6916 27.3212L87.6754 27.3571L87.6575 27.3919L87.6379 27.4258L87.6169 27.4587L87.5943 27.4904L87.5703 27.5209L87.5447 27.5503L87.518 27.5784L87.4897 27.6052L87.4603 27.6307L87.4298 27.6547L87.398 27.6773L87.3651 27.6983L87.3312 27.7178L87.2963 27.7357L87.2604 27.7519L87.2235 27.7664L87.1859 27.7791L87.1475 27.79L87.1083 27.799L87.0683 27.8061L87.0278 27.8113L86.9866 27.8145L86.945 27.8155V27.8155ZM93.3917 27.8155H86.945V26.1969H93.3917V27.8155ZM93.3917 27.8155V26.1969L93.4333 26.1979L93.4745 26.2011L93.515 26.2063L93.555 26.2134L93.5942 26.2224L93.6326 26.2333L93.6702 26.246L93.7071 26.2605L93.743 26.2767L93.7779 26.2946L93.8118 26.3141L93.8447 26.3351L93.8765 26.3577L93.9071 26.3817L93.9365 26.4072L93.9647 26.4339L93.9915 26.4621L94.017 26.4915L94.041 26.522L94.0636 26.5537L94.0847 26.5866L94.1042 26.6205L94.1221 26.6553L94.1383 26.6912L94.1528 26.728L94.1656 26.7655L94.1765 26.8039L94.1855 26.8431L94.1926 26.883L94.1978 26.9235L94.201 26.9646L94.202 27.0062L94.201 27.0478L94.1978 27.0889L94.1926 27.1294L94.1855 27.1693L94.1765 27.2085L94.1656 27.2469L94.1528 27.2844L94.1383 27.3212L94.1221 27.3571L94.1042 27.3919L94.0847 27.4258L94.0636 27.4587L94.041 27.4904L94.017 27.5209L93.9915 27.5503L93.9647 27.5784L93.9365 27.6052L93.9071 27.6307L93.8765 27.6547L93.8447 27.6773L93.8118 27.6983L93.7779 27.7178L93.743 27.7357L93.7071 27.7519L93.6702 27.7664L93.6326 27.7791L93.5942 27.79L93.555 27.799L93.515 27.8061L93.4745 27.8113L93.4333 27.8145L93.3917 27.8155V27.8155ZM98.8546 31.6528H97.2339L97.229 31.4544L97.2141 31.2592L97.1897 31.0674L97.1559 30.8785L97.113 30.693L97.0612 30.5111L97.001 30.3332L96.9324 30.1593L96.8555 29.9895L96.7707 29.8241L96.6782 29.6635L96.5782 29.5078L96.4711 29.3573L96.357 29.2123L96.2359 29.0728L96.1086 28.9394L95.975 28.8122L95.8354 28.6913L95.6901 28.5774L95.5395 28.4704L95.3836 28.3706L95.2227 28.2782L95.0571 28.1934L94.8871 28.1167L94.713 28.0481L94.5348 27.988L94.3527 27.9363L94.167 27.8935L93.9779 27.8597L93.7858 27.8353L93.5903 27.8205L93.3917 27.8155V26.1969L93.6719 26.2041L93.9491 26.225L94.2225 26.2597L94.4917 26.3078L94.7563 26.3687L95.0157 26.4423L95.2698 26.5281L95.5183 26.626L95.7604 26.7353L95.9962 26.8558L96.225 26.9872L96.4466 27.1291L96.6608 27.2811L96.867 27.4431L97.065 27.6143L97.2546 27.7948L97.4354 27.9843L97.6068 28.182L97.769 28.3879L97.9213 28.6018L98.0633 28.8232L98.1948 29.0517L98.3155 29.2871L98.425 29.5289L98.523 29.7771L98.6089 30.0308L98.6825 30.29L98.7436 30.5542L98.7918 30.823L98.8265 31.0962L98.8474 31.3729L98.8546 31.6528V31.6528ZM97.2339 31.6528H98.8546L98.8536 31.6944L98.8504 31.7355L98.8452 31.776L98.8381 31.8159L98.8291 31.8551L98.8182 31.8935L98.8054 31.931L98.7909 31.9678L98.7747 32.0037L98.7568 32.0385L98.7373 32.0725L98.7162 32.1053L98.6936 32.137L98.6696 32.1676L98.6441 32.1969L98.6173 32.225L98.5891 32.2519L98.5597 32.2773L98.5291 32.3013L98.4973 32.3239L98.4644 32.3449L98.4305 32.3644L98.3956 32.3823L98.3597 32.3985L98.3228 32.413L98.2852 32.4258L98.2468 32.4366L98.2076 32.4457L98.1676 32.4528L98.1271 32.4579L98.0859 32.4611L98.0443 32.4621L98.0026 32.4611L97.9615 32.4579L97.9209 32.4528L97.881 32.4457L97.8418 32.4366L97.8033 32.4258L97.7657 32.413L97.7289 32.3985L97.693 32.3823L97.6581 32.3644L97.6241 32.3449L97.5912 32.3239L97.5595 32.3013L97.5289 32.2773L97.4995 32.2519L97.4713 32.225L97.4445 32.1969L97.419 32.1676L97.395 32.137L97.3723 32.1053L97.3513 32.0725L97.3318 32.0385L97.3139 32.0037L97.2976 31.9678L97.2831 31.931L97.2704 31.8935L97.2594 31.8551L97.2504 31.8159L97.2433 31.776L97.2382 31.7355L97.235 31.6944L97.2339 31.6528H97.2339ZM97.2339 68.153V31.6528H98.8546V68.153L98.0443 68.9623L97.2339 68.153H97.2339ZM97.2339 68.153H98.8546L98.8536 68.1946L98.8504 68.2357L98.8452 68.2762L98.8381 68.3161L98.8291 68.3553L98.8182 68.3937L98.8054 68.4312L98.7909 68.468L98.7747 68.5039L98.7568 68.5387L98.7373 68.5726L98.7162 68.6055L98.6936 68.6372L98.6696 68.6677L98.6441 68.6971L98.6173 68.7253L98.5891 68.752L98.5597 68.7775L98.5291 68.8015L98.4973 68.8241L98.4644 68.8451L98.4305 68.8646L98.3956 68.8825L98.3597 68.8987L98.3228 68.9132L98.2852 68.9259L98.2468 68.9368L98.2076 68.9459L98.1676 68.953L98.1271 68.9581L98.0859 68.9613L98.0443 68.9623L98.0026 68.9613L97.9615 68.9581L97.9209 68.953L97.881 68.9459L97.8418 68.9368L97.8033 68.9259L97.7657 68.9132L97.7289 68.8987L97.693 68.8825L97.6581 68.8646L97.6241 68.8451L97.5912 68.8241L97.5595 68.8015L97.5289 68.7775L97.4995 68.752L97.4713 68.7253L97.4445 68.6971L97.419 68.6677L97.395 68.6372L97.3723 68.6055L97.3513 68.5726L97.3318 68.5387L97.3139 68.5039L97.2976 68.468L97.2831 68.4312L97.2704 68.3937L97.2594 68.3553L97.2504 68.3161L97.2433 68.2762L97.2382 68.2357L97.235 68.1946L97.2339 68.153H97.2339Z" fill="#333333"/>
<path d="M23.9112 57.475V68.1529H22.2905V57.475H23.9112ZM23.9112 57.475H22.2905L22.2915 57.4334L22.2948 57.3923L22.2999 57.3518L22.307 57.3118L22.316 57.2727L22.3269 57.2343L22.3397 57.1967L22.3542 57.16L22.3705 57.1241L22.3884 57.0892L22.4079 57.0553L22.4289 57.0225L22.4516 56.9908L22.4756 56.9602L22.5011 56.9309L22.5279 56.9028L22.5561 56.8759L22.5855 56.8504L22.6161 56.8265L22.6478 56.8039L22.6807 56.7829L22.7147 56.7634L22.7496 56.7455L22.7855 56.7293L22.8223 56.7148L22.8599 56.702L22.8983 56.6911L22.9376 56.6821L22.9775 56.675L23.0181 56.6699L23.0592 56.6667L23.1009 56.6657L23.1425 56.6667L23.1837 56.6699L23.2242 56.675L23.2642 56.6821L23.3034 56.6911L23.3418 56.702L23.3794 56.7148L23.4163 56.7293L23.4522 56.7455L23.4871 56.7634L23.521 56.7829L23.5539 56.8039L23.5857 56.8265L23.6163 56.8504L23.6457 56.8759L23.6738 56.9028L23.7007 56.9309L23.7262 56.9602L23.7502 56.9908L23.7728 57.0225L23.7939 57.0553L23.8134 57.0892L23.8313 57.1241L23.8475 57.16L23.862 57.1967L23.8748 57.2343L23.8857 57.2727L23.8947 57.3118L23.9018 57.3518L23.907 57.3923L23.9102 57.4334L23.9112 57.475ZM26.0676 53.7028V55.3214L25.9557 55.3242L25.846 55.3325L25.7383 55.3462L25.6321 55.3652L25.528 55.3891L25.4259 55.4181L25.3262 55.4518L25.2286 55.4903L25.1334 55.5333L25.0403 55.5809L24.95 55.6327L24.8626 55.6887L24.7779 55.7489L24.6963 55.813L24.618 55.8807L24.5429 55.9523L24.4712 56.0273L24.4034 56.1054L24.3393 56.187L24.279 56.2716L24.223 56.3588L24.1711 56.449L24.1234 56.5419L24.0804 56.637L24.0418 56.7345L24.008 56.8342L23.9791 56.9361L23.9551 57.0401L23.936 57.1461L23.9224 57.2537L23.914 57.3632L23.9112 57.475H22.2905L22.2955 57.2817L22.31 57.0903L22.3341 56.9014L22.3673 56.7157L22.4096 56.5331L22.4605 56.3539L22.52 56.1781L22.5878 56.0065L22.6635 55.8392L22.7469 55.6766L22.8379 55.5186L22.9363 55.3653L23.0414 55.2178L23.1533 55.0753L23.2721 54.9385L23.3969 54.8077L23.5278 54.6831L23.6648 54.5645L23.8075 54.4527L23.9552 54.3477L24.1087 54.2494L24.2669 54.1586L24.4297 54.0752L24.5973 53.9996L24.769 53.9319L24.945 53.8725L25.1245 53.8217L25.3073 53.7795L25.4933 53.7463L25.6824 53.7222L25.8741 53.7078L26.0676 53.7028ZM26.0676 55.3214V53.7028L26.1092 53.7038L26.1504 53.707L26.1909 53.7121L26.2309 53.7192L26.2701 53.7283L26.3085 53.7391L26.3461 53.7519L26.3829 53.7664L26.4189 53.7826L26.4538 53.8005L26.4877 53.82L26.5206 53.841L26.5524 53.8636L26.5829 53.8876L26.6123 53.913L26.6405 53.9399L26.6673 53.968L26.6929 53.9973L26.7169 54.0279L26.7395 54.0596L26.7605 54.0924L26.7801 54.1264L26.798 54.1612L26.8142 54.1971L26.8287 54.2339L26.8415 54.2714L26.8524 54.3098L26.8614 54.349L26.8685 54.3889L26.8737 54.4294L26.8769 54.4705L26.8779 54.5121L26.8769 54.5537L26.8737 54.5948L26.8685 54.6353L26.8614 54.6752L26.8524 54.7143L26.8415 54.7527L26.8287 54.7903L26.8142 54.8271L26.798 54.8629L26.7801 54.8978L26.7605 54.9317L26.7395 54.9645L26.7169 54.9962L26.6929 55.0268L26.6673 55.0562L26.6405 55.0843L26.6123 55.1111L26.5829 55.1366L26.5524 55.1605L26.5206 55.1832L26.4877 55.2042L26.4538 55.2237L26.4189 55.2415L26.3829 55.2577L26.3461 55.2723L26.3085 55.285L26.2701 55.2959L26.2309 55.3049L26.1909 55.312L26.1504 55.3172L26.1092 55.3204L26.0676 55.3214V55.3214ZM30.9337 55.3211L26.0676 55.3214V53.7028L30.9337 53.7025V55.3211Z" fill="#333333"/>
<path fill-rule="evenodd" clip-rule="evenodd" d="M76.0962 53.9246C76.0962 58.6672 76.0962 63.4102 76.0962 68.1529C78.1616 68.1529 80.2269 68.1529 82.2922 68.1529C82.2922 59.6723 82.2922 51.1917 82.2922 42.7112C60.3822 42.7112 38.472 42.7112 16.562 42.7112C16.562 51.1917 16.562 59.6723 16.562 68.1529C21.381 68.1529 26.2 68.1529 31.0191 68.1529C31.0191 63.96 31.0191 59.7672 31.0191 55.5744C31.0191 51.9484 28.0753 49.0084 24.4446 49.0084C40.021 49.0084 55.5973 49.0084 71.1738 49.0084C73.8926 49.0084 76.0962 51.2093 76.0962 53.9246L76.0962 53.9246Z" fill="#88A6E3"/>
<path d="M76.0965 67.3436V68.9622L75.2862 68.1529V67.7083V67.2637V66.819V66.3744V65.9298V65.4851V65.0405V64.5958V64.1512V63.7066V63.2619V62.8173V62.3726V61.928V61.4834V61.0387V60.5941V60.1494V59.7048V59.2601V58.8155V58.3709V57.9262V57.4816V57.037V56.5923V56.1477V55.7031V55.2585V54.8138V54.3692V53.9246H76.9069V54.3692V54.8138V55.2585V55.7031V56.1477V56.5923V57.037V57.4816V57.9262V58.3709V58.8155V59.2601V59.7048V60.1494V60.5941V61.0387V61.4834V61.928V62.3726V62.8173V63.2619V63.7066V64.1512V64.5958V65.0405V65.4851V65.9298V66.3744V66.819V67.2637V67.7083V68.1529L76.0965 67.3436L76.0965 67.3436ZM75.2862 68.1529H76.9069L76.9058 68.1945L76.9026 68.2356L76.8975 68.2761L76.8904 68.316L76.8813 68.3552L76.8704 68.3936L76.8577 68.4311L76.8431 68.4679L76.8269 68.5038L76.809 68.5386L76.7895 68.5725L76.7685 68.6054L76.7458 68.6371L76.7218 68.6676L76.6963 68.697L76.6695 68.7252L76.6413 68.7519L76.6119 68.7774L76.5813 68.8014L76.5495 68.824L76.5167 68.845L76.4827 68.8645L76.4478 68.8824L76.4119 68.8986L76.3751 68.9131L76.3375 68.9258L76.299 68.9367L76.2598 68.9458L76.2199 68.9528L76.1793 68.958L76.1382 68.9612L76.0965 68.9622L76.0549 68.9612L76.0137 68.958L75.9732 68.9528L75.9332 68.9458L75.894 68.9367L75.8555 68.9258L75.818 68.9131L75.7811 68.8986L75.7452 68.8824L75.7103 68.8645L75.6763 68.845L75.6435 68.824L75.6117 68.8014L75.5811 68.7774L75.5517 68.7519L75.5236 68.7252L75.4967 68.697L75.4712 68.6676L75.4472 68.6371L75.4246 68.6054L75.4035 68.5725L75.384 68.5386L75.3661 68.5038L75.3499 68.4679L75.3353 68.4311L75.3226 68.3936L75.3117 68.3552L75.3026 68.316L75.2956 68.2761L75.2904 68.2356L75.2872 68.1945L75.2862 68.1529ZM81.4821 68.1529H83.1028L82.2925 68.9622H82.0988H81.9053H81.7116H81.518H81.3244H81.1308H80.9371H80.7435H80.5499H80.3562H80.1627H79.969H79.7754H79.5818H79.3881H79.1945H79.0009H78.8073H78.6136H78.4201H78.2264H78.0328H77.8391H77.6455H77.4519H77.2582H77.0647H76.871H76.6774H76.4837H76.2902H76.0965V67.3436H76.2902H76.4837H76.6774H76.871H77.0647H77.2582H77.4519H77.6455H77.8391H78.0328H78.2264H78.4201H78.6136H78.8073H79.0009H79.1945H79.3881H79.5818H79.7754H79.969H80.1627H80.3562H80.5499H80.7435H80.9371H81.1308H81.3244H81.518H81.7116H81.9053H82.0988H82.2925L81.4821 68.1529V68.1529ZM82.2925 68.9622V67.3436L82.3341 67.3446L82.3753 67.3478L82.4158 67.353L82.4558 67.3601L82.495 67.3691L82.5334 67.38L82.571 67.3927L82.6079 67.4072L82.6438 67.4234L82.6787 67.4413L82.7126 67.4608L82.7455 67.4818L82.7773 67.5044L82.8079 67.5284L82.8373 67.5539L82.8655 67.5807L82.8923 67.6088L82.9178 67.6382L82.9418 67.6687L82.9644 67.7005L82.9855 67.7333L83.005 67.7672L83.0229 67.802L83.0391 67.8379L83.0536 67.8747L83.0664 67.9123L83.0773 67.9506L83.0863 67.9898L83.0934 68.0297L83.0986 68.0702L83.1018 68.1113L83.1028 68.1529L83.1018 68.1945L83.0986 68.2356L83.0934 68.2761L83.0863 68.316L83.0773 68.3552L83.0664 68.3936L83.0536 68.4311L83.0391 68.4679L83.0229 68.5038L83.005 68.5386L82.9855 68.5725L82.9644 68.6054L82.9418 68.6371L82.9178 68.6676L82.8923 68.697L82.8655 68.7252L82.8373 68.7519L82.8079 68.7774L82.7773 68.8014L82.7455 68.824L82.7126 68.845L82.6787 68.8645L82.6438 68.8824L82.6079 68.8986L82.571 68.9131L82.5334 68.9258L82.495 68.9367L82.4558 68.9458L82.4158 68.9528L82.3753 68.958L82.3341 68.9612L82.2925 68.9622V68.9622ZM82.2925 43.5205V41.9019L83.1028 42.7112V43.5062V44.3012V45.0963V45.8914V46.6864V47.4815V48.2765V49.0716V49.8666V50.6617V51.4568V52.2518V53.0469V53.8419V54.6369V55.4321V56.2271V57.0222V57.8172V58.6122V59.4073V60.2023V60.9974V61.7925V62.5875V63.3826V64.1776V64.9727V65.7678V66.5628V67.3579V68.1529H81.4821V67.3579V66.5628V65.7678V64.9727V64.1776V63.3826V62.5875V61.7925V60.9974V60.2023V59.4073V58.6122V57.8172V57.0222V56.2271V55.4321V54.6369V53.8419V53.0469V52.2518V51.4568V50.6617V49.8666V49.0716V48.2765V47.4815V46.6864V45.8914V45.0963V44.3012V43.5062V42.7112L82.2925 43.5205ZM83.1028 42.7112H81.4821L81.4832 42.6696L81.4864 42.6285L81.4915 42.588L81.4986 42.5481L81.5077 42.5089L81.5186 42.4705L81.5313 42.433L81.5458 42.3962L81.5621 42.3603L81.58 42.3255L81.5995 42.2915L81.6205 42.2587L81.6432 42.227L81.6672 42.1964L81.6927 42.1671L81.7196 42.139L81.7477 42.1121L81.7771 42.0867L81.8077 42.0627L81.8394 42.0401L81.8723 42.0191L81.9063 41.9996L81.9412 41.9817L81.9771 41.9655L82.0139 41.951L82.0515 41.9382L82.09 41.9273L82.1292 41.9183L82.1691 41.9112L82.2097 41.9061L82.2508 41.9029L82.2925 41.9019L82.3341 41.9029L82.3753 41.9061L82.4158 41.9112L82.4558 41.9183L82.495 41.9273L82.5334 41.9382L82.571 41.951L82.6079 41.9655L82.6438 41.9817L82.6787 41.9996L82.7126 42.0191L82.7455 42.0401L82.7773 42.0627L82.8079 42.0867L82.8373 42.1121L82.8655 42.139L82.8923 42.1671L82.9178 42.1964L82.9418 42.227L82.9644 42.2587L82.9855 42.2915L83.005 42.3255L83.0229 42.3603L83.0391 42.3962L83.0536 42.433L83.0664 42.4705L83.0773 42.5089L83.0863 42.5481L83.0934 42.588L83.0986 42.6285L83.1018 42.6696L83.1028 42.7112ZM17.3726 42.7112H15.752L16.5623 41.9019H18.6163H20.6704H22.7245H24.7786H26.8326H28.8867H30.9408H32.9948H35.0489H37.103H39.1571H41.2111H43.2653H45.3193H47.3734H49.4274H51.4815H53.5356H55.5896H57.6438H59.6978H61.7519H63.806H65.8601H67.9141H69.9682H72.0223H74.0763H76.1304H78.1844H80.2386H82.2926V43.5205H80.2386H78.1844H76.1304H74.0763H72.0223H69.9682H67.9141H65.8601H63.806H61.7519H59.6978H57.6438H55.5896H53.5356H51.4815H49.4274H47.3734H45.3193H43.2653H41.2111H39.1571H37.103H35.0489H32.9948H30.9408H28.8867H26.8326H24.7786H22.7245H20.6704H18.6163H16.5623L17.3726 42.7112H17.3726ZM16.5623 41.9019V43.5205L16.5206 43.5195L16.4795 43.5162L16.4389 43.5111L16.399 43.504L16.3598 43.495L16.3213 43.4841L16.2837 43.4714L16.2469 43.4568L16.211 43.4406L16.1761 43.4227L16.1421 43.4033L16.1093 43.3822L16.0775 43.3596L16.0469 43.3357L16.0175 43.3102L15.9893 43.2834L15.9625 43.2553L15.937 43.2259L15.913 43.1953L15.8903 43.1636L15.8693 43.1308L15.8498 43.0969L15.8319 43.062L15.8157 43.0262L15.8011 42.9894L15.7884 42.9518L15.7775 42.9134L15.7684 42.8743L15.7613 42.8344L15.7562 42.7939L15.753 42.7528L15.752 42.7112L15.753 42.6696L15.7562 42.6285L15.7613 42.588L15.7684 42.5481L15.7775 42.5089L15.7884 42.4705L15.8011 42.433L15.8157 42.3962L15.8319 42.3603L15.8498 42.3255L15.8693 42.2915L15.8903 42.2587L15.913 42.227L15.937 42.1964L15.9625 42.1671L15.9893 42.139L16.0175 42.1121L16.0469 42.0867L16.0775 42.0627L16.1093 42.0401L16.1421 42.0191L16.1761 41.9996L16.211 41.9817L16.2469 41.9655L16.2837 41.951L16.3213 41.9382L16.3598 41.9273L16.399 41.9183L16.4389 41.9112L16.4795 41.9061L16.5206 41.9029L16.5623 41.9019ZM16.5623 67.3436V68.9622L15.752 68.1529V67.3579V66.5628V65.7678V64.9727V64.1776V63.3826V62.5875V61.7925V60.9975V60.2023V59.4073V58.6122V57.8172V57.0222V56.2271V55.4321V54.637V53.8419V53.0469V52.2518V51.4568V50.6617V49.8666V49.0716V48.2765V47.4815V46.6865V45.8914V45.0963V44.3012V43.5062V42.7112H17.3726V43.5062V44.3012V45.0963V45.8914V46.6865V47.4815V48.2765V49.0716V49.8666V50.6617V51.4568V52.2518V53.0469V53.8419V54.637V55.4321V56.2271V57.0222V57.8172V58.6122V59.4073V60.2023V60.9975V61.7925V62.5875V63.3826V64.1776V64.9727V65.7678V66.5628V67.3579V68.1529L16.5623 67.3436L16.5623 67.3436ZM15.752 68.1529H17.3726L17.3716 68.1945L17.3684 68.2356L17.3633 68.2761L17.3562 68.316L17.3471 68.3552L17.3362 68.3936L17.3235 68.4311L17.3089 68.4679L17.2927 68.5038L17.2748 68.5386L17.2553 68.5725L17.2342 68.6054L17.2116 68.6371L17.1876 68.6676L17.1621 68.697L17.1352 68.7252L17.1071 68.7519L17.0777 68.7774L17.0471 68.8014L17.0153 68.824L16.9825 68.845L16.9485 68.8645L16.9136 68.8824L16.8777 68.8986L16.8409 68.9131L16.8033 68.9258L16.7648 68.9367L16.7256 68.9458L16.6857 68.9528L16.6451 68.958L16.604 68.9612L16.5623 68.9622L16.5206 68.9612L16.4795 68.958L16.4389 68.9528L16.399 68.9458L16.3598 68.9367L16.3213 68.9258L16.2837 68.9131L16.2469 68.8986L16.211 68.8824L16.1761 68.8645L16.1421 68.845L16.1093 68.824L16.0775 68.8014L16.0469 68.7774L16.0175 68.7519L15.9893 68.7252L15.9625 68.697L15.937 68.6676L15.913 68.6371L15.8904 68.6054L15.8693 68.5725L15.8498 68.5386L15.8319 68.5038L15.8157 68.4679L15.8011 68.4311L15.7884 68.3936L15.7775 68.3552L15.7684 68.316L15.7613 68.2761L15.7562 68.2356L15.753 68.1945L15.752 68.1529H15.752ZM30.2091 68.1529H31.8297L31.0194 68.9622H30.5676H30.1159H29.664H29.2122H28.7605H28.3087H27.8569H27.4051H26.9533H26.5016H26.0498H25.5979H25.1462H24.6944H24.2427H23.7909H23.339H22.8873H22.4355H21.9837H21.532H21.0802H20.6284H20.1766H19.7248H19.2731H18.8213H18.3695H17.9177H17.4659H17.0141H16.5624V67.3436H17.0141H17.4659H17.9177H18.3695H18.8213H19.2731H19.7248H20.1766H20.6284H21.0802H21.532H21.9837H22.4355H22.8873H23.339H23.7909H24.2427H24.6944H25.1462H25.5979H26.0498H26.5016H26.9533H27.4051H27.8569H28.3087H28.7605H29.2122H29.664H30.1159H30.5676H31.0194L30.2091 68.1529L30.2091 68.1529ZM31.0194 68.9622V67.3436L31.061 67.3446L31.1022 67.3478L31.1427 67.353L31.1827 67.3601L31.2219 67.3691L31.2604 67.38L31.298 67.3927L31.3348 67.4072L31.3707 67.4234L31.4056 67.4413L31.4396 67.4608L31.4724 67.4818L31.5042 67.5044L31.5348 67.5284L31.5642 67.5539L31.5923 67.5807L31.6192 67.6088L31.6447 67.6382L31.6687 67.6687L31.6913 67.7005L31.7124 67.7333L31.7319 67.7672L31.7498 67.802L31.766 67.8379L31.7806 67.8747L31.7933 67.9123L31.8042 67.9506L31.8133 67.9898L31.8204 68.0297L31.8255 68.0702L31.8287 68.1113L31.8297 68.1529L31.8287 68.1945L31.8255 68.2356L31.8204 68.2761L31.8133 68.316L31.8042 68.3552L31.7933 68.3936L31.7806 68.4311L31.766 68.4679L31.7498 68.5038L31.7319 68.5386L31.7124 68.5725L31.6913 68.6054L31.6687 68.6371L31.6447 68.6676L31.6192 68.697L31.5923 68.7252L31.5642 68.7519L31.5348 68.7774L31.5042 68.8014L31.4724 68.824L31.4396 68.845L31.4056 68.8645L31.3707 68.8824L31.3348 68.8986L31.298 68.9131L31.2604 68.9258L31.2219 68.9367L31.1827 68.9458L31.1427 68.9528L31.1022 68.958L31.061 68.9612L31.0194 68.9622V68.9622ZM30.2091 55.5744H31.8297V55.9675V56.3606V56.7536V57.1467V57.5398V57.9329V58.3259V58.719V59.1121V59.5051V59.8983V60.2913V60.6844V61.0774V61.4706V61.8636V62.2567V62.6498V63.0428V63.4359V63.829V64.2221V64.6151V65.0082V65.4013V65.7944V66.1875V66.5805V66.9737V67.3667V67.7598V68.1529H30.2091V67.7598V67.3667V66.9737V66.5805V66.1875V65.7944V65.4013V65.0082V64.6151V64.2221V63.829V63.4359V63.0428V62.6498V62.2567V61.8636V61.4706V61.0774V60.6844V60.2913V59.8983V59.5051V59.1121V58.719V58.3259V57.9329V57.5398V57.1467V56.7536V56.3606V55.9675V55.5744ZM31.8297 55.5744H30.2091L30.2101 55.5328L30.2133 55.4917L30.2184 55.4512L30.2255 55.4113L30.2346 55.3721L30.2455 55.3338L30.2582 55.2962L30.2728 55.2594L30.289 55.2235L30.3069 55.1887L30.3264 55.1548L30.3474 55.122L30.3701 55.0902L30.3941 55.0597L30.4196 55.0303L30.4464 55.0022L30.4746 54.9754L30.504 54.9499L30.5346 54.9259L30.5664 54.9033L30.5992 54.8823L30.6332 54.8628L30.6681 54.8449L30.704 54.8287L30.7408 54.8142L30.7784 54.8015L30.8169 54.7906L30.8561 54.7816L30.896 54.7745L30.9366 54.7693L30.9777 54.7661L31.0194 54.7651L31.061 54.7661L31.1022 54.7693L31.1427 54.7745L31.1827 54.7816L31.2219 54.7906L31.2604 54.8015L31.298 54.8142L31.3348 54.8287L31.3707 54.8449L31.4056 54.8628L31.4396 54.8823L31.4724 54.9033L31.5042 54.9259L31.5348 54.9499L31.5642 54.9754L31.5923 55.0022L31.6192 55.0303L31.6447 55.0597L31.6687 55.0902L31.6913 55.122L31.7124 55.1548L31.7319 55.1887L31.7498 55.2235L31.766 55.2594L31.7806 55.2962L31.7933 55.3338L31.8042 55.3721L31.8133 55.4113L31.8204 55.4512L31.8255 55.4917L31.8287 55.5328L31.8297 55.5744H31.8297ZM24.4449 48.1991V49.8177V48.1991L24.8241 48.2087L25.1988 48.2371L25.5683 48.284L25.9321 48.3489L26.2897 48.4314L26.6404 48.5308L26.9839 48.6469L27.3195 48.7791L27.6467 48.9268L27.9653 49.0897L28.2747 49.2674L28.5743 49.4592L28.8637 49.6648L29.1425 49.8836L29.4104 50.1154L29.6666 50.3594L29.911 50.6153L30.143 50.8829L30.3621 51.1613L30.568 51.4504L30.76 51.7496L30.938 52.0586L31.1011 52.3767L31.249 52.7035L31.3814 53.0387L31.4975 53.3818L31.5971 53.7319L31.6797 54.0891L31.7447 54.4525L31.7916 54.8215L31.8201 55.1957L31.8297 55.5744H30.2091L30.2016 55.2774L30.1792 54.9848L30.1426 54.6967L30.092 54.4133L30.0277 54.1351L29.95 53.8622L29.8595 53.5951L29.7564 53.334L29.6409 53.0791L29.5138 52.831L29.3751 52.59L29.2251 52.3564L29.0643 52.1306L28.893 51.913L28.7117 51.704L28.5206 51.5039L28.3203 51.3131L28.111 51.132L27.8931 50.9609L27.667 50.8004L27.4331 50.6506L27.1918 50.512L26.9434 50.385L26.6882 50.2698L26.4268 50.1667L26.1593 50.0764L25.8861 49.9988L25.6075 49.9346L25.3238 49.8841L25.0352 49.8475L24.7423 49.8251L24.4449 49.8177V48.1991H24.4449ZM24.4449 48.1991V49.8177L24.4033 49.8166L24.3621 49.8134L24.3216 49.8083L24.2816 49.8012L24.2424 49.7922L24.2039 49.7813L24.1664 49.7686L24.1295 49.754L24.0936 49.7378L24.0587 49.7199L24.0247 49.7005L23.9919 49.6794L23.9601 49.6568L23.9295 49.6329L23.9001 49.6074L23.8719 49.5806L23.8451 49.5524L23.8196 49.5231L23.7956 49.4925L23.773 49.4608L23.7519 49.428L23.7324 49.3941L23.7145 49.3592L23.6983 49.3234L23.6837 49.2866L23.671 49.249L23.6601 49.2106L23.651 49.1715L23.644 49.1316L23.6388 49.0911L23.6356 49.05L23.6346 49.0084L23.6356 48.9668L23.6388 48.9257L23.644 48.8852L23.651 48.8452L23.6601 48.8061L23.671 48.7677L23.6837 48.7302L23.6983 48.6934L23.7145 48.6575L23.7324 48.6227L23.7519 48.5887L23.773 48.5559L23.7956 48.5242L23.8196 48.4936L23.8451 48.4643L23.8719 48.4362L23.9001 48.4093L23.9295 48.3839L23.9601 48.3599L23.9919 48.3373L24.0247 48.3163L24.0587 48.2968L24.0936 48.2789L24.1295 48.2627L24.1664 48.2482L24.2039 48.2354L24.2424 48.2245L24.2816 48.2155L24.3216 48.2084L24.3621 48.2033L24.4033 48.2001L24.4449 48.1991ZM71.1741 48.1991V49.8177H69.7138H68.2535H66.7932H65.3329H63.8726H62.4123H60.9521H59.4918H58.0314H56.5712H55.1109H53.6507H52.1903H50.7301H49.2698H47.8095H46.3492H44.8889H43.4287H41.9683H40.5081H39.0478H37.5876H36.1272H34.6669H33.2067H31.7464H30.2861H28.8258H27.3655H25.9052H24.4449V48.1991H25.9052H27.3655H28.8258H30.2861H31.7464H33.2067H34.6669H36.1272H37.5876H39.0478H40.5081H41.9683H43.4287H44.8889H46.3492H47.8095H49.2698H50.7301H52.1903H53.6507H55.1109H56.5712H58.0314H59.4918H60.9521H62.4123H63.8726H65.3329H66.7932H68.2535H69.7138H71.1741ZM71.1741 49.8177V48.1991L71.2157 48.2001L71.2569 48.2033L71.2974 48.2084L71.3374 48.2155L71.3766 48.2245L71.415 48.2354L71.4526 48.2482L71.4895 48.2627L71.5254 48.2789L71.5603 48.2968L71.5942 48.3163L71.6271 48.3373L71.6589 48.3599L71.6895 48.3838L71.7189 48.4093L71.7471 48.4362L71.7739 48.4643L71.7994 48.4936L71.8234 48.5242L71.846 48.5559L71.8671 48.5887L71.8866 48.6226L71.9045 48.6575L71.9207 48.6934L71.9352 48.7302L71.948 48.7677L71.9589 48.8061L71.9679 48.8452L71.975 48.8852L71.9802 48.9257L71.9834 48.9668L71.9844 49.0084L71.9834 49.05L71.9802 49.091L71.975 49.1316L71.9679 49.1715L71.9589 49.2106L71.948 49.249L71.9352 49.2866L71.9207 49.3234L71.9045 49.3592L71.8866 49.3941L71.8671 49.428L71.846 49.4608L71.8234 49.4925L71.7994 49.5231L71.7739 49.5524L71.7471 49.5806L71.7189 49.6074L71.6895 49.6329L71.6589 49.6568L71.6271 49.6794L71.5942 49.7005L71.5603 49.7199L71.5254 49.7378L71.4895 49.754L71.4526 49.7685L71.415 49.7813L71.3766 49.7922L71.3374 49.8012L71.2974 49.8083L71.2569 49.8134L71.2157 49.8166L71.1741 49.8177ZM76.9069 53.9246H75.2862L75.2809 53.7124L75.2649 53.5034L75.2388 53.298L75.2026 53.0959L75.1567 52.8973L75.1015 52.7028L75.0369 52.5123L74.9634 52.3261L74.8811 52.1443L74.7904 51.9674L74.6914 51.7954L74.5845 51.6288L74.4698 51.4677L74.3475 51.3123L74.2182 51.1632L74.082 51.0205L73.9389 50.8844L73.7895 50.7551L73.634 50.633L73.4727 50.5185L73.3058 50.4116L73.1338 50.3129L72.9565 50.2222L72.7746 50.14L72.5882 50.0666L72.3974 50.0021L72.2026 49.9469L72.0038 49.9011L71.8015 49.865L71.5958 49.8389L71.3865 49.823L71.1741 49.8177V48.1991L71.4683 48.2066L71.759 48.2286L72.046 48.265L72.3284 48.3154L72.606 48.3793L72.8785 48.4566L73.1451 48.5467L73.4058 48.6493L73.66 48.7641L73.9072 48.8906L74.1473 49.0284L74.3799 49.1774L74.6046 49.3369L74.821 49.5068L75.0288 49.6865L75.2278 49.876L75.4175 50.0747L75.5976 50.2823L75.7675 50.4984L75.9274 50.7227L76.0765 50.9551L76.2146 51.1949L76.3412 51.4419L76.456 51.6957L76.5588 51.956L76.649 52.2224L76.7264 52.4945L76.7904 52.7717L76.8409 53.0538L76.8773 53.3404L76.8993 53.6308L76.9069 53.9246V53.9246ZM75.2862 53.9246H76.9069L76.9058 53.9662L76.9026 54.0073L76.8975 54.0478L76.8904 54.0877L76.8813 54.1268L76.8704 54.1652L76.8577 54.2028L76.8432 54.2396L76.8269 54.2754L76.809 54.3103L76.7895 54.3442L76.7685 54.377L76.7458 54.4088L76.7218 54.4393L76.6963 54.4687L76.6695 54.4969L76.6413 54.5236L76.6119 54.5491L76.5813 54.5731L76.5496 54.5957L76.5167 54.6167L76.4827 54.6362L76.4478 54.6541L76.4119 54.6703L76.3751 54.6848L76.3375 54.6975L76.299 54.7084L76.2598 54.7174L76.2199 54.7245L76.1793 54.7297L76.1382 54.7329L76.0965 54.7339L76.0549 54.7329L76.0137 54.7297L75.9732 54.7245L75.9332 54.7174L75.894 54.7084L75.8556 54.6975L75.818 54.6848L75.7811 54.6703L75.7452 54.6541L75.7103 54.6362L75.6764 54.6167L75.6435 54.5957L75.6117 54.5731L75.5811 54.5491L75.5517 54.5236L75.5236 54.4969L75.4967 54.4687L75.4712 54.4393L75.4472 54.4088L75.4246 54.377L75.4035 54.3442L75.384 54.3103L75.3661 54.2754L75.3499 54.2396L75.3354 54.2028L75.3226 54.1652L75.3117 54.1268L75.3027 54.0877L75.2956 54.0478L75.2904 54.0073L75.2872 53.9662L75.2862 53.9246H75.2862Z" fill="#333333"/>
<path fill-rule="evenodd" clip-rule="evenodd" d="M82.2925 42.7113V31.6529C82.2925 29.0865 84.3754 27.0062 86.9452 27.0062H11.9097C14.4794 27.0062 16.5624 29.0865 16.5624 31.6529V42.7113H82.2925H82.2925Z" fill="#B0C1D4"/>
<path d="M83.1026 31.6528V42.7112H81.4819V31.6528H83.1026ZM83.1026 31.6528H81.4819L81.483 31.6112L81.4862 31.5701L81.4913 31.5296L81.4984 31.4897L81.5075 31.4506L81.5184 31.4122L81.5311 31.3746L81.5456 31.3378L81.5619 31.302L81.5798 31.2671L81.5993 31.2332L81.6203 31.2004L81.643 31.1686L81.667 31.1381L81.6925 31.1087L81.7194 31.0805L81.7475 31.0538L81.7769 31.0283L81.8075 31.0044L81.8392 30.9817L81.8721 30.9607L81.9061 30.9412L81.941 30.9233L81.9769 30.9071L82.0137 30.8926L82.0513 30.8799L82.0898 30.869L82.129 30.86L82.1689 30.8529L82.2095 30.8477L82.2506 30.8445L82.2923 30.8435L82.3339 30.8445L82.3751 30.8477L82.4156 30.8529L82.4556 30.86L82.4948 30.869L82.5332 30.8799L82.5708 30.8926L82.6077 30.9071L82.6436 30.9233L82.6785 30.9412L82.7125 30.9607L82.7453 30.9817L82.7771 31.0044L82.8077 31.0283L82.8371 31.0538L82.8653 31.0805L82.8921 31.1087L82.9176 31.1381L82.9416 31.1686L82.9642 31.2004L82.9853 31.2332L83.0048 31.2671L83.0227 31.302L83.0389 31.3378L83.0535 31.3746L83.0662 31.4122L83.0771 31.4506L83.0862 31.4897L83.0932 31.5296L83.0984 31.5701L83.1016 31.6112L83.1026 31.6528H83.1026ZM86.945 27.8155V26.1969V27.8155L86.7463 27.8205L86.5508 27.8353L86.3587 27.8597L86.1697 27.8935L85.984 27.9363L85.8018 27.988L85.6235 28.0481L85.4494 28.1167L85.2795 28.1934L85.1139 28.2782L84.9529 28.3706L84.7971 28.4704L84.6464 28.5774L84.5012 28.6913L84.3615 28.8122L84.2279 28.9394L84.1006 29.0728L83.9796 29.2122L83.8656 29.3573L83.7583 29.5079L83.6584 29.6635L83.5659 29.8241L83.4811 29.9895L83.4042 30.1593L83.3356 30.3332L83.2753 30.5111L83.2235 30.693L83.1807 30.8785L83.1469 31.0674L83.1225 31.2592L83.1076 31.4544L83.1026 31.6528H81.4819L81.4891 31.3729L81.5101 31.0962L81.5448 30.823L81.593 30.5542L81.654 30.29L81.7276 30.0308L81.8136 29.7771L81.9116 29.5289L82.0211 29.2871L82.1417 29.0517L82.2733 28.8232L82.4154 28.6018L82.5676 28.3879L82.7297 28.1821L82.9012 27.9843L83.0819 27.7948L83.2716 27.6143L83.4696 27.4431L83.6758 27.2811L83.89 27.1291L84.1116 26.9872L84.3405 26.8558L84.576 26.7353L84.8183 26.626L85.0668 26.5281L85.3209 26.4423L85.5803 26.3688L85.8447 26.3078L86.114 26.2597L86.3876 26.225L86.6647 26.2041L86.945 26.1969V27.8155V27.8155ZM86.945 27.8155V26.1969L86.9866 26.1979L87.0278 26.2011L87.0683 26.2063L87.1083 26.2134L87.1475 26.2224L87.1859 26.2333L87.2235 26.246L87.2604 26.2605L87.2963 26.2767L87.3312 26.2946L87.3651 26.3141L87.398 26.3351L87.4298 26.3577L87.4604 26.3817L87.4898 26.4072L87.518 26.4339L87.5448 26.4621L87.5703 26.4915L87.5943 26.522L87.6169 26.5537L87.6379 26.5866L87.6575 26.6205L87.6754 26.6553L87.6916 26.6912L87.7061 26.728L87.7189 26.7655L87.7298 26.8039L87.7388 26.8431L87.7459 26.883L87.7511 26.9235L87.7543 26.9646L87.7553 27.0062L87.7543 27.0478L87.7511 27.0889L87.7459 27.1294L87.7388 27.1693L87.7298 27.2085L87.7189 27.2469L87.7061 27.2844L87.6916 27.3212L87.6754 27.3571L87.6575 27.3919L87.6379 27.4258L87.6169 27.4587L87.5943 27.4904L87.5703 27.5209L87.5448 27.5503L87.518 27.5784L87.4898 27.6052L87.4604 27.6307L87.4298 27.6547L87.398 27.6773L87.3651 27.6983L87.3312 27.7178L87.2963 27.7357L87.2604 27.7519L87.2235 27.7664L87.1859 27.7791L87.1475 27.79L87.1083 27.799L87.0683 27.8061L87.0278 27.8113L86.9866 27.8145L86.945 27.8155V27.8155ZM11.9095 26.1969H86.945V27.8155H11.9095V26.1969ZM11.9095 26.1969V27.8155L11.8678 27.8145L11.8267 27.8113L11.7861 27.8061L11.7461 27.799L11.7069 27.79L11.6685 27.7791L11.6309 27.7664L11.5941 27.7519L11.5582 27.7357L11.5233 27.7178L11.4893 27.6983L11.4564 27.6773L11.4247 27.6547L11.3941 27.6307L11.3647 27.6052L11.3365 27.5784L11.3097 27.5503L11.2842 27.5209L11.2602 27.4904L11.2375 27.4587L11.2165 27.4258L11.197 27.3919L11.179 27.3571L11.1628 27.3212L11.1483 27.2844L11.1355 27.2469L11.1246 27.2085L11.1156 27.1693L11.1085 27.1294L11.1033 27.0889L11.1001 27.0478L11.0991 27.0062L11.1001 26.9646L11.1033 26.9235L11.1085 26.883L11.1156 26.8431L11.1246 26.8039L11.1355 26.7655L11.1483 26.728L11.1628 26.6912L11.179 26.6553L11.197 26.6205L11.2165 26.5866L11.2375 26.5537L11.2602 26.522L11.2842 26.4915L11.3097 26.4621L11.3365 26.4339L11.3647 26.4072L11.3941 26.3817L11.4247 26.3577L11.4564 26.3351L11.4893 26.3141L11.5233 26.2946L11.5582 26.2767L11.5941 26.2605L11.6309 26.246L11.6685 26.2333L11.7069 26.2224L11.7461 26.2134L11.7861 26.2063L11.8267 26.2011L11.8678 26.1979L11.9095 26.1969V26.1969ZM17.3725 31.6528H15.7518L15.7468 31.4544L15.7319 31.2592L15.7075 31.0674L15.6737 30.8785L15.6309 30.693L15.5791 30.5111L15.5189 30.3332L15.4503 30.1593L15.3734 29.9895L15.2885 29.8241L15.196 29.6635L15.0962 29.5079L14.9889 29.3573L14.8748 29.2122L14.7538 29.0728L14.6265 28.9394L14.4929 28.8122L14.3532 28.6913L14.208 28.5774L14.0574 28.4704L13.9015 28.3706L13.7405 28.2782L13.5749 28.1934L13.405 28.1167L13.2309 28.0481L13.0526 27.988L12.8704 27.9363L12.6847 27.8935L12.4957 27.8597L12.3036 27.8353L12.1081 27.8205L11.9095 27.8155V26.1969L12.1897 26.2041L12.4668 26.225L12.7404 26.2597L13.0097 26.3078L13.2741 26.3688L13.5335 26.4423L13.7877 26.5281L14.0362 26.626L14.2784 26.7353L14.5139 26.8558L14.7428 26.9872L14.9644 27.1291L15.1786 27.2811L15.3849 27.4431L15.5828 27.6143L15.7725 27.7948L15.9532 27.9843L16.1247 28.182L16.2868 28.3879L16.439 28.6018L16.5812 28.8232L16.7127 29.0517L16.8334 29.2871L16.9429 29.5289L17.0409 29.7771L17.1268 30.0308L17.2004 30.29L17.2615 30.5542L17.3096 30.823L17.3443 31.0962L17.3653 31.3729L17.3725 31.6528L17.3725 31.6528ZM15.7518 31.6528H17.3725L17.3715 31.6944L17.3683 31.7355L17.3631 31.776L17.356 31.8159L17.347 31.8551L17.3361 31.8935L17.3233 31.931L17.3088 31.9678L17.2926 32.0037L17.2746 32.0385L17.2551 32.0725L17.2341 32.1053L17.2114 32.137L17.1875 32.1675L17.1619 32.1969L17.1351 32.225L17.1069 32.2518L17.0775 32.2773L17.0469 32.3013L17.0152 32.3239L16.9823 32.3449L16.9483 32.3644L16.9135 32.3823L16.8775 32.3985L16.8407 32.413L16.8031 32.4258L16.7647 32.4366L16.7255 32.4457L16.6855 32.4528L16.6449 32.4579L16.6038 32.4611L16.5621 32.4621L16.5205 32.4611L16.4793 32.4579L16.4388 32.4528L16.3988 32.4457L16.3596 32.4366L16.3212 32.4258L16.2836 32.413L16.2467 32.3985L16.2108 32.3823L16.1759 32.3644L16.142 32.3449L16.1091 32.3239L16.0773 32.3013L16.0468 32.2773L16.0174 32.2518L15.9891 32.225L15.9624 32.1969L15.9368 32.1675L15.9128 32.137L15.8902 32.1053L15.8692 32.0725L15.8496 32.0385L15.8317 32.0037L15.8155 31.9678L15.801 31.931L15.7882 31.8935L15.7773 31.8551L15.7683 31.8159L15.7612 31.776L15.756 31.7355L15.7528 31.6944L15.7518 31.6528H15.7518ZM15.7518 42.7112V31.6528H17.3725V42.7112L16.5621 43.5205L15.7518 42.7112H15.7518ZM15.7518 42.7112H17.3725L17.3715 42.7528L17.3683 42.7939L17.3631 42.8344L17.356 42.8743L17.347 42.9135L17.3361 42.9519L17.3233 42.9894L17.3088 43.0262L17.2926 43.0621L17.2746 43.0969L17.2551 43.1309L17.2341 43.1637L17.2114 43.1954L17.1875 43.226L17.1619 43.2553L17.1351 43.2835L17.1069 43.3103L17.0775 43.3357L17.0469 43.3597L17.0152 43.3823L16.9823 43.4033L16.9483 43.4228L16.9135 43.4407L16.8775 43.4569L16.8407 43.4714L16.8031 43.4842L16.7647 43.4951L16.7255 43.5041L16.6855 43.5112L16.6449 43.5163L16.6038 43.5195L16.5621 43.5205L16.5205 43.5195L16.4793 43.5163L16.4388 43.5112L16.3988 43.5041L16.3596 43.4951L16.3212 43.4842L16.2836 43.4714L16.2467 43.4569L16.2108 43.4407L16.1759 43.4228L16.142 43.4033L16.1091 43.3823L16.0773 43.3597L16.0468 43.3357L16.0174 43.3103L15.9891 43.2835L15.9624 43.2553L15.9368 43.226L15.9128 43.1954L15.8902 43.1637L15.8692 43.1309L15.8496 43.0969L15.8317 43.0621L15.8155 43.0262L15.801 42.9894L15.7882 42.9519L15.7773 42.9135L15.7683 42.8743L15.7612 42.8344L15.756 42.7939L15.7528 42.7528L15.7518 42.7112H15.7518ZM82.2922 43.5205H16.5621V41.9019H82.2922L83.1026 42.7112L82.2922 43.5205V43.5205ZM82.2922 43.5205V41.9019L82.3339 41.903L82.375 41.9062L82.4156 41.9113L82.4556 41.9184L82.4948 41.9274L82.5332 41.9383L82.5708 41.951L82.6076 41.9656L82.6435 41.9818L82.6784 41.9997L82.7124 42.0191L82.7453 42.0402L82.777 42.0628L82.8076 42.0867L82.837 42.1122L82.8652 42.139L82.892 42.1671L82.9175 42.1965L82.9415 42.2271L82.9642 42.2588L82.9852 42.2916L83.0047 42.3255L83.0226 42.3604L83.0389 42.3962L83.0534 42.433L83.0662 42.4706L83.077 42.509L83.0861 42.5481L83.0932 42.588L83.0983 42.6285L83.1016 42.6696L83.1026 42.7112L83.1016 42.7528L83.0983 42.7939L83.0932 42.8344L83.0861 42.8743L83.077 42.9135L83.0662 42.9519L83.0534 42.9894L83.0389 43.0262L83.0226 43.0621L83.0047 43.0969L82.9852 43.1309L82.9642 43.1637L82.9415 43.1954L82.9175 43.226L82.892 43.2553L82.8652 43.2835L82.837 43.3103L82.8076 43.3357L82.777 43.3597L82.7453 43.3823L82.7124 43.4033L82.6784 43.4228L82.6435 43.4407L82.6076 43.4569L82.5708 43.4714L82.5332 43.4842L82.4948 43.4951L82.4556 43.5041L82.4156 43.5112L82.375 43.5163L82.3339 43.5195L82.2922 43.5205V43.5205Z" fill="#333333"/>
<path fill-rule="evenodd" clip-rule="evenodd" d="M25.8677 32.0709H42.5904V37.9972H25.8677V32.0709Z" fill="#8BB7F0"/>
<path d="M42.5906 32.8802H25.8679V31.2616H42.5906L43.401 32.0709L42.5906 32.8802V32.8802ZM42.5906 32.8802V31.2616L42.6323 31.2626L42.6734 31.2658L42.714 31.271L42.7539 31.2781L42.7931 31.2871L42.8316 31.298L42.8692 31.3107L42.906 31.3252L42.9419 31.3414L42.9768 31.3593L43.0108 31.3788L43.0437 31.3998L43.0754 31.4224L43.106 31.4464L43.1354 31.4719L43.1636 31.4986L43.1904 31.5268L43.2159 31.5562L43.2399 31.5867L43.2626 31.6184L43.2836 31.6513L43.3031 31.6852L43.321 31.72L43.3373 31.7559L43.3518 31.7927L43.3646 31.8302L43.3755 31.8686L43.3845 31.9078L43.3916 31.9477L43.3967 31.9882L43.4 32.0293L43.401 32.0709L43.4 32.1125L43.3967 32.1536L43.3916 32.1941L43.3845 32.234L43.3755 32.2732L43.3646 32.3116L43.3518 32.3491L43.3373 32.3859L43.321 32.4218L43.3031 32.4566L43.2836 32.4905L43.2626 32.5233L43.2399 32.5551L43.2159 32.5856L43.1904 32.615L43.1636 32.6431L43.1354 32.6699L43.106 32.6954L43.0754 32.7194L43.0437 32.742L43.0108 32.763L42.9768 32.7825L42.9419 32.8004L42.906 32.8166L42.8692 32.8311L42.8316 32.8438L42.7931 32.8547L42.7539 32.8637L42.714 32.8708L42.6734 32.876L42.6323 32.8792L42.5906 32.8802V32.8802ZM41.7803 37.9972V32.0709H43.401V37.9972L42.5906 38.8065L41.7803 37.9972H41.7803ZM41.7803 37.9972H43.401L43.4 38.0388L43.3968 38.0799L43.3916 38.1204L43.3845 38.1604L43.3755 38.1995L43.3646 38.2379L43.3518 38.2754L43.3373 38.3122L43.321 38.3481L43.3031 38.3829L43.2836 38.4169L43.2626 38.4497L43.2399 38.4814L43.2159 38.512L43.1904 38.5413L43.1636 38.5695L43.1354 38.5963L43.106 38.6217L43.0754 38.6457L43.0437 38.6683L43.0108 38.6893L42.9768 38.7088L42.9419 38.7267L42.906 38.7429L42.8692 38.7574L42.8316 38.7702L42.7932 38.7811L42.7539 38.7901L42.714 38.7972L42.6734 38.8023L42.6323 38.8055L42.5906 38.8065L42.549 38.8055L42.5078 38.8023L42.4673 38.7972L42.4273 38.7901L42.3881 38.7811L42.3497 38.7702L42.3121 38.7574L42.2752 38.7429L42.2393 38.7267L42.2044 38.7088L42.1705 38.6893L42.1376 38.6683L42.1058 38.6457L42.0752 38.6217L42.0458 38.5963L42.0176 38.5695L41.9908 38.5413L41.9653 38.512L41.9413 38.4814L41.9187 38.4497L41.8976 38.4169L41.8781 38.3829L41.8602 38.3481L41.844 38.3122L41.8295 38.2754L41.8167 38.2379L41.8058 38.1995L41.7968 38.1604L41.7897 38.1204L41.7845 38.0799L41.7813 38.0388L41.7803 37.9972ZM25.868 37.1879H42.5907V38.8065H25.868L25.0576 37.9972L25.868 37.1879V37.1879ZM25.868 37.1879V38.8065L25.8263 38.8055L25.7852 38.8023L25.7446 38.7972L25.7046 38.7901L25.6654 38.7811L25.627 38.7702L25.5894 38.7574L25.5526 38.7429L25.5167 38.7267L25.4818 38.7088L25.4478 38.6893L25.4149 38.6683L25.3832 38.6457L25.3526 38.6218L25.3232 38.5963L25.295 38.5695L25.2682 38.5413L25.2427 38.512L25.2187 38.4814L25.196 38.4497L25.175 38.4169L25.1555 38.383L25.1375 38.3481L25.1213 38.3122L25.1068 38.2755L25.094 38.2379L25.0831 38.1995L25.0741 38.1604L25.067 38.1204L25.0618 38.0799L25.0586 38.0388L25.0576 37.9972L25.0586 37.9556L25.0618 37.9146L25.067 37.8741L25.0741 37.8341L25.0831 37.795L25.094 37.7566L25.1068 37.719L25.1213 37.6823L25.1375 37.6464L25.1555 37.6115L25.175 37.5776L25.196 37.5448L25.2187 37.5131L25.2427 37.4825L25.2682 37.4532L25.295 37.4251L25.3232 37.3982L25.3526 37.3727L25.3832 37.3488L25.4149 37.3262L25.4478 37.3052L25.4818 37.2857L25.5167 37.2678L25.5526 37.2516L25.5894 37.2371L25.627 37.2243L25.6654 37.2134L25.7046 37.2044L25.7446 37.1973L25.7852 37.1922L25.8263 37.189L25.868 37.1879V37.1879ZM26.6783 32.0709V37.9972H25.0576V32.0709L25.868 31.2616L26.6783 32.0709H26.6783ZM26.6783 32.0709H25.0576L25.0586 32.0293L25.0618 31.9882L25.067 31.9477L25.0741 31.9078L25.0831 31.8686L25.094 31.8302L25.1068 31.7927L25.1213 31.7559L25.1375 31.72L25.1555 31.6852L25.175 31.6513L25.196 31.6184L25.2187 31.5867L25.2426 31.5562L25.2682 31.5268L25.295 31.4986L25.3232 31.4719L25.3526 31.4464L25.3832 31.4224L25.4149 31.3998L25.4478 31.3788L25.4818 31.3593L25.5167 31.3414L25.5526 31.3252L25.5894 31.3107L25.627 31.298L25.6654 31.2871L25.7046 31.2781L25.7446 31.271L25.7852 31.2658L25.8263 31.2626L25.868 31.2616L25.9096 31.2626L25.9508 31.2658L25.9913 31.271L26.0313 31.2781L26.0705 31.2871L26.1089 31.298L26.1465 31.3107L26.1834 31.3252L26.2193 31.3414L26.2542 31.3593L26.2881 31.3788L26.321 31.3998L26.3528 31.4224L26.3833 31.4464L26.4127 31.4719L26.4409 31.4986L26.4678 31.5268L26.4933 31.5562L26.5173 31.5867L26.5399 31.6184L26.5609 31.6513L26.5805 31.6852L26.5984 31.72L26.6146 31.7559L26.6291 31.7927L26.6419 31.8302L26.6528 31.8686L26.6618 31.9078L26.6689 31.9477L26.6741 31.9882L26.6773 32.0293L26.6783 32.0709H26.6783Z" fill="#333333"/>
<path d="M49.1683 36.6503C50.2854 36.6503 51.1911 35.7458 51.1911 34.6301C51.1911 33.5143 50.2854 32.6099 49.1683 32.6099C48.0511 32.6099 47.1455 33.5143 47.1455 34.6301C47.1455 35.7458 48.0511 36.6503 49.1683 36.6503Z" fill="#FFEEA3"/>
<path d="M56.3123 36.6503C57.4294 36.6503 58.3351 35.7458 58.3351 34.6301C58.3351 33.5143 57.4294 32.6099 56.3123 32.6099C55.1952 32.6099 54.2896 33.5143 54.2896 34.6301C54.2896 35.7458 55.1952 36.6503 56.3123 36.6503Z" fill="#FFEEA3"/>
<path d="M63.5271 36.6503C64.6443 36.6503 65.5499 35.7458 65.5499 34.6301C65.5499 33.5143 64.6443 32.6099 63.5271 32.6099C62.41 32.6099 61.5044 33.5143 61.5044 34.6301C61.5044 35.7458 62.41 36.6503 63.5271 36.6503Z" fill="#FFEEA3"/>
<path d="M70.7088 36.6503C71.826 36.6503 72.7316 35.7458 72.7316 34.6301C72.7316 33.5143 71.826 32.6099 70.7088 32.6099C69.5917 32.6099 68.686 33.5143 68.686 34.6301C68.686 35.7458 69.5917 36.6503 70.7088 36.6503Z" fill="#FFEEA3"/>
<path d="M40.7887 80.7065V78.7431H41.6062C41.8722 78.7431 42.1351 78.711 42.3948 78.6469C42.6544 78.5812 42.9061 78.4786 43.1513 78.3392C43.3933 78.2093 43.6065 78.041 43.794 77.8359C43.9815 77.6291 44.129 77.3887 44.238 77.1098C44.3454 76.8325 44.4015 76.5216 44.4047 76.1738C44.4047 75.3692 44.1418 74.7665 43.6161 74.3642C43.0904 73.9619 42.3018 73.7615 41.2487 73.7615C40.9186 73.7615 40.5659 73.7776 40.1909 73.8096C39.8174 73.8417 39.4199 73.8898 39 73.9539V80.7065H40.7887ZM40.7887 75.2265C40.8929 75.2185 40.9811 75.2137 41.0532 75.2105C41.1269 75.2089 41.1862 75.2073 41.2311 75.2073C41.6318 75.2073 41.9331 75.2874 42.1319 75.4493C42.3322 75.6112 42.4332 75.8532 42.4332 76.1738C42.4332 76.5665 42.3322 76.8598 42.1303 77.0553C41.9283 77.2509 41.6254 77.3486 41.2215 77.3486H40.7887V75.2265ZM47.3235 80.7065V78.6501H48.0559L49.0946 80.7065H51.2968L49.7197 78.2366C49.9713 78.0923 50.1877 77.9192 50.372 77.7157C50.5547 77.5137 50.6974 77.2845 50.7968 77.0297C50.8977 76.7748 50.9474 76.4959 50.949 76.193C50.949 75.8067 50.8849 75.4637 50.7567 75.164C50.6269 74.8643 50.4345 74.6078 50.1797 74.3946C49.6668 73.9731 48.8686 73.7615 47.7835 73.7615C47.4228 73.7615 47.0558 73.7776 46.6823 73.8096C46.3089 73.8417 45.929 73.8898 45.5443 73.9539H45.5347V80.7065H47.3235ZM47.3235 75.2265C47.4276 75.2185 47.5174 75.2137 47.5911 75.2105C47.6665 75.2089 47.7274 75.2073 47.7755 75.2073C48.1681 75.2073 48.4663 75.2906 48.6698 75.4557C48.8734 75.6208 48.976 75.866 48.9776 76.193C48.9776 76.5616 48.875 76.847 48.6698 77.0457C48.4647 77.2461 48.1569 77.347 47.7466 77.3486H47.3235V75.2265ZM54.3727 80.7065V73.9539H52.4477V80.7065H54.3727ZM57.6729 80.7065V77.1755L57.6264 76.4478H57.6632L60.5002 80.7065H62.5326V73.9539H60.8657V77.7061L60.917 78.2735H60.8753L58.0207 73.9539H56.0204V80.7065H57.6729ZM65.299 75.4749V80.7065H67.2209V75.4749H69V73.9539H63.5007V75.4749H65.299Z" fill="#2B2A29"/>
<path fill-rule="evenodd" clip-rule="evenodd" d="M49.9473 54H61.8154C62.9207 54 63.9752 54.0846 64.9846 54.2481C65.4865 54.3383 65.9207 54.4229 66.2873 54.5075C66.6482 54.5921 66.9414 54.6767 67.167 54.7612L67.8436 55.0094L67.5654 57.8169C66.869 57.6945 64.8842 57.683 63.5384 57.613C61.3942 57.5014 58.5729 57.2691 56.6527 57.327C56.765 57.1906 56.8326 57.0161 56.8326 56.8266V56.8264C56.8326 56.4579 56.5768 56.1464 56.2341 56.0602L56.2557 56.0365H56.0426H49.9473C49.3874 56.0365 48.9292 55.5785 48.9292 55.0184V55.0181C48.9292 54.4581 49.3873 54 49.9473 54Z" fill="#5CA7F2"/>
<path fill-rule="evenodd" clip-rule="evenodd" d="M51.3789 61.3097H51.9117C52.4776 61.3097 52.9405 61.7727 52.9405 62.3385C52.9405 62.9043 52.4776 63.3673 51.9117 63.3673H51.3789C50.8131 63.3673 50.3501 62.9043 50.3501 62.3385C50.3501 61.7727 50.8131 61.3097 51.3789 61.3097Z" fill="#FFED00"/>
<path fill-rule="evenodd" clip-rule="evenodd" d="M45.61 67.1091H61.2885C61.7006 67.0843 61.8678 67.0247 62.0423 66.9493C62.4666 66.7659 62.6051 66.4794 62.6051 66.1749C62.5996 65.9663 62.4528 65.7913 62.1766 65.6561C62.1533 65.6448 62.1334 65.6351 62.1086 65.6238C62.2981 65.7165 63.6513 65.5533 65.6028 65.2932C65.6658 65.2849 68.54 64.8322 68.5744 64.1832C68.8518 64.7185 68.9945 65.3595 69 66.1073C69.0036 66.9696 68.8871 67.7494 68.652 68.4425C67.9107 69.5455 60.1166 69.441 55.5005 69.2116C55.4219 69.1696 55.3322 69.1456 55.2373 69.1456H55.1828H49.3317H45.61C45.0499 69.1456 44.5918 68.6876 44.5918 68.1275V68.1272C44.5918 67.5672 45.0499 67.1091 45.61 67.1091Z" fill="#92C02C"/>
<path fill-rule="evenodd" clip-rule="evenodd" d="M42.5939 67.1091H43.136C43.6961 67.1091 44.1543 67.5673 44.1543 68.1273V68.1274C44.1543 68.6874 43.6961 69.1456 43.136 69.1456H42.5939C42.0339 69.1456 41.5757 68.6874 41.5757 68.1274V68.1273C41.5757 67.5673 42.0339 67.1091 42.5939 67.1091Z" fill="#92C02C"/>
<path d="M68.6519 68.4425C68.5197 68.8323 68.3499 69.1952 68.1428 69.5302C67.5676 70.455 66.6766 71.1599 65.4586 71.6449C64.2462 72.1242 62.6841 72.3667 60.7725 72.3667H51.3337C50.7565 72.3667 50.2842 71.8945 50.2842 71.3173V71.317C50.2842 70.7397 50.7565 70.2674 51.3337 70.2674H55.0688H55.2373C55.5459 70.2674 55.7982 70.0151 55.7982 69.7066V69.7065C55.7982 69.4928 55.6773 69.3063 55.5005 69.2116C60.1166 69.441 67.9107 69.5455 68.6519 68.4425Z" fill="#5CA7F2"/>
<path fill-rule="evenodd" clip-rule="evenodd" d="M54.4447 61.3098H55.057H56.5486L56.5746 61.3096L56.6007 61.3094L56.6266 61.3092L56.6525 61.309L56.6784 61.3087L56.6987 61.3086H56.7044L56.7302 61.3084L56.756 61.3082L56.7818 61.3081L56.8077 61.3079L56.8334 61.3078L56.8478 61.3077H56.8591L56.8848 61.3075L56.9104 61.3074L56.9361 61.3073L56.9617 61.3072L56.9873 61.3071L56.996 61.307H57.0128L57.0383 61.3069L57.0638 61.3068L57.0892 61.3066H57.1147L57.1401 61.3065H57.1432H57.1654L57.1908 61.3064H57.2161L57.2414 61.3063H57.2667H57.2895H57.292L57.3172 61.3062H57.3424H57.3676H57.3927H57.4179H57.435H57.443L57.4681 61.3063H57.4931H57.5181L57.5431 61.3064H57.5681H57.5797L57.5931 61.3065H57.618L57.643 61.3066L57.6678 61.3068L57.6927 61.3069H57.7175L57.7236 61.307H57.7424L57.7671 61.3071L57.7919 61.3072L57.8167 61.3074L57.8414 61.3075L57.8661 61.3076H57.8668L57.8908 61.3078L57.9155 61.3079L57.9401 61.308L57.9647 61.3082L57.9894 61.3084L58.0091 61.3085H58.0139L58.0385 61.3087L58.0631 61.309L58.0875 61.3092L58.1121 61.3094L58.1366 61.3096L58.1509 61.3097L58.161 61.3098C58.8566 61.3167 59.5292 61.332 60.1981 61.3577L60.2212 61.3586L60.3571 61.3641L60.3601 61.3642L60.4412 61.3675L60.4929 61.3697L60.5222 61.371L60.6032 61.3747L60.6287 61.3758L60.6842 61.3783L60.7645 61.3821H60.7652L60.8462 61.3861L60.9004 61.3887L60.9272 61.3901L61.0084 61.3943L61.0364 61.3957L61.0895 61.3985L61.1707 61.4028L61.1724 61.4029L61.2519 61.4073L61.3087 61.4105L61.3332 61.4118L61.4145 61.4166L61.4452 61.4183L61.5774 61.4262L61.5817 61.4265L61.6591 61.4313L61.7187 61.4349L61.7408 61.4364L61.8227 61.4416L61.8559 61.4437L61.9046 61.4469L61.9866 61.4525L61.9934 61.4529L62.0688 61.458L62.1314 61.4623L62.1512 61.4637L62.2336 61.4695L62.2697 61.4721L62.3164 61.4754L62.3992 61.4814L62.4085 61.4822L62.4821 61.4876L62.5477 61.4926L62.5652 61.4939L62.6486 61.5002L62.6875 61.5033L62.7322 61.5067L62.8158 61.5134L62.8278 61.5144L62.8998 61.5202L62.9688 61.5257L62.9839 61.527L63.0683 61.534L63.1103 61.5375L63.1529 61.5412L63.2377 61.5484L63.2524 61.5497L63.3229 61.5558L63.3953 61.5621L63.4082 61.5632L63.4938 61.5709L63.539 61.5749L63.5796 61.5785L63.6658 61.5864L63.6833 61.588L63.7522 61.5944L63.8285 61.6015L63.839 61.6025L63.926 61.6108L63.9745 61.6154L64.0134 61.6191L64.101 61.6276L64.1215 61.6295L64.189 61.6362L64.2693 61.6441L64.2773 61.645L64.3659 61.6538L64.4181 61.6592L64.4549 61.6628L64.5442 61.672L64.5678 61.6744L64.6339 61.6813L64.7186 61.6901L64.724 61.6906L64.8144 61.7002L64.8704 61.7062L64.9052 61.7099L64.9965 61.7196L65.0232 61.7226L65.0881 61.7296L65.1773 61.7394L65.1801 61.7397L65.2726 61.7499L65.3325 61.7566L65.3654 61.7602L65.4587 61.7706L65.4889 61.7741L65.5524 61.7813L65.6466 61.7921C65.7225 61.8234 65.8001 61.8564 65.8757 61.8893C66.4397 62.1318 66.9585 62.4306 67.4265 62.7972C67.8891 63.1551 68.3113 63.6602 68.5743 64.1833C68.5399 64.8323 65.6657 65.285 65.6027 65.2933C63.6512 65.5534 62.298 65.7166 62.1085 65.6239C61.8407 65.5006 61.4901 65.3818 61.0712 65.2784C60.6088 65.16 60.1069 65.0247 59.5543 64.8723C59.0073 64.7201 58.4546 64.5228 57.9077 64.2803C57.3634 64.047 56.8685 63.7427 56.4173 63.3673H54.4447C53.8789 63.3673 53.416 62.9046 53.416 62.3388V62.3384C53.416 61.7726 53.8789 61.3098 54.4447 61.3098Z" fill="#FFED00"/>
<path fill-rule="evenodd" clip-rule="evenodd" d="M40.0496 57.6167H48.5489H55.2533H56.0428C56.2878 57.6167 56.5078 57.5037 56.6529 57.3271C58.5731 57.2693 61.3944 57.5016 63.5386 57.6131C64.8843 57.6831 66.8692 57.6946 67.5657 57.8159L67.3645 59.8479C66.4284 59.6054 65.5938 59.4306 64.8495 59.3121C64.1051 59.1937 63.4566 59.1373 62.904 59.1373C62.4416 59.1373 62.0807 59.1599 61.81 59.205C61.5449 59.2502 61.3532 59.3235 61.2348 59.425C61.1219 59.5265 61.0656 59.6561 61.0712 59.814C61.0769 60.0396 61.2235 60.2314 61.5111 60.3836C61.7931 60.5415 62.1709 60.6881 62.6389 60.8234C63.1126 60.9644 63.6258 61.1111 64.1896 61.2802C64.6765 61.4214 65.1633 61.5922 65.6465 61.7921C62.2701 61.405 59.7617 61.2829 56.5485 61.3098H55.1157C55.554 61.3098 55.9124 60.9513 55.9124 60.513C55.9124 60.0748 55.554 59.7162 55.1157 59.7162H54.8576H47.4795H40.0496C39.4723 59.7162 39 59.2439 39 58.6666V58.6663C39 58.089 39.4723 57.6167 40.0496 57.6167Z" fill="#E61A77"/>
</svg>
