<svg width="125" height="86" viewBox="0 0 125 86" fill="none" xmlns="http://www.w3.org/2000/svg">
<path fill-rule="evenodd" clip-rule="evenodd" d="M77.9945 31.1386C75.9743 22.8606 76.2264 12.8215 78.7516 1.02127H19.9893C17.4641 12.8215 17.212 22.8606 19.2323 31.1386H77.9945Z" fill="#88A6E3"/>
<path d="M78.7512 2.04236V0.000167536L79.7497 1.23493L79.5217 2.3263L79.3069 3.40718L79.1053 4.47747L78.9171 5.53718L78.7421 6.58623L78.5803 7.62479L78.4318 8.65277L78.2965 9.67L78.1743 10.6768L78.0654 11.6729L77.9697 12.6584L77.8873 13.6332L77.8179 14.5975L77.7619 15.5512L77.7188 16.4941L77.6889 17.4264L77.6722 18.3481L77.6686 19.2592L77.6781 20.1595L77.7006 21.0493L77.7362 21.9284L77.7849 22.7968L77.8466 23.6546L77.9215 24.5018L78.0092 25.3384L78.1099 26.1642L78.2236 26.9794L78.3503 27.7841L78.4899 28.5781L78.6424 29.3615L78.8078 30.1342L78.9861 30.8965L77.0022 31.3807L76.815 30.5805L76.6415 29.7702L76.4818 28.95L76.3358 28.1195L76.2036 27.2791L76.0849 26.4288L75.9799 25.5684L75.8887 24.6979L75.811 23.8176L75.7469 22.9273L75.6964 22.0268L75.6595 21.1165L75.6362 20.1961L75.6264 19.2658L75.6302 18.3255L75.6474 17.3751L75.6781 16.4148L75.7223 15.4445L75.7801 14.4642L75.8513 13.4739L75.9359 12.4735L76.034 11.4632L76.1456 10.4428L76.2706 9.41243L76.4089 8.37202L76.5607 7.32154L76.7259 6.26099L76.9045 5.19044L77.0966 4.10991L77.3018 3.01913L77.5206 1.91844L77.7527 0.807597L78.7512 2.04236V2.04236ZM79.7497 1.23493L77.7527 0.80759L77.765 0.756459L77.7797 0.706589L77.7967 0.657977L77.816 0.610709L77.8375 0.564784L77.8611 0.520286L77.8868 0.477216L77.9143 0.435741L77.9438 0.395777L77.975 0.357492L78.008 0.320803L78.0427 0.285792L78.0789 0.252629L78.1167 0.221229L78.1558 0.19176L78.1962 0.164137L78.238 0.13853L78.281 0.114854L78.325 0.0932771L78.3701 0.0738828L78.4162 0.0565036L78.4632 0.0414752L78.5109 0.0286296L78.5595 0.0180509L78.6086 0.00990701L78.6584 0.00411393L78.7086 0.000839578L78.7593 0L78.8104 0.00176311L78.8617 0.00604496L78.9132 0.0130974L78.9649 0.0227526L79.016 0.0350104L79.0659 0.049787L79.1145 0.0667464L79.1618 0.0860567L79.2077 0.10755L79.2522 0.131142L79.2953 0.156833L79.3367 0.184371L79.3767 0.21384L79.415 0.245073L79.4517 0.278068L79.4867 0.312743L79.5198 0.348928L79.5512 0.386709L79.5807 0.425834L79.6083 0.466301L79.6339 0.508028L79.6576 0.551015L79.6792 0.595093L79.6986 0.640178L79.716 0.686271L79.731 0.733203L79.7438 0.780975L79.7544 0.829503L79.7626 0.878618L79.7684 0.928405L79.7716 0.978696L79.7725 1.02941L79.7707 1.08045L79.7664 1.13175L79.7594 1.1833L79.7497 1.23493V1.23493ZM19.9891 0.000167536H78.7513V2.04236H19.9891L18.9906 0.807591L19.9891 0.000167536ZM19.9891 0.000167536V2.04236L19.9365 2.04102L19.8847 2.03707L19.8336 2.0306L19.7833 2.02162L19.7339 2.0102L19.6855 1.99643L19.6381 1.9804L19.5916 1.96209L19.5465 1.94169L19.5024 1.91911L19.4596 1.89451L19.4182 1.86798L19.3782 1.83952L19.3396 1.80921L19.3026 1.77705L19.2671 1.74322L19.2333 1.70779L19.2011 1.67076L19.1708 1.63214L19.1424 1.59209L19.1158 1.5507L19.0912 1.50797L19.0687 1.46389L19.0483 1.41872L19.03 1.37229L19.0139 1.32486L19.0001 1.27641L18.9887 1.22704L18.9797 1.17675L18.9733 1.12562L18.9693 1.07382L18.968 1.02126L18.9693 0.968707L18.9733 0.916905L18.9797 0.865775L18.9887 0.815484L19.0001 0.766117L19.0139 0.717674L19.03 0.670237L19.0483 0.623809L19.0687 0.57864L19.0912 0.534562L19.1158 0.491827L19.1424 0.450352L19.1708 0.410388L19.2011 0.371768L19.2333 0.334742L19.2671 0.299228L19.3026 0.265477L19.3396 0.233321L19.3782 0.203013L19.4182 0.174551L19.4596 0.14802L19.5024 0.123421L19.5465 0.100836L19.5916 0.0804342L19.6381 0.0621314L19.6855 0.0460955L19.7339 0.0323264L19.7833 0.0209081L19.8336 0.0119247L19.8847 0.00545992L19.9365 0.0015139L19.9891 0.000170576V0.000167536ZM19.232 30.1175V32.1597L18.2401 31.3807L18.0528 30.5805L17.8794 29.7702L17.7197 28.95L17.5737 28.1195L17.4415 27.2791L17.3228 26.4288L17.2178 25.5684L17.1265 24.6979L17.0489 23.8176L16.9848 22.9273L16.9343 22.0268L16.8973 21.1165L16.8741 20.1961L16.8643 19.2658L16.868 18.3255L16.8852 17.3751L16.916 16.4148L16.9602 15.4445L17.018 14.4642L17.0892 13.4739L17.1738 12.4735L17.2719 11.4632L17.3835 10.4428L17.5084 9.41242L17.6467 8.37202L17.7986 7.32154L17.9638 6.26098L18.1423 5.19044L18.3344 4.1099L18.5397 3.01912L18.7585 1.91843L18.9906 0.807591L20.9876 1.23494L20.7596 2.32631L20.5448 3.40718L20.3432 4.47747L20.155 5.53718L19.9799 6.58624L19.8181 7.62479L19.6696 8.65277L19.5343 9.67L19.4122 10.6767L19.3033 11.6729L19.2076 12.6584L19.1252 13.6332L19.0558 14.5975L18.9997 15.5512L18.9567 16.4941L18.9268 17.4264L18.9101 18.3481L18.9064 19.2592L18.9159 20.1595L18.9385 21.0493L18.9741 21.9284L19.0228 22.7968L19.0845 23.6546L19.1593 24.5018L19.2471 25.3384L19.3478 26.1642L19.4615 26.9794L19.5882 27.7841L19.7278 28.5781L19.8803 29.3615L20.0457 30.1342L20.224 30.8965L19.232 30.1175L19.232 30.1175ZM18.2401 31.3807L20.224 30.8965L20.2352 30.9478L20.2436 30.9991L20.2494 31.0503L20.2526 31.1013L20.2533 31.152L20.2514 31.2023L20.247 31.2522L20.2403 31.3016L20.2311 31.3504L20.2196 31.3985L20.2059 31.4459L20.1899 31.4925L20.1718 31.5381L20.1515 31.5827L20.129 31.6264L20.1046 31.6688L20.0782 31.7101L20.0499 31.75L20.0196 31.7887L19.9874 31.8258L19.9535 31.8614L19.9177 31.8955L19.8804 31.9278L19.8412 31.9583L19.8005 31.9871L19.7583 32.0139L19.7145 32.0389L19.6691 32.0616L19.6224 32.0823L19.5743 32.1007L19.5249 32.1168L19.4742 32.1305L19.4228 32.1417L19.3715 32.1502L19.3203 32.156L19.2693 32.1592L19.2186 32.1598L19.1683 32.1579L19.1184 32.1535L19.069 32.1468L19.0202 32.1377L18.9721 32.1262L18.9248 32.1125L18.8782 32.0965L18.8326 32.0783L18.7879 32.058L18.7442 32.0356L18.7018 32.0112L18.6605 31.9848L18.6206 31.9564L18.582 31.9261L18.5448 31.894L18.5092 31.86L18.4752 31.8243L18.4428 31.7869L18.4123 31.7478L18.3835 31.7071L18.3567 31.6648L18.3318 31.621L18.309 31.5757L18.2883 31.529L18.27 31.4809L18.2538 31.4314L18.2401 31.3807ZM77.994 32.1597H19.2318V30.1175H77.994L78.986 30.8965L77.994 32.1597ZM77.994 32.1597V30.1175L78.0466 30.1188L78.0984 30.1228L78.1495 30.1292L78.1998 30.1382L78.2492 30.1496L78.2976 30.1634L78.3451 30.1795L78.3915 30.1978L78.4367 30.2182L78.4807 30.2407L78.5235 30.2653L78.5649 30.2919L78.6049 30.3203L78.6435 30.3506L78.6805 30.3828L78.7161 30.4165L78.7498 30.4521L78.782 30.4891L78.8123 30.5277L78.8407 30.5677L78.8673 30.6091L78.8919 30.6519L78.9145 30.696L78.9349 30.7411L78.9532 30.7876L78.9692 30.835L78.983 30.8834L78.9944 30.9328L79.0034 30.9831L79.0098 31.0342L79.0138 31.086L79.0151 31.1386L79.0138 31.1911L79.0098 31.2429L79.0034 31.2941L78.9944 31.3444L78.983 31.3937L78.9692 31.4422L78.9532 31.4896L78.9349 31.536L78.9145 31.5812L78.8919 31.6253L78.8673 31.668L78.8407 31.7094L78.8123 31.7495L78.782 31.7881L78.7498 31.8251L78.7161 31.8605L78.6805 31.8944L78.6435 31.9265L78.6049 31.9568L78.5649 31.9853L78.5235 32.0118L78.4807 32.0364L78.4367 32.059L78.3915 32.0794L78.3451 32.0977L78.2976 32.1138L78.2492 32.1275L78.1998 32.1389L78.1495 32.1479L78.0984 32.1544L78.0466 32.1583L77.994 32.1597Z" fill="#333333"/>
<path d="M32.525 8.66504V10.7072L32.4724 10.7059L32.4206 10.7019L32.3695 10.6955L32.3192 10.6865L32.2699 10.6751L32.2214 10.6613L32.174 10.6453L32.1275 10.627L32.0824 10.6066L32.0383 10.584L31.9956 10.5594L31.9541 10.5328L31.9141 10.5044L31.8755 10.4741L31.8385 10.4419L31.803 10.4081L31.7692 10.3727L31.7371 10.3356L31.7067 10.297L31.6783 10.257L31.6518 10.2156L31.6272 10.1728L31.6046 10.1288L31.5842 10.0836L31.5659 10.0372L31.5498 9.98973L31.5361 9.94128L31.5246 9.89192L31.5157 9.84163L31.5092 9.7905L31.5053 9.73869L31.5039 9.68614L31.5053 9.63358L31.5092 9.58178L31.5157 9.53065L31.5246 9.48036L31.5361 9.43099L31.5498 9.38254L31.5659 9.33511L31.5842 9.28868L31.6046 9.24351L31.6272 9.19943L31.6518 9.1567L31.6783 9.11522L31.7067 9.07526L31.7371 9.03664L31.7692 8.99961L31.803 8.9641L31.8385 8.93035L31.8755 8.89819L31.9141 8.86788L31.9541 8.83942L31.9956 8.81289L32.0383 8.78829L32.0824 8.76571L32.1275 8.7453L32.174 8.727L32.2214 8.71097L32.2699 8.6972L32.3192 8.68578L32.3695 8.6768L32.4206 8.67033L32.4724 8.66639L32.525 8.66504V8.66504ZM61.4643 10.7072H32.525V8.66504H61.4643V10.7072ZM61.4643 10.7072V8.66504L61.5169 8.66638L61.5687 8.67033L61.6198 8.67679L61.6701 8.68578L61.7195 8.69719L61.7679 8.71096L61.8153 8.727L61.8618 8.7453L61.9069 8.7657L61.951 8.78829L61.9937 8.81289L62.0352 8.83942L62.0752 8.86788L62.1138 8.89819L62.1508 8.93035L62.1863 8.9641L62.2201 8.99961L62.2522 9.03664L62.2826 9.07526L62.311 9.11522L62.3375 9.1567L62.3621 9.19943L62.3847 9.24351L62.4051 9.28868L62.4234 9.33511L62.4395 9.38254L62.4532 9.43099L62.4647 9.48035L62.4736 9.53064L62.4801 9.58177L62.4841 9.63357L62.4854 9.68613L62.4841 9.73869L62.4801 9.79049L62.4736 9.84162L62.4647 9.89191L62.4532 9.94128L62.4395 9.98972L62.4234 10.0372L62.4051 10.0836L62.3847 10.1288L62.3621 10.1728L62.3375 10.2156L62.311 10.257L62.2826 10.297L62.2522 10.3356L62.2201 10.3727L62.1863 10.4081L62.1508 10.4419L62.1138 10.4741L62.0752 10.5044L62.0352 10.5328L61.9937 10.5594L61.951 10.584L61.9069 10.6066L61.8618 10.627L61.8153 10.6453L61.7679 10.6613L61.7195 10.6751L61.6701 10.6865L61.6198 10.6955L61.5687 10.7019L61.5169 10.7059L61.4643 10.7072V10.7072Z" fill="#4E7AB5"/>
<path d="M32.525 15.9001V17.9423L32.4724 17.941L32.4206 17.937L32.3695 17.9306L32.3192 17.9216L32.2699 17.9102L32.2214 17.8964L32.174 17.8803L32.1275 17.862L32.0824 17.8416L32.0383 17.8191L31.9956 17.7945L31.9541 17.7679L31.9141 17.7395L31.8755 17.7092L31.8385 17.677L31.803 17.6432L31.7692 17.6077L31.7371 17.5707L31.7067 17.5321L31.6783 17.492L31.6518 17.4507L31.6272 17.4079L31.6046 17.3638L31.5842 17.3187L31.5659 17.2722L31.5498 17.2248L31.5361 17.1764L31.5246 17.127L31.5157 17.0767L31.5092 17.0256L31.5053 16.9738L31.5039 16.9212L31.5053 16.8687L31.5092 16.8169L31.5157 16.7657L31.5246 16.7154L31.5361 16.6661L31.5498 16.6176L31.5659 16.5702L31.5842 16.5238L31.6046 16.4786L31.6272 16.4345L31.6518 16.3918L31.6783 16.3503L31.7067 16.3103L31.7371 16.2717L31.7692 16.2347L31.803 16.1992L31.8385 16.1654L31.8755 16.1333L31.9141 16.103L31.9541 16.0745L31.9956 16.048L32.0383 16.0234L32.0824 16.0008L32.1275 15.9804L32.174 15.9621L32.2214 15.946L32.2699 15.9323L32.3192 15.9209L32.3695 15.9119L32.4206 15.9054L32.4724 15.9015L32.525 15.9001V15.9001ZM61.4643 17.9423H32.525V15.9001H61.4643V17.9423ZM61.4643 17.9423V15.9001L61.5169 15.9015L61.5687 15.9054L61.6198 15.9119L61.6701 15.9209L61.7195 15.9323L61.7679 15.946L61.8153 15.9621L61.8618 15.9804L61.9069 16.0008L61.951 16.0234L61.9937 16.048L62.0352 16.0745L62.0752 16.103L62.1138 16.1333L62.1508 16.1654L62.1863 16.1992L62.2201 16.2347L62.2522 16.2717L62.2826 16.3103L62.311 16.3503L62.3375 16.3918L62.3621 16.4345L62.3847 16.4786L62.4051 16.5238L62.4234 16.5702L62.4395 16.6176L62.4532 16.6661L62.4647 16.7154L62.4736 16.7657L62.4801 16.8169L62.4841 16.8687L62.4854 16.9212L62.4841 16.9738L62.4801 17.0256L62.4736 17.0767L62.4647 17.127L62.4532 17.1764L62.4395 17.2248L62.4234 17.2722L62.4051 17.3187L62.3847 17.3638L62.3621 17.4079L62.3375 17.4506L62.311 17.492L62.2826 17.5321L62.2522 17.5707L62.2201 17.6077L62.1863 17.6432L62.1508 17.677L62.1138 17.7092L62.0752 17.7395L62.0352 17.7679L61.9937 17.7945L61.951 17.8191L61.9069 17.8416L61.8618 17.862L61.8153 17.8803L61.7679 17.8964L61.7195 17.9101L61.6701 17.9216L61.6198 17.9306L61.5687 17.937L61.5169 17.941L61.4643 17.9423V17.9423Z" fill="#4E7AB5"/>
<path d="M32.525 23.1351V25.1773L32.4724 25.176L32.4206 25.172L32.3695 25.1656L32.3192 25.1566L32.2699 25.1452L32.2214 25.1314L32.174 25.1154L32.1275 25.0971L32.0824 25.0767L32.0383 25.0541L31.9956 25.0295L31.9541 25.0029L31.9141 24.9745L31.8755 24.9442L31.8385 24.912L31.803 24.8782L31.7692 24.8428L31.7371 24.8057L31.7067 24.7671L31.6783 24.7271L31.6518 24.6857L31.6272 24.6429L31.6046 24.5989L31.5842 24.5537L31.5659 24.5073L31.5498 24.4598L31.5361 24.4114L31.5246 24.362L31.5157 24.3117L31.5092 24.2606L31.5053 24.2088L31.5039 24.1562L31.5053 24.1037L31.5092 24.0519L31.5157 24.0007L31.5246 23.9504L31.5361 23.9011L31.5498 23.8526L31.5659 23.8052L31.5842 23.7588L31.6046 23.7136L31.6272 23.6695L31.6518 23.6268L31.6783 23.5853L31.7067 23.5454L31.7371 23.5067L31.7692 23.4697L31.803 23.4342L31.8385 23.4004L31.8755 23.3683L31.9141 23.338L31.9541 23.3095L31.9956 23.283L32.0383 23.2584L32.0824 23.2358L32.1275 23.2154L32.174 23.1971L32.2214 23.1811L32.2699 23.1673L32.3192 23.1559L32.3695 23.1469L32.4206 23.1404L32.4724 23.1365L32.525 23.1351V23.1351ZM61.4643 25.1773H32.525V23.1351H61.4643V25.1773ZM61.4643 25.1773V23.1351L61.5169 23.1365L61.5687 23.1404L61.6198 23.1469L61.6701 23.1559L61.7195 23.1673L61.7679 23.1811L61.8153 23.1971L61.8618 23.2154L61.9069 23.2358L61.951 23.2584L61.9937 23.283L62.0352 23.3095L62.0752 23.338L62.1138 23.3683L62.1508 23.4004L62.1863 23.4342L62.2201 23.4697L62.2522 23.5067L62.2826 23.5453L62.311 23.5853L62.3375 23.6268L62.3621 23.6695L62.3847 23.7136L62.4051 23.7588L62.4234 23.8052L62.4395 23.8526L62.4532 23.9011L62.4647 23.9504L62.4736 24.0007L62.4801 24.0519L62.4841 24.1037L62.4854 24.1562L62.4841 24.2088L62.4801 24.2606L62.4736 24.3117L62.4647 24.362L62.4532 24.4114L62.4395 24.4598L62.4234 24.5073L62.4051 24.5537L62.3847 24.5989L62.3621 24.6429L62.3375 24.6857L62.311 24.7271L62.2826 24.7671L62.2522 24.8057L62.2201 24.8427L62.1863 24.8782L62.1508 24.912L62.1138 24.9442L62.0752 24.9745L62.0352 25.0029L61.9937 25.0295L61.951 25.0541L61.9069 25.0767L61.8618 25.0971L61.8153 25.1154L61.7679 25.1314L61.7195 25.1452L61.6701 25.1566L61.6198 25.1656L61.5687 25.172L61.5169 25.176L61.4643 25.1773V25.1773Z" fill="#4E7AB5"/>
<path fill-rule="evenodd" clip-rule="evenodd" d="M29.2871 44.7667H109.375C101.867 35.0885 92.4451 30.5458 81.1091 31.1386H1.021C12.357 30.5459 21.7789 35.0885 29.2871 44.7667Z" fill="#B0C1D4"/>
<path d="M109.375 45.7878H29.2871V43.7456H109.375L110.182 44.1408L109.375 45.7878ZM109.375 45.7878V43.7456L109.428 43.7469L109.48 43.7509L109.531 43.7573L109.581 43.7663L109.63 43.7777L109.679 43.7915L109.726 43.8075L109.773 43.8259L109.818 43.8463L109.862 43.8688L109.905 43.8934L109.946 43.92L109.986 43.9484L110.025 43.9787L110.062 44.0109L110.097 44.0446L110.131 44.0802L110.163 44.1172L110.193 44.1558L110.222 44.1959L110.248 44.2372L110.273 44.28L110.296 44.3241L110.316 44.3692L110.334 44.4157L110.35 44.4631L110.364 44.5115L110.376 44.5609L110.385 44.6112L110.391 44.6623L110.395 44.7141L110.396 44.7667L110.395 44.8192L110.391 44.871L110.385 44.9222L110.376 44.9725L110.364 45.0218L110.35 45.0703L110.334 45.1177L110.316 45.1641L110.296 45.2093L110.273 45.2534L110.248 45.2961L110.222 45.3376L110.193 45.3776L110.163 45.4162L110.131 45.4532L110.097 45.4887L110.062 45.5225L110.025 45.5546L109.986 45.5849L109.946 45.6134L109.905 45.6399L109.862 45.6645L109.818 45.6871L109.773 45.7075L109.726 45.7258L109.679 45.7418L109.63 45.7556L109.581 45.767L109.531 45.776L109.48 45.7825L109.428 45.7864L109.375 45.7878V45.7878ZM81.1091 32.1597V30.1175L81.0558 30.1188L82.1414 30.0772L83.2167 30.0665L84.2813 30.0868L85.3353 30.138L86.3785 30.2203L87.4109 30.3337L88.4325 30.4782L89.443 30.6538L90.4426 30.8606L91.431 31.0987L92.4081 31.3679L93.3739 31.6684L94.3281 31.9999L95.2709 32.3626L96.2018 32.7564L97.121 33.1813L98.0284 33.6371L98.9238 34.1238L99.8072 34.6413L100.678 35.1897L101.538 35.7687L102.385 36.3783L103.219 37.0185L104.042 37.6891L104.852 38.39L105.65 39.1212L106.436 39.8827L107.21 40.6743L107.971 41.4959L108.72 42.3476L109.457 43.2292L110.182 44.1408L108.568 45.3926L107.874 44.5196L107.17 43.6768L106.455 42.8643L105.73 42.0819L104.995 41.3296L104.25 40.6074L103.494 39.9152L102.728 39.2529L101.953 38.6202L101.167 38.0175L100.37 37.4443L99.5637 36.9008L98.747 36.3868L97.9198 35.9022L97.0822 35.4469L96.2341 35.0208L95.3755 34.624L94.5062 34.2564L93.6262 33.9177L92.7353 33.6081L91.8335 33.3276L90.9207 33.0761L89.9966 32.8536L89.0613 32.6601L88.1146 32.4955L87.1565 32.3599L86.1869 32.2536L85.2055 32.1761L84.2124 32.1278L83.2076 32.1087L82.191 32.1189L81.1624 32.1583L81.1091 32.1597L81.1091 32.1597ZM81.0558 30.1188L81.1624 32.1583L81.1099 32.1598L81.0579 32.1585L81.0065 32.1547L80.9558 32.1483L80.9059 32.1395L80.8568 32.1284L80.8085 32.1148L80.7613 32.0989L80.715 32.0808L80.6699 32.0606L80.6259 32.0384L80.5831 32.0139L80.5417 31.9876L80.5016 31.9594L80.4629 31.9292L80.4257 31.8973L80.3901 31.8636L80.3561 31.8284L80.3238 31.7914L80.2933 31.7529L80.2646 31.7129L80.2378 31.6715L80.213 31.6287L80.1902 31.5847L80.1695 31.5393L80.1511 31.4927L80.1348 31.445L80.1208 31.3963L80.1092 31.3465L80.1001 31.2959L80.0934 31.2443L80.0893 31.1919L80.0879 31.1393L80.0892 31.0874L80.093 31.036L80.0993 30.9853L80.1082 30.9354L80.1193 30.8863L80.1329 30.838L80.1488 30.7907L80.1668 30.7445L80.1871 30.6994L80.2093 30.6554L80.2338 30.6126L80.26 30.5712L80.2883 30.5311L80.3185 30.4924L80.3504 30.4552L80.384 30.4196L80.4193 30.3856L80.4562 30.3533L80.4948 30.3228L80.5347 30.2941L80.5761 30.2673L80.6189 30.2425L80.663 30.2197L80.7084 30.199L80.755 30.1805L80.8027 30.1643L80.8513 30.1503L80.9011 30.1386L80.9518 30.1296L81.0034 30.1229L81.0558 30.1188V30.1188ZM1.02109 30.1175H81.1092V32.1597H1.02109L0.967781 30.1188L1.02109 30.1175V30.1175ZM1.02109 30.1175V32.1597L0.968537 32.1583L0.916735 32.1544L0.865605 32.1479L0.815314 32.1389L0.765947 32.1275L0.717503 32.1138L0.670067 32.0977L0.623638 32.0794L0.578469 32.059L0.534391 32.0364L0.491657 32.0118L0.450182 31.9853L0.410218 31.9568L0.371597 31.9265L0.334572 31.8944L0.299058 31.8605L0.265307 31.8251L0.233151 31.7881L0.202842 31.7495L0.17438 31.7094L0.14785 31.668L0.12325 31.6253L0.100665 31.5812L0.0802637 31.536L0.0619609 31.4896L0.0459249 31.4422L0.0321558 31.3937L0.0207376 31.3444L0.0117541 31.2941L0.00528934 31.2429L0.00134333 31.1911L0 31.1386L0.00134333 31.086L0.00528934 31.0342L0.0117541 30.9831L0.0207376 30.9328L0.0321558 30.8834L0.0459249 30.835L0.0619609 30.7876L0.0802637 30.7411L0.100665 30.696L0.12325 30.6519L0.14785 30.6092L0.17438 30.5677L0.202842 30.5277L0.233151 30.4891L0.265307 30.4521L0.299058 30.4166L0.334572 30.3828L0.371597 30.3506L0.410218 30.3203L0.450182 30.2919L0.491657 30.2653L0.534391 30.2407L0.578469 30.2182L0.623638 30.1978L0.670067 30.1795L0.717503 30.1634L0.765947 30.1497L0.815314 30.1382L0.865605 30.1292L0.916735 30.1228L0.968537 30.1188L1.02109 30.1175V30.1175ZM29.2872 43.7456V45.7878L28.4803 45.3926L27.7862 44.5196L27.0818 43.6768L26.367 42.8643L25.6421 42.0819L24.9069 41.3296L24.1616 40.6074L23.4062 39.9152L22.6404 39.2528L21.8645 38.6202L21.0785 38.0175L20.2823 37.4443L19.4757 36.9008L18.659 36.3868L17.8318 35.9022L16.9942 35.4469L16.1461 35.0208L15.2875 34.624L14.4182 34.2564L13.5382 33.9177L12.6473 33.6081L11.7455 33.3276L10.8327 33.0761L9.90863 32.8536L8.97333 32.6601L8.02663 32.4955L7.0685 32.3599L6.09887 32.2535L5.11749 32.1761L4.12444 32.1278L3.11963 32.1087L2.10298 32.1189L1.07442 32.1583L0.967792 30.1188L2.05345 30.0772L3.1287 30.0665L4.19329 30.0868L5.24729 30.138L6.29047 30.2203L7.3229 30.3337L8.34449 30.4782L9.35501 30.6538L10.3546 30.8606L11.343 31.0987L12.3201 31.3679L13.2859 31.6684L14.2401 31.9999L15.1829 32.3626L16.1138 32.7565L17.033 33.1813L17.9404 33.6371L18.8358 34.1238L19.7192 34.6413L20.5905 35.1897L21.4496 35.7687L22.2966 36.3783L23.1315 37.0185L23.954 37.6891L24.7643 38.39L25.5624 39.1212L26.3481 39.8827L27.1216 40.6743L27.883 41.496L28.6321 42.3476L29.3691 43.2292L30.094 44.1408L29.2872 43.7456L29.2872 43.7456ZM28.4803 45.3926L30.094 44.1408L30.1251 44.1831L30.1539 44.2265L30.1801 44.2708L30.2037 44.3161L30.225 44.3621L30.2439 44.4089L30.2602 44.4561L30.2742 44.504L30.2858 44.5523L30.2949 44.6009L30.3017 44.6497L30.3062 44.6988L30.3082 44.7479L30.3078 44.7969L30.3052 44.8459L30.3002 44.8946L30.293 44.9431L30.2833 44.9911L30.2714 45.0387L30.2573 45.0858L30.2408 45.1322L30.2221 45.1778L30.2011 45.2226L30.178 45.2665L30.1525 45.3094L30.1248 45.3511L30.095 45.3917L30.0629 45.431L30.0287 45.4689L29.9923 45.5053L29.9538 45.5403L29.9131 45.5735L29.8708 45.6047L29.8273 45.6334L29.783 45.6596L29.7378 45.6833L29.6918 45.7045L29.645 45.7234L29.5977 45.7398L29.5499 45.7537L29.5016 45.7653L29.453 45.7744L29.4041 45.7812L29.3551 45.7857L29.306 45.7877L29.2569 45.7874L29.208 45.7848L29.1592 45.7798L29.1108 45.7725L29.0627 45.7628L29.0151 45.7509L28.968 45.7368L28.9217 45.7204L28.876 45.7016L28.8313 45.6806L28.7874 45.6575L28.7445 45.632L28.7027 45.6043L28.6622 45.5745L28.6229 45.5425L28.5849 45.5082L28.5485 45.4718L28.5136 45.4333L28.4803 45.3926L28.4803 45.3926Z" fill="#333333"/>
<path fill-rule="evenodd" clip-rule="evenodd" d="M72.0817 36.3857C73.1663 36.3857 74.0457 37.2653 74.0457 38.3497C74.0457 39.4343 73.1663 40.3138 72.0817 40.3138C70.9971 40.3138 70.1177 39.4343 70.1177 38.3497C70.1177 37.2653 70.9971 36.3857 72.0817 36.3857Z" fill="#FFEEA3"/>
<path fill-rule="evenodd" clip-rule="evenodd" d="M81.0407 36.3857C82.1253 36.3857 83.0047 37.2653 83.0047 38.3497C83.0047 39.4343 82.1253 40.3138 81.0407 40.3138C79.9561 40.3138 79.0767 39.4343 79.0767 38.3497C79.0767 37.2653 79.9561 36.3857 81.0407 36.3857Z" fill="#FFEEA3"/>
<path fill-rule="evenodd" clip-rule="evenodd" d="M90.0006 36.3857C91.0851 36.3857 91.9646 37.2653 91.9646 38.3497C91.9646 39.4343 91.0851 40.3138 90.0006 40.3138C88.9161 40.3138 88.0366 39.4343 88.0366 38.3497C88.0366 37.2653 88.9161 36.3857 90.0006 36.3857Z" fill="#FFEEA3"/>
<path fill-rule="evenodd" clip-rule="evenodd" d="M29.2871 64.6205V44.7668C21.7789 35.0885 12.357 30.5459 1.021 31.1387V54.9464L29.2871 64.6205Z" fill="#66798F"/>
<path d="M30.3083 44.7667V64.6204H28.2662V44.7667L30.0941 44.1408L30.3083 44.7667H30.3083ZM30.3083 44.7667H28.2662L28.2675 44.7141L28.2714 44.6623L28.2779 44.6112L28.2869 44.5609L28.2983 44.5115L28.3121 44.4631L28.3281 44.4157L28.3464 44.3692L28.3668 44.3241L28.3894 44.28L28.414 44.2372L28.4405 44.1959L28.469 44.1558L28.4993 44.1172L28.5315 44.0802L28.5652 44.0446L28.6007 44.0109L28.6377 43.9787L28.6764 43.9484L28.7163 43.92L28.7578 43.8934L28.8005 43.8688L28.8446 43.8463L28.8898 43.8259L28.9362 43.8075L28.9837 43.7915L29.0321 43.7777L29.0815 43.7663L29.1318 43.7573L29.1829 43.7509L29.2347 43.7469L29.2872 43.7456L29.3398 43.7469L29.3916 43.7509L29.4427 43.7573L29.493 43.7663L29.5424 43.7777L29.5908 43.7915L29.6383 43.8075L29.6847 43.8259L29.7299 43.8463L29.7739 43.8688L29.8167 43.8934L29.8581 43.92L29.8981 43.9484L29.9367 43.9787L29.9738 44.0109L30.0092 44.0446L30.043 44.0802L30.0752 44.1172L30.1055 44.1558L30.134 44.1959L30.1605 44.2372L30.1851 44.28L30.2077 44.3241L30.2281 44.3692L30.2464 44.4157L30.2624 44.4631L30.2762 44.5115L30.2876 44.5609L30.2966 44.6112L30.303 44.6623L30.307 44.7141L30.3083 44.7667H30.3083ZM2.04227 31.1386H8.04758e-05L0.96786 30.1188L2.05352 30.0772L3.12877 30.0665L4.19335 30.0868L5.24736 30.138L6.29054 30.2203L7.32297 30.3337L8.34456 30.4782L9.35507 30.6538L10.3547 30.8606L11.343 31.0987L12.3202 31.3679L13.286 31.6684L14.2402 31.9999L15.1829 32.3626L16.1138 32.7565L17.0331 33.1813L17.9404 33.6371L18.8358 34.1238L19.7192 34.6413L20.5906 35.1897L21.4497 35.7687L22.2967 36.3783L23.1315 37.0185L23.9541 37.6891L24.7643 38.39L25.5625 39.1212L26.3482 39.8827L27.1217 40.6743L27.883 41.4959L28.6322 42.3476L29.3692 43.2292L30.0941 44.1408L28.4804 45.3926L27.7862 44.5196L27.0818 43.6768L26.3671 42.8643L25.6422 42.0819L24.907 41.3296L24.1617 40.6074L23.4063 39.9152L22.6405 39.2529L21.8646 38.6202L21.0786 38.0175L20.2824 37.4443L19.4758 36.9008L18.659 36.3868L17.8319 35.9022L16.9942 35.4469L16.1462 35.0208L15.2875 34.624L14.4182 34.2564L13.5383 33.9177L12.6474 33.6081L11.7456 33.3276L10.8327 33.0761L9.9087 32.8536L8.97341 32.6601L8.0267 32.4955L7.06858 32.3599L6.09895 32.2536L5.11757 32.1761L4.12452 32.1278L3.11971 32.1087L2.10306 32.1189L1.0745 32.1583L2.04228 31.1386L2.04227 31.1386ZM0.967865 30.1188L1.07449 32.1583L1.02193 32.1598L0.969964 32.1585L0.918582 32.1547L0.867871 32.1483L0.818 32.1395L0.768885 32.1284L0.72061 32.1148L0.673341 32.0989L0.627081 32.0808L0.581995 32.0606L0.538001 32.0384L0.495183 32.0139L0.453792 31.9876L0.41366 31.9594L0.374955 31.9292L0.337762 31.8973L0.302164 31.8636L0.268161 31.8284L0.235921 31.7914L0.205361 31.7529L0.176647 31.7129L0.149865 31.6715L0.125097 31.6287L0.102261 31.5847L0.081607 31.5393L0.0631362 31.4927L0.0468484 31.445L0.0329114 31.3963L0.0212413 31.3465L0.0121739 31.2959L0.00545726 31.2443L0.00142728 31.1919L0 31.1393L0.00125937 31.0874L0.00503747 31.036L0.0114183 30.9853L0.0202338 30.9354L0.0314002 30.8863L0.0450013 30.838L0.0608694 30.7907L0.0789203 30.7445L0.0991541 30.6994L0.121403 30.6554L0.145835 30.6126L0.172113 30.5712L0.200407 30.5311L0.230548 30.4924L0.262452 30.4552L0.296119 30.4196L0.331381 30.3856L0.368323 30.3533L0.406859 30.3228L0.446823 30.2941L0.488214 30.2673L0.531033 30.2425L0.575111 30.2197L0.620448 30.199L0.667044 30.1805L0.714732 30.1643L0.763428 30.1503L0.813215 30.1386L0.863841 30.1296L0.915475 30.1229L0.967865 30.1188H0.967865ZM8.56115e-05 54.9463V31.1386H2.04228V54.9463L0.690555 55.9124L8.56115e-05 54.9463ZM8.56115e-05 54.9463H2.04228L2.04093 54.9989L2.03699 55.0507L2.03052 55.1018L2.02154 55.1521L2.01012 55.2015L1.99635 55.2499L1.98032 55.2973L1.96201 55.3438L1.94161 55.3889L1.91903 55.433L1.89443 55.4758L1.8679 55.5172L1.83943 55.5572L1.80913 55.5958L1.77697 55.6328L1.74314 55.6684L1.7077 55.7021L1.67068 55.7343L1.63206 55.7646L1.59201 55.793L1.55062 55.8196L1.50789 55.8442L1.46381 55.8668L1.41864 55.8872L1.37221 55.9055L1.32477 55.9215L1.27633 55.9353L1.22696 55.9467L1.17667 55.9557L1.12554 55.9621L1.07374 55.9661L1.02118 55.9674L0.968625 55.9661L0.916823 55.9621L0.865693 55.9557L0.815402 55.9467L0.766035 55.9353L0.717592 55.9215L0.670156 55.9055L0.623727 55.8872L0.578558 55.8668L0.53448 55.8442L0.491745 55.8196L0.45027 55.793L0.410306 55.7646L0.371686 55.7343L0.33466 55.7021L0.299146 55.6684L0.265395 55.6328L0.233239 55.5958L0.202931 55.5572L0.174469 55.5172L0.147938 55.4758L0.123339 55.433L0.100754 55.3889L0.0803523 55.3438L0.0620495 55.2973L0.0460136 55.2499L0.0322445 55.2015L0.0208262 55.1521L0.0118428 55.1018L0.00537799 55.0507L0.00143198 54.9989L8.86518e-05 54.9463H8.56115e-05ZM28.9566 65.5865L0.690524 55.9124L1.35178 53.9802L29.6178 63.6543L30.3083 64.6204L28.9566 65.5865V65.5865ZM28.9566 65.5865L29.6178 63.6543L29.6671 63.6726L29.7149 63.6931L29.7612 63.7158L29.8058 63.7406L29.8489 63.7673L29.8903 63.7961L29.9299 63.8266L29.9679 63.8589L30.0041 63.8929L30.0384 63.9285L30.0709 63.9656L30.1015 64.0042L30.1302 64.0441L30.1569 64.0852L30.1815 64.1276L30.2041 64.1711L30.2246 64.2156L30.243 64.261L30.2592 64.3074L30.2731 64.3545L30.2849 64.4022L30.2943 64.4507L30.3013 64.4996L30.306 64.549L30.3083 64.5989L30.3081 64.6489L30.3055 64.6992L30.3003 64.7496L30.2925 64.8001L30.2821 64.8506L30.2691 64.9009L30.2533 64.9511L30.235 65.0003L30.2145 65.0481L30.1919 65.0944L30.1671 65.139L30.1403 65.1821L30.1116 65.2235L30.081 65.2631L30.0487 65.3011L30.0147 65.3373L29.9791 65.3716L29.942 65.4041L29.9035 65.4347L29.8636 65.4634L29.8225 65.4901L29.7801 65.5148L29.7366 65.5373L29.6921 65.5578L29.6466 65.5762L29.6003 65.5924L29.5532 65.6064L29.5054 65.6181L29.457 65.6275L29.408 65.6346L29.3587 65.6393L29.3088 65.6415L29.2588 65.6414L29.2085 65.6388L29.158 65.6336L29.1076 65.6258L29.0571 65.6153L29.0067 65.6023L28.9566 65.5865Z" fill="#333333"/>
<path fill-rule="evenodd" clip-rule="evenodd" d="M36.7748 51.1605H96.0834C100.762 51.9312 105.192 53.4389 109.375 55.6831V44.7667H29.2871V64.6205H42.8412C41.6905 58.2865 39.669 53.7989 36.7746 51.1605L36.7748 51.1605Z" fill="#B0C1D4"/>
<path d="M96.0834 52.1814H36.7747V50.1392H96.0834L96.2494 50.1528L96.0834 52.1814V52.1814ZM96.0834 52.1814V50.1392L96.1359 50.1406L96.1877 50.1445L96.2389 50.151L96.2892 50.16L96.3385 50.1714L96.387 50.1852L96.4344 50.2012L96.4808 50.2195L96.526 50.2399L96.5701 50.2625L96.6128 50.2871L96.6543 50.3136L96.6943 50.3421L96.7329 50.3724L96.7699 50.4046L96.8054 50.4384L96.8392 50.4738L96.8713 50.5108L96.9016 50.5495L96.9301 50.5895L96.9566 50.6309L96.9812 50.6736L97.0038 50.7177L97.0242 50.7629L97.0425 50.8093L97.0586 50.8567L97.0723 50.9052L97.0837 50.9546L97.0927 51.0048L97.0992 51.056L97.1031 51.1078L97.1045 51.1603L97.1031 51.2129L97.0992 51.2647L97.0927 51.3158L97.0837 51.3661L97.0723 51.4155L97.0586 51.4639L97.0425 51.5114L97.0242 51.5578L97.0038 51.603L96.9812 51.647L96.9566 51.6898L96.9301 51.7313L96.9016 51.7712L96.8713 51.8098L96.8392 51.8469L96.8054 51.8824L96.7699 51.9161L96.7329 51.9483L96.6943 51.9786L96.6543 52.0071L96.6128 52.0336L96.5701 52.0582L96.526 52.0808L96.4808 52.1012L96.4344 52.1195L96.387 52.1355L96.3385 52.1493L96.2892 52.1607L96.2389 52.1697L96.1877 52.1761L96.1359 52.1801L96.0834 52.1814V52.1814ZM108.354 55.6829H110.396L108.893 56.5828L108.509 56.3793L108.123 56.1801L107.737 55.9851L107.349 55.7945L106.96 55.6081L106.569 55.4258L106.177 55.2478L105.783 55.0739L105.389 54.9044L104.992 54.7391L104.595 54.578L104.196 54.4211L103.795 54.2685L103.394 54.12L102.99 53.9757L102.586 53.8357L102.18 53.6999L101.772 53.5683L101.364 53.4409L100.953 53.3178L100.541 53.1988L100.128 53.084L99.7137 52.9735L99.2977 52.8671L98.8803 52.765L98.4614 52.667L98.041 52.5733L97.6192 52.4839L97.1959 52.3986L96.7713 52.3174L96.3451 52.2405L95.9174 52.1678L96.2494 50.1528L96.6974 50.2289L97.144 50.3095L97.5892 50.3945L98.033 50.484L98.4751 50.5778L98.916 50.6761L99.3553 50.7788L99.7932 50.8859L100.23 50.9975L100.665 51.1135L101.098 51.234L101.53 51.3587L101.961 51.488L102.39 51.6217L102.817 51.7598L103.244 51.9024L103.668 52.0494L104.091 52.2007L104.513 52.3564L104.933 52.5168L105.352 52.6814L105.769 52.8504L106.185 53.0238L106.599 53.2017L107.012 53.384L107.423 53.5707L107.832 53.7617L108.24 53.9571L108.647 54.157L109.052 54.3614L109.456 54.57L109.858 54.783L108.354 55.6829H108.354ZM108.893 56.5828L109.858 54.783L109.904 54.8091L109.947 54.837L109.989 54.8669L110.029 54.8986L110.067 54.932L110.104 54.967L110.138 55.0036L110.17 55.0416L110.2 55.081L110.229 55.1217L110.255 55.1636L110.279 55.2066L110.3 55.2506L110.32 55.2955L110.338 55.3414L110.353 55.388L110.366 55.4351L110.377 55.483L110.385 55.5313L110.391 55.58L110.395 55.6291L110.397 55.6784L110.396 55.7279L110.392 55.7773L110.386 55.8269L110.378 55.8762L110.367 55.9255L110.354 55.9744L110.338 56.023L110.32 56.0711L110.299 56.1186L110.275 56.1656L110.249 56.2112L110.221 56.2551L110.191 56.297L110.16 56.3371L110.126 56.3752L110.091 56.4115L110.054 56.4456L110.016 56.4779L109.977 56.5081L109.936 56.5362L109.894 56.5623L109.851 56.5863L109.807 56.608L109.763 56.6278L109.717 56.6452L109.67 56.6605L109.623 56.6735L109.575 56.6843L109.527 56.6927L109.478 56.6989L109.429 56.7027L109.38 56.7042L109.33 56.7032L109.281 56.6999L109.231 56.6941L109.182 56.6859L109.133 56.675L109.084 56.6618L109.035 56.6459L108.987 56.6274L108.939 56.6064L108.893 56.5828V56.5828ZM110.396 44.7665V55.6829H108.354V44.7665L109.375 43.7454L110.396 44.7665H110.396ZM110.396 44.7665H108.354L108.355 44.714L108.359 44.6622L108.366 44.611L108.375 44.5607L108.386 44.5114L108.4 44.4629L108.416 44.4155L108.434 44.3691L108.455 44.3239L108.477 44.2798L108.502 44.2371L108.528 44.1957L108.557 44.1556L108.587 44.117L108.619 44.08L108.653 44.0445L108.689 44.0107L108.726 43.9786L108.764 43.9483L108.804 43.9198L108.846 43.8933L108.888 43.8687L108.933 43.8461L108.978 43.8257L109.024 43.8074L109.072 43.7914L109.12 43.7776L109.169 43.7662L109.22 43.7572L109.271 43.7507L109.323 43.7468L109.375 43.7454L109.428 43.7468L109.48 43.7507L109.531 43.7572L109.581 43.7662L109.63 43.7776L109.679 43.7914L109.726 43.8074L109.773 43.8257L109.818 43.8461L109.862 43.8687L109.905 43.8933L109.946 43.9198L109.986 43.9483L110.025 43.9786L110.062 44.0107L110.097 44.0445L110.131 44.08L110.163 44.117L110.193 44.1556L110.222 44.1957L110.248 44.2371L110.273 44.2798L110.296 44.3239L110.316 44.3691L110.334 44.4155L110.35 44.4629L110.364 44.5114L110.376 44.5607L110.385 44.611L110.391 44.6622L110.395 44.714L110.396 44.7665H110.396ZM29.2872 43.7454H109.375V45.7876H29.2872L28.2661 44.7665L29.2872 43.7454V43.7454ZM29.2872 43.7454V45.7876L29.2347 45.7863L29.1828 45.7823L29.1317 45.7759L29.0814 45.7669L29.0321 45.7555L28.9836 45.7417L28.9362 45.7257L28.8898 45.7074L28.8446 45.687L28.8005 45.6644L28.7578 45.6398L28.7163 45.6132L28.6763 45.5848L28.6377 45.5545L28.6007 45.5223L28.5652 45.4886L28.5314 45.453L28.4993 45.416L28.469 45.3774L28.4405 45.3374L28.414 45.296L28.3894 45.2532L28.3668 45.2091L28.3464 45.164L28.3281 45.1176L28.312 45.0701L28.2983 45.0217L28.2869 44.9723L28.2779 44.922L28.2714 44.8709L28.2675 44.8191L28.2661 44.7665L28.2675 44.714L28.2714 44.6622L28.2779 44.611L28.2869 44.5607L28.2983 44.5114L28.312 44.4629L28.3281 44.4155L28.3464 44.3691L28.3668 44.3239L28.3894 44.2798L28.414 44.2371L28.4405 44.1957L28.469 44.1556L28.4993 44.117L28.5314 44.08L28.5652 44.0445L28.6007 44.0107L28.6377 43.9786L28.6763 43.9483L28.7163 43.9198L28.7578 43.8933L28.8005 43.8687L28.8446 43.8461L28.8898 43.8257L28.9362 43.8074L28.9836 43.7914L29.0321 43.7776L29.0814 43.7662L29.1317 43.7572L29.1828 43.7507L29.2347 43.7468L29.2872 43.7454V43.7454ZM28.2661 64.6203V44.7665H30.3083V64.6203L29.2872 65.6413L28.2661 64.6203H28.2661ZM28.2661 64.6203H30.3083L30.307 64.6728L30.303 64.7246L30.2966 64.7757L30.2876 64.826L30.2761 64.8754L30.2624 64.9238L30.2463 64.9713L30.228 65.0177L30.2076 65.0629L30.1851 65.107L30.1605 65.1497L30.1339 65.1912L30.1055 65.2311L30.0752 65.2697L30.043 65.3068L30.0092 65.3423L29.9737 65.376L29.9367 65.4082L29.8981 65.4385L29.858 65.467L29.8166 65.4935L29.7739 65.5181L29.7298 65.5407L29.6847 65.5611L29.6382 65.5794L29.5908 65.5954L29.5424 65.6092L29.493 65.6206L29.4427 65.6296L29.3916 65.6361L29.3398 65.64L29.2872 65.6413L29.2347 65.64L29.1829 65.6361L29.1317 65.6296L29.0814 65.6206L29.0321 65.6092L28.9836 65.5954L28.9362 65.5794L28.8898 65.5611L28.8446 65.5407L28.8005 65.5181L28.7578 65.4935L28.7163 65.467L28.6763 65.4385L28.6377 65.4082L28.6007 65.376L28.5652 65.3423L28.5314 65.3068L28.4993 65.2697L28.469 65.2311L28.4405 65.1912L28.414 65.1497L28.3894 65.107L28.3668 65.0629L28.3464 65.0177L28.3281 64.9713L28.312 64.9238L28.2983 64.8754L28.2869 64.826L28.2779 64.7757L28.2714 64.7246L28.2675 64.6728L28.2661 64.6203H28.2661ZM42.8413 65.6413H29.2872V63.5992H42.8413L43.8459 64.4377L42.8413 65.6413ZM42.8413 65.6413V63.5992L42.8938 63.6005L42.9456 63.6044L42.9968 63.6109L43.0471 63.6199L43.0964 63.6313L43.1449 63.6451L43.1923 63.6611L43.2387 63.6794L43.2839 63.6998L43.328 63.7224L43.3707 63.747L43.4122 63.7735L43.4522 63.802L43.4908 63.8323L43.5278 63.8645L43.5633 63.8983L43.5971 63.9337L43.6292 63.9708L43.6595 64.0094L43.688 64.0494L43.7145 64.0908L43.7391 64.1335L43.7617 64.1776L43.7821 64.2228L43.8004 64.2692L43.8164 64.3167L43.8302 64.3651L43.8416 64.4145L43.8506 64.4648L43.8571 64.5159L43.861 64.5677L43.8624 64.6202L43.861 64.6728L43.8571 64.7246L43.8506 64.7757L43.8416 64.826L43.8302 64.8754L43.8164 64.9238L43.8004 64.9713L43.7821 65.0177L43.7617 65.0629L43.7391 65.107L43.7145 65.1497L43.688 65.1912L43.6595 65.2311L43.6292 65.2697L43.5971 65.3068L43.5633 65.3423L43.5278 65.376L43.4908 65.4082L43.4522 65.4385L43.4122 65.467L43.3707 65.4935L43.328 65.5181L43.2839 65.5407L43.2387 65.5611L43.1923 65.5794L43.1449 65.5954L43.0964 65.6092L43.0471 65.6206L42.9968 65.6296L42.9456 65.6361L42.8938 65.64L42.8413 65.6413V65.6413ZM36.7747 50.1392V52.1814L37.4626 50.4057L37.7543 50.6801L38.0398 50.9653L38.3192 51.262L38.5922 51.5692L38.859 51.8873L39.1196 52.2161L39.374 52.5557L39.6224 52.9059L39.8646 53.2667L40.1006 53.6379L40.3308 54.0196L40.5551 54.4119L40.7732 54.8146L40.9855 55.2275L41.1921 55.651L41.3928 56.0849L41.5878 56.5291L41.7771 56.9836L41.9607 57.4486L42.1387 57.9238L42.3111 58.4095L42.4778 58.9056L42.639 59.412L42.7948 59.9287L42.9451 60.4558L43.09 60.9934L43.2294 61.5414L43.3634 62.0998L43.492 62.6686L43.6154 63.2479L43.7333 63.8376L43.8459 64.4377L41.8366 64.8028L41.7284 64.2261L41.6153 63.6606L41.4974 63.1064L41.3744 62.5633L41.2468 62.0314L41.1143 61.5108L40.9771 61.0014L40.8351 60.5033L40.6883 60.0163L40.5369 59.5406L40.3807 59.0763L40.2199 58.6234L40.0545 58.1815L39.8845 57.7511L39.71 57.3319L39.531 56.9238L39.3475 56.5274L39.1595 56.142L38.9671 55.7677L38.7705 55.4049L38.5697 55.0534L38.3644 54.713L38.1549 54.3837L37.9414 54.0656L37.7237 53.7586L37.5019 53.4626L37.276 53.1777L37.0461 52.9035L36.8123 52.6402L36.5746 52.3879L36.3326 52.1461L36.0869 51.9149L36.7747 50.1392H36.7747ZM37.4626 50.4057L36.0869 51.9149L36.0489 51.8785L36.0132 51.8407L35.9799 51.8015L35.9487 51.7609L35.92 51.7193L35.8934 51.6765L35.8692 51.6326L35.8472 51.5879L35.8276 51.5423L35.8102 51.4959L35.7952 51.449L35.7825 51.4014L35.7721 51.3534L35.764 51.305L35.7582 51.2563L35.7548 51.2075L35.7537 51.1585L35.755 51.1095L35.7585 51.0605L35.7645 51.0118L35.7727 50.9633L35.7834 50.9151L35.7964 50.8674L35.8117 50.8202L35.8294 50.7736L35.8495 50.7277L35.872 50.6826L35.8969 50.6385L35.9241 50.5952L35.9537 50.5531L35.9857 50.5121L36.0201 50.4724L36.0565 50.4345L36.0943 50.3988L36.1335 50.3655L36.1741 50.3343L36.2157 50.3055L36.2586 50.279L36.3024 50.2547L36.3471 50.2328L36.3927 50.2132L36.4391 50.1958L36.486 50.1807L36.5336 50.1681L36.5816 50.1577L36.63 50.1495L36.6787 50.1438L36.7275 50.1404L36.7765 50.1393L36.8255 50.1405L36.8745 50.1441L36.9232 50.15L36.9717 50.1582L37.0199 50.1689L37.0677 50.1819L37.1148 50.1973L37.1614 50.215L37.2073 50.2351L37.2524 50.2576L37.2965 50.2824L37.3398 50.3096L37.3819 50.3393L37.4229 50.3713L37.4626 50.4057L37.4626 50.4057Z" fill="#333333"/>
<path fill-rule="evenodd" clip-rule="evenodd" d="M111.348 76.0617H52.712C53.2849 64.9899 47.9726 56.6898 36.7749 51.1606C47.144 52.8689 56.2983 58.1969 64.2376 67.1445H110.365C111.185 69.8848 111.514 72.8571 111.348 76.0617H111.348Z" fill="#88A6E3"/>
<path d="M52.7123 75.0408H111.348V77.0829H52.7123L51.6925 76.009L52.7123 75.0408V75.0408ZM52.7123 75.0408V77.0829L52.6597 77.0816L52.6079 77.0777L52.5568 77.0712L52.5065 77.0622L52.4571 77.0508L52.4087 77.037L52.3612 77.021L52.3148 77.0027L52.2696 76.9823L52.2256 76.9597L52.1828 76.9351L52.1414 76.9086L52.1014 76.8801L52.0628 76.8498L52.0257 76.8176L51.9903 76.7839L51.9565 76.7484L51.9243 76.7113L51.894 76.6727L51.8655 76.6328L51.839 76.5913L51.8144 76.5486L51.7918 76.5045L51.7714 76.4593L51.7531 76.4129L51.7371 76.3654L51.7233 76.317L51.7119 76.2676L51.7029 76.2173L51.6965 76.1662L51.6925 76.1144L51.6912 76.0619L51.6925 76.0093L51.6965 75.9575L51.7029 75.9064L51.7119 75.8561L51.7233 75.8067L51.7371 75.7583L51.7531 75.7108L51.7714 75.6644L51.7918 75.6192L51.8144 75.5752L51.839 75.5324L51.8655 75.491L51.894 75.451L51.9243 75.4124L51.9565 75.3753L51.9903 75.3399L52.0257 75.3061L52.0628 75.2739L52.1014 75.2436L52.1414 75.2151L52.1828 75.1886L52.2256 75.164L52.2696 75.1414L52.3148 75.121L52.3612 75.1027L52.4087 75.0867L52.4571 75.0729L52.5065 75.0615L52.5568 75.0525L52.6079 75.0461L52.6597 75.0421L52.7123 75.0408ZM36.9412 50.1532L36.6092 52.1682L37.2273 50.2452L38.2834 50.7837L39.3057 51.3396L40.2942 51.913L41.2487 52.5039L42.1691 53.1125L43.0555 53.7386L43.9077 54.3826L44.7255 55.0444L45.5091 55.7241L46.2581 56.4216L46.9723 57.1371L47.6518 57.8705L48.2962 58.6218L48.9055 59.3909L49.4794 60.1779L50.0177 60.9824L50.5204 61.8045L50.9873 62.6439L51.4182 63.5006L51.813 64.3742L52.1717 65.2647L52.4942 66.1719L52.7804 67.0953L53.0304 68.0351L53.2441 68.9907L53.4216 69.9621L53.5632 70.9492L53.6686 71.9518L53.7381 72.9697L53.7717 74.0029L53.7696 75.0512L53.732 76.1147L51.6925 76.009L51.7278 75.0128L51.7297 74.0338L51.6984 73.0723L51.6339 72.1279L51.5364 71.2007L51.406 70.2905L51.2427 69.397L51.0466 68.5203L50.8178 67.6602L50.5562 66.8162L50.262 65.9884L49.9349 65.1764L49.575 64.3801L49.1824 63.5993L48.7566 62.8338L48.2976 62.0833L47.8054 61.3477L47.2799 60.627L46.7206 59.9211L46.1276 59.2297L45.5006 58.553L44.8394 57.8907L44.1441 57.243L43.4143 56.61L42.6499 55.9916L41.8507 55.3877L41.0169 54.7985L40.1482 54.2242L39.2445 53.6649L38.3058 53.1202L37.332 52.5908L36.3231 52.0763L36.9412 50.1532L36.9412 50.1532ZM37.2273 50.2452L36.3231 52.0763L36.2765 52.0519L36.2318 52.0253L36.1888 51.9969L36.1478 51.9666L36.1085 51.9345L36.0712 51.9006L36.0358 51.8653L36.0023 51.8284L35.9708 51.79L35.9412 51.7503L35.9138 51.7093L35.8884 51.6672L35.8651 51.6238L35.8439 51.5796L35.8249 51.5344L35.8081 51.4884L35.7935 51.4416L35.7811 51.3942L35.771 51.3462L35.7632 51.2977L35.7578 51.2488L35.7547 51.1996L35.7539 51.1501L35.7556 51.1005L35.7597 51.0508L35.7663 51.0012L35.7755 50.9517L35.7871 50.9023L35.8013 50.8533L35.8181 50.8046L35.8375 50.7563L35.8596 50.7086L35.884 50.6621L35.9106 50.6174L35.939 50.5744L35.9693 50.5333L36.0014 50.494L36.0353 50.4567L36.0706 50.4213L36.1075 50.3878L36.1459 50.3563L36.1856 50.3268L36.2266 50.2993L36.2687 50.274L36.3121 50.2506L36.3563 50.2295L36.4015 50.2105L36.4475 50.1937L36.4942 50.179L36.5417 50.1667L36.5897 50.1566L36.6382 50.1488L36.6871 50.1433L36.7363 50.1402L36.7857 50.1395L36.8354 50.1411L36.8851 50.1453L36.9347 50.1519L36.9842 50.161L37.0336 50.1726L37.0826 50.1869L37.1313 50.2037L37.1796 50.2231L37.2273 50.2452ZM64.2378 66.1235V68.1657L63.4741 67.8223L62.7381 67.0073L61.9956 66.2136L61.2464 65.441L60.4906 64.6898L59.7281 63.9597L58.959 63.2507L58.1834 62.563L57.401 61.8963L56.612 61.2508L55.8166 60.6263L55.0144 60.0229L54.2056 59.4405L53.3902 58.879L52.5682 58.3385L51.7395 57.8191L50.904 57.3204L50.062 56.8427L49.2132 56.3858L48.3576 55.9498L47.4953 55.5346L46.6263 55.1401L45.7504 54.7665L44.8677 54.4135L43.978 54.0813L43.0814 53.7698L42.1779 53.4789L41.2676 53.2088L40.3501 52.9594L39.4255 52.7306L38.4939 52.5224L37.5551 52.335L36.6092 52.1682L36.9412 50.1532L37.9323 50.3279L38.9163 50.5244L39.8934 50.7426L40.8632 50.9826L41.8259 51.2443L42.7814 51.5279L43.7296 51.8331L44.6705 52.16L45.604 52.5087L46.5302 52.8789L47.4491 53.271L48.3604 53.6847L49.2644 54.1199L50.1609 54.5769L51.0498 55.0553L51.9313 55.5554L52.8052 56.077L53.6716 56.6201L54.5304 57.1847L55.3816 57.7707L56.2251 58.3782L57.0611 59.0071L57.8894 59.6573L58.7101 60.3288L59.5232 61.0217L60.3287 61.736L61.1265 62.4713L61.9167 63.2281L62.6994 64.006L63.4744 64.8051L64.2418 65.6254L65.0016 66.4669L64.2378 66.1235ZM63.4741 67.8223L65.0016 66.4669L65.0355 66.5071L65.0669 66.5485L65.096 66.591L65.1227 66.6346L65.1469 66.6791L65.1688 66.7245L65.1882 66.7707L65.2054 66.8174L65.2201 66.8649L65.2325 66.9127L65.2425 66.9611L65.25 67.0097L65.2553 67.0585L65.2583 67.1075L65.2588 67.1565L65.2571 67.2055L65.2531 67.2542L65.2466 67.3029L65.2379 67.3511L65.2269 67.399L65.2134 67.4463L65.1978 67.4931L65.1798 67.5392L65.1596 67.5845L65.137 67.629L65.1122 67.6725L65.0851 67.7149L65.0557 67.7562L65.024 67.7964L64.9901 67.8352L64.954 67.8725L64.9155 67.9084L64.8753 67.9423L64.8339 67.9737L64.7915 68.0027L64.7479 68.0294L64.7033 68.0537L64.658 68.0755L64.6118 68.095L64.565 68.1121L64.5176 68.1268L64.4697 68.1392L64.4214 68.1492L64.3728 68.1568L64.324 68.1621L64.2749 68.165L64.2259 68.1656L64.177 68.1638L64.1282 68.1598L64.0796 68.1534L64.0313 68.1446L63.9834 68.1336L63.9361 68.1202L63.8893 68.1046L63.8432 68.0866L63.7979 68.0664L63.7534 68.0438L63.7099 68.0189L63.6675 67.9918L63.6262 67.9624L63.5861 67.9308L63.5473 67.8969L63.5099 67.8608L63.4741 67.8223H63.4741ZM110.365 68.1657H64.2379V66.1235H110.365L111.344 66.8518L110.365 68.1657V68.1657ZM110.365 68.1657V66.1235L110.418 66.1248L110.47 66.1288L110.521 66.1353L110.571 66.1442L110.621 66.1557L110.669 66.1694L110.716 66.1855L110.763 66.2038L110.808 66.2242L110.852 66.2468L110.895 66.2714L110.936 66.2979L110.976 66.3263L111.015 66.3567L111.052 66.3888L111.087 66.4226L111.121 66.4581L111.153 66.4951L111.184 66.5337L111.212 66.5738L111.239 66.6152L111.263 66.6579L111.286 66.702L111.306 66.7471L111.325 66.7936L111.341 66.841L111.354 66.8895L111.366 66.9388L111.375 66.9891L111.381 67.0402L111.385 67.092L111.386 67.1446L111.385 67.1972L111.381 67.249L111.375 67.3001L111.366 67.3504L111.354 67.3997L111.341 67.4482L111.325 67.4956L111.306 67.5421L111.286 67.5872L111.263 67.6313L111.239 67.674L111.212 67.7155L111.184 67.7555L111.153 67.7941L111.121 67.8311L111.087 67.8666L111.052 67.9004L111.015 67.9325L110.976 67.9629L110.936 67.9913L110.895 68.0178L110.852 68.0424L110.808 68.065L110.763 68.0854L110.716 68.1037L110.669 68.1198L110.621 68.1335L110.571 68.145L110.521 68.1539L110.47 68.1604L110.418 68.1643L110.365 68.1657ZM111.348 77.083V75.0408L110.328 76.009L110.342 75.7189L110.353 75.4302L110.361 75.1431L110.366 74.8572L110.369 74.5729L110.368 74.2903L110.365 74.0087L110.359 73.7288L110.35 73.4503L110.339 73.1732L110.325 72.8977L110.308 72.6234L110.288 72.3506L110.265 72.0795L110.24 71.8095L110.212 71.5411L110.181 71.2741L110.147 71.0083L110.111 70.7444L110.071 70.4816L110.029 70.2202L109.985 69.9601L109.937 69.7017L109.887 69.4447L109.834 69.1889L109.779 68.9343L109.72 68.6816L109.659 68.4301L109.595 68.1798L109.529 67.9309L109.459 67.6835L109.387 67.4375L111.344 66.8518L111.423 67.1209L111.498 67.3914L111.571 67.6631L111.641 67.9361L111.707 68.2106L111.771 68.4867L111.832 68.7637L111.889 69.0421L111.944 69.3221L111.996 69.6032L112.044 69.8855L112.09 70.1691L112.132 70.4542L112.172 70.7407L112.208 71.0282L112.242 71.3172L112.272 71.6075L112.299 71.899L112.324 72.1919L112.345 72.486L112.364 72.7813L112.379 73.078L112.391 73.3759L112.401 73.6752L112.407 73.9757L112.41 74.2773L112.411 74.5805L112.408 74.8848L112.403 75.1903L112.394 75.4972L112.382 75.8054L112.368 76.1147L111.348 77.0829V77.083ZM110.328 76.009L112.368 76.1147L112.364 76.1671L112.357 76.2187L112.348 76.2693L112.337 76.3191L112.323 76.3679L112.306 76.4156L112.288 76.4621L112.267 76.5074L112.244 76.5516L112.22 76.5943L112.193 76.6358L112.164 76.6758L112.134 76.7143L112.101 76.7512L112.067 76.7866L112.032 76.8202L111.995 76.8522L111.956 76.8823L111.916 76.9106L111.874 76.937L111.832 76.9614L111.788 76.9837L111.743 77.0039L111.696 77.022L111.649 77.0379L111.601 77.0515L111.552 77.0627L111.502 77.0715L111.451 77.0779L111.4 77.0818L111.348 77.083L111.295 77.0816L111.243 77.0776L111.191 77.0709L111.141 77.0618L111.091 77.0503L111.042 77.0364L110.994 77.0201L110.948 77.0016L110.903 76.9809L110.858 76.9582L110.816 76.9333L110.774 76.9066L110.734 76.8779L110.696 76.8475L110.659 76.8151L110.623 76.7812L110.59 76.7456L110.558 76.7084L110.528 76.6698L110.499 76.6297L110.473 76.5882L110.449 76.5455L110.426 76.5015L110.406 76.4564L110.388 76.4101L110.372 76.3628L110.359 76.3147L110.347 76.2655L110.338 76.2157L110.332 76.165L110.328 76.1136L110.327 76.0616L110.328 76.009Z" fill="#333333"/>
<path fill-rule="evenodd" clip-rule="evenodd" d="M123.546 67.1442H64.2375C56.2983 58.1965 47.144 52.8686 36.7749 51.1603H96.0836C106.453 52.8686 115.607 58.1965 123.546 67.1442H123.546Z" fill="white"/>
<path d="M64.2377 66.1232H123.546V68.1654H64.2377L63.474 67.822L64.2377 66.1232V66.1232ZM64.2377 66.1232V68.1654L64.1852 68.164L64.1334 68.1601L64.0822 68.1536L64.032 68.1446L63.9826 68.1332L63.9341 68.1194L63.8867 68.1034L63.8403 68.0851L63.7951 68.0647L63.751 68.0421L63.7083 68.0175L63.6669 67.991L63.6269 67.9625L63.5882 67.9322L63.5512 67.9001L63.5158 67.8663L63.4819 67.8308L63.4498 67.7938L63.4195 67.7552L63.391 67.7152L63.3645 67.6737L63.3399 67.631L63.3173 67.5869L63.2969 67.5417L63.2786 67.4953L63.2626 67.4479L63.2488 67.3994L63.2374 67.3501L63.2284 67.2998L63.2219 67.2486L63.218 67.1968L63.2166 67.1443L63.218 67.0917L63.2219 67.0399L63.2284 66.9888L63.2374 66.9385L63.2488 66.8891L63.2626 66.8407L63.2786 66.7933L63.2969 66.7468L63.3173 66.7017L63.3399 66.6576L63.3645 66.6148L63.391 66.5735L63.4195 66.5334L63.4498 66.4948L63.4819 66.4578L63.5158 66.4223L63.5512 66.3885L63.5882 66.3563L63.6269 66.326L63.6669 66.2976L63.7083 66.271L63.751 66.2464L63.7951 66.2238L63.8403 66.2034L63.8867 66.1851L63.9341 66.1691L63.9826 66.1553L64.032 66.1439L64.0822 66.1349L64.1334 66.1285L64.1852 66.1245L64.2377 66.1232V66.1232ZM36.7751 50.1393V52.1815L36.9411 50.1529L37.9322 50.3276L38.9163 50.5241L39.8934 50.7423L40.8632 50.9823L41.8258 51.244L42.7813 51.5275L43.7295 51.8327L44.6704 52.1597L45.6039 52.5083L46.5301 52.8786L47.449 53.2707L48.3603 53.6843L49.2643 54.1196L50.1608 54.5766L51.0498 55.0549L51.9312 55.5551L52.8051 56.0766L53.6715 56.6198L54.5303 57.1844L55.3815 57.7704L56.225 58.3778L57.061 59.0068L57.8893 59.6569L58.71 60.3285L59.5231 61.0214L60.3286 61.7356L61.1264 62.471L61.9167 63.2277L62.6993 64.0057L63.4743 64.8048L64.2417 65.6251L65.0015 66.4666L63.474 67.822L62.738 67.007L61.9955 66.2133L61.2463 65.4407L60.4906 64.6894L59.7281 63.9594L58.9589 63.2504L58.1833 62.5627L57.4009 61.896L56.612 61.2504L55.8165 60.626L55.0143 60.0226L54.2056 59.4401L53.3902 58.8786L52.5681 58.3382L51.7394 57.8188L50.9039 57.32L50.0619 56.8424L49.2131 56.3855L48.3576 55.9495L47.4952 55.5343L46.6262 55.1397L45.7503 54.7661L44.8676 54.4132L43.9779 54.081L43.0813 53.7695L42.1779 53.4786L41.2675 53.2085L40.35 52.959L39.4254 52.7302L38.4938 52.5221L37.5551 52.3347L36.6091 52.1679L36.7751 50.1393L36.7751 50.1393ZM36.9411 50.1529L36.6091 52.1679L36.5575 52.1581L36.5069 52.1457L36.4576 52.131L36.4094 52.114L36.3625 52.0947L36.317 52.0733L36.2728 52.0497L36.23 52.0242L36.1887 51.9966L36.1489 51.9672L36.1107 51.936L36.0742 51.9031L36.0393 51.8684L36.0062 51.8322L35.9749 51.7946L35.9453 51.7555L35.9178 51.7149L35.8921 51.6732L35.8685 51.6302L35.8469 51.5861L35.8275 51.5409L35.8101 51.4947L35.795 51.4475L35.7822 51.3996L35.7717 51.3509L35.7636 51.3014L35.7579 51.2514L35.7547 51.2009L35.7539 51.1497L35.7558 51.0983L35.7604 51.0465L35.7676 50.9944L35.7774 50.9428L35.7898 50.8922L35.8044 50.8429L35.8215 50.7948L35.8408 50.7478L35.8622 50.7023L35.8858 50.6581L35.9113 50.6153L35.9389 50.574L35.9682 50.5342L35.9995 50.496L36.0324 50.4595L36.0671 50.4246L36.1033 50.3915L36.1409 50.3602L36.18 50.3306L36.2205 50.3031L36.2623 50.2774L36.3053 50.2538L36.3494 50.2322L36.3946 50.2128L36.4408 50.1954L36.4879 50.1804L36.5359 50.1675L36.5846 50.157L36.634 50.1489L36.6841 50.1432L36.7346 50.14L36.7857 50.1392L36.8372 50.1412L36.889 50.1457L36.9411 50.1529ZM96.0839 52.1815H36.7752V50.1393H96.0839L96.2499 50.1529L96.0839 52.1815V52.1815ZM96.0839 52.1815V50.1393L96.1364 50.1406L96.1882 50.1446L96.2394 50.1511L96.2896 50.16L96.339 50.1715L96.3875 50.1852L96.4349 50.2013L96.4813 50.2196L96.5265 50.24L96.5706 50.2625L96.6133 50.2871L96.6548 50.3137L96.6947 50.3421L96.7334 50.3725L96.7704 50.4046L96.8059 50.4384L96.8397 50.4739L96.8718 50.5109L96.9021 50.5495L96.9306 50.5896L96.9571 50.631L96.9817 50.6737L97.0043 50.7178L97.0247 50.7629L97.043 50.8094L97.059 50.8568L97.0728 50.9052L97.0842 50.9546L97.0932 51.0049L97.0997 51.056L97.1036 51.1078L97.105 51.1604L97.1036 51.213L97.0997 51.2648L97.0932 51.3159L97.0842 51.3662L97.0728 51.4155L97.059 51.464L97.043 51.5114L97.0247 51.5579L97.0043 51.603L96.9817 51.6471L96.9571 51.6898L96.9306 51.7313L96.9021 51.7713L96.8718 51.8099L96.8397 51.8469L96.8059 51.8824L96.7704 51.9162L96.7334 51.9483L96.6947 51.9786L96.6548 52.0071L96.6133 52.0336L96.5706 52.0582L96.5265 52.0808L96.4813 52.1012L96.4349 52.1195L96.3875 52.1356L96.339 52.1493L96.2896 52.1608L96.2394 52.1697L96.1882 52.1762L96.1364 52.1801L96.0839 52.1815V52.1815ZM123.547 68.1654V66.1232L122.783 67.822L122.047 67.007L121.304 66.2133L120.555 65.4407L119.799 64.6894L119.037 63.9594L118.268 63.2504L117.492 62.5627L116.71 61.896L115.921 61.2504L115.125 60.626L114.323 60.0226L113.514 59.4401L112.699 58.8786L111.877 58.3382L111.048 57.8187L110.213 57.32L109.371 56.8424L108.522 56.3855L107.666 55.9495L106.804 55.5343L105.935 55.1397L105.059 54.7661L104.176 54.4132L103.287 54.081L102.39 53.7695L101.487 53.4786L100.576 53.2085L99.6588 52.959L98.7342 52.7302L97.8026 52.5221L96.8638 52.3347L95.9179 52.1679L96.2498 50.1529L97.241 50.3276L98.2251 50.5241L99.2021 50.7423L100.172 50.9823L101.135 51.244L102.09 51.5275L103.038 51.8327L103.979 52.1597L104.913 52.5083L105.839 52.8786L106.758 53.2707L107.669 53.6843L108.573 54.1196L109.47 54.5766L110.359 55.0549L111.24 55.5551L112.114 56.0766L112.98 56.6197L113.839 57.1844L114.69 57.7704L115.534 58.3778L116.37 59.0067L117.198 59.6569L118.019 60.3285L118.832 61.0214L119.637 61.7356L120.435 62.471L121.226 63.2277L122.008 64.0057L122.783 64.8048L123.551 65.6251L124.31 66.4666L123.547 68.1654V68.1654ZM122.783 67.822L124.31 66.4666L124.344 66.5068L124.376 66.5482L124.405 66.5907L124.431 66.6342L124.456 66.6788L124.478 66.7241L124.497 66.7703L124.514 66.8171L124.529 66.8645L124.541 66.9124L124.551 66.9607L124.559 67.0094L124.564 67.0581L124.567 67.1072L124.568 67.1562L124.566 67.2051L124.562 67.2539L124.555 67.3025L124.547 67.3508L124.536 67.3987L124.522 67.446L124.507 67.4928L124.489 67.5389L124.468 67.5842L124.446 67.6287L124.421 67.6722L124.394 67.7146L124.364 67.7559L124.333 67.796L124.299 67.8348L124.263 67.8722L124.224 67.908L124.184 67.942L124.143 67.9734L124.1 68.0024L124.057 68.0291L124.012 68.0534L123.967 68.0752L123.921 68.0947L123.874 68.1118L123.826 68.1265L123.779 68.1389L123.73 68.1489L123.682 68.1565L123.633 68.1618L123.584 68.1647L123.535 68.1653L123.486 68.1635L123.437 68.1595L123.388 68.153L123.34 68.1443L123.292 68.1333L123.245 68.1199L123.198 68.1042L123.152 68.0863L123.107 68.066L123.062 68.0435L123.019 68.0186L122.976 67.9915L122.935 67.9621L122.895 67.9305L122.856 67.8965L122.819 67.8604L122.783 67.822Z" fill="#333333"/>
<path fill-rule="evenodd" clip-rule="evenodd" d="M102.514 84.9788H43.8785C44.5173 67.3333 42.1494 56.0602 36.7744 51.1602C47.9721 56.6894 53.2844 64.9896 52.7115 76.0613H102.567C102.644 78.8057 102.629 81.8272 102.514 84.9788H102.514Z" fill="white"/>
<path d="M43.8791 83.9578H102.515V86H43.8791L42.8587 84.942L43.8791 83.9578V83.9578ZM43.8791 83.9578V86L43.8265 85.9987L43.7747 85.9947L43.7236 85.9883L43.6733 85.9793L43.6239 85.9679L43.5755 85.9541L43.5281 85.9381L43.4816 85.9198L43.4365 85.8994L43.3924 85.8768L43.3496 85.8522L43.3083 85.8256L43.2682 85.7972L43.2296 85.7669L43.1926 85.7347L43.1571 85.701L43.1233 85.6654L43.0911 85.6284L43.0608 85.5898L43.0324 85.5498L43.0058 85.5084L42.9812 85.4656L42.9587 85.4215L42.9383 85.3764L42.9199 85.3299L42.9039 85.2825L42.8901 85.2341L42.8787 85.1847L42.8697 85.1344L42.8633 85.0833L42.8593 85.0315L42.858 84.9789L42.8593 84.9264L42.8633 84.8746L42.8697 84.8234L42.8787 84.7731L42.8901 84.7238L42.9039 84.6753L42.9199 84.6279L42.9383 84.5815L42.9587 84.5363L42.9812 84.4922L43.0058 84.4495L43.0324 84.4081L43.0608 84.368L43.0911 84.3294L43.1233 84.2924L43.1571 84.257L43.1926 84.2231L43.2296 84.191L43.2682 84.1607L43.3083 84.1322L43.3496 84.1057L43.3924 84.0811L43.4365 84.0585L43.4816 84.0381L43.5281 84.0198L43.5755 84.0038L43.6239 83.99L43.6733 83.9786L43.7236 83.9696L43.7747 83.9631L43.8265 83.9592L43.8791 83.9578ZM37.2271 50.2448L36.3229 52.0759L37.463 50.4058L37.9998 50.9241L38.515 51.4803L39.0089 52.0738L39.4815 52.7044L39.9329 53.3714L40.3636 54.0747L40.7736 54.814L41.1634 55.5893L41.5331 56.4003L41.8832 57.2472L42.2138 58.1299L42.5252 59.0482L42.8174 60.0024L43.0907 60.9923L43.3455 62.0182L43.5815 63.0802L43.7991 64.1781L43.9985 65.3121L44.1795 66.4823L44.3424 67.6888L44.4872 68.9316L44.614 70.2108L44.7228 71.5265L44.8137 72.8786L44.8867 74.2673L44.9419 75.6927L44.9792 77.1547L44.9987 78.6533L45.0006 80.1888L44.9846 81.761L44.9509 83.37L44.8995 85.0158L42.8587 84.9419L42.9094 83.3166L42.9426 81.7291L42.9584 80.1795L42.9566 78.6678L42.9373 77.1938L42.9007 75.7581L42.8466 74.3603L42.775 73.0006L42.6863 71.679L42.5802 70.3955L42.4568 69.1502L42.3161 67.9434L42.1583 66.7748L41.9835 65.6448L41.7916 64.5531L41.5829 63.5L41.3573 62.4855L41.1152 61.5098L40.8564 60.5728L40.5814 59.6747L40.2901 58.8155L39.9829 57.9951L39.6599 57.2137L39.3214 56.4712L38.9676 55.7676L38.599 55.1029L38.2156 54.4766L37.8179 53.8888L37.4059 53.3392L36.9801 52.8273L36.5404 52.3527L36.0871 51.915L37.2271 50.2448L37.2271 50.2448ZM37.463 50.4058L36.0871 51.915L36.0491 51.8786L36.0134 51.8408L35.9801 51.8016L35.9489 51.761L35.9201 51.7193L35.8936 51.6765L35.8694 51.6326L35.8474 51.5879L35.8278 51.5423L35.8104 51.496L35.7954 51.449L35.7827 51.4015L35.7723 51.3535L35.7641 51.305L35.7584 51.2563L35.755 51.2075L35.7539 51.1585L35.7552 51.1095L35.7587 51.0606L35.7647 51.0118L35.773 50.9633L35.7835 50.9151L35.7966 50.8674L35.8119 50.8202L35.8296 50.7736L35.8498 50.7277L35.8722 50.6827L35.8971 50.6385L35.9243 50.5953L35.954 50.5531L35.986 50.5121L36.0204 50.4724L36.0567 50.4345L36.0946 50.3988L36.1338 50.3655L36.1744 50.3343L36.2161 50.3055L36.2589 50.279L36.3027 50.2547L36.3475 50.2328L36.3931 50.2132L36.4394 50.1958L36.4864 50.1808L36.5339 50.1681L36.5819 50.1577L36.6303 50.1495L36.679 50.1438L36.7279 50.1404L36.7768 50.1393L36.8259 50.1405L36.8748 50.1441L36.9236 50.15L36.972 50.1583L37.0202 50.1689L37.068 50.1819L37.1152 50.1973L37.1618 50.215L37.2076 50.2352L37.2527 50.2576L37.2969 50.2824L37.3401 50.3097L37.3823 50.3394L37.4232 50.3713L37.463 50.4058L37.463 50.4058ZM52.7121 75.0404V77.0826L51.6924 76.0087L51.7276 75.0125L51.7296 74.0335L51.6982 73.0719L51.6338 72.1276L51.5363 71.2004L51.4058 70.2902L51.2425 69.3967L51.0465 68.52L50.8176 67.6598L50.5561 66.8158L50.2618 65.9881L49.9347 65.176L49.5749 64.3798L49.1822 63.599L48.7564 62.8335L48.2975 62.083L47.8053 61.3474L47.2797 60.6267L46.7205 59.9208L46.1275 59.2293L45.5004 58.5526L44.8392 57.8904L44.144 57.2427L43.4141 56.6097L42.6497 55.9912L41.8506 55.3874L41.0167 54.7982L40.148 54.2238L39.2444 53.6645L38.3056 53.1199L37.3318 52.5904L36.3229 52.076L37.2271 50.2448L38.2832 50.7833L39.3056 51.3393L40.294 51.9127L41.2485 52.5035L42.169 53.1122L43.0554 53.7383L43.9076 54.3823L44.7254 55.044L45.509 55.7237L46.258 56.4213L46.9722 57.1368L47.6516 57.8702L48.296 58.6215L48.9053 59.3905L49.4792 60.1775L50.0176 60.9821L50.5202 61.8041L50.9871 62.6435L51.4181 63.5003L51.8128 64.3739L52.1715 65.2644L52.494 66.1715L52.7802 67.095L53.0302 68.0347L53.2439 68.9903L53.4215 69.9617L53.563 70.9488L53.6684 71.9514L53.7379 72.9693L53.7716 74.0026L53.7695 75.0509L53.7319 76.1143L52.7121 75.0404L52.7121 75.0404ZM51.6924 76.0087L53.7319 76.1143L53.7278 76.1667L53.7212 76.2183L53.7121 76.269L53.7006 76.3188L53.6866 76.3675L53.6703 76.4152L53.6519 76.4617L53.6312 76.5071L53.6084 76.5512L53.5836 76.594L53.5569 76.6354L53.5282 76.6754L53.4977 76.7139L53.4654 76.7509L53.4315 76.7862L53.3959 76.8199L53.3587 76.8518L53.3201 76.8819L53.2799 76.9102L53.2384 76.9366L53.1957 76.961L53.1517 76.9834L53.1066 77.0036L53.0604 77.0216L53.0131 77.0375L52.9649 77.0511L52.9158 77.0624L52.8659 77.0712L52.8152 77.0776L52.7638 77.0814L52.7119 77.0827L52.6593 77.0813L52.6069 77.0772L52.5553 77.0706L52.5047 77.0614L52.4549 77.0499L52.4061 77.036L52.3584 77.0197L52.3119 77.0012L52.2666 76.9806L52.2224 76.9578L52.1797 76.933L52.1382 76.9063L52.0982 76.8776L52.0597 76.8471L52.0227 76.8148L51.9874 76.7809L51.9537 76.7453L51.9218 76.7081L51.8917 76.6694L51.8634 76.6293L51.837 76.5878L51.8126 76.5451L51.7903 76.5011L51.77 76.456L51.752 76.4098L51.7361 76.3625L51.7225 76.3143L51.7113 76.2652L51.7024 76.2153L51.6961 76.1646L51.6922 76.1132L51.6909 76.0612L51.6924 76.0087ZM102.567 77.0826H52.7121V75.0404H102.567L103.588 76.0328L102.567 77.0826ZM102.567 77.0826V75.0404L102.62 75.0417L102.672 75.0457L102.723 75.0522L102.773 75.0611L102.823 75.0726L102.871 75.0863L102.918 75.1024L102.965 75.1207L103.01 75.1411L103.054 75.1637L103.097 75.1883L103.138 75.2148L103.178 75.2432L103.217 75.2736L103.254 75.3057L103.289 75.3396L103.323 75.375L103.355 75.412L103.386 75.4506L103.414 75.4907L103.441 75.5321L103.465 75.5748L103.488 75.6189L103.508 75.664L103.527 75.7105L103.543 75.7579L103.556 75.8064L103.568 75.8557L103.577 75.906L103.583 75.9571L103.587 76.0089L103.589 76.0615L103.587 76.1141L103.583 76.1659L103.577 76.217L103.568 76.2673L103.556 76.3167L103.543 76.3651L103.527 76.4125L103.508 76.459L103.488 76.5041L103.465 76.5482L103.441 76.5909L103.414 76.6324L103.386 76.6724L103.355 76.711L103.323 76.748L103.289 76.7835L103.254 76.8173L103.217 76.8494L103.178 76.8798L103.138 76.9082L103.097 76.9347L103.054 76.9593L103.01 76.9819L102.965 77.0023L102.918 77.0206L102.871 77.0367L102.823 77.0504L102.773 77.0619L102.723 77.0708L102.672 77.0773L102.62 77.0813L102.567 77.0826ZM102.515 86V83.9578L101.495 84.942L101.505 84.6488L101.515 84.3563L101.524 84.0648L101.532 83.7741L101.541 83.4843L101.548 83.1955L101.555 82.9073L101.561 82.6202L101.567 82.3342L101.572 82.0491L101.577 81.7652L101.581 81.4823L101.585 81.2003L101.588 80.9196L101.59 80.6401L101.592 80.3617L101.593 80.0844L101.594 79.8086L101.594 79.5338L101.594 79.2604L101.593 78.9884L101.591 78.7177L101.589 78.4483L101.587 78.1803L101.584 77.9136L101.58 77.6486L101.576 77.3849L101.571 77.123L101.566 76.8625L101.56 76.6033L101.554 76.3459L101.547 76.0902L103.588 76.0328L103.595 76.2933L103.602 76.5553L103.607 76.8186L103.613 77.0837L103.618 77.3503L103.622 77.6183L103.626 77.8878L103.629 78.1586L103.632 78.4308L103.634 78.7044L103.635 78.9794L103.636 79.2557L103.636 79.5332L103.636 79.812L103.635 80.0921L103.634 80.3732L103.632 80.6557L103.63 80.9394L103.627 81.224L103.623 81.5097L103.619 81.7967L103.614 82.0847L103.609 82.3735L103.603 82.6635L103.597 82.9546L103.59 83.2462L103.582 83.539L103.574 83.8327L103.565 84.1274L103.556 84.4228L103.546 84.7188L103.535 85.0159L102.515 86H102.515ZM101.495 84.942L103.535 85.0159L103.532 85.0683L103.526 85.12L103.518 85.1708L103.507 85.2207L103.494 85.2697L103.479 85.3176L103.461 85.3645L103.441 85.4101L103.419 85.4546L103.395 85.4978L103.368 85.5396L103.34 85.5801L103.311 85.619L103.279 85.6565L103.245 85.6924L103.21 85.7266L103.174 85.759L103.135 85.7898L103.096 85.8187L103.055 85.8457L103.012 85.8707L102.969 85.8938L102.924 85.9147L102.878 85.9335L102.831 85.9501L102.783 85.9644L102.734 85.9764L102.684 85.9861L102.634 85.9932L102.583 85.9978L102.531 85.9999L102.478 85.9993L102.426 85.9961L102.374 85.9903L102.323 85.982L102.273 85.9711L102.224 85.958L102.176 85.9425L102.129 85.9247L102.084 85.9048L102.039 85.8827L101.996 85.8585L101.954 85.8324L101.914 85.8044L101.875 85.7745L101.837 85.7428L101.801 85.7094L101.767 85.6743L101.735 85.6376L101.704 85.5994L101.675 85.5598L101.648 85.5188L101.623 85.4765L101.6 85.4328L101.579 85.388L101.56 85.342L101.544 85.295L101.529 85.2471L101.517 85.1981L101.508 85.1483L101.501 85.0978L101.496 85.0465L101.494 84.9945L101.495 84.942Z" fill="#333333"/>
</svg>
