<svg width="112" height="86" viewBox="0 0 112 86" fill="none" xmlns="http://www.w3.org/2000/svg">
<path fill-rule="evenodd" clip-rule="evenodd" d="M35.7271 0.789062L19.3086 6.43463C25.9089 15.2971 27.7329 25.0127 24.7812 34.2691V85.2112H86.6559V34.2691C83.7043 25.0127 85.5283 15.2971 92.1285 6.43463L75.7101 0.789062C73.1136 22.2132 39.8707 22.1475 35.7271 0.789062H35.7271Z" fill="white"/>
<path d="M18.9706 5.70162L35.3891 0.056049L36.0649 1.52195L19.6465 7.16752L18.5403 6.86132L18.9706 5.70162V5.70162ZM18.9706 5.70162L19.6465 7.16752L19.6024 7.18162L19.558 7.19361L19.5133 7.20349L19.4685 7.21142L19.4238 7.21733L19.3789 7.22138L19.3341 7.22341L19.2896 7.22349L19.2452 7.22172L19.2012 7.21818L19.1575 7.21269L19.1143 7.20551L19.0716 7.19648L19.0294 7.18576L18.9881 7.17335L18.9474 7.15916L18.9075 7.14338L18.8686 7.12599L18.8306 7.10691L18.7938 7.08631L18.758 7.06419L18.7234 7.04055L18.69 7.01539L18.6581 6.98872L18.6275 6.96069L18.5984 6.93122L18.571 6.90041L18.5452 6.86816L18.521 6.83465L18.4987 6.79986L18.4783 6.76373L18.4598 6.72642L18.4435 6.68834L18.4296 6.65001L18.4182 6.61143L18.409 6.57277L18.4022 6.5341L18.3975 6.49535L18.3951 6.45669L18.395 6.41819L18.3971 6.37986L18.4012 6.34187L18.4075 6.30414L18.4158 6.26682L18.4263 6.22993L18.4387 6.19354L18.4531 6.15783L18.4695 6.12271L18.4878 6.08827L18.5079 6.05467L18.53 6.02183L18.5539 5.99L18.5795 5.9591L18.6069 5.92922L18.636 5.90043L18.6669 5.87282L18.6993 5.8464L18.7334 5.82133L18.7691 5.7976L18.8065 5.77532L18.8453 5.75446L18.8855 5.73522L18.9274 5.71757L18.9706 5.70162V5.70162ZM25.6945 34.269H23.8677L23.9005 34.0596L24.1571 33.2109L24.3862 32.3601L24.588 31.5071L24.7625 30.6525L24.9097 29.7962L25.0294 28.9387L25.122 28.08L25.1872 27.2204L25.2251 26.36L25.2358 25.4991L25.2191 24.6379L25.1751 23.7765L25.1037 22.9154L25.0051 22.0545L24.8792 21.1941L24.7259 20.3345L24.5453 19.476L24.3373 18.6186L24.102 17.7625L23.8392 16.9081L23.549 16.0554L23.2314 15.2048L22.8862 14.3565L22.5137 13.5107L22.1135 12.6677L21.6859 11.8275L21.2306 10.9904L20.7479 10.1569L20.2375 9.32699L19.6993 8.50092L19.1336 7.6789L18.5403 6.86128L20.0768 6.00777L20.693 6.8568L21.2808 7.7109L21.8404 8.57006L22.3716 9.43387L22.8745 10.3021L23.349 11.1746L23.7951 12.0509L24.2128 12.9309L24.6019 13.8145L24.9626 14.7011L25.2948 15.5908L25.5985 16.483L25.8737 17.3777L26.1203 18.2745L26.3383 19.1732L26.5277 20.0735L26.6884 20.9751L26.8205 21.8779L26.9241 22.7813L26.9989 23.6855L27.0451 24.5899L27.0626 25.4942L27.0515 26.3983L27.0117 27.3019L26.9431 28.2046L26.8461 29.1063L26.7203 30.0066L26.5658 30.9054L26.3827 31.8021L26.171 32.6967L25.9307 33.5889L25.6618 34.4785L25.6945 34.269H25.6945ZM23.9005 34.0596L25.6618 34.4785L25.6482 34.5173L25.6325 34.5551L25.6147 34.5918L25.595 34.6275L25.5734 34.6619L25.5501 34.6952L25.5249 34.7273L25.4981 34.758L25.4698 34.7875L25.4399 34.8157L25.4085 34.8425L25.3758 34.8679L25.3417 34.8919L25.3065 34.9144L25.2699 34.9354L25.2324 34.9549L25.1937 34.9728L25.1542 34.9891L25.1137 35.0037L25.0724 35.0167L25.0303 35.0281L24.9876 35.0376L24.9443 35.0454L24.9004 35.0514L24.8561 35.0554L24.8113 35.0577L24.7663 35.0579L24.721 35.0563L24.6755 35.0527L24.6299 35.047L24.5843 35.0394L24.5386 35.0296L24.4936 35.0178L24.4498 35.0042L24.4073 34.9889L24.3661 34.9719L24.3262 34.9533L24.2877 34.9331L24.2505 34.9114L24.2149 34.8882L24.1807 34.8638L24.1481 34.8379L24.1171 34.8108L24.0877 34.7826L24.0599 34.7532L24.0338 34.7227L24.0095 34.6911L23.987 34.6587L23.9662 34.6254L23.9473 34.5912L23.9304 34.5562L23.9153 34.5206L23.9022 34.4842L23.8912 34.4473L23.8822 34.4099L23.8753 34.372L23.8706 34.3338L23.8679 34.2951L23.8676 34.2562L23.8695 34.2171L23.8737 34.1778L23.8802 34.1384L23.8891 34.099L23.9005 34.0596H23.9005ZM23.8677 85.2112V34.2691H25.6945V85.2112L24.7811 86L23.8677 85.2112H23.8677ZM23.8677 85.2112H25.6945L25.6934 85.2518L25.6898 85.2918L25.684 85.3313L25.676 85.3701L25.6658 85.4083L25.6535 85.4457L25.6391 85.4824L25.6228 85.5182L25.6044 85.5531L25.5843 85.5872L25.5623 85.6202L25.5385 85.6522L25.5131 85.6831L25.4859 85.7129L25.4572 85.7415L25.427 85.7689L25.3952 85.795L25.3621 85.8198L25.3276 85.8433L25.2918 85.8653L25.2547 85.8858L25.2165 85.9048L25.1771 85.9222L25.1367 85.938L25.0952 85.9521L25.0527 85.9645L25.0094 85.9752L24.9652 85.984L24.9202 85.9909L24.8745 85.9959L24.8282 85.999L24.7811 86L24.7341 85.999L24.6878 85.9959L24.642 85.9909L24.5971 85.984L24.5529 85.9752L24.5096 85.9645L24.4671 85.9521L24.4256 85.938L24.3851 85.9222L24.3457 85.9048L24.3075 85.8858L24.2705 85.8653L24.2347 85.8433L24.2002 85.8198L24.167 85.795L24.1353 85.7689L24.1051 85.7415L24.0763 85.7129L24.0492 85.6831L24.0237 85.6522L24 85.6202L23.978 85.5872L23.9579 85.5531L23.9395 85.5182L23.9232 85.4824L23.9088 85.4457L23.8965 85.4083L23.8863 85.3701L23.8783 85.3313L23.8724 85.2918L23.8689 85.2518L23.8677 85.2112H23.8677ZM86.6559 86H24.7812V84.4223H86.6559L87.5693 85.2112L86.6559 86V86ZM86.6559 86V84.4223L86.7029 84.4233L86.7493 84.4264L86.795 84.4314L86.84 84.4384L86.8841 84.4471L86.9275 84.4578L86.97 84.4702L87.0114 84.4843L87.0519 84.5002L87.0913 84.5175L87.1295 84.5365L87.1666 84.5571L87.2023 84.579L87.2369 84.6025L87.27 84.6273L87.3018 84.6534L87.332 84.6808L87.3607 84.7094L87.3879 84.7392L87.4133 84.7701L87.437 84.8021L87.459 84.8351L87.4792 84.8692L87.4976 84.9041L87.5139 84.9399L87.5283 84.9766L87.5406 85.014L87.5507 85.0522L87.5587 85.091L87.5646 85.1305L87.5681 85.1705L87.5693 85.2112L87.5681 85.2518L87.5646 85.2918L87.5587 85.3313L87.5507 85.3701L87.5406 85.4083L87.5283 85.4457L87.5139 85.4824L87.4976 85.5182L87.4792 85.5531L87.459 85.5872L87.437 85.6202L87.4133 85.6522L87.3879 85.6831L87.3607 85.7129L87.332 85.7415L87.3018 85.7689L87.27 85.795L87.2369 85.8198L87.2023 85.8433L87.1666 85.8653L87.1295 85.8858L87.0913 85.9048L87.0519 85.9222L87.0114 85.938L86.97 85.9521L86.9275 85.9645L86.8841 85.9752L86.84 85.984L86.795 85.9909L86.7493 85.9959L86.7029 85.999L86.6559 86ZM87.5693 34.269V85.2111H85.7425V34.269L87.5366 34.0596L87.5693 34.269ZM87.5693 34.269H85.7425L85.7437 34.2284L85.7472 34.1884L85.7531 34.1489L85.7611 34.1101L85.7712 34.0719L85.7835 34.0345L85.7979 33.9978L85.8142 33.962L85.8326 33.927L85.8528 33.893L85.8748 33.86L85.8985 33.828L85.9239 33.7971L85.9511 33.7673L85.9798 33.7387L86.01 33.7113L86.0418 33.6852L86.075 33.6603L86.1095 33.6369L86.1452 33.6149L86.1823 33.5944L86.2205 33.5754L86.2599 33.558L86.3004 33.5422L86.3418 33.5281L86.3843 33.5156L86.4276 33.505L86.4718 33.4962L86.5168 33.4893L86.5625 33.4842L86.6089 33.4812L86.6559 33.4802L86.7029 33.4812L86.7493 33.4842L86.795 33.4893L86.84 33.4962L86.8841 33.505L86.9275 33.5156L86.97 33.5281L87.0114 33.5422L87.0519 33.558L87.0913 33.5754L87.1295 33.5944L87.1666 33.6149L87.2023 33.6369L87.2368 33.6603L87.27 33.6852L87.3018 33.7113L87.332 33.7387L87.3607 33.7673L87.3879 33.7971L87.4133 33.828L87.437 33.86L87.459 33.893L87.4792 33.927L87.4976 33.962L87.5139 33.9978L87.5282 34.0345L87.5406 34.0719L87.5507 34.1101L87.5587 34.1489L87.5646 34.1884L87.5681 34.2284L87.5693 34.269ZM91.7906 7.16745L92.4664 5.70154L92.8968 6.86124L92.3034 7.67887L91.7377 8.50089L91.1996 9.32696L90.6891 10.1568L90.2064 10.9904L89.7512 11.8275L89.3235 12.6676L88.9234 13.5107L88.5508 14.3565L88.2057 15.2048L87.8881 16.0554L87.5979 16.9081L87.335 17.7624L87.0997 18.6185L86.8917 19.4759L86.7111 20.3345L86.5579 21.1941L86.432 22.0544L86.3333 22.9154L86.262 23.7765L86.218 24.6378L86.2013 25.499L86.2119 26.36L86.2498 27.2203L86.315 28.08L86.4076 28.9387L86.5274 29.7962L86.6746 30.6524L86.8491 31.5071L87.0508 32.36L87.28 33.2108L87.5366 34.0595L85.7753 34.4784L85.5063 33.5889L85.2661 32.6967L85.0543 31.8021L84.8712 30.9053L84.7168 30.0066L84.591 29.1063L84.4939 28.2046L84.4254 27.3019L84.3855 26.3983L84.3745 25.4941L84.3919 24.5899L84.4381 23.6855L84.513 22.7813L84.6165 21.8778L84.7486 20.9751L84.9094 20.0735L85.0987 19.1732L85.3167 18.2744L85.5633 17.3776L85.8385 16.4829L86.1422 15.5907L86.4745 14.7011L86.8351 13.8145L87.2243 12.9309L87.6419 12.0508L88.088 11.1745L88.5626 10.302L89.0654 9.43384L89.5966 8.57003L90.1562 7.71087L90.744 6.85677L91.3603 6.00774L91.7906 7.16744V7.16745ZM92.8968 6.86125L91.3603 6.00774L91.3867 5.97414L91.4147 5.94214L91.4443 5.91167L91.4754 5.88271L91.508 5.85536L91.5417 5.82961L91.5768 5.80555L91.613 5.78301L91.6502 5.76224L91.6885 5.74299L91.7277 5.72551L91.7677 5.70973L91.8086 5.69554L91.85 5.68322L91.892 5.6725L91.9347 5.66363L91.9777 5.65646L92.0212 5.65114L92.0649 5.64751L92.1088 5.64574L92.1528 5.64582L92.1968 5.64768L92.2408 5.65148L92.2848 5.65705L92.3285 5.66456L92.372 5.67393L92.4151 5.68525L92.4578 5.6985L92.5 5.7137L92.5415 5.73083L92.5825 5.74991L92.6227 5.77102L92.6616 5.79381L92.6986 5.81804L92.7339 5.84362L92.7674 5.87047L92.7991 5.89858L92.8289 5.92771L92.8568 5.95801L92.8829 5.98925L92.9069 6.02141L92.9292 6.05451L92.9494 6.08836L92.9677 6.12289L92.9841 6.15818L92.9984 6.19397L93.0108 6.23027L93.0211 6.26708L93.0294 6.30423L93.0356 6.3418L93.0398 6.37953L93.0418 6.41744L93.0417 6.45543L93.0396 6.4935L93.0352 6.53149L93.0287 6.56948L93.02 6.60722L93.0092 6.64479L92.9961 6.68202L92.9807 6.71891L92.9631 6.7553L92.9433 6.79118L92.9212 6.82655L92.8968 6.86125ZM76.048 0.0559729L92.4665 5.70154L91.7906 7.16745L75.3721 1.52188L74.8015 0.706783L76.048 0.0559729ZM76.048 0.0559729L75.3721 1.52188L75.3289 1.50592L75.2871 1.48828L75.2468 1.46903L75.208 1.44818L75.1706 1.42589L75.135 1.40217L75.1008 1.37709L75.0684 1.35067L75.0375 1.32306L75.0084 1.29428L74.981 1.26439L74.9554 1.23349L74.9315 1.20167L74.9094 1.16883L74.8893 1.13523L74.871 1.10078L74.8546 1.06566L74.8402 1.02995L74.8278 0.993565L74.8174 0.956672L74.8091 0.919358L74.8027 0.881621L74.7986 0.843631L74.7965 0.805304L74.7966 0.766807L74.799 0.728142L74.8037 0.689392L74.8105 0.650726L74.8197 0.612061L74.8311 0.57348L74.845 0.535152L74.8614 0.497078L74.8798 0.459764L74.9003 0.423631L74.9226 0.388849L74.9467 0.355333L74.9725 0.323084L75 0.29227L75.029 0.262807L75.0596 0.234778L75.0916 0.208101L75.1249 0.182943L75.1595 0.159305L75.1953 0.137187L75.2321 0.116588L75.2702 0.0975081L75.3091 0.0801171L75.3489 0.0643302L75.3896 0.0501473L75.431 0.0377373L75.4731 0.0270156L75.5158 0.0179825L75.559 0.0108066L75.6027 0.00531915L75.6467 0.00177341L75.6911 5.43295e-07L75.7357 8.49655e-05L75.7804 0.0021111L75.8253 0.00616335L75.8701 0.0120729L75.9148 0.0200086L75.9595 0.029886L76.0039 0.0418739L76.048 0.0559724V0.0559729ZM36.065 1.52188L35.3891 0.0559729L36.628 0.658579L37.0843 2.53486L37.6932 4.28493L38.4433 5.91047L39.324 7.41243L40.3243 8.79198L41.434 10.05L42.6428 11.1876L43.9405 12.205L45.3171 13.1029L46.7626 13.8813L48.2666 14.5405L49.8188 15.0802L51.409 15.5004L53.0262 15.8011L54.6601 15.9822L56.2997 16.0435L57.9343 15.9851L59.5532 15.8072L61.1457 15.5098L62.7013 15.0932L64.2095 14.5575L65.6602 13.9028L67.0433 13.1293L68.3489 12.2367L69.5672 11.2246L70.6884 10.0923L71.7026 8.83884L72.5996 7.46293L73.3691 5.96316L74 4.3382L74.4813 2.58679L74.8015 0.706791L76.6185 0.871077L76.2759 2.88227L75.7572 4.77012L75.0727 6.53285L74.2332 8.1692L73.2498 9.67766L72.1338 11.0573L70.8968 12.3066L69.5511 13.4248L68.1084 14.4112L66.581 15.2656L64.981 15.9876L63.3201 16.5777L61.6098 17.0358L59.8619 17.3623L58.0874 17.5574L56.2977 17.6212L54.504 17.5542L52.7173 17.3562L50.9488 17.0273L49.2096 16.5677L47.511 15.977L45.8646 15.2554L44.2817 14.4029L42.7743 13.4195L41.3538 12.3057L40.0322 11.0619L38.8212 9.68889L37.7326 8.18727L36.7776 6.55834L35.9676 4.80312L35.3136 2.92286L34.8262 0.919269L36.065 1.52187L36.065 1.52188ZM36.628 0.658578L34.8262 0.919273L34.8196 0.879088L34.8154 0.839072L34.8136 0.799309L34.8141 0.759884L34.8169 0.720712L34.8219 0.682047L34.829 0.643888L34.8383 0.606236L34.8496 0.56909L34.863 0.532704L34.8784 0.496993L34.8957 0.462043L34.9149 0.427852L34.9359 0.394589L34.9588 0.362256L34.9834 0.330935L35.0097 0.300627L35.0376 0.271502L35.0671 0.243474L35.0983 0.216627L35.1309 0.191132L35.165 0.166903L35.2005 0.144109L35.2374 0.12275L35.2755 0.102911L35.315 0.0845912L35.3558 0.06796L35.3976 0.0529328L35.4406 0.0396784L35.4848 0.028197L35.53 0.0185729L35.5761 0.0108905L35.6227 0.00523417L35.669 0.00160402L35.715 0L35.7607 0.00042211L35.806 0.00287036L35.8508 0.00717589L35.895 0.0133387L35.9386 0.0213588L35.9816 0.0311518L36.0237 0.0427176L36.0651 0.055972L36.1056 0.0709147L36.1452 0.0875459L36.1837 0.105697L36.2211 0.125452L36.2574 0.146642L36.2925 0.169351L36.3262 0.193496L36.3586 0.218991L36.3897 0.245922L36.4193 0.274035L36.4473 0.303498L36.4737 0.334143L36.4984 0.366055L36.5214 0.398979L36.5426 0.433086L36.5619 0.46829L36.5793 0.504423L36.5946 0.541568L36.6079 0.579727L36.6191 0.61873L36.628 0.658578V0.658578Z" fill="#333333"/>
<path fill-rule="evenodd" clip-rule="evenodd" d="M35.7271 0.789062C39.8707 22.1475 73.1135 22.2132 75.71 0.789062C62.3274 7.79163 48.9997 7.79163 35.7271 0.789062Z" fill="#66798F"/>
<path d="M76.1832 1.46375L75.2366 0.114351L76.6184 0.871196L76.2758 2.88239L75.7571 4.77024L75.0726 6.53297L74.2331 8.16932L73.2497 9.67778L72.1337 11.0574L70.8967 12.3067L69.551 13.4249L68.1083 14.4113L66.5809 15.2657L64.9809 15.9878L63.32 16.5778L61.6097 17.0359L59.8618 17.3624L58.0872 17.5575L56.2976 17.6213L54.5039 17.5543L52.7172 17.3563L50.9486 17.0274L49.2095 16.5678L47.5109 15.9771L45.8645 15.2555L44.2816 14.403L42.7741 13.4196L41.3537 12.3059L40.0321 11.0621L38.8211 9.68901L37.7324 8.18739L36.7775 6.55846L35.9675 4.80324L35.3134 2.92298L34.826 0.919388L36.6278 0.658693L37.0841 2.53497L37.693 4.28504L38.4432 5.91059L39.3239 7.41255L40.3242 8.79209L41.4339 10.0502L42.6427 11.1877L43.9403 12.2051L45.317 13.103L46.7625 13.8814L48.2665 14.5406L49.8187 15.0803L51.4089 15.5005L53.0261 15.8013L54.6599 15.9823L56.2995 16.0436L57.9342 15.9852L59.5531 15.8073L61.1455 15.5099L62.7012 15.0933L64.2094 14.5576L65.6601 13.9029L67.0432 13.1295L68.3488 12.2369L69.5671 11.2247L70.6883 10.0925L71.7025 8.83896L72.5995 7.46304L73.369 5.96328L73.9999 4.33832L74.4812 2.5869L74.8013 0.706906L76.1832 1.46375L76.1832 1.46375ZM76.6184 0.871194L74.8014 0.706909L74.8074 0.666639L74.8157 0.62713L74.8263 0.58838L74.839 0.550474L74.8538 0.513413L74.8705 0.47728L74.8891 0.442161L74.9098 0.40797L74.9322 0.374876L74.9564 0.34288L74.9822 0.311982L75.0097 0.282265L75.0388 0.253815L75.0693 0.226631L75.1014 0.200713L75.1347 0.176231L75.1694 0.153099L75.2054 0.131403L75.2425 0.111226L75.2808 0.0925684L75.3201 0.0754307L75.3605 0.0599815L75.4018 0.0462207L75.4439 0.0341484L75.4869 0.0238489L75.5306 0.0153222L75.575 0.00865288L75.62 0.00384081L75.6656 0.000970454L75.7116 0.000126232L75.7582 0.00122372L75.805 0.00443176L75.8516 0.00966594L75.8974 0.0168418L75.9422 0.0259594L75.9861 0.0369343L76.029 0.049682L76.0709 0.0641182L76.1116 0.0802429L76.1511 0.098056L76.1895 0.117389L76.2265 0.138325L76.2623 0.160613L76.2967 0.184336L76.3296 0.209493L76.3611 0.235833L76.3911 0.263523L76.4195 0.292311L76.4463 0.322281L76.4714 0.353349L76.4947 0.385429L76.5163 0.418523L76.5362 0.45246L76.5541 0.487327L76.57 0.522953L76.584 0.559339L76.5959 0.596485L76.6058 0.634221L76.6135 0.672549L76.6191 0.711383L76.6224 0.750808L76.6234 0.790571L76.6221 0.830756L76.6184 0.871194L76.6184 0.871194ZM36.6279 0.658704L34.8261 0.9194L36.2031 0.115869L37.4253 0.740424L38.6468 1.3242L39.8672 1.86721L41.087 2.36944L42.3058 2.83114L43.524 3.25232L44.7414 3.63307L45.9581 3.97346L47.1741 4.27349L48.3896 4.53334L49.6047 4.75309L50.8194 4.93283L52.0338 5.07255L53.2482 5.17225L54.4626 5.23211L55.6772 5.25211L56.8921 5.23211L58.1075 5.17225L59.3236 5.07255L60.5404 4.93283L61.7581 4.75309L62.9769 4.53326L64.1969 4.27332L65.4179 3.97312L66.6402 3.63273L67.864 3.25182L69.0892 2.83055L70.3158 2.36868L71.5438 1.86628L72.7732 1.32311L74.0042 0.739074L75.2366 0.114349L76.1832 1.46375L74.9067 2.11093L73.6294 2.71691L72.3512 3.28153L71.0722 3.80486L69.7924 4.28666L68.5119 4.727L67.2306 5.12582L65.9485 5.48292L64.6659 5.79815L63.3826 6.0716L62.0989 6.30308L60.8149 6.49261L59.5304 6.6401L58.2459 6.74554L56.9615 6.80877L55.6772 6.82979L54.3932 6.80877L53.1096 6.74554L51.8266 6.6401L50.5445 6.49261L49.2631 6.30308L47.9828 6.07151L46.7035 5.79798L45.4253 5.48258L44.1486 5.12548L42.8732 4.7265L41.5993 4.28607L40.3266 3.8041L39.0555 3.2806L37.7857 2.71582L36.5176 2.10958L35.2508 1.46223L36.6279 0.658702L36.6279 0.658704ZM36.2031 0.115869L35.2508 1.46223L35.2113 1.44019L35.1736 1.41673L35.1376 1.39182L35.1034 1.36565L35.0711 1.3383L35.0405 1.30968L35.0117 1.27996L34.9848 1.24923L34.9599 1.21757L34.9367 1.18499L34.9156 1.15156L34.8964 1.11736L34.8791 1.08241L34.8638 1.04687L34.8504 1.01082L34.8392 0.974269L34.8299 0.937292L34.8227 0.899893L34.8175 0.862241L34.8145 0.82442L34.8135 0.78643L34.8147 0.748271L34.818 0.710197L34.8234 0.672122L34.8311 0.634217L34.8409 0.59648L34.8531 0.558997L34.8673 0.521851L34.884 0.485043L34.9028 0.448741L34.924 0.413031L34.9475 0.377827L34.973 0.34372L35.0002 0.311133L35.029 0.280066L35.0593 0.250518L35.091 0.222574L35.1241 0.19615L35.1585 0.17133L35.1941 0.148114L35.2308 0.126587L35.2685 0.106579L35.3072 0.0883434L35.3468 0.0717122L35.3873 0.0567694L35.4284 0.0435995L35.4702 0.0320336L35.5125 0.0223251L35.5553 0.014305L35.5986 0.00805775L35.6422 0.00358337L35.686 0.000966292L35.73 0.00012207L35.7742 0.00113514L35.8183 0.00400549L35.8624 0.00873313L35.9063 0.0153181L35.95 0.0238447L35.9934 0.034313L36.0364 0.0466387L36.079 0.0609904L36.121 0.0772839L36.1624 0.0956035L36.2031 0.115865V0.115869Z" fill="#333333"/>
<path fill-rule="evenodd" clip-rule="evenodd" d="M86.6558 34.2689C83.7042 25.0126 85.5281 15.2969 92.1284 6.43445L110.524 23.8965L98.3613 39.5209L86.6558 34.269L86.6558 34.2689Z" fill="#66798F"/>
<path d="M92.8037 5.90366L91.4524 6.96535L92.8963 6.86126L92.303 7.67889L91.7373 8.50091L91.1991 9.32698L90.6887 10.1568L90.206 10.9904L89.7507 11.8275L89.3231 12.6676L88.923 13.5107L88.5504 14.3565L88.2053 15.2048L87.8877 16.0554L87.5974 16.9081L87.3346 17.7624L87.0993 18.6186L86.8913 19.476L86.7107 20.3345L86.5574 21.1941L86.4315 22.0545L86.3329 22.9154L86.2615 23.7765L86.2175 24.6379L86.2008 25.4991L86.2115 26.36L86.2494 27.2203L86.3146 28.08L86.4072 28.9387L86.5269 29.7962L86.6742 30.6524L86.8486 31.5071L87.0504 32.36L87.2795 33.2109L87.5361 34.0595L85.7748 34.4785L85.5059 33.5889L85.2656 32.6967L85.0539 31.8021L84.8708 30.9054L84.7164 30.0066L84.5905 29.1063L84.4935 28.2046L84.425 27.3019L84.3851 26.3983L84.374 25.4942L84.3915 24.5899L84.4377 23.6855L84.5125 22.7813L84.6161 21.8779L84.7482 20.9751L84.9089 20.0735L85.0983 19.1732L85.3163 18.2745L85.5629 17.3776L85.8381 16.4829L86.1418 15.5908L86.4741 14.7011L86.8347 13.8145L87.2238 12.9309L87.6415 12.0509L88.0876 11.1746L88.5622 10.3021L89.065 9.43386L89.5962 8.57005L90.1558 7.71089L90.7436 6.85679L91.3599 6.00775L92.8038 5.90366L92.8037 5.90366ZM92.8963 6.86126L91.3599 6.00775L91.3862 5.97415L91.4143 5.94216L91.4439 5.91168L91.475 5.88272L91.5075 5.85537L91.5413 5.82962L91.5764 5.80556L91.6125 5.78302L91.6498 5.76225L91.6881 5.74301L91.7273 5.72553L91.7673 5.70974L91.8081 5.69556L91.8496 5.68324L91.8916 5.67251L91.9342 5.66365L91.9773 5.65647L92.0208 5.65116L92.0645 5.64753L92.1083 5.64575L92.1523 5.64584L92.1964 5.64769L92.2404 5.65149L92.2844 5.65706L92.3281 5.66458L92.3716 5.67395L92.4147 5.68526L92.4574 5.69852L92.4995 5.71371L92.5411 5.73085L92.5821 5.74993L92.6222 5.77103L92.6611 5.79383L92.6982 5.81806L92.7335 5.84364L92.767 5.87048L92.7987 5.8986L92.8285 5.92772L92.8563 5.95803L92.8825 5.98927L92.9065 6.02143L92.9288 6.05452L92.949 6.08838L92.9673 6.12291L92.9837 6.15819L92.998 6.19399L93.0104 6.23029L93.0207 6.2671L93.029 6.30424L93.0351 6.34181L93.0393 6.37955L93.0414 6.41745L93.0413 6.45545L93.0391 6.49352L93.0347 6.53151L93.0283 6.5695L93.0196 6.60724L93.0087 6.6448L92.9956 6.68203L92.9803 6.71893L92.9627 6.75531L92.9429 6.79119L92.9208 6.82657L92.8963 6.86126H92.8963ZM109.848 24.4274L91.4524 6.96536L92.8038 5.90366L111.199 23.3657L111.281 24.3366L109.848 24.4274ZM109.848 24.4274L111.199 23.3657L111.23 23.3964L111.258 23.4281L111.285 23.4607L111.309 23.4941L111.331 23.5282L111.351 23.5631L111.369 23.5985L111.385 23.6346L111.399 23.671L111.41 23.7079L111.42 23.7451L111.427 23.7826L111.433 23.8203L111.436 23.8581L111.437 23.8959L111.436 23.9338L111.433 23.9716L111.427 24.0092L111.42 24.0466L111.411 24.0836L111.399 24.1203L111.386 24.1566L111.37 24.1924L111.353 24.2276L111.333 24.2622L111.311 24.296L111.287 24.329L111.262 24.3613L111.234 24.3925L111.204 24.4228L111.172 24.452L111.138 24.4801L111.102 24.5067L111.066 24.5313L111.028 24.5542L110.989 24.5752L110.95 24.5944L110.909 24.6117L110.868 24.6271L110.827 24.6408L110.784 24.6526L110.742 24.6627L110.699 24.6708L110.655 24.6772L110.612 24.6817L110.568 24.6844L110.524 24.6854L110.48 24.6844L110.436 24.6818L110.393 24.6773L110.35 24.671L110.307 24.6629L110.264 24.653L110.222 24.6414L110.181 24.628L110.14 24.6128L110.1 24.5958L110.061 24.5771L110.023 24.5565L109.985 24.5342L109.949 24.5101L109.914 24.4843L109.88 24.4567L109.848 24.4274ZM97.6029 39.0808L109.765 23.4564L111.281 24.3366L99.119 39.961L97.9398 40.2209L97.6029 39.0808L97.6029 39.0808ZM97.6029 39.0808L99.119 39.961L99.0919 39.9941L99.063 40.0256L99.0327 40.0556L99.001 40.084L98.9678 40.1107L98.9334 40.1358L98.8978 40.1594L98.8611 40.1812L98.8233 40.2014L98.7846 40.2199L98.745 40.2367L98.7047 40.2518L98.6635 40.2652L98.6218 40.2769L98.5794 40.2868L98.5366 40.295L98.4934 40.3014L98.4499 40.306L98.4061 40.3088L98.3622 40.3098L98.3182 40.309L98.2742 40.3064L98.2303 40.3018L98.1865 40.2955L98.1429 40.2872L98.0997 40.277L98.0569 40.265L98.0145 40.251L97.9727 40.235L97.9315 40.2172L97.8911 40.1974L97.8514 40.1756L97.8131 40.1521L97.7765 40.1272L97.7418 40.101L97.709 40.0736L97.678 40.045L97.6489 40.0153L97.6217 39.9845L97.5963 39.9528L97.573 39.9202L97.5516 39.8868L97.5321 39.8526L97.5146 39.8177L97.4991 39.7822L97.4856 39.7461L97.4741 39.7096L97.4647 39.6726L97.4572 39.6353L97.4519 39.5977L97.4486 39.5599L97.4475 39.522L97.4484 39.484L97.4515 39.4459L97.4568 39.408L97.4641 39.3702L97.4737 39.3325L97.4855 39.2952L97.4994 39.2583L97.5156 39.2217L97.5341 39.1856L97.5547 39.15L97.5777 39.1151L97.6029 39.0808H97.6029ZM87.0766 33.569L98.7821 38.8209L97.9398 40.2209L86.2344 34.969L85.7749 34.4784L87.0766 33.569ZM87.0766 33.569L86.2344 34.969L86.1933 34.9494L86.1538 34.9282L86.1158 34.9055L86.0797 34.8815L86.0452 34.8561L86.0123 34.8294L85.9813 34.8015L85.952 34.7725L85.9245 34.7423L85.8989 34.7112L85.8751 34.6791L85.8532 34.6461L85.8331 34.6123L85.815 34.5778L85.7988 34.5426L85.7846 34.5068L85.7724 34.4704L85.7622 34.4336L85.754 34.3964L85.748 34.3588L85.744 34.3209L85.7421 34.2828L85.7423 34.2447L85.7448 34.2063L85.7494 34.168L85.7562 34.1298L85.7653 34.0917L85.7765 34.0538L85.7902 34.0161L85.8061 33.9787L85.8243 33.9418L85.845 33.9053L85.8676 33.8698L85.8922 33.8356L85.9185 33.8029L85.9463 33.7717L85.9758 33.7418L86.0066 33.7135L86.0389 33.6867L86.0725 33.6614L86.1074 33.6377L86.1435 33.6156L86.1806 33.595L86.2189 33.576L86.258 33.5587L86.298 33.5431L86.3387 33.5291L86.3802 33.5169L86.4223 33.5063L86.4649 33.4974L86.508 33.4904L86.5515 33.4852L86.5954 33.4817L86.6395 33.4801L86.6837 33.4803L86.7281 33.4824L86.7724 33.4864L86.8167 33.4923L86.8608 33.5002L86.9047 33.5099L86.9484 33.5217L86.9916 33.5354L87.0344 33.5511L87.0766 33.569Z" fill="#333333"/>
<path fill-rule="evenodd" clip-rule="evenodd" d="M24.7809 34.2689C27.7325 25.0126 25.9086 15.2969 19.3083 6.43445L0.913086 23.8965L13.0754 39.5209L24.7809 34.269L24.7809 34.2689Z" fill="#66798F"/>
<path d="M19.9842 6.96536L18.6329 5.90366L20.0768 6.00775L20.693 6.85679L21.2808 7.71089L21.8405 8.57005L22.3717 9.43386L22.8745 10.3021L23.3491 11.1746L23.7951 12.0509L24.2128 12.9309L24.602 13.8145L24.9626 14.7011L25.2949 15.5908L25.5986 16.4829L25.8738 17.3776L26.1204 18.2745L26.3384 19.1732L26.5277 20.0735L26.6884 20.9751L26.8206 21.8779L26.9241 22.7813L26.999 23.6855L27.0451 24.5899L27.0626 25.4942L27.0516 26.3983L27.0117 27.3019L26.9432 28.2046L26.8461 29.1063L26.7203 30.0066L26.5658 30.9054L26.3828 31.8021L26.171 32.6967L25.9307 33.5889L25.6618 34.4784L23.9005 34.0595L24.1571 33.2108L24.3862 32.36L24.588 31.5071L24.7625 30.6524L24.9097 29.7962L25.0295 28.9387L25.122 28.08L25.1872 27.2203L25.2252 26.36L25.2358 25.4991L25.2191 24.6379L25.1751 23.7765L25.1038 22.9154L25.0051 22.0545L24.8792 21.1941L24.7259 20.3345L24.5454 19.476L24.3374 18.6186L24.1021 17.7624L23.8392 16.9081L23.549 16.0554L23.2314 15.2048L22.8862 14.3565L22.5137 13.5107L22.1136 12.6676L21.6859 11.8275L21.2307 10.9904L20.748 10.1568L20.2375 9.32698L19.6994 8.50091L19.1337 7.67889L18.5403 6.86126L19.9842 6.96535L19.9842 6.96536ZM20.0768 6.00775L18.5403 6.86126L18.5159 6.82656L18.4938 6.79119L18.4739 6.75531L18.4564 6.71893L18.441 6.68203L18.4279 6.6448L18.4171 6.60724L18.4084 6.5695L18.4019 6.53151L18.3975 6.49352L18.3954 6.45545L18.3953 6.41745L18.3973 6.37955L18.4015 6.34181L18.4077 6.30424L18.416 6.2671L18.4262 6.23029L18.4387 6.19399L18.4529 6.15819L18.4694 6.12291L18.4876 6.08838L18.5079 6.05452L18.5302 6.02143L18.5542 5.98927L18.5803 5.95803L18.6082 5.92772L18.638 5.8986L18.6696 5.87048L18.7032 5.84364L18.7385 5.81806L18.7755 5.79383L18.8144 5.77103L18.8546 5.74993L18.8956 5.73085L18.9371 5.71371L18.9792 5.69852L19.022 5.68526L19.0651 5.67395L19.1086 5.66458L19.1523 5.65706L19.1962 5.65149L19.2402 5.64769L19.2843 5.64584L19.3283 5.64575L19.3722 5.64752L19.4159 5.65116L19.4594 5.65647L19.5024 5.66365L19.545 5.67251L19.5871 5.68324L19.6285 5.69556L19.6694 5.70974L19.7094 5.72553L19.7486 5.74301L19.7869 5.76225L19.8241 5.78302L19.8603 5.80556L19.8954 5.82962L19.9291 5.85537L19.9617 5.88272L19.9927 5.91168L20.0224 5.94216L20.0504 5.97415L20.0768 6.00775H20.0768ZM0.237737 23.3657L18.6329 5.90366L19.9843 6.96535L1.58907 24.4274L0.155327 24.3366L0.237733 23.3657H0.237737ZM0.237737 23.3657L1.58907 24.4274L1.55652 24.4567L1.5228 24.4843L1.4877 24.5101L1.45153 24.5342L1.41419 24.5565L1.37597 24.5771L1.33677 24.5958L1.29679 24.6128L1.25603 24.628L1.21458 24.6414L1.17255 24.653L1.13003 24.6629L1.08711 24.671L1.04381 24.6773L1.00031 24.6818L0.956514 24.6844L0.91272 24.6854L0.868927 24.6844L0.825134 24.6817L0.781438 24.6772L0.738036 24.6708L0.695024 24.6627L0.652306 24.6526L0.610077 24.6408L0.568336 24.6271L0.52728 24.6117L0.486908 24.5944L0.447416 24.5752L0.408706 24.5542L0.370973 24.5313L0.334316 24.5066L0.298733 24.4801L0.264813 24.4519L0.232848 24.4228L0.202935 24.3925L0.175076 24.3613L0.149269 24.329L0.125417 24.296L0.103716 24.2622L0.0840677 24.2276L0.0664722 24.1924L0.0509294 24.1566L0.0374394 24.1203L0.0260023 24.0836L0.016618 24.0465L0.00938428 24.0091L0.00410562 23.9716L0.00107528 23.9338L0 23.8959L0.00107528 23.8581L0.00420338 23.8203L0.00948204 23.7826L0.0169113 23.7451L0.0262956 23.7079L0.0379282 23.671L0.0516137 23.6346L0.0674496 23.5985L0.0853384 23.5631L0.105378 23.5282L0.127568 23.4941L0.151908 23.4607L0.178399 23.4281L0.206943 23.3964L0.237735 23.3657H0.237737ZM12.3177 39.9609L0.155339 24.3365L1.67148 23.4564L13.8338 39.0807L13.4969 40.2209L12.3177 39.9609L12.3177 39.9609ZM12.3177 39.9609L13.8338 39.0807L13.859 39.115L13.882 39.15L13.9026 39.1855L13.9211 39.2216L13.9373 39.2582L13.9512 39.2952L13.963 39.3325L13.9726 39.3701L13.98 39.408L13.9852 39.4459L13.9883 39.484L13.9892 39.5219L13.9881 39.5598L13.9848 39.5977L13.9795 39.6352L13.972 39.6725L13.9627 39.7095L13.9511 39.7461L13.9376 39.7821L13.9221 39.8177L13.9046 39.8525L13.8851 39.8867L13.8637 39.9202L13.8404 39.9527L13.815 39.9845L13.7878 40.0152L13.7587 40.0449L13.7278 40.0736L13.6949 40.101L13.6602 40.1272L13.6236 40.1521L13.5853 40.1755L13.5456 40.1973L13.5052 40.2172L13.464 40.235L13.4222 40.2509L13.3798 40.2649L13.337 40.2769L13.2938 40.2871L13.2502 40.2954L13.2064 40.3017L13.1625 40.3063L13.1185 40.3089L13.0745 40.3098L13.0306 40.3088L12.9868 40.306L12.9433 40.3013L12.9001 40.2949L12.8573 40.2868L12.8149 40.2768L12.7732 40.2652L12.732 40.2518L12.6917 40.2367L12.6521 40.2199L12.6134 40.2014L12.5756 40.1812L12.5389 40.1593L12.5033 40.1358L12.4689 40.1107L12.4358 40.0839L12.404 40.0556L12.3737 40.0256L12.3448 39.994L12.3177 39.9609H12.3177ZM25.2023 34.969L13.4969 40.2209L12.6546 38.8208L24.3601 33.5689L25.6619 34.4784L25.2023 34.969ZM25.2023 34.969L24.3601 33.5689L24.4023 33.5511L24.4451 33.5353L24.4883 33.5216L24.532 33.5098L24.5759 33.5001L24.62 33.4923L24.6643 33.4863L24.7087 33.4824L24.7531 33.4803L24.7972 33.4801L24.8413 33.4817L24.8852 33.4852L24.9287 33.4904L24.9718 33.4974L25.0144 33.5063L25.0566 33.5168L25.098 33.5291L25.1388 33.5431L25.1788 33.5587L25.2179 33.576L25.2561 33.5949L25.2932 33.6155L25.3293 33.6376L25.3642 33.6614L25.3978 33.6867L25.4301 33.7134L25.461 33.7418L25.4904 33.7716L25.5183 33.8028L25.5446 33.8356L25.5691 33.8697L25.5918 33.9053L25.6124 33.9417L25.6307 33.9787L25.6465 34.016L25.6602 34.0538L25.6714 34.0917L25.6805 34.1297L25.6874 34.168L25.692 34.2063L25.6944 34.2446L25.6946 34.2828L25.6928 34.3209L25.6887 34.3588L25.6827 34.3963L25.6746 34.4336L25.6643 34.4704L25.6521 34.5068L25.6379 34.5426L25.6217 34.5778L25.6036 34.6123L25.5836 34.6461L25.5617 34.6791L25.5378 34.7111L25.5122 34.7423L25.4847 34.7724L25.4554 34.8015L25.4244 34.8293L25.3916 34.856L25.3571 34.8814L25.3209 34.9055L25.283 34.9282L25.2435 34.9494L25.2023 34.969H25.2023Z" fill="#333333"/>
<path d="M42.7887 52.7065V50.7431H43.6062C43.8722 50.7431 44.1351 50.711 44.3948 50.6469C44.6544 50.5812 44.9061 50.4786 45.1513 50.3392C45.3933 50.2093 45.6065 50.041 45.794 49.8359C45.9815 49.6291 46.129 49.3887 46.238 49.1098C46.3454 48.8325 46.4015 48.5216 46.4047 48.1738C46.4047 47.3692 46.1418 46.7665 45.6161 46.3642C45.0904 45.9619 44.3018 45.7615 43.2487 45.7615C42.9186 45.7615 42.5659 45.7776 42.1909 45.8096C41.8174 45.8417 41.4199 45.8898 41 45.9539V52.7065H42.7887ZM42.7887 47.2265C42.8929 47.2185 42.9811 47.2137 43.0532 47.2105C43.1269 47.2089 43.1862 47.2073 43.2311 47.2073C43.6318 47.2073 43.9331 47.2874 44.1319 47.4493C44.3322 47.6112 44.4332 47.8532 44.4332 48.1738C44.4332 48.5665 44.3322 48.8598 44.1303 49.0553C43.9283 49.2509 43.6254 49.3486 43.2215 49.3486H42.7887V47.2265ZM49.3235 52.7065V50.6501H50.0559L51.0946 52.7065H53.2968L51.7197 50.2366C51.9713 50.0923 52.1877 49.9192 52.372 49.7157C52.5547 49.5137 52.6974 49.2845 52.7968 49.0297C52.8977 48.7748 52.9474 48.4959 52.949 48.193C52.949 47.8067 52.8849 47.4637 52.7567 47.164C52.6269 46.8643 52.4345 46.6078 52.1797 46.3946C51.6668 45.9731 50.8686 45.7615 49.7835 45.7615C49.4228 45.7615 49.0558 45.7776 48.6823 45.8096C48.3089 45.8417 47.929 45.8898 47.5443 45.9539H47.5347V52.7065H49.3235ZM49.3235 47.2265C49.4276 47.2185 49.5174 47.2137 49.5911 47.2105C49.6665 47.2089 49.7274 47.2073 49.7755 47.2073C50.1681 47.2073 50.4663 47.2906 50.6698 47.4557C50.8734 47.6208 50.976 47.866 50.9776 48.193C50.9776 48.5616 50.875 48.847 50.6698 49.0457C50.4647 49.2461 50.1569 49.347 49.7466 49.3486H49.3235V47.2265ZM56.3727 52.7065V45.9539H54.4477V52.7065H56.3727ZM59.6729 52.7065V49.1755L59.6264 48.4478H59.6632L62.5002 52.7065H64.5326V45.9539H62.8657V49.7061L62.917 50.2735H62.8753L60.0207 45.9539H58.0204V52.7065H59.6729ZM67.299 47.4749V52.7065H69.2209V47.4749H71V45.9539H65.5007V47.4749H67.299Z" fill="#2B2A29"/>
<path fill-rule="evenodd" clip-rule="evenodd" d="M51.9473 26H63.8154C64.9207 26 65.9752 26.0846 66.9846 26.2481C67.4865 26.3383 67.9207 26.4229 68.2873 26.5075C68.6482 26.5921 68.9414 26.6767 69.167 26.7612L69.8436 27.0094L69.5654 29.8169C68.869 29.6945 66.8842 29.683 65.5384 29.613C63.3942 29.5014 60.5729 29.2691 58.6527 29.327C58.765 29.1906 58.8326 29.0161 58.8326 28.8266V28.8264C58.8326 28.4579 58.5768 28.1464 58.2341 28.0602L58.2557 28.0365H58.0426H51.9473C51.3874 28.0365 50.9292 27.5785 50.9292 27.0184V27.0181C50.9292 26.4581 51.3873 26 51.9473 26Z" fill="#5CA7F2"/>
<path fill-rule="evenodd" clip-rule="evenodd" d="M53.3789 33.3097H53.9117C54.4776 33.3097 54.9405 33.7727 54.9405 34.3385C54.9405 34.9043 54.4776 35.3673 53.9117 35.3673H53.3789C52.8131 35.3673 52.3501 34.9043 52.3501 34.3385C52.3501 33.7727 52.8131 33.3097 53.3789 33.3097Z" fill="#FFED00"/>
<path fill-rule="evenodd" clip-rule="evenodd" d="M47.61 39.1091H63.2885C63.7006 39.0843 63.8678 39.0247 64.0423 38.9493C64.4666 38.7659 64.6051 38.4794 64.6051 38.1749C64.5996 37.9663 64.4528 37.7913 64.1766 37.6561C64.1533 37.6448 64.1334 37.6351 64.1086 37.6238C64.2981 37.7165 65.6513 37.5533 67.6028 37.2932C67.6658 37.2849 70.54 36.8322 70.5744 36.1832C70.8518 36.7185 70.9945 37.3595 71 38.1073C71.0036 38.9696 70.8871 39.7494 70.652 40.4425C69.9107 41.5455 62.1166 41.441 57.5005 41.2116C57.4219 41.1696 57.3322 41.1456 57.2373 41.1456H57.1828H51.3317H47.61C47.0499 41.1456 46.5918 40.6876 46.5918 40.1275V40.1272C46.5918 39.5672 47.0499 39.1091 47.61 39.1091Z" fill="#92C02C"/>
<path fill-rule="evenodd" clip-rule="evenodd" d="M44.5939 39.1091H45.136C45.6961 39.1091 46.1543 39.5673 46.1543 40.1273V40.1274C46.1543 40.6874 45.6961 41.1456 45.136 41.1456H44.5939C44.0339 41.1456 43.5757 40.6874 43.5757 40.1274V40.1273C43.5757 39.5673 44.0339 39.1091 44.5939 39.1091Z" fill="#92C02C"/>
<path d="M70.6519 40.4425C70.5197 40.8323 70.3499 41.1952 70.1428 41.5302C69.5676 42.455 68.6766 43.1599 67.4586 43.6449C66.2462 44.1242 64.6841 44.3667 62.7725 44.3667H53.3337C52.7565 44.3667 52.2842 43.8945 52.2842 43.3173V43.317C52.2842 42.7397 52.7565 42.2674 53.3337 42.2674H57.0688H57.2373C57.5459 42.2674 57.7982 42.0151 57.7982 41.7066V41.7065C57.7982 41.4928 57.6773 41.3063 57.5005 41.2116C62.1166 41.441 69.9107 41.5455 70.6519 40.4425Z" fill="#5CA7F2"/>
<path fill-rule="evenodd" clip-rule="evenodd" d="M56.4447 33.3098H57.057H58.5486L58.5746 33.3096L58.6007 33.3094L58.6266 33.3092L58.6525 33.309L58.6784 33.3087L58.6987 33.3086H58.7044L58.7302 33.3084L58.756 33.3082L58.7818 33.3081L58.8077 33.3079L58.8334 33.3078L58.8478 33.3077H58.8591L58.8848 33.3075L58.9104 33.3074L58.9361 33.3073L58.9617 33.3072L58.9873 33.3071L58.996 33.307H59.0128L59.0383 33.3069L59.0638 33.3068L59.0892 33.3066H59.1147L59.1401 33.3065H59.1432H59.1654L59.1908 33.3064H59.2161L59.2414 33.3063H59.2667H59.2895H59.292L59.3172 33.3062H59.3424H59.3676H59.3927H59.4179H59.435H59.443L59.4681 33.3063H59.4931H59.5181L59.5431 33.3064H59.5681H59.5797L59.5931 33.3065H59.618L59.643 33.3066L59.6678 33.3068L59.6927 33.3069H59.7175L59.7236 33.307H59.7424L59.7671 33.3071L59.7919 33.3072L59.8167 33.3074L59.8414 33.3075L59.8661 33.3076H59.8668L59.8908 33.3078L59.9155 33.3079L59.9401 33.308L59.9647 33.3082L59.9894 33.3084L60.0091 33.3085H60.0139L60.0385 33.3087L60.0631 33.309L60.0875 33.3092L60.1121 33.3094L60.1366 33.3096L60.1509 33.3097L60.161 33.3098C60.8566 33.3167 61.5292 33.332 62.1981 33.3577L62.2212 33.3586L62.3571 33.3641L62.3601 33.3642L62.4412 33.3675L62.4929 33.3697L62.5222 33.371L62.6032 33.3747L62.6287 33.3758L62.6842 33.3783L62.7645 33.3821H62.7652L62.8462 33.3861L62.9004 33.3887L62.9272 33.3901L63.0084 33.3943L63.0364 33.3957L63.0895 33.3985L63.1707 33.4028L63.1724 33.4029L63.2519 33.4073L63.3087 33.4105L63.3332 33.4118L63.4145 33.4166L63.4452 33.4183L63.5774 33.4262L63.5817 33.4265L63.6591 33.4313L63.7187 33.4349L63.7408 33.4364L63.8227 33.4416L63.8559 33.4437L63.9046 33.4469L63.9866 33.4525L63.9934 33.4529L64.0688 33.458L64.1314 33.4623L64.1512 33.4637L64.2336 33.4695L64.2697 33.4721L64.3164 33.4754L64.3992 33.4814L64.4085 33.4822L64.4821 33.4876L64.5477 33.4926L64.5652 33.4939L64.6486 33.5002L64.6875 33.5033L64.7322 33.5067L64.8158 33.5134L64.8278 33.5144L64.8998 33.5202L64.9688 33.5257L64.9839 33.527L65.0683 33.534L65.1103 33.5375L65.1529 33.5412L65.2377 33.5484L65.2524 33.5497L65.3229 33.5558L65.3953 33.5621L65.4082 33.5632L65.4938 33.5709L65.539 33.5749L65.5796 33.5785L65.6658 33.5864L65.6833 33.588L65.7522 33.5944L65.8285 33.6015L65.839 33.6025L65.926 33.6108L65.9745 33.6154L66.0134 33.6191L66.101 33.6276L66.1215 33.6295L66.189 33.6362L66.2693 33.6441L66.2773 33.645L66.3659 33.6538L66.4181 33.6592L66.4549 33.6628L66.5442 33.672L66.5678 33.6744L66.6339 33.6813L66.7186 33.6901L66.724 33.6906L66.8144 33.7002L66.8704 33.7062L66.9052 33.7099L66.9965 33.7196L67.0232 33.7226L67.0881 33.7296L67.1773 33.7394L67.1801 33.7397L67.2726 33.7499L67.3325 33.7566L67.3654 33.7602L67.4587 33.7706L67.4889 33.7741L67.5524 33.7813L67.6466 33.7921C67.7225 33.8234 67.8001 33.8564 67.8757 33.8893C68.4397 34.1318 68.9585 34.4306 69.4265 34.7972C69.8891 35.1551 70.3113 35.6602 70.5743 36.1833C70.5399 36.8323 67.6657 37.285 67.6027 37.2933C65.6512 37.5534 64.298 37.7166 64.1085 37.6239C63.8407 37.5006 63.4901 37.3818 63.0712 37.2784C62.6088 37.16 62.1069 37.0247 61.5543 36.8723C61.0073 36.7201 60.4546 36.5228 59.9077 36.2803C59.3634 36.047 58.8685 35.7427 58.4173 35.3673H56.4447C55.8789 35.3673 55.416 34.9046 55.416 34.3388V34.3384C55.416 33.7726 55.8789 33.3098 56.4447 33.3098Z" fill="#FFED00"/>
<path fill-rule="evenodd" clip-rule="evenodd" d="M42.0496 29.6167H50.5489H57.2533H58.0428C58.2878 29.6167 58.5078 29.5037 58.6529 29.3271C60.5731 29.2693 63.3944 29.5016 65.5386 29.6131C66.8843 29.6831 68.8692 29.6946 69.5657 29.8159L69.3645 31.8479C68.4284 31.6054 67.5938 31.4306 66.8495 31.3121C66.1051 31.1937 65.4566 31.1373 64.904 31.1373C64.4416 31.1373 64.0807 31.1599 63.81 31.205C63.5449 31.2502 63.3532 31.3235 63.2348 31.425C63.1219 31.5265 63.0656 31.6561 63.0712 31.814C63.0769 32.0396 63.2235 32.2314 63.5111 32.3836C63.7931 32.5415 64.1709 32.6881 64.6389 32.8234C65.1126 32.9644 65.6258 33.1111 66.1896 33.2802C66.6765 33.4214 67.1633 33.5922 67.6465 33.7921C64.2701 33.405 61.7617 33.2829 58.5485 33.3098H57.1157C57.554 33.3098 57.9124 32.9513 57.9124 32.513C57.9124 32.0748 57.554 31.7162 57.1157 31.7162H56.8576H49.4795H42.0496C41.4723 31.7162 41 31.2439 41 30.6666V30.6663C41 30.089 41.4723 29.6167 42.0496 29.6167Z" fill="#E61A77"/>
</svg>
