<svg width="141" height="103" viewBox="0 0 141 103" fill="none" xmlns="http://www.w3.org/2000/svg">
<path fill-rule="evenodd" clip-rule="evenodd" d="M3.05371 92.423H135.026V101.362H3.05371V92.423Z" fill="#66798F"/>
<path d="M135.026 93.5709H3.05345V91.2753H135.026L136.175 92.4231L135.026 93.5709V93.5709ZM135.026 93.5709V91.2753L135.085 91.2768L135.144 91.2812L135.201 91.2885L135.258 91.2986L135.313 91.3114L135.368 91.3269L135.421 91.3449L135.473 91.3655L135.524 91.3884L135.574 91.4138L135.622 91.4415L135.669 91.4713L135.714 91.5033L135.757 91.5374L135.799 91.5735L135.839 91.6114L135.877 91.6514L135.913 91.693L135.947 91.7364L135.979 91.7813L136.009 91.828L136.037 91.876L136.062 91.9254L136.085 91.9764L136.106 92.0284L136.124 92.0817L136.139 92.1363L136.152 92.1918L136.162 92.2483L136.17 92.3057L136.174 92.3641L136.175 92.4231L136.174 92.4821L136.17 92.5404L136.162 92.5979L136.152 92.6544L136.139 92.7099L136.124 92.7645L136.106 92.8178L136.085 92.8698L136.062 92.9208L136.037 92.9702L136.009 93.0182L135.979 93.0649L135.947 93.1098L135.913 93.1532L135.877 93.1948L135.839 93.2348L135.799 93.2727L135.757 93.3088L135.714 93.3429L135.669 93.3749L135.622 93.4047L135.574 93.4324L135.524 93.4578L135.473 93.4807L135.421 93.5013L135.368 93.5193L135.313 93.5348L135.258 93.5476L135.201 93.5577L135.144 93.565L135.085 93.5694L135.026 93.5709ZM133.877 101.362V92.4231H136.175V101.362L135.026 102.51L133.877 101.362H133.877ZM133.877 101.362H136.175L136.174 101.421L136.17 101.479L136.162 101.537L136.152 101.593L136.139 101.649L136.124 101.703L136.106 101.757L136.085 101.809L136.062 101.86L136.037 101.909L136.009 101.957L135.979 102.004L135.947 102.049L135.913 102.092L135.877 102.134L135.839 102.174L135.799 102.212L135.757 102.248L135.714 102.282L135.669 102.314L135.622 102.344L135.574 102.371L135.524 102.397L135.473 102.42L135.421 102.44L135.368 102.458L135.313 102.474L135.258 102.487L135.201 102.497L135.144 102.504L135.085 102.508L135.026 102.51L134.967 102.508L134.909 102.504L134.851 102.497L134.795 102.487L134.739 102.474L134.684 102.458L134.631 102.44L134.579 102.42L134.528 102.397L134.478 102.371L134.43 102.344L134.384 102.314L134.339 102.282L134.295 102.248L134.253 102.212L134.213 102.174L134.175 102.134L134.139 102.092L134.105 102.049L134.073 102.004L134.043 101.957L134.016 101.909L133.99 101.86L133.967 101.809L133.947 101.757L133.929 101.703L133.913 101.649L133.9 101.593L133.89 101.537L133.883 101.479L133.878 101.421L133.877 101.362ZM3.0536 100.214H135.026V102.51H3.0536L1.90431 101.362L3.0536 100.214V100.214ZM3.0536 100.214V102.51L2.9945 102.508L2.9361 102.504L2.8786 102.497L2.822 102.487L2.7664 102.474L2.7118 102.458L2.6584 102.44L2.6063 102.42L2.5553 102.397L2.5058 102.371L2.4577 102.344L2.411 102.314L2.366 102.282L2.3226 102.248L2.2809 102.212L2.2409 102.174L2.2029 102.134L2.1668 102.092L2.1326 102.049L2.1006 102.004L2.0707 101.957L2.043 101.909L2.0176 101.86L1.9946 101.809L1.974 101.757L1.956 101.703L1.9405 101.649L1.9277 101.593L1.9175 101.537L1.9102 101.479L1.9058 101.421L1.9043 101.362L1.9058 101.303L1.9102 101.245L1.9175 101.187L1.9277 101.131L1.9405 101.075L1.956 101.021L1.974 100.967L1.9946 100.915L2.0176 100.864L2.043 100.815L2.0707 100.767L2.1006 100.72L2.1326 100.675L2.1668 100.632L2.2029 100.59L2.2409 100.55L2.2809 100.513L2.3226 100.476L2.366 100.442L2.411 100.41L2.4577 100.38L2.5058 100.353L2.5553 100.327L2.6063 100.304L2.6584 100.284L2.7118 100.266L2.7664 100.25L2.822 100.238L2.8786 100.227L2.9361 100.22L2.9945 100.216L3.0536 100.214ZM4.2029 92.4231V101.362H1.9043V92.4231L3.05359 91.2753L4.20289 92.4231H4.2029ZM4.2029 92.4231H1.9043L1.9058 92.3641L1.9102 92.3058L1.9175 92.2483L1.9277 92.1918L1.9405 92.1363L1.956 92.0817L1.974 92.0284L1.9946 91.9764L2.0176 91.9254L2.043 91.876L2.0707 91.828L2.1006 91.7813L2.1326 91.7364L2.1668 91.693L2.2029 91.6514L2.2409 91.6114L2.2809 91.5735L2.3226 91.5374L2.366 91.5033L2.411 91.4713L2.4577 91.4415L2.5058 91.4138L2.5553 91.3884L2.6063 91.3655L2.6584 91.3449L2.7118 91.3269L2.7664 91.3114L2.822 91.2986L2.8786 91.2885L2.9361 91.2812L2.9945 91.2768L3.0536 91.2753L3.1127 91.2768L3.1711 91.2812L3.2286 91.2885L3.2852 91.2986L3.3408 91.3114L3.3954 91.3269L3.4488 91.3449L3.5009 91.3655L3.5519 91.3884L3.6014 91.4138L3.6495 91.4415L3.6962 91.4713L3.7412 91.5033L3.7846 91.5374L3.8263 91.5735L3.8663 91.6114L3.9043 91.6514L3.9404 91.693L3.9746 91.7364L4.0066 91.7813L4.0365 91.828L4.0642 91.876L4.0896 91.9254L4.1126 91.9764L4.1332 92.0284L4.1512 92.0817L4.1667 92.1363L4.1795 92.1918L4.1897 92.2483L4.197 92.3058L4.2014 92.3641L4.2029 92.4231H4.2029Z" fill="#333333"/>
<path fill-rule="evenodd" clip-rule="evenodd" d="M17.3364 57.0471H53.1387V68.2686H17.3364V57.0471Z" fill="#66798F"/>
<path d="M53.1387 58.195H17.3364V55.8994H53.1387L54.288 57.0472L53.1387 58.195V58.195ZM53.1387 58.195V55.8994L53.1978 55.9008L53.2562 55.9052L53.3137 55.9125L53.3703 55.9227L53.4259 55.9355L53.4805 55.951L53.5339 55.969L53.586 55.9895L53.637 56.0125L53.6865 56.0379L53.7346 56.0655L53.7813 56.0954L53.8263 56.1274L53.8697 56.1615L53.9114 56.1976L53.9514 56.2355L53.9894 56.2755L54.0255 56.3171L54.0597 56.3605L54.0917 56.4054L54.1216 56.452L54.1493 56.5001L54.1747 56.5495L54.1977 56.6005L54.2183 56.6525L54.2363 56.7058L54.2518 56.7603L54.2646 56.8159L54.2748 56.8724L54.2821 56.9298L54.2865 56.9882L54.288 57.0472L54.2865 57.1062L54.2821 57.1645L54.2748 57.222L54.2646 57.2785L54.2518 57.334L54.2363 57.3885L54.2183 57.4419L54.1977 57.4939L54.1747 57.5448L54.1493 57.5943L54.1216 57.6423L54.0917 57.689L54.0597 57.7339L54.0255 57.7772L53.9894 57.8189L53.9514 57.8588L53.9114 57.8968L53.8697 57.9328L53.8263 57.967L53.7813 57.999L53.7346 58.0288L53.6865 58.0565L53.637 58.0819L53.586 58.1048L53.5339 58.1254L53.4805 58.1434L53.4259 58.1589L53.3703 58.1716L53.3137 58.1818L53.2562 58.1891L53.1978 58.1935L53.1387 58.195ZM51.9894 68.2686V57.0471H54.288V68.2686L53.1387 69.4164L51.9894 68.2686H51.9894ZM51.9894 68.2686H54.288L54.2865 68.3276L54.2821 68.386L54.2748 68.4434L54.2646 68.4999L54.2518 68.5554L54.2363 68.61L54.2183 68.6633L54.1977 68.7153L54.1747 68.7663L54.1493 68.8157L54.1216 68.8637L54.0917 68.9104L54.0597 68.9553L54.0255 68.9987L53.9894 69.0403L53.9514 69.0803L53.9114 69.1182L53.8697 69.1543L53.8263 69.1884L53.7813 69.2204L53.7346 69.2502L53.6865 69.2779L53.637 69.3033L53.586 69.3263L53.5339 69.3468L53.4805 69.3648L53.4259 69.3803L53.3703 69.3931L53.3137 69.4033L53.2562 69.4105L53.1978 69.4149L53.1387 69.4164L53.0796 69.4149L53.0212 69.4105L52.9637 69.4033L52.9071 69.3931L52.8515 69.3803L52.7969 69.3648L52.7435 69.3468L52.6914 69.3263L52.6404 69.3033L52.5909 69.2779L52.5428 69.2502L52.4961 69.2204L52.4511 69.1884L52.4077 69.1543L52.366 69.1182L52.326 69.0803L52.288 69.0403L52.2519 68.9987L52.2177 68.9553L52.1857 68.9104L52.1558 68.8637L52.1281 68.8157L52.1027 68.7663L52.0797 68.7153L52.0591 68.6633L52.0411 68.61L52.0256 68.5554L52.0128 68.4999L52.0026 68.4434L51.9953 68.386L51.9909 68.3276L51.9894 68.2686ZM17.3363 67.1208H53.1386V69.4164H17.3363L16.187 68.2686L17.3363 67.1208V67.1208ZM17.3363 67.1208V69.4164L17.2772 69.4149L17.2188 69.4105L17.1613 69.4033L17.1047 69.3931L17.0491 69.3803L16.9945 69.3648L16.9411 69.3468L16.889 69.3263L16.838 69.3033L16.7885 69.2779L16.7404 69.2503L16.6937 69.2204L16.6487 69.1884L16.6053 69.1543L16.5636 69.1182L16.5236 69.0803L16.4856 69.0403L16.4495 68.9987L16.4153 68.9553L16.3833 68.9104L16.3534 68.8637L16.3257 68.8157L16.3003 68.7663L16.2773 68.7153L16.2567 68.6633L16.2387 68.61L16.2232 68.5554L16.2104 68.4999L16.2002 68.4434L16.1929 68.386L16.1885 68.3276L16.187 68.2686L16.1885 68.2096L16.1929 68.1513L16.2002 68.0938L16.2104 68.0373L16.2232 67.9818L16.2387 67.9272L16.2567 67.8739L16.2773 67.8219L16.3003 67.771L16.3257 67.7215L16.3534 67.6735L16.3833 67.6268L16.4153 67.5819L16.4495 67.5385L16.4856 67.4969L16.5236 67.4569L16.5636 67.419L16.6053 67.3829L16.6487 67.3488L16.6937 67.3168L16.7404 67.287L16.7885 67.2593L16.838 67.2339L16.889 67.211L16.9411 67.1904L16.9945 67.1724L17.0491 67.1569L17.1047 67.1442L17.1613 67.134L17.2188 67.1267L17.2772 67.1223L17.3363 67.1208V67.1208ZM18.4856 57.0472V68.2687H16.187V57.0472L17.3363 55.8994L18.4856 57.0472H18.4856ZM18.4856 57.0472H16.187L16.1885 56.9882L16.1929 56.9298L16.2002 56.8724L16.2104 56.8159L16.2232 56.7604L16.2387 56.7058L16.2567 56.6525L16.2773 56.6005L16.3003 56.5495L16.3257 56.5001L16.3534 56.452L16.3833 56.4054L16.4153 56.3605L16.4495 56.3171L16.4856 56.2755L16.5236 56.2355L16.5636 56.1976L16.6053 56.1615L16.6487 56.1274L16.6937 56.0954L16.7404 56.0655L16.7885 56.0379L16.838 56.0125L16.889 55.9895L16.9411 55.969L16.9945 55.951L17.0491 55.9355L17.1047 55.9227L17.1613 55.9125L17.2188 55.9052L17.2772 55.9009L17.3363 55.8994L17.3954 55.9009L17.4538 55.9052L17.5113 55.9125L17.5679 55.9227L17.6235 55.9355L17.6781 55.951L17.7315 55.969L17.7836 55.9895L17.8346 56.0125L17.8841 56.0379L17.9322 56.0655L17.9789 56.0954L18.0239 56.1274L18.0673 56.1615L18.109 56.1976L18.149 56.2355L18.187 56.2755L18.2231 56.3171L18.2573 56.3605L18.2893 56.4054L18.3192 56.452L18.3469 56.5001L18.3723 56.5495L18.3953 56.6005L18.4159 56.6525L18.4339 56.7058L18.4494 56.7604L18.4622 56.8159L18.4724 56.8724L18.4797 56.9298L18.4841 56.9882L18.4856 57.0472H18.4856Z" fill="#333333"/>
<path fill-rule="evenodd" clip-rule="evenodd" d="M134.645 13.1124H34.0942V36.1262H53.4211V34.6985C53.4211 29.0265 48.8168 24.4281 43.1375 24.4281C66.3707 24.4281 89.6045 24.4281 112.838 24.4281C117.886 24.4281 121.978 28.5155 121.978 33.5574V36.1262H134.645V13.1124H134.645Z" fill="#B0C1D4"/>
<path d="M34.0946 11.9647H134.646V14.2604H34.0946L32.9453 13.1126L34.0946 11.9647V11.9647ZM34.0946 11.9647V14.2604L34.0355 14.2589L33.9771 14.2545L33.9196 14.2472L33.863 14.237L33.8074 14.2242L33.7528 14.2087L33.6994 14.1908L33.6473 14.1702L33.5963 14.1472L33.5468 14.1219L33.4987 14.0942L33.452 14.0643L33.407 14.0324L33.3636 13.9982L33.3219 13.9622L33.2819 13.9242L33.2439 13.8843L33.2078 13.8426L33.1736 13.7993L33.1416 13.7543L33.1117 13.7077L33.084 13.6596L33.0586 13.6102L33.0356 13.5593L33.015 13.5072L32.997 13.4539L32.9815 13.3994L32.9687 13.3439L32.9585 13.2873L32.9512 13.2299L32.9468 13.1716L32.9453 13.1125L32.9468 13.0535L32.9512 12.9952L32.9585 12.9378L32.9687 12.8812L32.9815 12.8257L32.997 12.7712L33.015 12.7179L33.0356 12.6658L33.0586 12.6149L33.084 12.5655L33.1117 12.5174L33.1416 12.4708L33.1736 12.4258L33.2078 12.3825L33.2439 12.3408L33.2819 12.3009L33.3219 12.2629L33.3636 12.2269L33.407 12.1927L33.452 12.1608L33.4987 12.1309L33.5468 12.1032L33.5963 12.0779L33.6473 12.0549L33.6994 12.0343L33.7528 12.0164L33.8074 12.0009L33.863 11.9881L33.9196 11.9779L33.9771 11.9706L34.0355 11.9662L34.0946 11.9647ZM32.9453 36.1261V13.1125H35.2439V36.1261L34.0946 37.2739L32.9453 36.1261H32.9453ZM32.9453 36.1261H35.2439L35.2424 36.1851L35.238 36.2435L35.2307 36.3009L35.2205 36.3574L35.2077 36.4129L35.1922 36.4675L35.1742 36.5208L35.1536 36.5728L35.1306 36.6238L35.1052 36.6732L35.0775 36.7212L35.0476 36.7679L35.0156 36.8128L34.9814 36.8562L34.9453 36.8978L34.9073 36.9378L34.8673 36.9757L34.8256 37.0118L34.7822 37.0459L34.7372 37.0779L34.6905 37.1078L34.6424 37.1354L34.5929 37.1608L34.5419 37.1838L34.4898 37.2043L34.4364 37.2223L34.3818 37.2378L34.3262 37.2506L34.2696 37.2608L34.2121 37.268L34.1537 37.2724L34.0946 37.2739L34.0355 37.2724L33.9771 37.268L33.9196 37.2608L33.863 37.2506L33.8074 37.2378L33.7528 37.2223L33.6994 37.2043L33.6473 37.1838L33.5963 37.1608L33.5468 37.1354L33.4987 37.1078L33.452 37.0779L33.407 37.0459L33.3636 37.0118L33.3219 36.9757L33.2819 36.9378L33.2439 36.8978L33.2078 36.8562L33.1736 36.8128L33.1416 36.7679L33.1117 36.7212L33.084 36.6732L33.0586 36.6238L33.0356 36.5728L33.015 36.5208L32.997 36.4675L32.9815 36.4129L32.9687 36.3574L32.9585 36.3009L32.9512 36.2435L32.9468 36.1851L32.9453 36.1261ZM53.4216 37.2739H34.0947V34.9783H53.4216L54.5709 36.1261L53.4216 37.2739V37.2739ZM53.4216 37.2739V34.9783L53.4807 34.9798L53.5391 34.9842L53.5966 34.9915L53.6532 35.0016L53.7088 35.0144L53.7634 35.0299L53.8168 35.0479L53.8689 35.0685L53.9199 35.0914L53.9694 35.1168L54.0175 35.1445L54.0642 35.1743L54.1092 35.2063L54.1526 35.2404L54.1943 35.2765L54.2343 35.3144L54.2723 35.3544L54.3084 35.396L54.3426 35.4394L54.3746 35.4843L54.4045 35.531L54.4322 35.579L54.4576 35.6284L54.4806 35.6794L54.5012 35.7314L54.5192 35.7847L54.5347 35.8393L54.5475 35.8948L54.5577 35.9513L54.565 36.0088L54.5694 36.0671L54.5709 36.1261L54.5694 36.1851L54.565 36.2435L54.5577 36.3009L54.5475 36.3574L54.5347 36.4129L54.5192 36.4675L54.5012 36.5208L54.4806 36.5728L54.4576 36.6238L54.4322 36.6732L54.4045 36.7212L54.3746 36.7679L54.3426 36.8128L54.3084 36.8562L54.2723 36.8978L54.2343 36.9378L54.1943 36.9757L54.1526 37.0118L54.1092 37.0459L54.0642 37.0779L54.0175 37.1077L53.9694 37.1354L53.9199 37.1608L53.8689 37.1837L53.8168 37.2043L53.7634 37.2223L53.7088 37.2378L53.6532 37.2506L53.5966 37.2607L53.5391 37.268L53.4807 37.2724L53.4216 37.2739ZM54.5709 34.6984V36.1261H52.2723V34.6984H54.5709ZM54.5709 34.6984H52.2723L52.2738 34.6394L52.2782 34.5811L52.2855 34.5237L52.2957 34.4671L52.3085 34.4116L52.324 34.3571L52.342 34.3037L52.3626 34.2517L52.3856 34.2008L52.411 34.1513L52.4387 34.1033L52.4686 34.0567L52.5006 34.0117L52.5348 33.9684L52.5709 33.9267L52.6089 33.8868L52.6489 33.8488L52.6906 33.8128L52.734 33.7786L52.779 33.7467L52.8257 33.7168L52.8738 33.6891L52.9233 33.6638L52.9743 33.6408L53.0264 33.6202L53.0798 33.6022L53.1344 33.5868L53.19 33.574L53.2466 33.5638L53.3041 33.5565L53.3625 33.5521L53.4216 33.5506L53.4807 33.5521L53.5391 33.5565L53.5966 33.5638L53.6532 33.574L53.7088 33.5868L53.7634 33.6022L53.8168 33.6202L53.8689 33.6408L53.9199 33.6638L53.9694 33.6891L54.0175 33.7168L54.0642 33.7467L54.1092 33.7786L54.1526 33.8128L54.1943 33.8488L54.2343 33.8868L54.2723 33.9267L54.3084 33.9684L54.3426 34.0117L54.3746 34.0567L54.4045 34.1033L54.4322 34.1513L54.4576 34.2008L54.4806 34.2517L54.5012 34.3037L54.5192 34.3571L54.5347 34.4116L54.5475 34.4671L54.5577 34.5237L54.565 34.5811L54.5694 34.6394L54.5709 34.6984ZM43.138 23.2803V25.576V23.2803L43.7252 23.2952L44.3053 23.3393L44.8775 23.4119L45.4408 23.5122L45.9942 23.6399L46.5371 23.7938L47.0689 23.9735L47.5884 24.1782L48.0951 24.4069L48.5882 24.6592L49.067 24.9341L49.5309 25.231L49.979 25.5493L50.4108 25.8882L50.8254 26.2468L51.2222 26.6247L51.6005 27.021L51.9597 27.435L52.299 27.8663L52.6176 28.3139L52.915 28.7771L53.1904 29.2554L53.4429 29.7478L53.6719 30.2539L53.8768 30.7727L54.0568 31.3038L54.2109 31.846L54.3387 32.3987L54.4392 32.9613L54.5119 33.5327L54.556 34.112L54.5709 34.6985H52.2723L52.2604 34.2279L52.2251 33.7642L52.167 33.3077L52.0867 32.8587L51.9847 32.4177L51.8618 31.9852L51.7184 31.5619L51.5549 31.1479L51.3721 30.7442L51.1704 30.351L50.9506 29.9689L50.713 29.5988L50.4582 29.241L50.1869 28.8963L49.8995 28.565L49.5968 28.2479L49.2794 27.9456L48.9478 27.6587L48.6026 27.3878L48.2443 27.1334L47.8736 26.896L47.4912 26.6764L47.0975 26.475L46.6932 26.2925L46.2787 26.1292L45.8549 25.986L45.4218 25.8632L44.9802 25.7613L44.5307 25.6811L44.0735 25.6231L43.6092 25.5879L43.138 25.576V23.2803L43.138 23.2803ZM43.138 23.2803V25.576L43.0789 25.5745L43.0205 25.5701L42.963 25.5628L42.9064 25.5526L42.8508 25.5398L42.7962 25.5244L42.7428 25.5064L42.6907 25.4858L42.6397 25.4628L42.5902 25.4375L42.5421 25.4098L42.4954 25.3799L42.4504 25.348L42.407 25.3138L42.3653 25.2778L42.3253 25.2398L42.2873 25.1999L42.2512 25.1582L42.217 25.1149L42.185 25.0699L42.1551 25.0233L42.1274 24.9753L42.102 24.9258L42.079 24.8749L42.0584 24.8229L42.0404 24.7695L42.0249 24.715L42.0121 24.6595L42.0019 24.6029L41.9946 24.5455L41.9902 24.4872L41.9887 24.4282L41.9902 24.3691L41.9946 24.3108L42.0019 24.2534L42.0121 24.1969L42.0249 24.1413L42.0404 24.0868L42.0584 24.0335L42.079 23.9814L42.102 23.9305L42.1274 23.8811L42.1551 23.833L42.185 23.7864L42.217 23.7414L42.2512 23.6981L42.2873 23.6564L42.3253 23.6165L42.3653 23.5786L42.407 23.5425L42.4504 23.5083L42.4954 23.4764L42.5421 23.4465L42.5902 23.4189L42.6397 23.3935L42.6907 23.3705L42.7428 23.3499L42.7962 23.332L42.8508 23.3165L42.9064 23.3037L42.963 23.2935L43.0205 23.2862L43.0789 23.2818L43.138 23.2803ZM112.838 23.2803V25.576H110.66H108.482H106.304H104.126H101.948H99.7694H97.5913H95.4132H93.235H91.0569H88.8788H86.7006H84.5225H82.3444H80.1662H77.9881H75.81H73.6318H71.4536H69.2755H67.0973H64.9192H62.7411H60.5629H58.3848H56.2067H54.0286H51.8504H49.6723H47.4942H45.3161H43.1379V23.2803H45.3161H47.4942H49.6723H51.8504H54.0286H56.2067H58.3848H60.5629H62.7411H64.9192H67.0973H69.2755H71.4536H73.6318H75.81H77.9881H80.1662H82.3444H84.5225H86.7006H88.8788H91.0569H93.235H95.4132H97.5913H99.7694H101.948H104.126H106.304H108.482H110.66H112.838ZM112.838 25.576V23.2803L112.897 23.2818L112.956 23.2862L113.013 23.2935L113.07 23.3037L113.125 23.3165L113.18 23.332L113.233 23.3499L113.285 23.3705L113.336 23.3935L113.386 23.4189L113.434 23.4465L113.481 23.4764L113.526 23.5083L113.569 23.5425L113.611 23.5786L113.651 23.6165L113.689 23.6564L113.725 23.6981L113.759 23.7414L113.791 23.7864L113.821 23.833L113.849 23.8811L113.874 23.9305L113.897 23.9814L113.918 24.0335L113.936 24.0868L113.951 24.1413L113.964 24.1969L113.974 24.2534L113.982 24.3108L113.986 24.3691L113.987 24.4282L113.986 24.4872L113.982 24.5455L113.974 24.6029L113.964 24.6595L113.951 24.715L113.936 24.7695L113.918 24.8229L113.897 24.8749L113.874 24.9258L113.849 24.9753L113.821 25.0233L113.791 25.0699L113.759 25.1149L113.725 25.1582L113.689 25.1999L113.651 25.2398L113.611 25.2778L113.569 25.3138L113.526 25.348L113.481 25.3799L113.434 25.4098L113.386 25.4375L113.336 25.4628L113.285 25.4858L113.233 25.5064L113.18 25.5244L113.125 25.5398L113.07 25.5526L113.013 25.5628L112.956 25.5701L112.897 25.5745L112.838 25.576ZM123.128 33.5574H120.83L120.819 33.1456L120.788 32.7398L120.737 32.3403L120.667 31.9476L120.578 31.5618L120.47 31.1835L120.345 30.8129L120.202 30.4509L120.042 30.0977L119.866 29.7537L119.673 29.4196L119.465 29.0957L119.243 28.7826L119.005 28.481L118.754 28.1911L118.489 27.9137L118.211 27.6492L117.921 27.3981L117.619 27.161L117.305 26.9383L116.981 26.7308L116.647 26.5387L116.302 26.3624L115.949 26.2027L115.586 26.0601L115.215 25.9347L114.836 25.8273L114.45 25.7382L114.057 25.668L113.657 25.6172L113.251 25.5864L112.838 25.576V23.2803L113.367 23.2937L113.889 23.3334L114.404 23.3987L114.911 23.4891L115.409 23.6039L115.898 23.7425L116.376 23.9042L116.844 24.0884L117.3 24.2944L117.744 24.5214L118.175 24.7689L118.592 25.0362L118.995 25.3227L119.384 25.6276L119.757 25.9504L120.114 26.2904L120.455 26.6471L120.778 27.0198L121.083 27.4079L121.37 27.8107L121.638 28.2277L121.886 28.6581L122.113 29.1014L122.319 29.5569L122.503 30.0241L122.665 30.502L122.804 30.9899L122.919 31.4876L123.01 31.994L123.075 32.5083L123.115 33.0297L123.128 33.5574ZM120.83 33.5574H123.128L123.127 33.6165L123.122 33.6748L123.115 33.7322L123.105 33.7888L123.092 33.8443L123.076 33.8988L123.058 33.9521L123.038 34.0042L123.015 34.0551L122.989 34.1045L122.962 34.1526L122.932 34.1992L122.9 34.2442L122.866 34.2875L122.83 34.3292L122.792 34.3691L122.752 34.4071L122.71 34.4431L122.666 34.4773L122.621 34.5092L122.575 34.5391L122.527 34.5668L122.477 34.5921L122.426 34.6151L122.374 34.6357L122.321 34.6536L122.266 34.6691L122.21 34.6819L122.154 34.6921L122.096 34.6994L122.038 34.7038L121.979 34.7053L121.92 34.7038L121.861 34.6994L121.804 34.6921L121.747 34.6819L121.692 34.6691L121.637 34.6536L121.584 34.6357L121.532 34.6151L121.481 34.5921L121.431 34.5668L121.383 34.5391L121.336 34.5092L121.291 34.4773L121.248 34.4431L121.206 34.4071L121.166 34.3691L121.128 34.3292L121.092 34.2875L121.058 34.2442L121.026 34.1992L120.996 34.1526L120.968 34.1045L120.943 34.0551L120.92 34.0042L120.899 33.9521L120.881 33.8988L120.866 33.8443L120.853 33.7888L120.843 33.7322L120.835 33.6748L120.831 33.6165L120.83 33.5574ZM120.83 36.1262V33.5574H123.128V36.1262L121.979 37.274L120.83 36.1262H120.83ZM120.83 36.1262H123.128L123.127 36.1852L123.122 36.2435L123.115 36.3009L123.105 36.3575L123.092 36.413L123.076 36.4675L123.058 36.5209L123.038 36.5729L123.015 36.6238L122.989 36.6733L122.962 36.7213L122.932 36.7679L122.9 36.8129L122.866 36.8562L122.83 36.8979L122.792 36.9378L122.752 36.9758L122.71 37.0118L122.666 37.046L122.621 37.0779L122.575 37.1078L122.527 37.1355L122.477 37.1608L122.426 37.1838L122.374 37.2044L122.321 37.2224L122.266 37.2378L122.21 37.2506L122.154 37.2608L122.096 37.2681L122.038 37.2725L121.979 37.274L121.92 37.2725L121.861 37.2681L121.804 37.2608L121.747 37.2506L121.692 37.2378L121.637 37.2224L121.584 37.2044L121.532 37.1838L121.481 37.1608L121.431 37.1355L121.383 37.1078L121.336 37.0779L121.291 37.046L121.248 37.0118L121.206 36.9758L121.166 36.9378L121.128 36.8979L121.092 36.8562L121.058 36.8129L121.026 36.7679L120.996 36.7213L120.968 36.6733L120.943 36.6238L120.92 36.5729L120.899 36.5209L120.881 36.4675L120.866 36.413L120.853 36.3575L120.843 36.3009L120.835 36.2435L120.831 36.1852L120.83 36.1262ZM134.646 37.274H121.979V34.9783H134.646L135.795 36.1262L134.646 37.274V37.274ZM134.646 37.274V34.9783L134.705 34.9798L134.763 34.9842L134.821 34.9915L134.877 35.0017L134.933 35.0145L134.987 35.03L135.041 35.0479L135.093 35.0685L135.144 35.0915L135.193 35.1168L135.242 35.1445L135.288 35.1744L135.333 35.2063L135.377 35.2405L135.418 35.2765L135.458 35.3145L135.496 35.3544L135.532 35.3961L135.567 35.4394L135.599 35.4844L135.629 35.531L135.656 35.5791L135.682 35.6285L135.705 35.6794L135.725 35.7315L135.743 35.7848L135.759 35.8393L135.772 35.8949L135.782 35.9514L135.789 36.0088L135.793 36.0671L135.795 36.1262L135.793 36.1852L135.789 36.2435L135.782 36.3009L135.772 36.3575L135.759 36.413L135.743 36.4675L135.725 36.5208L135.705 36.5729L135.682 36.6238L135.656 36.6733L135.629 36.7213L135.599 36.7679L135.567 36.8129L135.532 36.8562L135.496 36.8979L135.458 36.9378L135.418 36.9758L135.377 37.0118L135.333 37.046L135.288 37.0779L135.242 37.1078L135.193 37.1355L135.144 37.1608L135.093 37.1838L135.041 37.2044L134.987 37.2223L134.933 37.2378L134.877 37.2506L134.821 37.2608L134.763 37.2681L134.705 37.2725L134.646 37.274ZM135.795 13.1126V36.1262H133.496V13.1126L134.646 11.9648L135.795 13.1126ZM135.795 13.1126H133.496L133.498 13.0536L133.502 12.9952L133.51 12.9378L133.52 12.8813L133.533 12.8258L133.548 12.7712L133.566 12.7179L133.587 12.6659L133.61 12.6149L133.635 12.5655L133.663 12.5175L133.693 12.4708L133.725 12.4259L133.759 12.3825L133.795 12.3409L133.833 12.3009L133.873 12.263L133.915 12.2269L133.958 12.1928L134.003 12.1608L134.05 12.131L134.098 12.1033L134.147 12.0779L134.198 12.055L134.25 12.0344L134.304 12.0164L134.358 12.0009L134.414 11.9881L134.471 11.9779L134.528 11.9707L134.587 11.9663L134.646 11.9648L134.705 11.9663L134.763 11.9707L134.821 11.9779L134.877 11.9881L134.933 12.0009L134.987 12.0164L135.041 12.0344L135.093 12.055L135.144 12.0779L135.193 12.1033L135.242 12.131L135.288 12.1608L135.333 12.1928L135.377 12.2269L135.418 12.263L135.458 12.3009L135.496 12.3409L135.532 12.3825L135.567 12.4259L135.599 12.4708L135.629 12.5175L135.656 12.5655L135.682 12.6149L135.705 12.6659L135.725 12.7179L135.743 12.7712L135.759 12.8258L135.772 12.8813L135.782 12.9378L135.789 12.9952L135.793 13.0536L135.795 13.1126Z" fill="#333333"/>
<path fill-rule="evenodd" clip-rule="evenodd" d="M1.14941 36.1262H34.095V9.75663C34.095 5.21034 30.3702 1.49011 25.8176 1.49011H9.42664C4.87413 1.49011 1.14941 5.21006 1.14941 9.75663V36.1262Z" fill="#8BB7F0"/>
<path d="M34.0948 37.274H1.1493V34.9783H34.0948L35.2441 36.1261L34.0948 37.274V37.274ZM34.0948 37.274V34.9783L34.1539 34.9798L34.2123 34.9842L34.2698 34.9915L34.3264 35.0017L34.382 35.0145L34.4366 35.03L34.49 35.0479L34.5421 35.0685L34.5931 35.0915L34.6426 35.1168L34.6907 35.1445L34.7374 35.1744L34.7824 35.2063L34.8258 35.2405L34.8675 35.2765L34.9075 35.3145L34.9455 35.3544L34.9816 35.3961L35.0158 35.4394L35.0478 35.4844L35.0777 35.531L35.1054 35.5791L35.1308 35.6285L35.1538 35.6794L35.1744 35.7315L35.1924 35.7848L35.2079 35.8393L35.2207 35.8949L35.2309 35.9514L35.2382 36.0088L35.2426 36.0671L35.2441 36.1262L35.2426 36.1852L35.2382 36.2435L35.2309 36.3009L35.2207 36.3575L35.2079 36.413L35.1924 36.4675L35.1744 36.5209L35.1538 36.5729L35.1308 36.6238L35.1054 36.6733L35.0777 36.7213L35.0478 36.7679L35.0158 36.8129L34.9816 36.8562L34.9455 36.8979L34.9075 36.9378L34.8675 36.9758L34.8258 37.0118L34.7824 37.046L34.7374 37.0779L34.6907 37.1078L34.6426 37.1355L34.5931 37.1608L34.5421 37.1838L34.49 37.2044L34.4366 37.2224L34.382 37.2378L34.3264 37.2506L34.2698 37.2608L34.2123 37.2681L34.1539 37.2725L34.0948 37.274ZM35.2441 9.75662V36.1261H32.9455V9.75662H35.2441ZM25.8175 2.63794V0.342286L26.3002 0.35457L26.7775 0.391123L27.2484 0.451346L27.712 0.53454L28.1678 0.640404L28.6148 0.767941L29.0527 0.916651L29.4807 1.08603L29.8981 1.27519L30.3045 1.48382L30.6991 1.71113L31.0814 1.95652L31.4507 2.21928L31.8068 2.49912L32.1487 2.79514L32.476 3.10684L32.7881 3.43372L33.0846 3.77529L33.3646 4.13073L33.6279 4.49966L33.8736 4.88157L34.1012 5.27566L34.3099 5.68134L34.4995 6.09831L34.6691 6.52586L34.8179 6.9631L34.9456 7.40943L35.0516 7.86465L35.1349 8.32765L35.1952 8.79795L35.2318 9.27464L35.2441 9.75662H32.9455L32.9362 9.39129L32.9086 9.03125L32.8631 8.67661L32.8002 8.32765L32.7204 7.98469L32.6241 7.64802L32.5117 7.31825L32.3839 6.99576L32.2407 6.68086L32.0828 6.37406L31.9106 6.07584L31.7245 5.78661L31.525 5.50697L31.3126 5.23741L31.0877 4.97834L30.8506 4.73016L30.6023 4.49357L30.3428 4.26885L30.0729 4.05673L29.7928 3.85748L29.5033 3.67162L29.2047 3.49964L28.8975 3.34194L28.5821 3.19893L28.2591 3.07109L27.929 2.95893L27.5918 2.86276L27.2484 2.78306L26.899 2.72024L26.5439 2.6748L26.1834 2.64723L25.8175 2.63794V2.63794ZM9.42652 0.342286H25.8175V2.63794H9.42652V0.342286ZM2.29861 9.75662H0L0.0123001 9.27454L0.0489002 8.79785L0.1092 8.32755L0.192501 7.86454L0.298501 7.40943L0.426102 6.963L0.575102 6.52556L0.744603 6.09831L0.934004 5.68134L1.1429 5.27546L1.3705 4.88137L1.6162 4.49956L1.87941 4.13063L2.15951 3.77519L2.45591 3.43372L2.76801 3.10674L3.09541 2.79504L3.43731 2.49902L3.79321 2.21928L4.16271 1.95632L4.54501 1.71103L4.93951 1.48382L5.34581 1.27519L5.76341 1.08583L6.19132 0.91665L6.62922 0.76784L7.07642 0.640403L7.53202 0.534539L7.99562 0.451345L8.46652 0.391123L8.94382 0.354569L9.42652 0.342285V2.63794L9.06062 2.64723L8.70012 2.6748L8.34502 2.72024L7.99562 2.78306L7.65202 2.86276L7.31502 2.95883L6.98492 3.07109L6.66182 3.19892L6.34662 3.34174L6.03952 3.49944L5.74081 3.67152L5.45111 3.85748L5.17121 4.05652L4.90131 4.26875L4.64181 4.49346L4.39341 4.73006L4.15651 4.97814L3.93151 5.23731L3.71901 5.50687L3.51961 5.78651L3.33351 6.07564L3.16131 6.37385L3.00341 6.68066L2.86021 6.99556L2.73231 7.31814L2.61991 7.64792L2.52371 7.98449L2.44391 8.32755L2.38101 8.67651L2.33551 9.03115L2.30791 9.39119L2.29861 9.75662H2.29861ZM0 36.1261V9.75662H2.29861V36.1261L1.14931 37.2739L9.90057e-06 36.1261H0ZM0 36.1261H2.29861L2.29711 36.1851L2.29271 36.2435L2.28541 36.3009L2.27521 36.3574L2.26241 36.4129L2.24691 36.4675L2.22891 36.5208L2.20831 36.5728L2.18531 36.6238L2.15991 36.6732L2.13221 36.7212L2.10231 36.7679L2.07031 36.8128L2.03611 36.8562L2.00001 36.8978L1.96201 36.9378L1.922 36.9757L1.8803 37.0118L1.8369 37.0459L1.7919 37.0779L1.7452 37.1077L1.6971 37.1354L1.6476 37.1608L1.5966 37.1837L1.5445 37.2043L1.4911 37.2223L1.4365 37.2378L1.3809 37.2506L1.3243 37.2607L1.2668 37.268L1.2084 37.2724L1.1493 37.2739L1.0902 37.2724L1.0318 37.268L0.974303 37.2607L0.917702 37.2506L0.862102 37.2378L0.807502 37.2223L0.754102 37.2043L0.702002 37.1837L0.651002 37.1608L0.601502 37.1354L0.553402 37.1077L0.506701 37.0779L0.461701 37.0459L0.418301 37.0118L0.376601 36.9757L0.336601 36.9378L0.298601 36.8978L0.262501 36.8562L0.228301 36.8128L0.196301 36.7679L0.166401 36.7212L0.138701 36.6732L0.113301 36.6238L0.0903006 36.5728L0.0697006 36.5208L0.0517006 36.4675L0.0362005 36.4129L0.0234005 36.3574L0.0132004 36.3009L0.00590041 36.2435L0.0015004 36.1851L3.96026e-07 36.1261H0Z" fill="#333333"/>
<path fill-rule="evenodd" clip-rule="evenodd" d="M119.314 92.423H130.169V81.6317H119.314V92.423ZM130.169 72.9748V36.1262H121.98V72.9748H130.169Z" fill="#66798F"/>
<path d="M130.168 93.5709H119.313V91.2752H130.168L131.317 92.423L130.168 93.5708V93.5709ZM130.168 93.5709V91.2752L130.227 91.2767L130.285 91.2811L130.343 91.2884L130.4 91.2986L130.455 91.3114L130.51 91.3268L130.563 91.3448L130.615 91.3654L130.666 91.3884L130.716 91.4137L130.764 91.4414L130.811 91.4712L130.856 91.5032L130.899 91.5374L130.941 91.5734L130.981 91.6114L131.019 91.6513L131.055 91.693L131.089 91.7363L131.121 91.7812L131.151 91.8279L131.179 91.8759L131.204 91.9254L131.227 91.9763L131.248 92.0283L131.266 92.0817L131.281 92.1362L131.294 92.1917L131.304 92.2483L131.311 92.3057L131.316 92.364L131.317 92.423L131.316 92.4821L131.311 92.5404L131.304 92.5978L131.294 92.6543L131.281 92.7099L131.266 92.7644L131.248 92.8177L131.227 92.8698L131.204 92.9207L131.179 92.9701L131.151 93.0182L131.121 93.0648L131.089 93.1097L131.055 93.1531L131.019 93.1947L130.981 93.2347L130.941 93.2726L130.899 93.3087L130.856 93.3429L130.811 93.3748L130.764 93.4047L130.716 93.4323L130.666 93.4577L130.615 93.4807L130.563 93.5012L130.51 93.5192L130.455 93.5347L130.4 93.5475L130.343 93.5577L130.285 93.565L130.227 93.5694L130.168 93.5709ZM131.317 81.6317V92.423H129.019V81.6317L130.168 80.4839L131.317 81.6317H131.317ZM131.317 81.6317H129.019L129.02 81.5727L129.025 81.5144L129.032 81.457L129.042 81.4004L129.055 81.3449L129.07 81.2904L129.088 81.2371L129.109 81.185L129.132 81.1341L129.157 81.0846L129.185 81.0366L129.215 80.99L129.247 80.945L129.281 80.9017L129.317 80.86L129.355 80.8201L129.395 80.7821L129.437 80.7461L129.48 80.7119L129.525 80.68L129.572 80.6501L129.62 80.6224L129.67 80.5971L129.721 80.5741L129.773 80.5535L129.826 80.5356L129.881 80.5201L129.936 80.5073L129.993 80.4971L130.05 80.4898L130.109 80.4854L130.168 80.4839L130.227 80.4854L130.285 80.4898L130.343 80.4971L130.4 80.5073L130.455 80.5201L130.51 80.5356L130.563 80.5535L130.615 80.5741L130.666 80.5971L130.716 80.6224L130.764 80.6501L130.811 80.68L130.856 80.7119L130.899 80.7461L130.941 80.7821L130.981 80.8201L131.019 80.86L131.055 80.9017L131.089 80.945L131.121 80.99L131.151 81.0366L131.179 81.0846L131.204 81.1341L131.227 81.185L131.248 81.2371L131.266 81.2904L131.281 81.3449L131.294 81.4004L131.304 81.457L131.311 81.5144L131.316 81.5727L131.317 81.6317ZM119.313 80.4839H130.168V82.7796H119.313L118.164 81.6318L119.313 80.4839V80.4839ZM119.313 80.4839V82.7796L119.254 82.7781L119.196 82.7737L119.138 82.7664L119.082 82.7562L119.026 82.7434L118.972 82.7279L118.918 82.71L118.866 82.6894L118.815 82.6664L118.766 82.6411L118.717 82.6134L118.671 82.5835L118.626 82.5516L118.582 82.5174L118.541 82.4814L118.501 82.4434L118.463 82.4035L118.427 82.3618L118.392 82.3185L118.36 82.2735L118.33 82.2269L118.303 82.1788L118.277 82.1294L118.254 82.0785L118.234 82.0264L118.216 81.9731L118.2 81.9186L118.187 81.8631L118.177 81.8065L118.17 81.7491L118.166 81.6908L118.164 81.6317L118.166 81.5727L118.17 81.5144L118.177 81.457L118.187 81.4004L118.2 81.3449L118.216 81.2904L118.234 81.2371L118.254 81.185L118.277 81.1341L118.303 81.0847L118.33 81.0366L118.36 80.99L118.392 80.945L118.427 80.9017L118.463 80.86L118.501 80.8201L118.541 80.7821L118.582 80.7461L118.626 80.7119L118.671 80.68L118.717 80.6501L118.766 80.6224L118.815 80.5971L118.866 80.5741L118.918 80.5535L118.972 80.5356L119.026 80.5201L119.082 80.5073L119.138 80.4971L119.196 80.4898L119.254 80.4854L119.313 80.4839ZM118.164 92.423V81.6318H120.463V92.423L119.313 93.5709L118.164 92.423H118.164ZM118.164 92.423H120.463L120.461 92.4821L120.457 92.5404L120.449 92.5978L120.439 92.6543L120.426 92.7099L120.411 92.7644L120.393 92.8177L120.372 92.8698L120.349 92.9207L120.324 92.9701L120.296 93.0182L120.266 93.0648L120.234 93.1098L120.2 93.1531L120.164 93.1947L120.126 93.2347L120.086 93.2727L120.044 93.3087L120.001 93.3429L119.956 93.3748L119.909 93.4047L119.861 93.4323L119.812 93.4577L119.761 93.4807L119.709 93.5013L119.655 93.5192L119.601 93.5347L119.545 93.5475L119.488 93.5577L119.431 93.565L119.372 93.5694L119.313 93.5709L119.254 93.5694L119.196 93.565L119.138 93.5577L119.082 93.5475L119.026 93.5347L118.972 93.5192L118.918 93.5013L118.866 93.4807L118.815 93.4577L118.766 93.4323L118.717 93.4047L118.671 93.3748L118.626 93.3429L118.582 93.3087L118.541 93.2727L118.501 93.2347L118.463 93.1947L118.427 93.1531L118.392 93.1098L118.36 93.0648L118.33 93.0182L118.303 92.9701L118.277 92.9207L118.254 92.8698L118.234 92.8177L118.216 92.7644L118.2 92.7099L118.187 92.6543L118.177 92.5978L118.17 92.5404L118.166 92.4821L118.164 92.423ZM131.317 36.1262V72.9749H129.019V36.1262L130.168 34.9784L131.317 36.1262ZM131.317 36.1262H129.019L129.02 36.0672L129.025 36.0089L129.032 35.9514L129.042 35.8949L129.055 35.8394L129.07 35.7849L129.088 35.7315L129.109 35.6795L129.132 35.6286L129.157 35.5791L129.185 35.5311L129.215 35.4844L129.247 35.4395L129.281 35.3962L129.317 35.3545L129.355 35.3146L129.395 35.2766L129.437 35.2406L129.48 35.2064L129.525 35.1744L129.572 35.1446L129.62 35.1169L129.67 35.0915L129.721 35.0686L129.773 35.048L129.826 35.03L129.881 35.0145L129.936 35.0018L129.993 34.9916L130.05 34.9843L130.109 34.9799L130.168 34.9784L130.227 34.9799L130.285 34.9843L130.343 34.9916L130.4 35.0018L130.455 35.0145L130.51 35.03L130.563 35.048L130.615 35.0686L130.666 35.0915L130.716 35.1169L130.764 35.1446L130.811 35.1744L130.856 35.2064L130.899 35.2406L130.941 35.2766L130.981 35.3146L131.019 35.3545L131.055 35.3962L131.089 35.4395L131.121 35.4844L131.151 35.5311L131.179 35.5791L131.204 35.6286L131.227 35.6795L131.248 35.7315L131.266 35.7849L131.281 35.8394L131.294 35.8949L131.304 35.9514L131.311 36.0089L131.316 36.0672L131.317 36.1262ZM121.979 34.9784H130.168V37.2741H121.979L120.83 36.1262L121.979 34.9784V34.9784ZM121.979 34.9784V37.2741L121.92 37.2726L121.861 37.2682L121.804 37.2609L121.747 37.2507L121.692 37.2379L121.637 37.2224L121.584 37.2044L121.532 37.1839L121.481 37.1609L121.431 37.1355L121.383 37.1079L121.336 37.078L121.291 37.046L121.248 37.0119L121.206 36.9758L121.166 36.9379L121.128 36.8979L121.092 36.8563L121.058 36.8129L121.026 36.768L120.996 36.7214L120.968 36.6733L120.943 36.6239L120.92 36.573L120.899 36.5209L120.881 36.4676L120.866 36.4131L120.853 36.3575L120.843 36.301L120.836 36.2436L120.831 36.1853L120.83 36.1262L120.831 36.0672L120.836 36.0089L120.843 35.9514L120.853 35.8949L120.866 35.8394L120.881 35.7849L120.899 35.7315L120.92 35.6795L120.943 35.6286L120.968 35.5791L120.996 35.5311L121.026 35.4844L121.058 35.4395L121.092 35.3962L121.128 35.3545L121.166 35.3146L121.206 35.2766L121.248 35.2406L121.291 35.2064L121.336 35.1744L121.383 35.1446L121.431 35.1169L121.481 35.0916L121.532 35.0686L121.584 35.048L121.637 35.03L121.692 35.0145L121.747 35.0018L121.804 34.9916L121.861 34.9843L121.92 34.9799L121.979 34.9784ZM120.83 72.9749V36.1263H123.128V72.9749L121.979 74.1228L120.83 72.9749H120.83ZM120.83 72.9749H123.128L123.127 73.034L123.122 73.0923L123.115 73.1497L123.105 73.2062L123.092 73.2618L123.077 73.3163L123.059 73.3696L123.038 73.4217L123.015 73.4726L122.99 73.522L122.962 73.5701L122.932 73.6167L122.9 73.6616L122.866 73.705L122.83 73.7466L122.792 73.7866L122.752 73.8245L122.71 73.8606L122.667 73.8947L122.622 73.9267L122.575 73.9566L122.527 73.9842L122.477 74.0096L122.426 74.0326L122.374 74.0531L122.321 74.0711L122.266 74.0866L122.211 74.0994L122.154 74.1096L122.096 74.1169L122.038 74.1213L121.979 74.1228L121.92 74.1213L121.861 74.1169L121.804 74.1096L121.747 74.0994L121.692 74.0866L121.637 74.0711L121.584 74.0531L121.532 74.0326L121.481 74.0096L121.431 73.9842L121.383 73.9566L121.336 73.9267L121.291 73.8947L121.248 73.8606L121.206 73.8245L121.166 73.7866L121.128 73.7466L121.092 73.705L121.058 73.6616L121.026 73.6167L120.996 73.5701L120.968 73.522L120.943 73.4726L120.92 73.4217L120.899 73.3696L120.881 73.3163L120.866 73.2618L120.853 73.2062L120.843 73.1497L120.836 73.0923L120.831 73.034L120.83 72.9749ZM130.168 74.1228H121.979V71.8271H130.168L131.317 72.9749L130.168 74.1227V74.1228ZM130.168 74.1228V71.8271L130.227 71.8286L130.285 71.833L130.343 71.8403L130.4 71.8505L130.455 71.8633L130.51 71.8787L130.563 71.8967L130.615 71.9173L130.666 71.9402L130.716 71.9656L130.764 71.9933L130.811 72.0231L130.856 72.0551L130.899 72.0893L130.941 72.1253L130.981 72.1633L131.019 72.2032L131.055 72.2449L131.089 72.2882L131.121 72.3331L131.151 72.3798L131.179 72.4278L131.204 72.4773L131.227 72.5282L131.248 72.5802L131.266 72.6336L131.281 72.6881L131.294 72.7436L131.304 72.8001L131.311 72.8576L131.316 72.9159L131.317 72.9749L131.316 73.0339L131.311 73.0923L131.304 73.1497L131.294 73.2062L131.281 73.2618L131.266 73.3163L131.248 73.3696L131.227 73.4217L131.204 73.4726L131.179 73.522L131.151 73.5701L131.121 73.6167L131.089 73.6616L131.055 73.705L131.019 73.7466L130.981 73.7866L130.941 73.8245L130.899 73.8606L130.856 73.8947L130.811 73.9267L130.764 73.9566L130.716 73.9842L130.666 74.0096L130.615 74.0326L130.563 74.0531L130.51 74.0711L130.455 74.0866L130.4 74.0994L130.343 74.1096L130.285 74.1169L130.227 74.1213L130.168 74.1228Z" fill="#333333"/>
<path d="M130.298 82.7808H62.0898V80.4827H130.298V82.7808Z" fill="#333333"/>
<path d="M138.966 74.1223H121.979V71.8275H138.966V74.1223Z" fill="#333333"/>
<path d="M137.817 72.9749H140.116L140.103 73.4782L140.065 73.9759L140.003 74.4665L139.917 74.9496L139.807 75.4244L139.674 75.8901L139.52 76.3461L139.344 76.7917L139.147 77.2264L138.931 77.6493L138.694 78.0599L138.439 78.4575L138.165 78.8422L137.874 79.2124L137.565 79.5678L137.241 79.9081L136.9 80.2324L136.545 80.5403L136.173 80.8314L135.788 81.1047L135.39 81.3596L134.979 81.5955L134.556 81.8122L134.12 82.0086L133.674 82.1845L133.217 82.3387L132.752 82.4709L132.275 82.5805L131.792 82.6666L131.301 82.729L130.802 82.7667L130.298 82.7796V80.4839L130.686 80.4742L131.07 80.4452L131.446 80.3973L131.815 80.3313L132.179 80.2475L132.535 80.1466L132.884 80.0286L133.225 79.8943L133.558 79.744L133.882 79.5784L134.197 79.3975L134.502 79.2022L134.797 78.993L135.081 78.7698L135.354 78.5336L135.615 78.2847L135.864 78.0238L136.101 77.7511L136.325 77.4673L136.534 77.173L136.73 76.8682L136.911 76.5536L137.076 76.2301L137.227 75.8977L137.361 75.5572L137.479 75.2087L137.58 74.8528L137.664 74.4899L137.731 74.1203L137.778 73.7444L137.808 73.3626L137.817 72.9749Z" fill="#333333"/>
<path d="M125.706 25.576H40.1992V23.2803H125.706V25.576Z" fill="#333333"/>
<path d="M62.182 80.4839H130.391V82.7796H62.182V80.4839ZM62.182 80.4839V82.7796L62.1229 82.7781L62.0645 82.7737L62.007 82.7664L61.9504 82.7562L61.8948 82.7434L61.8402 82.728L61.7868 82.71L61.7347 82.6894L61.6837 82.6664L61.6342 82.6411L61.5861 82.6134L61.5394 82.5836L61.4944 82.5516L61.451 82.5174L61.4093 82.4814L61.3693 82.4434L61.3313 82.4035L61.2952 82.3618L61.261 82.3185L61.229 82.2735L61.1991 82.2269L61.1714 82.1789L61.146 82.1294L61.123 82.0785L61.1024 82.0265L61.0844 81.9731L61.0689 81.9186L61.0561 81.8631L61.0459 81.8065L61.0386 81.7491L61.0342 81.6908L61.0327 81.6318L61.0342 81.5727L61.0386 81.5144L61.0459 81.457L61.0561 81.4005L61.0689 81.3449L61.0844 81.2904L61.1024 81.2371L61.123 81.185L61.146 81.1341L61.1714 81.0847L61.1991 81.0366L61.229 80.99L61.261 80.945L61.2952 80.9017L61.3313 80.8601L61.3693 80.8201L61.4093 80.7822L61.451 80.7461L61.4944 80.7119L61.5394 80.68L61.5861 80.6501L61.6342 80.6225L61.6837 80.5971L61.7347 80.5741L61.7868 80.5535L61.8402 80.5356L61.8948 80.5201L61.9504 80.5073L62.007 80.4971L62.0645 80.4898L62.1229 80.4854L62.182 80.4839ZM70.9419 71.827V74.1227L72.091 72.9968L72.0689 73.4991L72.0223 73.9954L71.9518 74.4847L71.8579 74.9664L71.7414 75.4397L71.6028 75.9039L71.4426 76.3586L71.2615 76.8029L71.0602 77.2361L70.8392 77.6578L70.599 78.0673L70.3404 78.4639L70.0639 78.8473L69.77 79.2168L69.4594 79.5715L69.1326 79.9111L68.7903 80.2349L68.433 80.5422L68.061 80.8328L67.6751 81.1057L67.2761 81.3603L66.8643 81.5962L66.4403 81.8126L66.0048 82.009L65.5583 82.1846L65.1013 82.3389L64.6348 82.4709L64.1594 82.5805L63.6757 82.6666L63.1843 82.7291L62.686 82.7668L62.182 82.7796V80.4839L62.5702 80.4742L62.9525 80.4452L63.3289 80.3974L63.6992 80.3313L64.063 80.2475L64.4197 80.1465L64.7689 80.0285L65.1106 79.8941L65.4443 79.7437L65.7693 79.5778L66.0853 79.3968L66.3919 79.2012L66.6884 78.9916L66.9744 78.768L67.2495 78.5312L67.5134 78.2818L67.7652 78.0201L68.0046 77.7467L68.2311 77.4621L68.4442 77.1666L68.6436 76.8607L68.8286 76.5452L68.9988 76.2204L69.1539 75.8866L69.2934 75.5447L69.4166 75.1948L69.5234 74.8375L69.6131 74.473L69.6854 74.102L69.7397 73.7249L69.7757 73.3417L69.7928 72.9529L70.9419 71.827V71.827ZM72.091 72.9968L69.7928 72.9529L69.7954 72.8939L69.801 72.8356L69.8094 72.7784L69.8206 72.7221L69.8345 72.6668L69.851 72.6126L69.8701 72.5597L69.8916 72.508L69.9156 72.4575L69.942 72.4085L69.9706 72.361L70.0013 72.315L70.0342 72.2707L70.0692 72.2279L70.1061 72.187L70.1449 72.1478L70.1856 72.1107L70.2279 72.0753L70.272 72.0422L70.3177 72.011L70.3649 71.982L70.4135 71.9553L70.4636 71.9309L70.5149 71.9089L70.5675 71.8894L70.6212 71.8723L70.676 71.8579L70.7319 71.8461L70.7887 71.8371L70.8463 71.8309L70.9047 71.8276L70.9639 71.8272L71.023 71.8298L71.0813 71.8354L71.1386 71.8438L71.195 71.855L71.2504 71.8689L71.3046 71.8854L71.3576 71.9044L71.4094 71.9259L71.4599 71.9499L71.509 71.9762L71.5565 72.0048L71.6026 72.0355L71.647 72.0683L71.6898 72.1033L71.7308 72.1401L71.77 72.1789L71.8072 72.2195L71.8426 72.2618L71.8758 72.3058L71.907 72.3515L71.936 72.3986L71.9628 72.4471L71.9872 72.4972L72.0092 72.5484L72.0288 72.6009L72.0459 72.6546L72.0603 72.7093L72.0721 72.7651L72.0811 72.8219L72.0873 72.8794L72.0906 72.9377L72.091 72.9968ZM140.208 72.9749H137.91L139.059 74.1227H137.415H135.678H133.854H131.949H129.969H127.921H125.811H123.644H121.427H119.167H116.869H114.54H112.186H109.813H107.427H105.035H102.642H100.256H97.8815H95.5255H93.194H90.8932H88.6293H86.4087H84.2374H82.1217H80.0678H78.0818H76.1701H74.3387H72.5939H70.9419V71.827H72.5939H74.3387H76.1701H78.0818H80.0678H82.1217H84.2374H86.4087H88.6293H90.8932H93.194H95.5255H97.8815H100.256H102.642H105.035H107.427H109.813H112.186H114.54H116.869H119.167H121.427H123.644H125.811H127.921H129.969H131.949H133.854H135.678H137.415H139.059L140.208 72.9749V72.9749ZM139.059 74.1227V71.827L139.118 71.8285L139.176 71.8329L139.234 71.8402L139.291 71.8504L139.346 71.8632L139.401 71.8787L139.454 71.8966L139.506 71.9172L139.557 71.9402L139.607 71.9655L139.655 71.9932L139.702 72.0231L139.747 72.055L139.79 72.0892L139.832 72.1252L139.872 72.1632L139.91 72.2031L139.946 72.2448L139.98 72.2881L140.012 72.3331L140.042 72.3797L140.07 72.4278L140.095 72.4772L140.118 72.5281L140.139 72.5802L140.157 72.6335L140.172 72.688L140.185 72.7436L140.195 72.8001L140.202 72.8575L140.207 72.9158L140.208 72.9749L140.207 73.0339L140.202 73.0922L140.195 73.1496L140.185 73.2062L140.172 73.2617L140.157 73.3162L140.139 73.3696L140.118 73.4216L140.095 73.4725L140.07 73.522L140.042 73.57L140.012 73.6166L139.98 73.6616L139.946 73.7049L139.91 73.7466L139.872 73.7865L139.832 73.8245L139.79 73.8605L139.747 73.8947L139.702 73.9266L139.655 73.9565L139.607 73.9842L139.557 74.0095L139.506 74.0325L139.454 74.0531L139.401 74.0711L139.346 74.0865L139.291 74.0993L139.234 74.1095L139.176 74.1168L139.118 74.1212L139.059 74.1227ZM130.391 82.7796V80.4839L130.779 80.4741L131.161 80.4452L131.538 80.3973L131.908 80.3313L132.271 80.2475L132.628 80.1466L132.977 80.0286L133.318 79.8944L133.65 79.7441L133.974 79.5784L134.289 79.3975L134.594 79.2022L134.889 78.9929L135.173 78.7698L135.446 78.5336L135.708 78.2848L135.957 78.0238L136.193 77.751L136.417 77.4673L136.626 77.173L136.822 76.8682L137.003 76.5537L137.169 76.2301L137.319 75.8977L137.454 75.5572L137.572 75.2087L137.673 74.8528L137.757 74.4898L137.823 74.1202L137.871 73.7444L137.9 73.3626L137.91 72.9749H140.208L140.195 73.4782L140.158 73.9759L140.095 74.4665L140.009 74.9496L139.899 75.4243L139.767 75.89L139.612 76.3461L139.436 76.7918L139.24 77.2264L139.023 77.6493L138.786 78.0598L138.531 78.4575L138.258 78.8421L137.966 79.2124L137.658 79.5678L137.333 79.9081L136.992 80.2325L136.636 80.5404L136.266 80.8314L135.881 81.1047L135.482 81.3596L135.071 81.5956L134.648 81.8122L134.213 82.0087L133.767 82.1845L133.31 82.3388L132.844 82.4709L132.368 82.5805L131.885 82.6666L131.393 82.7291L130.895 82.7668L130.391 82.7796V82.7796ZM130.391 80.4839V82.7796L130.332 82.7781L130.273 82.7737L130.216 82.7664L130.159 82.7562L130.104 82.7434L130.049 82.728L129.996 82.71L129.944 82.6894L129.893 82.6664L129.843 82.6411L129.795 82.6134L129.748 82.5836L129.703 82.5516L129.66 82.5174L129.618 82.4814L129.578 82.4434L129.54 82.4035L129.504 82.3618L129.47 82.3185L129.438 82.2735L129.408 82.2269L129.38 82.1789L129.355 82.1294L129.332 82.0785L129.311 82.0265L129.293 81.9731L129.278 81.9186L129.265 81.8631L129.255 81.8065L129.248 81.7491L129.243 81.6908L129.242 81.6318L129.243 81.5727L129.248 81.5144L129.255 81.457L129.265 81.4005L129.278 81.3449L129.293 81.2904L129.311 81.2371L129.332 81.185L129.355 81.1341L129.38 81.0847L129.408 81.0366L129.438 80.99L129.47 80.945L129.504 80.9017L129.54 80.8601L129.578 80.8201L129.618 80.7822L129.66 80.7461L129.703 80.7119L129.748 80.68L129.795 80.6501L129.843 80.6225L129.893 80.5971L129.944 80.5741L129.996 80.5535L130.049 80.5356L130.104 80.5201L130.159 80.5073L130.216 80.4971L130.273 80.4898L130.332 80.4854L130.391 80.4839Z" fill="#333333"/>
<path d="M62.1819 82.7796V80.4839L62.5701 80.4742L62.9524 80.4452L63.3288 80.3974L63.6991 80.3313L64.0629 80.2475L64.4196 80.1465L64.7688 80.0285L65.1105 79.8941L65.4442 79.7437L65.7692 79.5778L66.0852 79.3968L66.3918 79.2012L66.6883 78.9916L66.9743 78.768L67.2494 78.5312L67.5133 78.2818L67.7651 78.0201L68.0045 77.7467L68.231 77.4621L68.4441 77.1666L68.6435 76.8607L68.8285 76.5452L68.9987 76.2204L69.1538 75.8866L69.2933 75.5447L69.4165 75.1948L69.5233 74.8375L69.613 74.473L69.6853 74.102L69.7396 73.7249L69.7756 73.3417L69.7927 72.9529L72.0909 72.9968L72.0688 73.4991L72.0222 73.9954L71.9517 74.4847L71.8578 74.9664L71.7413 75.4397L71.6027 75.9039L71.4425 76.3586L71.2614 76.8029L71.0601 77.2361L70.8391 77.6578L70.5989 78.0673L70.3403 78.4639L70.0638 78.8473L69.7699 79.2168L69.4593 79.5715L69.1325 79.9111L68.7902 80.2349L68.4329 80.5422L68.0609 80.8328L67.675 81.1057L67.276 81.3603L66.8642 81.5962L66.4402 81.8126L66.0047 82.009L65.5582 82.1846L65.1012 82.3389L64.6347 82.4709L64.1593 82.5805L63.6756 82.6666L63.1842 82.7291L62.6859 82.7668L62.1819 82.7796H62.1819ZM52.3646 72.9749H54.6632L54.673 73.3626L54.702 73.7444L54.7499 74.1202L54.816 74.4898L54.8999 74.8528L55.0011 75.2087L55.1191 75.5573L55.2535 75.8977L55.404 76.2301L55.5699 76.5537L55.751 76.8682L55.9465 77.1729L56.1562 77.4673L56.3795 77.7511L56.616 78.0238L56.8652 78.2848L57.1265 78.5336L57.3995 78.7698L57.6838 78.9929L57.9785 79.2023L58.2836 79.3975L58.5985 79.5784L58.9225 79.7441L59.2552 79.8943L59.5964 80.0286L59.9452 80.1466L60.3015 80.2475L60.6651 80.3313L61.0351 80.3974L61.4115 80.4452L61.7937 80.4742L62.1819 80.4839V82.7796L61.6779 82.7668L61.1797 82.7291L60.6883 82.6666L60.2047 82.5805L59.7295 82.4709L59.263 82.3388L58.8064 82.1845L58.3602 82.0088L57.9249 81.8122L57.5015 81.5956L57.0904 81.3596L56.6921 81.1046L56.3072 80.8314L55.9365 80.5404L55.5805 80.2325L55.2398 79.9081L54.915 79.5678L54.6067 79.2123L54.3154 78.8421L54.0417 78.4576L53.7864 78.0598L53.5501 77.6493L53.3332 77.2264L53.1365 76.7918L52.9604 76.346L52.8061 75.89L52.6736 75.4244L52.564 74.9496L52.4776 74.4665L52.4151 73.9759L52.3773 73.4782L52.3646 72.9749ZM54.6632 72.9749H52.3646L52.3661 72.9158L52.3704 72.8575L52.3777 72.8001L52.3879 72.7436L52.4007 72.688L52.4163 72.6335L52.4342 72.5802L52.4549 72.5281L52.4778 72.4772L52.5033 72.4278L52.5309 72.3797L52.5608 72.3331L52.5929 72.2881L52.6271 72.2448L52.6631 72.2032L52.7012 72.1632L52.7412 72.1253L52.7829 72.0892L52.8263 72.055L52.8713 72.0231L52.918 71.9932L52.9661 71.9656L53.0156 71.9402L53.0666 71.9172L53.1187 71.8966L53.1721 71.8787L53.2267 71.8632L53.2823 71.8504L53.3389 71.8402L53.3964 71.8329L53.4548 71.8285L53.5139 71.827L53.573 71.8285L53.6314 71.8329L53.6889 71.8402L53.7455 71.8504L53.8011 71.8632L53.8557 71.8787L53.9091 71.8966L53.9612 71.9172L54.0122 71.9402L54.0617 71.9656L54.1098 71.9932L54.1565 72.0231L54.2015 72.055L54.2449 72.0892L54.2866 72.1253L54.3266 72.1632L54.3646 72.2032L54.4007 72.2448L54.4349 72.2881L54.4669 72.3331L54.4968 72.3797L54.5245 72.4278L54.5499 72.4772L54.5729 72.5281L54.5935 72.5802L54.6115 72.6335L54.627 72.688L54.6398 72.7436L54.65 72.8001L54.6573 72.8575L54.6617 72.9158L54.6632 72.9749H54.6632ZM52.3646 34.6985H54.6632V35.8947V37.0908V38.2869V39.483V40.6791V41.8753V43.0714V44.2675V45.4637V46.6599V47.8559V49.0521V50.2483V51.4444V52.6405V53.8367V55.0328V56.2289V57.4251V58.6212V59.8174V61.0135V62.2096V63.4058V64.602V65.798V66.9942V68.1904V69.3864V70.5826V71.7787V72.9748H52.3646V71.7787V70.5826V69.3864V68.1904V66.9942V65.798V64.602V63.4058V62.2096V61.0135V59.8174V58.6212V57.4251V56.2289V55.0328V53.8367V52.6405V51.4444V50.2483V49.0521V47.8559V46.6599V45.4637V44.2675V43.0714V41.8753V40.6791V39.483V38.2869V37.0908V35.8947V34.6985ZM54.6632 34.6985H52.3646L52.3661 34.6395L52.3704 34.5812L52.3777 34.5237L52.3879 34.4672L52.4007 34.4117L52.4163 34.3572L52.4342 34.3038L52.4549 34.2518L52.4778 34.2009L52.5033 34.1514L52.5309 34.1034L52.5608 34.0567L52.5929 34.0118L52.6271 33.9685L52.6631 33.9268L52.7012 33.8869L52.7412 33.8489L52.7829 33.8129L52.8263 33.7787L52.8713 33.7467L52.918 33.7169L52.9661 33.6892L53.0156 33.6638L53.0666 33.6409L53.1187 33.6203L53.1721 33.6023L53.2267 33.5868L53.2823 33.5741L53.3389 33.5639L53.3964 33.5566L53.4548 33.5522L53.5139 33.5507L53.573 33.5522L53.6314 33.5566L53.6889 33.5639L53.7455 33.5741L53.8011 33.5868L53.8557 33.6023L53.9091 33.6203L53.9612 33.6409L54.0122 33.6638L54.0617 33.6892L54.1098 33.7169L54.1565 33.7467L54.2015 33.7787L54.2449 33.8129L54.2866 33.8489L54.3266 33.8869L54.3646 33.9268L54.4007 33.9685L54.4349 34.0118L54.4669 34.0567L54.4968 34.1034L54.5245 34.1514L54.5499 34.2009L54.5729 34.2518L54.5935 34.3038L54.6115 34.3572L54.627 34.4117L54.6398 34.4672L54.65 34.5237L54.6573 34.5812L54.6617 34.6395L54.6632 34.6985H54.6632ZM43.2304 23.2804V25.5761V23.2804L43.8176 23.2953L44.3977 23.3393L44.9698 23.4119L45.5331 23.5123L46.0865 23.6399L46.6294 23.7938L47.1612 23.9736L47.6807 24.1782L48.1874 24.407L48.6805 24.6591L49.1594 24.9342L49.6232 25.2312L50.0713 25.5494L50.5031 25.8883L50.9177 26.2469L51.3145 26.6247L51.6929 27.0211L52.052 27.4352L52.3913 27.8664L52.7099 28.3139L53.0073 28.7772L53.2827 29.2554L53.5352 29.7479L53.7642 30.254L53.9691 30.7728L54.1491 31.3039L54.3032 31.8461L54.431 32.3988L54.5315 32.9614L54.6042 33.5328L54.6483 34.1121L54.6632 34.6986H52.3646L52.3527 34.228L52.3174 33.7643L52.2593 33.3077L52.179 32.8588L52.077 32.4178L51.9541 31.9852L51.8107 31.562L51.6472 31.148L51.4644 30.7442L51.2627 30.351L51.0429 29.969L50.8053 29.5989L50.5505 29.2411L50.2792 28.8963L49.9919 28.5651L49.6891 28.248L49.3717 27.9457L49.0401 27.6588L48.6949 27.3878L48.3366 27.1334L47.966 26.8961L47.5835 26.6765L47.1898 26.4751L46.7855 26.2925L46.371 26.1292L45.9472 25.986L45.5141 25.8633L45.0725 25.7614L44.623 25.6812L44.1659 25.6232L43.7016 25.5879L43.2304 25.5761V23.2804L43.2304 23.2804ZM43.2304 23.2804V25.5761L43.1713 25.5746L43.1129 25.5702L43.0554 25.5629L42.9988 25.5527L42.9432 25.5399L42.8886 25.5244L42.8352 25.5064L42.7831 25.4859L42.7321 25.4629L42.6826 25.4375L42.6345 25.4099L42.5878 25.38L42.5428 25.348L42.4994 25.3139L42.4577 25.2778L42.4177 25.2399L42.3797 25.1999L42.3436 25.1583L42.3094 25.1149L42.2774 25.07L42.2475 25.0234L42.2198 24.9753L42.1944 24.9259L42.1714 24.875L42.1508 24.8229L42.1328 24.7696L42.1173 24.7151L42.1045 24.6595L42.0943 24.603L42.087 24.5456L42.0826 24.4873L42.0811 24.4282L42.0826 24.3692L42.087 24.3109L42.0943 24.2535L42.1045 24.1969L42.1173 24.1414L42.1328 24.0869L42.1508 24.0335L42.1714 23.9815L42.1944 23.9306L42.2198 23.8811L42.2475 23.8331L42.2774 23.7865L42.3094 23.7415L42.3436 23.6982L42.3797 23.6565L42.4177 23.6166L42.4577 23.5786L42.4994 23.5426L42.5428 23.5084L42.5878 23.4764L42.6345 23.4466L42.6826 23.4189L42.7321 23.3936L42.7831 23.3706L42.8352 23.35L42.8886 23.332L42.9432 23.3166L42.9988 23.3038L43.0554 23.2936L43.1129 23.2863L43.1713 23.2819L43.2304 23.2804ZM112.931 23.2804V25.5761H110.752H108.574H106.396H104.218H102.04H99.8618H97.6837H95.5055H93.3274H91.1493H88.9711H86.793H84.6149H82.4367H80.2586H78.0804H75.9022H73.7241H71.546H69.3678H67.1897H65.0116H62.8334H60.6553H58.4772H56.2991H54.1209H51.9427H49.7646H47.5865H45.4084H43.2303V23.2804H45.4084H47.5865H49.7646H51.9427H54.1209H56.2991H58.4772H60.6553H62.8334H65.0116H67.1897H69.3678H71.546H73.7241H75.9022H78.0804H80.2586H82.4367H84.6149H86.793H88.9711H91.1493H93.3274H95.5055H97.6837H99.8618H102.04H104.218H106.396H108.574H110.752H112.931ZM112.931 25.5761V23.2804L112.99 23.2819L113.048 23.2863L113.106 23.2936L113.162 23.3038L113.218 23.3166L113.272 23.332L113.326 23.35L113.378 23.3706L113.429 23.3936L113.478 23.4189L113.526 23.4466L113.573 23.4764L113.618 23.5084L113.662 23.5426L113.703 23.5786L113.743 23.6166L113.781 23.6565L113.817 23.6982L113.852 23.7415L113.884 23.7864L113.913 23.8331L113.941 23.8811L113.967 23.9306L113.99 23.9815L114.01 24.0335L114.028 24.0869L114.044 24.1414L114.056 24.1969L114.067 24.2535L114.074 24.3109L114.078 24.3692L114.08 24.4282L114.078 24.4873L114.074 24.5456L114.067 24.603L114.056 24.6595L114.044 24.7151L114.028 24.7696L114.01 24.8229L113.99 24.875L113.967 24.9259L113.941 24.9753L113.913 25.0234L113.884 25.07L113.852 25.1149L113.817 25.1583L113.781 25.1999L113.743 25.2399L113.703 25.2778L113.662 25.3139L113.618 25.348L113.573 25.38L113.526 25.4099L113.478 25.4375L113.429 25.4629L113.378 25.4859L113.326 25.5064L113.272 25.5244L113.218 25.5399L113.162 25.5527L113.106 25.5629L113.048 25.5702L112.99 25.5746L112.931 25.5761ZM123.22 33.5575H120.922L120.911 33.1457L120.881 32.7399L120.83 32.3404L120.759 31.9477L120.67 31.5619L120.563 31.1836L120.437 30.8129L120.294 30.451L120.134 30.0978L119.958 29.7538L119.766 29.4196L119.558 29.0957L119.335 28.7826L119.097 28.481L118.846 28.1911L118.581 27.9138L118.304 27.6494L118.013 27.3982L117.711 27.161L117.398 26.9384L117.074 26.731L116.739 26.5387L116.394 26.3625L116.041 26.2028L115.678 26.0601L115.307 25.9347L114.929 25.8272L114.542 25.7383L114.149 25.668L113.749 25.6173L113.343 25.5864L112.931 25.5761V23.2804L113.459 23.2938L113.981 23.3334L114.496 23.3987L115.003 23.4891L115.501 23.6041L115.99 23.7427L116.468 23.9043L116.936 24.0885L117.392 24.2945L117.836 24.5215L118.267 24.7689L118.684 25.0362L119.088 25.3228L119.476 25.6277L119.849 25.9504L120.207 26.2904L120.547 26.6473L120.87 27.0199L121.176 27.408L121.462 27.8108L121.73 28.2278L121.978 28.6582L122.205 29.1014L122.411 29.557L122.596 30.0242L122.758 30.502L122.896 30.99L123.011 31.4877L123.102 31.994L123.167 32.5084L123.207 33.0298L123.22 33.5575V33.5575ZM120.922 33.5575H123.22L123.219 33.6166L123.215 33.6749L123.207 33.7323L123.197 33.7888L123.184 33.8444L123.169 33.8989L123.151 33.9522L123.13 34.0043L123.107 34.0552L123.082 34.1046L123.054 34.1527L123.024 34.1993L122.992 34.2442L122.958 34.2876L122.922 34.3292L122.884 34.3692L122.844 34.4071L122.802 34.4432L122.759 34.4773L122.714 34.5093L122.667 34.5392L122.619 34.5668L122.569 34.5922L122.518 34.6152L122.466 34.6357L122.413 34.6537L122.358 34.6692L122.303 34.682L122.246 34.6922L122.189 34.6995L122.13 34.7039L122.071 34.7054L122.012 34.7039L121.954 34.6995L121.896 34.6922L121.84 34.682L121.784 34.6692L121.729 34.6537L121.676 34.6357L121.624 34.6152L121.573 34.5922L121.523 34.5668L121.475 34.5392L121.429 34.5093L121.384 34.4773L121.34 34.4432L121.298 34.4071L121.258 34.3692L121.22 34.3292L121.184 34.2876L121.15 34.2442L121.118 34.1993L121.088 34.1527L121.061 34.1046L121.035 34.0552L121.012 34.0043L120.992 33.9522L120.974 33.8989L120.958 33.8444L120.945 33.7888L120.935 33.7323L120.928 33.6749L120.923 33.6166L120.922 33.5575ZM122.071 74.1227V71.8271L120.922 72.9749V71.7432V70.5113V69.2795V68.0478V66.816V65.5842V64.3524V63.1206V61.8888V60.657V59.4252V58.1934V56.9616V55.7298V54.498V53.2661V52.0344V50.8026V49.5708V48.339V47.1071V45.8754V44.6436V43.4118V42.1799V40.9482V39.7164V38.4846V37.2529V36.021V34.7892V33.5575H123.22V34.7892V36.021V37.2529V38.4846V39.7164V40.9482V42.1799V43.4118V44.6436V45.8754V47.1071V48.339V49.5708V50.8026V52.0344V53.2661V54.498V55.7298V56.9616V58.1934V59.4252V60.657V61.8888V63.1206V64.3524V65.5842V66.816V68.0478V69.2795V70.5113V71.7432V72.9749L122.071 74.1227L122.071 74.1227ZM120.922 72.9749H123.22L123.219 73.0339L123.215 73.0922L123.207 73.1497L123.197 73.2062L123.184 73.2617L123.169 73.3163L123.151 73.3696L123.13 73.4216L123.107 73.4726L123.082 73.522L123.054 73.57L123.024 73.6167L122.992 73.6616L122.958 73.705L122.922 73.7466L122.884 73.7865L122.844 73.8245L122.802 73.8606L122.759 73.8947L122.714 73.9267L122.667 73.9565L122.619 73.9842L122.569 74.0096L122.518 74.0325L122.466 74.0531L122.413 74.0711L122.358 74.0866L122.303 74.0994L122.246 74.1095L122.189 74.1168L122.13 74.1212L122.071 74.1227L122.012 74.1212L121.954 74.1168L121.896 74.1095L121.84 74.0994L121.784 74.0866L121.729 74.0711L121.676 74.0531L121.624 74.0325L121.573 74.0096L121.523 73.9842L121.475 73.9565L121.429 73.9267L121.384 73.8947L121.34 73.8606L121.298 73.8245L121.258 73.7865L121.22 73.7466L121.184 73.705L121.15 73.6616L121.118 73.6167L121.088 73.57L121.061 73.522L121.035 73.4726L121.012 73.4216L120.992 73.3696L120.974 73.3163L120.958 73.2617L120.945 73.2062L120.935 73.1497L120.928 73.0922L120.923 73.0339L120.922 72.9749ZM72.091 72.9969L69.7928 72.9529L70.9419 71.8271H72.5452H74.1479H75.7501H77.3519H78.9532H80.554H82.1544H83.7544H85.3539H86.9531H88.5519H90.1504H91.7485H93.3464H94.9439H96.5411H98.138H99.7347H101.331H102.927H104.523H106.119H107.715H109.31H110.906H112.501H114.096H115.691H117.286H118.881H120.476H122.071V74.1227H120.476H118.881H117.286H115.691H114.096H112.501H110.906H109.31H107.715H106.119H104.523H102.927H101.331H99.7347H98.138H96.5411H94.9439H93.3464H91.7485H90.1504H88.5519H86.9531H85.3539H83.7544H82.1544H80.554H78.9532H77.3519H75.7501H74.1479H72.5452H70.9419L72.091 72.9969L72.091 72.9969ZM70.9419 71.8271V74.1227L70.8828 74.1212L70.8244 74.1168L70.7669 74.1095L70.7103 74.0993L70.6547 74.0866L70.6001 74.0711L70.5467 74.0531L70.4946 74.0325L70.4436 74.0096L70.3941 73.9842L70.346 73.9565L70.2993 73.9267L70.2543 73.8947L70.2109 73.8606L70.1692 73.8245L70.1292 73.7865L70.0912 73.7466L70.0551 73.705L70.0209 73.6616L69.9889 73.6167L69.959 73.57L69.9313 73.522L69.9059 73.4726L69.8829 73.4216L69.8623 73.3696L69.8443 73.3162L69.8288 73.2617L69.816 73.2062L69.8058 73.1497L69.7985 73.0922L69.7941 73.0339L69.7926 72.9749L69.7941 72.9159L69.7985 72.8575L69.8058 72.8001L69.816 72.7436L69.8288 72.6881L69.8443 72.6335L69.8623 72.5802L69.8829 72.5282L69.9059 72.4772L69.9313 72.4278L69.959 72.3798L69.9889 72.3331L70.0209 72.2882L70.0551 72.2448L70.0912 72.2032L70.1292 72.1632L70.1692 72.1253L70.2109 72.0892L70.2543 72.0551L70.2993 72.0231L70.346 71.9932L70.3941 71.9656L70.4436 71.9402L70.4946 71.9172L70.5467 71.8967L70.6001 71.8787L70.6547 71.8632L70.7103 71.8504L70.7669 71.8402L70.8244 71.833L70.8828 71.8286L70.9419 71.8271Z" fill="#333333"/>
<path fill-rule="evenodd" clip-rule="evenodd" d="M6.48145 92.423H17.3362V36.1262H6.48145V92.423Z" fill="#66798F"/>
<path d="M17.3362 93.5709H6.4814V91.2752H17.3362L18.4855 92.423L17.3362 93.5708V93.5709ZM17.3362 93.5709V91.2752L17.3953 91.2767L17.4537 91.2811L17.5112 91.2884L17.5678 91.2986L17.6234 91.3114L17.678 91.3268L17.7314 91.3448L17.7835 91.3654L17.8345 91.3884L17.884 91.4137L17.9321 91.4414L17.9788 91.4712L18.0238 91.5032L18.0672 91.5374L18.1089 91.5734L18.1489 91.6114L18.1869 91.6513L18.223 91.693L18.2572 91.7363L18.2892 91.7812L18.3191 91.8279L18.3468 91.8759L18.3722 91.9254L18.3952 91.9763L18.4158 92.0283L18.4338 92.0817L18.4493 92.1362L18.4621 92.1917L18.4723 92.2483L18.4796 92.3057L18.484 92.364L18.4855 92.423L18.484 92.4821L18.4796 92.5404L18.4723 92.5978L18.4621 92.6543L18.4493 92.7099L18.4338 92.7644L18.4158 92.8177L18.3952 92.8698L18.3722 92.9207L18.3468 92.9701L18.3191 93.0182L18.2892 93.0648L18.2572 93.1097L18.223 93.1531L18.1869 93.1947L18.1489 93.2347L18.1089 93.2726L18.0672 93.3087L18.0238 93.3429L17.9788 93.3748L17.9321 93.4047L17.884 93.4323L17.8345 93.4577L17.7835 93.4807L17.7314 93.5012L17.678 93.5192L17.6234 93.5347L17.5678 93.5475L17.5112 93.5577L17.4537 93.565L17.3953 93.5694L17.3362 93.5709ZM18.4855 36.1262V92.423H16.1868V36.1262L17.3362 34.9783L18.4855 36.1262H18.4855ZM18.4855 36.1262H16.1868L16.1883 36.0671L16.1927 36.0088L16.2 35.9514L16.2102 35.8949L16.223 35.8393L16.2385 35.7848L16.2565 35.7315L16.2771 35.6794L16.3001 35.6285L16.3255 35.5791L16.3532 35.531L16.3832 35.4844L16.4151 35.4394L16.4494 35.3961L16.4854 35.3545L16.5235 35.3145L16.5635 35.2766L16.6052 35.2405L16.6486 35.2063L16.6936 35.1744L16.7403 35.1445L16.7884 35.1169L16.8379 35.0915L16.8889 35.0685L16.941 35.0479L16.9944 35.03L17.049 35.0145L17.1046 35.0017L17.1612 34.9915L17.2187 34.9842L17.2771 34.9798L17.3362 34.9783L17.3953 34.9798L17.4537 34.9842L17.5112 34.9915L17.5678 35.0017L17.6234 35.0145L17.678 35.03L17.7314 35.0479L17.7835 35.0685L17.8345 35.0915L17.884 35.1169L17.9321 35.1445L17.9788 35.1744L18.0238 35.2063L18.0672 35.2405L18.1089 35.2766L18.1489 35.3145L18.1869 35.3545L18.223 35.3961L18.2572 35.4394L18.2892 35.4844L18.3191 35.531L18.3468 35.5791L18.3722 35.6285L18.3952 35.6794L18.4158 35.7315L18.4338 35.7848L18.4493 35.8393L18.4621 35.8949L18.4723 35.9514L18.4796 36.0088L18.484 36.0671L18.4855 36.1262ZM6.48134 34.9783H17.3361V37.274H6.48134L5.33204 36.1262L6.48134 34.9783V34.9783ZM6.48134 34.9783V37.274L6.42224 37.2725L6.36384 37.2681L6.30634 37.2608L6.24974 37.2506L6.19414 37.2378L6.13954 37.2224L6.08614 37.2044L6.03404 37.1838L5.98304 37.1608L5.93354 37.1355L5.88544 37.1078L5.83874 37.0779L5.79374 37.046L5.75033 37.0118L5.70863 36.9758L5.66863 36.9378L5.63063 36.8979L5.59453 36.8562L5.56033 36.8129L5.52833 36.7679L5.49843 36.7213L5.47073 36.6733L5.44533 36.6238L5.42233 36.5729L5.40173 36.5209L5.38373 36.4675L5.36823 36.413L5.35543 36.3575L5.34523 36.3009L5.33793 36.2435L5.33353 36.1852L5.33203 36.1262L5.33353 36.0671L5.33793 36.0088L5.34523 35.9514L5.35543 35.8949L5.36823 35.8393L5.38373 35.7848L5.40173 35.7315L5.42233 35.6794L5.44533 35.6285L5.47073 35.5791L5.49843 35.531L5.52833 35.4844L5.56033 35.4394L5.59453 35.3961L5.63063 35.3545L5.66863 35.3145L5.70863 35.2766L5.75033 35.2405L5.79374 35.2063L5.83874 35.1744L5.88544 35.1445L5.93354 35.1169L5.98304 35.0915L6.03404 35.0685L6.08614 35.0479L6.13954 35.03L6.19414 35.0145L6.24974 35.0017L6.30634 34.9915L6.36384 34.9842L6.42224 34.9798L6.48134 34.9783ZM5.33204 92.423V36.1262H7.63066V92.423L6.48135 93.5709L5.33205 92.423H5.33204ZM5.33204 92.423H7.63066L7.62916 92.4821L7.62476 92.5404L7.61746 92.5978L7.60726 92.6543L7.59446 92.7099L7.57896 92.7644L7.56096 92.8177L7.54036 92.8698L7.51736 92.9207L7.49196 92.9701L7.46426 93.0182L7.43436 93.0648L7.40236 93.1098L7.36816 93.1531L7.33205 93.1947L7.29405 93.2347L7.25405 93.2727L7.21235 93.3087L7.16895 93.3429L7.12395 93.3748L7.07725 93.4047L7.02915 93.4323L6.97965 93.4577L6.92865 93.4807L6.87655 93.5013L6.82315 93.5192L6.76855 93.5347L6.71295 93.5475L6.65635 93.5577L6.59885 93.565L6.54045 93.5694L6.48135 93.5709L6.42225 93.5694L6.36385 93.565L6.30634 93.5577L6.24974 93.5475L6.19414 93.5347L6.13954 93.5192L6.08614 93.5013L6.03404 93.4807L5.98304 93.4577L5.93354 93.4323L5.88544 93.4047L5.83874 93.3748L5.79374 93.3429L5.75034 93.3087L5.70864 93.2727L5.66864 93.2347L5.63064 93.1947L5.59454 93.1531L5.56034 93.1098L5.52834 93.0648L5.49844 93.0182L5.47074 92.9701L5.44534 92.9207L5.42234 92.8698L5.40174 92.8177L5.38374 92.7644L5.36824 92.7099L5.35544 92.6543L5.34524 92.5978L5.33794 92.5404L5.33354 92.4821L5.33204 92.423H5.33204Z" fill="#333333"/>
<path d="M6.53467 23.4167V9.91302H8.83325V23.4167H6.53467Z" fill="#4E7AB5"/>
<path d="M13.5801 23.4167V9.91302H15.8787V23.4167H13.5801Z" fill="#4E7AB5"/>
<path d="M20.626 23.4167V9.91302H22.9247V23.4167H20.626Z" fill="#4E7AB5"/>
<path d="M27.6719 23.4167V9.91302H29.9705V23.4167H27.6719Z" fill="#4E7AB5"/>
<path d="M7.68378 30.833C8.44543 30.833 9.06287 30.2164 9.06287 29.4557C9.06287 28.695 8.44543 28.0784 7.68378 28.0784C6.92213 28.0784 6.30469 28.695 6.30469 29.4557C6.30469 30.2164 6.92213 30.833 7.68378 30.833Z" fill="#FFEEA3"/>
<path d="M14.7297 30.833C15.4913 30.833 16.1088 30.2164 16.1088 29.4557C16.1088 28.695 15.4913 28.0784 14.7297 28.0784C13.968 28.0784 13.3506 28.695 13.3506 29.4557C13.3506 30.2164 13.968 30.833 14.7297 30.833Z" fill="#FFEEA3"/>
<path d="M21.7756 30.833C22.5372 30.833 23.1547 30.2164 23.1547 29.4557C23.1547 28.695 22.5372 28.0784 21.7756 28.0784C21.0139 28.0784 20.3965 28.695 20.3965 29.4557C20.3965 30.2164 21.0139 30.833 21.7756 30.833Z" fill="#FFEEA3"/>
<path d="M28.821 30.8331C29.5826 30.8331 30.2001 30.2164 30.2001 29.4557C30.2001 28.695 29.5826 28.0783 28.821 28.0783C28.0593 28.0783 27.4419 28.695 27.4419 29.4557C27.4419 30.2164 28.0593 30.8331 28.821 30.8331Z" fill="#FFEEA3"/>
</svg>
