<svg width="149" height="103" viewBox="0 0 149 103" fill="none" xmlns="http://www.w3.org/2000/svg">
<path fill-rule="evenodd" clip-rule="evenodd" d="M92.8976 37.0885C90.4912 27.2288 90.7915 15.2715 93.7993 1.21643H23.8089C20.8012 15.2715 20.5008 27.2288 22.9072 37.0885H92.8976Z" fill="#88A6E3"/>
<path d="M93.7991 2.43261V0.000199548L94.9884 1.4709L94.7168 2.77081L94.461 4.05821L94.2209 5.33301L93.9967 6.59521L93.7882 7.84472L93.5955 9.08172L93.4186 10.3061L93.2575 11.5177L93.112 12.7169L92.9823 13.9033L92.8683 15.0771L92.7701 16.2382L92.6875 17.3867L92.6207 18.5226L92.5694 19.6458L92.5338 20.7562L92.5139 21.8541L92.5096 22.9393L92.5209 24.0116L92.5478 25.0714L92.5902 26.1185L92.6482 27.1528L92.7217 28.1745L92.8108 29.1836L92.9153 30.18L93.0353 31.1636L93.1707 32.1346L93.3216 33.093L93.4879 34.0387L93.6695 34.9718L93.8665 35.8922L94.0789 36.8001L91.7159 37.3769L91.4929 36.4238L91.2863 35.4586L91.0961 34.4817L90.9222 33.4926L90.7647 32.4916L90.6233 31.4788L90.4983 30.454L90.3896 29.4172L90.2971 28.3687L90.2208 27.3082L90.1606 26.2357L90.1166 25.1514L90.0889 24.0552L90.0772 22.9471L90.0817 21.8271L90.1022 20.6952L90.1388 19.5513L90.1915 18.3956L90.2603 17.2279L90.3451 16.0484L90.4459 14.8569L90.5627 13.6535L90.6956 12.4381L90.8445 11.2109L91.0092 9.97173L91.1901 8.72053L91.3868 7.45732L91.5995 6.18222L91.8283 4.89522L92.0728 3.59601L92.3334 2.28501L92.6098 0.961911L93.7991 2.43261V2.43261ZM94.9884 1.4709L92.6098 0.961902L92.6244 0.901002L92.642 0.841602L92.6622 0.783702L92.6852 0.727401L92.7108 0.672701L92.7389 0.619701L92.7695 0.568401L92.8023 0.519001L92.8374 0.471401L92.8746 0.425801L92.9139 0.382101L92.9552 0.340401L92.9983 0.300901L93.0433 0.263501L93.0899 0.2284L93.1381 0.1955L93.1878 0.165L93.239 0.1368L93.2915 0.1111L93.3452 0.0880002L93.4001 0.0673002L93.456 0.0494001L93.5129 0.0341001L93.5707 0.0215001L93.6292 0.0118L93.6885 0.00490001L93.7484 0.001L93.8088 0L93.8696 0.00210001L93.9307 0.00720001L93.9921 0.0156L94.0536 0.0271001L94.1145 0.0417001L94.1739 0.0593002L94.2318 0.0795002L94.2881 0.1025L94.3428 0.1281L94.3958 0.1562L94.4471 0.1868L94.4965 0.219601L94.5441 0.254701L94.5897 0.291901L94.6334 0.331201L94.6751 0.372501L94.7146 0.415601L94.752 0.460601L94.7871 0.507201L94.82 0.555401L94.8505 0.605101L94.8787 0.656301L94.9044 0.708801L94.9275 0.762502L94.9482 0.817402L94.9661 0.873302L94.9814 0.930202L94.994 0.988002L95.0037 1.0465L95.0106 1.1058L95.0145 1.1657L95.0155 1.2261L95.0134 1.2869L95.0083 1.348L94.9999 1.4094L94.9884 1.4709V1.4709ZM23.8088 0.000199548H93.7992V2.43261H23.8088L22.6195 0.961904L23.8088 0.000199548ZM23.8088 0.000199548V2.43261L23.7462 2.43101L23.6845 2.42631L23.6236 2.41861L23.5637 2.40791L23.5049 2.39431L23.4472 2.37791L23.3907 2.35881L23.3354 2.33701L23.2816 2.31271L23.2291 2.28581L23.1782 2.25651L23.1288 2.22491L23.0812 2.19101L23.0352 2.15491L22.9911 2.11661L22.9488 2.07631L22.9086 2.03411L22.8703 1.99001L22.8342 1.94401L22.8003 1.89631L22.7687 1.84701L22.7394 1.79611L22.7125 1.74361L22.6882 1.68981L22.6664 1.63451L22.6473 1.57801L22.6309 1.52031L22.6173 1.46151L22.6066 1.40161L22.5989 1.34071L22.5942 1.27901L22.5926 1.21641L22.5942 1.15381L22.5989 1.09211L22.6066 1.03121L22.6173 0.971305L22.6309 0.912505L22.6473 0.854805L22.6664 0.798305L22.6882 0.743005L22.7125 0.689205L22.7394 0.636705L22.7687 0.585804L22.8003 0.536404L22.8342 0.488804L22.8703 0.442804L22.9086 0.398704L22.9488 0.356404L22.9911 0.316204L23.0352 0.277904L23.0812 0.241804L23.1288 0.207904L23.1782 0.176304L23.2291 0.147004L23.2816 0.120103L23.3354 0.0958034L23.3907 0.0740034L23.4472 0.0549033L23.5049 0.0385033L23.5637 0.0249032L23.6236 0.0142032L23.6845 0.00650319L23.7462 0.00180317L23.8088 0.000203169V0.000199548ZM22.9071 35.8723V38.3047L21.7256 37.3769L21.5026 36.4238L21.296 35.4586L21.1058 34.4817L20.9319 33.4926L20.7744 32.4916L20.633 31.4788L20.508 30.454L20.3993 29.4172L20.3068 28.3687L20.2305 27.3082L20.1703 26.2357L20.1263 25.1514L20.0986 24.0551L20.0869 22.947L20.0914 21.827L20.1119 20.6951L20.1485 19.5513L20.2012 18.3956L20.27 17.2279L20.3548 16.0484L20.4556 14.8569L20.5724 13.6535L20.7053 12.4382L20.8541 11.2109L21.0189 9.97172L21.1998 8.72052L21.3965 7.45731L21.6092 6.18221L21.838 4.89521L22.0825 3.59601L22.3431 2.28501L22.6195 0.961904L24.9981 1.47091L24.7265 2.77081L24.4707 4.05821L24.2306 5.33301L24.0064 6.59522L23.7979 7.84472L23.6052 9.08172L23.4283 10.3061L23.2671 11.5177L23.1217 12.7168L22.992 13.9033L22.878 15.0771L22.7798 16.2382L22.6972 17.3867L22.6304 18.5227L22.5791 19.6458L22.5435 20.7562L22.5236 21.8541L22.5193 22.9393L22.5306 24.0116L22.5575 25.0714L22.5999 26.1185L22.6579 27.1528L22.7314 28.1745L22.8205 29.1836L22.925 30.18L23.045 31.1636L23.1804 32.1346L23.3313 33.093L23.4976 34.0387L23.6792 34.9718L23.8762 35.8922L24.0886 36.8001L22.9071 35.8723L22.9071 35.8723ZM21.7256 37.3769L24.0886 36.8001L24.1019 36.8613L24.112 36.9224L24.1189 36.9834L24.1227 37.0441L24.1235 37.1045L24.1212 37.1644L24.116 37.2238L24.108 37.2827L24.0971 37.3408L24.0834 37.3981L24.0671 37.4545L24.048 37.51L24.0264 37.5643L24.0022 37.6175L23.9755 37.6695L23.9464 37.72L23.915 37.7692L23.8812 37.8168L23.8451 37.8628L23.8068 37.907L23.7664 37.9494L23.7238 37.99L23.6793 38.0285L23.6327 38.0649L23.5842 38.0992L23.5339 38.1311L23.4817 38.1608L23.4277 38.1879L23.3721 38.2125L23.3148 38.2344L23.2559 38.2536L23.1955 38.27L23.1343 38.2833L23.0732 38.2934L23.0122 38.3003L22.9515 38.3041L22.8911 38.3049L22.8312 38.3026L22.7718 38.2974L22.7129 38.2894L22.6548 38.2785L22.5975 38.2648L22.5411 38.2485L22.4856 38.2294L22.4313 38.2078L22.3781 38.1836L22.3261 38.1569L22.2756 38.1278L22.2264 38.0964L22.1788 38.0626L22.1328 38.0265L22.0886 37.9882L22.0462 37.9478L22.0056 37.9052L21.9671 37.8607L21.9307 37.8141L21.8964 37.7656L21.8645 37.7153L21.8348 37.6631L21.8077 37.6091L21.7831 37.5535L21.7612 37.4962L21.742 37.4373L21.7256 37.3769ZM92.8972 38.3047H22.9068V35.8723H92.8972L94.0787 36.8001L92.8972 38.3047ZM92.8972 38.3047V35.8723L92.9598 35.8739L93.0215 35.8786L93.0824 35.8863L93.1423 35.897L93.2011 35.9106L93.2588 35.927L93.3153 35.9461L93.3706 35.9679L93.4244 35.9922L93.4769 36.0191L93.5278 36.0484L93.5772 36.08L93.6248 36.1139L93.6708 36.15L93.7149 36.1883L93.7572 36.2285L93.7974 36.2708L93.8357 36.3149L93.8718 36.3609L93.9057 36.4085L93.9373 36.4579L93.9666 36.5088L93.9935 36.5613L94.0178 36.6151L94.0396 36.6704L94.0587 36.7269L94.0751 36.7846L94.0887 36.8434L94.0994 36.9033L94.1071 36.9642L94.1118 37.0259L94.1134 37.0885L94.1118 37.1511L94.1071 37.2128L94.0994 37.2737L94.0887 37.3336L94.0751 37.3924L94.0587 37.4501L94.0396 37.5066L94.0178 37.5619L93.9935 37.6157L93.9666 37.6682L93.9373 37.7191L93.9057 37.7684L93.8718 37.8161L93.8357 37.8621L93.7974 37.9062L93.7572 37.9484L93.7149 37.9887L93.6708 38.027L93.6248 38.0631L93.5772 38.097L93.5278 38.1286L93.4769 38.1579L93.4244 38.1848L93.3706 38.2091L93.3153 38.2309L93.2588 38.25L93.2011 38.2664L93.1423 38.28L93.0824 38.2907L93.0215 38.2984L92.9598 38.3031L92.8972 38.3047V38.3047Z" fill="#333333"/>
<path d="M38.7396 10.3207V12.7531L38.677 12.7515L38.6153 12.7468L38.5544 12.7391L38.4945 12.7284L38.4357 12.7148L38.378 12.6984L38.3215 12.6793L38.2662 12.6575L38.2124 12.6332L38.1599 12.6063L38.109 12.577L38.0596 12.5454L38.012 12.5115L37.966 12.4754L37.9219 12.4371L37.8796 12.3968L37.8394 12.3546L37.8011 12.3105L37.765 12.2645L37.7311 12.2168L37.6995 12.1675L37.6702 12.1166L37.6433 12.0641L37.619 12.0103L37.5972 11.955L37.5781 11.8985L37.5617 11.8408L37.5481 11.782L37.5374 11.7221L37.5297 11.6612L37.525 11.5995L37.5234 11.5369L37.525 11.4743L37.5297 11.4126L37.5374 11.3517L37.5481 11.2918L37.5617 11.233L37.5781 11.1753L37.5972 11.1188L37.619 11.0635L37.6433 11.0097L37.6702 10.9572L37.6995 10.9063L37.7311 10.8569L37.765 10.8093L37.8011 10.7633L37.8394 10.7192L37.8796 10.6769L37.9219 10.6367L37.966 10.5984L38.012 10.5623L38.0596 10.5284L38.109 10.4968L38.1599 10.4675L38.2124 10.4406L38.2662 10.4163L38.3215 10.3945L38.378 10.3754L38.4357 10.359L38.4945 10.3454L38.5544 10.3347L38.6153 10.327L38.677 10.3223L38.7396 10.3207V10.3207ZM73.2086 12.7531H38.7396V10.3207H73.2086V12.7531ZM73.2086 12.7531V10.3207L73.2712 10.3223L73.3329 10.327L73.3938 10.3347L73.4537 10.3454L73.5125 10.359L73.5702 10.3754L73.6267 10.3945L73.682 10.4163L73.7358 10.4406L73.7883 10.4675L73.8392 10.4968L73.8886 10.5284L73.9362 10.5623L73.9822 10.5984L74.0263 10.6367L74.0686 10.6769L74.1088 10.7192L74.1471 10.7633L74.1832 10.8093L74.2171 10.8569L74.2487 10.9063L74.278 10.9572L74.3049 11.0097L74.3292 11.0635L74.351 11.1188L74.3701 11.1753L74.3865 11.233L74.4001 11.2918L74.4108 11.3517L74.4185 11.4126L74.4232 11.4743L74.4248 11.5369L74.4232 11.5995L74.4185 11.6612L74.4108 11.7221L74.4001 11.782L74.3865 11.8408L74.3701 11.8985L74.351 11.955L74.3292 12.0103L74.3049 12.0641L74.278 12.1166L74.2487 12.1675L74.2171 12.2168L74.1832 12.2645L74.1471 12.3105L74.1088 12.3546L74.0686 12.3968L74.0263 12.4371L73.9822 12.4754L73.9362 12.5115L73.8886 12.5454L73.8392 12.577L73.7883 12.6063L73.7358 12.6332L73.682 12.6575L73.6267 12.6793L73.5702 12.6984L73.5125 12.7148L73.4537 12.7284L73.3938 12.7391L73.3329 12.7468L73.2712 12.7515L73.2086 12.7531V12.7531Z" fill="#4E7AB5"/>
<path d="M38.7396 18.9383V21.3707L38.677 21.3691L38.6153 21.3644L38.5544 21.3567L38.4945 21.346L38.4357 21.3324L38.378 21.316L38.3215 21.2969L38.2662 21.2751L38.2124 21.2508L38.1599 21.2239L38.109 21.1946L38.0596 21.163L38.012 21.1291L37.966 21.093L37.9219 21.0547L37.8796 21.0144L37.8394 20.9722L37.8011 20.9281L37.765 20.8821L37.7311 20.8344L37.6995 20.7851L37.6702 20.7342L37.6433 20.6817L37.619 20.6279L37.5972 20.5726L37.5781 20.5161L37.5617 20.4584L37.5481 20.3996L37.5374 20.3397L37.5297 20.2788L37.525 20.2171L37.5234 20.1545L37.525 20.0919L37.5297 20.0302L37.5374 19.9693L37.5481 19.9094L37.5617 19.8506L37.5781 19.7929L37.5972 19.7364L37.619 19.6811L37.6433 19.6273L37.6702 19.5748L37.6995 19.5239L37.7311 19.4745L37.765 19.4269L37.8011 19.3809L37.8394 19.3368L37.8796 19.2945L37.9219 19.2543L37.966 19.216L38.012 19.1799L38.0596 19.146L38.109 19.1144L38.1599 19.0851L38.2124 19.0582L38.2662 19.0339L38.3215 19.0121L38.378 18.993L38.4357 18.9766L38.4945 18.963L38.5544 18.9523L38.6153 18.9446L38.677 18.9399L38.7396 18.9383V18.9383ZM73.2086 21.3707H38.7396V18.9383H73.2086V21.3707ZM73.2086 21.3707V18.9383L73.2712 18.9399L73.3329 18.9446L73.3938 18.9523L73.4537 18.963L73.5125 18.9766L73.5702 18.993L73.6267 19.0121L73.682 19.0339L73.7358 19.0582L73.7883 19.0851L73.8392 19.1144L73.8886 19.146L73.9362 19.1799L73.9822 19.216L74.0263 19.2543L74.0686 19.2945L74.1088 19.3368L74.1471 19.3809L74.1832 19.4269L74.2171 19.4745L74.2487 19.5239L74.278 19.5748L74.3049 19.6273L74.3292 19.6811L74.351 19.7364L74.3701 19.7929L74.3865 19.8506L74.4001 19.9094L74.4108 19.9693L74.4185 20.0302L74.4232 20.0919L74.4248 20.1545L74.4232 20.2171L74.4185 20.2788L74.4108 20.3397L74.4001 20.3996L74.3865 20.4584L74.3701 20.5161L74.351 20.5726L74.3292 20.6279L74.3049 20.6817L74.278 20.7342L74.2487 20.7851L74.2171 20.8344L74.1832 20.8821L74.1471 20.9281L74.1088 20.9722L74.0686 21.0144L74.0263 21.0547L73.9822 21.093L73.9362 21.1291L73.8886 21.163L73.8392 21.1946L73.7883 21.2239L73.7358 21.2508L73.682 21.2751L73.6267 21.2969L73.5702 21.316L73.5125 21.3324L73.4537 21.346L73.3938 21.3567L73.3329 21.3644L73.2712 21.3691L73.2086 21.3707V21.3707Z" fill="#4E7AB5"/>
<path d="M38.7396 27.5558V29.9882L38.677 29.9866L38.6153 29.9819L38.5544 29.9742L38.4945 29.9635L38.4357 29.9499L38.378 29.9335L38.3215 29.9144L38.2662 29.8926L38.2124 29.8683L38.1599 29.8414L38.109 29.8121L38.0596 29.7805L38.012 29.7466L37.966 29.7105L37.9219 29.6722L37.8796 29.6319L37.8394 29.5897L37.8011 29.5456L37.765 29.4996L37.7311 29.4519L37.6995 29.4026L37.6702 29.3517L37.6433 29.2992L37.619 29.2454L37.5972 29.1901L37.5781 29.1336L37.5617 29.0759L37.5481 29.0171L37.5374 28.9572L37.5297 28.8963L37.525 28.8346L37.5234 28.772L37.525 28.7094L37.5297 28.6477L37.5374 28.5868L37.5481 28.5269L37.5617 28.4681L37.5781 28.4104L37.5972 28.3539L37.619 28.2986L37.6433 28.2448L37.6702 28.1923L37.6995 28.1414L37.7311 28.092L37.765 28.0444L37.8011 27.9984L37.8394 27.9543L37.8796 27.912L37.9219 27.8718L37.966 27.8335L38.012 27.7974L38.0596 27.7635L38.109 27.7319L38.1599 27.7026L38.2124 27.6757L38.2662 27.6514L38.3215 27.6296L38.378 27.6105L38.4357 27.5941L38.4945 27.5805L38.5544 27.5698L38.6153 27.5621L38.677 27.5574L38.7396 27.5558V27.5558ZM73.2086 29.9882H38.7396V27.5558H73.2086V29.9882ZM73.2086 29.9882V27.5558L73.2712 27.5574L73.3329 27.5621L73.3938 27.5698L73.4537 27.5805L73.5125 27.5941L73.5702 27.6105L73.6267 27.6296L73.682 27.6514L73.7358 27.6757L73.7883 27.7026L73.8392 27.7319L73.8886 27.7635L73.9362 27.7974L73.9822 27.8335L74.0263 27.8718L74.0686 27.912L74.1088 27.9543L74.1471 27.9984L74.1832 28.0444L74.2171 28.092L74.2487 28.1414L74.278 28.1923L74.3049 28.2448L74.3292 28.2986L74.351 28.3539L74.3701 28.4104L74.3865 28.4681L74.4001 28.5269L74.4108 28.5868L74.4185 28.6477L74.4232 28.7094L74.4248 28.772L74.4232 28.8346L74.4185 28.8963L74.4108 28.9572L74.4001 29.0171L74.3865 29.0759L74.3701 29.1336L74.351 29.1901L74.3292 29.2454L74.3049 29.2992L74.278 29.3517L74.2487 29.4026L74.2171 29.4519L74.1832 29.4996L74.1471 29.5456L74.1088 29.5897L74.0686 29.6319L74.0263 29.6722L73.9822 29.7105L73.9362 29.7466L73.8886 29.7805L73.8392 29.8121L73.7883 29.8414L73.7358 29.8683L73.682 29.8926L73.6267 29.9144L73.5702 29.9335L73.5125 29.9499L73.4537 29.9635L73.3938 29.9742L73.3329 29.9819L73.2712 29.9866L73.2086 29.9882V29.9882Z" fill="#4E7AB5"/>
<path fill-rule="evenodd" clip-rule="evenodd" d="M34.8834 53.3206H130.275C121.332 41.7931 110.109 36.3825 96.6074 37.0885H1.21631C14.7184 36.3825 25.9406 41.7931 34.8834 53.3206Z" fill="#B0C1D4"/>
<path d="M130.274 54.5368H34.8832V52.1044H130.274L131.235 52.5751L130.274 54.5368ZM130.274 54.5368V52.1044L130.337 52.106L130.399 52.1107L130.46 52.1184L130.519 52.1291L130.578 52.1427L130.636 52.1591L130.692 52.1782L130.748 52.2L130.802 52.2243L130.854 52.2512L130.905 52.2805L130.954 52.3121L131.002 52.346L131.048 52.3821L131.092 52.4204L131.134 52.4606L131.175 52.5029L131.213 52.547L131.249 52.593L131.283 52.6407L131.314 52.69L131.344 52.7409L131.371 52.7934L131.395 52.8472L131.417 52.9025L131.436 52.959L131.452 53.0167L131.466 53.0755L131.477 53.1354L131.484 53.1963L131.489 53.258L131.491 53.3206L131.489 53.3832L131.484 53.4449L131.477 53.5058L131.466 53.5657L131.452 53.6245L131.436 53.6822L131.417 53.7387L131.395 53.794L131.371 53.8478L131.344 53.9003L131.314 53.9512L131.283 54.0006L131.249 54.0482L131.213 54.0942L131.175 54.1383L131.134 54.1806L131.092 54.2208L131.048 54.2591L131.002 54.2952L130.954 54.3291L130.905 54.3607L130.854 54.39L130.802 54.4169L130.748 54.4412L130.692 54.463L130.636 54.4821L130.578 54.4985L130.519 54.5121L130.46 54.5228L130.399 54.5305L130.337 54.5352L130.274 54.5368V54.5368ZM96.6072 38.3047V35.8723L96.5437 35.8739L97.8368 35.8243L99.1175 35.8116L100.386 35.8357L101.641 35.8967L102.883 35.9947L104.113 36.1298L105.33 36.3019L106.534 36.5111L107.724 36.7574L108.901 37.041L110.065 37.3616L111.216 37.7195L112.352 38.1144L113.475 38.5464L114.584 39.0155L115.679 39.5215L116.759 40.0644L117.826 40.6441L118.878 41.2605L119.916 41.9137L120.939 42.6033L121.948 43.3294L122.942 44.0919L123.922 44.8906L124.887 45.7255L125.838 46.5964L126.774 47.5034L127.695 48.4462L128.602 49.4249L129.494 50.4393L130.372 51.4893L131.235 52.5751L129.313 54.0661L128.487 53.0263L127.648 52.0225L126.796 51.0547L125.933 50.1228L125.057 49.2268L124.169 48.3666L123.27 47.5421L122.357 46.7532L121.433 45.9997L120.497 45.2818L119.549 44.5991L118.588 43.9517L117.615 43.3395L116.63 42.7623L115.632 42.22L114.622 41.7125L113.6 41.2399L112.564 40.802L111.516 40.3986L110.455 40.0299L109.381 39.6958L108.294 39.3962L107.193 39.1312L106.079 38.9007L104.951 38.7047L103.81 38.5432L102.655 38.4165L101.486 38.3243L100.304 38.2667L99.1068 38.244L97.8958 38.2561L96.6707 38.3031L96.6072 38.3047L96.6072 38.3047ZM96.5437 35.8739L96.6707 38.3031L96.6081 38.3048L96.5462 38.3033L96.485 38.2988L96.4246 38.2912L96.3652 38.2807L96.3067 38.2674L96.2492 38.2512L96.1929 38.2323L96.1378 38.2108L96.0841 38.1867L96.0317 38.1602L95.9807 38.1311L95.9314 38.0998L95.8836 38.0661L95.8375 38.0302L95.7932 37.9922L95.7508 37.9521L95.7103 37.9101L95.6719 37.8661L95.6355 37.8202L95.6013 37.7726L95.5694 37.7233L95.5399 37.6723L95.5127 37.6198L95.4881 37.5658L95.4661 37.5103L95.4467 37.4535L95.4301 37.3955L95.4162 37.3362L95.4054 37.2759L95.3974 37.2144L95.3926 37.152L95.3909 37.0894L95.3924 37.0275L95.3969 36.9663L95.4045 36.9059L95.415 36.8465L95.4283 36.788L95.4445 36.7305L95.4634 36.6742L95.4849 36.6191L95.509 36.5654L95.5355 36.513L95.5646 36.462L95.5959 36.4127L95.6296 36.3649L95.6655 36.3188L95.7035 36.2745L95.7436 36.2321L95.7856 36.1916L95.8296 36.1532L95.8755 36.1168L95.9231 36.0826L95.9724 36.0507L96.0234 36.0212L96.0759 35.994L96.1299 35.9694L96.1854 35.9474L96.2422 35.928L96.3002 35.9114L96.3595 35.8975L96.4198 35.8867L96.4813 35.8787L96.5437 35.8739V35.8739ZM1.2162 35.8723H96.6073V38.3047H1.2162L1.1527 35.8739L1.2162 35.8723V35.8723ZM1.2162 35.8723V38.3047L1.1536 38.3031L1.0919 38.2984L1.031 38.2907L0.971102 38.28L0.912302 38.2664L0.854602 38.25L0.798102 38.2309L0.742802 38.2091L0.689001 38.1848L0.636501 38.1579L0.585601 38.1286L0.536201 38.097L0.488601 38.0631L0.442601 38.027L0.398501 37.9887L0.356201 37.9484L0.316001 37.9062L0.277701 37.8621L0.241601 37.8161L0.2077 37.7684L0.1761 37.7191L0.1468 37.6682L0.1199 37.6157L0.0956002 37.5619L0.0738002 37.5066L0.0547001 37.4501L0.0383001 37.3924L0.0247001 37.3336L0.0140001 37.2737L0.00630002 37.2128L0.0016 37.1511L0 37.0885L0.0016 37.0259L0.00630002 36.9642L0.0140001 36.9033L0.0247001 36.8434L0.0383001 36.7846L0.0547001 36.7269L0.0738002 36.6704L0.0956002 36.6151L0.1199 36.5613L0.1468 36.5088L0.1761 36.4579L0.2077 36.4085L0.241601 36.3609L0.277701 36.3149L0.316001 36.2708L0.356201 36.2285L0.398501 36.1883L0.442601 36.15L0.488601 36.1139L0.536201 36.08L0.585601 36.0484L0.636501 36.0191L0.689001 35.9922L0.742802 35.9679L0.798102 35.9461L0.854602 35.927L0.912302 35.9106L0.971102 35.897L1.031 35.8863L1.0919 35.8786L1.1536 35.8739L1.2162 35.8723V35.8723ZM34.8833 52.1044V54.5368L33.9223 54.0661L33.0955 53.0263L32.2565 52.0225L31.4052 51.0547L30.5418 50.1228L29.6661 49.2268L28.7784 48.3666L27.8786 47.5421L26.9665 46.7532L26.0424 45.9997L25.1062 45.2818L24.1578 44.5991L23.1971 43.9517L22.2243 43.3395L21.2391 42.7623L20.2414 42.22L19.2313 41.7125L18.2086 41.2399L17.1732 40.802L16.1251 40.3986L15.064 40.0299L13.9898 39.6958L12.9025 39.3962L11.8019 39.1312L10.6879 38.9007L9.56033 38.7047L8.41913 38.5432L7.26423 38.4165L6.09533 38.3243L4.91252 38.2667L3.71572 38.244L2.50482 38.2561L1.27971 38.3031L1.15271 35.8739L2.44582 35.8243L3.72652 35.8116L4.99453 35.8357L6.24993 35.8967L7.49244 35.9947L8.72214 36.1298L9.93894 36.3019L11.1425 36.5111L12.3331 36.7574L13.5103 37.041L14.6742 37.3616L15.8245 37.7195L16.9611 38.1144L18.084 38.5464L19.1928 39.0155L20.2877 39.5215L21.3684 40.0644L22.4349 40.6441L23.4871 41.2605L24.5249 41.9137L25.5482 42.6033L26.557 43.3294L27.5514 44.0919L28.5311 44.8906L29.4962 45.7255L30.4468 46.5964L31.3827 47.5034L32.304 48.4462L33.2108 49.4249L34.1031 50.4393L34.9809 51.4893L35.8443 52.5751L34.8833 52.1044L34.8833 52.1044ZM33.9223 54.0661L35.8443 52.5751L35.8814 52.6255L35.9156 52.6772L35.9468 52.73L35.975 52.7839L36.0003 52.8387L36.0228 52.8944L36.0423 52.9507L36.0589 53.0077L36.0727 53.0652L36.0836 53.1231L36.0917 53.1813L36.097 53.2397L36.0994 53.2982L36.099 53.3566L36.0959 53.4149L36.0899 53.473L36.0813 53.5307L36.0698 53.5879L36.0556 53.6446L36.0388 53.7007L36.0192 53.7559L35.9969 53.8103L35.9719 53.8636L35.9443 53.9159L35.914 53.967L35.881 54.0167L35.8455 54.065L35.8073 54.1118L35.7665 54.157L35.7232 54.2004L35.6773 54.242L35.6288 54.2816L35.5784 54.3187L35.5267 54.3529L35.4739 54.3841L35.42 54.4123L35.3652 54.4376L35.3095 54.4601L35.2532 54.4796L35.1962 54.4962L35.1387 54.51L35.0808 54.5209L35.0226 54.529L34.9642 54.5343L34.9057 54.5367L34.8473 54.5363L34.789 54.5332L34.7309 54.5273L34.6732 54.5186L34.616 54.5071L34.5593 54.4929L34.5032 54.4761L34.448 54.4565L34.3936 54.4342L34.3403 54.4092L34.288 54.3816L34.2369 54.3513L34.1872 54.3183L34.1389 54.2828L34.0921 54.2446L34.0469 54.2038L34.0035 54.1605L33.9619 54.1146L33.9223 54.0661L33.9223 54.0661Z" fill="#333333"/>
<path fill-rule="evenodd" clip-rule="evenodd" d="M85.8549 43.3382C87.1467 43.3382 88.1942 44.3858 88.1942 45.6775C88.1942 46.9693 87.1467 48.0168 85.8549 48.0168C84.5631 48.0168 83.5156 46.9693 83.5156 45.6775C83.5156 44.3858 84.5631 43.3382 85.8549 43.3382Z" fill="#FFEEA3"/>
<path fill-rule="evenodd" clip-rule="evenodd" d="M96.5258 43.3382C97.8176 43.3382 98.8651 44.3858 98.8651 45.6775C98.8651 46.9693 97.8176 48.0168 96.5258 48.0168C95.234 48.0168 94.1865 46.9693 94.1865 45.6775C94.1865 44.3858 95.234 43.3382 96.5258 43.3382Z" fill="#FFEEA3"/>
<path fill-rule="evenodd" clip-rule="evenodd" d="M107.198 43.3382C108.489 43.3382 109.537 44.3858 109.537 45.6775C109.537 46.9693 108.489 48.0168 107.198 48.0168C105.906 48.0168 104.858 46.9693 104.858 45.6775C104.858 44.3858 105.906 43.3382 107.198 43.3382Z" fill="#FFEEA3"/>
<path fill-rule="evenodd" clip-rule="evenodd" d="M34.8834 76.968V53.3207C25.9406 41.7932 14.7184 36.3825 1.21631 37.0886V65.4454L34.8834 76.968Z" fill="#66798F"/>
<path d="M36.0996 53.3206V76.968H33.6672V53.3206L35.8444 52.5751L36.0996 53.3206H36.0996ZM36.0996 53.3206H33.6672L33.6688 53.258L33.6735 53.1963L33.6812 53.1354L33.6919 53.0755L33.7055 53.0167L33.7219 52.959L33.741 52.9025L33.7628 52.8472L33.7871 52.7934L33.814 52.7409L33.8433 52.69L33.8749 52.6407L33.9088 52.593L33.9449 52.547L33.9832 52.5029L34.0234 52.4606L34.0657 52.4204L34.1098 52.3821L34.1558 52.346L34.2034 52.3121L34.2528 52.2805L34.3037 52.2512L34.3562 52.2243L34.41 52.2L34.4653 52.1782L34.5218 52.1591L34.5795 52.1427L34.6383 52.1291L34.6982 52.1184L34.7591 52.1107L34.8208 52.106L34.8834 52.1044L34.946 52.106L35.0077 52.1107L35.0686 52.1184L35.1285 52.1291L35.1873 52.1427L35.245 52.1591L35.3015 52.1782L35.3568 52.2L35.4106 52.2243L35.4631 52.2512L35.514 52.2805L35.5633 52.3121L35.611 52.346L35.657 52.3821L35.7011 52.4204L35.7433 52.4606L35.7836 52.5029L35.8219 52.547L35.858 52.593L35.8919 52.6407L35.9235 52.69L35.9528 52.7409L35.9797 52.7934L36.004 52.8472L36.0258 52.9025L36.0449 52.959L36.0613 53.0167L36.0749 53.0755L36.0856 53.1354L36.0933 53.1963L36.098 53.258L36.0996 53.3206H36.0996ZM2.4325 37.0885H9.5853e-05L1.1528 35.8739L2.4459 35.8243L3.7266 35.8116L4.99461 35.8357L6.25001 35.8967L7.49252 35.9947L8.72222 36.1298L9.93902 36.3019L11.1426 36.5111L12.3332 36.7574L13.5104 37.041L14.6743 37.3616L15.8246 37.7195L16.9611 38.1144L18.084 38.5464L19.1928 39.0155L20.2877 39.5215L21.3685 40.0644L22.4349 40.6441L23.4872 41.2605L24.525 41.9137L25.5483 42.6033L26.5571 43.3294L27.5515 44.0919L28.5312 44.8906L29.4963 45.7255L30.4469 46.5964L31.3828 47.5034L32.3041 48.4462L33.2109 49.4249L34.1032 50.4393L34.981 51.4893L35.8444 52.5751L33.9224 54.0661L33.0956 53.0263L32.2566 52.0225L31.4053 51.0547L30.5419 50.1228L29.6662 49.2268L28.7785 48.3666L27.8787 47.5421L26.9666 46.7532L26.0425 45.9997L25.1063 45.2818L24.1579 44.5991L23.1972 43.9517L22.2244 43.3395L21.2392 42.7623L20.2415 42.22L19.2314 41.7125L18.2087 41.2399L17.1733 40.802L16.1252 40.3986L15.064 40.0299L13.9899 39.6958L12.9026 39.3962L11.802 39.1312L10.688 38.9007L9.56043 38.7047L8.41923 38.5432L7.26433 38.4165L6.09542 38.3243L4.91262 38.2667L3.71581 38.244L2.50491 38.2561L1.27981 38.3031L2.43251 37.0885L2.4325 37.0885ZM1.1528 35.8739L1.2798 38.3031L1.2172 38.3048L1.1553 38.3033L1.0941 38.2988L1.0337 38.2912L0.974302 38.2807L0.915802 38.2674L0.858302 38.2512L0.802002 38.2323L0.746902 38.2108L0.693202 38.1867L0.640801 38.1602L0.589801 38.1311L0.540501 38.0998L0.492701 38.0661L0.446601 38.0302L0.402301 37.9922L0.359901 37.9521L0.319401 37.9101L0.281001 37.8661L0.244601 37.8202L0.2104 37.7726L0.1785 37.7233L0.149 37.6723L0.1218 37.6198L0.0972002 37.5658L0.0752002 37.5103L0.0558001 37.4535L0.0392001 37.3955L0.0253 37.3362L0.0145 37.2759L0.00650002 37.2144L0.0017 37.152L0 37.0894L0.0015 37.0275L0.00600002 36.9663L0.0136 36.9059L0.0241001 36.8465L0.0374001 36.788L0.0536001 36.7305L0.0725001 36.6742L0.0940002 36.6191L0.1181 36.5654L0.1446 36.513L0.1737 36.462L0.205 36.4127L0.238701 36.3649L0.274601 36.3188L0.312601 36.2745L0.352701 36.2321L0.394701 36.1916L0.438701 36.1532L0.484601 36.1168L0.532201 36.0826L0.581501 36.0507L0.632501 36.0212L0.685001 35.994L0.739002 35.9694L0.794502 35.9474L0.851302 35.928L0.909302 35.9114L0.968602 35.8975L1.0289 35.8867L1.0904 35.8787L1.1528 35.8739H1.1528ZM0.00010197 65.4454V37.0885H2.43251V65.4454L0.822504 66.5961L0.00010197 65.4454ZM0.00010197 65.4454H2.43251L2.43091 65.5079L2.42621 65.5697L2.41851 65.6305L2.40781 65.6905L2.39421 65.7493L2.37781 65.807L2.35871 65.8635L2.33691 65.9187L2.31261 65.9725L2.28571 66.025L2.25641 66.0759L2.22481 66.1253L2.19091 66.173L2.15481 66.219L2.11651 66.2631L2.07621 66.3053L2.03401 66.3456L1.98991 66.3839L1.94391 66.42L1.89621 66.4538L1.84691 66.4855L1.79601 66.5148L1.74351 66.5417L1.68971 66.566L1.63441 66.5878L1.57791 66.6068L1.52021 66.6233L1.46141 66.6369L1.40151 66.6476L1.34061 66.6553L1.27891 66.66L1.21631 66.6616L1.15371 66.66L1.09201 66.6553L1.03111 66.6476L0.971208 66.6369L0.912407 66.6233L0.854707 66.6068L0.798207 66.5878L0.742907 66.566L0.689107 66.5417L0.636607 66.5148L0.585707 66.4855L0.536307 66.4538L0.488707 66.42L0.442706 66.3839L0.398606 66.3456L0.356306 66.3053L0.316106 66.2631L0.277806 66.219L0.241706 66.173L0.207806 66.1253L0.176206 66.0759L0.146906 66.025L0.120006 65.9725L0.0957058 65.9187L0.0739058 65.8635L0.0548057 65.807L0.0384057 65.7493L0.0248056 65.6905L0.0141057 65.6305L0.00640561 65.5697L0.0017056 65.5079L0.000105591 65.4454H0.00010197ZM34.4896 78.1187L0.822468 66.5961L1.61007 64.2947L35.2772 75.8173L36.0996 76.968L34.4896 78.1187V78.1187ZM34.4896 78.1187L35.2772 75.8173L35.3359 75.8391L35.3928 75.8635L35.4479 75.8905L35.5011 75.92L35.5524 75.9519L35.6017 75.9861L35.6489 76.0225L35.6941 76.061L35.7372 76.1015L35.7781 76.1439L35.8168 76.1881L35.8533 76.234L35.8874 76.2815L35.9192 76.3305L35.9486 76.381L35.9755 76.4328L35.9999 76.4858L36.0218 76.5399L36.0411 76.5951L36.0577 76.6512L36.0717 76.7081L36.0829 76.7658L36.0913 76.8241L36.0969 76.8829L36.0996 76.9423L36.0994 77.0019L36.0963 77.0618L36.0901 77.1219L36.0808 77.182L36.0684 77.2421L36.0529 77.3021L36.0341 77.3618L36.0123 77.4205L35.9879 77.4774L35.9609 77.5325L35.9314 77.5857L35.8995 77.637L35.8653 77.6863L35.8289 77.7335L35.7904 77.7787L35.7499 77.8218L35.7075 77.8627L35.6633 77.9014L35.6174 77.9379L35.5699 77.972L35.5209 78.0038L35.4704 78.0332L35.4186 78.0601L35.3656 78.0845L35.3115 78.1064L35.2563 78.1257L35.2002 78.1423L35.1433 78.1563L35.0856 78.1675L35.0273 78.1759L34.9685 78.1815L34.9091 78.1842L34.8495 78.184L34.7896 78.1809L34.7295 78.1747L34.6694 78.1654L34.6093 78.153L34.5493 78.1375L34.4896 78.1187Z" fill="#333333"/>
<path fill-rule="evenodd" clip-rule="evenodd" d="M43.8017 60.9361H114.443C120.015 61.854 125.291 63.6498 130.274 66.3229V53.3206H34.8833V76.968H51.0272C49.6567 69.4237 47.2489 64.0787 43.8015 60.9361L43.8017 60.9361Z" fill="#B0C1D4"/>
<path d="M114.443 62.1521H43.8014V59.7197H114.443L114.64 59.7359L114.443 62.1521V62.1521ZM114.443 62.1521V59.7197L114.505 59.7213L114.567 59.726L114.628 59.7337L114.688 59.7444L114.747 59.758L114.804 59.7744L114.861 59.7935L114.916 59.8153L114.97 59.8396L115.022 59.8665L115.073 59.8958L115.123 59.9274L115.17 59.9613L115.216 59.9974L115.26 60.0357L115.303 60.076L115.343 60.1182L115.381 60.1623L115.417 60.2083L115.451 60.256L115.483 60.3053L115.512 60.3562L115.539 60.4087L115.563 60.4625L115.585 60.5178L115.604 60.5743L115.621 60.632L115.634 60.6908L115.645 60.7507L115.653 60.8116L115.657 60.8733L115.659 60.9359L115.657 60.9985L115.653 61.0602L115.645 61.1211L115.634 61.181L115.621 61.2398L115.604 61.2975L115.585 61.354L115.563 61.4093L115.539 61.4631L115.512 61.5156L115.483 61.5665L115.451 61.6159L115.417 61.6635L115.381 61.7095L115.343 61.7536L115.303 61.7959L115.26 61.8361L115.216 61.8744L115.17 61.9105L115.123 61.9444L115.073 61.976L115.022 62.0053L114.97 62.0322L114.916 62.0565L114.861 62.0783L114.804 62.0974L114.747 62.1138L114.688 62.1274L114.628 62.1381L114.567 62.1458L114.505 62.1505L114.443 62.1521V62.1521ZM129.058 66.3226H131.49L129.699 67.3944L129.242 67.1521L128.783 66.9148L128.323 66.6826L127.861 66.4555L127.397 66.2335L126.932 66.0164L126.465 65.8044L125.996 65.5973L125.526 65.3954L125.054 65.1985L124.58 65.0066L124.105 64.8197L123.628 64.6379L123.15 64.4611L122.669 64.2892L122.187 64.1225L121.704 63.9607L121.219 63.804L120.732 63.6522L120.243 63.5056L119.753 63.3638L119.26 63.2271L118.767 63.0955L118.271 62.9688L117.774 62.8472L117.275 62.7305L116.774 62.6189L116.272 62.5123L115.768 62.4107L115.262 62.3141L114.754 62.2225L114.245 62.1359L114.64 59.7359L115.174 59.8265L115.706 59.9225L116.236 60.0237L116.765 60.1303L117.291 60.2421L117.816 60.3591L118.34 60.4814L118.861 60.609L119.381 60.7419L119.899 60.8801L120.416 61.0236L120.93 61.1722L121.443 61.3262L121.954 61.4854L122.463 61.6499L122.971 61.8197L123.477 61.9948L123.981 62.1751L124.483 62.3605L124.984 62.5515L125.482 62.7476L125.979 62.9489L126.474 63.1554L126.968 63.3673L127.459 63.5844L127.949 63.8068L128.437 64.0343L128.923 64.2671L129.407 64.5052L129.89 64.7486L130.37 64.9971L130.849 65.2508L129.058 66.3226H129.058ZM129.699 67.3944L130.849 65.2508L130.903 65.2818L130.956 65.3151L131.006 65.3507L131.053 65.3884L131.099 65.4282L131.142 65.4699L131.183 65.5135L131.221 65.5588L131.257 65.6057L131.291 65.6542L131.322 65.7041L131.35 65.7553L131.376 65.8077L131.4 65.8612L131.42 65.9158L131.439 65.9713L131.454 66.0275L131.467 66.0845L131.477 66.142L131.484 66.2001L131.489 66.2585L131.491 66.3172L131.489 66.3762L131.485 66.4351L131.479 66.4941L131.469 66.5529L131.456 66.6116L131.44 66.6698L131.421 66.7277L131.399 66.785L131.374 66.8416L131.346 66.8975L131.315 66.9519L131.282 67.0041L131.246 67.0541L131.208 67.1018L131.169 67.1472L131.127 67.1904L131.083 67.2311L131.038 67.2695L130.991 67.3055L130.943 67.339L130.893 67.37L130.841 67.3986L130.789 67.4245L130.736 67.448L130.681 67.4688L130.626 67.487L130.569 67.5025L130.512 67.5153L130.455 67.5254L130.397 67.5328L130.338 67.5373L130.28 67.5391L130.221 67.5379L130.162 67.5339L130.103 67.527L130.044 67.5172L129.985 67.5043L129.927 67.4885L129.869 67.4696L129.812 67.4476L129.755 67.4226L129.699 67.3944V67.3944ZM131.49 53.3204V66.3226H129.058V53.3204L130.274 52.1042L131.49 53.3204H131.49ZM131.49 53.3204H129.058L129.06 53.2578L129.064 53.1961L129.072 53.1352L129.083 53.0753L129.096 53.0165L129.113 52.9588L129.132 52.9023L129.154 52.847L129.178 52.7932L129.205 52.7407L129.234 52.6898L129.266 52.6405L129.3 52.5928L129.336 52.5468L129.374 52.5027L129.414 52.4604L129.456 52.4202L129.501 52.3819L129.547 52.3458L129.594 52.3119L129.644 52.2803L129.694 52.251L129.747 52.2241L129.801 52.1998L129.856 52.178L129.913 52.1589L129.97 52.1425L130.029 52.1289L130.089 52.1182L130.15 52.1105L130.212 52.1058L130.274 52.1042L130.337 52.1058L130.398 52.1105L130.459 52.1182L130.519 52.1289L130.578 52.1425L130.636 52.1589L130.692 52.178L130.748 52.1998L130.801 52.2241L130.854 52.251L130.905 52.2803L130.954 52.3119L131.002 52.3458L131.048 52.3819L131.092 52.4202L131.134 52.4604L131.174 52.5027L131.213 52.5468L131.249 52.5928L131.283 52.6405L131.314 52.6898L131.344 52.7407L131.37 52.7932L131.395 52.847L131.417 52.9023L131.436 52.9588L131.452 53.0165L131.466 53.0753L131.476 53.1352L131.484 53.1961L131.489 53.2578L131.49 53.3204H131.49ZM34.8832 52.1042H130.274V54.5366H34.8832L33.667 53.3204L34.8832 52.1042V52.1042ZM34.8832 52.1042V54.5366L34.8206 54.535L34.7589 54.5303L34.698 54.5226L34.6381 54.5119L34.5793 54.4983L34.5216 54.4819L34.4651 54.4628L34.4098 54.441L34.356 54.4167L34.3035 54.3898L34.2526 54.3605L34.2032 54.3289L34.1556 54.295L34.1096 54.2589L34.0655 54.2206L34.0232 54.1804L33.983 54.1381L33.9447 54.094L33.9086 54.048L33.8747 54.0004L33.8431 53.951L33.8138 53.9001L33.7869 53.8476L33.7626 53.7938L33.7408 53.7385L33.7217 53.682L33.7053 53.6243L33.6917 53.5655L33.681 53.5056L33.6733 53.4447L33.6686 53.383L33.667 53.3204L33.6686 53.2578L33.6733 53.1961L33.681 53.1352L33.6917 53.0753L33.7053 53.0165L33.7217 52.9588L33.7408 52.9023L33.7626 52.847L33.7869 52.7932L33.8138 52.7407L33.8431 52.6898L33.8747 52.6405L33.9086 52.5928L33.9447 52.5468L33.983 52.5027L34.0232 52.4604L34.0655 52.4202L34.1096 52.3819L34.1556 52.3458L34.2032 52.3119L34.2526 52.2803L34.3035 52.251L34.356 52.2241L34.4098 52.1998L34.4651 52.178L34.5216 52.1589L34.5793 52.1425L34.6381 52.1289L34.698 52.1182L34.7589 52.1105L34.8206 52.1058L34.8832 52.1042V52.1042ZM33.667 76.9677V53.3204H36.0994V76.9677L34.8832 78.1839L33.667 76.9677H33.667ZM33.667 76.9677H36.0994L36.0978 77.0303L36.0931 77.092L36.0854 77.1529L36.0747 77.2128L36.0611 77.2716L36.0447 77.3293L36.0256 77.3858L36.0038 77.4411L35.9795 77.4949L35.9526 77.5474L35.9233 77.5983L35.8917 77.6477L35.8578 77.6953L35.8217 77.7413L35.7834 77.7854L35.7431 77.8277L35.7009 77.8679L35.6568 77.9062L35.6108 77.9423L35.5631 77.9762L35.5138 78.0078L35.4629 78.0371L35.4104 78.064L35.3566 78.0883L35.3013 78.1101L35.2448 78.1292L35.1871 78.1456L35.1283 78.1592L35.0684 78.1699L35.0075 78.1776L34.9458 78.1823L34.8832 78.1839L34.8206 78.1823L34.7589 78.1776L34.698 78.1699L34.6381 78.1592L34.5793 78.1456L34.5216 78.1292L34.4651 78.1101L34.4098 78.0883L34.356 78.064L34.3035 78.0371L34.2526 78.0078L34.2032 77.9762L34.1556 77.9423L34.1096 77.9062L34.0655 77.8679L34.0232 77.8277L33.983 77.7854L33.9447 77.7413L33.9086 77.6953L33.8747 77.6477L33.8431 77.5983L33.8138 77.5474L33.7869 77.4949L33.7626 77.4411L33.7408 77.3858L33.7217 77.3293L33.7053 77.2716L33.6917 77.2128L33.681 77.1529L33.6733 77.092L33.6686 77.0303L33.667 76.9677H33.667ZM51.0271 78.1839H34.8832V75.7515H51.0271L52.2237 76.7503L51.0271 78.1839ZM51.0271 78.1839V75.7515L51.0897 75.7531L51.1514 75.7578L51.2123 75.7655L51.2722 75.7762L51.331 75.7898L51.3887 75.8062L51.4452 75.8253L51.5005 75.8471L51.5543 75.8714L51.6068 75.8983L51.6577 75.9276L51.7071 75.9592L51.7547 75.9931L51.8007 76.0292L51.8448 76.0675L51.8871 76.1078L51.9273 76.15L51.9656 76.1941L52.0017 76.2401L52.0356 76.2878L52.0672 76.3371L52.0965 76.388L52.1234 76.4405L52.1477 76.4943L52.1695 76.5496L52.1886 76.6061L52.205 76.6638L52.2186 76.7226L52.2293 76.7825L52.237 76.8434L52.2417 76.9051L52.2433 76.9677L52.2417 77.0303L52.237 77.092L52.2293 77.1529L52.2186 77.2128L52.205 77.2716L52.1886 77.3293L52.1695 77.3858L52.1477 77.4411L52.1234 77.4949L52.0965 77.5474L52.0672 77.5983L52.0356 77.6477L52.0017 77.6953L51.9656 77.7413L51.9273 77.7854L51.8871 77.8277L51.8448 77.8679L51.8007 77.9062L51.7547 77.9423L51.7071 77.9762L51.6577 78.0078L51.6068 78.0371L51.5543 78.064L51.5005 78.0883L51.4452 78.1101L51.3887 78.1292L51.331 78.1456L51.2722 78.1592L51.2123 78.1699L51.1514 78.1776L51.0897 78.1823L51.0271 78.1839V78.1839ZM43.8014 59.7197V62.1521L44.6207 60.0371L44.9682 60.3639L45.3082 60.7037L45.641 61.057L45.9662 61.423L46.2839 61.8018L46.5943 62.1935L46.8973 62.5979L47.1932 63.015L47.4817 63.4448L47.7628 63.8869L48.0369 64.3415L48.3041 64.8088L48.5639 65.2885L48.8168 65.7803L49.0628 66.2847L49.3019 66.8015L49.5341 67.3305L49.7596 67.8719L49.9783 68.4257L50.1903 68.9918L50.3956 69.5703L50.5942 70.1611L50.7862 70.7643L50.9718 71.3797L51.1508 72.0076L51.3234 72.6479L51.4894 73.3006L51.649 73.9657L51.8022 74.6432L51.9491 75.3331L52.0896 76.0355L52.2237 76.7503L49.8305 77.1851L49.7016 76.4983L49.5669 75.8247L49.4264 75.1646L49.28 74.5177L49.128 73.8842L48.9702 73.2641L48.8068 72.6574L48.6376 72.0641L48.4628 71.4841L48.2824 70.9175L48.0964 70.3645L47.9049 69.825L47.7079 69.2987L47.5054 68.7861L47.2975 68.2867L47.0843 67.8007L46.8658 67.3285L46.6418 66.8695L46.4127 66.4237L46.1785 65.9916L45.9393 65.5729L45.6948 65.1675L45.4453 64.7752L45.191 64.3964L44.9317 64.0307L44.6675 63.6781L44.3985 63.3388L44.1246 63.0122L43.8462 62.6986L43.563 62.3981L43.2748 62.1101L42.9821 61.8347L43.8014 59.7197H43.8014ZM44.6207 60.0371L42.9821 61.8347L42.9369 61.7914L42.8944 61.7463L42.8547 61.6996L42.8176 61.6513L42.7833 61.6017L42.7517 61.5507L42.7228 61.4985L42.6967 61.4452L42.6733 61.3909L42.6526 61.3357L42.6347 61.2798L42.6196 61.2231L42.6072 61.1659L42.5975 61.1083L42.5907 61.0503L42.5866 60.9921L42.5853 60.9338L42.5868 60.8754L42.591 60.8171L42.5981 60.759L42.6079 60.7013L42.6206 60.6439L42.6361 60.587L42.6544 60.5308L42.6755 60.4753L42.6994 60.4207L42.7262 60.367L42.7558 60.3144L42.7882 60.2629L42.8235 60.2127L42.8616 60.1639L42.9026 60.1166L42.9459 60.0714L42.991 60.0289L43.0377 59.9892L43.086 59.9521L43.1356 59.9178L43.1866 59.8862L43.2388 59.8573L43.2921 59.8312L43.3464 59.8078L43.4016 59.7871L43.4575 59.7692L43.5142 59.7541L43.5714 59.7417L43.629 59.732L43.687 59.7252L43.7452 59.7211L43.8035 59.7198L43.8619 59.7213L43.9202 59.7255L43.9783 59.7326L44.036 59.7424L44.0934 59.7551L44.1503 59.7706L44.2065 59.7889L44.262 59.81L44.3166 59.8339L44.3703 59.8607L44.4229 59.8903L44.4744 59.9227L44.5246 59.958L44.5734 59.9961L44.6207 60.0371L44.6207 60.0371Z" fill="#333333"/>
<path fill-rule="evenodd" clip-rule="evenodd" d="M132.624 90.5954H62.7841C63.4665 77.4081 57.1391 67.522 43.8018 60.9362C56.1522 62.971 67.0556 69.317 76.5119 79.9743H131.453C132.43 83.2383 132.822 86.7785 132.624 90.5954H132.624Z" fill="#88A6E3"/>
<path d="M62.7842 89.3794H132.624V91.8118H62.7842L61.5696 90.5327L62.7842 89.3794V89.3794ZM62.7842 89.3794V91.8118L62.7216 91.8102L62.6599 91.8055L62.599 91.7978L62.5391 91.7871L62.4803 91.7735L62.4226 91.7571L62.3661 91.738L62.3108 91.7162L62.257 91.6919L62.2045 91.665L62.1536 91.6357L62.1043 91.6041L62.0566 91.5702L62.0106 91.5341L61.9665 91.4958L61.9243 91.4556L61.884 91.4133L61.8457 91.3692L61.8096 91.3232L61.7757 91.2756L61.7441 91.2262L61.7148 91.1753L61.6879 91.1228L61.6636 91.069L61.6418 91.0137L61.6227 90.9572L61.6063 90.8995L61.5927 90.8407L61.582 90.7808L61.5743 90.7199L61.5696 90.6582L61.568 90.5956L61.5696 90.533L61.5743 90.4713L61.582 90.4104L61.5927 90.3505L61.6063 90.2917L61.6227 90.234L61.6418 90.1775L61.6636 90.1222L61.6879 90.0684L61.7148 90.0159L61.7441 89.965L61.7757 89.9157L61.8096 89.868L61.8457 89.822L61.884 89.7779L61.9243 89.7357L61.9665 89.6954L62.0106 89.6571L62.0566 89.621L62.1043 89.5871L62.1536 89.5555L62.2045 89.5262L62.257 89.4993L62.3108 89.475L62.3661 89.4532L62.4226 89.4341L62.4803 89.4177L62.5391 89.4041L62.599 89.3934L62.6599 89.3857L62.7216 89.381L62.7842 89.3794ZM43.9996 59.7364L43.6042 62.1364L44.3404 59.8459L45.5983 60.4873L46.816 61.1495L47.9933 61.8324L49.1302 62.5362L50.2265 63.2611L51.2823 64.0069L52.2973 64.7739L53.2714 65.5621L54.2047 66.3717L55.0968 67.2025L55.9475 68.0547L56.7568 68.9283L57.5243 69.8231L58.25 70.7391L58.9336 71.6765L59.5748 72.6348L60.1735 73.6139L60.7296 74.6137L61.2429 75.6341L61.7131 76.6747L62.1403 77.7353L62.5244 78.8158L62.8653 79.9157L63.1631 81.035L63.4176 82.1732L63.6291 83.3302L63.7977 84.506L63.9232 85.7002L64.006 86.9126L64.0461 88.1433L64.0436 89.3919L63.9988 90.6585L61.5696 90.5327L61.6116 89.3461L61.6139 88.1801L61.5766 87.0348L61.4998 85.91L61.3837 84.8055L61.2283 83.7214L61.0338 82.6572L60.8003 81.613L60.5277 80.5885L60.2162 79.5832L59.8657 78.5973L59.4761 77.6301L59.0475 76.6817L58.5798 75.7517L58.0727 74.8399L57.526 73.946L56.9398 73.0699L56.3138 72.2115L55.6477 71.3707L54.9414 70.5471L54.1945 69.7411L53.407 68.9523L52.5789 68.1809L51.7096 67.4269L50.7991 66.6903L49.8473 65.9711L48.8541 65.2693L47.8194 64.5852L46.7431 63.919L45.625 63.2703L44.4651 62.6397L43.2633 62.0269L43.9995 59.7364L43.9996 59.7364ZM44.3404 59.8459L43.2634 62.0269L43.208 61.9978L43.1547 61.9662L43.1035 61.9323L43.0546 61.8962L43.0077 61.858L42.9634 61.8177L42.9212 61.7756L42.8813 61.7316L42.8438 61.6859L42.8086 61.6386L42.7758 61.5898L42.7457 61.5396L42.7179 61.488L42.6926 61.4353L42.67 61.3815L42.6499 61.3267L42.6325 61.271L42.6179 61.2145L42.6059 61.1573L42.5966 61.0995L42.5901 61.0413L42.5864 60.9827L42.5854 60.9238L42.5875 60.8647L42.5923 60.8055L42.6002 60.7464L42.6112 60.6874L42.625 60.6286L42.6419 60.5702L42.6619 60.5122L42.6851 60.4547L42.7114 60.3979L42.7405 60.3425L42.7721 60.2892L42.806 60.238L42.8421 60.1891L42.8803 60.1423L42.9206 60.0979L42.9627 60.0557L43.0067 60.0158L43.0524 59.9783L43.0997 59.9431L43.1485 59.9104L43.1987 59.8802L43.2503 59.8524L43.303 59.8272L43.3568 59.8046L43.4116 59.7846L43.4673 59.7671L43.5238 59.7524L43.581 59.7404L43.6388 59.7311L43.697 59.7246L43.7556 59.7209L43.8145 59.72L43.8736 59.722L43.9328 59.7269L43.9919 59.7348L44.0509 59.7457L44.1097 59.7595L44.1681 59.7765L44.2261 59.7965L44.2836 59.8196L44.3404 59.8459ZM76.512 78.7582V81.1906L75.6023 80.7816L74.7257 79.8109L73.8413 78.8655L72.949 77.9453L72.0488 77.0505L71.1406 76.181L70.2245 75.3365L69.3007 74.5174L68.3688 73.7233L67.4291 72.9544L66.4817 72.2106L65.5262 71.4919L64.5629 70.7982L63.5917 70.1294L62.6126 69.4857L61.6255 68.867L60.6304 68.273L59.6275 67.7041L58.6165 67.1599L57.5975 66.6406L56.5704 66.146L55.5353 65.6761L54.4921 65.2311L53.4407 64.8107L52.381 64.415L51.3131 64.044L50.237 63.6975L49.1527 63.3758L48.0599 63.0787L46.9586 62.8062L45.849 62.5583L44.7309 62.3351L43.6042 62.1364L43.9996 59.7364L45.1801 59.9445L46.3522 60.1785L47.516 60.4384L48.6711 60.7243L49.8177 61.036L50.9558 61.3737L52.0851 61.7372L53.2058 62.1266L54.3177 62.5419L55.4209 62.9829L56.5153 63.4499L57.6008 63.9426L58.6775 64.461L59.7453 65.0053L60.8041 65.5751L61.854 66.1708L62.8949 66.792L63.9268 67.4389L64.9497 68.1114L65.9635 68.8094L66.9682 69.5329L67.9639 70.282L68.9505 71.0564L69.928 71.8563L70.8965 72.6816L71.8559 73.5323L72.8062 74.4082L73.7474 75.3095L74.6796 76.2361L75.6027 77.1879L76.5167 78.1649L77.4217 79.1672L76.512 78.7582ZM75.6023 80.7816L77.4217 79.1672L77.4621 79.2151L77.4995 79.2644L77.5341 79.315L77.5659 79.3669L77.5948 79.42L77.6208 79.474L77.644 79.529L77.6644 79.5847L77.6819 79.6412L77.6967 79.6982L77.7086 79.7558L77.7176 79.8137L77.7239 79.8718L77.7274 79.9302L77.7281 79.9886L77.726 80.0469L77.7212 80.105L77.7135 80.1629L77.7031 80.2204L77.69 80.2774L77.674 80.3338L77.6554 80.3895L77.634 80.4444L77.6099 80.4984L77.583 80.5514L77.5534 80.6032L77.5211 80.6537L77.4861 80.7029L77.4484 80.7507L77.408 80.7969L77.365 80.8414L77.3192 80.8841L77.2713 80.9245L77.222 80.9619L77.1714 80.9965L77.1195 81.0283L77.0664 81.0572L77.0124 81.0832L76.9574 81.1064L76.9017 81.1268L76.8452 81.1443L76.7882 81.1591L76.7306 81.171L76.6727 81.18L76.6146 81.1863L76.5562 81.1898L76.4978 81.1905L76.4395 81.1884L76.3814 81.1836L76.3235 81.1759L76.266 81.1655L76.209 81.1524L76.1526 81.1364L76.0969 81.1178L76.042 81.0964L75.988 81.0723L75.935 81.0454L75.8832 81.0158L75.8327 80.9835L75.7835 80.9485L75.7357 80.9108L75.6895 80.8704L75.645 80.8274L75.6023 80.7816H75.6023ZM131.454 81.1906H76.512V78.7582H131.454L132.619 79.6256L131.454 81.1906V81.1906ZM131.454 81.1906V78.7582L131.516 78.7598L131.578 78.7645L131.639 78.7722L131.699 78.7829L131.757 78.7965L131.815 78.8129L131.872 78.832L131.927 78.8538L131.981 78.8781L132.033 78.905L132.084 78.9343L132.134 78.9659L132.181 78.9998L132.227 79.0359L132.271 79.0742L132.314 79.1145L132.354 79.1567L132.392 79.2008L132.428 79.2468L132.462 79.2945L132.494 79.3438L132.523 79.3947L132.55 79.4472L132.574 79.501L132.596 79.5563L132.615 79.6128L132.631 79.6705L132.645 79.7293L132.656 79.7892L132.663 79.8501L132.668 79.9118L132.67 79.9744L132.668 80.037L132.663 80.0987L132.656 80.1596L132.645 80.2195L132.631 80.2783L132.615 80.336L132.596 80.3925L132.574 80.4478L132.55 80.5016L132.523 80.5541L132.494 80.605L132.462 80.6544L132.428 80.702L132.392 80.748L132.354 80.7921L132.314 80.8344L132.271 80.8746L132.227 80.9129L132.181 80.949L132.134 80.9829L132.084 81.0145L132.033 81.0438L131.981 81.0707L131.927 81.095L131.872 81.1168L131.815 81.1359L131.757 81.1523L131.699 81.1659L131.639 81.1766L131.578 81.1843L131.516 81.189L131.454 81.1906ZM132.624 91.8118V89.3794L131.409 90.5327L131.426 90.1871L131.439 89.8433L131.448 89.5013L131.454 89.1608L131.457 88.8222L131.457 88.4855L131.453 88.1502L131.446 87.8167L131.436 87.485L131.422 87.155L131.405 86.8268L131.385 86.5001L131.361 86.1752L131.334 85.8523L131.304 85.5307L131.27 85.211L131.234 84.893L131.194 84.5765L131.15 84.2621L131.103 83.9491L131.053 83.6377L131 83.328L130.944 83.0202L130.884 82.7141L130.821 82.4094L130.755 82.1062L130.685 81.8052L130.612 81.5056L130.536 81.2074L130.457 80.9109L130.374 80.6163L130.288 80.3232L132.619 79.6256L132.713 79.9462L132.803 80.2684L132.889 80.5921L132.973 80.9172L133.052 81.2442L133.128 81.5729L133.2 81.9029L133.269 82.2345L133.334 82.5679L133.395 82.9028L133.453 83.2391L133.507 83.5769L133.558 83.9165L133.605 84.2577L133.648 84.6002L133.688 84.9444L133.724 85.2901L133.757 85.6373L133.786 85.9862L133.812 86.3365L133.833 86.6882L133.852 87.0416L133.867 87.3964L133.878 87.7529L133.885 88.1108L133.889 88.4701L133.89 88.8312L133.887 89.1936L133.88 89.5575L133.87 89.9231L133.856 90.2901L133.839 90.6585L132.624 91.8118V91.8118ZM131.409 90.5327L133.839 90.6585L133.834 90.7209L133.826 90.7824L133.815 90.8427L133.801 90.902L133.785 90.9601L133.765 91.0169L133.743 91.0723L133.719 91.1263L133.692 91.1789L133.662 91.2298L133.63 91.2792L133.596 91.3268L133.56 91.3727L133.521 91.4167L133.481 91.4588L133.438 91.4989L133.394 91.5369L133.348 91.5728L133.3 91.6065L133.251 91.6379L133.2 91.667L133.148 91.6936L133.094 91.7177L133.039 91.7392L132.983 91.7581L132.925 91.7743L132.867 91.7877L132.807 91.7982L132.747 91.8058L132.686 91.8104L132.624 91.8119L132.561 91.8102L132.499 91.8054L132.437 91.7975L132.377 91.7866L132.318 91.7729L132.26 91.7563L132.203 91.7369L132.147 91.7149L132.093 91.6903L132.041 91.6632L131.99 91.6336L131.94 91.6018L131.893 91.5676L131.847 91.5313L131.803 91.4928L131.761 91.4524L131.721 91.41L131.683 91.3657L131.647 91.3197L131.613 91.2719L131.582 91.2225L131.553 91.1716L131.526 91.1192L131.502 91.0655L131.48 91.0104L131.462 90.9541L131.445 90.8967L131.432 90.8382L131.421 90.7788L131.414 90.7184L131.409 90.6572L131.408 90.5953L131.409 90.5327Z" fill="#333333"/>
<path fill-rule="evenodd" clip-rule="evenodd" d="M147.153 79.9739H76.5119C67.0556 69.3166 56.1522 62.9706 43.8018 60.9359H114.443C126.794 62.9706 137.697 69.3166 147.153 79.9739H147.153Z" fill="white"/>
<path d="M76.5119 78.7579H147.153V81.1903H76.5119L75.6022 80.7813L76.5119 78.7579V78.7579ZM76.5119 78.7579V81.1903L76.4493 81.1887L76.3876 81.184L76.3267 81.1763L76.2668 81.1656L76.208 81.152L76.1503 81.1356L76.0938 81.1165L76.0385 81.0947L75.9847 81.0704L75.9322 81.0435L75.8813 81.0142L75.832 80.9826L75.7843 80.9487L75.7383 80.9126L75.6942 80.8743L75.652 80.8341L75.6117 80.7918L75.5734 80.7477L75.5373 80.7017L75.5034 80.6541L75.4718 80.6047L75.4425 80.5538L75.4156 80.5013L75.3913 80.4475L75.3695 80.3922L75.3504 80.3357L75.334 80.278L75.3204 80.2192L75.3097 80.1593L75.302 80.0984L75.2973 80.0367L75.2957 79.9741L75.2973 79.9115L75.302 79.8498L75.3097 79.7889L75.3204 79.729L75.334 79.6702L75.3504 79.6125L75.3695 79.556L75.3913 79.5007L75.4156 79.4469L75.4425 79.3944L75.4718 79.3435L75.5034 79.2942L75.5373 79.2465L75.5734 79.2005L75.6117 79.1564L75.652 79.1142L75.6942 79.0739L75.7383 79.0356L75.7843 78.9995L75.832 78.9656L75.8813 78.934L75.9322 78.9047L75.9847 78.8778L76.0385 78.8535L76.0938 78.8317L76.1503 78.8126L76.208 78.7962L76.2668 78.7826L76.3267 78.7719L76.3876 78.7642L76.4493 78.7595L76.5119 78.7579V78.7579ZM43.8018 59.7198V62.1522L43.9994 59.736L45.18 59.9441L46.3521 60.1781L47.5159 60.438L48.671 60.7239L49.8176 61.0356L50.9557 61.3733L52.085 61.7368L53.2057 62.1262L54.3176 62.5415L55.4208 62.9825L56.5152 63.4495L57.6007 63.9422L58.6774 64.4606L59.7452 65.0049L60.804 65.5747L61.8539 66.1704L62.8948 66.7916L63.9267 67.4385L64.9496 68.111L65.9634 68.809L66.9681 69.5325L67.9638 70.2817L68.9504 71.0561L69.9279 71.856L70.8964 72.6813L71.8558 73.532L72.8061 74.4079L73.7473 75.3092L74.6795 76.2358L75.6026 77.1876L76.5166 78.1646L77.4216 79.1669L75.6022 80.7813L74.7256 79.8106L73.8412 78.8652L72.9489 77.945L72.0487 77.0502L71.1405 76.1807L70.2244 75.3362L69.3006 74.5171L68.3687 73.723L67.429 72.9541L66.4816 72.2103L65.5261 71.4916L64.5628 70.7979L63.5916 70.1291L62.6125 69.4854L61.6254 68.8667L60.6303 68.2726L59.6274 67.7037L58.6164 67.1595L57.5974 66.6402L56.5703 66.1456L55.5352 65.6757L54.492 65.2307L53.4406 64.8103L52.3809 64.4146L51.313 64.0436L50.2369 63.6971L49.1526 63.3754L48.0598 63.0783L46.9585 62.8058L45.8489 62.5579L44.7308 62.3347L43.6041 62.136L43.8018 59.7198L43.8018 59.7198ZM43.9994 59.736L43.604 62.136L43.5425 62.1243L43.4824 62.1096L43.4236 62.0921L43.3663 62.0718L43.3103 62.0488L43.2562 62.0233L43.2034 61.9952L43.1525 61.9648L43.1034 61.932L43.0559 61.897L43.0104 61.8598L42.9669 61.8206L42.9253 61.7793L42.886 61.7362L42.8487 61.6914L42.8134 61.6448L42.7806 61.5965L42.75 61.5468L42.7219 61.4956L42.6962 61.443L42.673 61.3892L42.6523 61.3342L42.6344 61.278L42.6191 61.2209L42.6066 61.1629L42.5969 61.104L42.5901 61.0444L42.5863 60.9842L42.5854 60.9233L42.5877 60.862L42.5931 60.8003L42.6017 60.7383L42.6134 60.6768L42.6281 60.6166L42.6456 60.5578L42.6659 60.5005L42.689 60.4446L42.7145 60.3904L42.7426 60.3377L42.7729 60.2868L42.8058 60.2376L42.8407 60.1902L42.878 60.1447L42.9171 60.1012L42.9585 60.0596L43.0016 60.0202L43.0463 59.9829L43.0929 59.9477L43.1412 59.9149L43.1909 59.8843L43.2421 59.8562L43.2948 59.8305L43.3486 59.8073L43.4036 59.7866L43.4598 59.7687L43.5168 59.7534L43.5749 59.7409L43.6338 59.7312L43.6934 59.7244L43.7536 59.7206L43.8144 59.7197L43.8758 59.722L43.9375 59.7274L43.9994 59.736ZM114.443 62.1522H43.8019V59.7198H114.443L114.641 59.736L114.443 62.1522V62.1522ZM114.443 62.1522V59.7198L114.506 59.7214L114.567 59.7261L114.628 59.7338L114.688 59.7445L114.747 59.7581L114.805 59.7745L114.861 59.7936L114.917 59.8154L114.97 59.8397L115.023 59.8666L115.074 59.8959L115.123 59.9275L115.171 59.9614L115.217 59.9975L115.261 60.0358L115.303 60.0761L115.343 60.1183L115.382 60.1624L115.418 60.2084L115.452 60.2561L115.483 60.3054L115.513 60.3563L115.539 60.4088L115.564 60.4626L115.586 60.5179L115.605 60.5744L115.621 60.6321L115.635 60.6909L115.645 60.7508L115.653 60.8117L115.658 60.8734L115.659 60.936L115.658 60.9986L115.653 61.0603L115.645 61.1212L115.635 61.1811L115.621 61.2399L115.605 61.2976L115.586 61.3541L115.564 61.4094L115.539 61.4632L115.513 61.5157L115.483 61.5666L115.452 61.616L115.418 61.6636L115.382 61.7096L115.343 61.7537L115.303 61.796L115.261 61.8362L115.217 61.8745L115.171 61.9106L115.123 61.9445L115.074 61.9761L115.023 62.0054L114.97 62.0323L114.917 62.0566L114.861 62.0784L114.805 62.0975L114.747 62.1139L114.688 62.1275L114.628 62.1382L114.567 62.1459L114.506 62.1506L114.443 62.1522V62.1522ZM147.153 81.1903V78.7579L146.244 80.7813L145.367 79.8106L144.483 78.8652L143.59 77.945L142.69 77.0502L141.782 76.1806L140.866 75.3361L139.942 74.517L139.01 73.7229L138.07 72.954L137.123 72.2102L136.168 71.4915L135.204 70.7978L134.233 70.129L133.254 69.4853L132.267 68.8666L131.272 68.2726L130.269 67.7037L129.258 67.1595L128.239 66.6402L127.212 66.1456L126.177 65.6757L125.133 65.2307L124.082 64.8103L123.022 64.4146L121.954 64.0436L120.878 63.6971L119.794 63.3754L118.701 63.0783L117.6 62.8058L116.49 62.5579L115.372 62.3347L114.245 62.136L114.641 59.736L115.821 59.9441L116.994 60.1781L118.157 60.438L119.312 60.7239L120.459 61.0356L121.597 61.3733L122.726 61.7368L123.847 62.1262L124.959 62.5415L126.062 62.9825L127.157 63.4495L128.242 63.9422L129.319 64.4606L130.387 65.0049L131.445 65.5747L132.495 66.1704L133.536 66.7916L134.568 67.4385L135.591 68.111L136.605 68.809L137.61 69.5325L138.605 70.2816L139.592 71.056L140.569 71.8559L141.538 72.6813L142.497 73.532L143.448 74.4079L144.389 75.3092L145.321 76.2357L146.244 77.1875L147.158 78.1646L148.063 79.1669L147.153 81.1903V81.1903ZM146.244 80.7813L148.063 79.1669L148.103 79.2148L148.141 79.2641L148.175 79.3147L148.207 79.3666L148.236 79.4197L148.262 79.4737L148.285 79.5287L148.306 79.5844L148.323 79.6409L148.338 79.6979L148.35 79.7555L148.359 79.8134L148.365 79.8715L148.369 79.9299L148.369 79.9883L148.367 80.0466L148.363 80.1047L148.355 80.1626L148.344 80.2201L148.331 80.2771L148.315 80.3335L148.297 80.3892L148.275 80.4441L148.251 80.4981L148.224 80.5511L148.195 80.6029L148.162 80.6534L148.127 80.7026L148.09 80.7504L148.049 80.7966L148.006 80.8411L147.961 80.8838L147.913 80.9242L147.863 80.9616L147.813 80.9962L147.761 81.028L147.708 81.0569L147.654 81.0829L147.599 81.1061L147.543 81.1265L147.487 81.144L147.43 81.1588L147.372 81.1707L147.314 81.1797L147.256 81.186L147.198 81.1895L147.139 81.1902L147.081 81.1881L147.023 81.1833L146.965 81.1756L146.907 81.1652L146.85 81.1521L146.794 81.1361L146.738 81.1175L146.683 81.0961L146.629 81.072L146.576 81.0451L146.525 81.0155L146.474 80.9832L146.425 80.9482L146.377 80.9105L146.331 80.8701L146.286 80.8271L146.244 80.7813Z" fill="#333333"/>
<path fill-rule="evenodd" clip-rule="evenodd" d="M122.103 101.216H52.2628C53.0236 80.1992 50.2033 66.7721 43.8013 60.9358C57.1386 67.5215 63.466 77.4077 62.7836 90.595H122.165C122.257 93.8637 122.239 97.4625 122.103 101.216H122.103Z" fill="white"/>
<path d="M52.2632 100H122.103V102.433H52.2632L51.0478 101.172L52.2632 100V100ZM52.2632 100V102.433L52.2006 102.431L52.1389 102.426L52.078 102.419L52.0181 102.408L51.9593 102.394L51.9016 102.378L51.8451 102.359L51.7898 102.337L51.736 102.313L51.6835 102.286L51.6326 102.257L51.5833 102.225L51.5356 102.191L51.4896 102.155L51.4455 102.117L51.4033 102.076L51.363 102.034L51.3247 101.99L51.2886 101.944L51.2547 101.896L51.2231 101.847L51.1938 101.796L51.1669 101.744L51.1426 101.69L51.1208 101.635L51.1017 101.578L51.0853 101.52L51.0717 101.462L51.061 101.402L51.0533 101.341L51.0486 101.279L51.047 101.216L51.0486 101.154L51.0533 101.092L51.061 101.031L51.0717 100.971L51.0853 100.913L51.1017 100.855L51.1208 100.798L51.1426 100.743L51.1669 100.689L51.1938 100.637L51.2231 100.586L51.2547 100.537L51.2886 100.489L51.3247 100.443L51.363 100.399L51.4033 100.357L51.4455 100.316L51.4896 100.278L51.5356 100.242L51.5833 100.208L51.6326 100.176L51.6835 100.147L51.736 100.12L51.7898 100.096L51.8451 100.074L51.9016 100.055L51.9593 100.039L52.0181 100.025L52.078 100.014L52.1389 100.007L52.2006 100.002L52.2632 100ZM44.3402 59.8455L43.2632 62.0265L44.6211 60.0372L45.2605 60.6546L45.8742 61.317L46.4624 62.024L47.0253 62.775L47.563 63.5695L48.076 64.4072L48.5643 65.2878L49.0286 66.2112L49.469 67.1772L49.886 68.1859L50.2797 69.2372L50.6506 70.331L50.9986 71.4675L51.3242 72.6466L51.6276 73.8685L51.9087 75.1334L52.1679 76.4411L52.4054 77.7918L52.621 79.1856L52.815 80.6226L52.9875 82.1029L53.1385 83.6265L53.2681 85.1936L53.3764 86.8041L53.4634 88.4581L53.5291 90.1559L53.5735 91.8972L53.5968 93.6822L53.599 95.511L53.58 97.3836L53.5398 99.3001L53.4786 101.26L51.0478 101.172L51.1082 99.2365L51.1478 97.3456L51.1666 95.5L51.1644 93.6994L51.1415 91.9438L51.0979 90.2337L51.0334 88.5689L50.9482 86.9493L50.8425 85.3752L50.7161 83.8465L50.5691 82.3633L50.4016 80.9258L50.2136 79.534L50.0054 78.188L49.7769 76.8877L49.5283 75.6334L49.2596 74.4251L48.9712 73.263L48.663 72.1469L48.3354 71.0772L47.9885 70.0538L47.6226 69.0767L47.2378 68.146L46.8346 67.2616L46.4133 66.4236L45.9742 65.6318L45.5176 64.8859L45.0439 64.1858L44.5532 63.5312L44.046 62.9214L43.5223 62.3562L42.9822 61.8348L44.3402 59.8454L44.3402 59.8455ZM44.6211 60.0372L42.9822 61.8348L42.9371 61.7915L42.8946 61.7464L42.8548 61.6997L42.8178 61.6514L42.7835 61.6017L42.7518 61.5507L42.723 61.4985L42.6968 61.4452L42.6735 61.3909L42.6528 61.3357L42.6349 61.2798L42.6198 61.2232L42.6074 61.166L42.5976 61.1083L42.5908 61.0503L42.5867 60.9921L42.5854 60.9338L42.5869 60.8754L42.5912 60.8171L42.5983 60.759L42.6081 60.7013L42.6208 60.6439L42.6362 60.587L42.6546 60.5308L42.6757 60.4753L42.6997 60.4207L42.7263 60.367L42.756 60.3144L42.7885 60.2629L42.8238 60.2127L42.8619 60.1639L42.9029 60.1166L42.9461 60.0714L42.9913 60.0289L43.038 59.9892L43.0863 59.9521L43.136 59.9178L43.187 59.8862L43.2392 59.8573L43.2925 59.8312L43.3468 59.8078L43.402 59.7871L43.4579 59.7692L43.5145 59.7541L43.5717 59.7417L43.6294 59.732L43.6874 59.7252L43.7456 59.7211L43.8039 59.7198L43.8623 59.7213L43.9206 59.7255L43.9787 59.7326L44.0364 59.7425L44.0938 59.7551L44.1507 59.7706L44.2069 59.7889L44.2624 59.81L44.317 59.834L44.3707 59.8607L44.4233 59.8903L44.4748 59.9228L44.525 59.9581L44.5738 59.9962L44.6211 60.0372L44.6211 60.0372ZM62.784 89.3789V91.8113L61.5694 90.5322L61.6114 89.3456L61.6137 88.1796L61.5764 87.0343L61.4996 85.9095L61.3835 84.8051L61.2281 83.721L61.0336 82.6568L60.8001 81.6126L60.5275 80.5881L60.216 79.5828L59.8655 78.5969L59.4759 77.6297L59.0473 76.6813L58.5796 75.7513L58.0725 74.8395L57.5258 73.9456L56.9396 73.0695L56.3136 72.2111L55.6475 71.3703L54.9412 70.5467L54.1943 69.7407L53.4068 68.9519L52.5787 68.1805L51.7094 67.4265L50.7989 66.6899L49.8471 65.9707L48.8539 65.2689L47.8192 64.5848L46.7429 63.9186L45.6248 63.2699L44.4649 62.6393L43.2632 62.0265L44.3402 59.8455L45.5981 60.4869L46.8158 61.1491L47.9931 61.832L49.13 62.5358L50.2263 63.2607L51.2821 64.0065L52.2971 64.7735L53.2712 65.5617L54.2045 66.3713L55.0966 67.2021L55.9473 68.0543L56.7566 68.9279L57.5241 69.8227L58.2498 70.7387L58.9334 71.6761L59.5746 72.6344L60.1733 73.6135L60.7294 74.6133L61.2427 75.6337L61.7129 76.6743L62.1401 77.7349L62.5242 78.8154L62.8651 79.9153L63.1629 81.0346L63.4174 82.1728L63.6289 83.3298L63.7975 84.5055L63.923 85.6997L64.0058 86.9121L64.0459 88.1428L64.0434 89.3914L63.9986 90.658L62.784 89.3789L62.784 89.3789ZM61.5694 90.5322L63.9986 90.658L63.9938 90.7204L63.9859 90.7819L63.975 90.8422L63.9613 90.9015L63.9447 90.9596L63.9253 91.0164L63.9033 91.0718L63.8787 91.1258L63.8516 91.1784L63.822 91.2293L63.7902 91.2787L63.756 91.3263L63.7197 91.3722L63.6812 91.4162L63.6408 91.4583L63.5984 91.4984L63.5541 91.5364L63.5081 91.5723L63.4603 91.606L63.4109 91.6374L63.36 91.6665L63.3076 91.6931L63.2539 91.7172L63.1988 91.7387L63.1425 91.7576L63.0851 91.7738L63.0266 91.7872L62.9672 91.7977L62.9068 91.8053L62.8456 91.8099L62.7837 91.8114L62.7211 91.8097L62.6587 91.8049L62.5972 91.797L62.5369 91.7861L62.4776 91.7724L62.4195 91.7558L62.3627 91.7364L62.3073 91.7144L62.2533 91.6898L62.2007 91.6627L62.1498 91.6331L62.1004 91.6013L62.0528 91.5671L62.0069 91.5308L61.9629 91.4923L61.9208 91.4519L61.8807 91.4095L61.8427 91.3652L61.8068 91.3192L61.7731 91.2714L61.7417 91.222L61.7126 91.1711L61.686 91.1187L61.6619 91.065L61.6404 91.0099L61.6215 90.9536L61.6053 90.8962L61.5919 90.8377L61.5814 90.7783L61.5738 90.7179L61.5692 90.6567L61.5677 90.5948L61.5694 90.5322ZM122.166 91.8113H62.784V89.3789H122.166L123.381 90.5609L122.166 91.8113ZM122.166 91.8113V89.3789L122.228 89.3805L122.29 89.3852L122.351 89.3929L122.411 89.4036L122.469 89.4172L122.527 89.4336L122.584 89.4527L122.639 89.4745L122.693 89.4988L122.745 89.5257L122.796 89.555L122.846 89.5866L122.893 89.6205L122.939 89.6566L122.983 89.6949L123.026 89.7352L123.066 89.7774L123.104 89.8215L123.14 89.8675L123.174 89.9152L123.206 89.9645L123.235 90.0154L123.262 90.0679L123.286 90.1217L123.308 90.177L123.327 90.2335L123.343 90.2912L123.357 90.35L123.368 90.4099L123.375 90.4708L123.38 90.5325L123.382 90.5951L123.38 90.6577L123.375 90.7194L123.368 90.7803L123.357 90.8402L123.343 90.899L123.327 90.9567L123.308 91.0132L123.286 91.0685L123.262 91.1223L123.235 91.1748L123.206 91.2257L123.174 91.2751L123.14 91.3227L123.104 91.3687L123.066 91.4128L123.026 91.4551L122.983 91.4953L122.939 91.5336L122.893 91.5697L122.846 91.6036L122.796 91.6352L122.745 91.6645L122.693 91.6914L122.639 91.7157L122.584 91.7375L122.527 91.7566L122.469 91.773L122.411 91.7866L122.351 91.7973L122.29 91.805L122.228 91.8097L122.166 91.8113ZM122.103 102.433V100L120.888 101.172L120.9 100.823L120.912 100.475L120.923 100.128L120.933 99.7814L120.942 99.4363L120.951 99.0923L120.96 98.749L120.967 98.4071L120.974 98.0665L120.98 97.7268L120.986 97.3886L120.991 97.0517L120.995 96.7158L120.998 96.3814L121.001 96.0485L121.004 95.7169L121.005 95.3867L121.006 95.0582L121.006 94.7309L121.006 94.4052L121.005 94.0813L121.003 93.7588L121.001 93.4379L120.997 93.1187L120.994 92.8011L120.989 92.4854L120.985 92.1714L120.979 91.8594L120.973 91.5491L120.966 91.2404L120.958 90.9338L120.95 90.6293L123.381 90.5609L123.39 90.8712L123.397 91.1832L123.404 91.4969L123.411 91.8126L123.417 92.1302L123.422 92.4494L123.426 92.7703L123.43 93.0929L123.433 93.4171L123.435 93.743L123.437 94.0705L123.438 94.3996L123.439 94.7301L123.438 95.0622L123.438 95.3959L123.436 95.7307L123.434 96.0671L123.431 96.405L123.427 96.744L123.423 97.0843L123.418 97.4262L123.412 97.7692L123.406 98.1132L123.399 98.4586L123.391 98.8054L123.383 99.1527L123.374 99.5015L123.364 99.8512L123.354 100.202L123.343 100.554L123.331 100.907L123.318 101.26L122.103 102.433H122.103ZM120.888 101.172L123.318 101.26L123.315 101.323L123.308 101.384L123.298 101.445L123.285 101.504L123.269 101.563L123.251 101.62L123.23 101.676L123.206 101.73L123.18 101.783L123.151 101.834L123.12 101.884L123.086 101.932L123.051 101.979L123.013 102.023L122.973 102.066L122.931 102.107L122.888 102.146L122.842 102.182L122.795 102.217L122.746 102.249L122.696 102.279L122.644 102.306L122.59 102.331L122.536 102.353L122.48 102.373L122.422 102.39L122.364 102.405L122.305 102.416L122.245 102.425L122.184 102.43L122.122 102.433L122.059 102.432L121.997 102.428L121.935 102.421L121.874 102.411L121.815 102.398L121.757 102.383L121.7 102.364L121.644 102.343L121.589 102.319L121.536 102.293L121.485 102.264L121.435 102.233L121.387 102.2L121.341 102.164L121.296 102.126L121.253 102.087L121.213 102.045L121.174 102.001L121.137 101.956L121.103 101.908L121.071 101.859L121.041 101.809L121.013 101.757L120.988 101.704L120.966 101.649L120.946 101.593L120.929 101.536L120.915 101.478L120.903 101.418L120.895 101.358L120.889 101.297L120.887 101.235L120.888 101.172Z" fill="#333333"/>
</svg>
