<svg width="118" height="103" viewBox="0 0 118 103" fill="none" xmlns="http://www.w3.org/2000/svg">
<path fill-rule="evenodd" clip-rule="evenodd" d="M90.0655 93.8298C90.0655 98.1215 93.5497 101.601 97.8469 101.601C79.4112 101.601 60.975 101.601 42.5396 101.601C39.3217 101.601 36.7135 98.9963 36.7135 95.7825C36.7135 86.0377 36.7135 76.2932 36.7135 66.5484C36.7135 62.2567 33.2293 58.777 28.9321 58.777C47.368 58.777 65.8039 58.777 84.2395 58.777C87.4574 58.777 90.0655 61.3819 90.0655 64.5957V93.8298Z" fill="white"/>
<path d="M97.847 102.559V100.643V102.559L97.3982 102.548L96.9547 102.514L96.5174 102.459L96.0868 102.382L95.6635 102.284L95.2485 102.166L94.842 102.029L94.4447 101.873L94.0573 101.698L93.6804 101.505L93.3142 101.295L92.9596 101.068L92.617 100.824L92.2871 100.565L91.9701 100.291L91.6667 100.002L91.3775 99.6992L91.1029 99.3826L90.8436 99.0531L90.5999 98.7109L90.3727 98.3568L90.1621 97.9911L89.9689 97.6146L89.7939 97.2277L89.6373 96.8311L89.4998 96.425L89.3819 96.0105L89.2841 95.5878L89.2073 95.1577L89.1516 94.721L89.118 94.278L89.1066 93.8298H91.0247L91.0335 94.1814L91.06 94.5276L91.1034 94.8687L91.1633 95.204L91.2394 95.5333L91.3313 95.8563L91.4384 96.1725L91.5605 96.4815L91.6971 96.7832L91.8476 97.0768L92.0118 97.3621L92.1893 97.6385L92.3796 97.9058L92.5823 98.1633L92.7969 98.4108L93.0231 98.6476L93.2601 98.8733L93.5079 99.0877L93.7658 99.2902L94.0334 99.4802L94.3102 99.6575L94.5958 99.8215L94.8899 99.9719L95.1919 100.108L95.5012 100.23L95.8179 100.337L96.1413 100.429L96.471 100.505L96.8068 100.565L97.1483 100.608L97.495 100.635L97.847 100.643V102.559ZM97.847 102.559V100.643L97.8963 100.645L97.945 100.648L97.993 100.654L98.0403 100.663L98.0867 100.674L98.1322 100.686L98.1767 100.701L98.2203 100.719L98.2628 100.738L98.3041 100.759L98.3443 100.782L98.3832 100.807L98.4208 100.834L98.457 100.862L98.4918 100.892L98.5252 100.924L98.5569 100.957L98.5871 100.992L98.6155 101.028L98.6423 101.066L98.6672 101.105L98.6903 101.145L98.7115 101.186L98.7307 101.228L98.7479 101.272L98.763 101.316L98.7759 101.362L98.7866 101.408L98.795 101.455L98.8011 101.503L98.8049 101.552L98.8061 101.601L98.8049 101.65L98.8011 101.699L98.795 101.747L98.7866 101.794L98.7759 101.841L98.763 101.886L98.7479 101.93L98.7307 101.974L98.7115 102.016L98.6903 102.058L98.6672 102.098L98.6423 102.137L98.6155 102.174L98.5871 102.21L98.5569 102.245L98.5252 102.279L98.4918 102.31L98.457 102.34L98.4208 102.369L98.3832 102.395L98.3443 102.42L98.3041 102.443L98.2628 102.465L98.2203 102.484L98.1767 102.501L98.1322 102.516L98.0867 102.529L98.0403 102.54L97.993 102.548L97.945 102.554L97.8963 102.558L97.847 102.559V102.559ZM42.5397 102.559V100.643H44.268H45.9964H47.7247H49.453H51.1814H52.9097H54.6381H56.3664H58.0947H59.8231H61.5514H63.2798H65.0081H66.7365H68.4649H70.1932H71.9216H73.65H75.3783H77.1067H78.8351H80.5635H82.2918H84.0202H85.7486H87.4768H89.2052H90.9336H92.6619H94.3903H96.1186H97.847V102.559H96.1186H94.3903H92.6619H90.9336H89.2052H87.4768H85.7486H84.0202H82.2918H80.5635H78.8351H77.1067H75.3783H73.65H71.9216H70.1932H68.4649H66.7365H65.0081H63.2798H61.5514H59.8231H58.0947H56.3664H54.6381H52.9097H51.1814H49.453H47.7247H45.9964H44.268H42.5397ZM42.5397 100.643V102.559L42.4904 102.558L42.4417 102.554L42.3937 102.548L42.3464 102.54L42.3 102.529L42.2545 102.516L42.21 102.501L42.1664 102.484L42.1239 102.465L42.0826 102.443L42.0424 102.42L42.0035 102.395L41.9659 102.369L41.9297 102.34L41.8949 102.31L41.8615 102.279L41.8298 102.245L41.7996 102.21L41.7712 102.174L41.7444 102.137L41.7195 102.098L41.6964 102.058L41.6752 102.016L41.656 101.974L41.6388 101.93L41.6237 101.886L41.6108 101.841L41.6001 101.794L41.5917 101.747L41.5856 101.699L41.5818 101.65L41.5806 101.601L41.5818 101.552L41.5856 101.503L41.5917 101.455L41.6001 101.408L41.6108 101.362L41.6237 101.316L41.6388 101.272L41.656 101.228L41.6752 101.186L41.6964 101.145L41.7195 101.105L41.7444 101.066L41.7712 101.028L41.7996 100.992L41.8298 100.957L41.8615 100.924L41.8949 100.892L41.9297 100.862L41.9659 100.834L42.0035 100.807L42.0424 100.782L42.0826 100.759L42.1239 100.738L42.1664 100.719L42.21 100.701L42.2545 100.686L42.3 100.674L42.3464 100.663L42.3937 100.654L42.4417 100.648L42.4904 100.645L42.5397 100.643ZM35.7545 95.7825H37.6727L37.679 96.0336L37.6979 96.281L37.7288 96.5242L37.7716 96.7633L37.8259 96.9983L37.8913 97.2285L37.9677 97.4541L38.0547 97.6745L38.1522 97.8896L38.2595 98.099L38.3767 98.3026L38.5032 98.4997L38.639 98.6904L38.7837 98.8743L38.9367 99.0508L39.098 99.2197L39.2673 99.3808L39.4441 99.5338L39.6282 99.6783L39.8191 99.8138L40.0166 99.9404L40.2202 100.057L40.43 100.165L40.6453 100.262L40.866 100.349L41.0918 100.425L41.3223 100.49L41.5576 100.545L41.7971 100.587L42.0406 100.618L42.2883 100.637L42.5397 100.643V102.559L42.1915 102.55L41.8474 102.524L41.5077 102.481L41.1734 102.421L40.8449 102.346L40.5224 102.254L40.2068 102.148L39.8983 102.026L39.5974 101.89L39.3048 101.741L39.0206 101.577L38.7453 101.401L38.4794 101.212L38.2233 101.011L37.9773 100.799L37.7418 100.574L37.5173 100.339L37.3041 100.093L37.103 99.8377L36.9138 99.5721L36.7373 99.2971L36.5739 99.0133L36.424 98.7209L36.2881 98.4205L36.1665 98.1124L36.0597 97.7972L35.9681 97.4751L35.8924 97.1471L35.8326 96.8132L35.7895 96.4739L35.7634 96.1303L35.7545 95.7825V95.7825ZM37.6727 95.7825H35.7545L35.7557 95.7333L35.7595 95.6846L35.7656 95.6367L35.774 95.5895L35.7847 95.5431L35.7976 95.4977L35.8127 95.4532L35.8299 95.4097L35.8491 95.3672L35.8703 95.326L35.8934 95.2859L35.9183 95.247L35.9451 95.2094L35.9735 95.1733L36.0037 95.1385L36.0354 95.1053L36.0688 95.0735L36.1036 95.0434L36.1398 95.015L36.1774 94.9882L36.2163 94.9634L36.2565 94.9403L36.2978 94.9191L36.3403 94.9L36.3839 94.8828L36.4284 94.8677L36.4739 94.8548L36.5203 94.8441L36.5676 94.8357L36.6156 94.8296L36.6643 94.8258L36.7136 94.8246L36.7629 94.8258L36.8116 94.8296L36.8596 94.8357L36.9069 94.8441L36.9533 94.8548L36.9988 94.8677L37.0433 94.8828L37.0869 94.9L37.1294 94.9191L37.1707 94.9403L37.2109 94.9634L37.2498 94.9882L37.2874 95.015L37.3236 95.0434L37.3584 95.0735L37.3917 95.1053L37.4235 95.1385L37.4537 95.1733L37.4821 95.2094L37.5089 95.247L37.5338 95.2859L37.5569 95.326L37.5781 95.3672L37.5973 95.4097L37.6145 95.4532L37.6296 95.4977L37.6425 95.5431L37.6532 95.5895L37.6616 95.6367L37.6677 95.6846L37.6715 95.7333L37.6727 95.7825ZM35.7545 66.5484H37.6727V67.462V68.3756V69.2892V70.2027V71.1163V72.0298V72.9435V73.857V74.7705V75.6841V76.5977V77.5113V78.4248V79.3384V80.2519V81.1655V82.0791V82.9926V83.9062V84.8198V85.7333V86.6469V87.5604V88.4741V89.3876V90.3011V91.2147V92.1282V93.0419V93.9554V94.869V95.7825H35.7545V94.869V93.9554V93.0419V92.1282V91.2147V90.3011V89.3876V88.4741V87.5604V86.6469V85.7333V84.8198V83.9062V82.9926V82.0791V81.1655V80.2519V79.3384V78.4248V77.5113V76.5977V75.6841V74.7705V73.857V72.9435V72.0298V71.1163V70.2027V69.2892V68.3756V67.462V66.5484ZM37.6727 66.5484H35.7545L35.7557 66.4992L35.7595 66.4505L35.7656 66.4026L35.774 66.3554L35.7847 66.309L35.7976 66.2636L35.8127 66.2191L35.8299 66.1756L35.8491 66.1331L35.8703 66.0919L35.8934 66.0517L35.9183 66.0129L35.9451 65.9753L35.9735 65.9392L36.0037 65.9044L36.0354 65.8712L36.0688 65.8394L36.1036 65.8093L36.1398 65.7809L36.1774 65.7541L36.2163 65.7293L36.2565 65.7062L36.2978 65.685L36.3403 65.6658L36.3839 65.6487L36.4284 65.6336L36.4739 65.6207L36.5203 65.61L36.5676 65.6016L36.6156 65.5955L36.6643 65.5917L36.7136 65.5905L36.7629 65.5917L36.8116 65.5955L36.8596 65.6016L36.9069 65.61L36.9533 65.6207L36.9988 65.6336L37.0433 65.6487L37.0869 65.6658L37.1294 65.685L37.1707 65.7062L37.2109 65.7293L37.2498 65.7541L37.2874 65.7809L37.3236 65.8093L37.3584 65.8394L37.3917 65.8712L37.4235 65.9044L37.4537 65.9392L37.4821 65.9753L37.5089 66.0129L37.5338 66.0517L37.5569 66.0919L37.5781 66.1331L37.5973 66.1756L37.6145 66.2191L37.6296 66.2636L37.6425 66.309L37.6532 66.3554L37.6616 66.4026L37.6677 66.4505L37.6715 66.4992L37.6727 66.5484ZM28.9322 57.8192V59.7349V57.8192L29.381 57.8305L29.8245 57.8642L30.2618 57.9197L30.6924 57.9965L31.1157 58.0941L31.5307 58.2119L31.9373 58.3492L32.3345 58.5057L32.7218 58.6804L33.0988 58.8733L33.465 59.0836L33.8196 59.3106L34.1622 59.554L34.4921 59.813L34.8092 60.0872L35.1125 60.3761L35.4017 60.679L35.6763 60.9957L35.9356 61.3251L36.1793 61.6673L36.4066 62.0214L36.6172 62.3872L36.8103 62.7637L36.9853 63.1505L37.142 63.5472L37.2795 63.9533L37.3974 64.3677L37.4951 64.7905L37.572 65.2205L37.6276 65.6573L37.6613 66.1002L37.6727 66.5484H35.7545L35.7457 66.1969L35.7192 65.8506L35.6758 65.5096L35.6159 65.1742L35.5398 64.8449L35.4479 64.5219L35.3408 64.2057L35.2187 63.8967L35.0821 63.595L34.9316 63.3014L34.7674 63.0162L34.5899 62.7397L34.3996 62.4725L34.1969 62.2149L33.9823 61.9675L33.7561 61.7307L33.519 61.5048L33.2713 61.2905L33.0134 61.0881L32.7458 60.898L32.469 60.7207L32.1834 60.5567L31.8894 60.4064L31.5873 60.27L31.2779 60.1481L30.9613 60.0411L30.6379 59.9493L30.3082 59.8733L29.9724 59.8135L29.6309 59.7701L29.2842 59.7437L28.9322 59.7349V57.8192H28.9322ZM28.9322 57.8192V59.7349L28.8829 59.7337L28.8342 59.7299L28.7862 59.7238L28.7389 59.7154L28.6925 59.7047L28.647 59.6918L28.6025 59.6768L28.5589 59.6596L28.5164 59.6404L28.4751 59.6192L28.4349 59.5962L28.396 59.5713L28.3584 59.5445L28.3222 59.5162L28.2874 59.486L28.254 59.4544L28.2223 59.421L28.1921 59.3862L28.1637 59.3501L28.1369 59.3125L28.112 59.2737L28.0889 59.2335L28.0677 59.1923L28.0485 59.1498L28.0313 59.1063L28.0162 59.0619L28.0033 59.0164L27.9926 58.9701L27.9842 58.9228L27.9781 58.8749L27.9743 58.8263L27.9731 58.777L27.9743 58.7278L27.9781 58.6792L27.9842 58.6312L27.9926 58.584L28.0033 58.5376L28.0162 58.4922L28.0313 58.4477L28.0485 58.4042L28.0677 58.3618L28.0889 58.3205L28.112 58.2804L28.1369 58.2415L28.1637 58.204L28.1921 58.1678L28.2223 58.1331L28.254 58.0998L28.2874 58.068L28.3222 58.0379L28.3584 58.0095L28.396 57.9827L28.4349 57.9579L28.4751 57.9348L28.5164 57.9136L28.5589 57.8945L28.6025 57.8773L28.647 57.8622L28.6925 57.8493L28.7389 57.8386L28.7862 57.8302L28.8342 57.8242L28.8829 57.8204L28.9322 57.8192ZM84.2396 57.8192V59.7349H82.5113H80.7829H79.0546H77.3262H75.5979H73.8695H72.1412H70.4128H68.6845H66.9561H65.2278H63.4994H61.771H60.0428H58.3144H56.5861H54.8577H53.1293H51.401H49.6726H47.9442H46.2159H44.4875H42.7591H41.0308H39.3024H37.574H35.8457H34.1173H32.3889H30.6606H28.9323V57.8192H30.6606H32.3889H34.1173H35.8457H37.574H39.3024H41.0308H42.7591H44.4875H46.2159H47.9442H49.6726H51.401H53.1293H54.8577H56.5861H58.3144H60.0428H61.771H63.4994H65.2278H66.9561H68.6845H70.4128H72.1412H73.8695H75.5979H77.3262H79.0546H80.7829H82.5113H84.2396ZM84.2396 59.7349V57.8192L84.2889 57.8204L84.3376 57.8242L84.3856 57.8302L84.4329 57.8386L84.4793 57.8493L84.5248 57.8622L84.5693 57.8773L84.6129 57.8945L84.6554 57.9136L84.6967 57.9348L84.7369 57.9579L84.7758 57.9827L84.8134 58.0095L84.8496 58.0379L84.8844 58.068L84.9178 58.0998L84.9495 58.1331L84.9797 58.1678L85.0081 58.204L85.0349 58.2415L85.0598 58.2804L85.0829 58.3205L85.1041 58.3618L85.1233 58.4042L85.1405 58.4477L85.1556 58.4922L85.1685 58.5376L85.1792 58.584L85.1876 58.6312L85.1937 58.6791L85.1975 58.7278L85.1987 58.777L85.1975 58.8263L85.1937 58.8749L85.1876 58.9228L85.1792 58.9701L85.1685 59.0164L85.1556 59.0619L85.1405 59.1063L85.1233 59.1498L85.1041 59.1923L85.0829 59.2335L85.0598 59.2737L85.0349 59.3125L85.0081 59.3501L84.9797 59.3862L84.9495 59.421L84.9178 59.4543L84.8844 59.486L84.8496 59.5162L84.8134 59.5445L84.7758 59.5713L84.7369 59.5962L84.6967 59.6192L84.6554 59.6404L84.6129 59.6596L84.5693 59.6768L84.5248 59.6918L84.4793 59.7047L84.4329 59.7154L84.3856 59.7238L84.3376 59.7299L84.2889 59.7337L84.2396 59.7349ZM91.0248 64.5957H89.1066L89.1003 64.3446L89.0814 64.0973L89.0505 63.8541L89.0077 63.6149L88.9534 63.3799L88.888 63.1497L88.8116 62.9242L88.7246 62.7038L88.6271 62.4886L88.5198 62.2792L88.4026 62.0757L88.2761 61.8785L88.1403 61.6879L87.9956 61.5039L87.8426 61.3274L87.6813 61.1586L87.512 60.9975L87.3352 60.8445L87.1511 60.6999L86.9602 60.5644L86.7627 60.4379L86.5591 60.321L86.3493 60.2137L86.134 60.1164L85.9133 60.0295L85.6875 59.9532L85.457 59.8879L85.2217 59.8337L84.9822 59.7909L84.7387 59.7601L84.491 59.7412L84.2396 59.7349V57.8192L84.5878 57.828L84.9319 57.8541L85.2716 57.8971L85.6059 57.9569L85.9344 58.0325L86.2569 58.124L86.5725 58.2306L86.881 58.3521L87.1819 58.4879L87.4745 58.6376L87.7587 58.8008L88.034 58.9771L88.2999 59.1659L88.556 59.367L88.802 59.5797L89.0375 59.8039L89.262 60.0391L89.4752 60.2849L89.6763 60.5405L89.8655 60.8061L90.042 61.0811L90.2054 61.365L90.3553 61.6573L90.4912 61.9577L90.6128 62.2658L90.7196 62.581L90.8112 62.9031L90.8869 63.2312L90.9467 63.565L90.9898 63.9043L91.0159 64.248L91.0247 64.5957L91.0248 64.5957ZM89.1066 64.5957H91.0248L91.0236 64.645L91.0198 64.6936L91.0137 64.7415L91.0053 64.7888L90.9946 64.8351L90.9817 64.8806L90.9666 64.925L90.9494 64.9685L90.9302 65.011L90.909 65.0522L90.8859 65.0924L90.861 65.1312L90.8342 65.1688L90.8058 65.2049L90.7756 65.2397L90.7439 65.273L90.7105 65.3047L90.6757 65.3349L90.6395 65.3632L90.6019 65.39L90.563 65.4149L90.5228 65.4379L90.4815 65.4591L90.439 65.4783L90.3954 65.4955L90.3509 65.5105L90.3054 65.5234L90.259 65.5341L90.2117 65.5425L90.1637 65.5486L90.115 65.5524L90.0657 65.5536L90.0164 65.5524L89.9677 65.5486L89.9197 65.5425L89.8724 65.5341L89.826 65.5234L89.7805 65.5105L89.736 65.4955L89.6924 65.4783L89.6499 65.4591L89.6086 65.4379L89.5684 65.4149L89.5295 65.39L89.4919 65.3632L89.4557 65.3349L89.4209 65.3047L89.3876 65.273L89.3558 65.2397L89.3256 65.2049L89.2972 65.1688L89.2704 65.1312L89.2455 65.0924L89.2224 65.0522L89.2012 65.011L89.182 64.9685L89.1648 64.925L89.1497 64.8806L89.1368 64.8351L89.1261 64.7888L89.1177 64.7415L89.1116 64.6936L89.1078 64.645L89.1066 64.5957ZM89.1066 93.8298V64.5957H91.0248V93.8298H89.1066ZM89.1066 93.8298H91.0248L91.0236 93.8791L91.0198 93.9277L91.0137 93.9756L91.0053 94.0229L90.9946 94.0692L90.9817 94.1147L90.9666 94.1591L90.9494 94.2026L90.9302 94.2451L90.909 94.2863L90.8859 94.3265L90.861 94.3653L90.8342 94.4029L90.8058 94.439L90.7756 94.4738L90.7439 94.5072L90.7105 94.5388L90.6757 94.569L90.6395 94.5973L90.6019 94.6241L90.563 94.649L90.5228 94.672L90.4815 94.6932L90.439 94.7124L90.3954 94.7296L90.3509 94.7446L90.3054 94.7575L90.259 94.7682L90.2117 94.7766L90.1637 94.7827L90.115 94.7865L90.0657 94.7877L90.0164 94.7865L89.9677 94.7827L89.9197 94.7766L89.8724 94.7682L89.826 94.7575L89.7805 94.7446L89.736 94.7296L89.6924 94.7124L89.6499 94.6932L89.6086 94.672L89.5684 94.649L89.5295 94.6241L89.4919 94.5973L89.4557 94.569L89.4209 94.5388L89.3876 94.5072L89.3558 94.4738L89.3256 94.439L89.2972 94.4029L89.2704 94.3653L89.2455 94.3265L89.2224 94.2863L89.2012 94.2451L89.182 94.2026L89.1648 94.1591L89.1497 94.1147L89.1368 94.0692L89.1261 94.0229L89.1177 93.9756L89.1116 93.9277L89.1078 93.8791L89.1066 93.8298Z" fill="#333333"/>
<path fill-rule="evenodd" clip-rule="evenodd" d="M97.208 32.7355C97.208 27.2359 97.208 21.736 97.208 16.2364C97.208 13.7273 95.1714 11.6933 92.659 11.6933H86.833H30.169C28.2271 11.6933 26.2848 11.6933 24.3429 11.6933C21.8306 11.6933 19.7939 13.7273 19.7939 16.2364C19.7939 21.736 19.7939 27.2359 19.7939 32.7355H97.208H97.208Z" fill="#88A6E3"/>
<path d="M96.249 16.2364H98.1672V16.752V17.2676V17.7832V18.2987V18.8144V19.3299V19.8455V20.3612V20.8767V21.3924V21.908V22.4235V22.9392V23.4548V23.9703V24.486V25.0016V25.5171V26.0328V26.5484V27.064V27.5796V28.0952V28.6108V29.1264V29.642V30.1576V30.6732V31.1888V31.7044V32.2199V32.7356H96.249V32.2199V31.7044V31.1888V30.6732V30.1576V29.642V29.1264V28.6108V28.0952V27.5796V27.064V26.5484V26.0328V25.5171V25.0016V24.486V23.9703V23.4548V22.9392V22.4235V21.908V21.3924V20.8767V20.3612V19.8455V19.3299V18.8144V18.2987V17.7832V17.2676V16.752V16.2364ZM98.1672 16.2364H96.249L96.2502 16.1871L96.254 16.1385L96.2601 16.0906L96.2685 16.0433L96.2792 15.997L96.2921 15.9515L96.3072 15.9071L96.3244 15.8636L96.3436 15.8211L96.3648 15.7799L96.3879 15.7397L96.4128 15.7009L96.4396 15.6633L96.468 15.6272L96.4982 15.5924L96.53 15.5591L96.5633 15.5274L96.5981 15.4972L96.6343 15.4689L96.6719 15.4421L96.7108 15.4172L96.751 15.3942L96.7923 15.373L96.8348 15.3538L96.8784 15.3366L96.9229 15.3216L96.9684 15.3087L97.0148 15.298L97.0621 15.2896L97.1101 15.2835L97.1588 15.2797L97.2081 15.2785L97.2574 15.2797L97.3061 15.2835L97.3541 15.2896L97.4014 15.298L97.4478 15.3087L97.4933 15.3216L97.5378 15.3366L97.5814 15.3538L97.6239 15.373L97.6652 15.3942L97.7054 15.4172L97.7443 15.4421L97.7819 15.4689L97.8181 15.4972L97.8529 15.5274L97.8863 15.5591L97.918 15.5924L97.9482 15.6272L97.9766 15.6633L98.0034 15.7009L98.0283 15.7397L98.0514 15.7799L98.0726 15.8211L98.0918 15.8636L98.109 15.9071L98.1241 15.9515L98.137 15.997L98.1477 16.0433L98.1561 16.0906L98.1622 16.1385L98.166 16.1871L98.1672 16.2364ZM92.6591 12.6511V10.7354L92.9416 10.7425L93.2209 10.7637L93.4965 10.7987L93.768 10.8471L94.0349 10.9086L94.2965 10.9828L94.5529 11.0694L94.8034 11.1681L95.0475 11.2783L95.2852 11.3998L95.5159 11.5324L95.7393 11.6753L95.9552 11.8287L96.1631 11.9919L96.3627 12.1645L96.5539 12.3465L96.7361 12.5374L96.9089 12.7368L97.0724 12.9444L97.226 13.1602L97.3691 13.3832L97.5019 13.6137L97.6236 13.851L97.7339 14.0948L97.8327 14.345L97.9194 14.601L97.9937 14.8624L98.0553 15.1289L98.1038 15.4001L98.1388 15.6753L98.16 15.9542L98.1672 16.2364H96.249L96.2444 16.0509L96.2304 15.8685L96.2076 15.6889L96.1761 15.5126L96.1361 15.3394L96.0878 15.1697L96.0315 15.0036L95.9673 14.8411L95.8954 14.6824L95.8163 14.5281L95.7299 14.378L95.6364 14.2323L95.5364 14.0917L95.4297 13.9562L95.3165 13.8258L95.1975 13.7011L95.0727 13.5823L94.9423 13.4694L94.8064 13.3628L94.6657 13.2629L94.5199 13.1695L94.3696 13.0832L94.2151 13.0042L94.0562 12.9324L93.8935 12.8683L93.7271 12.8121L93.5571 12.7638L93.3838 12.7239L93.2073 12.6924L93.0275 12.6697L92.8448 12.6557L92.6591 12.6511V12.6511ZM92.6591 10.7354V12.6511L92.6098 12.6499L92.5611 12.6461L92.5131 12.64L92.4658 12.6316L92.4194 12.6209L92.3739 12.608L92.3294 12.593L92.2858 12.5758L92.2433 12.5566L92.202 12.5354L92.1618 12.5124L92.1229 12.4875L92.0853 12.4607L92.0491 12.4324L92.0143 12.4022L91.981 12.3705L91.9492 12.3372L91.919 12.3024L91.8906 12.2663L91.8638 12.2287L91.8389 12.1899L91.8158 12.1497L91.7946 12.1085L91.7754 12.066L91.7582 12.0225L91.7431 11.9781L91.7302 11.9326L91.7195 11.8863L91.7111 11.839L91.705 11.7911L91.7012 11.7425L91.7 11.6932L91.7012 11.644L91.705 11.5953L91.7111 11.5474L91.7195 11.5002L91.7302 11.4538L91.7431 11.4084L91.7582 11.3639L91.7754 11.3204L91.7946 11.278L91.8158 11.2367L91.8389 11.1966L91.8638 11.1577L91.8906 11.1202L91.919 11.084L91.9492 11.0493L91.981 11.0159L92.0143 10.9842L92.0491 10.9541L92.0853 10.9257L92.1229 10.8989L92.1618 10.8741L92.202 10.851L92.2433 10.8298L92.2858 10.8107L92.3294 10.7935L92.3739 10.7784L92.4194 10.7655L92.4658 10.7548L92.5131 10.7464L92.5611 10.7403L92.6098 10.7366L92.6591 10.7354V10.7354ZM86.833 10.7354H92.6591V12.6511H86.833V10.7354ZM86.833 10.7354V12.6511L86.7837 12.6499L86.735 12.6461L86.687 12.64L86.6397 12.6316L86.5933 12.6209L86.5478 12.608L86.5033 12.593L86.4597 12.5758L86.4172 12.5566L86.3759 12.5354L86.3357 12.5124L86.2968 12.4875L86.2592 12.4607L86.223 12.4324L86.1882 12.4022L86.1549 12.3705L86.1231 12.3372L86.0929 12.3024L86.0645 12.2663L86.0377 12.2287L86.0128 12.1899L85.9897 12.1497L85.9685 12.1085L85.9493 12.066L85.9321 12.0225L85.917 11.9781L85.9041 11.9326L85.8934 11.8863L85.885 11.839L85.8789 11.7911L85.8751 11.7425L85.8739 11.6932L85.8751 11.644L85.8789 11.5953L85.885 11.5474L85.8934 11.5002L85.9041 11.4538L85.917 11.4084L85.9321 11.3639L85.9493 11.3204L85.9685 11.278L85.9897 11.2367L86.0128 11.1966L86.0377 11.1577L86.0645 11.1202L86.0929 11.084L86.1231 11.0493L86.1549 11.0159L86.1882 10.9842L86.223 10.9541L86.2592 10.9257L86.2968 10.8989L86.3357 10.8741L86.3759 10.851L86.4172 10.8298L86.4597 10.8107L86.5033 10.7935L86.5478 10.7784L86.5933 10.7655L86.6397 10.7548L86.687 10.7464L86.735 10.7403L86.7837 10.7366L86.833 10.7354V10.7354ZM30.1691 10.7354H86.833V12.6511H30.1691V10.7354ZM30.1691 10.7354V12.6511L30.1198 12.6499L30.0711 12.6461L30.0231 12.64L29.9758 12.6316L29.9294 12.6209L29.8839 12.608L29.8394 12.593L29.7958 12.5758L29.7533 12.5566L29.712 12.5354L29.6718 12.5124L29.6329 12.4875L29.5953 12.4607L29.5591 12.4324L29.5243 12.4022L29.4909 12.3705L29.4592 12.3372L29.429 12.3024L29.4006 12.2663L29.3738 12.2287L29.3489 12.1899L29.3258 12.1497L29.3046 12.1085L29.2854 12.066L29.2682 12.0225L29.2531 11.9781L29.2402 11.9326L29.2295 11.8863L29.2211 11.839L29.215 11.7911L29.2112 11.7425L29.21 11.6932L29.2112 11.644L29.215 11.5953L29.2211 11.5474L29.2295 11.5002L29.2402 11.4538L29.2531 11.4084L29.2682 11.3639L29.2854 11.3204L29.3046 11.278L29.3258 11.2367L29.3489 11.1966L29.3738 11.1577L29.4006 11.1202L29.429 11.084L29.4592 11.0493L29.4909 11.0159L29.5243 10.9842L29.5591 10.9541L29.5953 10.9257L29.6329 10.8989L29.6718 10.8741L29.712 10.851L29.7533 10.8298L29.7958 10.8107L29.8394 10.7935L29.8839 10.7784L29.9294 10.7655L29.9758 10.7548L30.0231 10.7464L30.0711 10.7403L30.1198 10.7366L30.1691 10.7354V10.7354ZM24.343 12.6511V10.7354H24.5251H24.7071H24.8892H25.0712H25.2533H25.4354H25.6174H25.7995H25.9816H26.1636H26.3457H26.5278H26.7098H26.8919H27.074H27.256H27.4381H27.6202H27.8023H27.9843H28.1664H28.3485H28.5305H28.7126H28.8947H29.0767H29.2588H29.4409H29.6229H29.805H29.987H30.1691V12.6511H29.987H29.805H29.6229H29.4409H29.2588H29.0767H28.8947H28.7126H28.5305H28.3485H28.1664H27.9843H27.8023H27.6202H27.4381H27.256H27.074H26.8919H26.7098H26.5278H26.3457H26.1636H25.9816H25.7995H25.6174H25.4354H25.2533H25.0712H24.8892H24.7071H24.5251H24.343ZM24.343 10.7354V12.6511L24.2937 12.6499L24.245 12.6461L24.197 12.64L24.1497 12.6316L24.1033 12.6209L24.0578 12.608L24.0133 12.593L23.9697 12.5758L23.9272 12.5566L23.8859 12.5354L23.8457 12.5124L23.8068 12.4875L23.7692 12.4607L23.733 12.4324L23.6982 12.4022L23.6648 12.3705L23.6331 12.3372L23.6029 12.3024L23.5745 12.2663L23.5477 12.2287L23.5228 12.1899L23.4997 12.1497L23.4785 12.1085L23.4593 12.066L23.4421 12.0225L23.427 11.9781L23.4141 11.9326L23.4034 11.8863L23.395 11.839L23.3889 11.7911L23.3851 11.7425L23.3839 11.6932L23.3851 11.644L23.3889 11.5953L23.395 11.5474L23.4034 11.5002L23.4141 11.4538L23.427 11.4084L23.4421 11.3639L23.4593 11.3204L23.4785 11.278L23.4997 11.2367L23.5228 11.1966L23.5477 11.1577L23.5745 11.1202L23.6029 11.084L23.6331 11.0493L23.6648 11.0159L23.6982 10.9842L23.733 10.9541L23.7692 10.9257L23.8068 10.8989L23.8457 10.8741L23.8859 10.851L23.9272 10.8298L23.9697 10.8107L24.0133 10.7935L24.0578 10.7784L24.1033 10.7655L24.1497 10.7548L24.197 10.7464L24.245 10.7403L24.2937 10.7366L24.343 10.7354V10.7354ZM20.7532 16.2364H18.835L18.8422 15.9542L18.8634 15.6753L18.8984 15.4001L18.9469 15.1289L19.0085 14.8624L19.0828 14.601L19.1695 14.345L19.2683 14.0948L19.3786 13.851L19.5003 13.6137L19.6331 13.3832L19.7762 13.1602L19.9298 12.9444L20.0933 12.7368L20.2661 12.5374L20.4483 12.3465L20.6395 12.1645L20.8391 11.9919L21.047 11.8287L21.2629 11.6753L21.4863 11.5324L21.717 11.3998L21.9547 11.2783L22.1988 11.1681L22.4493 11.0694L22.7057 10.9828L22.9673 10.9086L23.2341 10.8471L23.5056 10.7987L23.7812 10.7637L24.0605 10.7425L24.343 10.7354V12.6511L24.1573 12.6557L23.9746 12.6697L23.7948 12.6924L23.6183 12.7239L23.445 12.7638L23.2751 12.8121L23.1087 12.8683L22.946 12.9324L22.7871 13.0042L22.6326 13.0832L22.4823 13.1695L22.3365 13.2629L22.1958 13.3628L22.0599 13.4694L21.9295 13.5823L21.8047 13.7011L21.6857 13.8258L21.5725 13.9562L21.4658 14.0917L21.3658 14.2323L21.2723 14.378L21.1859 14.5281L21.1068 14.6824L21.0349 14.8411L20.9707 15.0036L20.9144 15.1697L20.8661 15.3394L20.8261 15.5126L20.7946 15.6889L20.7718 15.8685L20.7578 16.0509L20.7532 16.2364V16.2364ZM18.835 16.2364H20.7532L20.752 16.2856L20.7482 16.3343L20.7421 16.3822L20.7337 16.4294L20.723 16.4758L20.7101 16.5212L20.695 16.5657L20.6778 16.6092L20.6586 16.6516L20.6374 16.6929L20.6143 16.733L20.5894 16.7719L20.5626 16.8094L20.5342 16.8456L20.504 16.8804L20.4722 16.9136L20.4389 16.9454L20.4041 16.9755L20.3679 17.0039L20.3303 17.0307L20.2914 17.0555L20.2512 17.0786L20.2099 17.0998L20.1674 17.1189L20.1238 17.1361L20.0793 17.1512L20.0338 17.1641L19.9874 17.1748L19.9401 17.1832L19.8921 17.1893L19.8434 17.1931L19.7941 17.1942L19.7448 17.1931L19.6961 17.1893L19.6481 17.1832L19.6008 17.1748L19.5544 17.1641L19.5089 17.1512L19.4644 17.1361L19.4208 17.1189L19.3783 17.0998L19.337 17.0786L19.2968 17.0555L19.2579 17.0307L19.2203 17.0039L19.1841 16.9755L19.1493 16.9454L19.1159 16.9136L19.0842 16.8804L19.054 16.8456L19.0256 16.8094L18.9988 16.7719L18.9739 16.733L18.9508 16.6929L18.9296 16.6516L18.9104 16.6092L18.8932 16.5657L18.8781 16.5212L18.8652 16.4758L18.8545 16.4294L18.8461 16.3822L18.84 16.3343L18.8362 16.2856L18.835 16.2364H18.835ZM19.7941 31.7777V33.6935L18.835 32.7356V32.22V31.7044V31.1888V30.6733V30.1576V29.6421V29.1265V28.6108V28.0953V27.5796V27.064V26.5485V26.0328V25.5172V25.0017V24.486V23.9704V23.4548V22.9392V22.4236V21.908V21.3924V20.8768V20.3612V19.8456V19.33V18.8144V18.2988V17.7832V17.2676V16.7521V16.2364H20.7532V16.7521V17.2676V17.7832V18.2988V18.8144V19.33V19.8456V20.3612V20.8768V21.3924V21.908V22.4236V22.9392V23.4548V23.9704V24.486V25.0017V25.5172V26.0328V26.5485V27.064V27.5796V28.0953V28.6108V29.1265V29.6421V30.1576V30.6733V31.1888V31.7044V32.22V32.7356L19.7941 31.7777L19.7941 31.7777ZM18.835 32.7356H20.7532L20.752 32.7848L20.7482 32.8335L20.7421 32.8814L20.7337 32.9287L20.723 32.975L20.7101 33.0204L20.695 33.0649L20.6778 33.1084L20.6586 33.1509L20.6374 33.1921L20.6143 33.2323L20.5894 33.2711L20.5626 33.3087L20.5342 33.3448L20.504 33.3796L20.4722 33.4128L20.4389 33.4446L20.4041 33.4748L20.3679 33.5031L20.3303 33.5299L20.2914 33.5548L20.2512 33.5778L20.2099 33.599L20.1674 33.6182L20.1238 33.6354L20.0793 33.6504L20.0338 33.6633L19.9874 33.674L19.9401 33.6824L19.8921 33.6885L19.8434 33.6923L19.7941 33.6935L19.7448 33.6923L19.6961 33.6885L19.6481 33.6824L19.6008 33.674L19.5544 33.6633L19.5089 33.6504L19.4644 33.6354L19.4208 33.6182L19.3783 33.599L19.337 33.5778L19.2968 33.5548L19.2579 33.5299L19.2203 33.5031L19.1841 33.4748L19.1493 33.4446L19.1159 33.4128L19.0842 33.3796L19.054 33.3448L19.0256 33.3087L18.9988 33.2711L18.9739 33.2323L18.9508 33.1921L18.9296 33.1509L18.9104 33.1084L18.8932 33.0649L18.8781 33.0204L18.8652 32.975L18.8545 32.9287L18.8461 32.8814L18.84 32.8335L18.8362 32.7848L18.835 32.7356H18.835ZM97.2081 33.6935H19.7941V31.7777H97.2081L98.1672 32.7356L97.2081 33.6935V33.6935ZM97.2081 33.6935V31.7777L97.2574 31.7789L97.3061 31.7827L97.3541 31.7888L97.4014 31.7972L97.4478 31.8079L97.4933 31.8208L97.5378 31.8359L97.5814 31.853L97.6239 31.8722L97.6652 31.8934L97.7054 31.9165L97.7443 31.9413L97.7819 31.9681L97.8181 31.9965L97.8529 32.0266L97.8863 32.0583L97.918 32.0916L97.9482 32.1264L97.9766 32.1625L98.0034 32.2001L98.0283 32.2389L98.0514 32.2791L98.0726 32.3203L98.0918 32.3628L98.109 32.4063L98.1241 32.4508L98.137 32.4962L98.1477 32.5426L98.1561 32.5898L98.1622 32.6377L98.166 32.6864L98.1672 32.7356L98.166 32.7848L98.1622 32.8335L98.1561 32.8814L98.1477 32.9287L98.137 32.975L98.1241 33.0204L98.109 33.0649L98.0918 33.1084L98.0726 33.1509L98.0514 33.1921L98.0283 33.2323L98.0034 33.2711L97.9766 33.3087L97.9482 33.3448L97.918 33.3796L97.8863 33.4128L97.8529 33.4446L97.8181 33.4748L97.7819 33.5031L97.7443 33.5299L97.7054 33.5548L97.6652 33.5778L97.6239 33.599L97.5814 33.6182L97.5378 33.6354L97.4933 33.6504L97.4478 33.6633L97.4014 33.674L97.3541 33.6824L97.3061 33.6885L97.2574 33.6923L97.2081 33.6935V33.6935Z" fill="#333333"/>
<path fill-rule="evenodd" clip-rule="evenodd" d="M30.1689 1.72968H86.8327V32.7355H30.1689V1.72968Z" fill="white"/>
<path d="M86.8327 2.68759H30.1689V0.771851H86.8327L87.7892 1.72972L86.8327 2.68758V2.68759ZM86.8327 2.68759V0.771851L86.8819 0.773049L86.9305 0.776844L86.9784 0.782936L87.0255 0.791326L87.0717 0.802012L87.1171 0.814895L87.1616 0.829976L87.205 0.847154L87.2474 0.866329L87.2886 0.887502L87.3287 0.910572L87.3675 0.93544L87.405 0.962205L87.4411 0.990569L87.4758 1.02073L87.509 1.05239L87.5407 1.08575L87.5708 1.1205L87.5992 1.15666L87.6258 1.19421L87.6507 1.23306L87.6737 1.27321L87.6949 1.31445L87.714 1.3569L87.7312 1.40044L87.7462 1.44488L87.7591 1.49033L87.7698 1.53667L87.7782 1.58391L87.7843 1.63184L87.788 1.68048L87.7892 1.72972L87.788 1.77895L87.7843 1.82759L87.7782 1.87553L87.7698 1.92277L87.7591 1.96911L87.7462 2.01455L87.7312 2.05899L87.714 2.10254L87.6949 2.14498L87.6737 2.18623L87.6507 2.22638L87.6258 2.26523L87.5992 2.30278L87.5708 2.33893L87.5407 2.37369L87.509 2.40695L87.4758 2.4387L87.4411 2.46887L87.405 2.49723L87.3675 2.52399L87.3287 2.54886L87.2886 2.57193L87.2474 2.59311L87.205 2.61228L87.1616 2.62946L87.1171 2.64454L87.0717 2.65742L87.0255 2.66811L86.9784 2.6765L86.9305 2.68259L86.8819 2.68639L86.8327 2.68758V2.68759ZM85.8762 32.7356V1.72968H87.7892V32.7356L86.8327 33.6935L85.8762 32.7356ZM85.8762 32.7356H87.7892L87.788 32.7848L87.7843 32.8335L87.7782 32.8814L87.7698 32.9287L87.7591 32.975L87.7462 33.0204L87.7312 33.0649L87.714 33.1084L87.6949 33.1509L87.6737 33.1921L87.6507 33.2323L87.6258 33.2711L87.5992 33.3087L87.5708 33.3448L87.5407 33.3796L87.509 33.4128L87.4758 33.4446L87.4411 33.4748L87.405 33.5031L87.3675 33.5299L87.3287 33.5548L87.2886 33.5778L87.2474 33.599L87.205 33.6182L87.1616 33.6354L87.1171 33.6504L87.0717 33.6633L87.0255 33.674L86.9784 33.6824L86.9305 33.6885L86.8819 33.6923L86.8327 33.6935L86.7836 33.6923L86.7349 33.6885L86.687 33.6824L86.6399 33.674L86.5938 33.6633L86.5484 33.6504L86.5038 33.6354L86.4604 33.6182L86.418 33.599L86.3768 33.5778L86.3368 33.5548L86.2979 33.5299L86.2604 33.5031L86.2243 33.4748L86.1897 33.4446L86.1564 33.4128L86.1247 33.3796L86.0947 33.3448L86.0662 33.3087L86.0396 33.2711L86.0148 33.2323L85.9917 33.1921L85.9705 33.1509L85.9515 33.1084L85.9342 33.0649L85.9193 33.0204L85.9063 32.975L85.8956 32.9287L85.8872 32.8814L85.8812 32.8335L85.8774 32.7848L85.8762 32.7356ZM30.1689 31.7777H86.8328V33.6935H30.1689L29.2124 32.7356L30.1689 31.7777V31.7777ZM30.1689 31.7777V33.6935L30.1197 33.6923L30.0711 33.6885L30.0232 33.6824L29.9761 33.674L29.9299 33.6633L29.8845 33.6504L29.84 33.6354L29.7966 33.6182L29.7542 33.599L29.713 33.5778L29.6729 33.5548L29.6341 33.5299L29.5966 33.5031L29.5605 33.4748L29.5258 33.4446L29.4926 33.4128L29.4609 33.3796L29.4308 33.3448L29.4024 33.3087L29.3758 33.2711L29.3509 33.2323L29.3279 33.1921L29.3067 33.1509L29.2876 33.1084L29.2704 33.0649L29.2554 33.0204L29.2425 32.975L29.2318 32.9287L29.2234 32.8814L29.2173 32.8335L29.2136 32.7849L29.2124 32.7356L29.2136 32.6864L29.2173 32.6377L29.2234 32.5898L29.2318 32.5426L29.2425 32.4962L29.2554 32.4508L29.2704 32.4063L29.2876 32.3628L29.3067 32.3204L29.3279 32.2791L29.3509 32.239L29.3758 32.2001L29.4024 32.1626L29.4308 32.1264L29.4609 32.0916L29.4926 32.0583L29.5258 32.0266L29.5605 31.9965L29.5966 31.9681L29.6341 31.9413L29.6729 31.9165L29.713 31.8934L29.7542 31.8722L29.7966 31.8531L29.84 31.8359L29.8845 31.8208L29.9299 31.8079L29.9761 31.7972L30.0232 31.7888L30.0711 31.7827L30.1197 31.7789L30.1689 31.7777V31.7777ZM31.1254 1.72972V32.7357H29.2124V1.72972L30.1689 0.771853L31.1254 1.72972H31.1254ZM31.1254 1.72972H29.2124L29.2136 1.68048L29.2173 1.63185L29.2234 1.58391L29.2318 1.53667L29.2425 1.49033L29.2554 1.44489L29.2704 1.40044L29.2876 1.3569L29.3067 1.31445L29.3279 1.27321L29.3509 1.23306L29.3758 1.19421L29.4024 1.15666L29.4308 1.1205L29.4609 1.08575L29.4926 1.05239L29.5258 1.02073L29.5605 0.990571L29.5966 0.962208L29.6341 0.935442L29.6729 0.910574L29.713 0.887504L29.7542 0.866331L29.7966 0.847156L29.84 0.829978L29.8845 0.814898L29.9299 0.802014L29.9761 0.791328L30.0232 0.782939L30.0711 0.776847L30.1197 0.773051L30.1689 0.771853L30.2181 0.773051L30.2667 0.776847L30.3146 0.782939L30.3617 0.791328L30.4079 0.802014L30.4533 0.814898L30.4978 0.829978L30.5412 0.847156L30.5836 0.866331L30.6248 0.887504L30.6649 0.910574L30.7037 0.935442L30.7412 0.962208L30.7773 0.990571L30.812 1.02073L30.8452 1.05239L30.8769 1.08575L30.907 1.1205L30.9354 1.15666L30.962 1.19421L30.9869 1.23306L31.0099 1.27321L31.0311 1.31445L31.0502 1.3569L31.0674 1.40044L31.0824 1.44489L31.0953 1.49033L31.106 1.53667L31.1144 1.58391L31.1205 1.63185L31.1242 1.68048L31.1254 1.72972Z" fill="#333333"/>
<path fill-rule="evenodd" clip-rule="evenodd" d="M19.6026 81.436H0.958984C0.958984 67.0359 0.958984 52.6355 0.958984 38.2352C0.958984 35.1977 3.42428 32.7355 6.46567 32.7355H14.0958C17.1373 32.7355 19.6026 35.1977 19.6026 38.2352V81.436Z" fill="#66798F"/>
<path d="M0.959097 80.4779H19.6027V82.3936H0.959097L9.76656e-07 81.4358L0.959097 80.4779V80.4779ZM0.959097 80.4779V82.3936L0.909797 82.3924L0.861098 82.3886L0.813098 82.3826L0.765798 82.3742L0.719398 82.3635L0.673898 82.3506L0.629398 82.3355L0.585799 82.3183L0.543299 82.2992L0.501999 82.278L0.461799 82.2549L0.422899 82.2301L0.385299 82.2033L0.349099 82.1749L0.3143 82.1448L0.2809 82.1131L0.2492 82.0797L0.219 82.045L0.1906 82.0088L0.1638 81.9713L0.1389 81.9324L0.1158 81.8923L0.0946002 81.851L0.0754003 81.8086L0.0582003 81.7651L0.0431004 81.7206L0.0302004 81.6752L0.0195004 81.6288L0.0111005 81.5816L0.00500049 81.5337L0.00120051 81.485L5.15617e-07 81.4358L0.00120051 81.3865L0.00500049 81.3379L0.0111005 81.29L0.0195004 81.2427L0.0302004 81.1964L0.0431004 81.1509L0.0582003 81.1065L0.0754003 81.063L0.0946002 81.0205L0.1158 80.9793L0.1389 80.9391L0.1638 80.9003L0.1906 80.8627L0.219 80.8266L0.2492 80.7918L0.2809 80.7585L0.3143 80.7268L0.349099 80.6966L0.385299 80.6683L0.422899 80.6415L0.461799 80.6166L0.501999 80.5936L0.543299 80.5724L0.585799 80.5532L0.629398 80.536L0.673898 80.521L0.719398 80.5081L0.765798 80.4974L0.813098 80.489L0.861098 80.4829L0.909797 80.4791L0.959097 80.4779V80.4779ZM9.76656e-07 38.2352H1.9182V39.5853V40.9352V42.2853V43.6352V44.9853V46.3353V47.6853V49.0353V50.3854V51.7354V53.0854V54.4354V55.7854V57.1355V58.4854V59.8355V61.1856V62.5355V63.8856V65.2355V66.5856V67.9356V69.2856V70.6357V71.9856V73.3357V74.6857V76.0357V77.3857V78.7358V80.0857V81.4358H9.76656e-07V80.0857V78.7358V77.3857V76.0357V74.6857V73.3357V71.9856V70.6357V69.2856V67.9356V66.5856V65.2355V63.8856V62.5355V61.1856V59.8355V58.4854V57.1355V55.7854V54.4354V53.0854V51.7354V50.3854V49.0353V47.6853V46.3353V44.9853V43.6352V42.2853V40.9352V39.5853V38.2352ZM1.9182 38.2352H9.76656e-07L0.00120097 38.186L0.00500095 38.1373L0.0111009 38.0894L0.0195009 38.0421L0.0302009 37.9958L0.0431008 37.9504L0.0582008 37.9059L0.0754007 37.8624L0.0946006 37.8199L0.115801 37.7787L0.1389 37.7385L0.1638 37.6997L0.1906 37.6621L0.219 37.626L0.2492 37.5912L0.2809 37.5579L0.3143 37.5262L0.3491 37.496L0.3853 37.4677L0.4229 37.4409L0.461799 37.4161L0.501999 37.393L0.543299 37.3718L0.585799 37.3526L0.629399 37.3355L0.673899 37.3204L0.719399 37.3075L0.765798 37.2968L0.813098 37.2884L0.861098 37.2823L0.909798 37.2785L0.959098 37.2773L1.0084 37.2785L1.0571 37.2823L1.1051 37.2884L1.1524 37.2968L1.1988 37.3075L1.2443 37.3204L1.2888 37.3355L1.3324 37.3526L1.3749 37.3718L1.4162 37.393L1.4564 37.4161L1.4953 37.4409L1.5329 37.4677L1.5691 37.496L1.6039 37.5262L1.6372 37.5579L1.669 37.5912L1.6992 37.626L1.7276 37.6621L1.7544 37.6997L1.7793 37.7385L1.8024 37.7787L1.8236 37.8199L1.84279 37.8624L1.85999 37.9059L1.87509 37.9504L1.88799 37.9958L1.89869 38.0421L1.90709 38.0894L1.91319 38.1373L1.91699 38.186L1.91819 38.2352H1.9182ZM6.46578 31.7777V33.6934L6.23068 33.6993L5.99928 33.7169L5.77198 33.7458L5.54818 33.7857L5.32828 33.8365L5.11278 33.8976L4.90189 33.9688L4.69579 34.0499L4.49459 34.1408L4.29859 34.241L4.10819 34.3504L3.92369 34.4685L3.74539 34.5952L3.57349 34.73L3.40819 34.8731L3.25009 35.0236L3.09939 35.1815L2.95609 35.3466L2.82109 35.5183L2.69429 35.6964L2.57599 35.8806L2.46649 36.0708L2.36609 36.2665L2.27509 36.4675L2.19389 36.6733L2.1226 36.8839L2.0613 37.0992L2.0106 37.3188L1.9706 37.5423L1.9417 37.7693L1.9241 38.0004L1.9182 38.2352H0L0.00849997 37.9039L0.0332999 37.5763L0.0743997 37.2531L0.131399 36.9349L0.203699 36.6222L0.290799 36.3155L0.392499 36.0152L0.508498 35.7214L0.638098 35.4352L0.780897 35.1566L0.936596 34.8861L1.1047 34.6241L1.28489 34.371L1.47689 34.1272L1.67979 33.8932L1.89369 33.669L2.11819 33.4554L2.35249 33.2527L2.59659 33.061L2.85009 32.881L3.11239 32.7131L3.38319 32.5576L3.66219 32.415L3.94879 32.2856L4.24289 32.1697L4.54359 32.0681L4.85068 31.981L5.16378 31.9089L5.48238 31.852L5.80608 31.811L6.13408 31.7862L6.46578 31.7777L6.46578 31.7777ZM6.46578 33.6934V31.7777L6.51508 31.7789L6.56378 31.7827L6.61178 31.7888L6.65908 31.7972L6.70548 31.8079L6.75098 31.8208L6.79548 31.8358L6.83908 31.853L6.88158 31.8722L6.92288 31.8934L6.96308 31.9164L7.00198 31.9413L7.03958 31.9681L7.07578 31.9964L7.11058 32.0266L7.14388 32.0583L7.17568 32.0916L7.20588 32.1264L7.23428 32.1625L7.26108 32.2001L7.28598 32.2389L7.30908 32.2791L7.33028 32.3203L7.34948 32.3628L7.36668 32.4063L7.38178 32.4507L7.39468 32.4962L7.40538 32.5425L7.41378 32.5898L7.41988 32.6377L7.42368 32.6863L7.42488 32.7356L7.42368 32.7848L7.41988 32.8335L7.41378 32.8814L7.40538 32.9286L7.39468 32.975L7.38178 33.0204L7.36668 33.0649L7.34948 33.1084L7.33028 33.1508L7.30908 33.1921L7.28598 33.2322L7.26108 33.2711L7.23428 33.3086L7.20588 33.3448L7.17568 33.3795L7.14388 33.4128L7.11058 33.4446L7.07578 33.4747L7.03958 33.5031L7.00198 33.5299L6.96308 33.5547L6.92288 33.5778L6.88158 33.599L6.83908 33.6181L6.79548 33.6353L6.75098 33.6504L6.70548 33.6633L6.65908 33.674L6.61178 33.6824L6.56378 33.6885L6.51508 33.6922L6.46578 33.6934V33.6934ZM14.0959 33.6934H6.46578V31.7777H14.0959V33.6934ZM14.0959 33.6934V31.7777L14.1452 31.7789L14.1939 31.7827L14.2419 31.7888L14.2892 31.7972L14.3356 31.8079L14.3811 31.8208L14.4256 31.8358L14.4692 31.853L14.5117 31.8722L14.553 31.8934L14.5932 31.9164L14.6321 31.9413L14.6697 31.9681L14.7059 31.9964L14.7407 32.0266L14.774 32.0583L14.8058 32.0916L14.836 32.1264L14.8644 32.1625L14.8912 32.2001L14.9161 32.2389L14.9392 32.2791L14.9604 32.3203L14.9796 32.3628L14.9968 32.4063L15.0119 32.4507L15.0248 32.4962L15.0355 32.5425L15.0439 32.5898L15.05 32.6377L15.0538 32.6863L15.055 32.7356L15.0538 32.7848L15.05 32.8335L15.0439 32.8814L15.0355 32.9286L15.0248 32.975L15.0119 33.0204L14.9968 33.0649L14.9796 33.1084L14.9604 33.1508L14.9392 33.1921L14.9161 33.2322L14.8912 33.2711L14.8644 33.3086L14.836 33.3448L14.8058 33.3795L14.774 33.4128L14.7407 33.4446L14.7059 33.4747L14.6697 33.5031L14.6321 33.5299L14.5932 33.5547L14.553 33.5778L14.5117 33.599L14.4692 33.6181L14.4256 33.6353L14.3811 33.6504L14.3356 33.6633L14.2892 33.674L14.2419 33.6824L14.1939 33.6885L14.1452 33.6922L14.0959 33.6934V33.6934ZM20.5618 38.2352H18.6436L18.6377 38.0004L18.6201 37.7693L18.5912 37.5423L18.5512 37.3188L18.5005 37.0992L18.4392 36.8839L18.3679 36.6733L18.2867 36.4675L18.1957 36.2665L18.0953 36.0708L17.9858 35.8806L17.8676 35.6965L17.7406 35.5183L17.6056 35.3465L17.4624 35.1815L17.3117 35.0236L17.1536 34.8731L16.9883 34.73L16.8164 34.5952L16.6381 34.4685L16.4536 34.3504L16.2631 34.241L16.0671 34.1408L15.866 34.0499L15.6599 33.9688L15.4489 33.8976L15.2333 33.8364L15.0135 33.7857L14.7898 33.7458L14.5624 33.7169L14.331 33.6993L14.096 33.6934V31.7777L14.4276 31.7862L14.7556 31.811L15.0794 31.852L15.3981 31.9089L15.7111 31.9811L16.0181 32.0681L16.3189 32.1697L16.613 32.2856L16.8997 32.415L17.1785 32.5576L17.4494 32.7131L17.7117 32.881L17.9652 33.061L18.2093 33.2527L18.4436 33.4553L18.6681 33.669L18.882 33.8932L19.085 34.1273L19.2768 34.371L19.457 34.624L19.6252 34.8861L19.7809 35.1566L19.9237 35.4352L20.0533 35.7214L20.1693 36.0152L20.271 36.3155L20.3581 36.6222L20.4304 36.9349L20.4874 37.2531L20.5285 37.5763L20.5533 37.9039L20.5618 38.2352L20.5618 38.2352ZM18.6436 38.2352H20.5618L20.5606 38.2844L20.5568 38.3331L20.5507 38.381L20.5423 38.4282L20.5316 38.4746L20.5187 38.52L20.5036 38.5645L20.4864 38.608L20.4672 38.6505L20.446 38.6917L20.4229 38.7319L20.398 38.7707L20.3712 38.8083L20.3428 38.8444L20.3126 38.8792L20.2808 38.9124L20.2475 38.9442L20.2127 38.9743L20.1765 39.0027L20.1389 39.0295L20.1 39.0543L20.0598 39.0774L20.0185 39.0986L19.976 39.1178L19.9324 39.1349L19.8879 39.15L19.8424 39.1629L19.796 39.1736L19.7487 39.182L19.7007 39.1881L19.652 39.1919L19.6027 39.1931L19.5534 39.1919L19.5047 39.1881L19.4567 39.182L19.4094 39.1736L19.363 39.1629L19.3175 39.15L19.273 39.1349L19.2294 39.1178L19.1869 39.0986L19.1456 39.0774L19.1054 39.0543L19.0665 39.0295L19.0289 39.0027L18.9927 38.9743L18.9579 38.9442L18.9245 38.9124L18.8928 38.8792L18.8626 38.8444L18.8342 38.8083L18.8074 38.7707L18.7825 38.7319L18.7594 38.6917L18.7382 38.6505L18.719 38.608L18.7018 38.5645L18.6867 38.52L18.6738 38.4746L18.6631 38.4282L18.6547 38.381L18.6486 38.3331L18.6448 38.2844L18.6436 38.2352H18.6436ZM18.6436 81.4358V38.2352H20.5618V81.4358L19.6027 82.3937L18.6436 81.4358H18.6436ZM18.6436 81.4358H20.5618L20.5606 81.485L20.5568 81.5337L20.5507 81.5816L20.5423 81.6289L20.5316 81.6752L20.5187 81.7206L20.5036 81.7651L20.4864 81.8086L20.4672 81.8511L20.446 81.8923L20.4229 81.9325L20.398 81.9713L20.3712 82.0089L20.3428 82.045L20.3126 82.0798L20.2808 82.1131L20.2475 82.1448L20.2127 82.175L20.1765 82.2033L20.1389 82.2301L20.1 82.255L20.0598 82.278L20.0185 82.2992L19.976 82.3184L19.9324 82.3356L19.8879 82.3506L19.8424 82.3635L19.796 82.3742L19.7487 82.3826L19.7007 82.3887L19.652 82.3925L19.6027 82.3937L19.5534 82.3925L19.5047 82.3887L19.4567 82.3826L19.4094 82.3742L19.363 82.3635L19.3175 82.3506L19.273 82.3356L19.2294 82.3184L19.1869 82.2992L19.1456 82.278L19.1054 82.255L19.0665 82.2301L19.0289 82.2033L18.9927 82.175L18.9579 82.1448L18.9245 82.1131L18.8928 82.0798L18.8626 82.045L18.8342 82.0089L18.8074 81.9713L18.7825 81.9325L18.7594 81.8923L18.7382 81.8511L18.719 81.8086L18.7018 81.7651L18.6867 81.7206L18.6738 81.6752L18.6631 81.6289L18.6547 81.5816L18.6486 81.5337L18.6448 81.485L18.6436 81.4358H18.6436Z" fill="#333333"/>
<path fill-rule="evenodd" clip-rule="evenodd" d="M116.043 81.436H97.3989C97.3989 67.0359 97.3989 52.6355 97.3989 38.2352C97.3989 35.1977 99.8642 32.7355 102.906 32.7355H110.536C113.577 32.7355 116.043 35.1977 116.043 38.2352V81.436Z" fill="#66798F"/>
<path d="M97.399 80.4779H116.043V82.3936H97.399L96.4399 81.4358L97.399 80.4779V80.4779ZM97.399 80.4779V82.3936L97.3497 82.3924L97.301 82.3886L97.253 82.3826L97.2057 82.3742L97.1593 82.3635L97.1138 82.3506L97.0693 82.3355L97.0257 82.3183L96.9832 82.2992L96.9419 82.278L96.9017 82.2549L96.8628 82.2301L96.8252 82.2033L96.789 82.1749L96.7542 82.1448L96.7209 82.1131L96.6891 82.0797L96.6589 82.045L96.6305 82.0088L96.6037 81.9713L96.5788 81.9324L96.5557 81.8923L96.5345 81.851L96.5153 81.8086L96.4981 81.7651L96.483 81.7206L96.4701 81.6752L96.4594 81.6288L96.451 81.5816L96.4449 81.5337L96.4411 81.485L96.4399 81.4358L96.4411 81.3865L96.4449 81.3379L96.451 81.29L96.4594 81.2427L96.4701 81.1964L96.483 81.1509L96.4981 81.1065L96.5153 81.063L96.5345 81.0205L96.5557 80.9793L96.5788 80.9391L96.6037 80.9003L96.6305 80.8627L96.6589 80.8266L96.6891 80.7918L96.7209 80.7585L96.7542 80.7268L96.789 80.6966L96.8252 80.6683L96.8628 80.6415L96.9017 80.6166L96.9419 80.5936L96.9832 80.5724L97.0257 80.5532L97.0693 80.536L97.1138 80.521L97.1593 80.5081L97.2057 80.4974L97.253 80.489L97.301 80.4829L97.3497 80.4791L97.399 80.4779V80.4779ZM96.4399 38.2352H98.3581V39.5853V40.9352V42.2853V43.6352V44.9853V46.3353V47.6853V49.0353V50.3854V51.7354V53.0854V54.4354V55.7854V57.1355V58.4854V59.8355V61.1856V62.5355V63.8856V65.2355V66.5856V67.9356V69.2856V70.6357V71.9856V73.3357V74.6857V76.0357V77.3857V78.7358V80.0857V81.4358H96.4399V80.0857V78.7358V77.3857V76.0357V74.6857V73.3357V71.9856V70.6357V69.2856V67.9356V66.5856V65.2355V63.8856V62.5355V61.1856V59.8355V58.4854V57.1355V55.7854V54.4354V53.0854V51.7354V50.3854V49.0353V47.6853V46.3353V44.9853V43.6352V42.2853V40.9352V39.5853V38.2352ZM98.3581 38.2352H96.4399L96.4411 38.186L96.4449 38.1373L96.451 38.0894L96.4594 38.0421L96.4701 37.9958L96.483 37.9504L96.4981 37.9059L96.5153 37.8624L96.5345 37.8199L96.5557 37.7787L96.5788 37.7385L96.6037 37.6997L96.6305 37.6621L96.6589 37.626L96.6891 37.5912L96.7209 37.5579L96.7542 37.5262L96.789 37.496L96.8252 37.4677L96.8628 37.4409L96.9017 37.4161L96.9419 37.393L96.9832 37.3718L97.0257 37.3526L97.0693 37.3355L97.1138 37.3204L97.1593 37.3075L97.2057 37.2968L97.253 37.2884L97.301 37.2823L97.3497 37.2785L97.399 37.2773L97.4483 37.2785L97.497 37.2823L97.545 37.2884L97.5923 37.2968L97.6387 37.3075L97.6842 37.3204L97.7287 37.3355L97.7723 37.3526L97.8148 37.3718L97.8561 37.393L97.8963 37.4161L97.9352 37.4409L97.9728 37.4677L98.009 37.496L98.0438 37.5262L98.0772 37.5579L98.1089 37.5912L98.1391 37.626L98.1675 37.6621L98.1943 37.6997L98.2192 37.7385L98.2423 37.7787L98.2635 37.8199L98.2827 37.8624L98.2999 37.9059L98.315 37.9504L98.3279 37.9958L98.3386 38.0421L98.347 38.0894L98.3531 38.1373L98.3569 38.186L98.3581 38.2352H98.3581ZM102.906 31.7777V33.6934L102.671 33.6993L102.439 33.7169L102.212 33.7458L101.988 33.7857L101.768 33.8364L101.553 33.8976L101.342 33.9688L101.136 34.0499L100.935 34.1408L100.739 34.241L100.548 34.3504L100.364 34.4685L100.185 34.5952L100.013 34.73L99.8481 34.8731L99.69 35.0236L99.5393 35.1815L99.3961 35.3465L99.2611 35.5183L99.1341 35.6965L99.0159 35.8806L98.9064 36.0708L98.806 36.2665L98.715 36.4675L98.6338 36.6733L98.5625 36.8839L98.5012 37.0992L98.4505 37.3188L98.4105 37.5423L98.3816 37.7693L98.364 38.0004L98.3581 38.2352H96.4399L96.4484 37.9039L96.4732 37.5763L96.5143 37.2531L96.5713 36.9349L96.6436 36.6222L96.7307 36.3155L96.8324 36.0152L96.9484 35.7214L97.078 35.4352L97.2208 35.1566L97.3765 34.8861L97.5447 34.624L97.7249 34.371L97.9167 34.1273L98.1197 33.8932L98.3336 33.669L98.5581 33.4554L98.7924 33.2527L99.0365 33.061L99.29 32.881L99.5523 32.7131L99.8232 32.5576L100.102 32.415L100.389 32.2856L100.683 32.1697L100.984 32.0681L101.291 31.9812L101.604 31.9089L101.922 31.852L102.246 31.811L102.574 31.7862L102.906 31.7777V31.7777ZM102.906 33.6934V31.7777L102.955 31.7789L103.004 31.7827L103.052 31.7888L103.099 31.7972L103.146 31.8079L103.191 31.8208L103.236 31.8358L103.279 31.853L103.322 31.8722L103.363 31.8934L103.403 31.9164L103.442 31.9413L103.48 31.9681L103.516 31.9964L103.551 32.0266L103.584 32.0583L103.616 32.0916L103.646 32.1264L103.674 32.1625L103.701 32.2001L103.726 32.2389L103.749 32.2791L103.77 32.3203L103.79 32.3628L103.807 32.4063L103.822 32.4507L103.835 32.4962L103.845 32.5425L103.854 32.5898L103.86 32.6377L103.864 32.6863L103.865 32.7356L103.864 32.7848L103.86 32.8335L103.854 32.8814L103.845 32.9286L103.835 32.975L103.822 33.0204L103.807 33.0649L103.79 33.1084L103.77 33.1508L103.749 33.1921L103.726 33.2322L103.701 33.2711L103.674 33.3086L103.646 33.3448L103.616 33.3795L103.584 33.4128L103.551 33.4446L103.516 33.4747L103.48 33.5031L103.442 33.5299L103.403 33.5547L103.363 33.5778L103.322 33.599L103.279 33.6181L103.236 33.6353L103.191 33.6504L103.146 33.6633L103.099 33.674L103.052 33.6824L103.004 33.6885L102.955 33.6922L102.906 33.6934V33.6934ZM110.536 33.6934H102.906V31.7777H110.536V33.6934ZM110.536 33.6934V31.7777L110.585 31.7789L110.634 31.7827L110.682 31.7888L110.729 31.7972L110.776 31.8079L110.821 31.8208L110.866 31.8358L110.909 31.853L110.952 31.8722L110.993 31.8934L111.033 31.9164L111.072 31.9413L111.11 31.9681L111.146 31.9964L111.181 32.0266L111.214 32.0583L111.246 32.0916L111.276 32.1264L111.304 32.1625L111.331 32.2001L111.356 32.2389L111.379 32.2791L111.4 32.3203L111.42 32.3628L111.437 32.4063L111.452 32.4507L111.465 32.4962L111.476 32.5425L111.484 32.5898L111.49 32.6377L111.494 32.6863L111.495 32.7356L111.494 32.7848L111.49 32.8335L111.484 32.8814L111.476 32.9286L111.465 32.975L111.452 33.0204L111.437 33.0649L111.42 33.1084L111.4 33.1508L111.379 33.1921L111.356 33.2322L111.331 33.2711L111.304 33.3086L111.276 33.3448L111.246 33.3795L111.214 33.4128L111.181 33.4446L111.146 33.4747L111.11 33.5031L111.072 33.5299L111.033 33.5547L110.993 33.5778L110.952 33.599L110.909 33.6181L110.866 33.6353L110.821 33.6504L110.776 33.6633L110.729 33.674L110.682 33.6824L110.634 33.6885L110.585 33.6922L110.536 33.6934V33.6934ZM117.002 38.2352H115.084L115.078 38.0004L115.06 37.7693L115.031 37.5423L114.991 37.3188L114.94 37.0992L114.879 36.8839L114.808 36.6733L114.727 36.4675L114.636 36.2665L114.535 36.0708L114.426 35.8806L114.307 35.6964L114.181 35.5183L114.046 35.3466L113.902 35.1815L113.752 35.0236L113.594 34.8731L113.428 34.73L113.256 34.5952L113.078 34.4685L112.894 34.3504L112.703 34.241L112.507 34.1408L112.306 34.0499L112.1 33.9688L111.889 33.8976L111.673 33.8365L111.454 33.7857L111.23 33.7458L111.002 33.7169L110.771 33.6993L110.536 33.6934V31.7777L110.868 31.7862L111.196 31.811L111.519 31.852L111.838 31.9089L112.151 31.981L112.458 32.0681L112.759 32.1697L113.053 32.2856L113.34 32.415L113.619 32.5576L113.889 32.7131L114.152 32.881L114.405 33.061L114.649 33.2527L114.884 33.4553L115.108 33.669L115.322 33.8932L115.525 34.1272L115.717 34.371L115.897 34.6241L116.065 34.8861L116.221 35.1566L116.364 35.4352L116.493 35.7214L116.609 36.0152L116.711 36.3155L116.798 36.6222L116.87 36.9349L116.927 37.2531L116.968 37.5763L116.993 37.9039L117.002 38.2352V38.2352ZM115.084 38.2352H117.002L117.001 38.2844L116.997 38.3331L116.991 38.381L116.982 38.4282L116.972 38.4746L116.959 38.52L116.944 38.5645L116.926 38.608L116.907 38.6505L116.886 38.6917L116.863 38.7319L116.838 38.7707L116.811 38.8083L116.783 38.8444L116.753 38.8792L116.721 38.9124L116.687 38.9442L116.653 38.9743L116.616 39.0027L116.579 39.0295L116.54 39.0543L116.5 39.0774L116.458 39.0986L116.416 39.1178L116.372 39.1349L116.328 39.15L116.282 39.1629L116.236 39.1736L116.189 39.182L116.141 39.1881L116.092 39.1919L116.043 39.1931L115.993 39.1919L115.945 39.1881L115.897 39.182L115.849 39.1736L115.803 39.1629L115.757 39.15L115.713 39.1349L115.669 39.1178L115.627 39.0986L115.586 39.0774L115.545 39.0543L115.506 39.0295L115.469 39.0027L115.433 38.9743L115.398 38.9442L115.365 38.9124L115.333 38.8792L115.303 38.8444L115.274 38.8083L115.247 38.7707L115.222 38.7319L115.199 38.6917L115.178 38.6505L115.159 38.608L115.142 38.5645L115.127 38.52L115.114 38.4746L115.103 38.4282L115.095 38.381L115.089 38.3331L115.085 38.2844L115.084 38.2352H115.084ZM115.084 81.4358V38.2352H117.002V81.4358L116.043 82.3937L115.084 81.4358H115.084ZM115.084 81.4358H117.002L117.001 81.485L116.997 81.5337L116.991 81.5816L116.982 81.6289L116.972 81.6752L116.959 81.7206L116.944 81.7651L116.926 81.8086L116.907 81.8511L116.886 81.8923L116.863 81.9325L116.838 81.9713L116.811 82.0089L116.783 82.045L116.753 82.0798L116.721 82.1131L116.687 82.1448L116.653 82.175L116.616 82.2033L116.579 82.2301L116.54 82.255L116.5 82.278L116.458 82.2992L116.416 82.3184L116.372 82.3356L116.328 82.3506L116.282 82.3635L116.236 82.3742L116.189 82.3826L116.141 82.3887L116.092 82.3925L116.043 82.3937L115.993 82.3925L115.945 82.3887L115.897 82.3826L115.849 82.3742L115.803 82.3635L115.757 82.3506L115.713 82.3356L115.669 82.3184L115.627 82.2992L115.586 82.278L115.545 82.255L115.506 82.2301L115.469 82.2033L115.433 82.175L115.398 82.1448L115.365 82.1131L115.333 82.0798L115.303 82.045L115.274 82.0089L115.247 81.9713L115.222 81.9325L115.199 81.8923L115.178 81.8511L115.159 81.8086L115.142 81.7651L115.127 81.7206L115.114 81.6752L115.103 81.6289L115.095 81.5816L115.089 81.5337L115.085 81.485L115.084 81.4358H115.084Z" fill="#333333"/>
<path d="M28.3005 68.7977V81.4358H26.3823V68.7977H28.3005ZM28.3005 68.7977H26.3823L26.3835 68.7484L26.3873 68.6998L26.3934 68.6518L26.4018 68.6046L26.4125 68.5583L26.4254 68.5128L26.4405 68.4684L26.4577 68.4248L26.4769 68.3824L26.4981 68.3411L26.5212 68.301L26.5461 68.2621L26.5729 68.2246L26.6013 68.1884L26.6315 68.1537L26.6632 68.1204L26.6966 68.0887L26.7314 68.0585L26.7676 68.0301L26.8052 68.0034L26.8441 67.9785L26.8843 67.9554L26.9256 67.9343L26.9681 67.9151L27.0117 67.8979L27.0562 67.8828L27.1017 67.87L27.1481 67.8593L27.1954 67.8509L27.2434 67.8448L27.2921 67.841L27.3414 67.8398L27.3907 67.841L27.4394 67.8448L27.4874 67.8509L27.5347 67.8593L27.5811 67.87L27.6266 67.8828L27.6711 67.8979L27.7147 67.9151L27.7572 67.9343L27.7985 67.9554L27.8387 67.9785L27.8776 68.0034L27.9152 68.0301L27.9514 68.0585L27.9862 68.0887L28.0195 68.1204L28.0513 68.1537L28.0815 68.1884L28.1099 68.2246L28.1367 68.2621L28.1616 68.301L28.1847 68.3411L28.2059 68.3824L28.2251 68.4248L28.2423 68.4684L28.2574 68.5128L28.2703 68.5583L28.281 68.6046L28.2894 68.6518L28.2955 68.6998L28.2993 68.7484L28.3005 68.7977ZM30.8527 64.333V66.2487L30.7203 66.252L30.5905 66.2619L30.463 66.2781L30.3373 66.3006L30.2141 66.3289L30.0933 66.3632L29.9752 66.4031L29.8597 66.4487L29.747 66.4996L29.6369 66.5559L29.53 66.6173L29.4266 66.6835L29.3263 66.7548L29.2297 66.8306L29.1371 66.9107L29.0482 66.9955L28.9633 67.0843L28.8831 67.1767L28.8072 67.2732L28.7358 67.3734L28.6695 67.4767L28.6081 67.5834L28.5517 67.6934L28.5007 67.8059L28.4551 67.9213L28.4151 68.0392L28.3808 68.1599L28.3524 68.2829L28.3299 68.4085L28.3137 68.5358L28.3038 68.6654L28.3005 68.7977H26.3823L26.3882 68.569L26.4053 68.3424L26.4339 68.1188L26.4732 67.899L26.5232 67.6829L26.5835 67.4708L26.6539 67.2627L26.7341 67.0597L26.8237 66.8616L26.9225 66.6692L27.0301 66.4821L27.1466 66.3008L27.271 66.1261L27.4035 65.9575L27.5441 65.7955L27.6918 65.6408L27.8467 65.4933L28.0089 65.3529L28.1777 65.2206L28.3526 65.0963L28.5342 64.98L28.7215 64.8725L28.9142 64.7738L29.1125 64.6844L29.3158 64.6043L29.5241 64.5339L29.7365 64.4737L29.9529 64.4238L30.173 64.3845L30.3969 64.356L30.6237 64.3389L30.8527 64.333ZM30.8527 66.2487V64.333L30.902 64.3342L30.9507 64.338L30.9987 64.3441L31.046 64.3525L31.0924 64.3632L31.1379 64.376L31.1824 64.3911L31.226 64.4083L31.2685 64.4275L31.3098 64.4487L31.35 64.4717L31.3889 64.4966L31.4265 64.5234L31.4627 64.5517L31.4975 64.5819L31.5308 64.6136L31.5626 64.6469L31.5928 64.6817L31.6212 64.7178L31.648 64.7554L31.6729 64.7942L31.696 64.8344L31.7172 64.8756L31.7364 64.9181L31.7536 64.9616L31.7687 65.006L31.7816 65.0515L31.7923 65.0978L31.8007 65.1451L31.8068 65.193L31.8106 65.2416L31.8118 65.2909L31.8106 65.3401L31.8068 65.3887L31.8007 65.4367L31.7923 65.4839L31.7816 65.5303L31.7687 65.5757L31.7536 65.6201L31.7364 65.6637L31.7172 65.7061L31.696 65.7474L31.6729 65.7875L31.648 65.8264L31.6212 65.8639L31.5928 65.9001L31.5626 65.9348L31.5308 65.9682L31.4975 65.9999L31.4627 66.03L31.4265 66.0584L31.3889 66.0852L31.35 66.11L31.3098 66.1331L31.2685 66.1543L31.226 66.1734L31.1824 66.1906L31.1379 66.2057L31.0924 66.2186L31.046 66.2293L30.9987 66.2377L30.9507 66.2437L30.902 66.2475L30.8527 66.2487V66.2487ZM36.6122 66.2484L30.8527 66.2487V64.333L36.6122 64.3327V66.2484Z" fill="#333333"/>
<path fill-rule="evenodd" clip-rule="evenodd" d="M90.0656 64.5955C90.0656 70.2087 90.0656 75.8224 90.0656 81.4357C92.5101 81.4357 94.9546 81.4357 97.399 81.4357C97.399 71.3983 97.399 61.3609 97.399 51.3236C71.4669 51.3236 45.5346 51.3236 19.6025 51.3236C19.6025 61.361 19.6025 71.3984 19.6025 81.4357C25.3061 81.4357 31.0098 81.4357 36.7136 81.4357C36.7136 76.4731 36.7136 71.5107 36.7136 66.5482C36.7136 62.2565 33.2294 58.7768 28.9322 58.7768C47.368 58.7768 65.8037 58.7768 84.2395 58.7768C87.4574 58.7768 90.0656 61.3817 90.0656 64.5955L90.0656 64.5955Z" fill="#88A6E3"/>
<path d="M90.0657 80.4779V82.3937L89.1066 81.4358V80.9096V80.3834V79.857V79.3308V78.8046V78.2783V77.7521V77.2257V76.6995V76.1733V75.647V75.1207V74.5944V74.0682V73.542V73.0156V72.4894V71.9631V71.4369V70.9106V70.3843V69.8581V69.3318V68.8056V68.2793V67.753V67.2268V66.7006V66.1743V65.648V65.1218V64.5956H91.0248V65.1218V65.648V66.1743V66.7006V67.2268V67.753V68.2793V68.8056V69.3318V69.8581V70.3843V70.9106V71.4369V71.9631V72.4894V73.0156V73.542V74.0682V74.5944V75.1207V75.647V76.1733V76.6995V77.2257V77.7521V78.2783V78.8046V79.3308V79.857V80.3834V80.9096V81.4358L90.0657 80.4779L90.0657 80.4779ZM89.1066 81.4358H91.0248L91.0236 81.485L91.0198 81.5337L91.0137 81.5816L91.0053 81.6289L90.9946 81.6752L90.9817 81.7206L90.9666 81.7651L90.9494 81.8086L90.9302 81.8511L90.909 81.8923L90.8859 81.9325L90.861 81.9713L90.8342 82.0089L90.8058 82.045L90.7756 82.0798L90.7439 82.1131L90.7105 82.1448L90.6757 82.175L90.6395 82.2033L90.6019 82.2301L90.563 82.255L90.5228 82.278L90.4815 82.2992L90.439 82.3184L90.3954 82.3356L90.3509 82.3506L90.3054 82.3635L90.259 82.3742L90.2117 82.3826L90.1637 82.3887L90.115 82.3925L90.0657 82.3937L90.0164 82.3925L89.9677 82.3887L89.9197 82.3826L89.8724 82.3742L89.826 82.3635L89.7805 82.3506L89.736 82.3356L89.6924 82.3184L89.6499 82.2992L89.6086 82.278L89.5684 82.255L89.5295 82.2301L89.4919 82.2033L89.4557 82.175L89.4209 82.1448L89.3876 82.1131L89.3558 82.0798L89.3256 82.045L89.2972 82.0089L89.2704 81.9713L89.2455 81.9325L89.2224 81.8923L89.2012 81.8511L89.182 81.8086L89.1648 81.7651L89.1497 81.7206L89.1368 81.6752L89.1261 81.6289L89.1177 81.5816L89.1116 81.5337L89.1078 81.485L89.1066 81.4358ZM96.44 81.4358H98.3582L97.3991 82.3937H97.1699H96.9408H96.7116H96.4824H96.2533H96.0241H95.7949H95.5658H95.3366H95.1074H94.8783H94.6491H94.4199H94.1908H93.9616H93.7324H93.5033H93.2741H93.0449H92.8158H92.5866H92.3574H92.1282H91.8991H91.6699H91.4407H91.2116H90.9824H90.7532H90.524H90.2949H90.0657V80.4779H90.2949H90.524H90.7532H90.9824H91.2116H91.4407H91.6699H91.8991H92.1282H92.3574H92.5866H92.8158H93.0449H93.2741H93.5033H93.7324H93.9616H94.1908H94.4199H94.6491H94.8783H95.1074H95.3366H95.5658H95.7949H96.0241H96.2533H96.4824H96.7116H96.9408H97.1699H97.3991L96.44 81.4358V81.4358ZM97.3991 82.3937V80.4779L97.4484 80.4791L97.4971 80.4829L97.5451 80.489L97.5924 80.4974L97.6388 80.5081L97.6843 80.521L97.7288 80.5361L97.7724 80.5532L97.8149 80.5724L97.8562 80.5936L97.8964 80.6167L97.9353 80.6415L97.9729 80.6683L98.0091 80.6967L98.0439 80.7268L98.0773 80.7586L98.109 80.7918L98.1392 80.8266L98.1676 80.8627L98.1944 80.9003L98.2193 80.9391L98.2424 80.9793L98.2636 81.0205L98.2828 81.063L98.3 81.1065L98.3151 81.151L98.328 81.1964L98.3387 81.2428L98.3471 81.29L98.3532 81.3379L98.357 81.3866L98.3582 81.4358L98.357 81.485L98.3532 81.5337L98.3471 81.5816L98.3387 81.6289L98.328 81.6752L98.3151 81.7206L98.3 81.7651L98.2828 81.8086L98.2636 81.8511L98.2424 81.8923L98.2193 81.9325L98.1944 81.9713L98.1676 82.0089L98.1392 82.045L98.109 82.0798L98.0773 82.1131L98.0439 82.1448L98.0091 82.175L97.9729 82.2033L97.9353 82.2301L97.8964 82.255L97.8562 82.278L97.8149 82.2992L97.7724 82.3184L97.7288 82.3356L97.6843 82.3506L97.6388 82.3635L97.5924 82.3742L97.5451 82.3826L97.4971 82.3887L97.4484 82.3925L97.3991 82.3937V82.3937ZM97.3991 52.2815V50.3658L98.3582 51.3236V52.2646V53.2056V54.1466V55.0877V56.0287V56.9697V57.9107V58.8517V59.7927V60.7337V61.6747V62.6157V63.5567V64.4977V65.4387V66.3798V67.3208V68.2618V69.2027V70.1437V71.0847V72.0257V72.9668V73.9078V74.8488V75.7898V76.7308V77.6717V78.6128V79.5538V80.4948V81.4358H96.44V80.4948V79.5538V78.6128V77.6717V76.7308V75.7898V74.8488V73.9078V72.9668V72.0257V71.0847V70.1437V69.2027V68.2618V67.3208V66.3798V65.4387V64.4977V63.5567V62.6157V61.6747V60.7337V59.7927V58.8517V57.9107V56.9697V56.0287V55.0877V54.1466V53.2056V52.2646V51.3236L97.3991 52.2815ZM98.3582 51.3237H96.44L96.4412 51.2744L96.445 51.2258L96.4511 51.1778L96.4595 51.1306L96.4702 51.0843L96.4831 51.0388L96.4982 50.9944L96.5154 50.9508L96.5346 50.9084L96.5558 50.8671L96.5789 50.827L96.6038 50.7881L96.6306 50.7506L96.659 50.7144L96.6892 50.6797L96.721 50.6464L96.7543 50.6147L96.7891 50.5845L96.8253 50.5561L96.8629 50.5294L96.9018 50.5045L96.942 50.4814L96.9833 50.4603L97.0258 50.4411L97.0694 50.4239L97.1139 50.4088L97.1594 50.396L97.2058 50.3853L97.2531 50.3769L97.3011 50.3708L97.3498 50.367L97.3991 50.3658L97.4484 50.367L97.4971 50.3708L97.5451 50.3769L97.5924 50.3853L97.6388 50.396L97.6843 50.4088L97.7288 50.4239L97.7724 50.4411L97.8149 50.4603L97.8562 50.4814L97.8964 50.5045L97.9353 50.5294L97.9729 50.5561L98.0091 50.5845L98.0439 50.6147L98.0773 50.6464L98.109 50.6797L98.1392 50.7144L98.1676 50.7506L98.1944 50.7881L98.2193 50.827L98.2424 50.8671L98.2636 50.9084L98.2828 50.9508L98.3 50.9944L98.3151 51.0388L98.328 51.0843L98.3387 51.1306L98.3471 51.1778L98.3532 51.2258L98.357 51.2744L98.3582 51.3237ZM20.5618 51.3237H18.6436L19.6027 50.3658H22.0337H24.4649H26.896H29.3272H31.7583H34.1894H36.6206H39.0517H41.4829H43.914H46.3452H48.7763H51.2075H53.6386H56.0698H58.5009H60.932H63.3632H65.7943H68.2255H70.6566H73.0878H75.5189H77.9501H80.3812H82.8124H85.2435H87.6746H90.1058H92.5369H94.9681H97.3992V52.2815H94.9681H92.5369H90.1058H87.6746H85.2435H82.8124H80.3812H77.9501H75.5189H73.0878H70.6566H68.2255H65.7943H63.3632H60.932H58.5009H56.0698H53.6386H51.2075H48.7763H46.3452H43.914H41.4829H39.0517H36.6206H34.1894H31.7583H29.3272H26.896H24.4649H22.0337H19.6027L20.5617 51.3237H20.5618ZM19.6027 50.3658V52.2815L19.5534 52.2803L19.5047 52.2765L19.4567 52.2704L19.4094 52.2621L19.363 52.2514L19.3175 52.2385L19.273 52.2234L19.2294 52.2062L19.1869 52.187L19.1456 52.1659L19.1054 52.1428L19.0665 52.1179L19.0289 52.0912L18.9927 52.0628L18.9579 52.0326L18.9245 52.001L18.8928 51.9676L18.8626 51.9329L18.8342 51.8967L18.8074 51.8592L18.7825 51.8203L18.7594 51.7802L18.7382 51.7389L18.719 51.6965L18.7018 51.6529L18.6867 51.6085L18.6738 51.5631L18.6631 51.5167L18.6547 51.4695L18.6486 51.4215L18.6448 51.3729L18.6436 51.3237L18.6448 51.2744L18.6486 51.2258L18.6547 51.1778L18.6631 51.1306L18.6738 51.0843L18.6867 51.0388L18.7018 50.9944L18.719 50.9508L18.7382 50.9084L18.7594 50.8671L18.7825 50.827L18.8074 50.7881L18.8342 50.7506L18.8626 50.7144L18.8928 50.6797L18.9245 50.6464L18.9579 50.6147L18.9927 50.5845L19.0289 50.5561L19.0665 50.5294L19.1054 50.5045L19.1456 50.4814L19.1869 50.4603L19.2294 50.4411L19.273 50.4239L19.3175 50.4088L19.363 50.396L19.4094 50.3853L19.4567 50.3769L19.5047 50.3708L19.5534 50.367L19.6027 50.3658ZM19.6027 80.4779V82.3937L18.6436 81.4358V80.4948V79.5538V78.6128V77.6718V76.7308V75.7898V74.8488V73.9078V72.9668V72.0257V71.0847V70.1437V69.2028V68.2618V67.3208V66.3798V65.4387V64.4977V63.5567V62.6157V61.6747V60.7337V59.7927V58.8517V57.9107V56.9697V56.0287V55.0877V54.1466V53.2056V52.2646V51.3237H20.5618V52.2646V53.2056V54.1466V55.0877V56.0287V56.9697V57.9107V58.8517V59.7927V60.7337V61.6747V62.6157V63.5567V64.4977V65.4387V66.3798V67.3208V68.2618V69.2028V70.1437V71.0847V72.0257V72.9668V73.9078V74.8488V75.7898V76.7308V77.6718V78.6128V79.5538V80.4948V81.4358L19.6027 80.4779L19.6027 80.4779ZM18.6436 81.4358H20.5618L20.5606 81.485L20.5568 81.5337L20.5507 81.5816L20.5423 81.6289L20.5316 81.6752L20.5187 81.7206L20.5036 81.7651L20.4864 81.8086L20.4672 81.8511L20.446 81.8923L20.4229 81.9325L20.398 81.9713L20.3712 82.0089L20.3428 82.045L20.3126 82.0798L20.2808 82.1131L20.2475 82.1448L20.2127 82.175L20.1765 82.2033L20.1389 82.2301L20.1 82.255L20.0598 82.278L20.0185 82.2992L19.976 82.3184L19.9324 82.3356L19.8879 82.3506L19.8424 82.3635L19.796 82.3742L19.7487 82.3826L19.7007 82.3887L19.652 82.3925L19.6027 82.3937L19.5534 82.3925L19.5047 82.3887L19.4567 82.3826L19.4094 82.3742L19.363 82.3635L19.3175 82.3506L19.273 82.3356L19.2294 82.3184L19.1869 82.2992L19.1456 82.278L19.1054 82.255L19.0665 82.2301L19.0289 82.2033L18.9927 82.175L18.9579 82.1448L18.9245 82.1131L18.8928 82.0798L18.8626 82.045L18.8342 82.0089L18.8074 81.9713L18.7825 81.9325L18.7594 81.8923L18.7382 81.8511L18.719 81.8086L18.7018 81.7651L18.6867 81.7206L18.6738 81.6752L18.6631 81.6289L18.6547 81.5816L18.6486 81.5337L18.6448 81.485L18.6436 81.4358H18.6436ZM35.7546 81.4358H37.6728L36.7137 82.3937H36.179H35.6443H35.1095H34.5748H34.0401H33.5054H32.9706H32.4359H31.9012H31.3665H30.8318H30.297H29.7623H29.2276H28.6929H28.1582H27.6234H27.0887H26.554H26.0193H25.4846H24.9499H24.4151H23.8804H23.3457H22.811H22.2763H21.7416H21.2068H20.6721H20.1374H19.6027V80.4779H20.1374H20.6721H21.2068H21.7416H22.2763H22.811H23.3457H23.8804H24.4151H24.9499H25.4846H26.0193H26.554H27.0887H27.6234H28.1582H28.6929H29.2276H29.7623H30.297H30.8318H31.3665H31.9012H32.4359H32.9706H33.5054H34.0401H34.5748H35.1095H35.6443H36.179H36.7137L35.7546 81.4358L35.7546 81.4358ZM36.7137 82.3937V80.4779L36.763 80.4791L36.8117 80.4829L36.8597 80.489L36.907 80.4974L36.9534 80.5081L36.9989 80.521L37.0434 80.5361L37.087 80.5532L37.1295 80.5724L37.1708 80.5936L37.211 80.6167L37.2499 80.6415L37.2875 80.6683L37.3237 80.6967L37.3585 80.7268L37.3918 80.7586L37.4236 80.7918L37.4538 80.8266L37.4822 80.8627L37.509 80.9003L37.5339 80.9391L37.557 80.9793L37.5782 81.0205L37.5974 81.063L37.6146 81.1065L37.6297 81.151L37.6426 81.1964L37.6533 81.2428L37.6617 81.29L37.6678 81.3379L37.6716 81.3866L37.6728 81.4358L37.6716 81.485L37.6678 81.5337L37.6617 81.5816L37.6533 81.6289L37.6426 81.6752L37.6297 81.7206L37.6146 81.7651L37.5974 81.8086L37.5782 81.8511L37.557 81.8923L37.5339 81.9325L37.509 81.9713L37.4822 82.0089L37.4538 82.045L37.4236 82.0798L37.3918 82.1131L37.3585 82.1448L37.3237 82.175L37.2875 82.2033L37.2499 82.2301L37.211 82.255L37.1708 82.278L37.1295 82.2992L37.087 82.3184L37.0434 82.3356L36.9989 82.3506L36.9534 82.3635L36.907 82.3742L36.8597 82.3826L36.8117 82.3887L36.763 82.3925L36.7137 82.3937V82.3937ZM35.7546 66.5482H37.6728V67.0134V67.4787V67.9439V68.4091V68.8744V69.3396V69.8048V70.2701V70.7354V71.2006V71.6659V72.1311V72.5963V73.0615V73.5268V73.992V74.4572V74.9225V75.3877V75.8529V76.3182V76.7834V77.2486V77.7139V78.1791V78.6444V79.1096V79.5748V80.0401V80.5053V80.9706V81.4358H35.7546V80.9706V80.5053V80.0401V79.5748V79.1096V78.6444V78.1791V77.7139V77.2486V76.7834V76.3182V75.8529V75.3877V74.9225V74.4572V73.992V73.5268V73.0615V72.5963V72.1311V71.6659V71.2006V70.7354V70.2701V69.8048V69.3396V68.8744V68.4091V67.9439V67.4787V67.0134V66.5482ZM37.6728 66.5482H35.7546L35.7558 66.499L35.7596 66.4504L35.7657 66.4024L35.7741 66.3552L35.7848 66.3088L35.7977 66.2634L35.8128 66.219L35.83 66.1754L35.8492 66.133L35.8704 66.0917L35.8935 66.0516L35.9184 66.0127L35.9452 65.9752L35.9736 65.939L36.0038 65.9043L36.0355 65.871L36.0689 65.8392L36.1037 65.8091L36.1399 65.7807L36.1775 65.754L36.2164 65.7291L36.2566 65.706L36.2979 65.6848L36.3404 65.6657L36.384 65.6485L36.4285 65.6334L36.474 65.6205L36.5204 65.6098L36.5677 65.6015L36.6157 65.5954L36.6644 65.5916L36.7137 65.5904L36.763 65.5916L36.8117 65.5954L36.8597 65.6015L36.907 65.6098L36.9534 65.6205L36.9989 65.6334L37.0434 65.6485L37.087 65.6657L37.1295 65.6848L37.1708 65.706L37.211 65.7291L37.2499 65.754L37.2875 65.7807L37.3237 65.8091L37.3585 65.8392L37.3918 65.871L37.4236 65.9043L37.4538 65.939L37.4822 65.9752L37.509 66.0127L37.5339 66.0516L37.557 66.0917L37.5782 66.133L37.5974 66.1754L37.6146 66.219L37.6297 66.2634L37.6426 66.3088L37.6533 66.3552L37.6617 66.4024L37.6678 66.4504L37.6716 66.499L37.6728 66.5482H37.6728ZM28.9323 57.819V59.7347V57.819L29.3811 57.8304L29.8246 57.864L30.2619 57.9195L30.6925 57.9963L31.1158 58.0939L31.5308 58.2117L31.9374 58.349L32.3346 58.5055L32.7219 58.6803L33.0989 58.8731L33.4651 59.0835L33.8197 59.3105L34.1623 59.5538L34.4922 59.8128L34.8093 60.0871L35.1126 60.3759L35.4018 60.6788L35.6764 60.9955L35.9357 61.325L36.1794 61.6671L36.4067 62.0213L36.6173 62.387L36.8104 62.7635L36.9854 63.1503L37.1421 63.547L37.2796 63.9531L37.3975 64.3675L37.4952 64.7903L37.5721 65.2204L37.6277 65.6571L37.6614 66.1L37.6728 66.5482H35.7546L35.7458 66.1967L35.7193 65.8504L35.6759 65.5094L35.616 65.174L35.5399 64.8447L35.448 64.5218L35.3409 64.2056L35.2188 63.8966L35.0822 63.5948L34.9317 63.3012L34.7675 63.016L34.59 62.7395L34.3997 62.4723L34.197 62.2147L33.9824 61.9673L33.7562 61.7305L33.5191 61.5046L33.2714 61.2903L33.0135 61.0879L32.7459 60.8978L32.4691 60.7205L32.1835 60.5566L31.8895 60.4062L31.5874 60.2698L31.278 60.1479L30.9614 60.0409L30.638 59.9491L30.3083 59.8731L29.9725 59.8133L29.631 59.77L29.2843 59.7435L28.9323 59.7347V57.819H28.9323ZM28.9323 57.819V59.7347L28.883 59.7335L28.8343 59.7297L28.7863 59.7236L28.739 59.7152L28.6926 59.7046L28.6471 59.6917L28.6026 59.6766L28.559 59.6594L28.5165 59.6402L28.4752 59.6191L28.435 59.596L28.3961 59.5711L28.3585 59.5444L28.3223 59.516L28.2875 59.4858L28.2541 59.4542L28.2224 59.4208L28.1922 59.3861L28.1638 59.3499L28.137 59.3124L28.1121 59.2735L28.089 59.2334L28.0678 59.1921L28.0486 59.1497L28.0314 59.1061L28.0163 59.0617L28.0034 59.0162L27.9927 58.9699L27.9843 58.9227L27.9782 58.8747L27.9744 58.8261L27.9732 58.7768L27.9744 58.7276L27.9782 58.679L27.9843 58.631L27.9927 58.5838L28.0034 58.5375L28.0163 58.492L28.0314 58.4476L28.0486 58.404L28.0678 58.3616L28.089 58.3203L28.1121 58.2802L28.137 58.2413L28.1638 58.2038L28.1922 58.1676L28.2224 58.1329L28.2541 58.0996L28.2875 58.0679L28.3223 58.0377L28.3585 58.0093L28.3961 57.9826L28.435 57.9577L28.4752 57.9346L28.5165 57.9135L28.559 57.8943L28.6026 57.8771L28.6471 57.862L28.6926 57.8491L28.739 57.8385L28.7863 57.8301L28.8343 57.824L28.883 57.8202L28.9323 57.819ZM84.2396 57.819V59.7347H82.5112H80.783H79.0546H77.3262H75.5979H73.8695H72.1412H70.4128H68.6844H66.9561H65.2277H63.4994H61.771H60.0427H58.3143H56.5859H54.8576H53.1292H51.4009H49.6726H47.9443H46.2159H44.4876H42.7592H41.0308H39.3025H37.5741H35.8458H34.1174H32.389H30.6607H28.9323V57.819H30.6607H32.389H34.1174H35.8458H37.5741H39.3025H41.0308H42.7592H44.4876H46.2159H47.9443H49.6726H51.4009H53.1292H54.8576H56.5859H58.3143H60.0427H61.771H63.4994H65.2277H66.9561H68.6844H70.4128H72.1412H73.8695H75.5979H77.3262H79.0546H80.783H82.5112H84.2396ZM84.2396 59.7347V57.819L84.2889 57.8202L84.3376 57.824L84.3856 57.8301L84.4329 57.8384L84.4793 57.8491L84.5248 57.862L84.5693 57.8771L84.6129 57.8943L84.6554 57.9135L84.6967 57.9346L84.7369 57.9577L84.7758 57.9826L84.8134 58.0093L84.8496 58.0377L84.8844 58.0679L84.9178 58.0996L84.9495 58.1329L84.9797 58.1676L85.0081 58.2038L85.0349 58.2413L85.0598 58.2802L85.0829 58.3203L85.1041 58.3616L85.1233 58.404L85.1405 58.4476L85.1556 58.492L85.1685 58.5375L85.1792 58.5838L85.1876 58.631L85.1937 58.679L85.1975 58.7276L85.1987 58.7768L85.1975 58.8261L85.1937 58.8747L85.1876 58.9227L85.1792 58.9699L85.1685 59.0162L85.1556 59.0617L85.1405 59.1061L85.1233 59.1497L85.1041 59.1921L85.0829 59.2334L85.0598 59.2735L85.0349 59.3124L85.0081 59.3499L84.9797 59.3861L84.9495 59.4208L84.9178 59.4542L84.8844 59.4858L84.8496 59.516L84.8134 59.5444L84.7758 59.5711L84.7369 59.596L84.6967 59.6191L84.6554 59.6402L84.6129 59.6594L84.5693 59.6766L84.5248 59.6917L84.4793 59.7045L84.4329 59.7152L84.3856 59.7236L84.3376 59.7297L84.2889 59.7335L84.2396 59.7347ZM91.0248 64.5956H89.1066L89.1003 64.3445L89.0814 64.0971L89.0505 63.8539L89.0077 63.6147L88.9534 63.3797L88.888 63.1495L88.8116 62.924L88.7246 62.7036L88.6271 62.4885L88.5198 62.279L88.4026 62.0755L88.2761 61.8783L88.1403 61.6877L87.9956 61.5037L87.8426 61.3273L87.6813 61.1584L87.512 60.9973L87.3352 60.8443L87.1511 60.6998L86.9602 60.5642L86.7627 60.4377L86.5591 60.3209L86.3493 60.2135L86.134 60.1162L85.9133 60.0293L85.6875 59.953L85.457 59.8877L85.2217 59.8335L84.9822 59.7907L84.7387 59.7599L84.491 59.741L84.2396 59.7347V57.819L84.5878 57.8279L84.9319 57.8539L85.2716 57.897L85.6059 57.9567L85.9344 58.0323L86.2569 58.1238L86.5725 58.2304L86.881 58.3519L87.1819 58.4877L87.4745 58.6374L87.7587 58.8006L88.034 58.9769L88.2999 59.1657L88.556 59.3668L88.802 59.5795L89.0375 59.8037L89.262 60.0389L89.4752 60.2847L89.6763 60.5404L89.8655 60.8059L90.042 61.081L90.2054 61.3648L90.3553 61.6571L90.4912 61.9575L90.6128 62.2656L90.7196 62.5808L90.8112 62.9029L90.8869 63.231L90.9467 63.5649L90.9898 63.9041L91.0159 64.2478L91.0248 64.5955V64.5956ZM89.1066 64.5956H91.0248L91.0236 64.6448L91.0198 64.6934L91.0137 64.7414L91.0053 64.7886L90.9946 64.8349L90.9817 64.8804L90.9666 64.9248L90.9494 64.9684L90.9302 65.0108L90.909 65.0521L90.8859 65.0922L90.861 65.1311L90.8342 65.1686L90.8058 65.2048L90.7756 65.2395L90.7439 65.2729L90.7105 65.3045L90.6757 65.3347L90.6395 65.3631L90.6019 65.3898L90.563 65.4147L90.5228 65.4378L90.4815 65.4589L90.439 65.4781L90.3954 65.4953L90.3509 65.5104L90.3054 65.5233L90.259 65.5339L90.2117 65.5423L90.1637 65.5484L90.115 65.5522L90.0657 65.5534L90.0164 65.5522L89.9677 65.5484L89.9197 65.5423L89.8724 65.5339L89.826 65.5233L89.7805 65.5104L89.736 65.4953L89.6924 65.4781L89.6499 65.4589L89.6086 65.4378L89.5684 65.4147L89.5295 65.3898L89.4919 65.3631L89.4557 65.3347L89.4209 65.3045L89.3876 65.2729L89.3558 65.2395L89.3256 65.2048L89.2972 65.1686L89.2704 65.1311L89.2455 65.0922L89.2224 65.0521L89.2012 65.0108L89.182 64.9684L89.1648 64.9248L89.1497 64.8804L89.1368 64.8349L89.1261 64.7886L89.1177 64.7414L89.1116 64.6934L89.1078 64.6448L89.1066 64.5956Z" fill="#333333"/>
<path fill-rule="evenodd" clip-rule="evenodd" d="M97.3989 51.3237V38.2352C97.3989 35.1977 99.8642 32.7356 102.906 32.7356H14.0957C17.1372 32.7356 19.6025 35.1977 19.6025 38.2352V51.3237H97.3989H97.3989Z" fill="#B0C1D4"/>
<path d="M98.3581 38.2352V51.3236H96.4399V38.2352H98.3581ZM98.3581 38.2352H96.4399L96.4411 38.186L96.4449 38.1373L96.451 38.0894L96.4594 38.0421L96.4701 37.9958L96.483 37.9504L96.4981 37.9059L96.5153 37.8624L96.5345 37.8199L96.5557 37.7787L96.5788 37.7385L96.6037 37.6997L96.6305 37.6621L96.6589 37.626L96.6891 37.5912L96.7209 37.5579L96.7542 37.5262L96.789 37.496L96.8252 37.4677L96.8628 37.4409L96.9017 37.416L96.9419 37.393L96.9832 37.3718L97.0257 37.3526L97.0693 37.3354L97.1138 37.3204L97.1593 37.3075L97.2057 37.2968L97.253 37.2884L97.301 37.2823L97.3497 37.2785L97.399 37.2773L97.4483 37.2785L97.497 37.2823L97.545 37.2884L97.5923 37.2968L97.6387 37.3075L97.6842 37.3204L97.7287 37.3354L97.7723 37.3526L97.8148 37.3718L97.8561 37.393L97.8963 37.416L97.9352 37.4409L97.9728 37.4677L98.009 37.496L98.0438 37.5262L98.0772 37.5579L98.1089 37.5912L98.1391 37.626L98.1675 37.6621L98.1943 37.6997L98.2192 37.7385L98.2423 37.7787L98.2635 37.8199L98.2827 37.8624L98.2999 37.9059L98.315 37.9504L98.3279 37.9958L98.3386 38.0421L98.347 38.0894L98.3531 38.1373L98.3569 38.186L98.3581 38.2352H98.3581ZM102.906 33.6934V31.7777V33.6934L102.671 33.6993L102.439 33.7169L102.212 33.7458L101.988 33.7857L101.768 33.8364L101.553 33.8976L101.342 33.9688L101.136 34.0499L100.935 34.1408L100.739 34.241L100.548 34.3504L100.364 34.4685L100.185 34.5952L100.013 34.73L99.8481 34.8731L99.69 35.0236L99.5393 35.1815L99.3961 35.3465L99.2611 35.5183L99.1341 35.6965L99.0159 35.8806L98.9064 36.0708L98.806 36.2665L98.715 36.4675L98.6338 36.6733L98.5625 36.8839L98.5012 37.0992L98.4505 37.3188L98.4105 37.5423L98.3816 37.7693L98.364 38.0004L98.3581 38.2352H96.4399L96.4484 37.9039L96.4732 37.5763L96.5143 37.2531L96.5713 36.9349L96.6436 36.6222L96.7307 36.3155L96.8324 36.0152L96.9484 35.7214L97.078 35.4352L97.2208 35.1566L97.3765 34.8861L97.5447 34.624L97.7249 34.371L97.9167 34.1273L98.1197 33.8932L98.3336 33.669L98.5581 33.4554L98.7924 33.2527L99.0365 33.061L99.29 32.881L99.5523 32.7131L99.8232 32.5576L100.102 32.415L100.389 32.2856L100.683 32.1697L100.984 32.0681L101.291 31.9812L101.604 31.9089L101.922 31.852L102.246 31.811L102.574 31.7862L102.906 31.7777V33.6934V33.6934ZM102.906 33.6934V31.7777L102.955 31.7789L103.004 31.7827L103.052 31.7888L103.099 31.7972L103.145 31.8079L103.191 31.8208L103.235 31.8358L103.279 31.853L103.322 31.8722L103.363 31.8934L103.403 31.9164L103.442 31.9413L103.48 31.9681L103.516 31.9964L103.551 32.0266L103.584 32.0583L103.616 32.0916L103.646 32.1264L103.674 32.1625L103.701 32.2001L103.726 32.2389L103.749 32.2791L103.77 32.3203L103.789 32.3628L103.807 32.4063L103.822 32.4507L103.835 32.4962L103.845 32.5425L103.854 32.5898L103.86 32.6377L103.864 32.6863L103.865 32.7356L103.864 32.7848L103.86 32.8335L103.854 32.8814L103.845 32.9286L103.835 32.975L103.822 33.0204L103.807 33.0649L103.789 33.1084L103.77 33.1508L103.749 33.1921L103.726 33.2322L103.701 33.2711L103.674 33.3086L103.646 33.3448L103.616 33.3795L103.584 33.4128L103.551 33.4446L103.516 33.4747L103.48 33.5031L103.442 33.5299L103.403 33.5547L103.363 33.5778L103.322 33.599L103.279 33.6181L103.235 33.6353L103.191 33.6504L103.145 33.6633L103.099 33.674L103.052 33.6824L103.004 33.6884L102.955 33.6922L102.906 33.6934V33.6934ZM14.0958 31.7777H102.906V33.6934H14.0958V31.7777ZM14.0958 31.7777V33.6934L14.0465 33.6922L13.9978 33.6884L13.9498 33.6824L13.9025 33.674L13.8561 33.6633L13.8106 33.6504L13.7661 33.6353L13.7225 33.6181L13.68 33.599L13.6387 33.5778L13.5985 33.5547L13.5596 33.5299L13.522 33.5031L13.4858 33.4747L13.451 33.4446L13.4176 33.4128L13.3859 33.3795L13.3557 33.3448L13.3273 33.3086L13.3005 33.2711L13.2756 33.2322L13.2525 33.1921L13.2313 33.1508L13.2121 33.1084L13.1949 33.0649L13.1798 33.0204L13.1669 32.975L13.1562 32.9286L13.1478 32.8814L13.1417 32.8335L13.1379 32.7848L13.1367 32.7356L13.1379 32.6863L13.1417 32.6377L13.1478 32.5898L13.1562 32.5425L13.1669 32.4962L13.1798 32.4507L13.1949 32.4063L13.2121 32.3628L13.2313 32.3203L13.2525 32.2791L13.2756 32.2389L13.3005 32.2001L13.3273 32.1625L13.3557 32.1264L13.3859 32.0916L13.4176 32.0583L13.451 32.0266L13.4858 31.9964L13.522 31.9681L13.5596 31.9413L13.5985 31.9164L13.6387 31.8934L13.68 31.8722L13.7225 31.853L13.7661 31.8358L13.8106 31.8208L13.8561 31.8079L13.9025 31.7972L13.9498 31.7888L13.9978 31.7827L14.0465 31.7789L14.0958 31.7777V31.7777ZM20.5617 38.2352H18.6435L18.6376 38.0004L18.62 37.7693L18.5911 37.5423L18.5511 37.3188L18.5004 37.0992L18.4391 36.8839L18.3678 36.6733L18.2866 36.4675L18.1956 36.2665L18.0952 36.0708L17.9857 35.8806L17.8675 35.6965L17.7405 35.5183L17.6055 35.3465L17.4623 35.1815L17.3116 35.0236L17.1535 34.8731L16.9882 34.73L16.8163 34.5952L16.638 34.4685L16.4535 34.3504L16.263 34.241L16.067 34.1408L15.8659 34.0499L15.6598 33.9688L15.4488 33.8976L15.2332 33.8364L15.0134 33.7857L14.7897 33.7458L14.5623 33.7169L14.3309 33.6993L14.0958 33.6934V31.7777L14.4275 31.7862L14.7555 31.811L15.0793 31.852L15.398 31.9089L15.711 31.9811L16.018 32.0681L16.3188 32.1697L16.6129 32.2856L16.8996 32.415L17.1784 32.5576L17.4493 32.7131L17.7116 32.881L17.9651 33.061L18.2092 33.2527L18.4435 33.4553L18.668 33.669L18.8819 33.8932L19.0849 34.1273L19.2767 34.371L19.4569 34.624L19.6251 34.8861L19.7808 35.1566L19.9236 35.4352L20.0532 35.7214L20.1692 36.0151L20.2709 36.3155L20.358 36.6222L20.4303 36.9349L20.4873 37.2531L20.5284 37.5763L20.5532 37.9039L20.5617 38.2352L20.5617 38.2352ZM18.6435 38.2352H20.5617L20.5605 38.2844L20.5567 38.3331L20.5506 38.381L20.5422 38.4282L20.5315 38.4746L20.5186 38.52L20.5035 38.5645L20.4863 38.608L20.4671 38.6505L20.4459 38.6917L20.4228 38.7319L20.3979 38.7707L20.3711 38.8083L20.3427 38.8444L20.3125 38.8792L20.2807 38.9124L20.2474 38.9442L20.2126 38.9743L20.1764 39.0027L20.1388 39.0295L20.0999 39.0543L20.0597 39.0774L20.0184 39.0986L19.9759 39.1178L19.9323 39.1349L19.8878 39.15L19.8423 39.1629L19.7959 39.1736L19.7486 39.182L19.7006 39.1881L19.6519 39.1919L19.6026 39.1931L19.5533 39.1919L19.5046 39.1881L19.4566 39.182L19.4093 39.1736L19.3629 39.1629L19.3174 39.15L19.2729 39.1349L19.2293 39.1178L19.1868 39.0986L19.1455 39.0774L19.1053 39.0543L19.0664 39.0295L19.0288 39.0027L18.9926 38.9743L18.9578 38.9442L18.9244 38.9124L18.8927 38.8792L18.8625 38.8444L18.8341 38.8083L18.8073 38.7707L18.7824 38.7319L18.7593 38.6917L18.7381 38.6505L18.7189 38.608L18.7017 38.5645L18.6866 38.52L18.6737 38.4746L18.663 38.4282L18.6546 38.381L18.6485 38.3331L18.6447 38.2844L18.6435 38.2352H18.6435ZM18.6435 51.3236V38.2352H20.5617V51.3236L19.6026 52.2815L18.6435 51.3236H18.6435ZM18.6435 51.3236H20.5617L20.5605 51.3729L20.5567 51.4215L20.5506 51.4694L20.5422 51.5167L20.5315 51.563L20.5186 51.6085L20.5035 51.6529L20.4863 51.6964L20.4671 51.7389L20.4459 51.7801L20.4228 51.8203L20.3979 51.8591L20.3711 51.8967L20.3427 51.9328L20.3125 51.9676L20.2807 52.001L20.2474 52.0326L20.2126 52.0628L20.1764 52.0911L20.1388 52.1179L20.0999 52.1428L20.0597 52.1658L20.0184 52.187L19.9759 52.2062L19.9323 52.2234L19.8878 52.2384L19.8423 52.2513L19.7959 52.262L19.7486 52.2704L19.7006 52.2765L19.6519 52.2803L19.6026 52.2815L19.5533 52.2803L19.5046 52.2765L19.4566 52.2704L19.4093 52.262L19.3629 52.2513L19.3174 52.2384L19.2729 52.2234L19.2293 52.2062L19.1868 52.187L19.1455 52.1658L19.1053 52.1428L19.0664 52.1179L19.0288 52.0911L18.9926 52.0628L18.9578 52.0326L18.9244 52.001L18.8927 51.9676L18.8625 51.9328L18.8341 51.8967L18.8073 51.8591L18.7824 51.8203L18.7593 51.7801L18.7381 51.7389L18.7189 51.6964L18.7017 51.6529L18.6866 51.6085L18.6737 51.563L18.663 51.5167L18.6546 51.4694L18.6485 51.4215L18.6447 51.3729L18.6435 51.3236H18.6435ZM97.3989 52.2815H19.6025V50.3658H97.3989L98.358 51.3236L97.3989 52.2815V52.2815ZM97.3989 52.2815V50.3658L97.4482 50.367L97.4969 50.3708L97.5449 50.3768L97.5922 50.3852L97.6386 50.3959L97.6841 50.4088L97.7286 50.4239L97.7722 50.4411L97.8147 50.4602L97.856 50.4814L97.8962 50.5045L97.9351 50.5294L97.9727 50.5561L98.0089 50.5845L98.0437 50.6146L98.0771 50.6464L98.1088 50.6797L98.139 50.7144L98.1674 50.7506L98.1942 50.7881L98.2191 50.827L98.2422 50.8671L98.2634 50.9084L98.2826 50.9508L98.2998 50.9943L98.3149 51.0388L98.3278 51.0842L98.3385 51.1306L98.3469 51.1778L98.353 51.2258L98.3568 51.2744L98.358 51.3236L98.3568 51.3729L98.353 51.4215L98.3469 51.4694L98.3385 51.5167L98.3278 51.563L98.3149 51.6085L98.2998 51.6529L98.2826 51.6964L98.2634 51.7389L98.2422 51.7801L98.2191 51.8203L98.1942 51.8591L98.1674 51.8967L98.139 51.9328L98.1088 51.9676L98.0771 52.001L98.0437 52.0326L98.0089 52.0628L97.9727 52.0911L97.9351 52.1179L97.8962 52.1428L97.856 52.1658L97.8147 52.187L97.7722 52.2062L97.7286 52.2234L97.6841 52.2384L97.6386 52.2513L97.5922 52.262L97.5449 52.2704L97.4969 52.2765L97.4482 52.2803L97.3989 52.2815V52.2815Z" fill="#333333"/>
<path fill-rule="evenodd" clip-rule="evenodd" d="M30.6162 38.7302H50.4087V45.7444H30.6162V38.7302Z" fill="#8BB7F0"/>
<path d="M50.4088 39.688H30.6163V37.7723H50.4088L51.3679 38.7301L50.4088 39.688V39.688ZM50.4088 39.688V37.7723L50.4581 37.7735L50.5068 37.7773L50.5548 37.7834L50.6021 37.7918L50.6485 37.8024L50.694 37.8153L50.7385 37.8304L50.7821 37.8476L50.8246 37.8668L50.8659 37.8879L50.9061 37.911L50.945 37.9359L50.9826 37.9626L51.0188 37.991L51.0536 38.0212L51.0869 38.0528L51.1187 38.0862L51.1489 38.1209L51.1773 38.1571L51.2041 38.1946L51.229 38.2335L51.2521 38.2736L51.2733 38.3149L51.2925 38.3573L51.3097 38.4009L51.3248 38.4453L51.3377 38.4908L51.3484 38.5371L51.3568 38.5843L51.3629 38.6323L51.3667 38.6809L51.3679 38.7301L51.3667 38.7794L51.3629 38.828L51.3568 38.876L51.3484 38.9232L51.3377 38.9695L51.3248 39.015L51.3097 39.0594L51.2925 39.103L51.2733 39.1454L51.2521 39.1867L51.229 39.2268L51.2041 39.2657L51.1773 39.3032L51.1489 39.3394L51.1187 39.3741L51.0869 39.4074L51.0536 39.4391L51.0188 39.4693L50.9826 39.4977L50.945 39.5244L50.9061 39.5493L50.8659 39.5724L50.8246 39.5935L50.7821 39.6127L50.7385 39.6299L50.694 39.645L50.6485 39.6578L50.6021 39.6685L50.5548 39.6769L50.5068 39.683L50.4581 39.6868L50.4088 39.688V39.688ZM49.4497 45.7444V38.7301H51.3679V45.7444L50.4088 46.7023L49.4497 45.7444H49.4497ZM49.4497 45.7444H51.3679L51.3667 45.7936L51.3629 45.8423L51.3568 45.8902L51.3484 45.9375L51.3377 45.9838L51.3248 46.0292L51.3097 46.0737L51.2925 46.1172L51.2733 46.1597L51.2521 46.2009L51.229 46.2411L51.2041 46.2799L51.1773 46.3175L51.1489 46.3536L51.1187 46.3884L51.0869 46.4217L51.0536 46.4534L51.0188 46.4836L50.9826 46.5119L50.945 46.5387L50.9061 46.5635L50.8659 46.5866L50.8246 46.6078L50.7821 46.627L50.7385 46.6441L50.694 46.6592L50.6485 46.6721L50.6021 46.6828L50.5548 46.6912L50.5068 46.6973L50.4581 46.7011L50.4088 46.7023L50.3595 46.7011L50.3108 46.6973L50.2628 46.6912L50.2155 46.6828L50.1691 46.6721L50.1236 46.6592L50.0791 46.6441L50.0355 46.627L49.993 46.6078L49.9517 46.5866L49.9115 46.5635L49.8726 46.5387L49.835 46.5119L49.7988 46.4836L49.764 46.4534L49.7306 46.4217L49.6989 46.3884L49.6687 46.3536L49.6403 46.3175L49.6135 46.2799L49.5886 46.2411L49.5655 46.2009L49.5443 46.1597L49.5251 46.1172L49.5079 46.0737L49.4928 46.0292L49.4799 45.9838L49.4692 45.9375L49.4608 45.8902L49.4547 45.8423L49.4509 45.7936L49.4497 45.7444ZM30.6163 44.7865H50.4089V46.7023H30.6163L29.6572 45.7444L30.6163 44.7865V44.7865ZM30.6163 44.7865V46.7023L30.567 46.7011L30.5183 46.6973L30.4703 46.6912L30.423 46.6828L30.3766 46.6721L30.3311 46.6592L30.2866 46.6441L30.243 46.627L30.2005 46.6078L30.1592 46.5866L30.119 46.5635L30.0801 46.5387L30.0425 46.5119L30.0063 46.4836L29.9715 46.4534L29.9381 46.4217L29.9064 46.3884L29.8762 46.3536L29.8478 46.3175L29.821 46.2799L29.7961 46.2411L29.773 46.2009L29.7518 46.1597L29.7326 46.1172L29.7154 46.0737L29.7003 46.0292L29.6874 45.9838L29.6767 45.9375L29.6683 45.8902L29.6622 45.8423L29.6584 45.7936L29.6572 45.7444L29.6584 45.6952L29.6622 45.6465L29.6683 45.5986L29.6767 45.5514L29.6874 45.505L29.7003 45.4596L29.7154 45.4151L29.7326 45.3716L29.7518 45.3291L29.773 45.2879L29.7961 45.2477L29.821 45.2089L29.8478 45.1713L29.8762 45.1352L29.9064 45.1004L29.9381 45.0672L29.9715 45.0354L30.0063 45.0053L30.0425 44.9769L30.0801 44.9501L30.119 44.9253L30.1592 44.9022L30.2005 44.881L30.243 44.8618L30.2866 44.8447L30.3311 44.8296L30.3766 44.8167L30.423 44.806L30.4703 44.7976L30.5183 44.7915L30.567 44.7877L30.6163 44.7865V44.7865ZM31.5754 38.7301V45.7444H29.6572V38.7301L30.6163 37.7723L31.5754 38.7301H31.5754ZM31.5754 38.7301H29.6572L29.6584 38.6809L29.6622 38.6323L29.6683 38.5843L29.6767 38.5371L29.6874 38.4908L29.7003 38.4453L29.7154 38.4009L29.7326 38.3573L29.7518 38.3149L29.773 38.2736L29.7961 38.2335L29.821 38.1946L29.8478 38.1571L29.8762 38.1209L29.9064 38.0862L29.9381 38.0528L29.9715 38.0212L30.0063 37.991L30.0425 37.9626L30.0801 37.9359L30.119 37.911L30.1592 37.8879L30.2005 37.8668L30.243 37.8476L30.2866 37.8304L30.3311 37.8153L30.3766 37.8024L30.423 37.7918L30.4703 37.7834L30.5183 37.7773L30.567 37.7735L30.6163 37.7723L30.6656 37.7735L30.7143 37.7773L30.7623 37.7834L30.8096 37.7918L30.856 37.8024L30.9015 37.8153L30.946 37.8304L30.9896 37.8476L31.0321 37.8668L31.0734 37.8879L31.1136 37.911L31.1525 37.9359L31.1901 37.9626L31.2263 37.991L31.2611 38.0212L31.2944 38.0528L31.3262 38.0862L31.3564 38.1209L31.3848 38.1571L31.4116 38.1946L31.4365 38.2335L31.4596 38.2736L31.4808 38.3149L31.5 38.3573L31.5172 38.4009L31.5323 38.4453L31.5452 38.4908L31.5559 38.5371L31.5643 38.5843L31.5704 38.6323L31.5742 38.6809L31.5754 38.7301H31.5754Z" fill="#333333"/>
<path d="M58.1944 44.1501C59.5166 44.1501 60.5885 43.0796 60.5885 41.759C60.5885 40.4385 59.5166 39.368 58.1944 39.368C56.8722 39.368 55.8003 40.4385 55.8003 41.759C55.8003 43.0796 56.8722 44.1501 58.1944 44.1501Z" fill="#FFEEA3"/>
<path d="M66.6499 44.1501C67.9721 44.1501 69.044 43.0796 69.044 41.759C69.044 40.4385 67.9721 39.368 66.6499 39.368C65.3277 39.368 64.2559 40.4385 64.2559 41.759C64.2559 43.0796 65.3277 44.1501 66.6499 44.1501Z" fill="#FFEEA3"/>
<path d="M75.189 44.1501C76.5112 44.1501 77.5831 43.0796 77.5831 41.759C77.5831 40.4385 76.5112 39.368 75.189 39.368C73.8668 39.368 72.7949 40.4385 72.7949 41.759C72.7949 43.0796 73.8668 44.1501 75.189 44.1501Z" fill="#FFEEA3"/>
<path d="M83.689 44.1501C85.0113 44.1501 86.0831 43.0796 86.0831 41.759C86.0831 40.4385 85.0113 39.368 83.689 39.368C82.3668 39.368 81.2949 40.4385 81.2949 41.759C81.2949 43.0796 82.3668 44.1501 83.689 44.1501Z" fill="#FFEEA3"/>
</svg>
