<svg width="179" height="123" viewBox="0 0 179 123" fill="none" xmlns="http://www.w3.org/2000/svg">
<path fill-rule="evenodd" clip-rule="evenodd" d="M92.0079 120.164L1 37.2391L70.1249 1.16973L164.58 61.7726L92.0079 120.164Z" fill="#4E7AB5" stroke="#333333" stroke-width="2" stroke-linejoin="round"/>
<path fill-rule="evenodd" clip-rule="evenodd" d="M91.158 121.522L26.9629 16.6821L103.453 1.17382L177.208 85.5281L91.158 121.522Z" fill="white" stroke="#333333" stroke-width="2" stroke-linejoin="round"/>
<path fill-rule="evenodd" clip-rule="evenodd" d="M90.0606 92.4461L114.958 84.3647L103.621 69.0772L77.9746 75.472L90.0606 92.4461Z" fill="#4E7AB5"/>
<path fill-rule="evenodd" clip-rule="evenodd" d="M73.7039 69.4419L62.7705 54.0012L87.8099 47.7599L99.2156 63.1393L73.7039 69.4419Z" fill="#4E7AB5"/>
<path fill-rule="evenodd" clip-rule="evenodd" d="M119.789 75.887L147.226 66.3506L144.727 63.3364L117.621 72.8993L119.789 75.887Z" fill="#66798F"/>
<path fill-rule="evenodd" clip-rule="evenodd" d="M152.041 72.1577L149.502 69.0939L122.113 79.0711L124.296 82.0927L152.041 72.1577Z" fill="#66798F"/>
<path fill-rule="evenodd" clip-rule="evenodd" d="M157.127 78.2942L154.313 74.9L126.83 85.5848L129.458 89.2048L157.127 78.2942H157.127ZM104.537 14.8519L80.1143 21.2296L78.083 18.4312L102.187 12.0173L104.537 14.8519L104.537 14.8519Z" fill="#66798F"/>
<path fill-rule="evenodd" clip-rule="evenodd" d="M131.013 46.792L128.618 43.9025L102.457 52.009L104.529 54.8632L131.013 46.792Z" fill="#66798F"/>
<path fill-rule="evenodd" clip-rule="evenodd" d="M135.194 51.8366L133.167 49.3911L106.568 57.6734L108.575 60.4369L135.194 51.8366Z" fill="#66798F"/>
<path fill-rule="evenodd" clip-rule="evenodd" d="M139.861 57.4642L137.427 54.5289L110.583 63.2027L112.783 66.233L139.861 57.4642Z" fill="#66798F"/>
<path fill-rule="evenodd" clip-rule="evenodd" d="M124.658 39.1265L98.6728 46.7961L96.501 43.8042L122.495 36.5159L124.658 39.1265Z" fill="#66798F"/>
<path fill-rule="evenodd" clip-rule="evenodd" d="M120.442 34.3124L94.8258 41.4971L92.8828 38.8204L118.814 32.0766L120.442 34.3124Z" fill="#66798F"/>
<path fill-rule="evenodd" clip-rule="evenodd" d="M116.711 29.5379L114.55 26.9315L89.334 33.9305L91.0753 36.3281L116.711 29.5379Z" fill="#66798F"/>
<path fill-rule="evenodd" clip-rule="evenodd" d="M112.754 24.7648L110.657 22.2351L85.6719 28.8862L87.6079 31.5532L112.754 24.7648Z" fill="#66798F"/>
<path fill-rule="evenodd" clip-rule="evenodd" d="M108.58 19.729L106.596 17.3355L82.0215 23.856L83.8636 26.394L108.58 19.729Z" fill="#66798F"/>
<path fill-rule="evenodd" clip-rule="evenodd" d="M58.5834 31.1354C60.2708 30.7135 61.9553 30.2924 63.6349 29.8731C65.3122 29.4545 66.9858 29.0352 68.652 28.6177C69.5793 28.386 70.5166 28.2322 71.4494 28.1557C71.9194 28.1232 72.3266 28.1038 72.6819 28.0972C73.0293 28.0909 73.3179 28.0978 73.5546 28.1211C73.787 28.1411 74.0201 28.1623 74.2528 28.1823C74.6774 28.9698 75.1015 29.7552 75.5297 30.5421C74.8702 30.5887 73.1822 30.9996 72.0017 31.2286C70.1223 31.5929 67.5907 32.0047 65.9816 32.4631C66.0089 32.3273 65.9789 32.1669 65.8786 32.0113C65.6921 31.7046 65.3161 31.503 64.9782 31.503C64.9779 31.4956 64.9815 31.4899 64.9845 31.4806C64.9254 31.4956 64.8659 31.5105 64.8034 31.5236C63.0673 31.9605 61.3276 32.3956 59.5807 32.8328C59.1029 32.9544 58.4815 32.6701 58.2089 32.2039C57.9326 31.7357 58.1022 31.2558 58.5833 31.1354L58.5834 31.1354Z" fill="#5CA6F2"/>
<path fill-rule="evenodd" clip-rule="evenodd" d="M63.4541 36.9094C63.6072 36.8705 63.7607 36.8299 63.9174 36.7896C64.4091 36.6672 65.0451 36.9512 65.3352 37.4191C65.622 37.8886 65.4529 38.3738 64.9577 38.4981C64.8004 38.5384 64.6472 38.5772 64.4907 38.6157C63.9952 38.742 63.3559 38.4583 63.073 37.9883C62.7892 37.5186 62.9588 37.0312 63.4541 36.9094Z" fill="#FFED00"/>
<path fill-rule="evenodd" clip-rule="evenodd" d="M61.2624 43.0133C63.5805 42.4253 65.8989 41.8394 68.1993 41.2574C70.4967 40.6763 72.7941 40.0955 75.081 39.5158C75.4288 39.4062 75.5453 39.3187 75.6546 39.2187C75.927 38.9744 75.8936 38.7107 75.7303 38.4608C75.6119 38.2908 75.39 38.1801 75.0786 38.1272C75.0507 38.1251 75.0296 38.1218 75.0047 38.1191C75.2203 38.1526 76.306 37.7211 77.8526 37.0835C77.9045 37.0614 80.1383 36.067 79.8106 35.5318C80.3473 35.9081 80.8215 36.399 81.2398 37.0088C81.7176 37.7109 82.0495 38.37 82.229 38.986C82.2086 39.5158 80.4839 40.1916 78.2349 40.8378C75.9819 41.4853 73.2046 42.1106 71.1057 42.5322C71.0135 42.5149 70.9226 42.5161 70.8388 42.5376C70.8213 42.5415 70.8039 42.546 70.7898 42.5484C69.0606 42.9868 67.3284 43.4254 65.5959 43.8674C64.4871 44.1478 63.3823 44.4297 62.2768 44.7098C61.775 44.8361 61.1359 44.5602 60.8632 44.0917C60.5837 43.6273 60.7638 43.1396 61.2624 43.0133L61.2624 43.0133Z" fill="#93C02C"/>
<path fill-rule="evenodd" clip-rule="evenodd" d="M58.5812 43.6972C58.7415 43.6566 58.9055 43.616 59.0695 43.5751C59.5677 43.4473 60.1998 43.7256 60.4794 44.1918C60.7593 44.6582 60.5722 45.1438 60.0668 45.2722C59.9028 45.3131 59.7425 45.3555 59.5821 45.3961C59.0803 45.5245 58.4412 45.2459 58.1682 44.7798C57.8959 44.3094 58.083 43.8238 58.5812 43.6972H58.5812Z" fill="#93C02C"/>
<path d="M82.2496 38.9348C82.346 39.2782 82.3995 39.6097 82.4034 39.9277C82.4088 40.803 82.0172 41.574 81.2099 42.2343C80.4063 42.8949 79.1522 43.4393 77.4545 43.8693C76.0529 44.2241 74.652 44.5788 73.2504 44.9327C71.8456 45.2872 70.4335 45.6431 69.0286 45.9997C68.5094 46.1287 67.8418 45.8495 67.5475 45.3729C67.2535 44.8978 67.4334 44.4011 67.9493 44.2721C69.0581 43.9902 70.1629 43.7116 71.275 43.4315C71.3236 43.4187 71.3726 43.4061 71.4212 43.3954C71.6969 43.3246 71.7897 43.0624 71.6263 42.8086C71.5149 42.6351 71.3098 42.5066 71.1047 42.4675C73.2072 42.048 75.992 41.4262 78.2483 40.78C80.4973 40.1361 82.2289 39.4633 82.2496 38.9348L82.2496 38.9348Z" fill="#5CA6F2"/>
<path fill-rule="evenodd" clip-rule="evenodd" d="M66.1168 36.2372C66.2949 36.1939 66.4724 36.1488 66.6505 36.1043C67.0794 35.9971 67.5115 35.8878 67.9404 35.777C67.944 35.7788 67.9545 35.7746 67.9611 35.7722C67.968 35.7707 67.9752 35.7683 67.9857 35.7663C67.989 35.766 67.9998 35.7639 68.0067 35.7618C68.0133 35.7597 68.0205 35.7573 68.0274 35.7555C68.038 35.7549 68.0452 35.7513 68.0521 35.7489C68.0587 35.7489 68.0659 35.7468 68.0692 35.7448C68.0692 35.7448 68.0728 35.7445 68.0764 35.7427C68.083 35.7424 68.0902 35.7403 68.0971 35.7385C68.101 35.7367 68.1109 35.7322 68.1214 35.7298C68.125 35.7298 68.1356 35.7277 68.1425 35.7274C68.1461 35.7238 68.1566 35.7215 68.1632 35.7194C68.1704 35.7191 68.1773 35.717 68.1878 35.7149C68.1914 35.7146 68.1914 35.7146 68.1983 35.7125C68.2019 35.7122 68.2055 35.7122 68.2088 35.7104C68.2157 35.7083 68.2226 35.7062 68.2332 35.7038C68.2368 35.7038 68.2437 35.7 68.2506 35.6976C68.2575 35.6961 68.268 35.694 68.2749 35.6916C68.2818 35.6916 68.289 35.6892 68.2992 35.6868C68.3028 35.685 68.31 35.6829 68.3202 35.6808C68.3202 35.6808 68.3202 35.6808 68.3235 35.6808C68.3311 35.6802 68.3377 35.6785 68.3413 35.6743C68.3482 35.6722 68.3551 35.6701 68.362 35.6683C68.3692 35.668 68.3761 35.6659 68.3863 35.6635C68.3902 35.6638 68.3968 35.6611 68.404 35.6593C68.4109 35.6555 68.4179 35.6555 68.4281 35.6513C68.4353 35.651 68.4422 35.6489 68.4491 35.6468C68.4563 35.6465 68.4635 35.6441 68.4701 35.642C68.477 35.6402 68.4875 35.6381 68.4944 35.6358C68.5016 35.6358 68.5088 35.6337 68.5155 35.6313C68.5188 35.6295 68.5296 35.6274 68.5401 35.6232C68.5431 35.6229 68.5539 35.6211 68.5611 35.619C68.5644 35.6187 68.5713 35.6166 68.5815 35.6146C68.5887 35.6125 68.5956 35.6104 68.6025 35.608C68.6097 35.6062 68.6167 35.6059 68.6233 35.6035C68.6305 35.6035 68.6374 35.6014 68.6479 35.5975C68.6512 35.5954 68.6584 35.5933 68.6689 35.591C68.6722 35.591 68.6827 35.5886 68.6896 35.5865C68.6932 35.5865 68.7001 35.5847 68.7037 35.5826C68.7073 35.5808 68.7104 35.5805 68.7143 35.5805C68.7212 35.5802 68.7281 35.5781 68.735 35.576C68.7383 35.5739 68.7455 35.5721 68.756 35.5698C68.7596 35.5698 68.7665 35.5677 68.7767 35.5653C68.78 35.565 68.7908 35.5629 68.8013 35.5605C68.805 35.5584 68.8119 35.5566 68.8191 35.5542C68.8224 35.5545 68.8257 35.5542 68.829 35.5521C68.8326 35.5521 68.8359 35.55 68.8431 35.548C68.85 35.548 68.8536 35.5462 68.8644 35.5438C68.8713 35.5417 68.8749 35.5399 68.8851 35.5375C68.8884 35.5375 68.899 35.5351 68.9056 35.5312C68.9131 35.5327 68.9236 35.5288 68.9269 35.5268C68.9338 35.5265 68.9443 35.5244 68.9512 35.5223C68.9512 35.5223 68.9512 35.5223 68.9548 35.5202C68.9584 35.5199 68.9653 35.5181 68.9722 35.5157C68.9755 35.5157 68.9824 35.5139 68.9933 35.5118C68.9999 35.5115 69.0071 35.5094 69.0176 35.5053C69.0209 35.505 69.0314 35.5029 69.0383 35.5011C69.0419 35.499 69.0488 35.4969 69.0557 35.4945C69.0629 35.4945 69.0695 35.4924 69.0803 35.4897C69.0872 35.4897 69.0939 35.4858 69.1011 35.4841C69.1083 35.4835 69.1119 35.4835 69.1224 35.4814C69.1257 35.4811 69.1359 35.479 69.1431 35.4748C69.1464 35.4733 69.1572 35.4709 69.1638 35.4688C69.171 35.4685 69.1782 35.4661 69.1849 35.4643C69.1918 35.4623 69.1951 35.462 69.2023 35.4599C69.2023 35.4599 69.2023 35.4599 69.2059 35.4581C69.2128 35.4578 69.2197 35.4557 69.2305 35.4536C69.2371 35.4533 69.2404 35.4512 69.2512 35.4491C69.2512 35.447 69.2614 35.4449 69.2683 35.4431C69.2758 35.4428 69.2861 35.4387 69.293 35.4384C69.3002 35.4384 69.3068 35.4342 69.3101 35.4321C69.3137 35.4321 69.3212 35.4318 69.3281 35.4297C69.3314 35.4297 69.3314 35.4297 69.335 35.4279C69.9416 35.2831 70.5239 35.1502 71.118 35.0245C71.1216 35.0245 71.1285 35.0242 71.139 35.0221C71.1774 35.0134 71.2156 35.0062 71.2573 34.9955C71.2573 34.9955 71.2573 34.9955 71.2609 34.9955C71.2819 34.9907 71.3099 34.9847 71.3345 34.98C71.3483 34.9776 71.3624 34.9752 71.3801 34.9734C71.3867 34.971 71.3934 34.9686 71.4042 34.9647C71.4252 34.9621 71.4528 34.9576 71.4774 34.9531C71.481 34.9531 71.4913 34.9489 71.4985 34.9468C71.5159 34.9444 71.5336 34.9417 71.5471 34.9376C71.5681 34.9331 71.5961 34.9289 71.6207 34.922C71.645 34.9193 71.6663 34.9155 71.6907 34.9086C71.7045 34.9065 71.7222 34.9038 71.7396 34.8978C71.7498 34.8975 71.7531 34.8955 71.7639 34.8934C71.785 34.8907 71.8126 34.8862 71.8372 34.8814C71.8408 34.8814 71.851 34.8793 71.8579 34.8749C71.8721 34.8728 71.8898 34.8707 71.9069 34.8662C71.9315 34.8614 71.9561 34.8575 71.9805 34.8528C72.0018 34.8483 72.0258 34.8435 72.0504 34.8393C72.0679 34.8348 72.0856 34.8321 72.1027 34.828C72.1096 34.8259 72.1165 34.8277 72.1237 34.8238C72.1483 34.8208 72.1727 34.8163 72.197 34.8118C72.2042 34.81 72.2144 34.8077 72.2246 34.8053C72.2634 34.7987 72.3021 34.7918 72.3438 34.7829C72.3438 34.7829 72.3438 34.7829 72.3475 34.7829C72.3685 34.7805 72.3925 34.7757 72.4135 34.7697C72.4312 34.767 72.449 34.7647 72.4697 34.7599C72.4733 34.7602 72.4799 34.7596 72.4904 34.7554C72.5117 34.7548 72.536 34.7485 72.5607 34.7441C72.5709 34.7435 72.5817 34.7396 72.5955 34.7372C72.606 34.7351 72.6198 34.7324 72.6336 34.7303C72.6583 34.7258 72.6826 34.7214 72.7072 34.7166C72.7072 34.7166 72.7108 34.7169 72.7144 34.7148C72.7385 34.7103 72.7598 34.7094 72.7805 34.7049C72.7982 34.7008 72.8189 34.6981 72.8403 34.6936C72.8433 34.6939 72.8508 34.6933 72.8541 34.6897C72.8784 34.687 72.903 34.6822 72.9274 34.676C72.9415 34.6754 72.9517 34.6733 72.9625 34.6712C72.9763 34.6688 72.9901 34.6661 73.0081 34.664C73.0289 34.6613 73.0532 34.6572 73.0775 34.6524C73.0811 34.6521 73.0847 34.6518 73.088 34.6503C73.1093 34.6476 73.1304 34.6431 73.1547 34.6383C73.1721 34.636 73.1931 34.6321 73.2103 34.6276C73.2178 34.6273 73.2244 34.627 73.228 34.6249C73.2526 34.6222 73.2808 34.6177 73.3018 34.615C73.3157 34.6127 73.3262 34.6085 73.3367 34.6064C73.3502 34.6058 73.3679 34.6037 73.382 34.5995C73.4027 34.5968 73.4274 34.5924 73.455 34.5879C73.4553 34.5858 73.4583 34.5858 73.4658 34.5855C73.4832 34.5828 73.5079 34.5801 73.5322 34.5741C73.5499 34.5732 73.5706 34.5711 73.5916 34.5646C73.5953 34.5643 73.6019 34.564 73.6052 34.5622C73.634 34.5595 73.6583 34.555 73.6826 34.5502C73.6971 34.5496 73.707 34.5473 73.7211 34.5434C73.7316 34.5413 73.7457 34.5392 73.7595 34.5365C73.7842 34.5338 73.8118 34.529 73.84 34.5246C73.84 34.5246 73.8436 34.5246 73.8502 34.5222C73.8679 34.5198 73.889 34.5174 73.9133 34.5147C73.9343 34.5102 73.9589 34.5078 73.98 34.5031C73.9833 34.5031 73.9833 34.5031 73.9905 34.4989C74.0151 34.4965 74.043 34.4938 74.067 34.4872C74.0812 34.4866 74.0953 34.4842 74.1091 34.4822C74.1232 34.4816 74.1337 34.4774 74.1442 34.4753C74.1722 34.4747 74.1968 34.4699 74.2244 34.4651C74.2283 34.4651 74.2352 34.4651 74.2388 34.463C74.2598 34.4586 74.2773 34.4559 74.3016 34.452C74.3223 34.4472 74.3469 34.4442 74.3749 34.4415C74.3788 34.4415 74.3788 34.4415 74.3785 34.4395C74.4064 34.435 74.4307 34.432 74.4629 34.4275C74.4764 34.4251 74.4902 34.4224 74.5013 34.4221C74.5151 34.4218 74.5256 34.42 74.5394 34.4159C74.5674 34.4129 74.592 34.4102 74.6199 34.4036C74.6271 34.4036 74.6301 34.4033 74.6373 34.4012C74.6584 34.3985 74.6791 34.3941 74.7004 34.3914C74.7217 34.389 74.7461 34.3845 74.7704 34.3818C74.774 34.3815 74.7773 34.3815 74.7806 34.3794C74.8091 34.3767 74.8298 34.3726 74.8614 34.3675C74.8755 34.3672 74.8929 34.3648 74.9103 34.36C74.9208 34.3618 74.9313 34.3597 74.9416 34.3555C74.9698 34.3526 74.9941 34.3499 75.0259 34.3433C75.0292 34.3433 75.0395 34.3427 75.0431 34.3412C75.0644 34.3406 75.0851 34.3361 75.1061 34.3334C75.1311 34.3308 75.1587 34.326 75.183 34.3215H75.1866C75.2148 34.3188 75.2425 34.3155 75.2746 34.3096C75.2917 34.3087 75.3091 34.306 75.3233 34.3036C75.3305 34.3036 75.344 34.3012 75.3545 34.297C75.3827 34.2943 75.4109 34.2916 75.4353 34.2851C75.4455 34.2848 75.4563 34.2842 75.4632 34.2821C75.4806 34.2818 75.5016 34.2776 75.5227 34.2746C75.5473 34.2719 75.5755 34.2674 75.6032 34.2648C75.6032 34.2648 75.6031 34.2648 75.6065 34.2645C75.635 34.2597 75.6626 34.257 75.6908 34.2522C75.708 34.2498 75.7257 34.2471 75.7467 34.245C75.7572 34.2448 75.7644 34.2445 75.7782 34.24C75.8062 34.2376 75.8344 34.2343 75.862 34.2277C75.8692 34.228 75.8797 34.2277 75.8902 34.225C75.9077 34.2244 75.9287 34.2203 75.95 34.2176C75.9743 34.2146 76.0062 34.2122 76.0338 34.2071C76.1149 34.2155 76.2032 34.2256 76.281 34.2379C76.8987 34.3131 77.5047 34.4457 78.1096 34.6458C78.6997 34.8384 79.3406 35.1591 79.849 35.5306C80.1769 36.0658 77.9429 37.0602 77.8912 37.0823C76.3377 37.7202 75.2485 38.1496 75.0325 38.1162C74.7358 38.0729 74.3692 38.0519 73.9478 38.0606C73.4802 38.0657 72.9736 38.0627 72.4108 38.0594C71.8552 38.0522 71.2702 38.0131 70.6624 37.9316C70.0693 37.8611 69.4768 37.7187 68.8932 37.5073C68.3181 37.6506 67.7457 37.7957 67.1709 37.9394C66.6793 38.0636 66.0367 37.7838 65.746 37.314C65.4592 36.8464 65.6255 36.3614 66.1168 36.2372V36.2372Z" fill="#FFED00"/>
<path fill-rule="evenodd" clip-rule="evenodd" d="M51.8733 36.3056C53.104 35.995 54.3316 35.6862 55.5584 35.3762C56.7819 35.068 58.0057 34.7581 59.2291 34.4478C61.1466 33.9643 63.0677 33.4806 64.9814 32.9992C65.2045 32.943 65.4276 32.8875 65.6543 32.8295C65.867 32.7779 65.9922 32.6366 66.0285 32.4578C67.6334 31.9997 70.1512 31.5896 72.027 31.2241C73.2043 30.9969 74.8884 30.5863 75.5374 30.54C75.8455 31.1109 76.1533 31.678 76.4645 32.2451C75.5398 32.2466 74.7358 32.2816 74.0415 32.3425C73.3478 32.4046 72.767 32.4966 72.2964 32.6145C71.8991 32.7131 71.6033 32.8086 71.3994 32.9045C71.1949 32.9965 71.0717 33.1007 71.0264 33.2094C70.9771 33.3169 70.9991 33.4346 71.0876 33.5648C71.2102 33.7496 71.436 33.875 71.7618 33.9378C72.0874 34.0085 72.4901 34.0482 72.9613 34.0584C73.4403 34.07 73.9571 34.0799 74.5277 34.0993C75.0203 34.1083 75.5278 34.1468 76.047 34.205C74.4998 34.4114 73.1706 34.6243 71.8889 34.8739C70.6035 35.1245 69.3617 35.4157 67.9815 35.7755C67.5704 35.8803 67.1553 35.9833 66.7436 36.0879C67.1238 35.9935 67.2481 35.619 67.0247 35.2565C66.8013 34.8937 66.3085 34.6736 65.9322 34.7697C65.8553 34.787 65.7823 34.8065 65.7087 34.8256C63.5891 35.3589 61.4626 35.8955 59.3361 36.4331C57.1852 36.9763 55.0275 37.5237 52.8661 38.0713C52.3571 38.1977 51.7211 37.9065 51.4547 37.4191C51.1847 36.9327 51.3715 36.4337 51.8733 36.3056L51.8733 36.3056Z" fill="#E61977"/>
</svg>
