<svg width="130" height="129" viewBox="0 0 130 129" fill="none" xmlns="http://www.w3.org/2000/svg">
<path fill-rule="evenodd" clip-rule="evenodd" d="M52.6695 115.917L129 86.5692L70.9222 1L1 15.7005L52.6695 115.917Z" stroke="#333333" stroke-width="2" stroke-linejoin="round"/>
<path d="M1 20.8453L52.6697 121.062L129 91.7149" stroke="#333333" stroke-linejoin="round"/>
<path d="M1 24.4414L52.6697 124.658L129 95.3109" stroke="#333333" stroke-linejoin="round"/>
<path d="M1 28.0375L52.6697 128.254L129 98.9073" stroke="#333333" stroke-linejoin="round"/>
<path fill-rule="evenodd" clip-rule="evenodd" d="M35.7888 15.038C37.5312 14.6587 39.2706 14.2806 41.0053 13.9041C42.7371 13.5282 44.4651 13.1514 46.1859 12.776C47.1435 12.568 48.1084 12.4409 49.0661 12.3948C49.5485 12.3776 49.9661 12.3717 50.3297 12.3776C50.6861 12.3833 50.9811 12.4007 51.2225 12.4333C51.46 12.4623 51.6977 12.4929 51.9352 12.5219C52.3422 13.3555 52.7489 14.1872 53.1593 15.0206C52.4825 15.0456 50.7401 15.4134 49.5232 15.6096C47.5864 15.9217 44.9799 16.2605 43.3165 16.68C43.349 16.5397 43.3237 16.3722 43.2266 16.2065C43.0467 15.8812 42.6687 15.658 42.3229 15.6465C42.3229 15.6386 42.3265 15.633 42.3301 15.6231C42.2689 15.6366 42.2076 15.6501 42.1431 15.6616C40.3502 16.0544 38.5538 16.4453 36.7501 16.838C36.2567 16.9477 35.6304 16.63 35.3676 16.1354C35.1011 15.6386 35.2918 15.1457 35.7888 15.038L35.7888 15.038Z" fill="#5CA6F2"/>
<path fill-rule="evenodd" clip-rule="evenodd" d="M40.5707 21.2139C40.7291 21.1793 40.8875 21.1425 41.0495 21.1059C41.5573 20.9963 42.1981 21.314 42.4788 21.8105C42.756 22.3093 42.5653 22.8078 42.0539 22.9194C41.8919 22.956 41.7335 22.9908 41.5718 23.0254C41.0604 23.139 40.4159 22.8213 40.1425 22.3228C39.8688 21.824 40.0595 21.3235 40.5707 21.2139Z" fill="#FFED00"/>
<path fill-rule="evenodd" clip-rule="evenodd" d="M38.1103 27.4838C40.5044 26.9544 42.8986 26.4272 45.2744 25.9034C47.6471 25.3804 50.0196 24.858 52.3812 24.3362C52.7411 24.2344 52.8636 24.1475 52.9789 24.0474C53.2667 23.8031 53.2417 23.5278 53.0833 23.2621C52.968 23.0811 52.7448 22.9579 52.428 22.8924C52.3993 22.8888 52.3776 22.8848 52.3525 22.8809C52.5719 22.9233 53.6988 22.5131 55.3046 21.905C55.3586 21.8839 57.6806 20.9287 57.3638 20.3611C57.9003 20.771 58.3683 21.2985 58.775 21.9471C59.2394 22.6942 59.5562 23.3912 59.7182 24.0379C59.6787 24.5884 57.8889 25.23 55.5638 25.8225C53.2342 26.4157 50.3687 26.9679 48.205 27.3318C48.1115 27.3107 48.018 27.3087 47.9314 27.3281C47.9136 27.3318 47.8955 27.3357 47.881 27.3377C46.0954 27.7321 44.3062 28.1269 42.5169 28.5253C41.3719 28.7775 40.2308 29.0317 39.0894 29.2839C38.571 29.3975 37.9265 29.0876 37.6637 28.5908C37.394 28.0979 37.5955 27.5975 38.1103 27.4839L38.1103 27.4838Z" fill="#93C02C"/>
<path fill-rule="evenodd" clip-rule="evenodd" d="M35.343 28.0999C35.5087 28.0634 35.6779 28.0268 35.8472 27.9903C36.3619 27.8747 36.9992 28.1865 37.2692 28.6814C37.5392 29.1762 37.3304 29.6747 36.8085 29.7903C36.6392 29.8268 36.4735 29.8654 36.3079 29.9019C35.7895 30.0175 35.1451 29.7054 34.8823 29.2108C34.6195 28.712 34.8283 28.2135 35.343 28.0999L35.343 28.0999Z" fill="#93C02C"/>
<path d="M59.744 23.9858C59.8303 24.346 59.8734 24.6924 59.8662 25.0236C59.8411 25.934 59.4127 26.7216 58.563 27.3798C57.717 28.0383 56.4139 28.5601 54.6605 28.947C53.2132 29.2664 51.7664 29.5858 50.3188 29.9038C48.8683 30.2227 47.4098 30.5429 45.9589 30.8643C45.4227 30.9798 44.7493 30.6661 44.465 30.1597C44.1805 29.6553 44.3821 29.1452 44.9149 29.0297C46.0599 28.7755 47.201 28.5253 48.3494 28.2731C48.3998 28.2615 48.4502 28.25 48.5006 28.2404C48.7851 28.1769 48.8895 27.9073 48.7311 27.6379C48.6231 27.4532 48.4179 27.3126 48.2091 27.2645C50.3764 26.9024 53.2494 26.3547 55.582 25.7628C57.9074 25.1729 59.7042 24.5347 59.744 23.9858L59.744 23.9858Z" fill="#5CA6F2"/>
<path fill-rule="evenodd" clip-rule="evenodd" d="M43.3221 20.6092C43.5058 20.5707 43.6893 20.5302 43.873 20.4897C44.3159 20.3935 44.7622 20.2954 45.2051 20.1953C45.2087 20.1973 45.2196 20.1933 45.2265 20.1914C45.2338 20.1894 45.241 20.1874 45.2519 20.1857C45.2555 20.1857 45.2663 20.1838 45.2736 20.1818C45.2805 20.1798 45.2878 20.1779 45.295 20.1759C45.3059 20.1759 45.3131 20.1723 45.3204 20.1703C45.3273 20.1703 45.3346 20.1683 45.3382 20.1663C45.3382 20.1663 45.3418 20.1663 45.3454 20.1644C45.3526 20.1644 45.3599 20.1624 45.3671 20.1607C45.3707 20.1588 45.3813 20.1548 45.3922 20.1529C45.3958 20.1529 45.4067 20.1509 45.4139 20.1509C45.4175 20.1472 45.4284 20.1453 45.4353 20.1433C45.4426 20.1433 45.4498 20.1413 45.4607 20.1394C45.4643 20.1394 45.4643 20.1394 45.4715 20.1374C45.4751 20.1374 45.4788 20.1374 45.4824 20.1357C45.4893 20.1337 45.4966 20.1318 45.5074 20.1298C45.511 20.1298 45.5183 20.1259 45.5255 20.1239C45.5328 20.1222 45.5433 20.1202 45.5506 20.1183C45.5578 20.1183 45.5651 20.1163 45.5759 20.1143C45.5795 20.1124 45.5868 20.1107 45.5974 20.1087C45.5974 20.1087 45.5974 20.1087 45.601 20.1087C45.6082 20.1087 45.6154 20.1067 45.6191 20.1028C45.6263 20.1008 45.6335 20.0989 45.6408 20.0972C45.6477 20.0972 45.655 20.0952 45.6658 20.0932C45.6695 20.0932 45.6767 20.0913 45.6839 20.0893C45.6912 20.0857 45.6981 20.0857 45.709 20.0817C45.7162 20.0817 45.7235 20.0797 45.7307 20.0778C45.7379 20.0778 45.7452 20.0758 45.7521 20.0738C45.7594 20.0722 45.7702 20.0702 45.7775 20.0682C45.7847 20.0682 45.7919 20.0663 45.7992 20.0643C45.8025 20.0623 45.8134 20.0606 45.8242 20.0567C45.8279 20.0567 45.8387 20.0547 45.846 20.0528C45.8496 20.0528 45.8565 20.0508 45.8674 20.0488C45.8746 20.0471 45.8819 20.0452 45.8891 20.0432C45.8963 20.0412 45.9036 20.0412 45.9105 20.0393C45.9178 20.0393 45.925 20.0373 45.9359 20.0336C45.9395 20.0317 45.9467 20.0297 45.9576 20.0277C45.9609 20.0277 45.9718 20.0258 45.979 20.0238C45.9826 20.0238 45.9899 20.0221 45.9935 20.0201C45.9971 20.0182 46.0007 20.0182 46.0044 20.0182C46.0116 20.0182 46.0186 20.0162 46.0258 20.0142C46.0294 20.0123 46.0367 20.0106 46.0475 20.0086C46.0511 20.0086 46.0584 20.0066 46.0689 20.0047C46.0726 20.0047 46.0834 20.0027 46.0943 20.0007C46.0979 19.9988 46.1051 19.9971 46.1124 19.9951C46.116 19.9951 46.1196 19.9951 46.123 19.9932C46.1266 19.9932 46.1302 19.9912 46.1374 19.9892C46.1447 19.9892 46.1483 19.9872 46.1591 19.9853C46.1664 19.9836 46.17 19.9816 46.1806 19.9797C46.1842 19.9797 46.1951 19.9777 46.2023 19.9737C46.2095 19.9757 46.2204 19.9721 46.224 19.9701C46.231 19.9701 46.2418 19.9681 46.2491 19.9662C46.2491 19.9662 46.2491 19.9662 46.2527 19.9642C46.2563 19.9642 46.2635 19.9622 46.2708 19.9603C46.2744 19.9603 46.2814 19.9586 46.2922 19.9566C46.2995 19.9566 46.3067 19.9546 46.3175 19.9507C46.3212 19.9507 46.3317 19.9487 46.339 19.947C46.3426 19.9451 46.3498 19.9431 46.3571 19.9411C46.3643 19.9411 46.3716 19.9392 46.3824 19.9372C46.3894 19.9372 46.3966 19.9335 46.4039 19.9316C46.4111 19.9316 46.4147 19.9316 46.4256 19.9296C46.4292 19.9296 46.4398 19.9276 46.447 19.9237C46.4506 19.922 46.4615 19.92 46.4687 19.9181C46.476 19.9181 46.4832 19.9161 46.4902 19.9141C46.4974 19.9122 46.501 19.9122 46.5082 19.9102C46.5082 19.9102 46.5083 19.9102 46.5119 19.9085C46.5191 19.9085 46.5263 19.9065 46.5372 19.9046C46.5442 19.9046 46.5478 19.9026 46.5586 19.9006C46.5586 19.8987 46.5695 19.897 46.5767 19.895C46.584 19.895 46.5948 19.8911 46.6018 19.8911C46.609 19.8911 46.6163 19.8872 46.6199 19.8852C46.6235 19.8852 46.6307 19.8852 46.638 19.8835C46.6416 19.8835 46.6416 19.8835 46.6452 19.8815C47.2716 19.7525 47.8726 19.6349 48.4848 19.5253C48.4884 19.5253 48.4957 19.5253 48.5063 19.5233C48.5461 19.5157 48.5856 19.5098 48.6288 19.5003C48.6288 19.5003 48.6288 19.5003 48.6324 19.5003C48.6541 19.4963 48.6828 19.4907 48.7081 19.4868C48.7223 19.4848 48.7368 19.4828 48.7549 19.4811C48.7621 19.4792 48.7691 19.4772 48.7799 19.4733C48.8016 19.4713 48.8303 19.4677 48.8556 19.4637C48.8593 19.4637 48.8698 19.4598 48.8771 19.4578C48.8952 19.4561 48.9133 19.4542 48.9275 19.4502C48.9492 19.4463 48.9779 19.4426 49.0032 19.4367C49.0282 19.4348 49.05 19.4311 49.0753 19.4252C49.0895 19.4232 49.1076 19.4213 49.1257 19.4156C49.1363 19.4156 49.1399 19.4137 49.1507 19.4117C49.1725 19.4097 49.2011 19.4061 49.2265 19.4021C49.2301 19.4021 49.2407 19.4002 49.2479 19.3962C49.2624 19.3943 49.2805 19.3926 49.2983 19.3886C49.3236 19.3847 49.3487 19.3811 49.374 19.3771C49.3957 19.3732 49.4208 19.3692 49.4461 19.3656C49.4639 19.3617 49.482 19.3597 49.5001 19.356C49.5071 19.3541 49.5143 19.356 49.5216 19.3521C49.5469 19.3501 49.5719 19.3462 49.5973 19.3425C49.6045 19.3406 49.6151 19.3386 49.626 19.3366C49.6655 19.331 49.7053 19.3251 49.7484 19.3175C49.7484 19.3175 49.7484 19.3175 49.7521 19.3175C49.7735 19.3155 49.7988 19.3116 49.8203 19.306C49.8384 19.304 49.8565 19.302 49.8779 19.2981C49.8815 19.2981 49.8888 19.2981 49.8996 19.2942C49.9213 19.2942 49.9464 19.2885 49.9717 19.2846C49.9823 19.2846 49.9931 19.281 50.0076 19.279C50.0185 19.277 50.0327 19.2751 50.0472 19.2731C50.0725 19.2691 50.0975 19.2655 50.1229 19.2616C50.1229 19.2616 50.1265 19.2616 50.1301 19.2596C50.1552 19.2559 50.1769 19.2559 50.1983 19.252C50.2164 19.2481 50.2381 19.2461 50.2596 19.2424C50.2632 19.2424 50.2704 19.2424 50.274 19.2385C50.2991 19.2365 50.3244 19.2326 50.3495 19.227C50.364 19.227 50.3748 19.225 50.3857 19.223C50.4002 19.2211 50.4144 19.2191 50.4325 19.2174C50.4542 19.2154 50.4792 19.2115 50.5046 19.2076C50.5079 19.2076 50.5115 19.2076 50.5151 19.2059C50.5368 19.2039 50.5586 19.2 50.5836 19.196C50.6017 19.1941 50.6232 19.1904 50.6412 19.1865C50.6485 19.1865 50.6557 19.1865 50.6593 19.1845C50.6844 19.1825 50.7133 19.1789 50.7348 19.1769C50.7493 19.175 50.7601 19.171 50.771 19.1691C50.7852 19.1691 50.8033 19.1674 50.8177 19.1634C50.8392 19.1615 50.8645 19.1575 50.8932 19.1539C50.8932 19.1519 50.8968 19.1519 50.904 19.1519C50.9221 19.1499 50.9472 19.148 50.9725 19.1423C50.9903 19.1423 51.0121 19.1404 51.0338 19.1345C51.0371 19.1345 51.0444 19.1345 51.048 19.1325C51.0769 19.1305 51.102 19.1269 51.1273 19.1229C51.1418 19.1229 51.1524 19.121 51.1669 19.1173C51.1777 19.1153 51.1922 19.1134 51.2064 19.1114C51.2317 19.1094 51.2604 19.1055 51.2893 19.1019C51.2893 19.1019 51.293 19.1019 51.3002 19.0999C51.318 19.0979 51.3397 19.0959 51.3648 19.094C51.3865 19.0903 51.4116 19.0884 51.4333 19.0844C51.4369 19.0844 51.4369 19.0844 51.4441 19.0805C51.4692 19.0788 51.4981 19.0768 51.5232 19.0709C51.5377 19.0709 51.5521 19.069 51.5663 19.0673C51.5808 19.0673 51.5917 19.0633 51.6025 19.0614C51.6312 19.0614 51.6565 19.0574 51.6852 19.0538C51.6888 19.0538 51.6961 19.0538 51.6997 19.0518C51.7214 19.0479 51.7392 19.0459 51.7646 19.0422C51.786 19.0383 51.8113 19.0363 51.84 19.0344C51.8436 19.0344 51.8436 19.0344 51.8436 19.0324C51.8726 19.0288 51.8976 19.0268 51.9302 19.0228C51.9444 19.0209 51.9589 19.0189 51.9697 19.0189C51.9842 19.0189 51.9948 19.0172 52.0093 19.0133C52.0382 19.0113 52.0633 19.0093 52.0922 19.0037C52.0992 19.0037 52.1028 19.0037 52.11 19.0018C52.1318 18.9998 52.1532 18.9959 52.1749 18.9939C52.1966 18.9919 52.2217 18.9883 52.247 18.9863C52.2506 18.9863 52.254 18.9863 52.2576 18.9843C52.2865 18.9824 52.308 18.9787 52.3405 18.9748C52.355 18.9748 52.3728 18.9728 52.3909 18.9689C52.4018 18.9708 52.4124 18.9689 52.4232 18.9652C52.4522 18.9632 52.4772 18.9613 52.5098 18.9554C52.5134 18.9554 52.524 18.9554 52.5276 18.9537C52.5493 18.9537 52.5708 18.9497 52.5925 18.9478C52.6178 18.9458 52.6465 18.9419 52.6718 18.9382H52.6752C52.7041 18.9362 52.7328 18.9343 52.7654 18.9287C52.7832 18.9287 52.8013 18.9267 52.8158 18.9247C52.823 18.9247 52.8372 18.9228 52.8481 18.9188C52.877 18.9168 52.9057 18.9152 52.931 18.9093C52.9416 18.9093 52.9524 18.9093 52.9597 18.9073C52.9778 18.9073 52.9992 18.9036 53.0209 18.9017C53.046 18.8997 53.0749 18.8958 53.1036 18.8938C53.1036 18.8938 53.1036 18.8938 53.1072 18.8938C53.1362 18.8901 53.1649 18.8882 53.1938 18.8842C53.2116 18.8823 53.2297 18.8803 53.2514 18.8786C53.262 18.8786 53.2693 18.8786 53.2837 18.8747C53.3124 18.8727 53.3414 18.8707 53.37 18.8651C53.3773 18.8651 53.3881 18.8651 53.399 18.8631C53.4168 18.8631 53.4385 18.8592 53.4602 18.8572C53.4853 18.8553 53.5179 18.8536 53.5465 18.8496C53.6292 18.8612 53.7194 18.8747 53.7985 18.8901C54.4285 18.9902 55.0443 19.1499 55.6562 19.3791C56.2539 19.6004 56.8984 19.9566 57.4059 20.3609C57.7227 20.9286 55.4006 21.8837 55.3466 21.9048C53.7336 22.513 52.6034 22.9212 52.3837 22.8787C52.0814 22.8231 51.7069 22.7885 51.2749 22.7826C50.796 22.7711 50.2777 22.75 49.7017 22.7266C49.1329 22.6999 48.5352 22.6384 47.9161 22.5324C47.3111 22.4379 46.7098 22.2686 46.1196 22.0279C45.5255 22.157 44.9351 22.2877 44.341 22.4168C43.8335 22.5284 43.1854 22.2146 42.9045 21.7161C42.6275 21.2193 42.8146 20.7208 43.3221 20.6092L43.3221 20.6092Z" fill="#FFED00"/>
<path fill-rule="evenodd" clip-rule="evenodd" d="M28.7365 20.176C30.0073 19.897 31.2751 19.619 32.5418 19.3406C33.8057 19.0628 35.0693 18.7842 36.3329 18.505C38.3129 18.07 40.2967 17.6348 42.273 17.2018C42.5035 17.1517 42.734 17.1017 42.9678 17.0497C43.1875 17.0036 43.3206 16.861 43.364 16.6763C45.0235 16.2565 47.6156 15.9197 49.549 15.6059C50.7622 15.4113 52.5011 15.0438 53.167 15.0185C53.4624 15.623 53.7575 16.2239 54.0562 16.8245C53.1094 16.7935 52.285 16.8014 51.5721 16.8399C50.8594 16.8801 50.2617 16.9552 49.7756 17.0612C49.3653 17.1498 49.0593 17.2383 48.8469 17.3308C48.6345 17.4194 48.5048 17.5232 48.4544 17.6348C48.4004 17.7447 48.4185 17.8679 48.5048 18.0065C48.6236 18.2027 48.8505 18.3414 49.1818 18.4184C49.5128 18.503 49.9234 18.559 50.4056 18.586C50.8953 18.6149 51.4245 18.6436 52.0078 18.6841C52.5119 18.7111 53.0303 18.7687 53.5595 18.8477C51.9682 19.0074 50.5999 19.182 49.279 19.3963C47.9541 19.6111 46.6724 19.87 45.2468 20.1954C44.8219 20.2895 44.3935 20.3821 43.9687 20.4762C44.3612 20.3916 44.5015 20.0067 44.2855 19.6215C44.0694 19.2366 43.5728 18.9903 43.1839 19.0769C43.1048 19.0923 43.0291 19.1095 42.9534 19.1269C40.7647 19.6063 38.5684 20.0894 36.3725 20.5727C34.1512 21.0616 31.9227 21.5545 29.6905 22.0474C29.1649 22.1607 28.5241 21.8354 28.2685 21.3195C28.0093 20.8035 28.2181 20.2915 28.7365 20.176L28.7365 20.176Z" fill="#E61977"/>
<path fill-rule="evenodd" clip-rule="evenodd" d="M112.656 78.4257L57.8617 98.0735L56.2197 94.8905L110.965 75.9334L112.656 78.4257Z" fill="#66798F"/>
<path fill-rule="evenodd" clip-rule="evenodd" d="M109.065 73.1329L54.5804 91.7073L52.9395 88.5242L106.987 70.0718L109.065 73.1329Z" fill="#66798F"/>
<path fill-rule="evenodd" clip-rule="evenodd" d="M105.329 67.6285L103.277 64.606L49.6572 82.1575L51.298 85.3406L105.329 67.6285Z" fill="#66798F"/>
<path fill-rule="evenodd" clip-rule="evenodd" d="M92.0615 48.0806L89.9905 45.0298L38.001 59.5486L39.6136 62.6765L92.0615 48.0806Z" fill="#66798F"/>
<path fill-rule="evenodd" clip-rule="evenodd" d="M41.252 65.8563L93.7026 50.4997L95.7761 53.5556L42.8561 68.9675L41.252 65.8563Z" fill="#66798F"/>
<path fill-rule="evenodd" clip-rule="evenodd" d="M46.1092 75.2778L99.3743 58.8568L97.6823 56.3627L44.4893 72.1349L46.1092 75.2778Z" fill="#66798F"/>
<path fill-rule="evenodd" clip-rule="evenodd" d="M87.5771 41.5937L85.7815 38.8442L34.2734 52.3221L35.8049 55.2938L87.5771 41.5937Z" fill="#66798F"/>
<path fill-rule="evenodd" clip-rule="evenodd" d="M84.216 36.5251L82.2333 33.6032L31.166 46.2979L32.7173 49.3057L84.216 36.5251Z" fill="#66798F"/>
<path fill-rule="evenodd" clip-rule="evenodd" d="M80.659 31.2808L78.6838 28.3721L28.0508 40.252L29.6075 43.2709L80.659 31.2808Z" fill="#66798F"/>
</svg>
