<svg width="120" height="118" viewBox="0 0 120 118" fill="none" xmlns="http://www.w3.org/2000/svg">
<path d="M1.32708 23.0806L32.917 114.436L97.8337 92.3552L66.2438 0.999989L1.32708 23.0806Z" fill="#4E7AB5" stroke="#333333" stroke-width="2" stroke-linejoin="round"/>
<path d="M50.0371 20.1649L50.0371 116.743L118.665 116.743L118.665 20.1649L50.0371 20.1649Z" fill="white" stroke="#333333" stroke-width="2" stroke-linejoin="round"/>
<path fill-rule="evenodd" clip-rule="evenodd" d="M66.5066 34.2214L77.1168 34.2186C78.105 34.2184 79.0476 34.302 79.9499 34.4636C80.3987 34.553 80.7869 34.6368 81.1147 34.7206C81.4374 34.8042 81.6996 34.888 81.9011 34.9719L82.5061 35.2176L82.258 38C81.6354 37.879 79.8609 37.8681 78.6579 37.7989C76.741 37.6889 74.2185 37.4594 72.5021 37.5173C72.6022 37.382 72.6626 37.2091 72.6626 37.0213V37.021C72.6626 36.6557 72.4339 36.3471 72.1275 36.2618L72.1469 36.2383H71.9562L66.5071 36.2398C66.0065 36.2398 65.5967 35.786 65.5967 35.2311V35.2306C65.5964 34.6757 66.006 34.2216 66.5066 34.2214V34.2214Z" fill="#5CA6F2"/>
<path fill-rule="evenodd" clip-rule="evenodd" d="M67.7898 41.466L68.2661 41.4657C68.7719 41.4655 69.186 41.9243 69.186 42.4849C69.186 43.0458 68.7725 43.5049 68.2666 43.5049L67.7901 43.5051C67.2844 43.5051 66.8704 43.0465 66.8701 42.4857C66.8701 41.925 67.2839 41.466 67.7898 41.466Z" fill="#FFED00"/>
<path fill-rule="evenodd" clip-rule="evenodd" d="M62.6316 47.2148L76.6482 47.2111C77.0168 47.1864 77.1662 47.1273 77.3222 47.0524C77.7013 46.8708 77.8253 46.5866 77.8251 46.285C77.82 46.0781 77.689 45.9047 77.4419 45.7707C77.421 45.7595 77.4032 45.75 77.381 45.7388C77.5506 45.8306 78.7604 45.6687 80.505 45.4105C80.5611 45.4022 83.1306 44.9529 83.1612 44.3094C83.4093 44.8399 83.5371 45.4753 83.5421 46.2163C83.5456 47.0711 83.4415 47.8438 83.2317 48.5307C82.5691 49.6243 75.601 49.5225 71.4743 49.2962C71.4039 49.2548 71.3239 49.2308 71.2391 49.2308H71.1903L65.9593 49.2323L62.6321 49.2333C62.1315 49.2333 61.7217 48.7795 61.7217 48.2243V48.2241C61.7217 47.6689 62.131 47.2149 62.6316 47.2149L62.6316 47.2148Z" fill="#93C02C"/>
<path fill-rule="evenodd" clip-rule="evenodd" d="M59.9375 47.2156L60.4223 47.2153C60.9229 47.2153 61.3327 47.6694 61.3327 48.2243C61.3329 48.7794 60.9234 49.2338 60.4225 49.2338L59.938 49.234C59.4374 49.234 59.0276 48.7799 59.0273 48.225C59.0273 47.6699 59.4369 47.2156 59.9375 47.2156Z" fill="#93C02C"/>
<path d="M83.2326 48.5307C83.1144 48.9172 82.9627 49.277 82.7778 49.6091C82.2638 50.5257 81.4674 51.2246 80.3784 51.7056C79.2946 52.1809 77.8982 52.4217 76.1893 52.4222L67.7511 52.4244C67.2349 52.4244 66.8128 51.9563 66.8125 51.3845V51.3842C66.8125 50.8121 67.2346 50.3438 67.7506 50.3436L71.0896 50.3428H71.2403C71.5163 50.3426 71.7419 50.0926 71.7417 49.7867C71.7417 49.5749 71.6335 49.39 71.4755 49.2962C75.6022 49.5225 82.5702 49.6243 83.2326 48.5307H83.2326Z" fill="#5CA6F2"/>
<path fill-rule="evenodd" clip-rule="evenodd" d="M70.5298 41.4649H71.0772L72.4108 41.4644H72.4339L72.4573 41.4641L72.4805 41.4639L72.5036 41.4636L72.5268 41.4634H72.5449H72.5499L72.573 41.4631L72.5962 41.4629L72.6193 41.4626H72.6422L72.6654 41.4624H72.6782H72.6883L72.7114 41.4621L72.7343 41.4619H72.7572H72.7801L72.803 41.4616H72.8108H72.8256L72.8485 41.4614H72.8714L72.894 41.4611H72.9169H72.9396H72.9423H72.9622L72.9848 41.4609H73.0075H73.0301H73.0528H73.0731H73.0754L73.0978 41.4606H73.1204H73.1428H73.1652H73.1879H73.2032H73.2103L73.2326 41.4609H73.255H73.2774H73.2998H73.3222H73.3325L73.3446 41.4611L73.3667 41.4609L73.3891 41.4611H73.4112L73.4336 41.4614H73.4558H73.4611H73.4779H73.5L73.5222 41.4616L73.5443 41.4619H73.5665H73.5886H73.5891L73.6107 41.4621L73.6326 41.4624H73.6548L73.6766 41.4626L73.6988 41.4629H73.7164H73.7207L73.7428 41.4631L73.7647 41.4634H73.7866L73.8085 41.4636L73.8304 41.4639H73.8432L73.8522 41.4641C74.4741 41.4708 75.0753 41.4858 75.6733 41.511L75.6939 41.512L75.8155 41.5173L75.8182 41.5175L75.8907 41.5207L75.937 41.523L75.9631 41.5242L76.0356 41.5277L76.0582 41.529L76.108 41.5315L76.1797 41.5352H76.1805L76.2527 41.539L76.3012 41.5417L76.3251 41.5429L76.3978 41.5472L76.4227 41.5484L76.4703 41.5512L76.5427 41.5554L76.5445 41.5557L76.6154 41.5599L76.6662 41.5632L76.6881 41.5644L76.7608 41.5691L76.7882 41.5709L76.9065 41.5786L76.9103 41.5789L76.9794 41.5836L77.0328 41.5874L77.0526 41.5886L77.1259 41.5938L77.1555 41.5958L77.1991 41.5991L77.2723 41.6046L77.2785 41.6051L77.3457 41.6101L77.4018 41.6143L77.4194 41.6156L77.4931 41.6213L77.5253 41.624L77.5671 41.6273L77.6411 41.6333L77.6496 41.634L77.7153 41.6393L77.7739 41.6442L77.7897 41.6455L77.8642 41.6517L77.8989 41.6547L77.9389 41.6582L78.0136 41.6647L78.0244 41.6657L78.0888 41.6714L78.1505 41.6769L78.1638 41.6782L78.2393 41.6852L78.277 41.6887L78.315 41.6922L78.3907 41.6994L78.404 41.7006L78.4669 41.7066L78.5316 41.7129L78.5432 41.7139L78.6196 41.7216L78.6601 41.7256L78.6966 41.7291L78.7736 41.7368L78.7892 41.7386L78.8508 41.7448L78.919 41.7518L78.9283 41.7528L79.0063 41.761L79.0496 41.7655L79.0843 41.7692L79.1628 41.7775L79.1809 41.7795L79.2413 41.7862L79.3132 41.7939L79.3202 41.7949L79.3995 41.8034L79.446 41.8089L79.479 41.8124L79.559 41.8214L79.5799 41.8239L79.639 41.8306L79.7147 41.8394L79.7195 41.8399L79.8005 41.8493L79.8505 41.8553L79.8817 41.8591L79.9632 41.8685L79.9871 41.8715L80.045 41.8785L80.125 41.8883L80.1273 41.8885L80.21 41.8985L80.2636 41.9052L80.293 41.9087L80.3763 41.9192L80.4035 41.9224L80.4603 41.9297L80.5444 41.9402C80.6123 41.9713 80.6817 42.004 80.7494 42.0365C81.2535 42.2767 81.7174 42.5729 82.136 42.9359C82.5496 43.2907 82.9269 43.7912 83.1624 44.3094C83.1317 44.9529 80.5622 45.4022 80.5059 45.4104C78.7613 45.6687 77.5515 45.8306 77.3822 45.7388C77.1427 45.6168 76.8293 45.499 76.4549 45.3967C76.0414 45.2795 75.5926 45.1455 75.0985 44.9945C74.6094 44.8438 74.1154 44.6485 73.6263 44.4082C73.1398 44.1772 72.6971 43.8755 72.2938 43.5038L70.5303 43.5043C70.0244 43.5043 69.6106 43.0457 69.6104 42.4851V42.4848C69.6104 41.9239 70.0239 41.4651 70.5298 41.4649H70.5298Z" fill="#FFED00"/>
<path fill-rule="evenodd" clip-rule="evenodd" d="M57.66 37.8081L65.2583 37.8061L71.2521 37.8043H71.9579C72.1768 37.8041 72.3735 37.6921 72.5033 37.5172C74.2198 37.4593 76.7422 37.6888 78.6591 37.7988C79.8621 37.868 81.6366 37.8789 82.2593 37.9989L82.0799 40.0129C81.2429 39.7729 80.4968 39.5997 79.8314 39.4825C79.1658 39.3652 78.5862 39.3096 78.0921 39.3098C77.6788 39.3098 77.356 39.3323 77.114 39.3772C76.877 39.4218 76.7057 39.4944 76.5998 39.5952C76.4989 39.6958 76.4486 39.8243 76.4536 39.9807C76.4589 40.2043 76.5897 40.3944 76.8471 40.5453C77.0992 40.7015 77.437 40.847 77.8554 40.981C78.279 41.1204 78.7378 41.2656 79.2417 41.4333C79.6772 41.573 80.1124 41.7422 80.5443 41.94C77.5258 41.5573 75.2834 41.4371 72.4107 41.4642L71.1298 41.4647C71.5215 41.4645 71.842 41.1092 71.842 40.6748C71.8417 40.2405 71.5212 39.8852 71.1295 39.8852L70.8986 39.8854L64.3026 39.8872L57.6603 39.8889C57.1443 39.8889 56.7219 39.4211 56.7217 38.849V38.8485C56.7217 38.2764 57.1438 37.8081 57.66 37.8081L57.66 37.8081Z" fill="#E61977"/>
<path d="M109.853 100.969H86.8545V104.042H109.853V100.969Z" fill="#66798F"/>
<path d="M109.853 94.8209H86.8545V97.8947H109.853V94.8209Z" fill="#66798F"/>
<path d="M109.853 85.599H86.8545V88.6728H109.853V85.599Z" fill="#66798F"/>
<path d="M109.853 79.4511H86.8545V82.5249H109.853V79.4511Z" fill="#66798F"/>
<path d="M109.853 70.2294H86.8545V73.3033H109.853V70.2294Z" fill="#66798F"/>
<path d="M109.853 64.0816H86.8545V67.1554H109.853V64.0816Z" fill="#66798F"/>
<path d="M109.853 54.8598H86.8545V57.9337H109.853V54.8598Z" fill="#66798F"/>
<path d="M109.853 48.712H86.8545V51.7858H109.853V48.712Z" fill="#66798F"/>
<path d="M109.853 39.4903H86.8545V42.5642H109.853V39.4903Z" fill="#66798F"/>
<path d="M109.853 33.3425H86.8545V36.4163H109.853V33.3425Z" fill="#66798F"/>
<path d="M81.8479 100.969H58.8496V104.042H81.8479V100.969Z" fill="#66798F"/>
<path d="M81.8479 94.8209H58.8496V97.8947H81.8479V94.8209Z" fill="#66798F"/>
<path d="M81.8479 85.599H58.8496V88.6728H81.8479V85.599Z" fill="#66798F"/>
<path d="M81.8479 79.4511H58.8496V82.5249H81.8479V79.4511Z" fill="#66798F"/>
<path d="M81.8479 70.2294H58.8496V73.3033H81.8479V70.2294Z" fill="#66798F"/>
<path d="M81.8479 64.0816H58.8496V67.1554H81.8479V64.0816Z" fill="#66798F"/>
</svg>
