<svg width="153" height="109" viewBox="0 0 153 109" fill="none" xmlns="http://www.w3.org/2000/svg">
<path d="M85.3742 1.36032L1 47.9347L34.1228 107.65L118.497 61.0753L85.3742 1.36032Z" fill="#4E7AB5" stroke="#333333" stroke-width="2" stroke-linejoin="round"/>
<path d="M152 33.8816H55.5703V102.129H152V33.8816Z" fill="white" stroke="#333333" stroke-width="2" stroke-linejoin="round"/>
<path fill-rule="evenodd" clip-rule="evenodd" d="M80.1478 44.7769L96.1138 44.7732C97.6008 44.7729 99.0196 44.8859 100.377 45.1053C101.053 45.2262 101.637 45.3395 102.13 45.4528C102.615 45.5665 103.01 45.6798 103.314 45.7931L104.224 46.1258L103.851 49.8937C102.914 49.7298 100.244 49.715 98.433 49.6215C95.5482 49.4725 91.7529 49.1616 89.1697 49.2399C89.3207 49.0569 89.4114 48.8226 89.4114 48.5682V48.5679C89.4114 48.0737 89.067 47.6554 88.606 47.5398L88.6352 47.5081H88.3484L80.1484 47.5101C79.3953 47.5104 78.7786 46.8959 78.7783 46.1443V46.1436C78.7783 45.392 79.3943 44.7772 80.1477 44.7769L80.1478 44.7769Z" fill="#5CA6F2"/>
<path fill-rule="evenodd" clip-rule="evenodd" d="M82.077 54.5865L82.794 54.5862C83.5551 54.5862 84.178 55.2073 84.1784 55.9665C84.1784 56.7257 83.5557 57.3475 82.7947 57.3475L82.0777 57.3478C81.3166 57.3478 80.6937 56.7267 80.6934 55.9672C80.6934 55.208 81.316 54.5866 82.077 54.5866V54.5865Z" fill="#FFED00"/>
<path fill-rule="evenodd" clip-rule="evenodd" d="M74.3168 62.3713L95.4091 62.3663C95.9632 62.333 96.1884 62.2527 96.4229 62.1516C96.9938 61.9055 97.1799 61.5209 97.1799 61.1122C97.1723 60.8321 96.9749 60.5975 96.6033 60.4161C96.5719 60.4009 96.5451 60.3877 96.5116 60.3725C96.7666 60.4971 98.5871 60.2777 101.212 59.9278C101.297 59.9166 105.164 59.3084 105.21 58.4372C105.583 59.1554 105.775 60.0157 105.783 61.0194C105.788 62.1767 105.632 63.223 105.316 64.1533C104.318 65.6341 93.833 65.496 87.6231 65.1897C87.5171 65.1336 87.3966 65.1012 87.269 65.1012H87.1955L79.3241 65.1032L74.3173 65.1045C73.5639 65.1045 72.9473 64.49 72.9473 63.7384V63.7381C72.9469 62.9865 73.5633 62.3716 74.3167 62.3713L74.3168 62.3713Z" fill="#93C02C"/>
<path fill-rule="evenodd" clip-rule="evenodd" d="M70.2591 62.3721H70.9883C71.7417 62.3718 72.3584 62.9866 72.3584 63.7382C72.3587 64.4898 71.7424 65.105 70.989 65.105L70.2597 65.1053C69.5063 65.1053 68.8896 64.4905 68.8896 63.7392V63.7389C68.8893 62.9876 69.5056 62.3725 70.2591 62.3721Z" fill="#93C02C"/>
<path d="M105.315 64.1534C105.137 64.6767 104.909 65.1637 104.63 65.6133C103.857 66.8545 102.658 67.8011 101.02 68.4522C99.3889 69.0958 97.2875 69.4219 94.7156 69.4225L82.0179 69.4255C81.2413 69.4258 80.6058 68.7918 80.6055 68.0175V68.0171C80.6055 67.2424 81.2407 66.6084 82.0173 66.6081L87.0419 66.6071L87.2688 66.6068C87.6837 66.6068 88.0232 66.2681 88.0232 65.8542V65.8538C88.0229 65.5671 87.8602 65.317 87.6225 65.1898C93.8324 65.496 104.318 65.6341 105.315 64.1534V64.1534Z" fill="#5CA6F2"/>
<path fill-rule="evenodd" clip-rule="evenodd" d="M86.2001 54.5853H87.0237L89.0303 54.5846L89.0654 54.5843H89.1005L89.1353 54.584L89.1704 54.5836L89.2052 54.5833H89.2323L89.2399 54.583H89.2747L89.3095 54.5827L89.3443 54.5823L89.379 54.582H89.4135H89.433H89.4482L89.4827 54.5817L89.5171 54.5813H89.5516L89.586 54.581H89.6205L89.6324 54.5807H89.6549H89.6893H89.7235L89.7579 54.5803H89.792H89.8261H89.8304H89.8602L89.8943 54.58H89.9285H89.9626H89.9967H90.0271H90.0305L90.0646 54.5797H90.0983H90.1321H90.1659H90.2H90.2229H90.2338H90.2676H90.301H90.3348L90.3683 54.58H90.402H90.4176H90.4355H90.4689L90.5027 54.5803H90.5362H90.5696H90.6031L90.611 54.5807H90.6365H90.6696L90.7031 54.581H90.7365L90.7696 54.5813H90.8031H90.8038L90.8362 54.5817H90.8693L90.9024 54.582L90.9356 54.5823H90.9687L90.9952 54.5827H91.0018L91.0349 54.583H91.068L91.1008 54.5833L91.1339 54.5836L91.1667 54.584H91.1859L91.1995 54.5843C92.1354 54.5932 93.0402 54.6137 93.94 54.6477L93.9711 54.6491L94.154 54.6563H94.1583L94.2672 54.661L94.3368 54.6639L94.3762 54.6656L94.4851 54.6705L94.5192 54.6722L94.5941 54.6755L94.7021 54.6804H94.703L94.812 54.6857L94.8852 54.6894L94.921 54.691L95.0302 54.6966L95.068 54.6986L95.1395 54.7023L95.2485 54.7082H95.2508L95.3578 54.7141L95.4343 54.7184L95.4671 54.7201L95.5767 54.7264L95.6178 54.729L95.7959 54.7393L95.8016 54.7399L95.9056 54.7462L95.986 54.7511L96.0155 54.7531L96.1258 54.7601L96.1705 54.7627L96.2361 54.767L96.3464 54.7746L96.3556 54.7749L96.457 54.7819L96.5411 54.7875L96.5676 54.7895L96.6785 54.7971L96.7272 54.8007L96.7898 54.8053L96.9014 54.8133L96.914 54.8142L97.013 54.8215L97.1011 54.8281L97.1246 54.8298L97.2369 54.8384L97.2892 54.8423L97.3492 54.847L97.4618 54.8562L97.478 54.8572L97.5747 54.8651L97.6674 54.8724L97.688 54.874L97.8015 54.8836L97.8578 54.8883L97.9151 54.8932L98.0294 54.9028L98.0493 54.9044L98.144 54.9127L98.2413 54.921L98.2589 54.9226L98.3738 54.9329L98.4348 54.9381L98.4894 54.9431L98.6053 54.9537L98.6288 54.9557L98.7216 54.9642L98.8242 54.9738L98.8385 54.9751L98.9554 54.9864L99.0206 54.9923L99.0729 54.9973L99.1908 55.0088L99.2183 55.0115L99.3091 55.0204L99.4174 55.031L99.428 55.032L99.5472 55.0439L99.6174 55.0511L99.6671 55.0561L99.787 55.0683L99.8187 55.0716L99.9078 55.0809L100.022 55.0924L100.029 55.0931L100.151 55.106L100.226 55.1139L100.273 55.1189L100.396 55.1321L100.431 55.136L100.519 55.1453L100.639 55.1585L100.642 55.1588L100.767 55.1724L100.848 55.1816L100.892 55.1866L101.017 55.2005L101.058 55.2051L101.143 55.2147L101.27 55.2289C101.372 55.2712 101.477 55.3154 101.578 55.3594C102.337 55.6848 103.035 56.0855 103.665 56.5775C104.287 57.0575 104.856 57.7354 105.21 58.4371C105.164 59.3083 101.297 59.9166 101.212 59.9278C98.5871 60.2777 96.7666 60.497 96.5116 60.3725C96.1513 60.2073 95.6797 60.048 95.116 59.9093C94.4941 59.7504 93.8188 59.569 93.0753 59.3648C92.3394 59.1607 91.5956 58.896 90.8597 58.5709C90.1275 58.2581 89.4615 57.8497 88.8545 57.3459L86.2007 57.3466C85.4397 57.3469 84.8167 56.7261 84.8164 55.9666V55.9663C84.8164 55.2071 85.439 54.5856 86.2001 54.5853V54.5853Z" fill="#FFED00"/>
<path fill-rule="evenodd" clip-rule="evenodd" d="M66.8347 49.6336L78.2686 49.6309L87.2882 49.629L88.3503 49.6286C88.6798 49.6286 88.9756 49.4767 89.1709 49.2398C91.7541 49.1615 95.5494 49.4724 98.4343 49.6214C100.245 49.7149 102.915 49.7297 103.852 49.8923L103.582 52.6192C102.323 52.2941 101.2 52.0599 100.199 51.9009C99.197 51.7424 98.3244 51.667 97.5809 51.667C96.9589 51.6674 96.4734 51.6978 96.1091 51.7582C95.7528 51.819 95.4948 51.9175 95.3355 52.0536C95.1838 52.19 95.108 52.3638 95.1156 52.5759C95.1232 52.8785 95.3206 53.1359 95.7074 53.3401C96.0869 53.5518 96.5953 53.7487 97.2248 53.9301C97.8624 54.1191 98.5529 54.3157 99.3113 54.5426C99.9663 54.7319 100.621 54.9609 101.271 55.2288C96.7291 54.7108 93.3544 54.5476 89.0315 54.5846L87.1041 54.5852C87.6936 54.5849 88.1758 54.1039 88.1758 53.5155C88.1758 52.9274 87.6932 52.4464 87.1037 52.4464H86.7563L76.8306 52.449L66.8353 52.4514C66.0587 52.4514 65.4232 51.8177 65.4229 51.043V51.0426C65.4225 50.2679 66.0577 49.6339 66.8347 49.6336H66.8347Z" fill="#E61977"/>
<path d="M143.054 44.856H110V56.9564H143.054V44.856Z" fill="#66798F"/>
<path d="M143.054 63.0065H110V69.0564H143.054V63.0065Z" fill="#66798F"/>
<path d="M143.056 75.1064H64.1465V81.1563H143.056V75.1064Z" fill="#66798F"/>
<path d="M143.056 87.2062H64.1465V93.2562H143.056V87.2062Z" fill="#66798F"/>
</svg>
