<svg width="102" height="102" viewBox="0 0 102 102" fill="none" xmlns="http://www.w3.org/2000/svg">
<path d="M0.999544 25.8753L35.5098 99.6634L87.1353 75.1641L52.6251 1.37598L0.999544 25.8753Z" fill="#4E7AB5" stroke="#333333" stroke-width="2" stroke-linejoin="round"/>
<path d="M43.9326 18.87L43.9326 100.437L101 100.437L101 18.87L43.9326 18.87Z" fill="white" stroke="#333333" stroke-width="2" stroke-linejoin="round"/>
<path fill-rule="evenodd" clip-rule="evenodd" d="M68.0796 27.4579L81.4665 27.4547C82.7131 27.4544 83.9027 27.5502 85.0413 27.7358C85.6075 27.838 86.097 27.9341 86.5105 28.0299C86.9177 28.1261 87.2484 28.2222 87.5029 28.318L88.2663 28.5999L87.9534 31.7899C87.1678 31.651 84.9289 31.6385 83.4108 31.5592C80.9923 31.4331 77.8099 31.1698 75.6441 31.2362C75.7705 31.0813 75.8468 30.8829 75.8468 30.6677V30.6674C75.8465 30.2488 75.558 29.8949 75.1714 29.7971L75.1959 29.77H74.9554L68.0802 29.7717C67.4486 29.772 66.9316 29.2515 66.9316 28.6154V28.6148C66.9314 27.9787 67.4481 27.4579 68.0796 27.4579H68.0796Z" fill="#5CA6F2"/>
<path fill-rule="evenodd" clip-rule="evenodd" d="M69.6972 35.7629H70.2983C70.9365 35.7626 71.4587 36.2886 71.459 36.9314C71.459 37.5743 70.9371 38.1003 70.2989 38.1006H69.6978C69.0596 38.1009 68.5371 37.5749 68.5371 36.932C68.5368 36.2892 69.059 35.7632 69.6972 35.7629Z" fill="#FFED00"/>
<path fill-rule="evenodd" clip-rule="evenodd" d="M63.1911 42.3536L80.8758 42.3495C81.3408 42.3212 81.5293 42.2534 81.7259 42.1677C82.2045 41.9592 82.3609 41.6335 82.3606 41.2875C82.3545 41.0507 82.1889 40.8518 81.8771 40.6983C81.8508 40.6855 81.8286 40.6744 81.8005 40.6616C82.0142 40.7667 83.5406 40.5812 85.7417 40.285C85.8128 40.2757 89.0548 39.7604 89.0933 39.0229C89.4064 39.6311 89.5675 40.3595 89.5739 41.2089C89.5782 42.189 89.4469 43.0747 89.182 43.8623C88.3461 45.1159 79.5547 44.9991 74.3479 44.7399C74.2591 44.6921 74.1579 44.6648 74.0509 44.6651H73.9893L67.3897 44.6665L63.1918 44.6677C62.56 44.6677 62.043 44.1475 62.043 43.5111V43.5108C62.0427 42.8743 62.5594 42.3539 63.1912 42.3536L63.1911 42.3536Z" fill="#93C02C"/>
<path fill-rule="evenodd" clip-rule="evenodd" d="M59.7879 42.3545H60.3994C61.0312 42.3542 61.5482 42.8747 61.5482 43.5111C61.5485 44.1472 61.0318 44.6683 60.4 44.6683L59.7885 44.6686C59.1569 44.6686 58.6399 44.1481 58.6396 43.512V43.5117C58.6396 42.8756 59.1564 42.3548 59.7879 42.3545Z" fill="#93C02C"/>
<path d="M89.1824 43.8624C89.0332 44.3054 88.8418 44.7178 88.6082 45.0985C87.9599 46.1494 86.9551 46.9507 85.5813 47.502C84.2139 48.047 82.4518 48.3228 80.2956 48.3234L69.6492 48.326C68.998 48.326 68.4651 47.7895 68.4648 47.1339V47.1336C68.4648 46.4777 68.9975 45.9408 69.6486 45.9408L73.8616 45.9397H74.0516C74.3997 45.9397 74.6843 45.6528 74.6843 45.3021C74.684 45.0595 74.5478 44.8474 74.3483 44.74C79.5551 44.9992 88.3465 45.116 89.1824 43.8624H89.1824Z" fill="#5CA6F2"/>
<path fill-rule="evenodd" clip-rule="evenodd" d="M73.1552 35.7619H73.8457L75.5283 35.7613L75.5575 35.761H75.587L75.6162 35.7607L75.6454 35.7604L75.6746 35.7601H75.6974H75.7041L75.733 35.7598L75.7622 35.7595L75.7914 35.7592H75.8206L75.8495 35.7589H75.8657H75.8785L75.9077 35.7587H75.9363L75.9652 35.7584H75.9941L76.023 35.7581H76.0329H76.052L76.0806 35.7578H76.1095H76.1381L76.1667 35.7575H76.1954H76.1988H76.224H76.2526H76.2812L76.3099 35.7572H76.3382H76.364H76.3668H76.3952H76.4238H76.4521H76.4805H76.5088H76.5282H76.5372H76.5655H76.5935H76.6219H76.6499H76.6783H76.6913L76.7063 35.7575H76.7344H76.7627H76.7907L76.8188 35.7578H76.8468H76.8535H76.8749L76.9026 35.7581H76.9307L76.9587 35.7584H76.9865H77.0143H77.0151L77.0423 35.7587L77.0701 35.7589H77.0978L77.1256 35.7592L77.1533 35.7595H77.1756H77.1811L77.2089 35.7598L77.2366 35.7601H77.2641L77.2918 35.7604L77.3193 35.7607H77.3355L77.3471 35.761C78.1315 35.7686 78.8903 35.7857 79.6447 35.8149L79.6707 35.8157L79.8243 35.8219L79.8274 35.8222L79.9191 35.8259L79.9772 35.8283L80.0105 35.8297L80.1016 35.8341L80.1305 35.8353L80.1932 35.8382L80.2837 35.8423H80.2846L80.3757 35.8469L80.437 35.8498L80.4673 35.8513L80.5587 35.8562L80.5902 35.8577L80.6504 35.8609L80.7417 35.8658H80.7438L80.8334 35.8708L80.8976 35.8746L80.9251 35.876L81.0167 35.8813L81.0514 35.8833L81.2006 35.8923L81.2055 35.8926L81.2929 35.8979L81.36 35.9023L81.3848 35.9037L81.4773 35.9098L81.5146 35.9122L81.5696 35.9157L81.6621 35.9221L81.6699 35.9223L81.7549 35.9282L81.8255 35.9331L81.8478 35.9346L81.9409 35.9413L81.9816 35.9442L82.0343 35.948L82.1277 35.9547L82.1381 35.9556L82.2211 35.9617L82.2951 35.9675L82.3147 35.969L82.409 35.9759L82.453 35.9794L82.5033 35.9835L82.5975 35.9911L82.6111 35.992L82.6924 35.9987L82.7702 36.0051L82.7872 36.0062L82.8823 36.0144L82.9298 36.0182L82.9778 36.0225L83.0735 36.0307L83.09 36.0322L83.1695 36.0389L83.251 36.0461L83.2658 36.0473L83.3623 36.056L83.4132 36.0607L83.4592 36.0648L83.5564 36.0738L83.576 36.0756L83.6538 36.0828L83.74 36.0907L83.7515 36.0919L83.8499 36.1012L83.9045 36.1064L83.9485 36.1108L84.0474 36.1204L84.0702 36.1225L84.1465 36.13L84.237 36.1391L84.246 36.1402L84.346 36.1501L84.4047 36.1562L84.4464 36.1603L84.5473 36.1708L84.5736 36.1734L84.6482 36.1813L84.7439 36.1912L84.75 36.1918L84.8521 36.2025L84.9151 36.2095L84.9544 36.2136L85.0574 36.2247L85.0874 36.2279L85.1606 36.236L85.2612 36.2471L85.2644 36.2474L85.3688 36.2591L85.4364 36.2666L85.4735 36.2707L85.5787 36.2827L85.6128 36.2864L85.6842 36.2946L85.7907 36.3068C85.8762 36.3424 85.9639 36.3799 86.0492 36.4172C86.6853 36.6925 87.2705 37.0321 87.7985 37.4483C88.3205 37.8549 88.7967 38.4287 89.0937 39.0229C89.0549 39.7604 85.8132 40.2756 85.7421 40.285C83.541 40.5812 82.0146 40.7667 81.8009 40.6616C81.4987 40.5215 81.1032 40.3866 80.6307 40.2692C80.1091 40.135 79.5429 39.9812 78.9195 39.8084C78.3024 39.6354 77.679 39.4114 77.062 39.1362C76.4481 38.8711 75.8897 38.5254 75.3808 38.0993L73.1558 38.0996C72.5173 38.0999 71.9954 37.5741 71.9951 36.9313V36.931C71.9948 36.2882 72.517 35.7622 73.1552 35.7619Z" fill="#FFED00"/>
<path fill-rule="evenodd" clip-rule="evenodd" d="M56.9172 31.5696L66.5041 31.5673L74.0663 31.5656L74.9569 31.5653C75.2333 31.5653 75.4811 31.4368 75.6451 31.2361C77.8109 31.17 80.9933 31.433 83.4118 31.5592C84.9298 31.6384 87.1687 31.6509 87.9544 31.7887L87.728 34.0973C86.672 33.822 85.7305 33.6237 84.8911 33.4894C84.0514 33.3551 83.3198 33.291 82.6964 33.2913C82.1748 33.2913 81.7676 33.3173 81.4623 33.3685C81.1633 33.4198 80.9473 33.5031 80.8137 33.6184C80.6865 33.7338 80.6229 33.8811 80.6292 34.0606C80.6359 34.3169 80.801 34.5347 81.1257 34.7078C81.4438 34.8869 81.87 35.0535 82.398 35.207C82.9323 35.3672 83.5112 35.5335 84.1471 35.7257C84.6965 35.8859 85.2456 36.0799 85.7906 36.3068C81.9819 35.8679 79.1525 35.7298 75.5283 35.7613L73.9122 35.7619C74.4063 35.7616 74.8106 35.3541 74.8106 34.8563C74.8106 34.3582 74.4061 33.951 73.9116 33.951H73.6204L65.2983 33.9531L56.9178 33.9551C56.2666 33.9554 55.7337 33.4189 55.7334 32.763V32.7627C55.7334 32.1067 56.266 31.5699 56.9172 31.5696H56.9172Z" fill="#E61977"/>
<path d="M87.9183 54.4351H57.0127V68.2594H87.9183V54.4351Z" fill="#66798F"/>
<path d="M87.9186 73.3814H57.0127V78.5035H87.9186V73.3814Z" fill="#66798F"/>
<path d="M87.9186 83.6258H57.0127V88.7479H87.9186V83.6258Z" fill="#66798F"/>
</svg>
