<svg width="84" height="115" viewBox="0 0 84 115" fill="none" xmlns="http://www.w3.org/2000/svg">
<rect x="2.1123" y="1.5" width="79.9865" height="112" fill="white" stroke="#333333" stroke-width="3" stroke-linejoin="round"/>
<rect x="2.1123" y="1.5" width="79.9865" height="17.7604" fill="#4E7AB5" stroke="#333333" stroke-width="3" stroke-linejoin="round"/>
<path d="M41.9946 13.4554C43.4851 13.4554 44.6933 12.2338 44.6933 10.7269C44.6933 9.21994 43.4851 7.99835 41.9946 7.99835C40.5042 7.99835 39.2959 9.21994 39.2959 10.7269C39.2959 12.2338 40.5042 13.4554 41.9946 13.4554Z" fill="white" stroke="#333333" stroke-width="0.499998" stroke-linejoin="round"/>
<path d="M27.3807 53.4313H12.7637V67.4678H27.3807V53.4313Z" fill="white" stroke="#333333" stroke-linejoin="round"/>
<path d="M41.9979 53.4313H27.3809V67.4678H41.9979V53.4313Z" fill="white" stroke="#333333" stroke-linejoin="round"/>
<path d="M56.6151 53.4313H41.998V67.4678H56.6151V53.4313Z" fill="white" stroke="#333333" stroke-linejoin="round"/>
<path d="M71.2323 53.4313H56.6152V67.4678H71.2323V53.4313Z" fill="white" stroke="#333333" stroke-linejoin="round"/>
<path d="M27.3807 67.4678H12.7637V81.5043H27.3807V67.4678Z" fill="white" stroke="#333333" stroke-linejoin="round"/>
<path d="M41.9979 67.4678H27.3809V81.5043H41.9979V67.4678Z" fill="white" stroke="#333333" stroke-linejoin="round"/>
<path d="M56.6151 67.4678H41.998V81.5043H56.6151V67.4678Z" fill="#66798F" stroke="#333333" stroke-width="0.499998" stroke-linejoin="round"/>
<path d="M71.2323 67.4678H56.6152V81.5043H71.2323V67.4678Z" fill="white" stroke="#333333" stroke-linejoin="round"/>
<path d="M27.3807 81.5041H12.7637V95.5406H27.3807V81.5041Z" fill="white" stroke="#333333" stroke-linejoin="round"/>
<path d="M41.9979 81.5041H27.3809V95.5406H41.9979V81.5041Z" fill="white" stroke="#333333" stroke-linejoin="round"/>
<path d="M56.6151 81.5041H41.998V95.5406H56.6151V81.5041Z" fill="white" stroke="#333333" stroke-linejoin="round"/>
<path d="M71.2323 81.5041H56.6152V95.5406H71.2323V81.5041Z" fill="white" stroke="#333333" stroke-linejoin="round"/>
<path fill-rule="evenodd" clip-rule="evenodd" d="M37.5273 26.6242L50.8621 26.621C52.1041 26.6207 53.2888 26.7166 54.423 26.902C54.9869 27.0044 55.4749 27.1003 55.8867 27.1962C56.2922 27.2924 56.6217 27.3883 56.875 27.4843L57.6356 27.7661L57.3238 30.9553C56.5412 30.8164 54.311 30.804 52.7989 30.7248C50.3896 30.5986 47.2198 30.3354 45.0623 30.4019C45.1884 30.2468 45.2643 30.0485 45.2643 29.8334V29.8331C45.264 29.4146 44.9767 29.0606 44.5916 28.9628L44.6159 28.9361H44.3765L37.5279 28.9377C36.8988 28.9377 36.3838 28.4175 36.3838 27.7815V27.7812C36.3835 27.1449 36.8982 26.6245 37.5274 26.6242L37.5273 26.6242Z" fill="#5CA6F2"/>
<path fill-rule="evenodd" clip-rule="evenodd" d="M39.1383 34.9276H39.7369C40.3727 34.9273 40.8928 35.4531 40.8931 36.0959C40.8931 36.7384 40.3733 37.2645 39.7375 37.2648L39.1388 37.2651C38.503 37.2651 37.9827 36.7393 37.9824 36.0964C37.9824 35.4539 38.5025 34.9278 39.1383 34.9276V34.9276Z" fill="#FFED00"/>
<path fill-rule="evenodd" clip-rule="evenodd" d="M32.6584 41.5173L50.2746 41.5129C50.7375 41.4846 50.9254 41.4167 51.1213 41.3311C51.5981 41.1228 51.7536 40.7972 51.7536 40.4513C51.7472 40.2143 51.5823 40.0155 51.272 39.862C51.2458 39.8493 51.2234 39.8382 51.1956 39.8253C51.4086 39.9306 52.929 39.745 55.1215 39.4489C55.1923 39.4394 58.4215 38.9244 58.46 38.187C58.7719 38.7952 58.9323 39.5234 58.9387 40.3727C58.943 41.3524 58.8123 42.2382 58.5482 43.0255C57.7157 44.2787 48.9584 44.1623 43.7719 43.9029C43.6834 43.8553 43.5827 43.828 43.476 43.828H43.4148L36.8407 43.8296L32.659 43.8305C32.0296 43.8307 31.5149 43.3106 31.5146 42.6743V42.674C31.5146 42.0379 32.0291 41.5173 32.6585 41.5173H32.6584Z" fill="#93C02C"/>
<path fill-rule="evenodd" clip-rule="evenodd" d="M29.2688 41.518L29.8779 41.5177C30.507 41.5177 31.022 42.0381 31.0223 42.6742C31.0223 43.3105 30.5078 43.8312 29.8784 43.8312L29.2694 43.8315C28.64 43.8315 28.125 43.3111 28.125 42.675C28.1247 42.0387 28.6395 41.518 29.2688 41.518Z" fill="#93C02C"/>
<path d="M58.5471 43.0255C58.3985 43.4683 58.2079 43.8806 57.9754 44.2614C57.3295 45.3122 56.3284 46.1131 54.96 46.6643C53.5978 47.2093 51.8428 47.4851 49.6949 47.4857L39.0898 47.4881C38.4412 47.4884 37.9104 46.952 37.9102 46.2963V46.296C37.9102 45.6402 38.4407 45.1036 39.0893 45.1033L43.2859 45.1022H43.4751C43.822 45.1022 44.1053 44.8155 44.1053 44.4651V44.4648C44.1053 44.2222 43.9693 44.0103 43.7707 43.9028C48.9573 44.1622 57.7146 44.2787 58.5471 43.0255L58.5471 43.0255Z" fill="#5CA6F2"/>
<path fill-rule="evenodd" clip-rule="evenodd" d="M42.5824 34.9266L43.2703 34.9263L44.9462 34.926L44.9756 34.9257L45.0047 34.9255L45.0339 34.9252L45.063 34.9249L45.0921 34.9247H45.1148H45.1213L45.1504 34.9244L45.1792 34.9241H45.2084L45.2372 34.9239L45.2661 34.9236H45.2824H45.2952L45.3241 34.9233L45.3527 34.923H45.3816L45.4104 34.9228H45.439H45.4489H45.4679L45.4965 34.9225H45.5251L45.5537 34.9222H45.5823H45.6109H45.6143H45.6392L45.6678 34.922H45.6964H45.7247H45.753H45.7787H45.7816L45.81 34.9217H45.838H45.8664H45.8947H45.923H45.9423H45.9511H45.9794H46.0075H46.0355L46.0636 34.922H46.0916H46.1047H46.1197H46.1478L46.1758 34.9222H46.2039H46.2317H46.2595L46.2664 34.9225H46.2875H46.3153L46.3431 34.9228H46.3709L46.3987 34.923H46.4265H46.4273L46.4543 34.9233L46.4821 34.9236H46.5096L46.5374 34.9239L46.5649 34.9241H46.5871H46.5927L46.6203 34.9244L46.6478 34.9247L46.6753 34.9249L46.7029 34.9252H46.7304L46.7467 34.9255H46.7579C47.5393 34.9333 48.2951 34.9503 49.0467 34.9792L49.0726 34.9803L49.2254 34.9865L49.2289 34.9868L49.3198 34.9906L49.378 34.993L49.4109 34.9944L49.5018 34.9987L49.5306 34.9998L49.5929 35.0028L49.6832 35.0071H49.684L49.7749 35.0114L49.8358 35.0144L49.866 35.016L49.9572 35.0209L49.9887 35.0222L50.0483 35.0254L50.1394 35.0303L50.1416 35.0306L50.2308 35.0354L50.2947 35.039L50.322 35.0406L50.4134 35.046L50.4479 35.0479L50.5964 35.0568L50.6015 35.0573L50.6884 35.0625L50.7552 35.0668L50.78 35.0684L50.872 35.0744L50.9094 35.0768L50.9642 35.0803L51.0564 35.0865L51.0639 35.0871L51.1486 35.0927L51.2189 35.0976L51.2413 35.0992L51.3338 35.1057L51.3744 35.1087L51.4268 35.1125L51.5198 35.1195L51.5305 35.1203L51.6131 35.1262L51.6868 35.1319L51.7063 35.1335L51.8001 35.1406L51.844 35.1441L51.894 35.1481L51.988 35.1557L52.0014 35.1568L52.0824 35.1633L52.1599 35.1695L52.177 35.1708L52.2716 35.1789L52.3189 35.183L52.3667 35.187L52.4621 35.1951L52.4787 35.1968L52.5578 35.2035L52.639 35.2108L52.6535 35.2119L52.7497 35.2205L52.8005 35.2251L52.8462 35.2295L52.9432 35.2384L52.9627 35.24L53.0402 35.2473L53.126 35.2554L53.1377 35.2565L53.2356 35.2659L53.2901 35.2711L53.3336 35.2754L53.432 35.2848L53.455 35.2873L53.5309 35.2946L53.6212 35.3038L53.63 35.3046L53.7297 35.3146L53.7882 35.3208L53.8297 35.3248L53.9301 35.3351L53.9566 35.3381L54.0309 35.3459L54.126 35.3559L54.1319 35.3564L54.2337 35.3673L54.2965 35.374L54.3358 35.3781L54.4382 35.3891L54.4684 35.3927L54.5411 35.4005L54.6416 35.4116L54.6445 35.4118L54.7485 35.4235L54.8158 35.431L54.8527 35.4353L54.9575 35.447L54.9914 35.451L55.0628 35.4591L55.1686 35.4713C55.2538 35.5069 55.3412 35.5445 55.4262 35.5818C56.0599 35.8571 56.6427 36.1965 57.169 36.6126C57.6888 37.019 58.1631 37.5926 58.459 38.1868C58.4202 38.9242 55.191 39.4392 55.1202 39.4487C52.9277 39.7448 51.4073 39.9304 51.1943 39.825C50.8934 39.6854 50.4994 39.5503 50.0288 39.433C49.5093 39.2987 48.9454 39.145 48.3243 38.972C47.7099 38.7994 47.0888 38.5754 46.4741 38.3C45.8626 38.0352 45.3062 37.6896 44.7992 37.2633L42.5829 37.2638C41.9471 37.2641 41.427 36.7385 41.4268 36.0957V36.0954C41.4268 35.4526 41.9466 34.9268 42.5824 34.9266H42.5824Z" fill="#FFED00"/>
<path fill-rule="evenodd" clip-rule="evenodd" d="M26.4076 30.7353L35.9571 30.7329L43.4901 30.7312L44.3771 30.731C44.6526 30.731 44.8996 30.6024 45.0626 30.4019C47.2201 30.3357 50.39 30.5988 52.7993 30.7248C54.3114 30.8039 56.5416 30.8164 57.3241 30.9542L57.0986 33.2625C56.0469 32.9872 55.1089 32.7888 54.2726 32.6545C53.4364 32.5203 52.7076 32.4562 52.0868 32.4565C51.5673 32.4565 51.1616 32.4824 50.8574 32.5338C50.5597 32.5851 50.3443 32.6683 50.2112 32.7837C50.0845 32.8991 50.0212 33.0463 50.0276 33.2258C50.034 33.4819 50.1987 33.6997 50.522 33.8726C50.8387 34.0518 51.2634 34.2185 51.7893 34.3719C52.3217 34.5319 52.8982 34.6984 53.5318 34.8905C54.0789 35.0507 54.626 35.2444 55.1687 35.4714C51.3751 35.0326 48.5567 34.8948 44.9464 34.9261L43.3364 34.9264C43.829 34.9264 44.2317 34.5189 44.2314 34.0212C44.2314 33.5232 43.8284 33.116 43.3362 33.116L43.0459 33.1163L34.7563 33.1182L26.4082 33.1204C25.7595 33.1204 25.2288 32.584 25.2285 31.9282V31.928C25.2285 31.2722 25.759 30.7356 26.4076 30.7353Z" fill="#E61977"/>
</svg>
