<svg width="145" height="101" viewBox="0 0 145 101" fill="none" xmlns="http://www.w3.org/2000/svg">
<path d="M109.266 2.19014L2 45.1838L22.534 95.0977L129.8 52.104L109.266 2.19014Z" fill="#4E7AB5" stroke="#333333" stroke-width="3" stroke-linejoin="round"/>
<path d="M50.0721 68.5933L88.6875 53.1156L89.7142 55.6113L51.0988 71.089L50.0721 68.5933Z" stroke="#00FF00" stroke-width="0.0507877"/>
<path d="M47.1629 61.5222L85.7783 46.0445L86.805 48.5402L48.1896 64.0179L47.1629 61.5222Z" stroke="#00FF00" stroke-width="0.0507877"/>
<path d="M143 45.0234H27.2285V98.8956H143V45.0234Z" fill="white" stroke="#333333" stroke-width="3" stroke-linejoin="round"/>
<path d="M131.368 54.4071H89.6904V63.4403H131.368V54.4071Z" fill="#66798F"/>
<path fill-rule="evenodd" clip-rule="evenodd" d="M54.0703 53.9734L70.5569 53.9695C72.0925 53.9689 73.5573 54.0846 74.9595 54.3086C75.6567 54.4321 76.26 54.5481 76.7692 54.664C77.2706 54.7798 77.6781 54.8957 77.9914 55.0115L78.9315 55.3517L78.546 59.2014C77.5786 59.0336 74.8211 59.0186 72.9517 58.9229C69.973 58.7708 66.0537 58.4531 63.3862 58.5332C63.542 58.346 63.6358 58.1068 63.6358 57.847V57.8467C63.6358 57.3416 63.2805 56.9143 62.8042 56.7961L62.8344 56.7639H62.5382L54.0709 56.7658C53.2931 56.7661 52.6563 56.138 52.6563 55.3703V55.3697C52.656 54.6017 53.2923 53.9734 54.0703 53.9734H54.0703Z" fill="#5CA6F2"/>
<path fill-rule="evenodd" clip-rule="evenodd" d="M56.0596 63.996H56.7996C57.5858 63.9957 58.2289 64.6305 58.2292 65.406C58.2295 66.182 57.5864 66.8171 56.8005 66.8171L56.0602 66.8174C55.2742 66.8176 54.6309 66.1829 54.6309 65.4071C54.6306 64.6313 55.2734 63.9963 56.0596 63.996V63.996Z" fill="#FFED00"/>
<path fill-rule="evenodd" clip-rule="evenodd" d="M48.0469 71.95L69.8271 71.945C70.3994 71.9108 70.6316 71.829 70.874 71.7256C71.4635 71.4741 71.6557 71.0811 71.6557 70.6636C71.6478 70.3776 71.4441 70.1376 71.0603 69.9523C71.0279 69.9367 71.0002 69.9237 70.9659 69.9081C71.2291 70.0349 73.109 69.811 75.8196 69.4536C75.9073 69.4422 79.8999 68.8205 79.9475 67.9307C80.333 68.6644 80.5314 69.5434 80.5393 70.5687C80.5446 71.7512 80.3829 72.8204 80.0565 73.7709C79.0271 75.2838 68.1997 75.1427 61.7873 74.8298C61.678 74.7722 61.5534 74.7394 61.4215 74.7394H61.3457L53.2177 74.7414L48.0477 74.7425C47.2697 74.7427 46.6331 74.1149 46.6328 73.3469V73.3467C46.6328 72.5787 47.2688 71.9503 48.0469 71.95H48.0469Z" fill="#93C02C"/>
<path fill-rule="evenodd" clip-rule="evenodd" d="M43.8584 71.9509L44.6117 71.9507C45.3895 71.9507 46.0263 72.5787 46.0263 73.3467C46.0266 74.1144 45.3903 74.7431 44.6122 74.7434H43.8593C43.0812 74.7436 42.4446 74.1153 42.4443 73.3476C42.4441 72.5796 43.0806 71.9512 43.8584 71.9509Z" fill="#93C02C"/>
<path d="M80.057 73.7706C79.8733 74.3052 79.6377 74.8028 79.35 75.2624C78.5513 76.5305 77.3139 77.4974 75.622 78.163C73.9379 78.8206 71.768 79.1535 69.1123 79.1541L56.0003 79.1574C55.1986 79.1574 54.5423 78.5101 54.542 77.7188V77.7182C54.5417 76.9266 55.1978 76.279 55.9998 76.2788L61.1883 76.2776L61.4225 76.2774C61.8511 76.2774 62.2014 75.9313 62.2014 75.5083V75.508C62.2014 75.2151 62.0331 74.9595 61.7877 74.8296C68.2001 75.1425 79.0275 75.2835 80.0569 73.7706L80.057 73.7706Z" fill="#5CA6F2"/>
<path fill-rule="evenodd" clip-rule="evenodd" d="M60.3184 63.9948H61.1689L63.241 63.9942L63.277 63.994L63.3134 63.9937L63.3494 63.9934L63.3852 63.9931L63.4213 63.9928L63.4495 63.9926H63.4574L63.4932 63.9923L63.5292 63.992L63.565 63.9917L63.6008 63.9915H63.6366L63.6566 63.9912H63.6724L63.7082 63.9909H63.7437L63.7792 63.9906H63.8147L63.8505 63.9903L63.8626 63.9901H63.8857H63.9212L63.9567 63.9898H63.992H64.0275L64.0627 63.9895H64.0669H64.0979H64.1331H64.1684L64.2033 63.9892H64.2385H64.2704H64.2738L64.3087 63.989H64.3436H64.3789H64.4135H64.4485H64.4724H64.4834L64.5184 63.9892H64.553H64.588H64.6226H64.6573H64.6734L64.692 63.9895H64.7266H64.7613L64.7959 63.9898H64.8303H64.8647L64.8732 63.9901H64.8994H64.9337L64.9681 63.9903L65.0025 63.9906H65.0369L65.0713 63.9909H65.0721L65.1056 63.9912H65.1397H65.1741L65.2082 63.9915L65.2426 63.9917L65.2699 63.992H65.2767L65.3108 63.9923L65.3449 63.9926L65.3787 63.9928L65.4128 63.9931L65.4469 63.9934H65.4669L65.481 63.9937C66.4473 64.0029 67.3815 64.0237 68.3106 64.0588L68.3427 64.0599L68.5315 64.0674H68.5357L68.6485 64.0721L68.7203 64.0752L68.7609 64.0769L68.8733 64.0819L68.9089 64.0835L68.9861 64.0869L69.0977 64.0919H69.0985L69.2109 64.0974L69.2865 64.1011L69.3237 64.103L69.4364 64.1086L69.4753 64.1105L69.5491 64.1144L69.6618 64.1202H69.6644L69.7748 64.1264L69.8535 64.1308L69.8876 64.1325L70.0006 64.1389L70.0431 64.1414L70.2268 64.1522L70.2328 64.1525L70.3404 64.1592L70.4233 64.1642L70.454 64.1661L70.5675 64.1734L70.6138 64.1762L70.6814 64.1803L70.7952 64.1881L70.8048 64.1887L70.9097 64.1956L70.9965 64.2015L71.0241 64.2034L71.1385 64.2112L71.1886 64.2148L71.2535 64.2195L71.3684 64.2276L71.3814 64.2287L71.4837 64.236L71.5747 64.2429L71.5992 64.2446L71.715 64.2532L71.7692 64.2574L71.8311 64.2621L71.9473 64.2713L71.9639 64.2727L72.0639 64.2805L72.1597 64.2883L72.1809 64.2899L72.2981 64.2994L72.3564 64.3044L72.4156 64.3094L72.5334 64.3191L72.5537 64.3208L72.6518 64.3291L72.7524 64.3378L72.7701 64.3394L72.889 64.35L72.9519 64.3553L73.0082 64.3603L73.128 64.3711L73.1525 64.3734L73.2481 64.382L73.354 64.3917L73.3687 64.3931L73.4896 64.4045L73.5569 64.4106L73.611 64.4159L73.7328 64.4273L73.7612 64.4301L73.8548 64.4393L73.9664 64.4501L73.9776 64.4513L74.1005 64.4632L74.1732 64.4707L74.2242 64.4757L74.3485 64.4882L74.3812 64.4916L74.4731 64.501L74.5906 64.513L74.5982 64.5138L74.7239 64.5269L74.8016 64.535L74.8498 64.54L74.9766 64.5533L75.0138 64.5575L75.104 64.567L75.228 64.5803L75.2317 64.5809L75.3602 64.5948L75.4436 64.604L75.4892 64.609L75.6189 64.6232L75.6608 64.6279L75.7491 64.6379L75.8798 64.6524C75.9852 64.6955 76.0931 64.7405 76.1982 64.7856C76.9817 65.118 77.7025 65.5277 78.3529 66.0301C78.9954 66.5207 79.5821 67.2131 79.9476 67.9305C79.9 68.8203 75.9074 69.442 75.8201 69.4534C73.1091 69.8108 71.2292 70.0347 70.966 69.9079C70.594 69.739 70.1068 69.576 69.5252 69.4345C68.8827 69.2723 68.1855 69.0868 67.4176 68.8781C66.6578 68.6695 65.8899 68.3992 65.1299 68.0668C64.3738 67.7472 63.6862 67.3302 63.0592 66.8156L60.3189 66.8162C59.533 66.8164 58.8899 66.182 58.8896 65.4062V65.4056C58.8894 64.6298 59.5322 63.9951 60.3184 63.9948L60.3184 63.9948Z" fill="#FFED00"/>
<path fill-rule="evenodd" clip-rule="evenodd" d="M40.3201 58.9357L52.1271 58.9329L61.4406 58.9307L62.5374 58.9304C62.8778 58.9304 63.1833 58.7755 63.3848 58.5332C66.0523 58.4534 69.9716 58.7708 72.9503 58.9229C74.8198 59.0186 77.5772 59.0336 78.5446 59.1997L78.2659 61.9863C76.9654 61.6539 75.8058 61.4147 74.7719 61.2522C73.7379 61.0903 72.837 61.013 72.0691 61.0133C71.4269 61.0135 70.9255 61.0444 70.5493 61.1065C70.1813 61.1685 69.915 61.2689 69.7504 61.4083C69.5937 61.5473 69.5154 61.7254 69.5236 61.9418C69.5315 62.2511 69.7349 62.5139 70.1345 62.7226C70.5265 62.939 71.0512 63.1401 71.7016 63.3253C72.3596 63.5186 73.0726 63.7195 73.856 63.9512C74.5323 64.1445 75.2087 64.3787 75.8799 64.6524C71.1893 64.1228 67.7048 63.9565 63.2411 63.9943L61.2507 63.9948C61.8594 63.9946 62.3573 63.5028 62.3573 62.902C62.3571 62.3009 61.8591 61.8094 61.2501 61.8096H60.8917L50.6422 61.8121L40.3209 61.8146C39.5189 61.8146 38.8626 61.1674 38.8623 60.3757V60.3752C38.8623 59.5838 39.5181 58.936 40.3201 58.9357L40.3201 58.9357Z" fill="#E61977"/>
<path d="M131.368 67.9566H89.6904V72.473H131.368V67.9566Z" fill="#66798F"/>
<path d="M131.368 76.9895H89.6904V81.506H131.368V76.9895Z" fill="#66798F"/>
<path d="M131.368 86.0222H37.499V90.5386H131.368V86.0222Z" fill="#66798F"/>
</svg>
