<svg width="156" height="149" viewBox="0 0 156 149" fill="none" xmlns="http://www.w3.org/2000/svg">
<path fill-rule="evenodd" clip-rule="evenodd" d="M135.542 147.106H20.4574C9.71138 147.106 0.999688 138.479 1 127.837V1.27225H116.084V127.837C116.085 138.479 124.796 147.106 135.542 147.106Z" fill="white" stroke="#333333" stroke-width="2" stroke-linejoin="round"/>
<path fill-rule="evenodd" clip-rule="evenodd" d="M97.5149 98.1719H19.5693V93.1282H97.5149V98.1719Z" fill="#66798F"/>
<path fill-rule="evenodd" clip-rule="evenodd" d="M97.5149 108.259H19.5693V103.216H97.5149V108.259Z" fill="#66798F"/>
<path fill-rule="evenodd" clip-rule="evenodd" d="M97.5149 118.347H19.5693V113.303H97.5149V118.347Z" fill="#66798F"/>
<path fill-rule="evenodd" clip-rule="evenodd" d="M116.085 121.167V127.838C116.085 138.479 124.796 147.106 135.543 147.106C146.289 147.106 155.001 138.479 155.001 127.838V121.167H116.085H116.085Z" fill="#4E7AB5" stroke="#333333" stroke-width="2" stroke-linejoin="round"/>
<path fill-rule="evenodd" clip-rule="evenodd" d="M78.526 20.2809H38.5557V14.3476H78.526V20.2809Z" fill="#66798F"/>
<path fill-rule="evenodd" clip-rule="evenodd" d="M71.6465 135.123H22.1562V128.228H71.6465V135.123Z" fill="#66798F"/>
<path fill-rule="evenodd" clip-rule="evenodd" d="M94.9273 135.123H82.3223V128.228H94.9273V135.123Z" fill="#66798F"/>
<path fill-rule="evenodd" clip-rule="evenodd" d="M47.8378 27.9625L77.7954 27.9548C80.5854 27.9539 83.2473 28.1898 85.7953 28.6461C87.0622 28.8976 88.1583 29.1337 89.0834 29.3699C89.9945 29.606 90.7347 29.8421 91.3042 30.0783L93.0126 30.771L92.3118 38.6156C90.5539 38.2741 85.5437 38.2433 82.1467 38.0486C76.7342 37.7382 69.6125 37.0911 64.7657 37.2544C65.049 36.873 65.2193 36.3853 65.2193 35.8559V35.8553C65.2191 34.8259 64.5733 33.9556 63.7082 33.715L63.7626 33.6487H63.2248L47.839 33.6529C46.4256 33.6532 45.2689 32.374 45.2686 30.8089V30.808C45.268 29.2432 46.4241 27.9631 47.8378 27.9625L47.8378 27.9625Z" fill="#5CA6F2"/>
<path fill-rule="evenodd" clip-rule="evenodd" d="M51.4555 48.3857L52.8005 48.3851C54.2288 48.3848 55.3975 49.6783 55.3981 51.2587C55.3984 52.8398 54.23 54.1338 52.8017 54.1341L51.4567 54.1344C50.0283 54.135 48.8597 52.8415 48.8594 51.2605C48.8591 49.6797 50.0272 48.386 51.4555 48.3857V48.3857Z" fill="#FFED00"/>
<path fill-rule="evenodd" clip-rule="evenodd" d="M36.8968 64.5932L76.4726 64.5828C77.5128 64.5133 77.9347 64.3467 78.3752 64.136C79.4461 63.6232 79.7957 62.8227 79.7954 61.9717C79.7814 61.389 79.4109 60.9002 78.7134 60.5226C78.6549 60.491 78.6044 60.4637 78.5419 60.4321C79.0203 60.691 82.4358 60.2344 87.3618 59.5062C87.5208 59.4831 94.7757 58.2163 94.8621 56.4027C95.5625 57.8982 95.9229 59.6893 95.9375 61.7785C95.9471 64.1881 95.6533 66.3669 95.0605 68.3033C93.1899 71.3861 73.5158 71.0991 61.8637 70.4614C61.6653 70.3442 61.4391 70.277 61.1994 70.277H61.0617L46.2921 70.2809L36.8979 70.2835C35.4842 70.2838 34.3274 69.0046 34.3271 67.4398V67.4389C34.3268 65.8739 35.483 64.5938 36.8967 64.5932H36.8968Z" fill="#93C02C"/>
<path fill-rule="evenodd" clip-rule="evenodd" d="M29.2844 64.5957L30.6529 64.5954C32.0664 64.5948 33.2234 65.875 33.2237 67.4397C33.224 69.0045 32.0678 70.2852 30.6541 70.2855L29.2856 70.2858C27.8719 70.2864 26.7151 69.006 26.7148 67.4415V67.4412C26.7145 65.8767 27.8707 64.596 29.2844 64.5957V64.5957Z" fill="#93C02C"/>
<path d="M95.0596 68.3034C94.7261 69.393 94.2979 70.4071 93.7752 71.3433C92.3239 73.9275 90.0753 75.8977 87.0008 77.2535C83.9409 78.5937 79.998 79.2722 75.1727 79.2737L51.3472 79.2799C49.8901 79.2802 48.6976 77.9611 48.6973 76.3483V76.3475C48.697 74.7347 49.8889 73.4147 51.346 73.4144L60.7739 73.4117H61.1995C61.9782 73.4114 62.6152 72.7063 62.615 71.8443V71.844C62.615 71.2471 62.3096 70.726 61.8631 70.4615C73.5152 71.0992 93.1893 71.3862 95.0597 68.3034H95.0596Z" fill="#5CA6F2"/>
<path fill-rule="evenodd" clip-rule="evenodd" d="M59.1935 48.3835L60.7393 48.3832L64.5044 48.382L64.5701 48.3814L64.6355 48.3808L64.701 48.3802L64.7667 48.3796L64.8322 48.379L64.8833 48.3787H64.8976L64.9627 48.3781L65.0279 48.3775L65.093 48.3772L65.1582 48.3767L65.223 48.3764L65.2595 48.3761H65.2882L65.353 48.3755L65.4175 48.3752L65.4824 48.3749L65.5469 48.3746L65.6115 48.3743L65.6336 48.374H65.676L65.7403 48.3737L65.8048 48.3734L65.8688 48.3728H65.9333L65.9975 48.3725H66.005H66.0612L66.1254 48.3722H66.1894L66.253 48.3719H66.317H66.3743H66.3809L66.4443 48.3716H66.5079H66.5716H66.6349H66.6986H66.7416H66.7619L66.8253 48.3719L66.8883 48.3716H66.9517L67.0147 48.3719H67.0778H67.1067L67.1408 48.3722H67.2036L67.2666 48.3725L67.3294 48.3728L67.3921 48.3731H67.4549L67.4701 48.3734H67.5176L67.5801 48.3737L67.6425 48.374L67.7053 48.3746L67.7674 48.3749L67.8299 48.3752H67.8317L67.8923 48.3758H67.9545L68.0169 48.3761L68.0788 48.3767L68.141 48.3772L68.1909 48.3775H68.2031L68.265 48.3781L68.3271 48.3787L68.389 48.3793L68.4508 48.3799L68.5127 48.3805L68.5488 48.3808L68.5742 48.3811C70.3301 48.3997 72.028 48.4423 73.7163 48.5134L73.7745 48.516L74.1176 48.5311L74.1254 48.5314L74.33 48.5409L74.4606 48.5468L74.5344 48.5504L74.7388 48.5607L74.8034 48.564L74.9435 48.5708L75.1461 48.5814H75.1479L75.3523 48.5924L75.4892 48.5998L75.557 48.6036L75.7617 48.6152L75.8325 48.619L75.9667 48.627L76.1714 48.6388L76.1758 48.6391L76.3763 48.6513L76.5198 48.6601L76.5816 48.664L76.7869 48.677L76.8643 48.682L77.1981 48.7039L77.2091 48.7048L77.4043 48.7181L77.5549 48.7282L77.6105 48.7323L77.8172 48.7468L77.9012 48.7528L78.024 48.7616L78.2311 48.777L78.2484 48.7782L78.4385 48.7924L78.5965 48.8045L78.6464 48.8084L78.8544 48.8244L78.9459 48.8318L79.0633 48.8409L79.2725 48.8578L79.2961 48.8599L79.4819 48.875L79.6475 48.8886L79.6917 48.8924L79.9021 48.9099L80.0004 48.9185L80.113 48.9282L80.3243 48.9469L80.3545 48.9495L80.5362 48.9655L80.7104 48.9812L80.7483 48.9845L80.9614 49.0043L81.0675 49.0137L81.175 49.0241L81.3893 49.0442L81.4263 49.0478L81.6041 49.0646L81.787 49.0824L81.8196 49.0857L82.0353 49.107L82.1498 49.1179L82.2523 49.1283L82.4698 49.1502L82.514 49.1546L82.6879 49.1724L82.8804 49.1922L82.907 49.1948L83.1266 49.2179L83.2491 49.2309L83.3471 49.2413L83.5683 49.265L83.6199 49.2703L83.7906 49.2889L83.9932 49.3111L84.0132 49.3135L84.237 49.3381L84.3688 49.3529L84.4617 49.3632L84.687 49.3887L84.7465 49.3955L84.9135 49.4147L85.1272 49.4393L85.1409 49.4407L85.3692 49.4674L85.5106 49.484L85.5984 49.4943L85.8288 49.5215L85.8963 49.5298L86.0601 49.5493L86.2854 49.5766L86.2923 49.5775L86.5256 49.6059L86.6768 49.6245L86.7599 49.6349L86.9954 49.6639L87.0719 49.6733L87.232 49.6935L87.4699 49.7233C87.6614 49.8109 87.8572 49.9033 88.0484 49.995C89.472 50.672 90.7817 51.5068 91.9635 52.5306C93.131 53.5302 94.1972 54.9414 94.8614 56.4026C94.7751 58.2163 87.5201 59.4831 87.3611 59.5061C82.4354 60.2344 79.0197 60.691 78.5413 60.432C77.865 60.0879 76.9799 59.7562 75.9227 59.4677C74.7556 59.1371 73.4886 58.7593 72.0937 58.334C70.7126 57.9091 69.3174 57.3581 67.9369 56.6808C66.5626 56.0295 65.3129 55.1796 64.1739 54.1309L59.1947 54.1324C57.7666 54.1327 56.598 52.8401 56.5977 51.2591V51.2582C56.5974 49.6775 57.7651 48.3837 59.1935 48.3835L59.1935 48.3835Z" fill="#FFED00"/>
<path fill-rule="evenodd" clip-rule="evenodd" d="M22.8547 38.0743L44.3086 38.0687L61.2321 38.0642L63.2252 38.0637C63.8434 38.0634 64.3986 37.7476 64.765 37.2543C69.6118 37.0913 76.7335 37.7385 82.146 38.0486C85.5426 38.2433 90.5531 38.274 92.3114 38.6126L91.8046 44.2902C89.4419 43.6135 87.3349 43.1255 85.456 42.795C83.577 42.4644 81.9398 42.3076 80.5449 42.3079C79.3777 42.3082 78.4669 42.3715 77.7835 42.4979C77.1145 42.6242 76.6307 42.829 76.3319 43.1125C76.0471 43.3963 75.9049 43.7587 75.9192 44.1997C75.9336 44.8302 76.3038 45.3658 77.0299 45.7911C77.7417 46.232 78.6955 46.6415 79.877 47.0191C81.0726 47.4127 82.3683 47.8222 83.7915 48.2942C85.0206 48.6886 86.2493 49.1653 87.4694 49.7234C78.9462 48.6442 72.6146 48.3048 64.5038 48.3821L60.8869 48.3832C61.9932 48.3829 62.898 47.381 62.8977 46.1565C62.8974 44.9317 61.9923 43.9301 60.886 43.9304L60.2343 43.9307L41.6106 43.9354L22.8563 43.9404C21.3986 43.941 20.2064 42.6216 20.2061 41.0088V41.008C20.2058 39.3949 21.3974 38.0746 22.8548 38.0743L22.8547 38.0743Z" fill="#E61977"/>
</svg>
