<svg width="108" height="99" viewBox="0 0 108 99" fill="none" xmlns="http://www.w3.org/2000/svg">
<path fill-rule="evenodd" clip-rule="evenodd" d="M95.6529 26.5718L105.899 44.9313C107.812 48.3583 107.791 51.7472 105.899 55.0819L95.1729 74.3021L84.4452 93.5215C82.5992 96.8835 79.7724 98.5964 75.9473 98.5967L54.4944 98.5975L33.0405 98.5964C29.303 98.6236 26.4555 96.9474 24.5428 93.5209L13.8163 74.3022L3.08948 55.0814C1.19794 51.7466 1.17733 48.3577 3.08948 44.9307L13.816 25.7113L24.5428 6.49143C26.4555 3.06495 29.303 1.38874 33.0405 1.41594L54.543 1.40921C59.1404 3.88748 64.2212 7.59619 65.9679 12.4798C67.7146 17.3634 71.4831 21.7409 77.0668 22.6857C82.6506 23.6306 87.3768 20.6002 95.653 26.5717L95.6529 26.5718Z" stroke="#333333" stroke-width="3" stroke-linejoin="round"/>
<path fill-rule="evenodd" clip-rule="evenodd" d="M95.6529 26.5705L84.4453 6.48936C82.5993 3.1274 79.7724 1.41444 76.0458 1.40265L54.543 1.40854C59.1404 3.88596 64.2212 7.59467 65.9679 12.4782C67.7146 17.3618 71.483 21.7393 77.0668 22.6842C82.6506 23.629 87.3768 20.5986 95.653 26.5705L95.6529 26.5705Z" fill="#4E7AB5" stroke="#333333" stroke-width="3" stroke-linejoin="round"/>
<path fill-rule="evenodd" clip-rule="evenodd" d="M46.9707 29.5487H65.7767C67.5284 29.5487 69.1991 29.6873 70.7989 29.9555C71.594 30.1033 72.282 30.2419 72.8629 30.3805C73.4348 30.5193 73.8994 30.6579 74.2568 30.7965L75.3291 31.2033L74.8884 35.8052C73.7849 35.6046 70.6397 35.5858 68.5071 35.4711C65.1094 35.2882 60.6388 34.9075 57.5961 35.0023C57.774 34.7787 57.8812 34.4929 57.8812 34.182V34.1818C57.8812 33.5778 57.4757 33.0672 56.9328 32.9258L56.967 32.8868H56.6294H46.9707C46.0834 32.8868 45.3574 32.1361 45.3574 31.2182V31.2176C45.3574 30.2994 46.0834 29.5487 46.9707 29.5487H46.9707Z" fill="#5CA6F2"/>
<path fill-rule="evenodd" clip-rule="evenodd" d="M49.2395 41.5309H50.084C50.9805 41.5309 51.7141 42.2897 51.7141 43.2172C51.7141 44.1446 50.9805 44.9037 50.084 44.9037H49.2395C48.3429 44.9037 47.6094 44.1446 47.6094 43.2172C47.6094 42.2897 48.3429 41.5309 49.2395 41.5309Z" fill="#FFED00"/>
<path fill-rule="evenodd" clip-rule="evenodd" d="M40.0977 51.0376H64.942C65.595 50.9969 65.8599 50.899 66.1363 50.7755C66.8086 50.4748 67.0282 50.0052 67.0282 49.5061C67.0195 49.1641 66.7869 48.8774 66.3492 48.6558C66.3123 48.637 66.2808 48.6213 66.2415 48.6028C66.5417 48.7545 68.686 48.4872 71.7784 48.0608C71.8782 48.0473 76.4328 47.3053 76.4873 46.2412C76.9266 47.1187 77.1528 48.1696 77.1617 49.3953C77.1671 50.8089 76.9827 52.087 76.6101 53.2232C75.4353 55.0313 63.0849 54.8599 55.7704 54.484C55.6457 54.4152 55.5036 54.3757 55.3534 54.3757H55.2668H45.9952H40.0977C39.2103 54.3757 38.4844 53.6249 38.4844 52.707V52.7065C38.4844 51.7883 39.2103 51.0376 40.0977 51.0376L40.0977 51.0376Z" fill="#93C02C"/>
<path fill-rule="evenodd" clip-rule="evenodd" d="M35.3177 51.0374H36.1765C37.0641 51.0374 37.7901 51.7884 37.7901 52.7063V52.7066C37.7901 53.6245 37.0641 54.3758 36.1765 54.3758H35.3177C34.4301 54.3758 33.7041 53.6245 33.7041 52.7066V52.7063C33.7041 51.7884 34.4301 51.0374 35.3177 51.0374Z" fill="#93C02C"/>
<path d="M76.6094 53.2232C76.3998 53.8623 76.1308 54.457 75.8026 55.0063C74.8912 56.5224 73.4791 57.6779 71.5491 58.4727C69.628 59.2584 67.1525 59.656 64.1237 59.656H49.1668C48.2521 59.656 47.5039 58.8817 47.5039 57.9357V57.9352C47.5039 56.9889 48.2521 56.2149 49.1668 56.2149H55.0855H55.3526C55.8416 56.2149 56.2413 55.8011 56.2413 55.2953C56.2413 54.9449 56.0496 54.6391 55.7697 54.484C63.0842 54.8599 75.4347 55.0313 76.6094 53.2232L76.6094 53.2232Z" fill="#5CA6F2"/>
<path fill-rule="evenodd" clip-rule="evenodd" d="M54.0959 41.5309H55.0662H57.4299L57.4711 41.5306L57.5124 41.53L57.5533 41.5298L57.5945 41.5295L57.6355 41.5292L57.6678 41.5289H57.6767L57.7176 41.5286L57.7586 41.5284L57.7996 41.5281L57.8402 41.5278L57.8812 41.5275H57.904H57.9219L57.9625 41.527H58.0032L58.0439 41.5267H58.0843L58.125 41.5264L58.1388 41.5261H58.1654H58.2058L58.2462 41.5258L58.2866 41.5256H58.327H58.3671H58.372H58.4073L58.4474 41.5253H58.4876H58.5277H58.5678H58.6039H58.608L58.6478 41.525H58.6877H58.7276H58.7674H58.8073H58.8344H58.8471L58.8867 41.5253H58.9263H58.9662H59.0058H59.0454H59.0636L59.085 41.5256H59.1243H59.1639L59.2035 41.5258L59.2428 41.5261H59.2821H59.2916H59.3215L59.3608 41.5264L59.4001 41.5267L59.4392 41.527H59.4785L59.5175 41.5272H59.5186L59.5566 41.5275L59.5959 41.5278H59.635L59.6737 41.5284L59.7128 41.5286H59.7442H59.7518L59.7906 41.5292L59.8297 41.5295L59.8684 41.5298L59.9072 41.53L59.946 41.5306H59.9688L59.9848 41.5309C61.0872 41.5421 62.1529 41.5674 63.2127 41.6092L63.2493 41.6108L63.4647 41.6198L63.4696 41.6201L63.5981 41.6254L63.68 41.6291L63.7264 41.631L63.8546 41.6372L63.895 41.6392L63.9832 41.6431L64.1104 41.6493H64.1115L64.2397 41.656L64.3257 41.6602L64.3683 41.6625L64.4968 41.6695L64.5413 41.6717L64.6254 41.6762L64.7539 41.6832L64.7569 41.6835L64.8827 41.6908L64.9727 41.6958L65.0115 41.6981L65.1403 41.7059L65.1889 41.7087L65.3985 41.7217L65.4053 41.7222L65.5279 41.7298L65.6225 41.736L65.6572 41.7385L65.7871 41.7469L65.8397 41.7505L65.917 41.7556L66.0469 41.7646L66.0578 41.7654L66.1771 41.7738L66.2764 41.7808L66.3078 41.7831L66.4382 41.7926L66.4955 41.7968L66.5695 41.8024L66.7008 41.8123L66.7154 41.8134L66.832 41.8224L66.9362 41.8305L66.9638 41.8327L67.0959 41.8428L67.1577 41.8479L67.2282 41.8538L67.3608 41.8647L67.3798 41.8661L67.494 41.8757L67.6033 41.8849L67.6271 41.8869L67.7608 41.8984L67.8275 41.904L67.8951 41.9102L68.0293 41.922L68.0526 41.9239L68.1644 41.934L68.2791 41.9444L68.2997 41.9464L68.435 41.9587L68.5069 41.9654L68.5711 41.9713L68.7078 41.9842L68.7355 41.9868L68.8448 41.9974L68.9657 42.0089L68.9823 42.0106L69.12 42.0241L69.197 42.0316L69.2586 42.0378L69.3975 42.0518L69.43 42.0549L69.5368 42.0659L69.664 42.0788L69.6768 42.0802L69.817 42.0948L69.8997 42.1035L69.9583 42.1096L70.0998 42.1245L70.137 42.1284L70.2417 42.1399L70.3759 42.1542L70.3846 42.1551L70.528 42.1708L70.6164 42.1806L70.6718 42.1865L70.8163 42.2025L70.8589 42.2075L70.9617 42.219L71.103 42.235L71.1073 42.2356L71.2537 42.2521L71.3489 42.2631L71.401 42.2693L71.5488 42.2864L71.5968 42.292L71.6974 42.3038L71.8466 42.3214C71.9667 42.3728 72.0898 42.4269 72.2097 42.4808C73.1032 42.8783 73.9252 43.3681 74.6669 43.969C75.3999 44.5556 76.069 45.3838 76.4858 46.2411C76.4313 47.3052 71.8766 48.0472 71.7769 48.0607C68.6848 48.4871 66.5402 48.7545 66.24 48.6027C65.8156 48.4007 65.2602 48.2057 64.5963 48.0363C63.8636 47.8421 63.0685 47.6202 62.1928 47.3706C61.3258 47.1212 60.4501 46.7977 59.5834 46.4002C58.721 46.0178 57.9368 45.519 57.2216 44.9035H54.0959C53.1994 44.9035 52.4658 44.1449 52.4658 43.2175V43.2169C52.4658 42.2895 53.1994 41.5309 54.0959 41.5309L54.0959 41.5309Z" fill="#FFED00"/>
<path fill-rule="evenodd" clip-rule="evenodd" d="M31.2866 35.477H44.7543H55.3784H56.6294C57.0177 35.477 57.3662 35.2919 57.5962 35.0024C60.6389 34.9076 65.1094 35.2885 68.5071 35.4712C70.6394 35.5859 73.785 35.6047 74.8884 35.8036L74.5698 39.1347C73.0864 38.7372 71.7638 38.4505 70.5844 38.2563C69.4047 38.0622 68.3772 37.9699 67.5015 37.9699C66.7688 37.9699 66.1968 38.0069 65.7678 38.0807C65.348 38.1548 65.044 38.2749 64.8566 38.4412C64.6776 38.6079 64.5884 38.8202 64.5974 39.0792C64.6063 39.4489 64.8385 39.7631 65.2943 40.0128C65.7412 40.2714 66.3398 40.5119 67.0815 40.7338C67.8321 40.9649 68.6454 41.2053 69.5387 41.4825C70.3102 41.714 71.0815 41.9939 71.8473 42.3216C66.497 41.687 62.5222 41.487 57.4307 41.5311H55.16C55.8546 41.5311 56.4227 40.9433 56.4227 40.2249C56.4227 39.5064 55.8546 38.9187 55.16 38.9187H54.7511H43.0599H31.2865C30.3715 38.9187 29.623 38.1444 29.623 37.1982V37.1976C29.623 36.2513 30.3715 35.4771 31.2865 35.4771L31.2866 35.477Z" fill="#E61977"/>
<path d="M83.4335 68.3888H35.8984V73.9282H83.4335V68.3888Z" fill="#66798F"/>
</svg>
