<svg width="101" height="101" viewBox="0 0 101 101" fill="none" xmlns="http://www.w3.org/2000/svg">
<path d="M0.552734 92.6974H100.449" stroke="#333333" stroke-width="3" stroke-linejoin="round"/>
<path d="M99.3218 1.78146H1.68066V59.133H99.3218V1.78146Z" fill="white" stroke="#333333" stroke-width="3" stroke-linejoin="round"/>
<path d="M66.6325 44.4044L91.0508 44.3968L91.0518 49.8881L66.6335 49.8957L66.6325 44.4044Z" fill="#66798F"/>
<path d="M60.8824 34.5412L91.0479 34.5297L91.0483 37.6967L60.8829 37.7082L60.8824 34.5412Z" fill="#66798F"/>
<path d="M51.0227 28.8058L91.0479 28.7905L91.0483 31.9575L51.0231 31.9728L51.0227 28.8058Z" fill="#66798F"/>
<path d="M0.552734 67.0501H100.449" stroke="#333333" stroke-width="3" stroke-linejoin="round"/>
<path d="M0.552734 73.4618H100.449" stroke="#333333" stroke-width="3" stroke-linejoin="round"/>
<path d="M0.552734 79.8734H100.449" stroke="#333333" stroke-width="3" stroke-linejoin="round"/>
<path d="M0.552734 86.2855H100.449" stroke="#333333" stroke-width="3" stroke-linejoin="round"/>
<path d="M0.552734 99.1091H100.449" stroke="#333333" stroke-width="3" stroke-linejoin="round"/>
<path fill-rule="evenodd" clip-rule="evenodd" d="M19.2295 10.3561L31.4016 10.3528C32.5353 10.3525 33.6167 10.4441 34.6519 10.6211C35.1668 10.7188 35.612 10.8103 35.9881 10.9022C36.3581 10.9938 36.659 11.0854 36.8902 11.1769L37.5844 11.4459L37.2996 14.4901C36.5856 14.3579 34.5498 14.3458 33.1695 14.2702C30.9703 14.1498 28.0769 13.8986 26.1075 13.962C26.2224 13.8138 26.2918 13.6246 26.2918 13.4194V13.4191C26.2918 13.0197 26.0293 12.6819 25.6779 12.5885L25.7001 12.5625H25.4814L19.2302 12.5643C18.656 12.5643 18.1859 12.068 18.1855 11.4605V11.4602C18.1855 10.8531 18.6553 10.3561 19.2295 10.3561L19.2295 10.3561Z" fill="#5CA6F2"/>
<path fill-rule="evenodd" clip-rule="evenodd" d="M20.7003 18.2819L21.2469 18.2815C21.8272 18.2815 22.302 18.7835 22.302 19.3967C22.3023 20.0102 21.8275 20.5126 21.2472 20.5126L20.701 20.513C20.1207 20.513 19.6455 20.0109 19.6455 19.3974C19.6452 18.7839 20.12 18.2819 20.7003 18.2819Z" fill="#FFED00"/>
<path fill-rule="evenodd" clip-rule="evenodd" d="M14.7848 24.5717L30.865 24.5675C31.2876 24.5404 31.4591 24.4759 31.6381 24.394C32.0731 24.1951 32.215 23.8845 32.215 23.5542C32.2093 23.3279 32.0586 23.1384 31.7756 22.9916C31.7516 22.9795 31.7311 22.9692 31.7058 22.9567C31.8999 23.0572 33.288 22.8801 35.2894 22.5976C35.3537 22.5883 38.3014 22.097 38.3368 21.3929C38.6212 21.9733 38.7678 22.6685 38.7735 23.4794C38.7775 24.4143 38.6582 25.2597 38.4173 26.0115C37.6574 27.2076 29.6637 27.0964 24.9293 26.8488C24.8487 26.8035 24.7567 26.7772 24.6593 26.7775H24.6034L18.6026 26.7789L14.7855 26.78C14.2113 26.78 13.7412 26.2833 13.7412 25.6762V25.6759C13.7409 25.0684 14.2106 24.5717 14.7849 24.5717H14.7848Z" fill="#93C02C"/>
<path fill-rule="evenodd" clip-rule="evenodd" d="M11.6905 24.5726H12.2465C12.8211 24.5723 13.2912 25.0689 13.2912 25.6764C13.2912 26.2835 12.8214 26.7805 12.2472 26.7809H11.6912C11.1166 26.7809 10.6468 26.2842 10.6465 25.6771C10.6465 25.0697 11.1162 24.5726 11.6905 24.5726Z" fill="#93C02C"/>
<path d="M38.4165 26.0117C38.2807 26.4343 38.1068 26.828 37.8945 27.1914C37.3048 28.1944 36.3912 28.959 35.142 29.4852C33.8988 30.005 32.2968 30.2683 30.3362 30.269L20.6558 30.2715C20.0637 30.2715 19.5794 29.7595 19.5791 29.1339V29.1335C19.5791 28.5075 20.0634 27.9952 20.6554 27.9952L24.486 27.9941H24.6589C24.9753 27.9941 25.2341 27.7201 25.2338 27.3856C25.2338 27.154 25.1098 26.9516 24.9285 26.849C29.6629 27.0966 37.6566 27.2078 38.4165 26.0117H38.4165Z" fill="#5CA6F2"/>
<path fill-rule="evenodd" clip-rule="evenodd" d="M23.8438 18.2809H24.4717L26.0016 18.2805L26.0282 18.2802L26.0548 18.2798H26.0815L26.1081 18.2795L26.1347 18.2791H26.1556H26.1613L26.1879 18.2787H26.2142L26.2408 18.2784H26.2675L26.2938 18.278H26.3086H26.32L26.3463 18.2777H26.3726H26.3989L26.4252 18.2773H26.4515H26.4606H26.4778L26.5037 18.277H26.53H26.5559H26.5822L26.6082 18.2766H26.6115H26.6341H26.6604H26.6864H26.7123H26.7382H26.7615H26.7642L26.7898 18.2762H26.8158H26.8417H26.8673H26.8933H26.9108H26.9189L26.9445 18.2766L26.9701 18.2762H26.996L27.0217 18.2766H27.0473H27.0591H27.0729H27.0985H27.1241L27.1494 18.277H27.175H27.2003H27.2067H27.2259L27.2515 18.2773H27.2768H27.302L27.3273 18.2777H27.3529H27.3536L27.3782 18.278H27.4035H27.4287L27.454 18.2784L27.4793 18.2787H27.4995H27.5046H27.5295L27.5548 18.2791L27.58 18.2795H27.605L27.6303 18.2798H27.6451L27.6552 18.2802C28.3686 18.2873 29.0584 18.3037 29.7445 18.3315L29.7681 18.3325L29.9076 18.3382H29.9107L29.9939 18.3422L30.0468 18.3443L30.0768 18.3457L30.16 18.3496L30.186 18.3511L30.2429 18.3536L30.3255 18.3578H30.3262L30.4091 18.3621L30.465 18.365L30.4923 18.3664L30.5756 18.371L30.6042 18.3724L30.6588 18.3753L30.742 18.3799L30.7437 18.3803L30.8253 18.3849L30.8836 18.3885L30.9085 18.3899L30.9921 18.3949L31.0234 18.397L31.1592 18.4052L31.1636 18.4056L31.2428 18.4109L31.3041 18.4148L31.3267 18.4163L31.4106 18.422L31.445 18.4245L31.4949 18.4277L31.5788 18.4337L31.5858 18.4341L31.663 18.4398L31.7274 18.4444L31.7476 18.4458L31.8322 18.4519L31.8693 18.4547L31.9171 18.4587L32.002 18.4651L32.0115 18.4658L32.087 18.4718L32.1543 18.4772L32.1722 18.4786L32.2578 18.4854L32.2979 18.4886L32.3434 18.4925L32.4293 18.4996L32.4415 18.5007L32.5156 18.5068L32.586 18.5128L32.6015 18.5142L32.6881 18.5217L32.7313 18.5256L32.7751 18.5296L32.862 18.5374L32.8772 18.5388L32.9493 18.5452L33.0238 18.552L33.0369 18.5534L33.1245 18.5616L33.171 18.5659L33.2128 18.5698L33.3011 18.5784L33.319 18.5802L33.3898 18.5873L33.4679 18.5948L33.4787 18.5958L33.568 18.6047L33.6176 18.6097L33.6577 18.6136L33.7473 18.6229L33.7685 18.6251L33.8376 18.6322L33.9202 18.6411L33.9283 18.6418L34.0193 18.6514L34.0725 18.6571L34.1102 18.661L34.2019 18.671L34.2262 18.6735L34.2939 18.681L34.3808 18.6906L34.3862 18.6913L34.4792 18.7017L34.5365 18.7081L34.5723 18.712L34.6659 18.7227L34.6932 18.7259L34.76 18.7334L34.8513 18.744L34.854 18.7444L34.949 18.7555L35.0103 18.7626L35.044 18.7665L35.1397 18.7779L35.1707 18.7815L35.2361 18.7893L35.3325 18.8011C35.4103 18.8349 35.4899 18.8705 35.5677 18.9062C36.146 19.1691 36.6781 19.493 37.1583 19.8906C37.6328 20.2782 38.0658 20.8258 38.3358 21.393C38.3007 22.0971 35.3531 22.5884 35.2884 22.5977C33.287 22.8802 31.8992 23.0573 31.7048 22.9568C31.4302 22.8232 31.0706 22.6946 30.6409 22.5823C30.1668 22.4541 29.6519 22.3076 29.085 22.1427C28.524 21.9777 27.9571 21.7639 27.3964 21.501C26.838 21.2484 26.3302 20.9185 25.8675 20.5116L23.8442 20.5119C23.2639 20.5123 22.7891 20.0106 22.7891 19.3971V19.3968C22.7891 18.7832 23.2635 18.2812 23.8438 18.2809H23.8438Z" fill="#FFED00"/>
<path fill-rule="evenodd" clip-rule="evenodd" d="M9.07892 14.2802L17.7959 14.278L24.6721 14.2763L25.4816 14.2759C25.733 14.2759 25.9584 14.1533 26.1074 13.962C28.0768 13.8986 30.9702 14.1498 33.1694 14.2702C34.5497 14.3457 36.5854 14.3578 37.2999 14.489L37.094 16.6926C36.1339 16.4297 35.2776 16.2405 34.5143 16.1122C33.7507 15.9839 33.0858 15.923 32.519 15.923C32.0448 15.9234 31.6745 15.948 31.3968 15.9968C31.1252 16.0459 30.9284 16.1254 30.8071 16.2355C30.6915 16.3456 30.6335 16.4863 30.6396 16.6573C30.6453 16.9021 30.7956 17.1098 31.0908 17.2748C31.3799 17.4461 31.7675 17.605 32.2474 17.7515C32.7333 17.9043 33.2597 18.0632 33.838 18.2464C34.3374 18.3992 34.8368 18.5845 35.3322 18.8011C31.8693 18.3821 29.2967 18.2506 26.0012 18.2806L24.5316 18.2809C24.9812 18.2806 25.3488 17.8919 25.3488 17.4166C25.3485 16.9413 24.9808 16.5526 24.5313 16.5529H24.2667L16.6996 16.5547L9.07961 16.5568C8.48752 16.5568 8.00293 16.0449 8.00293 15.4189V15.4185C8.00259 14.7925 8.48685 14.2802 9.07894 14.2802H9.07892Z" fill="#E61977"/>
</svg>
